<?xml version="1.0" encoding="utf-8" standalone="no"?>
<!DOCTYPE svg PUBLIC "-//W3C//DTD SVG 1.1//EN"
  "http://www.w3.org/Graphics/SVG/1.1/DTD/svg11.dtd">
<svg xmlns:xlink="http://www.w3.org/1999/xlink" width="1080pt" height="360pt" viewBox="0 0 1080 360" xmlns="http://www.w3.org/2000/svg" version="1.1">
 <metadata>
  <rdf:RDF xmlns:dc="http://purl.org/dc/elements/1.1/" xmlns:cc="http://creativecommons.org/ns#" xmlns:rdf="http://www.w3.org/1999/02/22-rdf-syntax-ns#">
   <cc:Work>
    <dc:type rdf:resource="http://purl.org/dc/dcmitype/StillImage"/>
    <dc:date>2026-06-13T17:52:09.309822</dc:date>
    <dc:format>image/svg+xml</dc:format>
    <dc:creator>
     <cc:Agent>
      <dc:title>Matplotlib v3.11.0, https://matplotlib.org/</dc:title>
     </cc:Agent>
    </dc:creator>
   </cc:Work>
  </rdf:RDF>
 </metadata>
 <defs>
  <style type="text/css">*{stroke-linejoin: round; stroke-linecap: butt}</style>
 </defs>
 <g id="figure_1">
  <g id="patch_1">
   <path d="M 0 360 
L 1080 360 
L 1080 0 
L 0 0 
z
" style="fill: #ffffff"/>
  </g>
  <g id="axes_1">
   <g id="patch_2">
    <path d="M 25.903365 325.99976 
L 529.826562 325.99976 
L 529.826562 38.119939 
L 25.903365 38.119939 
z
" style="fill: #ffffff"/>
   </g>
   <g id="matplotlib.axis_1">
    <g id="xtick_1">
     <g id="line2d_1">
      <path d="M 44.959284 325.99976 
L 44.959284 38.119939 
" clip-path="url(#p12b7bf1159)" style="fill: none; stroke: #b0b0b0; stroke-opacity: 0.25; stroke-width: 0.8; stroke-linecap: square"/>
     </g>
     <g id="line2d_2">
      <defs>
       <path id="m612970510d" d="M 0 0 
L 0 3.5 
" style="stroke: #000000; stroke-width: 0.8"/>
      </defs>
      <g>
       <use xlink:href="#m612970510d" x="44.959284" y="325.99976" style="stroke: #000000; stroke-width: 0.8"/>
      </g>
     </g>
     <g id="text_1">
      <!-- 0 -->
      <g transform="translate(41.778034 340.597416) scale(0.1 -0.1)">
       <defs>
        <path id="DejaVuSans-13" d="M 2034 4250 
Q 1547 4250 1301 3770 
Q 1056 3291 1056 2328 
Q 1056 1369 1301 889 
Q 1547 409 2034 409 
Q 2525 409 2770 889 
Q 3016 1369 3016 2328 
Q 3016 3291 2770 3770 
Q 2525 4250 2034 4250 
z
M 2034 4750 
Q 2819 4750 3233 4129 
Q 3647 3509 3647 2328 
Q 3647 1150 3233 529 
Q 2819 -91 2034 -91 
Q 1250 -91 836 529 
Q 422 1150 422 2328 
Q 422 3509 836 4129 
Q 1250 4750 2034 4750 
z
" transform="scale(0.015625)"/>
       </defs>
       <use xlink:href="#DejaVuSans-13"/>
      </g>
     </g>
    </g>
    <g id="xtick_2">
     <g id="line2d_3">
      <path d="M 121.952897 325.99976 
L 121.952897 38.119939 
" clip-path="url(#p12b7bf1159)" style="fill: none; stroke: #b0b0b0; stroke-opacity: 0.25; stroke-width: 0.8; stroke-linecap: square"/>
     </g>
     <g id="line2d_4">
      <g>
       <use xlink:href="#m612970510d" x="121.952897" y="325.99976" style="stroke: #000000; stroke-width: 0.8"/>
      </g>
     </g>
     <g id="text_2">
      <!-- 20 -->
      <g transform="translate(115.590397 340.597416) scale(0.1 -0.1)">
       <defs>
        <path id="DejaVuSans-15" d="M 1228 531 
L 3431 531 
L 3431 0 
L 469 0 
L 469 531 
Q 828 903 1448 1529 
Q 2069 2156 2228 2338 
Q 2531 2678 2651 2914 
Q 2772 3150 2772 3378 
Q 2772 3750 2511 3984 
Q 2250 4219 1831 4219 
Q 1534 4219 1204 4116 
Q 875 4013 500 3803 
L 500 4441 
Q 881 4594 1212 4672 
Q 1544 4750 1819 4750 
Q 2544 4750 2975 4387 
Q 3406 4025 3406 3419 
Q 3406 3131 3298 2873 
Q 3191 2616 2906 2266 
Q 2828 2175 2409 1742 
Q 1991 1309 1228 531 
z
" transform="scale(0.015625)"/>
       </defs>
       <use xlink:href="#DejaVuSans-15"/>
       <use xlink:href="#DejaVuSans-13" transform="translate(63.625 0)"/>
      </g>
     </g>
    </g>
    <g id="xtick_3">
     <g id="line2d_5">
      <path d="M 198.94651 325.99976 
L 198.94651 38.119939 
" clip-path="url(#p12b7bf1159)" style="fill: none; stroke: #b0b0b0; stroke-opacity: 0.25; stroke-width: 0.8; stroke-linecap: square"/>
     </g>
     <g id="line2d_6">
      <g>
       <use xlink:href="#m612970510d" x="198.94651" y="325.99976" style="stroke: #000000; stroke-width: 0.8"/>
      </g>
     </g>
     <g id="text_3">
      <!-- 40 -->
      <g transform="translate(192.58401 340.597416) scale(0.1 -0.1)">
       <defs>
        <path id="DejaVuSans-17" d="M 2419 4116 
L 825 1625 
L 2419 1625 
L 2419 4116 
z
M 2253 4666 
L 3047 4666 
L 3047 1625 
L 3713 1625 
L 3713 1100 
L 3047 1100 
L 3047 0 
L 2419 0 
L 2419 1100 
L 313 1100 
L 313 1709 
L 2253 4666 
z
" transform="scale(0.015625)"/>
       </defs>
       <use xlink:href="#DejaVuSans-17"/>
       <use xlink:href="#DejaVuSans-13" transform="translate(63.625 0)"/>
      </g>
     </g>
    </g>
    <g id="xtick_4">
     <g id="line2d_7">
      <path d="M 275.940123 325.99976 
L 275.940123 38.119939 
" clip-path="url(#p12b7bf1159)" style="fill: none; stroke: #b0b0b0; stroke-opacity: 0.25; stroke-width: 0.8; stroke-linecap: square"/>
     </g>
     <g id="line2d_8">
      <g>
       <use xlink:href="#m612970510d" x="275.940123" y="325.99976" style="stroke: #000000; stroke-width: 0.8"/>
      </g>
     </g>
     <g id="text_4">
      <!-- 60 -->
      <g transform="translate(269.577623 340.597416) scale(0.1 -0.1)">
       <defs>
        <path id="DejaVuSans-19" d="M 2113 2584 
Q 1688 2584 1439 2293 
Q 1191 2003 1191 1497 
Q 1191 994 1439 701 
Q 1688 409 2113 409 
Q 2538 409 2786 701 
Q 3034 994 3034 1497 
Q 3034 2003 2786 2293 
Q 2538 2584 2113 2584 
z
M 3366 4563 
L 3366 3988 
Q 3128 4100 2886 4159 
Q 2644 4219 2406 4219 
Q 1781 4219 1451 3797 
Q 1122 3375 1075 2522 
Q 1259 2794 1537 2939 
Q 1816 3084 2150 3084 
Q 2853 3084 3261 2657 
Q 3669 2231 3669 1497 
Q 3669 778 3244 343 
Q 2819 -91 2113 -91 
Q 1303 -91 875 529 
Q 447 1150 447 2328 
Q 447 3434 972 4092 
Q 1497 4750 2381 4750 
Q 2619 4750 2861 4703 
Q 3103 4656 3366 4563 
z
" transform="scale(0.015625)"/>
       </defs>
       <use xlink:href="#DejaVuSans-19"/>
       <use xlink:href="#DejaVuSans-13" transform="translate(63.625 0)"/>
      </g>
     </g>
    </g>
    <g id="xtick_5">
     <g id="line2d_9">
      <path d="M 352.933736 325.99976 
L 352.933736 38.119939 
" clip-path="url(#p12b7bf1159)" style="fill: none; stroke: #b0b0b0; stroke-opacity: 0.25; stroke-width: 0.8; stroke-linecap: square"/>
     </g>
     <g id="line2d_10">
      <g>
       <use xlink:href="#m612970510d" x="352.933736" y="325.99976" style="stroke: #000000; stroke-width: 0.8"/>
      </g>
     </g>
     <g id="text_5">
      <!-- 80 -->
      <g transform="translate(346.571236 340.597416) scale(0.1 -0.1)">
       <defs>
        <path id="DejaVuSans-1b" d="M 2034 2216 
Q 1584 2216 1326 1975 
Q 1069 1734 1069 1313 
Q 1069 891 1326 650 
Q 1584 409 2034 409 
Q 2484 409 2743 651 
Q 3003 894 3003 1313 
Q 3003 1734 2745 1975 
Q 2488 2216 2034 2216 
z
M 1403 2484 
Q 997 2584 770 2862 
Q 544 3141 544 3541 
Q 544 4100 942 4425 
Q 1341 4750 2034 4750 
Q 2731 4750 3128 4425 
Q 3525 4100 3525 3541 
Q 3525 3141 3298 2862 
Q 3072 2584 2669 2484 
Q 3125 2378 3379 2068 
Q 3634 1759 3634 1313 
Q 3634 634 3220 271 
Q 2806 -91 2034 -91 
Q 1263 -91 848 271 
Q 434 634 434 1313 
Q 434 1759 690 2068 
Q 947 2378 1403 2484 
z
M 1172 3481 
Q 1172 3119 1398 2916 
Q 1625 2713 2034 2713 
Q 2441 2713 2670 2916 
Q 2900 3119 2900 3481 
Q 2900 3844 2670 4047 
Q 2441 4250 2034 4250 
Q 1625 4250 1398 4047 
Q 1172 3844 1172 3481 
z
" transform="scale(0.015625)"/>
       </defs>
       <use xlink:href="#DejaVuSans-1b"/>
       <use xlink:href="#DejaVuSans-13" transform="translate(63.625 0)"/>
      </g>
     </g>
    </g>
    <g id="xtick_6">
     <g id="line2d_11">
      <path d="M 429.92735 325.99976 
L 429.92735 38.119939 
" clip-path="url(#p12b7bf1159)" style="fill: none; stroke: #b0b0b0; stroke-opacity: 0.25; stroke-width: 0.8; stroke-linecap: square"/>
     </g>
     <g id="line2d_12">
      <g>
       <use xlink:href="#m612970510d" x="429.92735" y="325.99976" style="stroke: #000000; stroke-width: 0.8"/>
      </g>
     </g>
     <g id="text_6">
      <!-- 100 -->
      <g transform="translate(420.3836 340.597416) scale(0.1 -0.1)">
       <defs>
        <path id="DejaVuSans-14" d="M 794 531 
L 1825 531 
L 1825 4091 
L 703 3866 
L 703 4441 
L 1819 4666 
L 2450 4666 
L 2450 531 
L 3481 531 
L 3481 0 
L 794 0 
L 794 531 
z
" transform="scale(0.015625)"/>
       </defs>
       <use xlink:href="#DejaVuSans-14"/>
       <use xlink:href="#DejaVuSans-13" transform="translate(63.625 0)"/>
       <use xlink:href="#DejaVuSans-13" transform="translate(127.25 0)"/>
      </g>
     </g>
    </g>
    <g id="xtick_7">
     <g id="line2d_13">
      <path d="M 506.920963 325.99976 
L 506.920963 38.119939 
" clip-path="url(#p12b7bf1159)" style="fill: none; stroke: #b0b0b0; stroke-opacity: 0.25; stroke-width: 0.8; stroke-linecap: square"/>
     </g>
     <g id="line2d_14">
      <g>
       <use xlink:href="#m612970510d" x="506.920963" y="325.99976" style="stroke: #000000; stroke-width: 0.8"/>
      </g>
     </g>
     <g id="text_7">
      <!-- 120 -->
      <g transform="translate(497.377213 340.597416) scale(0.1 -0.1)">
       <use xlink:href="#DejaVuSans-14"/>
       <use xlink:href="#DejaVuSans-15" transform="translate(63.625 0)"/>
       <use xlink:href="#DejaVuSans-13" transform="translate(127.25 0)"/>
      </g>
     </g>
    </g>
    <g id="text_8">
     <!-- step -->
     <g transform="translate(267.049339 354.597416) scale(0.1 -0.1)">
      <defs>
       <path id="DejaVuSans-56" d="M 2834 3397 
L 2834 2853 
Q 2591 2978 2328 3040 
Q 2066 3103 1784 3103 
Q 1356 3103 1142 2972 
Q 928 2841 928 2578 
Q 928 2378 1081 2264 
Q 1234 2150 1697 2047 
L 1894 2003 
Q 2506 1872 2764 1633 
Q 3022 1394 3022 966 
Q 3022 478 2636 193 
Q 2250 -91 1575 -91 
Q 1294 -91 989 -36 
Q 684 19 347 128 
L 347 722 
Q 666 556 975 473 
Q 1284 391 1588 391 
Q 1994 391 2212 530 
Q 2431 669 2431 922 
Q 2431 1156 2273 1281 
Q 2116 1406 1581 1522 
L 1381 1569 
Q 847 1681 609 1914 
Q 372 2147 372 2553 
Q 372 3047 722 3315 
Q 1072 3584 1716 3584 
Q 2034 3584 2315 3537 
Q 2597 3491 2834 3397 
z
" transform="scale(0.015625)"/>
       <path id="DejaVuSans-57" d="M 1172 4494 
L 1172 3500 
L 2356 3500 
L 2356 3053 
L 1172 3053 
L 1172 1153 
Q 1172 725 1289 603 
Q 1406 481 1766 481 
L 2356 481 
L 2356 0 
L 1766 0 
Q 1100 0 847 248 
Q 594 497 594 1153 
L 594 3053 
L 172 3053 
L 172 3500 
L 594 3500 
L 594 4494 
L 1172 4494 
z
" transform="scale(0.015625)"/>
       <path id="DejaVuSans-48" d="M 3597 1894 
L 3597 1613 
L 953 1613 
Q 991 1019 1311 708 
Q 1631 397 2203 397 
Q 2534 397 2845 478 
Q 3156 559 3463 722 
L 3463 178 
Q 3153 47 2828 -22 
Q 2503 -91 2169 -91 
Q 1331 -91 842 396 
Q 353 884 353 1716 
Q 353 2575 817 3079 
Q 1281 3584 2069 3584 
Q 2775 3584 3186 3129 
Q 3597 2675 3597 1894 
z
M 3022 2063 
Q 3016 2534 2758 2815 
Q 2500 3097 2075 3097 
Q 1594 3097 1305 2825 
Q 1016 2553 972 2059 
L 3022 2063 
z
" transform="scale(0.015625)"/>
       <path id="DejaVuSans-53" d="M 1159 525 
L 1159 -1331 
L 581 -1331 
L 581 3500 
L 1159 3500 
L 1159 2969 
Q 1341 3281 1617 3432 
Q 1894 3584 2278 3584 
Q 2916 3584 3314 3078 
Q 3713 2572 3713 1747 
Q 3713 922 3314 415 
Q 2916 -91 2278 -91 
Q 1894 -91 1617 61 
Q 1341 213 1159 525 
z
M 3116 1747 
Q 3116 2381 2855 2742 
Q 2594 3103 2138 3103 
Q 1681 3103 1420 2742 
Q 1159 2381 1159 1747 
Q 1159 1113 1420 752 
Q 1681 391 2138 391 
Q 2594 391 2855 752 
Q 3116 1113 3116 1747 
z
" transform="scale(0.015625)"/>
      </defs>
      <use xlink:href="#DejaVuSans-56"/>
      <use xlink:href="#DejaVuSans-57" transform="translate(52.09375 0)"/>
      <use xlink:href="#DejaVuSans-48" transform="translate(91.296875 0)"/>
      <use xlink:href="#DejaVuSans-53" transform="translate(152.828125 0)"/>
     </g>
    </g>
   </g>
   <g id="matplotlib.axis_2">
    <g id="ytick_1">
     <g id="line2d_15">
      <path d="M 25.903365 317.152851 
L 529.826562 317.152851 
" clip-path="url(#p12b7bf1159)" style="fill: none; stroke: #b0b0b0; stroke-opacity: 0.25; stroke-width: 0.8; stroke-linecap: square"/>
     </g>
     <g id="line2d_16">
      <defs>
       <path id="ma1ae209551" d="M 0 0 
L -3.5 0 
" style="stroke: #000000; stroke-width: 0.8"/>
      </defs>
      <g>
       <use xlink:href="#ma1ae209551" x="25.903365" y="317.152851" style="stroke: #000000; stroke-width: 0.8"/>
      </g>
     </g>
     <g id="text_9">
      <!-- 0.0 -->
      <g transform="translate(3.00024 320.951679) scale(0.1 -0.1)">
       <defs>
        <path id="DejaVuSans-11" d="M 684 794 
L 1344 794 
L 1344 0 
L 684 0 
L 684 794 
z
" transform="scale(0.015625)"/>
       </defs>
       <use xlink:href="#DejaVuSans-13"/>
       <use xlink:href="#DejaVuSans-11" transform="translate(63.625 0)"/>
       <use xlink:href="#DejaVuSans-13" transform="translate(95.40625 0)"/>
      </g>
     </g>
    </g>
    <g id="ytick_2">
     <g id="line2d_17">
      <path d="M 25.903365 263.963358 
L 529.826562 263.963358 
" clip-path="url(#p12b7bf1159)" style="fill: none; stroke: #b0b0b0; stroke-opacity: 0.25; stroke-width: 0.8; stroke-linecap: square"/>
     </g>
     <g id="line2d_18">
      <g>
       <use xlink:href="#ma1ae209551" x="25.903365" y="263.963358" style="stroke: #000000; stroke-width: 0.8"/>
      </g>
     </g>
     <g id="text_10">
      <!-- 0.2 -->
      <g transform="translate(3.00024 267.762186) scale(0.1 -0.1)">
       <use xlink:href="#DejaVuSans-13"/>
       <use xlink:href="#DejaVuSans-11" transform="translate(63.625 0)"/>
       <use xlink:href="#DejaVuSans-15" transform="translate(95.40625 0)"/>
      </g>
     </g>
    </g>
    <g id="ytick_3">
     <g id="line2d_19">
      <path d="M 25.903365 210.773865 
L 529.826562 210.773865 
" clip-path="url(#p12b7bf1159)" style="fill: none; stroke: #b0b0b0; stroke-opacity: 0.25; stroke-width: 0.8; stroke-linecap: square"/>
     </g>
     <g id="line2d_20">
      <g>
       <use xlink:href="#ma1ae209551" x="25.903365" y="210.773865" style="stroke: #000000; stroke-width: 0.8"/>
      </g>
     </g>
     <g id="text_11">
      <!-- 0.4 -->
      <g transform="translate(3.00024 214.572693) scale(0.1 -0.1)">
       <use xlink:href="#DejaVuSans-13"/>
       <use xlink:href="#DejaVuSans-11" transform="translate(63.625 0)"/>
       <use xlink:href="#DejaVuSans-17" transform="translate(95.40625 0)"/>
      </g>
     </g>
    </g>
    <g id="ytick_4">
     <g id="line2d_21">
      <path d="M 25.903365 157.584372 
L 529.826562 157.584372 
" clip-path="url(#p12b7bf1159)" style="fill: none; stroke: #b0b0b0; stroke-opacity: 0.25; stroke-width: 0.8; stroke-linecap: square"/>
     </g>
     <g id="line2d_22">
      <g>
       <use xlink:href="#ma1ae209551" x="25.903365" y="157.584372" style="stroke: #000000; stroke-width: 0.8"/>
      </g>
     </g>
     <g id="text_12">
      <!-- 0.6 -->
      <g transform="translate(3.00024 161.3832) scale(0.1 -0.1)">
       <use xlink:href="#DejaVuSans-13"/>
       <use xlink:href="#DejaVuSans-11" transform="translate(63.625 0)"/>
       <use xlink:href="#DejaVuSans-19" transform="translate(95.40625 0)"/>
      </g>
     </g>
    </g>
    <g id="ytick_5">
     <g id="line2d_23">
      <path d="M 25.903365 104.394878 
L 529.826562 104.394878 
" clip-path="url(#p12b7bf1159)" style="fill: none; stroke: #b0b0b0; stroke-opacity: 0.25; stroke-width: 0.8; stroke-linecap: square"/>
     </g>
     <g id="line2d_24">
      <g>
       <use xlink:href="#ma1ae209551" x="25.903365" y="104.394878" style="stroke: #000000; stroke-width: 0.8"/>
      </g>
     </g>
     <g id="text_13">
      <!-- 0.8 -->
      <g transform="translate(3.00024 108.193707) scale(0.1 -0.1)">
       <use xlink:href="#DejaVuSans-13"/>
       <use xlink:href="#DejaVuSans-11" transform="translate(63.625 0)"/>
       <use xlink:href="#DejaVuSans-1b" transform="translate(95.40625 0)"/>
      </g>
     </g>
    </g>
    <g id="ytick_6">
     <g id="line2d_25">
      <path d="M 25.903365 51.205385 
L 529.826562 51.205385 
" clip-path="url(#p12b7bf1159)" style="fill: none; stroke: #b0b0b0; stroke-opacity: 0.25; stroke-width: 0.8; stroke-linecap: square"/>
     </g>
     <g id="line2d_26">
      <g>
       <use xlink:href="#ma1ae209551" x="25.903365" y="51.205385" style="stroke: #000000; stroke-width: 0.8"/>
      </g>
     </g>
     <g id="text_14">
      <!-- 1.0 -->
      <g transform="translate(3.00024 55.004213) scale(0.1 -0.1)">
       <use xlink:href="#DejaVuSans-14"/>
       <use xlink:href="#DejaVuSans-11" transform="translate(63.625 0)"/>
       <use xlink:href="#DejaVuSans-13" transform="translate(95.40625 0)"/>
      </g>
     </g>
    </g>
   </g>
   <g id="line2d_27">
    <path d="M 48.808965 51.205385 
L 52.658646 130.989612 
L 56.508326 128.911898 
L 60.358007 51.371606 
L 64.207687 130.075429 
L 68.057368 117.941567 
L 71.907049 199.055546 
L 75.756729 51.205385 
L 79.60641 51.205385 
L 83.456091 51.205385 
L 87.305771 142.874158 
L 91.155452 54.612836 
L 95.005133 141.461312 
L 98.854813 51.205385 
L 102.704494 51.205385 
L 106.554175 61.510848 
L 110.403855 51.205385 
L 114.253536 129.32745 
L 118.103217 142.85753 
L 121.952897 71.151442 
L 125.802578 121.515239 
L 129.652259 87.191401 
L 133.501939 51.205385 
L 137.35162 130.141927 
L 141.201301 123.011196 
L 145.050981 134.779374 
L 148.900662 51.205385 
L 152.750343 51.205385 
L 156.600023 204.790035 
L 160.449704 51.205385 
L 164.299384 61.178421 
L 168.149065 51.205385 
L 171.998746 51.205385 
L 175.848426 123.509859 
L 179.698107 131.155849 
L 183.547788 51.205385 
L 187.397468 99.90702 
L 191.247149 64.170336 
L 195.09683 81.207573 
L 198.94651 52.452011 
L 202.796191 183.663843 
L 206.645872 51.205385 
L 210.495552 131.155849 
L 214.345233 51.537827 
L 218.194914 51.205385 
L 222.044594 138.635618 
L 225.894275 128.911914 
L 229.743956 51.205385 
L 233.593636 51.205385 
L 237.443317 51.371606 
L 241.292998 68.242638 
L 245.142678 77.13527 
L 248.992359 51.205385 
L 252.84204 129.161229 
L 256.69172 51.205385 
L 260.541401 51.205385 
L 264.391081 86.194091 
L 268.240762 124.590263 
L 272.090443 51.205385 
L 275.940123 71.982531 
" clip-path="url(#p12b7bf1159)" style="fill: none; stroke: #2f6fbb; stroke-opacity: 0.45; stroke-width: 1.5; stroke-linecap: square"/>
   </g>
   <g id="line2d_28">
    <path d="M 48.808965 51.205385 
L 52.658646 91.097499 
L 56.508326 103.702298 
L 60.358007 90.619625 
L 64.207687 98.510786 
L 68.057368 111.858022 
L 71.907049 125.471209 
L 75.756729 109.929907 
L 79.60641 109.896663 
L 83.456091 94.122654 
L 87.305771 99.109172 
L 91.155452 70.22063 
L 95.005133 88.271815 
L 98.854813 88.271815 
L 102.704494 88.271815 
L 106.554175 71.999153 
L 110.403855 71.317663 
L 114.253536 68.890891 
L 118.103217 87.22132 
L 121.952897 91.210531 
L 125.802578 103.211409 
L 129.652259 110.408612 
L 133.501939 94.784199 
L 137.35162 92.241079 
L 141.201301 102.61303 
L 145.050981 105.265857 
L 148.900662 98.068653 
L 152.750343 98.068653 
L 156.600023 112.998275 
L 160.449704 98.637113 
L 164.299384 83.916922 
L 168.149065 83.916922 
L 171.998746 83.916922 
L 175.848426 67.660887 
L 179.698107 83.65098 
L 183.547788 81.656373 
L 187.397468 91.3967 
L 191.247149 93.98969 
L 195.09683 85.529233 
L 198.94651 69.788465 
L 202.796191 96.280156 
L 206.645872 86.539829 
L 210.495552 99.936932 
L 214.345233 94.002983 
L 218.194914 93.753658 
L 222.044594 84.748013 
L 225.894275 100.289319 
L 229.743956 84.299226 
L 233.593636 84.232738 
L 237.443317 84.265982 
L 241.292998 70.187386 
L 245.142678 59.832057 
L 248.992359 59.832057 
L 252.84204 75.423226 
L 256.69172 75.389982 
L 260.541401 71.982531 
L 264.391081 73.794295 
L 268.240762 88.471271 
L 272.090443 72.880102 
L 275.940123 77.035531 
" clip-path="url(#p12b7bf1159)" style="fill: none; stroke: #2f6fbb; stroke-width: 2.8; stroke-linecap: square"/>
   </g>
   <g id="line2d_29">
    <path d="M 48.808965 265.758499 
L 52.658646 306.7809 
L 56.508326 307.84469 
L 60.358007 297.373006 
L 64.207687 259.625091 
L 68.057368 199.354747 
L 71.907049 243.684862 
L 75.756729 300.248566 
L 79.60641 307.811446 
L 83.456091 251.181256 
L 87.305771 296.242731 
L 91.155452 267.354187 
L 95.005133 306.348735 
L 98.854813 308.90848 
L 102.704494 223.073938 
L 106.554175 178.577601 
L 110.403855 292.403116 
L 114.253536 307.113334 
L 118.103217 224.054611 
L 121.952897 262.434159 
L 125.802578 180.954501 
L 129.652259 249.086917 
L 133.501939 267.852842 
L 137.35162 146.281593 
L 141.201301 235.540225 
L 145.050981 249.768414 
L 148.900662 214.86281 
L 152.750343 249.984488 
L 156.600023 223.306633 
L 160.449704 269.548257 
L 164.299384 247.374886 
L 168.149065 262.666866 
L 171.998746 256.61656 
L 175.848426 216.707814 
L 179.698107 206.036677 
L 183.547788 261.037933 
L 187.397468 254.48898 
L 191.247149 261.553209 
L 195.09683 209.859672 
L 198.94651 211.571703 
L 202.796191 265.791748 
L 206.645872 160.576295 
L 210.495552 245.845688 
L 214.345233 189.830504 
L 218.194914 237.867271 
L 222.044594 206.036684 
L 225.894275 173.325139 
L 229.743956 217.173228 
L 233.593636 233.130077 
L 237.443317 203.061375 
L 241.292998 275.099909 
L 245.142678 257.314673 
L 248.992359 254.09006 
L 252.84204 151.185001 
L 256.69172 268.783658 
L 260.541401 241.856471 
L 264.391081 291.705007 
L 268.240762 228.259918 
L 272.090443 312.914314 
L 275.940123 192.290507 
L 279.789804 270.612045 
L 283.639485 268.085545 
L 287.489165 310.088621 
L 291.338846 233.545621 
L 295.188527 207.698847 
L 299.038207 264.129574 
L 302.887888 262.450784 
L 306.737569 280.252636 
L 310.587249 244.798516 
L 314.43693 298.868963 
L 318.286611 229.373563 
L 322.136291 265.758507 
L 325.985972 251.96248 
L 329.835653 277.210868 
L 333.685333 177.696643 
L 337.535014 210.890215 
L 341.384695 233.046966 
L 345.234375 169.053359 
L 349.084056 220.331355 
L 352.933736 198.091493 
L 356.783417 228.941398 
L 360.633098 207.998032 
L 364.482778 211.056428 
L 368.332459 177.430699 
L 372.18214 258.27873 
L 376.03182 236.371306 
L 379.881501 217.904578 
L 383.731182 168.853897 
L 387.580862 217.339441 
L 391.430543 189.498062 
L 395.280224 203.04477 
L 399.129904 221.744194 
L 402.979585 238.216326 
L 406.829266 239.529433 
L 410.678946 261.686181 
L 414.528627 229.223963 
L 418.378308 212.685365 
L 422.227988 272.440433 
L 426.077669 275.315995 
L 429.92735 257.098586 
L 433.77703 219.666487 
L 437.626711 226.896933 
L 441.476392 252.344775 
L 445.326072 168.22227 
L 449.175753 200.767594 
L 453.025433 269.282305 
L 456.875114 179.84084 
L 460.724795 234.626026 
L 464.574475 231.600871 
L 468.424156 157.584365 
L 472.273837 210.773863 
L 476.123517 231.700609 
L 479.973198 239.778757 
L 483.822879 150.503536 
L 487.672559 223.073938 
L 491.52224 235.872659 
L 495.371921 258.877116 
L 499.221601 221.677712 
L 503.071282 267.703242 
L 506.920963 256.151154 
" clip-path="url(#p12b7bf1159)" style="fill: none; stroke: #2f9e44; stroke-opacity: 0.45; stroke-width: 1.5; stroke-linecap: square"/>
   </g>
   <g id="line2d_30">
    <path d="M 48.808965 265.758499 
L 52.658646 286.2697 
L 56.508326 293.461363 
L 60.358007 294.439274 
L 64.207687 287.476437 
L 68.057368 274.195687 
L 71.907049 261.576479 
L 75.756729 260.057254 
L 79.60641 262.144942 
L 83.456091 260.456176 
L 87.305771 279.833772 
L 91.155452 284.567637 
L 95.005133 285.787671 
L 98.854813 286.007078 
L 102.704494 280.385614 
L 106.554175 256.852588 
L 110.403855 261.862374 
L 114.253536 262.015294 
L 118.103217 245.04452 
L 121.952897 252.916564 
L 125.802578 253.391944 
L 129.652259 244.728705 
L 133.501939 236.876606 
L 137.35162 221.322003 
L 141.201301 215.943216 
L 145.050981 229.705998 
L 148.900662 222.861177 
L 152.750343 219.287506 
L 156.600023 234.692514 
L 160.449704 241.49412 
L 164.299384 241.015415 
L 168.149065 250.576226 
L 171.998746 251.90264 
L 175.848426 250.582877 
L 179.698107 237.88056 
L 183.547788 240.61317 
L 187.397468 238.977593 
L 191.247149 239.964922 
L 195.09683 238.595294 
L 198.94651 239.702299 
L 202.796191 240.653062 
L 206.645872 221.870525 
L 210.495552 218.729021 
L 214.345233 214.723188 
L 218.194914 219.982301 
L 222.044594 208.031289 
L 225.894275 210.581057 
L 229.743956 204.846565 
L 233.593636 213.50648 
L 237.443317 206.545301 
L 241.292998 220.357945 
L 245.142678 237.155852 
L 248.992359 244.539219 
L 252.84204 228.150203 
L 256.69172 241.29466 
L 260.541401 234.645973 
L 264.391081 241.524039 
L 268.240762 236.358011 
L 272.090443 268.703874 
L 275.940123 253.405243 
L 279.789804 259.156358 
L 283.639485 254.432466 
L 287.489165 270.798206 
L 291.338846 254.924468 
L 295.188527 258.006136 
L 299.038207 256.709642 
L 302.887888 255.582689 
L 306.737569 249.615492 
L 310.587249 251.866071 
L 314.43693 270.100094 
L 318.286611 263.148892 
L 322.136291 263.810437 
L 325.985972 258.152406 
L 329.835653 264.634876 
L 333.685333 240.400412 
L 337.535014 236.703743 
L 341.384695 230.161434 
L 345.234375 213.57961 
L 349.084056 202.203707 
L 352.933736 206.282678 
L 356.783417 209.892914 
L 360.633098 204.883127 
L 364.482778 213.283741 
L 368.332459 204.70361 
L 372.18214 216.741057 
L 376.03182 218.227039 
L 379.881501 220.208348 
L 383.731182 211.767842 
L 387.580862 219.74959 
L 391.430543 205.993457 
L 395.280224 199.32815 
L 399.129904 200.096073 
L 402.979585 213.968559 
L 406.829266 218.406557 
L 410.678946 232.844181 
L 414.528627 238.080019 
L 418.378308 236.268253 
L 422.227988 243.113075 
L 426.077669 250.270387 
L 429.92735 249.352868 
L 433.77703 247.441373 
L 437.626711 250.283687 
L 441.476392 246.264555 
L 445.326072 224.84581 
L 449.175753 213.579612 
L 453.025433 223.502775 
L 456.875114 214.091557 
L 460.724795 210.547807 
L 464.574475 223.223527 
L 468.424156 214.586881 
L 472.273837 202.885193 
L 476.123517 213.257147 
L 479.973198 214.287693 
L 483.822879 198.068226 
L 487.672559 211.166141 
L 491.52224 216.1859 
L 495.371921 221.621201 
L 499.221601 218.000992 
L 503.071282 241.440933 
L 506.920963 248.056377 
" clip-path="url(#p12b7bf1159)" style="fill: none; stroke: #2f9e44; stroke-width: 2.8; stroke-linecap: square"/>
   </g>
   <g id="line2d_31">
    <path d="M 48.808965 267.836218 
L 52.658646 307.312796 
L 56.508326 307.179821 
L 60.358007 296.375705 
L 64.207687 252.278297 
L 68.057368 227.628291 
L 71.907049 242.155664 
L 75.756729 296.625033 
L 79.60641 282.197382 
L 83.456091 233.778324 
L 87.305771 292.469602 
L 91.155452 264.412143 
L 95.005133 307.628606 
L 98.854813 308.841993 
L 102.704494 234.709136 
L 106.554175 202.728941 
L 110.403855 289.660533 
L 114.253536 306.747657 
L 118.103217 220.314735 
L 121.952897 252.527613 
L 125.802578 183.281547 
L 129.652259 263.996602 
L 133.501939 299.267885 
L 137.35162 153.678283 
L 141.201301 207.117089 
L 145.050981 251.812879 
L 148.900662 242.488106 
L 152.750343 246.759887 
L 156.600023 241.158362 
L 160.449704 272.22435 
L 164.299384 246.84299 
L 168.149065 273.40449 
L 171.998746 265.45931 
L 175.848426 239.363212 
L 179.698107 226.148954 
L 183.547788 266.157427 
L 187.397468 257.730217 
L 191.247149 260.140362 
L 195.09683 240.277412 
L 198.94651 240.909031 
L 202.796191 273.055435 
L 206.645872 162.90331 
L 210.495552 206.701552 
L 214.345233 175.86826 
L 218.194914 233.130069 
L 222.044594 168.804043 
L 225.894275 178.693953 
L 229.743956 134.147747 
L 233.593636 226.896933 
L 237.443317 222.010154 
L 241.292998 258.694271 
L 245.142678 245.297171 
L 248.992359 277.526678 
L 252.84204 149.273523 
L 256.69172 260.555907 
L 260.541401 255.76885 
L 264.391081 299.583696 
L 268.240762 226.381657 
L 272.090443 301.711276 
L 275.940123 189.398331 
L 279.789804 260.821855 
L 283.639485 246.643528 
L 287.489165 306.514953 
L 291.338846 231.334927 
L 295.188527 184.062767 
L 299.038207 268.534327 
L 302.887888 263.31511 
L 306.737569 283.992526 
L 310.587249 248.671381 
L 314.43693 297.306523 
L 318.286611 236.77023 
L 322.136291 224.15435 
L 325.985972 241.607148 
L 329.835653 282.529816 
L 333.685333 171.529997 
L 337.535014 137.206159 
L 341.384695 234.709136 
L 345.234375 184.012913 
L 349.084056 233.462503 
L 352.933736 149.672431 
L 356.783417 226.498001 
L 360.633098 182.666533 
L 364.482778 154.875024 
L 368.332459 180.073559 
L 372.18214 191.841721 
L 376.03182 156.105037 
L 379.881501 210.840353 
L 383.731182 139.450079 
L 387.580862 206.286008 
L 391.430543 187.171024 
L 395.280224 177.197996 
L 399.129904 179.292339 
L 402.979585 218.087419 
L 406.829266 245.945411 
L 410.678946 280.634939 
L 414.528627 167.923085 
L 418.378308 204.042065 
L 422.227988 276.0141 
L 426.077669 258.810622 
L 429.92735 260.921586 
L 433.77703 227.063146 
L 437.626711 223.406372 
L 441.476392 248.355567 
L 445.326072 218.17053 
L 449.175753 251.11477 
L 453.025433 254.572086 
L 456.875114 176.283796 
L 460.724795 195.18269 
L 464.574475 245.762577 
L 468.424156 159.578969 
L 472.273837 213.366861 
L 476.123517 213.13415 
L 479.973198 252.826806 
L 483.822879 171.313923 
L 487.672559 224.320563 
L 491.52224 235.207783 
L 495.371921 264.744581 
L 499.221601 233.612103 
L 503.071282 281.582376 
L 506.920963 236.670499 
" clip-path="url(#p12b7bf1159)" style="fill: none; stroke: #d9480f; stroke-opacity: 0.45; stroke-width: 1.5; stroke-linecap: square"/>
   </g>
   <g id="line2d_32">
    <path d="M 48.808965 267.836218 
L 52.658646 287.574507 
L 56.508326 294.109612 
L 60.358007 294.676135 
L 64.207687 286.196567 
L 68.057368 278.154982 
L 71.907049 265.123556 
L 75.756729 263.012598 
L 79.60641 260.176934 
L 83.456091 256.476939 
L 87.305771 269.445201 
L 91.155452 273.896497 
L 95.005133 276.097211 
L 98.854813 281.426134 
L 102.704494 281.612296 
L 106.554175 263.664164 
L 110.403855 268.713842 
L 114.253536 268.537652 
L 118.103217 250.8322 
L 121.952897 254.395896 
L 125.802578 250.506417 
L 129.652259 245.373631 
L 133.501939 243.877676 
L 137.35162 230.550386 
L 141.201301 221.468281 
L 145.050981 235.174548 
L 148.900662 230.872849 
L 152.750343 220.371249 
L 156.600023 237.867265 
L 160.449704 250.888717 
L 164.299384 249.894739 
L 168.149065 256.078016 
L 171.998746 259.8179 
L 175.848426 259.45887 
L 179.698107 250.243791 
L 183.547788 254.106679 
L 187.397468 250.971824 
L 191.247149 249.908035 
L 195.09683 250.090875 
L 198.94651 253.04289 
L 202.796191 254.422491 
L 206.645872 235.45711 
L 210.495552 224.769348 
L 214.345233 211.887518 
L 218.194914 210.331725 
L 222.044594 189.481447 
L 225.894275 192.639575 
L 229.743956 178.128814 
L 233.593636 188.334549 
L 237.443317 186.110566 
L 241.292998 204.088611 
L 245.142678 217.409255 
L 248.992359 246.085041 
L 252.84204 230.560359 
L 256.69172 238.26951 
L 260.541401 237.684426 
L 264.391081 248.541731 
L 268.240762 238.312727 
L 272.090443 268.800277 
L 275.940123 254.568762 
L 279.789804 255.579363 
L 283.639485 244.991329 
L 287.489165 261.017989 
L 291.338846 246.942719 
L 295.188527 245.875606 
L 299.038207 247.4181 
L 302.887888 250.752417 
L 306.737569 246.247931 
L 310.587249 249.715222 
L 314.43693 272.363973 
L 318.286611 266.011154 
L 322.136291 258.179002 
L 325.985972 249.701926 
L 329.835653 256.473614 
L 333.685333 231.318308 
L 337.535014 211.405494 
L 341.384695 213.516451 
L 345.234375 201.997604 
L 349.084056 192.184142 
L 352.933736 187.812628 
L 356.783417 205.670997 
L 360.633098 195.262476 
L 364.482778 189.434898 
L 368.332459 178.757109 
L 372.18214 187.190967 
L 376.03182 173.112375 
L 379.881501 178.747139 
L 383.731182 175.66215 
L 387.580862 180.90464 
L 391.430543 179.9705 
L 395.280224 184.189092 
L 399.129904 177.879489 
L 402.979585 193.606957 
L 406.829266 201.538838 
L 410.678946 220.231621 
L 414.528627 218.376639 
L 418.378308 223.326584 
L 422.227988 234.91192 
L 426.077669 237.484962 
L 429.92735 233.542291 
L 433.77703 245.370304 
L 437.626711 249.243165 
L 441.476392 243.711458 
L 445.326072 235.58344 
L 449.175753 233.622077 
L 453.025433 239.123865 
L 456.875114 229.69935 
L 460.724795 219.064775 
L 464.574475 224.583184 
L 468.424156 206.276024 
L 472.273837 198.034979 
L 476.123517 205.40505 
L 479.973198 216.933873 
L 483.822879 202.044142 
L 487.672559 214.992461 
L 491.52224 219.360645 
L 495.371921 229.682731 
L 499.221601 225.839791 
L 503.071282 247.893481 
L 506.920963 250.363468 
" clip-path="url(#p12b7bf1159)" style="fill: none; stroke: #d9480f; stroke-width: 2.8; stroke-linecap: square"/>
   </g>
   <g id="patch_3">
    <path d="M 25.903365 325.99976 
L 25.903365 38.119939 
" style="fill: none; stroke: #000000; stroke-width: 0.8; stroke-linejoin: miter; stroke-linecap: square"/>
   </g>
   <g id="patch_4">
    <path d="M 529.826562 325.99976 
L 529.826562 38.119939 
" style="fill: none; stroke: #000000; stroke-width: 0.8; stroke-linejoin: miter; stroke-linecap: square"/>
   </g>
   <g id="patch_5">
    <path d="M 25.903365 325.99976 
L 529.826562 325.99976 
" style="fill: none; stroke: #000000; stroke-width: 0.8; stroke-linejoin: miter; stroke-linecap: square"/>
   </g>
   <g id="patch_6">
    <path d="M 25.903365 38.119939 
L 529.826562 38.119939 
" style="fill: none; stroke: #000000; stroke-width: 0.8; stroke-linejoin: miter; stroke-linecap: square"/>
   </g>
   <g id="text_15">
    <!-- Reward mean -->
    <g transform="translate(231.598401 32.119939) scale(0.12 -0.12)">
     <defs>
      <path id="DejaVuSans-Bold-35" d="M 2297 2597 
Q 2675 2597 2839 2737 
Q 3003 2878 3003 3200 
Q 3003 3519 2839 3656 
Q 2675 3794 2297 3794 
L 1791 3794 
L 1791 2597 
L 2297 2597 
z
M 1791 1766 
L 1791 0 
L 588 0 
L 588 4666 
L 2425 4666 
Q 3347 4666 3776 4356 
Q 4206 4047 4206 3378 
Q 4206 2916 3982 2619 
Q 3759 2322 3309 2181 
Q 3556 2125 3751 1926 
Q 3947 1728 4147 1325 
L 4800 0 
L 3519 0 
L 2950 1159 
Q 2778 1509 2601 1637 
Q 2425 1766 2131 1766 
L 1791 1766 
z
" transform="scale(0.015625)"/>
      <path id="DejaVuSans-Bold-48" d="M 4031 1759 
L 4031 1441 
L 1416 1441 
Q 1456 1047 1700 850 
Q 1944 653 2381 653 
Q 2734 653 3104 758 
Q 3475 863 3866 1075 
L 3866 213 
Q 3469 63 3072 -14 
Q 2675 -91 2278 -91 
Q 1328 -91 801 392 
Q 275 875 275 1747 
Q 275 2603 792 3093 
Q 1309 3584 2216 3584 
Q 3041 3584 3536 3087 
Q 4031 2591 4031 1759 
z
M 2881 2131 
Q 2881 2450 2695 2645 
Q 2509 2841 2209 2841 
Q 1884 2841 1681 2658 
Q 1478 2475 1428 2131 
L 2881 2131 
z
" transform="scale(0.015625)"/>
      <path id="DejaVuSans-Bold-5a" d="M 225 3500 
L 1313 3500 
L 1900 1088 
L 2491 3500 
L 3425 3500 
L 4013 1113 
L 4603 3500 
L 5691 3500 
L 4769 0 
L 3547 0 
L 2956 2406 
L 2369 0 
L 1147 0 
L 225 3500 
z
" transform="scale(0.015625)"/>
      <path id="DejaVuSans-Bold-44" d="M 2106 1575 
Q 1756 1575 1579 1456 
Q 1403 1338 1403 1106 
Q 1403 894 1545 773 
Q 1688 653 1941 653 
Q 2256 653 2472 879 
Q 2688 1106 2688 1447 
L 2688 1575 
L 2106 1575 
z
M 3816 1997 
L 3816 0 
L 2688 0 
L 2688 519 
Q 2463 200 2181 54 
Q 1900 -91 1497 -91 
Q 953 -91 614 226 
Q 275 544 275 1050 
Q 275 1666 698 1953 
Q 1122 2241 2028 2241 
L 2688 2241 
L 2688 2328 
Q 2688 2594 2478 2717 
Q 2269 2841 1825 2841 
Q 1466 2841 1156 2769 
Q 847 2697 581 2553 
L 581 3406 
Q 941 3494 1303 3539 
Q 1666 3584 2028 3584 
Q 2975 3584 3395 3211 
Q 3816 2838 3816 1997 
z
" transform="scale(0.015625)"/>
      <path id="DejaVuSans-Bold-55" d="M 3138 2547 
Q 2991 2616 2845 2648 
Q 2700 2681 2553 2681 
Q 2122 2681 1889 2404 
Q 1656 2128 1656 1613 
L 1656 0 
L 538 0 
L 538 3500 
L 1656 3500 
L 1656 2925 
Q 1872 3269 2151 3426 
Q 2431 3584 2822 3584 
Q 2878 3584 2943 3579 
Q 3009 3575 3134 3559 
L 3138 2547 
z
" transform="scale(0.015625)"/>
      <path id="DejaVuSans-Bold-47" d="M 2919 2988 
L 2919 4863 
L 4044 4863 
L 4044 0 
L 2919 0 
L 2919 506 
Q 2688 197 2409 53 
Q 2131 -91 1766 -91 
Q 1119 -91 703 423 
Q 288 938 288 1747 
Q 288 2556 703 3070 
Q 1119 3584 1766 3584 
Q 2128 3584 2408 3439 
Q 2688 3294 2919 2988 
z
M 2181 722 
Q 2541 722 2730 984 
Q 2919 1247 2919 1747 
Q 2919 2247 2730 2509 
Q 2541 2772 2181 2772 
Q 1825 2772 1636 2509 
Q 1447 2247 1447 1747 
Q 1447 1247 1636 984 
Q 1825 722 2181 722 
z
" transform="scale(0.015625)"/>
      <path id="DejaVuSans-Bold-3" transform="scale(0.015625)"/>
      <path id="DejaVuSans-Bold-50" d="M 3781 2919 
Q 3994 3244 4286 3414 
Q 4578 3584 4928 3584 
Q 5531 3584 5847 3212 
Q 6163 2841 6163 2131 
L 6163 0 
L 5038 0 
L 5038 1825 
Q 5041 1866 5042 1909 
Q 5044 1953 5044 2034 
Q 5044 2406 4934 2573 
Q 4825 2741 4581 2741 
Q 4263 2741 4089 2478 
Q 3916 2216 3909 1719 
L 3909 0 
L 2784 0 
L 2784 1825 
Q 2784 2406 2684 2573 
Q 2584 2741 2328 2741 
Q 2006 2741 1831 2477 
Q 1656 2213 1656 1722 
L 1656 0 
L 531 0 
L 531 3500 
L 1656 3500 
L 1656 2988 
Q 1863 3284 2130 3434 
Q 2397 3584 2719 3584 
Q 3081 3584 3359 3409 
Q 3638 3234 3781 2919 
z
" transform="scale(0.015625)"/>
      <path id="DejaVuSans-Bold-51" d="M 4056 2131 
L 4056 0 
L 2931 0 
L 2931 347 
L 2931 1631 
Q 2931 2084 2911 2256 
Q 2891 2428 2841 2509 
Q 2775 2619 2662 2680 
Q 2550 2741 2406 2741 
Q 2056 2741 1856 2470 
Q 1656 2200 1656 1722 
L 1656 0 
L 538 0 
L 538 3500 
L 1656 3500 
L 1656 2988 
Q 1909 3294 2193 3439 
Q 2478 3584 2822 3584 
Q 3428 3584 3742 3212 
Q 4056 2841 4056 2131 
z
" transform="scale(0.015625)"/>
     </defs>
     <use xlink:href="#DejaVuSans-Bold-35"/>
     <use xlink:href="#DejaVuSans-Bold-48" transform="translate(77 0)"/>
     <use xlink:href="#DejaVuSans-Bold-5a" transform="translate(144.828125 0)"/>
     <use xlink:href="#DejaVuSans-Bold-44" transform="translate(237.21875 0)"/>
     <use xlink:href="#DejaVuSans-Bold-55" transform="translate(304.703125 0)"/>
     <use xlink:href="#DejaVuSans-Bold-47" transform="translate(354.015625 0)"/>
     <use xlink:href="#DejaVuSans-Bold-3" transform="translate(425.59375 0)"/>
     <use xlink:href="#DejaVuSans-Bold-50" transform="translate(460.40625 0)"/>
     <use xlink:href="#DejaVuSans-Bold-48" transform="translate(564.609375 0)"/>
     <use xlink:href="#DejaVuSans-Bold-44" transform="translate(632.4375 0)"/>
     <use xlink:href="#DejaVuSans-Bold-51" transform="translate(699.921875 0)"/>
    </g>
   </g>
   <g id="legend_1">
    <g id="patch_7">
     <path d="M 401.584375 91.122283 
L 522.826562 91.122283 
Q 524.826562 91.122283 524.826562 89.122283 
L 524.826562 45.119939 
Q 524.826562 43.119939 522.826562 43.119939 
L 401.584375 43.119939 
Q 399.584375 43.119939 399.584375 45.119939 
L 399.584375 89.122283 
Q 399.584375 91.122283 401.584375 91.122283 
z
" style="fill: #ffffff; opacity: 0.8; stroke: #cccccc; stroke-linejoin: miter"/>
    </g>
    <g id="line2d_33">
     <path d="M 403.584375 51.218376 
L 413.584375 51.218376 
L 423.584375 51.218376 
" style="fill: none; stroke: #2f6fbb; stroke-opacity: 0.45; stroke-width: 1.5; stroke-linecap: square"/>
    </g>
    <g id="text_16">
     <!-- E1 gs60 -->
     <g transform="translate(431.584375 54.718376) scale(0.1 -0.1)">
      <defs>
       <path id="DejaVuSans-28" d="M 628 4666 
L 3578 4666 
L 3578 4134 
L 1259 4134 
L 1259 2753 
L 3481 2753 
L 3481 2222 
L 1259 2222 
L 1259 531 
L 3634 531 
L 3634 0 
L 628 0 
L 628 4666 
z
" transform="scale(0.015625)"/>
       <path id="DejaVuSans-3" transform="scale(0.015625)"/>
       <path id="DejaVuSans-4a" d="M 2906 1791 
Q 2906 2416 2648 2759 
Q 2391 3103 1925 3103 
Q 1463 3103 1205 2759 
Q 947 2416 947 1791 
Q 947 1169 1205 825 
Q 1463 481 1925 481 
Q 2391 481 2648 825 
Q 2906 1169 2906 1791 
z
M 3481 434 
Q 3481 -459 3084 -895 
Q 2688 -1331 1869 -1331 
Q 1566 -1331 1297 -1286 
Q 1028 -1241 775 -1147 
L 775 -588 
Q 1028 -725 1275 -790 
Q 1522 -856 1778 -856 
Q 2344 -856 2625 -561 
Q 2906 -266 2906 331 
L 2906 616 
Q 2728 306 2450 153 
Q 2172 0 1784 0 
Q 1141 0 747 490 
Q 353 981 353 1791 
Q 353 2603 747 3093 
Q 1141 3584 1784 3584 
Q 2172 3584 2450 3431 
Q 2728 3278 2906 2969 
L 2906 3500 
L 3481 3500 
L 3481 434 
z
" transform="scale(0.015625)"/>
      </defs>
      <use xlink:href="#DejaVuSans-28"/>
      <use xlink:href="#DejaVuSans-14" transform="translate(63.1875 0)"/>
      <use xlink:href="#DejaVuSans-3" transform="translate(126.8125 0)"/>
      <use xlink:href="#DejaVuSans-4a" transform="translate(158.59375 0)"/>
      <use xlink:href="#DejaVuSans-56" transform="translate(222.078125 0)"/>
      <use xlink:href="#DejaVuSans-19" transform="translate(274.171875 0)"/>
      <use xlink:href="#DejaVuSans-13" transform="translate(337.796875 0)"/>
     </g>
    </g>
    <g id="line2d_34">
     <path d="M 403.584375 66.219158 
L 413.584375 66.219158 
L 423.584375 66.219158 
" style="fill: none; stroke: #2f9e44; stroke-opacity: 0.45; stroke-width: 1.5; stroke-linecap: square"/>
    </g>
    <g id="text_17">
     <!-- E2 base gs120 -->
     <g transform="translate(431.584375 69.719158) scale(0.1 -0.1)">
      <defs>
       <path id="DejaVuSans-45" d="M 3116 1747 
Q 3116 2381 2855 2742 
Q 2594 3103 2138 3103 
Q 1681 3103 1420 2742 
Q 1159 2381 1159 1747 
Q 1159 1113 1420 752 
Q 1681 391 2138 391 
Q 2594 391 2855 752 
Q 3116 1113 3116 1747 
z
M 1159 2969 
Q 1341 3281 1617 3432 
Q 1894 3584 2278 3584 
Q 2916 3584 3314 3078 
Q 3713 2572 3713 1747 
Q 3713 922 3314 415 
Q 2916 -91 2278 -91 
Q 1894 -91 1617 61 
Q 1341 213 1159 525 
L 1159 0 
L 581 0 
L 581 4863 
L 1159 4863 
L 1159 2969 
z
" transform="scale(0.015625)"/>
       <path id="DejaVuSans-44" d="M 2194 1759 
Q 1497 1759 1228 1600 
Q 959 1441 959 1056 
Q 959 750 1161 570 
Q 1363 391 1709 391 
Q 2188 391 2477 730 
Q 2766 1069 2766 1631 
L 2766 1759 
L 2194 1759 
z
M 3341 1997 
L 3341 0 
L 2766 0 
L 2766 531 
Q 2569 213 2275 61 
Q 1981 -91 1556 -91 
Q 1019 -91 701 211 
Q 384 513 384 1019 
Q 384 1609 779 1909 
Q 1175 2209 1959 2209 
L 2766 2209 
L 2766 2266 
Q 2766 2663 2505 2880 
Q 2244 3097 1772 3097 
Q 1472 3097 1187 3025 
Q 903 2953 641 2809 
L 641 3341 
Q 956 3463 1253 3523 
Q 1550 3584 1831 3584 
Q 2591 3584 2966 3190 
Q 3341 2797 3341 1997 
z
" transform="scale(0.015625)"/>
      </defs>
      <use xlink:href="#DejaVuSans-28"/>
      <use xlink:href="#DejaVuSans-15" transform="translate(63.1875 0)"/>
      <use xlink:href="#DejaVuSans-3" transform="translate(126.8125 0)"/>
      <use xlink:href="#DejaVuSans-45" transform="translate(158.59375 0)"/>
      <use xlink:href="#DejaVuSans-44" transform="translate(222.078125 0)"/>
      <use xlink:href="#DejaVuSans-56" transform="translate(283.359375 0)"/>
      <use xlink:href="#DejaVuSans-48" transform="translate(335.453125 0)"/>
      <use xlink:href="#DejaVuSans-3" transform="translate(396.984375 0)"/>
      <use xlink:href="#DejaVuSans-4a" transform="translate(428.765625 0)"/>
      <use xlink:href="#DejaVuSans-56" transform="translate(492.25 0)"/>
      <use xlink:href="#DejaVuSans-14" transform="translate(544.34375 0)"/>
      <use xlink:href="#DejaVuSans-15" transform="translate(607.96875 0)"/>
      <use xlink:href="#DejaVuSans-13" transform="translate(671.59375 0)"/>
     </g>
    </g>
    <g id="line2d_35">
     <path d="M 403.584375 81.219939 
L 413.584375 81.219939 
L 423.584375 81.219939 
" style="fill: none; stroke: #d9480f; stroke-opacity: 0.45; stroke-width: 1.5; stroke-linecap: square"/>
    </g>
    <g id="text_18">
     <!-- E2 from-E1 gs120 -->
     <g transform="translate(431.584375 84.719939) scale(0.1 -0.1)">
      <defs>
       <path id="DejaVuSans-49" d="M 2375 4863 
L 2375 4384 
L 1825 4384 
Q 1516 4384 1395 4259 
Q 1275 4134 1275 3809 
L 1275 3500 
L 2222 3500 
L 2222 3053 
L 1275 3053 
L 1275 0 
L 697 0 
L 697 3053 
L 147 3053 
L 147 3500 
L 697 3500 
L 697 3744 
Q 697 4328 969 4595 
Q 1241 4863 1831 4863 
L 2375 4863 
z
" transform="scale(0.015625)"/>
       <path id="DejaVuSans-55" d="M 2631 2963 
Q 2534 3019 2420 3045 
Q 2306 3072 2169 3072 
Q 1681 3072 1420 2755 
Q 1159 2438 1159 1844 
L 1159 0 
L 581 0 
L 581 3500 
L 1159 3500 
L 1159 2956 
Q 1341 3275 1631 3429 
Q 1922 3584 2338 3584 
Q 2397 3584 2469 3576 
Q 2541 3569 2628 3553 
L 2631 2963 
z
" transform="scale(0.015625)"/>
       <path id="DejaVuSans-52" d="M 1959 3097 
Q 1497 3097 1228 2736 
Q 959 2375 959 1747 
Q 959 1119 1226 758 
Q 1494 397 1959 397 
Q 2419 397 2687 759 
Q 2956 1122 2956 1747 
Q 2956 2369 2687 2733 
Q 2419 3097 1959 3097 
z
M 1959 3584 
Q 2709 3584 3137 3096 
Q 3566 2609 3566 1747 
Q 3566 888 3137 398 
Q 2709 -91 1959 -91 
Q 1206 -91 779 398 
Q 353 888 353 1747 
Q 353 2609 779 3096 
Q 1206 3584 1959 3584 
z
" transform="scale(0.015625)"/>
       <path id="DejaVuSans-50" d="M 3328 2828 
Q 3544 3216 3844 3400 
Q 4144 3584 4550 3584 
Q 5097 3584 5394 3201 
Q 5691 2819 5691 2113 
L 5691 0 
L 5113 0 
L 5113 2094 
Q 5113 2597 4934 2840 
Q 4756 3084 4391 3084 
Q 3944 3084 3684 2787 
Q 3425 2491 3425 1978 
L 3425 0 
L 2847 0 
L 2847 2094 
Q 2847 2600 2669 2842 
Q 2491 3084 2119 3084 
Q 1678 3084 1418 2786 
Q 1159 2488 1159 1978 
L 1159 0 
L 581 0 
L 581 3500 
L 1159 3500 
L 1159 2956 
Q 1356 3278 1631 3431 
Q 1906 3584 2284 3584 
Q 2666 3584 2933 3390 
Q 3200 3197 3328 2828 
z
" transform="scale(0.015625)"/>
       <path id="DejaVuSans-10" d="M 313 2009 
L 1997 2009 
L 1997 1497 
L 313 1497 
L 313 2009 
z
" transform="scale(0.015625)"/>
      </defs>
      <use xlink:href="#DejaVuSans-28"/>
      <use xlink:href="#DejaVuSans-15" transform="translate(63.1875 0)"/>
      <use xlink:href="#DejaVuSans-3" transform="translate(126.8125 0)"/>
      <use xlink:href="#DejaVuSans-49" transform="translate(158.59375 0)"/>
      <use xlink:href="#DejaVuSans-55" transform="translate(193.796875 0)"/>
      <use xlink:href="#DejaVuSans-52" transform="translate(232.703125 0)"/>
      <use xlink:href="#DejaVuSans-50" transform="translate(293.890625 0)"/>
      <use xlink:href="#DejaVuSans-10" transform="translate(391.296875 0)"/>
      <use xlink:href="#DejaVuSans-28" transform="translate(427.375 0)"/>
      <use xlink:href="#DejaVuSans-14" transform="translate(490.5625 0)"/>
      <use xlink:href="#DejaVuSans-3" transform="translate(554.1875 0)"/>
      <use xlink:href="#DejaVuSans-4a" transform="translate(585.96875 0)"/>
      <use xlink:href="#DejaVuSans-56" transform="translate(649.453125 0)"/>
      <use xlink:href="#DejaVuSans-14" transform="translate(701.546875 0)"/>
      <use xlink:href="#DejaVuSans-15" transform="translate(765.171875 0)"/>
      <use xlink:href="#DejaVuSans-13" transform="translate(828.796875 0)"/>
     </g>
    </g>
   </g>
  </g>
  <g id="axes_2">
   <g id="patch_8">
    <path d="M 573.076562 325.99976 
L 1076.99976 325.99976 
L 1076.99976 38.119939 
L 573.076562 38.119939 
z
" style="fill: #ffffff"/>
   </g>
   <g id="matplotlib.axis_3">
    <g id="xtick_8">
     <g id="line2d_36">
      <path d="M 592.132482 325.99976 
L 592.132482 38.119939 
" clip-path="url(#p8c5eca950f)" style="fill: none; stroke: #b0b0b0; stroke-opacity: 0.25; stroke-width: 0.8; stroke-linecap: square"/>
     </g>
     <g id="line2d_37">
      <g>
       <use xlink:href="#m612970510d" x="592.132482" y="325.99976" style="stroke: #000000; stroke-width: 0.8"/>
      </g>
     </g>
     <g id="text_19">
      <!-- 0 -->
      <g transform="translate(588.951232 340.597416) scale(0.1 -0.1)">
       <use xlink:href="#DejaVuSans-13"/>
      </g>
     </g>
    </g>
    <g id="xtick_9">
     <g id="line2d_38">
      <path d="M 669.126095 325.99976 
L 669.126095 38.119939 
" clip-path="url(#p8c5eca950f)" style="fill: none; stroke: #b0b0b0; stroke-opacity: 0.25; stroke-width: 0.8; stroke-linecap: square"/>
     </g>
     <g id="line2d_39">
      <g>
       <use xlink:href="#m612970510d" x="669.126095" y="325.99976" style="stroke: #000000; stroke-width: 0.8"/>
      </g>
     </g>
     <g id="text_20">
      <!-- 20 -->
      <g transform="translate(662.763595 340.597416) scale(0.1 -0.1)">
       <use xlink:href="#DejaVuSans-15"/>
       <use xlink:href="#DejaVuSans-13" transform="translate(63.625 0)"/>
      </g>
     </g>
    </g>
    <g id="xtick_10">
     <g id="line2d_40">
      <path d="M 746.119708 325.99976 
L 746.119708 38.119939 
" clip-path="url(#p8c5eca950f)" style="fill: none; stroke: #b0b0b0; stroke-opacity: 0.25; stroke-width: 0.8; stroke-linecap: square"/>
     </g>
     <g id="line2d_41">
      <g>
       <use xlink:href="#m612970510d" x="746.119708" y="325.99976" style="stroke: #000000; stroke-width: 0.8"/>
      </g>
     </g>
     <g id="text_21">
      <!-- 40 -->
      <g transform="translate(739.757208 340.597416) scale(0.1 -0.1)">
       <use xlink:href="#DejaVuSans-17"/>
       <use xlink:href="#DejaVuSans-13" transform="translate(63.625 0)"/>
      </g>
     </g>
    </g>
    <g id="xtick_11">
     <g id="line2d_42">
      <path d="M 823.113321 325.99976 
L 823.113321 38.119939 
" clip-path="url(#p8c5eca950f)" style="fill: none; stroke: #b0b0b0; stroke-opacity: 0.25; stroke-width: 0.8; stroke-linecap: square"/>
     </g>
     <g id="line2d_43">
      <g>
       <use xlink:href="#m612970510d" x="823.113321" y="325.99976" style="stroke: #000000; stroke-width: 0.8"/>
      </g>
     </g>
     <g id="text_22">
      <!-- 60 -->
      <g transform="translate(816.750821 340.597416) scale(0.1 -0.1)">
       <use xlink:href="#DejaVuSans-19"/>
       <use xlink:href="#DejaVuSans-13" transform="translate(63.625 0)"/>
      </g>
     </g>
    </g>
    <g id="xtick_12">
     <g id="line2d_44">
      <path d="M 900.106934 325.99976 
L 900.106934 38.119939 
" clip-path="url(#p8c5eca950f)" style="fill: none; stroke: #b0b0b0; stroke-opacity: 0.25; stroke-width: 0.8; stroke-linecap: square"/>
     </g>
     <g id="line2d_45">
      <g>
       <use xlink:href="#m612970510d" x="900.106934" y="325.99976" style="stroke: #000000; stroke-width: 0.8"/>
      </g>
     </g>
     <g id="text_23">
      <!-- 80 -->
      <g transform="translate(893.744434 340.597416) scale(0.1 -0.1)">
       <use xlink:href="#DejaVuSans-1b"/>
       <use xlink:href="#DejaVuSans-13" transform="translate(63.625 0)"/>
      </g>
     </g>
    </g>
    <g id="xtick_13">
     <g id="line2d_46">
      <path d="M 977.100547 325.99976 
L 977.100547 38.119939 
" clip-path="url(#p8c5eca950f)" style="fill: none; stroke: #b0b0b0; stroke-opacity: 0.25; stroke-width: 0.8; stroke-linecap: square"/>
     </g>
     <g id="line2d_47">
      <g>
       <use xlink:href="#m612970510d" x="977.100547" y="325.99976" style="stroke: #000000; stroke-width: 0.8"/>
      </g>
     </g>
     <g id="text_24">
      <!-- 100 -->
      <g transform="translate(967.556797 340.597416) scale(0.1 -0.1)">
       <use xlink:href="#DejaVuSans-14"/>
       <use xlink:href="#DejaVuSans-13" transform="translate(63.625 0)"/>
       <use xlink:href="#DejaVuSans-13" transform="translate(127.25 0)"/>
      </g>
     </g>
    </g>
    <g id="xtick_14">
     <g id="line2d_48">
      <path d="M 1054.09416 325.99976 
L 1054.09416 38.119939 
" clip-path="url(#p8c5eca950f)" style="fill: none; stroke: #b0b0b0; stroke-opacity: 0.25; stroke-width: 0.8; stroke-linecap: square"/>
     </g>
     <g id="line2d_49">
      <g>
       <use xlink:href="#m612970510d" x="1054.09416" y="325.99976" style="stroke: #000000; stroke-width: 0.8"/>
      </g>
     </g>
     <g id="text_25">
      <!-- 120 -->
      <g transform="translate(1044.55041 340.597416) scale(0.1 -0.1)">
       <use xlink:href="#DejaVuSans-14"/>
       <use xlink:href="#DejaVuSans-15" transform="translate(63.625 0)"/>
       <use xlink:href="#DejaVuSans-13" transform="translate(127.25 0)"/>
      </g>
     </g>
    </g>
    <g id="text_26">
     <!-- step -->
     <g transform="translate(814.222536 354.597416) scale(0.1 -0.1)">
      <use xlink:href="#DejaVuSans-56"/>
      <use xlink:href="#DejaVuSans-57" transform="translate(52.09375 0)"/>
      <use xlink:href="#DejaVuSans-48" transform="translate(91.296875 0)"/>
      <use xlink:href="#DejaVuSans-53" transform="translate(152.828125 0)"/>
     </g>
    </g>
   </g>
   <g id="matplotlib.axis_4">
    <g id="ytick_7">
     <g id="line2d_50">
      <path d="M 573.076562 322.501752 
L 1076.99976 322.501752 
" clip-path="url(#p8c5eca950f)" style="fill: none; stroke: #b0b0b0; stroke-opacity: 0.25; stroke-width: 0.8; stroke-linecap: square"/>
     </g>
     <g id="line2d_51">
      <g>
       <use xlink:href="#ma1ae209551" x="573.076562" y="322.501752" style="stroke: #000000; stroke-width: 0.8"/>
      </g>
     </g>
     <g id="text_27">
      <!-- 0 -->
      <g transform="translate(559.714062 326.30058) scale(0.1 -0.1)">
       <use xlink:href="#DejaVuSans-13"/>
      </g>
     </g>
    </g>
    <g id="ytick_8">
     <g id="line2d_52">
      <path d="M 573.076562 269.514181 
L 1076.99976 269.514181 
" clip-path="url(#p8c5eca950f)" style="fill: none; stroke: #b0b0b0; stroke-opacity: 0.25; stroke-width: 0.8; stroke-linecap: square"/>
     </g>
     <g id="line2d_53">
      <g>
       <use xlink:href="#ma1ae209551" x="573.076562" y="269.514181" style="stroke: #000000; stroke-width: 0.8"/>
      </g>
     </g>
     <g id="text_28">
      <!-- 200 -->
      <g transform="translate(546.989062 273.313009) scale(0.1 -0.1)">
       <use xlink:href="#DejaVuSans-15"/>
       <use xlink:href="#DejaVuSans-13" transform="translate(63.625 0)"/>
       <use xlink:href="#DejaVuSans-13" transform="translate(127.25 0)"/>
      </g>
     </g>
    </g>
    <g id="ytick_9">
     <g id="line2d_54">
      <path d="M 573.076562 216.526609 
L 1076.99976 216.526609 
" clip-path="url(#p8c5eca950f)" style="fill: none; stroke: #b0b0b0; stroke-opacity: 0.25; stroke-width: 0.8; stroke-linecap: square"/>
     </g>
     <g id="line2d_55">
      <g>
       <use xlink:href="#ma1ae209551" x="573.076562" y="216.526609" style="stroke: #000000; stroke-width: 0.8"/>
      </g>
     </g>
     <g id="text_29">
      <!-- 400 -->
      <g transform="translate(546.989062 220.325437) scale(0.1 -0.1)">
       <use xlink:href="#DejaVuSans-17"/>
       <use xlink:href="#DejaVuSans-13" transform="translate(63.625 0)"/>
       <use xlink:href="#DejaVuSans-13" transform="translate(127.25 0)"/>
      </g>
     </g>
    </g>
    <g id="ytick_10">
     <g id="line2d_56">
      <path d="M 573.076562 163.539037 
L 1076.99976 163.539037 
" clip-path="url(#p8c5eca950f)" style="fill: none; stroke: #b0b0b0; stroke-opacity: 0.25; stroke-width: 0.8; stroke-linecap: square"/>
     </g>
     <g id="line2d_57">
      <g>
       <use xlink:href="#ma1ae209551" x="573.076562" y="163.539037" style="stroke: #000000; stroke-width: 0.8"/>
      </g>
     </g>
     <g id="text_30">
      <!-- 600 -->
      <g transform="translate(546.989062 167.337865) scale(0.1 -0.1)">
       <use xlink:href="#DejaVuSans-19"/>
       <use xlink:href="#DejaVuSans-13" transform="translate(63.625 0)"/>
       <use xlink:href="#DejaVuSans-13" transform="translate(127.25 0)"/>
      </g>
     </g>
    </g>
    <g id="ytick_11">
     <g id="line2d_58">
      <path d="M 573.076562 110.551465 
L 1076.99976 110.551465 
" clip-path="url(#p8c5eca950f)" style="fill: none; stroke: #b0b0b0; stroke-opacity: 0.25; stroke-width: 0.8; stroke-linecap: square"/>
     </g>
     <g id="line2d_59">
      <g>
       <use xlink:href="#ma1ae209551" x="573.076562" y="110.551465" style="stroke: #000000; stroke-width: 0.8"/>
      </g>
     </g>
     <g id="text_31">
      <!-- 800 -->
      <g transform="translate(546.989062 114.350294) scale(0.1 -0.1)">
       <use xlink:href="#DejaVuSans-1b"/>
       <use xlink:href="#DejaVuSans-13" transform="translate(63.625 0)"/>
       <use xlink:href="#DejaVuSans-13" transform="translate(127.25 0)"/>
      </g>
     </g>
    </g>
    <g id="ytick_12">
     <g id="line2d_60">
      <path d="M 573.076562 57.563894 
L 1076.99976 57.563894 
" clip-path="url(#p8c5eca950f)" style="fill: none; stroke: #b0b0b0; stroke-opacity: 0.25; stroke-width: 0.8; stroke-linecap: square"/>
     </g>
     <g id="line2d_61">
      <g>
       <use xlink:href="#ma1ae209551" x="573.076562" y="57.563894" style="stroke: #000000; stroke-width: 0.8"/>
      </g>
     </g>
     <g id="text_32">
      <!-- 1000 -->
      <g transform="translate(540.626562 61.362722) scale(0.1 -0.1)">
       <use xlink:href="#DejaVuSans-14"/>
       <use xlink:href="#DejaVuSans-13" transform="translate(63.625 0)"/>
       <use xlink:href="#DejaVuSans-13" transform="translate(127.25 0)"/>
       <use xlink:href="#DejaVuSans-13" transform="translate(190.875 0)"/>
      </g>
     </g>
    </g>
   </g>
   <g id="line2d_62">
    <path d="M 595.982162 299.965476 
L 599.831843 310.993514 
L 603.681524 311.142542 
L 607.531204 292.365071 
L 611.380885 308.311018 
L 615.230566 312.152617 
L 619.080246 307.996405 
L 622.929927 307.714908 
L 626.779608 311.506831 
L 630.629288 305.148323 
L 634.478969 294.468015 
L 638.32865 307.433412 
L 642.17833 269.265801 
L 646.028011 306.605481 
L 649.877692 309.387328 
L 653.727372 309.96688 
L 657.577053 309.668825 
L 661.426733 309.85097 
L 665.276414 293.822229 
L 669.126095 304.552212 
L 672.975775 306.771067 
L 676.825456 292.961181 
L 680.675137 310.976955 
L 684.524817 312.400996 
L 688.374498 305.66164 
L 692.224179 306.622039 
L 696.073859 295.792704 
L 699.92354 287.977038 
L 703.773221 308.724984 
L 707.622901 306.605481 
L 711.472582 307.516205 
L 715.322263 297.746621 
L 719.171943 308.277901 
L 723.021624 310.430521 
L 726.871305 307.466529 
L 730.720985 308.824335 
L 734.570666 282.115288 
L 738.420347 306.638598 
L 742.270027 311.904238 
L 746.119708 305.645081 
L 749.969389 312.169176 
L 753.819069 306.307426 
L 757.66875 312.069824 
L 761.51843 306.009371 
L 765.368111 297.117394 
L 769.217792 307.33406 
L 773.067472 309.950321 
L 776.917153 284.946811 
L 780.766834 309.652266 
L 784.616514 305.910019 
L 788.466195 276.849648 
L 792.315876 309.321094 
L 796.165556 311.374362 
L 800.015237 310.182142 
L 803.864918 308.791218 
L 807.714598 312.699052 
L 811.564279 311.440597 
L 815.41396 305.711316 
L 819.26364 307.002888 
L 823.113321 306.489571 
" clip-path="url(#p8c5eca950f)" style="fill: none; stroke: #2f6fbb; stroke-opacity: 0.45; stroke-width: 1.5; stroke-linecap: square"/>
   </g>
   <g id="line2d_63">
    <path d="M 595.982162 299.965476 
L 599.831843 305.479495 
L 603.681524 307.367177 
L 607.531204 303.616651 
L 611.380885 304.555524 
L 615.230566 306.992952 
L 619.080246 306.393531 
L 622.929927 305.708004 
L 626.779608 309.536356 
L 630.629288 308.903817 
L 634.478969 305.366896 
L 638.32865 305.254298 
L 642.17833 297.564476 
L 646.028011 296.584206 
L 649.877692 297.432007 
L 653.727372 300.53178 
L 657.577053 300.978863 
L 661.426733 309.095897 
L 665.276414 306.539246 
L 669.126095 305.572223 
L 672.975775 304.933061 
L 676.825456 301.591532 
L 680.675137 301.816729 
L 684.524817 305.532482 
L 688.374498 305.754368 
L 692.224179 305.724562 
L 696.073859 306.290867 
L 699.92354 301.690884 
L 703.773221 300.955681 
L 707.622901 301.144449 
L 711.472582 301.323282 
L 715.322263 301.714066 
L 719.171943 305.774238 
L 723.021624 306.115346 
L 726.871305 306.287555 
L 730.720985 306.549182 
L 734.570666 303.422915 
L 738.420347 303.095054 
L 742.270027 303.389798 
L 746.119708 303.025508 
L 749.969389 303.694476 
L 753.819069 308.532904 
L 757.66875 309.619149 
L 761.51843 308.440175 
L 765.368111 306.734638 
L 769.217792 305.767615 
L 773.067472 306.496194 
L 776.917153 301.071591 
L 780.766834 301.80017 
L 784.616514 303.558695 
L 788.466195 297.461813 
L 792.315876 297.335967 
L 796.165556 302.621478 
L 800.015237 302.727453 
L 803.864918 303.303693 
L 807.714598 310.473574 
L 811.564279 310.897474 
L 815.41396 309.764865 
L 819.26364 309.129014 
L 823.113321 308.668684 
" clip-path="url(#p8c5eca950f)" style="fill: none; stroke: #2f6fbb; stroke-width: 2.8; stroke-linecap: square"/>
   </g>
   <g id="line2d_64">
    <path d="M 595.982162 194.238712 
L 599.831843 51.205385 
L 603.681524 97.867566 
L 607.531204 180.395708 
L 611.380885 119.691822 
L 615.230566 104.75595 
L 619.080246 177.63042 
L 622.929927 162.992603 
L 626.779608 51.205385 
L 630.629288 223.547462 
L 634.478969 222.752649 
L 638.32865 304.750916 
L 642.17833 184.20419 
L 646.028011 51.205385 
L 649.877692 306.125281 
L 653.727372 303.061937 
L 657.577053 179.53466 
L 661.426733 51.205385 
L 665.276414 297.547918 
L 669.126095 224.060779 
L 672.975775 105.186474 
L 676.825456 292.365071 
L 680.675137 173.739145 
L 684.524817 229.806619 
L 688.374498 301.836599 
L 692.224179 265.159265 
L 696.073859 251.564641 
L 699.92354 286.354293 
L 703.773221 297.696945 
L 707.622901 225.650406 
L 711.472582 299.849565 
L 715.322263 293.077091 
L 719.171943 200.067344 
L 723.021624 298.35929 
L 726.871305 299.650862 
L 730.720985 278.025309 
L 734.570666 239.625878 
L 738.420347 253.651026 
L 742.270027 296.388815 
L 746.119708 304.171364 
L 749.969389 279.912992 
L 753.819069 305.827226 
L 757.66875 303.02882 
L 761.51843 308.261342 
L 765.368111 306.439895 
L 769.217792 298.822931 
L 773.067472 302.598296 
L 776.917153 307.648674 
L 780.766834 306.208074 
L 784.616514 304.138247 
L 788.466195 303.608371 
L 792.315876 309.652266 
L 796.165556 298.408966 
L 800.015237 299.518393 
L 803.864918 279.962667 
L 807.714598 298.309614 
L 811.564279 305.810667 
L 815.41396 304.552212 
L 819.26364 179.004785 
L 823.113321 268.553781 
L 826.963002 306.406777 
L 830.812682 303.873309 
L 834.662363 219.258781 
L 838.512044 302.399592 
L 842.361724 305.943136 
L 846.211405 279.830198 
L 850.061085 284.135439 
L 853.910766 312.914314 
L 857.760447 307.21815 
L 861.610127 247.607131 
L 865.459808 301.621337 
L 869.309489 271.683359 
L 873.159169 302.763882 
L 877.00885 268.057022 
L 880.858531 306.390219 
L 884.708211 297.928766 
L 888.557892 301.820041 
L 892.407573 304.552212 
L 896.257253 286.851052 
L 900.106934 298.028118 
L 903.956615 301.008669 
L 907.806295 299.717097 
L 911.655976 299.187221 
L 915.505657 302.200889 
L 919.355337 288.804968 
L 923.205018 308.493163 
L 927.054699 299.137545 
L 930.904379 300.677496 
L 934.75406 305.363585 
L 938.603741 304.237599 
L 942.453421 298.442083 
L 946.303102 300.296648 
L 950.152782 300.99211 
L 954.002463 301.455751 
L 957.852144 303.525578 
L 961.701824 298.922283 
L 965.551505 302.863234 
L 969.401186 308.145432 
L 973.250866 305.462936 
L 977.100547 292.232602 
L 980.950228 305.760991 
L 984.799908 301.521986 
L 988.649589 308.443487 
L 992.49927 303.310316 
L 996.34895 296.736546 
L 1000.198631 311.6393 
L 1004.048312 308.460046 
L 1007.897992 301.47231 
L 1011.747673 302.43271 
L 1015.597354 301.637896 
L 1019.447034 300.62782 
L 1023.296715 300.346324 
L 1027.146396 300.263531 
L 1030.996076 305.396702 
L 1034.845757 303.691164 
L 1038.695438 300.793407 
L 1042.545118 307.582439 
L 1046.394799 303.227523 
L 1050.244479 303.277199 
L 1054.09416 303.773957 
" clip-path="url(#p8c5eca950f)" style="fill: none; stroke: #2f9e44; stroke-opacity: 0.45; stroke-width: 1.5; stroke-linecap: square"/>
   </g>
   <g id="line2d_65">
    <path d="M 595.982162 194.238712 
L 599.831843 122.722048 
L 603.681524 114.437221 
L 607.531204 130.926843 
L 611.380885 128.679838 
L 615.230566 110.783286 
L 619.080246 136.068293 
L 622.929927 149.0933 
L 626.779608 123.255236 
L 630.629288 144.026364 
L 634.478969 167.625704 
L 638.32865 193.049803 
L 642.17833 197.29212 
L 646.028011 197.29212 
L 649.877692 213.807684 
L 653.727372 229.869542 
L 657.577053 204.826291 
L 661.426733 178.22653 
L 665.276414 227.495036 
L 669.126095 211.082136 
L 672.975775 171.507043 
L 676.825456 194.073125 
L 680.675137 218.579877 
L 684.524817 205.031618 
L 688.374498 220.586782 
L 692.224179 252.58134 
L 696.073859 244.421254 
L 699.92354 266.944283 
L 703.773221 280.522349 
L 707.622901 265.28511 
L 711.472582 272.22317 
L 715.322263 280.52566 
L 719.171943 263.268271 
L 723.021624 263.40074 
L 726.871305 278.200831 
L 730.720985 273.835979 
L 734.570666 263.145737 
L 738.420347 273.862473 
L 742.270027 273.468378 
L 746.119708 274.372479 
L 749.969389 274.750015 
L 753.819069 287.990285 
L 757.66875 297.865843 
L 761.51843 300.240349 
L 765.368111 300.694055 
L 769.217792 304.476043 
L 773.067472 303.830257 
L 776.917153 304.754228 
L 780.766834 304.343574 
L 784.616514 303.883244 
L 788.466195 304.840332 
L 792.315876 306.251126 
L 796.165556 304.403185 
L 800.015237 303.065249 
L 803.864918 298.230133 
L 807.714598 297.170381 
L 811.564279 296.402062 
L 815.41396 297.630711 
L 819.26364 273.527989 
L 823.113321 271.246212 
L 826.963002 272.865645 
L 830.812682 272.478173 
L 834.662363 255.419487 
L 838.512044 280.098448 
L 842.361724 287.576319 
L 846.211405 282.261003 
L 850.061085 278.313429 
L 853.910766 297.044536 
L 857.760447 298.008247 
L 861.610127 286.341046 
L 865.459808 290.699274 
L 869.309489 288.208858 
L 873.159169 286.178772 
L 877.00885 278.346546 
L 880.858531 290.103164 
L 884.708211 289.36465 
L 888.557892 295.391986 
L 892.407573 295.749652 
L 896.257253 299.508458 
L 900.106934 297.836038 
L 903.956615 298.452018 
L 907.806295 298.031429 
L 911.655976 296.958431 
L 915.505657 300.028398 
L 919.355337 298.183769 
L 923.205018 299.680668 
L 927.054699 299.564757 
L 930.904379 299.862812 
L 934.75406 300.495351 
L 938.603741 303.581878 
L 942.453421 301.571662 
L 946.303102 301.803482 
L 950.152782 301.866405 
L 954.002463 301.084838 
L 957.852144 300.942434 
L 961.701824 301.038474 
L 965.551505 301.551791 
L 969.401186 302.982456 
L 973.250866 303.783893 
L 977.100547 301.525297 
L 980.950228 302.893039 
L 984.799908 302.624789 
L 988.649589 302.684401 
L 992.49927 302.253876 
L 996.34895 303.154665 
L 1000.198631 304.330327 
L 1004.048312 305.717939 
L 1007.897992 304.323704 
L 1011.747673 304.148182 
L 1015.597354 305.128452 
L 1019.447034 302.926156 
L 1023.296715 301.303412 
L 1027.146396 301.061656 
L 1030.996076 301.654455 
L 1034.845757 302.065108 
L 1038.695438 302.098226 
L 1042.545118 303.545449 
L 1046.394799 304.138247 
L 1050.244479 303.714346 
L 1054.09416 303.730905 
" clip-path="url(#p8c5eca950f)" style="fill: none; stroke: #2f9e44; stroke-width: 2.8; stroke-linecap: square"/>
   </g>
   <g id="line2d_66">
    <path d="M 595.982162 208.926204 
L 599.831843 51.205385 
L 603.681524 92.088608 
L 607.531204 184.20419 
L 611.380885 104.789067 
L 615.230566 148.172641 
L 619.080246 177.001192 
L 622.929927 159.730555 
L 626.779608 68.525698 
L 630.629288 300.429117 
L 634.478969 231.429363 
L 638.32865 304.750916 
L 642.17833 166.569264 
L 646.028011 51.205385 
L 649.877692 306.092164 
L 653.727372 303.525578 
L 657.577053 179.551219 
L 661.426733 51.205385 
L 665.276414 297.514801 
L 669.126095 303.956102 
L 672.975775 101.576696 
L 676.825456 290.262127 
L 680.675137 111.942389 
L 684.524817 223.10038 
L 688.374498 301.820041 
L 692.224179 265.506996 
L 696.073859 237.903782 
L 699.92354 282.512694 
L 703.773221 297.581035 
L 707.622901 193.758512 
L 711.472582 299.849565 
L 715.322263 284.00297 
L 719.171943 221.875042 
L 723.021624 299.253455 
L 726.871305 299.717097 
L 730.720985 274.862614 
L 734.570666 242.507078 
L 738.420347 259.429983 
L 742.270027 306.208074 
L 746.119708 304.171364 
L 749.969389 257.890032 
L 753.819069 305.628522 
L 757.66875 294.501132 
L 761.51843 273.041166 
L 765.368111 306.506129 
L 769.217792 298.922283 
L 773.067472 302.730765 
L 776.917153 233.913156 
L 780.766834 306.191515 
L 784.616514 304.320392 
L 788.466195 308.52628 
L 792.315876 294.501132 
L 796.165556 276.733737 
L 800.015237 299.485276 
L 803.864918 267.510588 
L 807.714598 267.709291 
L 811.564279 303.475902 
L 815.41396 304.850268 
L 819.26364 229.011805 
L 823.113321 303.840192 
L 826.963002 302.598296 
L 830.812682 303.939544 
L 834.662363 230.088116 
L 838.512044 302.647972 
L 842.361724 311.125983 
L 846.211405 280.88995 
L 850.061085 271.368746 
L 853.910766 312.864638 
L 857.760447 293.275795 
L 861.610127 261.797865 
L 865.459808 306.224633 
L 869.309489 260.291031 
L 873.159169 303.773957 
L 877.00885 262.22839 
L 880.858531 307.615556 
L 884.708211 303.409668 
L 888.557892 308.509722 
L 892.407573 304.270716 
L 896.257253 289.152699 
L 900.106934 303.26064 
L 903.956615 290.808561 
L 907.806295 300.230414 
L 911.655976 299.899241 
L 915.505657 302.234006 
L 919.355337 303.922985 
L 923.205018 244.113263 
L 927.054699 303.393109 
L 930.904379 300.958993 
L 934.75406 305.429819 
L 938.603741 304.22104 
L 942.453421 298.9554 
L 946.303102 304.436302 
L 950.152782 310.264935 
L 954.002463 301.969068 
L 957.852144 308.989922 
L 961.701824 299.203779 
L 965.551505 306.456453 
L 969.401186 308.211667 
L 973.250866 308.973363 
L 977.100547 295.097243 
L 980.950228 305.843784 
L 984.799908 304.469419 
L 988.649589 311.175659 
L 992.49927 303.194406 
L 996.34895 282.612046 
L 1000.198631 311.506831 
L 1004.048312 312.169176 
L 1007.897992 306.224633 
L 1011.747673 287.546514 
L 1015.597354 308.211667 
L 1019.447034 304.452861 
L 1023.296715 303.244082 
L 1027.146396 296.471608 
L 1030.996076 303.608371 
L 1034.845757 303.691164 
L 1038.695438 307.466529 
L 1042.545118 294.666719 
L 1046.394799 295.461532 
L 1050.244479 266.517071 
L 1054.09416 303.409668 
" clip-path="url(#p8c5eca950f)" style="fill: none; stroke: #d9480f; stroke-opacity: 0.45; stroke-width: 1.5; stroke-linecap: square"/>
   </g>
   <g id="line2d_67">
    <path d="M 595.982162 208.926204 
L 599.831843 130.065795 
L 603.681524 117.406733 
L 607.531204 134.106097 
L 611.380885 128.242691 
L 615.230566 116.091978 
L 619.080246 141.25114 
L 622.929927 154.779529 
L 626.779608 131.643831 
L 630.629288 170.771841 
L 634.478969 187.423185 
L 638.32865 212.97313 
L 642.17833 214.340872 
L 646.028011 210.876809 
L 649.877692 212.009418 
L 653.727372 226.428661 
L 657.577053 201.388722 
L 661.426733 178.315946 
L 665.276414 227.577829 
L 669.126095 227.150617 
L 672.975775 186.760841 
L 676.825456 208.903022 
L 680.675137 221.050423 
L 684.524817 206.167539 
L 688.374498 205.740326 
L 692.224179 238.526386 
L 696.073859 228.054717 
L 699.92354 262.168778 
L 703.773221 277.06491 
L 707.622901 255.452604 
L 711.472582 262.321118 
L 715.322263 271.540955 
L 719.171943 259.413425 
L 723.021624 259.747909 
L 726.871305 280.939626 
L 730.720985 275.942235 
L 734.570666 267.643057 
L 738.420347 275.154045 
L 742.270027 276.544969 
L 746.119708 277.435823 
L 749.969389 274.041306 
L 753.819069 286.665595 
L 757.66875 293.679825 
L 761.51843 287.046443 
L 765.368111 287.513396 
L 769.217792 295.719847 
L 773.067472 295.140295 
L 776.917153 283.0227 
L 780.766834 289.65277 
L 784.616514 289.215622 
L 788.466195 291.136422 
L 792.315876 289.490495 
L 796.165556 298.054611 
L 800.015237 296.713364 
L 803.864918 289.351403 
L 807.714598 281.188005 
L 811.564279 282.982959 
L 815.41396 288.606265 
L 819.26364 274.511571 
L 823.113321 281.777492 
L 826.963002 288.755293 
L 830.812682 288.848021 
L 834.662363 273.89559 
L 838.512044 288.622824 
L 842.361724 290.079982 
L 846.211405 285.738313 
L 850.061085 279.224153 
L 853.910766 295.779458 
L 857.760447 293.905022 
L 861.610127 284.039399 
L 865.459808 289.106335 
L 869.309489 286.890792 
L 873.159169 285.072656 
L 877.00885 278.863175 
L 880.858531 288.026713 
L 884.708211 287.463721 
L 888.557892 297.107459 
L 892.407573 297.20681 
L 896.257253 302.591672 
L 900.106934 301.720689 
L 903.956615 299.200468 
L 907.806295 297.544606 
L 911.655976 296.670311 
L 915.505657 299.286572 
L 919.355337 299.419041 
L 923.205018 290.079982 
L 927.054699 290.712521 
L 930.904379 290.924471 
L 934.75406 291.563634 
L 938.603741 291.623245 
L 942.453421 302.591672 
L 946.303102 302.800311 
L 950.152782 304.661499 
L 954.002463 303.969349 
L 957.852144 304.923125 
L 961.701824 304.972801 
L 965.551505 305.376832 
L 969.401186 304.966178 
L 973.250866 306.367037 
L 977.100547 303.588501 
L 980.950228 304.916502 
L 984.799908 304.519095 
L 988.649589 305.111894 
L 992.49927 303.956102 
L 996.34895 301.459063 
L 1000.198631 302.591672 
L 1004.048312 304.131624 
L 1007.897992 303.141418 
L 1011.747673 300.01184 
L 1015.597354 305.131764 
L 1019.447034 303.72097 
L 1023.296715 301.935951 
L 1027.146396 299.985346 
L 1030.996076 303.197718 
L 1034.845757 302.293617 
L 1038.695438 302.896351 
L 1042.545118 301.180878 
L 1046.394799 300.978863 
L 1050.244479 293.560603 
L 1054.09416 293.504304 
" clip-path="url(#p8c5eca950f)" style="fill: none; stroke: #d9480f; stroke-width: 2.8; stroke-linecap: square"/>
   </g>
   <g id="patch_9">
    <path d="M 573.076562 325.99976 
L 573.076562 38.119939 
" style="fill: none; stroke: #000000; stroke-width: 0.8; stroke-linejoin: miter; stroke-linecap: square"/>
   </g>
   <g id="patch_10">
    <path d="M 1076.99976 325.99976 
L 1076.99976 38.119939 
" style="fill: none; stroke: #000000; stroke-width: 0.8; stroke-linejoin: miter; stroke-linecap: square"/>
   </g>
   <g id="patch_11">
    <path d="M 573.076562 325.99976 
L 1076.99976 325.99976 
" style="fill: none; stroke: #000000; stroke-width: 0.8; stroke-linejoin: miter; stroke-linecap: square"/>
   </g>
   <g id="patch_12">
    <path d="M 573.076562 38.119939 
L 1076.99976 38.119939 
" style="fill: none; stroke: #000000; stroke-width: 0.8; stroke-linejoin: miter; stroke-linecap: square"/>
   </g>
   <g id="text_33">
    <!-- Response length mean -->
    <g transform="translate(747.797536 32.119939) scale(0.12 -0.12)">
     <defs>
      <path id="DejaVuSans-Bold-56" d="M 3272 3391 
L 3272 2541 
Q 2913 2691 2578 2766 
Q 2244 2841 1947 2841 
Q 1628 2841 1473 2761 
Q 1319 2681 1319 2516 
Q 1319 2381 1436 2309 
Q 1553 2238 1856 2203 
L 2053 2175 
Q 2913 2066 3209 1816 
Q 3506 1566 3506 1031 
Q 3506 472 3093 190 
Q 2681 -91 1863 -91 
Q 1516 -91 1145 -36 
Q 775 19 384 128 
L 384 978 
Q 719 816 1070 734 
Q 1422 653 1784 653 
Q 2113 653 2278 743 
Q 2444 834 2444 1013 
Q 2444 1163 2330 1236 
Q 2216 1309 1875 1350 
L 1678 1375 
Q 931 1469 631 1722 
Q 331 1975 331 2491 
Q 331 3047 712 3315 
Q 1094 3584 1881 3584 
Q 2191 3584 2531 3537 
Q 2872 3491 3272 3391 
z
" transform="scale(0.015625)"/>
      <path id="DejaVuSans-Bold-53" d="M 1656 506 
L 1656 -1331 
L 538 -1331 
L 538 3500 
L 1656 3500 
L 1656 2988 
Q 1888 3294 2169 3439 
Q 2450 3584 2816 3584 
Q 3463 3584 3878 3070 
Q 4294 2556 4294 1747 
Q 4294 938 3878 423 
Q 3463 -91 2816 -91 
Q 2450 -91 2169 54 
Q 1888 200 1656 506 
z
M 2400 2772 
Q 2041 2772 1848 2508 
Q 1656 2244 1656 1747 
Q 1656 1250 1848 986 
Q 2041 722 2400 722 
Q 2759 722 2948 984 
Q 3138 1247 3138 1747 
Q 3138 2247 2948 2509 
Q 2759 2772 2400 2772 
z
" transform="scale(0.015625)"/>
      <path id="DejaVuSans-Bold-52" d="M 2203 2784 
Q 1831 2784 1636 2517 
Q 1441 2250 1441 1747 
Q 1441 1244 1636 976 
Q 1831 709 2203 709 
Q 2569 709 2762 976 
Q 2956 1244 2956 1747 
Q 2956 2250 2762 2517 
Q 2569 2784 2203 2784 
z
M 2203 3584 
Q 3106 3584 3614 3096 
Q 4122 2609 4122 1747 
Q 4122 884 3614 396 
Q 3106 -91 2203 -91 
Q 1297 -91 786 396 
Q 275 884 275 1747 
Q 275 2609 786 3096 
Q 1297 3584 2203 3584 
z
" transform="scale(0.015625)"/>
      <path id="DejaVuSans-Bold-4f" d="M 538 4863 
L 1656 4863 
L 1656 0 
L 538 0 
L 538 4863 
z
" transform="scale(0.015625)"/>
      <path id="DejaVuSans-Bold-4a" d="M 2919 594 
Q 2688 288 2409 144 
Q 2131 0 1766 0 
Q 1125 0 706 504 
Q 288 1009 288 1791 
Q 288 2575 706 3076 
Q 1125 3578 1766 3578 
Q 2131 3578 2409 3434 
Q 2688 3291 2919 2981 
L 2919 3500 
L 4044 3500 
L 4044 353 
Q 4044 -491 3511 -936 
Q 2978 -1381 1966 -1381 
Q 1638 -1381 1331 -1331 
Q 1025 -1281 716 -1178 
L 716 -306 
Q 1009 -475 1290 -558 
Q 1572 -641 1856 -641 
Q 2406 -641 2662 -400 
Q 2919 -159 2919 353 
L 2919 594 
z
M 2181 2772 
Q 1834 2772 1640 2515 
Q 1447 2259 1447 1791 
Q 1447 1309 1634 1061 
Q 1822 813 2181 813 
Q 2531 813 2725 1069 
Q 2919 1325 2919 1791 
Q 2919 2259 2725 2515 
Q 2531 2772 2181 2772 
z
" transform="scale(0.015625)"/>
      <path id="DejaVuSans-Bold-57" d="M 1759 4494 
L 1759 3500 
L 2913 3500 
L 2913 2700 
L 1759 2700 
L 1759 1216 
Q 1759 972 1856 886 
Q 1953 800 2241 800 
L 2816 800 
L 2816 0 
L 1856 0 
Q 1194 0 917 276 
Q 641 553 641 1216 
L 641 2700 
L 84 2700 
L 84 3500 
L 641 3500 
L 641 4494 
L 1759 4494 
z
" transform="scale(0.015625)"/>
      <path id="DejaVuSans-Bold-4b" d="M 4056 2131 
L 4056 0 
L 2931 0 
L 2931 347 
L 2931 1625 
Q 2931 2084 2911 2256 
Q 2891 2428 2841 2509 
Q 2775 2619 2662 2680 
Q 2550 2741 2406 2741 
Q 2056 2741 1856 2470 
Q 1656 2200 1656 1722 
L 1656 0 
L 538 0 
L 538 4863 
L 1656 4863 
L 1656 2988 
Q 1909 3294 2193 3439 
Q 2478 3584 2822 3584 
Q 3428 3584 3742 3212 
Q 4056 2841 4056 2131 
z
" transform="scale(0.015625)"/>
     </defs>
     <use xlink:href="#DejaVuSans-Bold-35"/>
     <use xlink:href="#DejaVuSans-Bold-48" transform="translate(77 0)"/>
     <use xlink:href="#DejaVuSans-Bold-56" transform="translate(144.828125 0)"/>
     <use xlink:href="#DejaVuSans-Bold-53" transform="translate(204.34375 0)"/>
     <use xlink:href="#DejaVuSans-Bold-52" transform="translate(275.921875 0)"/>
     <use xlink:href="#DejaVuSans-Bold-51" transform="translate(344.625 0)"/>
     <use xlink:href="#DejaVuSans-Bold-56" transform="translate(415.8125 0)"/>
     <use xlink:href="#DejaVuSans-Bold-48" transform="translate(475.328125 0)"/>
     <use xlink:href="#DejaVuSans-Bold-3" transform="translate(543.15625 0)"/>
     <use xlink:href="#DejaVuSans-Bold-4f" transform="translate(577.96875 0)"/>
     <use xlink:href="#DejaVuSans-Bold-48" transform="translate(612.25 0)"/>
     <use xlink:href="#DejaVuSans-Bold-51" transform="translate(680.078125 0)"/>
     <use xlink:href="#DejaVuSans-Bold-4a" transform="translate(751.265625 0)"/>
     <use xlink:href="#DejaVuSans-Bold-57" transform="translate(822.84375 0)"/>
     <use xlink:href="#DejaVuSans-Bold-4b" transform="translate(870.640625 0)"/>
     <use xlink:href="#DejaVuSans-Bold-3" transform="translate(941.828125 0)"/>
     <use xlink:href="#DejaVuSans-Bold-50" transform="translate(976.640625 0)"/>
     <use xlink:href="#DejaVuSans-Bold-48" transform="translate(1080.84375 0)"/>
     <use xlink:href="#DejaVuSans-Bold-44" transform="translate(1148.671875 0)"/>
     <use xlink:href="#DejaVuSans-Bold-51" transform="translate(1216.15625 0)"/>
    </g>
   </g>
  </g>
  <g id="text_34">
   <!-- Final Focused Reward / Length Curves -->
   <g transform="translate(389.233125 13.638052) scale(0.14 -0.14)">
    <defs>
     <path id="DejaVuSans-Bold-29" d="M 588 4666 
L 3834 4666 
L 3834 3756 
L 1791 3756 
L 1791 2888 
L 3713 2888 
L 3713 1978 
L 1791 1978 
L 1791 0 
L 588 0 
L 588 4666 
z
" transform="scale(0.015625)"/>
     <path id="DejaVuSans-Bold-4c" d="M 538 3500 
L 1656 3500 
L 1656 0 
L 538 0 
L 538 3500 
z
M 538 4863 
L 1656 4863 
L 1656 3950 
L 538 3950 
L 538 4863 
z
" transform="scale(0.015625)"/>
     <path id="DejaVuSans-Bold-46" d="M 3366 3391 
L 3366 2478 
Q 3138 2634 2908 2709 
Q 2678 2784 2431 2784 
Q 1963 2784 1702 2511 
Q 1441 2238 1441 1747 
Q 1441 1256 1702 982 
Q 1963 709 2431 709 
Q 2694 709 2930 787 
Q 3166 866 3366 1019 
L 3366 103 
Q 3103 6 2833 -42 
Q 2563 -91 2291 -91 
Q 1344 -91 809 395 
Q 275 881 275 1747 
Q 275 2613 809 3098 
Q 1344 3584 2291 3584 
Q 2566 3584 2833 3536 
Q 3100 3488 3366 3391 
z
" transform="scale(0.015625)"/>
     <path id="DejaVuSans-Bold-58" d="M 500 1363 
L 500 3500 
L 1625 3500 
L 1625 3150 
Q 1625 2866 1622 2436 
Q 1619 2006 1619 1863 
Q 1619 1441 1641 1255 
Q 1663 1069 1716 984 
Q 1784 875 1895 815 
Q 2006 756 2150 756 
Q 2500 756 2700 1025 
Q 2900 1294 2900 1772 
L 2900 3500 
L 4019 3500 
L 4019 0 
L 2900 0 
L 2900 506 
Q 2647 200 2364 54 
Q 2081 -91 1741 -91 
Q 1134 -91 817 281 
Q 500 653 500 1363 
z
" transform="scale(0.015625)"/>
     <path id="DejaVuSans-Bold-12" d="M 1644 4666 
L 2338 4666 
L 691 -594 
L 0 -594 
L 1644 4666 
z
" transform="scale(0.015625)"/>
     <path id="DejaVuSans-Bold-2f" d="M 588 4666 
L 1791 4666 
L 1791 909 
L 3903 909 
L 3903 0 
L 588 0 
L 588 4666 
z
" transform="scale(0.015625)"/>
     <path id="DejaVuSans-Bold-26" d="M 4288 256 
Q 3956 84 3597 -3 
Q 3238 -91 2847 -91 
Q 1681 -91 1000 561 
Q 319 1213 319 2328 
Q 319 3447 1000 4098 
Q 1681 4750 2847 4750 
Q 3238 4750 3597 4662 
Q 3956 4575 4288 4403 
L 4288 3438 
Q 3953 3666 3628 3772 
Q 3303 3878 2944 3878 
Q 2300 3878 1931 3465 
Q 1563 3053 1563 2328 
Q 1563 1606 1931 1193 
Q 2300 781 2944 781 
Q 3303 781 3628 887 
Q 3953 994 4288 1222 
L 4288 256 
z
" transform="scale(0.015625)"/>
     <path id="DejaVuSans-Bold-59" d="M 97 3500 
L 1216 3500 
L 2088 1081 
L 2956 3500 
L 4078 3500 
L 2700 0 
L 1472 0 
L 97 3500 
z
" transform="scale(0.015625)"/>
    </defs>
    <use xlink:href="#DejaVuSans-Bold-29"/>
    <use xlink:href="#DejaVuSans-Bold-4c" transform="translate(68.3125 0)"/>
    <use xlink:href="#DejaVuSans-Bold-51" transform="translate(102.59375 0)"/>
    <use xlink:href="#DejaVuSans-Bold-44" transform="translate(173.78125 0)"/>
    <use xlink:href="#DejaVuSans-Bold-4f" transform="translate(241.265625 0)"/>
    <use xlink:href="#DejaVuSans-Bold-3" transform="translate(275.546875 0)"/>
    <use xlink:href="#DejaVuSans-Bold-29" transform="translate(310.359375 0)"/>
    <use xlink:href="#DejaVuSans-Bold-52" transform="translate(374.625 0)"/>
    <use xlink:href="#DejaVuSans-Bold-46" transform="translate(443.328125 0)"/>
    <use xlink:href="#DejaVuSans-Bold-58" transform="translate(502.609375 0)"/>
    <use xlink:href="#DejaVuSans-Bold-56" transform="translate(573.796875 0)"/>
    <use xlink:href="#DejaVuSans-Bold-48" transform="translate(633.3125 0)"/>
    <use xlink:href="#DejaVuSans-Bold-47" transform="translate(701.140625 0)"/>
    <use xlink:href="#DejaVuSans-Bold-3" transform="translate(772.71875 0)"/>
    <use xlink:href="#DejaVuSans-Bold-35" transform="translate(807.53125 0)"/>
    <use xlink:href="#DejaVuSans-Bold-48" transform="translate(884.53125 0)"/>
    <use xlink:href="#DejaVuSans-Bold-5a" transform="translate(952.359375 0)"/>
    <use xlink:href="#DejaVuSans-Bold-44" transform="translate(1044.75 0)"/>
    <use xlink:href="#DejaVuSans-Bold-55" transform="translate(1112.234375 0)"/>
    <use xlink:href="#DejaVuSans-Bold-47" transform="translate(1161.546875 0)"/>
    <use xlink:href="#DejaVuSans-Bold-3" transform="translate(1233.125 0)"/>
    <use xlink:href="#DejaVuSans-Bold-12" transform="translate(1267.9375 0)"/>
    <use xlink:href="#DejaVuSans-Bold-3" transform="translate(1304.46875 0)"/>
    <use xlink:href="#DejaVuSans-Bold-2f" transform="translate(1339.28125 0)"/>
    <use xlink:href="#DejaVuSans-Bold-48" transform="translate(1403 0)"/>
    <use xlink:href="#DejaVuSans-Bold-51" transform="translate(1470.828125 0)"/>
    <use xlink:href="#DejaVuSans-Bold-4a" transform="translate(1542.015625 0)"/>
    <use xlink:href="#DejaVuSans-Bold-57" transform="translate(1613.59375 0)"/>
    <use xlink:href="#DejaVuSans-Bold-4b" transform="translate(1661.390625 0)"/>
    <use xlink:href="#DejaVuSans-Bold-3" transform="translate(1732.578125 0)"/>
    <use xlink:href="#DejaVuSans-Bold-26" transform="translate(1767.390625 0)"/>
    <use xlink:href="#DejaVuSans-Bold-58" transform="translate(1840.78125 0)"/>
    <use xlink:href="#DejaVuSans-Bold-55" transform="translate(1911.96875 0)"/>
    <use xlink:href="#DejaVuSans-Bold-59" transform="translate(1961.28125 0)"/>
    <use xlink:href="#DejaVuSans-Bold-48" transform="translate(2026.46875 0)"/>
    <use xlink:href="#DejaVuSans-Bold-56" transform="translate(2094.296875 0)"/>
   </g>
  </g>
 </g>
 <defs>
  <clipPath id="p12b7bf1159">
   <rect x="25.903365" y="38.119939" width="503.923197" height="287.879821"/>
  </clipPath>
  <clipPath id="p8c5eca950f">
   <rect x="573.076562" y="38.119939" width="503.923198" height="287.879821"/>
  </clipPath>
 </defs>
</svg>
