<svg xmlns="http://www.w3.org/2000/svg" width="860" height="2300" font-family="Arial, sans-serif">
<rect width="100%" height="100%" fill="white"/>
<g transform="translate(0,0)">
<text x="82" y="24" font-size="14" font-weight="700">actor/grad_norm</text>
<rect x="82" y="46" width="748" height="130" fill="#fafafa" stroke="#ddd"/>
<text x="830" y="24" text-anchor="end" font-size="12" fill="#555">min=0 max=8.945 last=8.945</text>
<line x1="830" y1="176" x2="82" y2="176" stroke="#777"/>
<line x1="82" y1="176" x2="82" y2="46" stroke="#777"/>
<line x1="82.0" y1="176" x2="82.0" y2="181" stroke="#777"/>
<text x="82.0" y="196" text-anchor="middle" font-size="11" fill="#555">1</text>
<line x1="269.0" y1="176" x2="269.0" y2="181" stroke="#777"/>
<text x="269.0" y="196" text-anchor="middle" font-size="11" fill="#555">2</text>
<line x1="456.0" y1="176" x2="456.0" y2="181" stroke="#777"/>
<text x="456.0" y="196" text-anchor="middle" font-size="11" fill="#555">3</text>
<line x1="643.0" y1="176" x2="643.0" y2="181" stroke="#777"/>
<text x="643.0" y="196" text-anchor="middle" font-size="11" fill="#555">4</text>
<line x1="830.0" y1="176" x2="830.0" y2="181" stroke="#777"/>
<text x="830.0" y="196" text-anchor="middle" font-size="11" fill="#555">5</text>
<line x1="77" y1="176.0" x2="82" y2="176.0" stroke="#777"/>
<text x="73" y="180.0" text-anchor="end" font-size="11" fill="#555">0</text>
<line x1="77" y1="132.7" x2="82" y2="132.7" stroke="#777"/>
<text x="73" y="136.7" text-anchor="end" font-size="11" fill="#555">2.98</text>
<line x1="77" y1="89.3" x2="82" y2="89.3" stroke="#777"/>
<text x="73" y="93.3" text-anchor="end" font-size="11" fill="#555">5.96</text>
<line x1="77" y1="46.0" x2="82" y2="46.0" stroke="#777"/>
<text x="73" y="50.0" text-anchor="end" font-size="11" fill="#555">8.95</text>
<text x="456.0" y="218" text-anchor="middle" font-size="12" fill="#444">training step</text>
<text x="16" y="111.0" text-anchor="middle" font-size="12" fill="#444" transform="rotate(-90 16 111.0)">metric value</text>
<polyline points="82.0,56.3 269.0,69.2 456.0,101.5 643.0,176.0 830.0,46.0" fill="none" stroke="#2563eb" stroke-width="2"/>
</g>
<g transform="translate(0,230)">
<text x="82" y="24" font-size="14" font-weight="700">actor/pg_clipfrac</text>
<rect x="82" y="46" width="748" height="130" fill="#fafafa" stroke="#ddd"/>
<text x="830" y="24" text-anchor="end" font-size="12" fill="#555">min=-0.5 max=0.5 last=0</text>
<line x1="830" y1="176" x2="82" y2="176" stroke="#777"/>
<line x1="82" y1="176" x2="82" y2="46" stroke="#777"/>
<line x1="82.0" y1="176" x2="82.0" y2="181" stroke="#777"/>
<text x="82.0" y="196" text-anchor="middle" font-size="11" fill="#555">1</text>
<line x1="269.0" y1="176" x2="269.0" y2="181" stroke="#777"/>
<text x="269.0" y="196" text-anchor="middle" font-size="11" fill="#555">2</text>
<line x1="456.0" y1="176" x2="456.0" y2="181" stroke="#777"/>
<text x="456.0" y="196" text-anchor="middle" font-size="11" fill="#555">3</text>
<line x1="643.0" y1="176" x2="643.0" y2="181" stroke="#777"/>
<text x="643.0" y="196" text-anchor="middle" font-size="11" fill="#555">4</text>
<line x1="830.0" y1="176" x2="830.0" y2="181" stroke="#777"/>
<text x="830.0" y="196" text-anchor="middle" font-size="11" fill="#555">5</text>
<line x1="77" y1="176.0" x2="82" y2="176.0" stroke="#777"/>
<text x="73" y="180.0" text-anchor="end" font-size="11" fill="#555">-0.5</text>
<line x1="77" y1="132.7" x2="82" y2="132.7" stroke="#777"/>
<text x="73" y="136.7" text-anchor="end" font-size="11" fill="#555">-0.167</text>
<line x1="77" y1="89.3" x2="82" y2="89.3" stroke="#777"/>
<text x="73" y="93.3" text-anchor="end" font-size="11" fill="#555">0.167</text>
<line x1="77" y1="46.0" x2="82" y2="46.0" stroke="#777"/>
<text x="73" y="50.0" text-anchor="end" font-size="11" fill="#555">0.5</text>
<text x="456.0" y="218" text-anchor="middle" font-size="12" fill="#444">training step</text>
<text x="16" y="111.0" text-anchor="middle" font-size="12" fill="#444" transform="rotate(-90 16 111.0)">metric value</text>
<polyline points="82.0,111.0 269.0,111.0 456.0,111.0 643.0,111.0 830.0,111.0" fill="none" stroke="#2563eb" stroke-width="2"/>
</g>
<g transform="translate(0,460)">
<text x="82" y="24" font-size="14" font-weight="700">actor/pg_clipfrac_lower</text>
<rect x="82" y="46" width="748" height="130" fill="#fafafa" stroke="#ddd"/>
<text x="830" y="24" text-anchor="end" font-size="12" fill="#555">min=-0.5 max=0.5 last=0</text>
<line x1="830" y1="176" x2="82" y2="176" stroke="#777"/>
<line x1="82" y1="176" x2="82" y2="46" stroke="#777"/>
<line x1="82.0" y1="176" x2="82.0" y2="181" stroke="#777"/>
<text x="82.0" y="196" text-anchor="middle" font-size="11" fill="#555">1</text>
<line x1="269.0" y1="176" x2="269.0" y2="181" stroke="#777"/>
<text x="269.0" y="196" text-anchor="middle" font-size="11" fill="#555">2</text>
<line x1="456.0" y1="176" x2="456.0" y2="181" stroke="#777"/>
<text x="456.0" y="196" text-anchor="middle" font-size="11" fill="#555">3</text>
<line x1="643.0" y1="176" x2="643.0" y2="181" stroke="#777"/>
<text x="643.0" y="196" text-anchor="middle" font-size="11" fill="#555">4</text>
<line x1="830.0" y1="176" x2="830.0" y2="181" stroke="#777"/>
<text x="830.0" y="196" text-anchor="middle" font-size="11" fill="#555">5</text>
<line x1="77" y1="176.0" x2="82" y2="176.0" stroke="#777"/>
<text x="73" y="180.0" text-anchor="end" font-size="11" fill="#555">-0.5</text>
<line x1="77" y1="132.7" x2="82" y2="132.7" stroke="#777"/>
<text x="73" y="136.7" text-anchor="end" font-size="11" fill="#555">-0.167</text>
<line x1="77" y1="89.3" x2="82" y2="89.3" stroke="#777"/>
<text x="73" y="93.3" text-anchor="end" font-size="11" fill="#555">0.167</text>
<line x1="77" y1="46.0" x2="82" y2="46.0" stroke="#777"/>
<text x="73" y="50.0" text-anchor="end" font-size="11" fill="#555">0.5</text>
<text x="456.0" y="218" text-anchor="middle" font-size="12" fill="#444">training step</text>
<text x="16" y="111.0" text-anchor="middle" font-size="12" fill="#444" transform="rotate(-90 16 111.0)">metric value</text>
<polyline points="82.0,111.0 269.0,111.0 456.0,111.0 643.0,111.0 830.0,111.0" fill="none" stroke="#2563eb" stroke-width="2"/>
</g>
<g transform="translate(0,690)">
<text x="82" y="24" font-size="14" font-weight="700">actor/pg_loss</text>
<rect x="82" y="46" width="748" height="130" fill="#fafafa" stroke="#ddd"/>
<text x="830" y="24" text-anchor="end" font-size="12" fill="#555">min=-3.632e-08 max=0.001887 last=0.001748</text>
<line x1="830" y1="176" x2="82" y2="176" stroke="#777"/>
<line x1="82" y1="176" x2="82" y2="46" stroke="#777"/>
<line x1="82.0" y1="176" x2="82.0" y2="181" stroke="#777"/>
<text x="82.0" y="196" text-anchor="middle" font-size="11" fill="#555">1</text>
<line x1="269.0" y1="176" x2="269.0" y2="181" stroke="#777"/>
<text x="269.0" y="196" text-anchor="middle" font-size="11" fill="#555">2</text>
<line x1="456.0" y1="176" x2="456.0" y2="181" stroke="#777"/>
<text x="456.0" y="196" text-anchor="middle" font-size="11" fill="#555">3</text>
<line x1="643.0" y1="176" x2="643.0" y2="181" stroke="#777"/>
<text x="643.0" y="196" text-anchor="middle" font-size="11" fill="#555">4</text>
<line x1="830.0" y1="176" x2="830.0" y2="181" stroke="#777"/>
<text x="830.0" y="196" text-anchor="middle" font-size="11" fill="#555">5</text>
<line x1="77" y1="176.0" x2="82" y2="176.0" stroke="#777"/>
<text x="73" y="180.0" text-anchor="end" font-size="11" fill="#555">-3.63e-08</text>
<line x1="77" y1="132.7" x2="82" y2="132.7" stroke="#777"/>
<text x="73" y="136.7" text-anchor="end" font-size="11" fill="#555">0.000629</text>
<line x1="77" y1="89.3" x2="82" y2="89.3" stroke="#777"/>
<text x="73" y="93.3" text-anchor="end" font-size="11" fill="#555">0.00126</text>
<line x1="77" y1="46.0" x2="82" y2="46.0" stroke="#777"/>
<text x="73" y="50.0" text-anchor="end" font-size="11" fill="#555">0.00189</text>
<text x="456.0" y="218" text-anchor="middle" font-size="12" fill="#444">training step</text>
<text x="16" y="111.0" text-anchor="middle" font-size="12" fill="#444" transform="rotate(-90 16 111.0)">metric value</text>
<polyline points="82.0,46.0 269.0,176.0 456.0,176.0 643.0,176.0 830.0,55.6" fill="none" stroke="#2563eb" stroke-width="2"/>
</g>
<g transform="translate(0,920)">
<text x="82" y="24" font-size="14" font-weight="700">critic/score/mean</text>
<rect x="82" y="46" width="748" height="130" fill="#fafafa" stroke="#ddd"/>
<text x="830" y="24" text-anchor="end" font-size="12" fill="#555">min=0.4045 max=0.6264 last=0.4278</text>
<line x1="830" y1="176" x2="82" y2="176" stroke="#777"/>
<line x1="82" y1="176" x2="82" y2="46" stroke="#777"/>
<line x1="82.0" y1="176" x2="82.0" y2="181" stroke="#777"/>
<text x="82.0" y="196" text-anchor="middle" font-size="11" fill="#555">1</text>
<line x1="269.0" y1="176" x2="269.0" y2="181" stroke="#777"/>
<text x="269.0" y="196" text-anchor="middle" font-size="11" fill="#555">2</text>
<line x1="456.0" y1="176" x2="456.0" y2="181" stroke="#777"/>
<text x="456.0" y="196" text-anchor="middle" font-size="11" fill="#555">3</text>
<line x1="643.0" y1="176" x2="643.0" y2="181" stroke="#777"/>
<text x="643.0" y="196" text-anchor="middle" font-size="11" fill="#555">4</text>
<line x1="830.0" y1="176" x2="830.0" y2="181" stroke="#777"/>
<text x="830.0" y="196" text-anchor="middle" font-size="11" fill="#555">5</text>
<line x1="77" y1="176.0" x2="82" y2="176.0" stroke="#777"/>
<text x="73" y="180.0" text-anchor="end" font-size="11" fill="#555">0.405</text>
<line x1="77" y1="132.7" x2="82" y2="132.7" stroke="#777"/>
<text x="73" y="136.7" text-anchor="end" font-size="11" fill="#555">0.478</text>
<line x1="77" y1="89.3" x2="82" y2="89.3" stroke="#777"/>
<text x="73" y="93.3" text-anchor="end" font-size="11" fill="#555">0.552</text>
<line x1="77" y1="46.0" x2="82" y2="46.0" stroke="#777"/>
<text x="73" y="50.0" text-anchor="end" font-size="11" fill="#555">0.626</text>
<text x="456.0" y="218" text-anchor="middle" font-size="12" fill="#444">training step</text>
<text x="16" y="111.0" text-anchor="middle" font-size="12" fill="#444" transform="rotate(-90 16 111.0)">metric value</text>
<polyline points="82.0,176.0 269.0,111.7 456.0,59.4 643.0,46.0 830.0,162.3" fill="none" stroke="#2563eb" stroke-width="2"/>
</g>
<g transform="translate(0,1150)">
<text x="82" y="24" font-size="14" font-weight="700">response_length/clip_ratio</text>
<rect x="82" y="46" width="748" height="130" fill="#fafafa" stroke="#ddd"/>
<text x="830" y="24" text-anchor="end" font-size="12" fill="#555">min=-0.5 max=0.5 last=0</text>
<line x1="830" y1="176" x2="82" y2="176" stroke="#777"/>
<line x1="82" y1="176" x2="82" y2="46" stroke="#777"/>
<line x1="82.0" y1="176" x2="82.0" y2="181" stroke="#777"/>
<text x="82.0" y="196" text-anchor="middle" font-size="11" fill="#555">1</text>
<line x1="269.0" y1="176" x2="269.0" y2="181" stroke="#777"/>
<text x="269.0" y="196" text-anchor="middle" font-size="11" fill="#555">2</text>
<line x1="456.0" y1="176" x2="456.0" y2="181" stroke="#777"/>
<text x="456.0" y="196" text-anchor="middle" font-size="11" fill="#555">3</text>
<line x1="643.0" y1="176" x2="643.0" y2="181" stroke="#777"/>
<text x="643.0" y="196" text-anchor="middle" font-size="11" fill="#555">4</text>
<line x1="830.0" y1="176" x2="830.0" y2="181" stroke="#777"/>
<text x="830.0" y="196" text-anchor="middle" font-size="11" fill="#555">5</text>
<line x1="77" y1="176.0" x2="82" y2="176.0" stroke="#777"/>
<text x="73" y="180.0" text-anchor="end" font-size="11" fill="#555">-0.5</text>
<line x1="77" y1="132.7" x2="82" y2="132.7" stroke="#777"/>
<text x="73" y="136.7" text-anchor="end" font-size="11" fill="#555">-0.167</text>
<line x1="77" y1="89.3" x2="82" y2="89.3" stroke="#777"/>
<text x="73" y="93.3" text-anchor="end" font-size="11" fill="#555">0.167</text>
<line x1="77" y1="46.0" x2="82" y2="46.0" stroke="#777"/>
<text x="73" y="50.0" text-anchor="end" font-size="11" fill="#555">0.5</text>
<text x="456.0" y="218" text-anchor="middle" font-size="12" fill="#444">training step</text>
<text x="16" y="111.0" text-anchor="middle" font-size="12" fill="#444" transform="rotate(-90 16 111.0)">metric value</text>
<polyline points="82.0,111.0 269.0,111.0 456.0,111.0 643.0,111.0 830.0,111.0" fill="none" stroke="#2563eb" stroke-width="2"/>
</g>
<g transform="translate(0,1380)">
<text x="82" y="24" font-size="14" font-weight="700">response_length/max</text>
<rect x="82" y="46" width="748" height="130" fill="#fafafa" stroke="#ddd"/>
<text x="830" y="24" text-anchor="end" font-size="12" fill="#555">min=36 max=46 last=46</text>
<line x1="830" y1="176" x2="82" y2="176" stroke="#777"/>
<line x1="82" y1="176" x2="82" y2="46" stroke="#777"/>
<line x1="82.0" y1="176" x2="82.0" y2="181" stroke="#777"/>
<text x="82.0" y="196" text-anchor="middle" font-size="11" fill="#555">1</text>
<line x1="269.0" y1="176" x2="269.0" y2="181" stroke="#777"/>
<text x="269.0" y="196" text-anchor="middle" font-size="11" fill="#555">2</text>
<line x1="456.0" y1="176" x2="456.0" y2="181" stroke="#777"/>
<text x="456.0" y="196" text-anchor="middle" font-size="11" fill="#555">3</text>
<line x1="643.0" y1="176" x2="643.0" y2="181" stroke="#777"/>
<text x="643.0" y="196" text-anchor="middle" font-size="11" fill="#555">4</text>
<line x1="830.0" y1="176" x2="830.0" y2="181" stroke="#777"/>
<text x="830.0" y="196" text-anchor="middle" font-size="11" fill="#555">5</text>
<line x1="77" y1="176.0" x2="82" y2="176.0" stroke="#777"/>
<text x="73" y="180.0" text-anchor="end" font-size="11" fill="#555">36</text>
<line x1="77" y1="132.7" x2="82" y2="132.7" stroke="#777"/>
<text x="73" y="136.7" text-anchor="end" font-size="11" fill="#555">39.3</text>
<line x1="77" y1="89.3" x2="82" y2="89.3" stroke="#777"/>
<text x="73" y="93.3" text-anchor="end" font-size="11" fill="#555">42.7</text>
<line x1="77" y1="46.0" x2="82" y2="46.0" stroke="#777"/>
<text x="73" y="50.0" text-anchor="end" font-size="11" fill="#555">46</text>
<text x="456.0" y="218" text-anchor="middle" font-size="12" fill="#444">training step</text>
<text x="16" y="111.0" text-anchor="middle" font-size="12" fill="#444" transform="rotate(-90 16 111.0)">metric value</text>
<polyline points="82.0,176.0 269.0,72.0 456.0,72.0 643.0,72.0 830.0,46.0" fill="none" stroke="#2563eb" stroke-width="2"/>
</g>
<g transform="translate(0,1610)">
<text x="82" y="24" font-size="14" font-weight="700">response_length/mean</text>
<rect x="82" y="46" width="748" height="130" fill="#fafafa" stroke="#ddd"/>
<text x="830" y="24" text-anchor="end" font-size="12" fill="#555">min=33.12 max=41.12 last=37.34</text>
<line x1="830" y1="176" x2="82" y2="176" stroke="#777"/>
<line x1="82" y1="176" x2="82" y2="46" stroke="#777"/>
<line x1="82.0" y1="176" x2="82.0" y2="181" stroke="#777"/>
<text x="82.0" y="196" text-anchor="middle" font-size="11" fill="#555">1</text>
<line x1="269.0" y1="176" x2="269.0" y2="181" stroke="#777"/>
<text x="269.0" y="196" text-anchor="middle" font-size="11" fill="#555">2</text>
<line x1="456.0" y1="176" x2="456.0" y2="181" stroke="#777"/>
<text x="456.0" y="196" text-anchor="middle" font-size="11" fill="#555">3</text>
<line x1="643.0" y1="176" x2="643.0" y2="181" stroke="#777"/>
<text x="643.0" y="196" text-anchor="middle" font-size="11" fill="#555">4</text>
<line x1="830.0" y1="176" x2="830.0" y2="181" stroke="#777"/>
<text x="830.0" y="196" text-anchor="middle" font-size="11" fill="#555">5</text>
<line x1="77" y1="176.0" x2="82" y2="176.0" stroke="#777"/>
<text x="73" y="180.0" text-anchor="end" font-size="11" fill="#555">33.1</text>
<line x1="77" y1="132.7" x2="82" y2="132.7" stroke="#777"/>
<text x="73" y="136.7" text-anchor="end" font-size="11" fill="#555">35.8</text>
<line x1="77" y1="89.3" x2="82" y2="89.3" stroke="#777"/>
<text x="73" y="93.3" text-anchor="end" font-size="11" fill="#555">38.5</text>
<line x1="77" y1="46.0" x2="82" y2="46.0" stroke="#777"/>
<text x="73" y="50.0" text-anchor="end" font-size="11" fill="#555">41.1</text>
<text x="456.0" y="218" text-anchor="middle" font-size="12" fill="#444">training step</text>
<text x="16" y="111.0" text-anchor="middle" font-size="12" fill="#444" transform="rotate(-90 16 111.0)">metric value</text>
<polyline points="82.0,176.0 269.0,101.9 456.0,46.0 643.0,95.8 830.0,107.4" fill="none" stroke="#2563eb" stroke-width="2"/>
</g>
<g transform="translate(0,1840)">
<text x="82" y="24" font-size="14" font-weight="700">rollout_corr/kl</text>
<rect x="82" y="46" width="748" height="130" fill="#fafafa" stroke="#ddd"/>
<text x="830" y="24" text-anchor="end" font-size="12" fill="#555">min=-0.0003481 max=0.0009892 last=0.0009892</text>
<line x1="830" y1="176" x2="82" y2="176" stroke="#777"/>
<line x1="82" y1="176" x2="82" y2="46" stroke="#777"/>
<line x1="82.0" y1="176" x2="82.0" y2="181" stroke="#777"/>
<text x="82.0" y="196" text-anchor="middle" font-size="11" fill="#555">1</text>
<line x1="269.0" y1="176" x2="269.0" y2="181" stroke="#777"/>
<text x="269.0" y="196" text-anchor="middle" font-size="11" fill="#555">2</text>
<line x1="456.0" y1="176" x2="456.0" y2="181" stroke="#777"/>
<text x="456.0" y="196" text-anchor="middle" font-size="11" fill="#555">3</text>
<line x1="643.0" y1="176" x2="643.0" y2="181" stroke="#777"/>
<text x="643.0" y="196" text-anchor="middle" font-size="11" fill="#555">4</text>
<line x1="830.0" y1="176" x2="830.0" y2="181" stroke="#777"/>
<text x="830.0" y="196" text-anchor="middle" font-size="11" fill="#555">5</text>
<line x1="77" y1="176.0" x2="82" y2="176.0" stroke="#777"/>
<text x="73" y="180.0" text-anchor="end" font-size="11" fill="#555">-0.000348</text>
<line x1="77" y1="132.7" x2="82" y2="132.7" stroke="#777"/>
<text x="73" y="136.7" text-anchor="end" font-size="11" fill="#555">9.76e-05</text>
<line x1="77" y1="89.3" x2="82" y2="89.3" stroke="#777"/>
<text x="73" y="93.3" text-anchor="end" font-size="11" fill="#555">0.000543</text>
<line x1="77" y1="46.0" x2="82" y2="46.0" stroke="#777"/>
<text x="73" y="50.0" text-anchor="end" font-size="11" fill="#555">0.000989</text>
<text x="456.0" y="218" text-anchor="middle" font-size="12" fill="#444">training step</text>
<text x="16" y="111.0" text-anchor="middle" font-size="12" fill="#444" transform="rotate(-90 16 111.0)">metric value</text>
<polyline points="82.0,50.9 269.0,176.0 456.0,175.7 643.0,112.3 830.0,46.0" fill="none" stroke="#2563eb" stroke-width="2"/>
</g>
<g transform="translate(0,2070)">
<text x="82" y="24" font-size="14" font-weight="700">timing_s/step</text>
<rect x="82" y="46" width="748" height="130" fill="#fafafa" stroke="#ddd"/>
<text x="830" y="24" text-anchor="end" font-size="12" fill="#555">min=148.5 max=310 last=310</text>
<line x1="830" y1="176" x2="82" y2="176" stroke="#777"/>
<line x1="82" y1="176" x2="82" y2="46" stroke="#777"/>
<line x1="82.0" y1="176" x2="82.0" y2="181" stroke="#777"/>
<text x="82.0" y="196" text-anchor="middle" font-size="11" fill="#555">1</text>
<line x1="269.0" y1="176" x2="269.0" y2="181" stroke="#777"/>
<text x="269.0" y="196" text-anchor="middle" font-size="11" fill="#555">2</text>
<line x1="456.0" y1="176" x2="456.0" y2="181" stroke="#777"/>
<text x="456.0" y="196" text-anchor="middle" font-size="11" fill="#555">3</text>
<line x1="643.0" y1="176" x2="643.0" y2="181" stroke="#777"/>
<text x="643.0" y="196" text-anchor="middle" font-size="11" fill="#555">4</text>
<line x1="830.0" y1="176" x2="830.0" y2="181" stroke="#777"/>
<text x="830.0" y="196" text-anchor="middle" font-size="11" fill="#555">5</text>
<line x1="77" y1="176.0" x2="82" y2="176.0" stroke="#777"/>
<text x="73" y="180.0" text-anchor="end" font-size="11" fill="#555">149</text>
<line x1="77" y1="132.7" x2="82" y2="132.7" stroke="#777"/>
<text x="73" y="136.7" text-anchor="end" font-size="11" fill="#555">202</text>
<line x1="77" y1="89.3" x2="82" y2="89.3" stroke="#777"/>
<text x="73" y="93.3" text-anchor="end" font-size="11" fill="#555">256</text>
<line x1="77" y1="46.0" x2="82" y2="46.0" stroke="#777"/>
<text x="73" y="50.0" text-anchor="end" font-size="11" fill="#555">310</text>
<text x="456.0" y="218" text-anchor="middle" font-size="12" fill="#444">training step</text>
<text x="16" y="111.0" text-anchor="middle" font-size="12" fill="#444" transform="rotate(-90 16 111.0)">metric value</text>
<polyline points="82.0,153.4 269.0,176.0 456.0,175.9 643.0,176.0 830.0,46.0" fill="none" stroke="#2563eb" stroke-width="2"/>
</g>
</svg>