<svg xmlns="http://www.w3.org/2000/svg" width="920" height="2695" font-family="Arial, sans-serif">
<rect width="100%" height="100%" fill="white"/>
<g transform="translate(0,0)">
<text x="92" y="26" font-size="15" font-weight="700">Score Mean</text>
<text x="886" y="26" text-anchor="end" font-size="12" fill="#555">critic/score/mean; last=0.818</text>
<rect x="92" y="50" width="794" height="133" fill="#fbfbfb" stroke="#ddd"/>
<line x1="92" y1="183" x2="886" y2="183" stroke="#666"/>
<line x1="92" y1="50" x2="92" y2="183" stroke="#666"/>
<line x1="92.0" y1="183" x2="92.0" y2="188" stroke="#666"/>
<text x="92.0" y="205" text-anchor="middle" font-size="11" fill="#444">1</text>
<line x1="250.8" y1="183" x2="250.8" y2="188" stroke="#666"/>
<text x="250.8" y="205" text-anchor="middle" font-size="11" fill="#444">10.8</text>
<line x1="409.6" y1="183" x2="409.6" y2="188" stroke="#666"/>
<text x="409.6" y="205" text-anchor="middle" font-size="11" fill="#444">20.6</text>
<line x1="568.4" y1="183" x2="568.4" y2="188" stroke="#666"/>
<text x="568.4" y="205" text-anchor="middle" font-size="11" fill="#444">30.4</text>
<line x1="727.2" y1="183" x2="727.2" y2="188" stroke="#666"/>
<text x="727.2" y="205" text-anchor="middle" font-size="11" fill="#444">40.2</text>
<line x1="886.0" y1="183" x2="886.0" y2="188" stroke="#666"/>
<text x="886.0" y="205" text-anchor="middle" font-size="11" fill="#444">50</text>
<line x1="87" y1="183.0" x2="92" y2="183.0" stroke="#666"/>
<text x="83" y="187.0" text-anchor="end" font-size="11" fill="#444">0.39</text>
<line x1="87" y1="149.8" x2="92" y2="149.8" stroke="#666"/>
<text x="83" y="153.8" text-anchor="end" font-size="11" fill="#444">0.535</text>
<line x1="87" y1="116.5" x2="92" y2="116.5" stroke="#666"/>
<text x="83" y="120.5" text-anchor="end" font-size="11" fill="#444">0.68</text>
<line x1="87" y1="83.2" x2="92" y2="83.2" stroke="#666"/>
<text x="83" y="87.2" text-anchor="end" font-size="11" fill="#444">0.825</text>
<line x1="87" y1="50.0" x2="92" y2="50.0" stroke="#666"/>
<text x="83" y="54.0" text-anchor="end" font-size="11" fill="#444">0.97</text>
<text x="489.0" y="227" text-anchor="middle" font-size="12" fill="#333">x-axis: training step</text>
<text x="18" y="116.5" text-anchor="middle" font-size="12" fill="#333" transform="rotate(-90 18 116.5)">y-axis: reward score</text>
<polyline points="92.0,68.3 108.2,79.5 124.4,99.6 140.6,50.0 156.8,50.0 173.0,97.1 189.2,90.4 205.4,109.6 221.6,102.2 237.8,79.8 254.0,72.4 270.2,50.0 286.4,119.9 302.7,116.5 318.9,109.6 335.1,146.3 351.3,183.0 367.5,79.8 383.7,79.8 399.9,97.1 416.1,109.6 432.3,79.8 448.5,124.4 464.7,123.4 480.9,79.8 497.1,79.8 513.3,102.2 529.5,79.8 545.7,50.0 561.9,64.9 578.1,118.8 594.3,71.6 610.5,59.9 626.7,50.0 642.9,50.0 659.1,50.0 675.3,79.8 691.6,120.7 707.8,54.9 724.0,79.8 740.2,50.0 756.4,79.8 772.6,50.0 788.8,109.6 805.0,79.8 821.2,114.6 837.4,76.0 853.6,79.8 869.8,86.7 886.0,84.8" fill="none" stroke="#2563eb" stroke-width="2.2"/>
<circle cx="92.0" cy="68.3" r="2.5" fill="#1d4ed8"/>
<circle cx="237.8" cy="79.8" r="2.5" fill="#1d4ed8"/>
<circle cx="399.9" cy="97.1" r="2.5" fill="#1d4ed8"/>
<circle cx="561.9" cy="64.9" r="2.5" fill="#1d4ed8"/>
<circle cx="724.0" cy="79.8" r="2.5" fill="#1d4ed8"/>
<circle cx="886.0" cy="84.8" r="2.5" fill="#1d4ed8"/>
</g>
<g transform="translate(0,245)">
<text x="92" y="26" font-size="15" font-weight="700">Score Max</text>
<text x="886" y="26" text-anchor="end" font-size="12" fill="#555">critic/score/max; last=0.97</text>
<rect x="92" y="50" width="794" height="133" fill="#fbfbfb" stroke="#ddd"/>
<line x1="92" y1="183" x2="886" y2="183" stroke="#666"/>
<line x1="92" y1="50" x2="92" y2="183" stroke="#666"/>
<line x1="92.0" y1="183" x2="92.0" y2="188" stroke="#666"/>
<text x="92.0" y="205" text-anchor="middle" font-size="11" fill="#444">1</text>
<line x1="250.8" y1="183" x2="250.8" y2="188" stroke="#666"/>
<text x="250.8" y="205" text-anchor="middle" font-size="11" fill="#444">10.8</text>
<line x1="409.6" y1="183" x2="409.6" y2="188" stroke="#666"/>
<text x="409.6" y="205" text-anchor="middle" font-size="11" fill="#444">20.6</text>
<line x1="568.4" y1="183" x2="568.4" y2="188" stroke="#666"/>
<text x="568.4" y="205" text-anchor="middle" font-size="11" fill="#444">30.4</text>
<line x1="727.2" y1="183" x2="727.2" y2="188" stroke="#666"/>
<text x="727.2" y="205" text-anchor="middle" font-size="11" fill="#444">40.2</text>
<line x1="886.0" y1="183" x2="886.0" y2="188" stroke="#666"/>
<text x="886.0" y="205" text-anchor="middle" font-size="11" fill="#444">50</text>
<line x1="87" y1="183.0" x2="92" y2="183.0" stroke="#666"/>
<text x="83" y="187.0" text-anchor="end" font-size="11" fill="#444">0.45</text>
<line x1="87" y1="149.8" x2="92" y2="149.8" stroke="#666"/>
<text x="83" y="153.8" text-anchor="end" font-size="11" fill="#444">0.58</text>
<line x1="87" y1="116.5" x2="92" y2="116.5" stroke="#666"/>
<text x="83" y="120.5" text-anchor="end" font-size="11" fill="#444">0.71</text>
<line x1="87" y1="83.2" x2="92" y2="83.2" stroke="#666"/>
<text x="83" y="87.2" text-anchor="end" font-size="11" fill="#444">0.84</text>
<line x1="87" y1="50.0" x2="92" y2="50.0" stroke="#666"/>
<text x="83" y="54.0" text-anchor="end" font-size="11" fill="#444">0.97</text>
<text x="489.0" y="227" text-anchor="middle" font-size="12" fill="#333">x-axis: training step</text>
<text x="18" y="116.5" text-anchor="middle" font-size="12" fill="#333" transform="rotate(-90 18 116.5)">y-axis: reward score</text>
<polyline points="92.0,50.0 108.2,50.0 124.4,50.0 140.6,50.0 156.8,50.0 173.0,50.0 189.2,50.0 205.4,50.0 221.6,50.0 237.8,50.0 254.0,50.0 270.2,50.0 286.4,50.0 302.7,50.0 318.9,50.0 335.1,50.0 351.3,183.0 367.5,50.0 383.7,50.0 399.9,50.0 416.1,50.0 432.3,50.0 448.5,50.0 464.7,50.0 480.9,50.0 497.1,50.0 513.3,50.0 529.5,50.0 545.7,50.0 561.9,50.0 578.1,50.0 594.3,50.0 610.5,50.0 626.7,50.0 642.9,50.0 659.1,50.0 675.3,50.0 691.6,50.0 707.8,50.0 724.0,50.0 740.2,50.0 756.4,50.0 772.6,50.0 788.8,50.0 805.0,50.0 821.2,50.0 837.4,50.0 853.6,50.0 869.8,50.0 886.0,50.0" fill="none" stroke="#2563eb" stroke-width="2.2"/>
<circle cx="92.0" cy="50.0" r="2.5" fill="#1d4ed8"/>
<circle cx="237.8" cy="50.0" r="2.5" fill="#1d4ed8"/>
<circle cx="399.9" cy="50.0" r="2.5" fill="#1d4ed8"/>
<circle cx="561.9" cy="50.0" r="2.5" fill="#1d4ed8"/>
<circle cx="724.0" cy="50.0" r="2.5" fill="#1d4ed8"/>
<circle cx="886.0" cy="50.0" r="2.5" fill="#1d4ed8"/>
</g>
<g transform="translate(0,490)">
<text x="92" y="26" font-size="15" font-weight="700">Score Min</text>
<text x="886" y="26" text-anchor="end" font-size="12" fill="#555">critic/score/min; last=0.45</text>
<rect x="92" y="50" width="794" height="133" fill="#fbfbfb" stroke="#ddd"/>
<line x1="92" y1="183" x2="886" y2="183" stroke="#666"/>
<line x1="92" y1="50" x2="92" y2="183" stroke="#666"/>
<line x1="92.0" y1="183" x2="92.0" y2="188" stroke="#666"/>
<text x="92.0" y="205" text-anchor="middle" font-size="11" fill="#444">1</text>
<line x1="250.8" y1="183" x2="250.8" y2="188" stroke="#666"/>
<text x="250.8" y="205" text-anchor="middle" font-size="11" fill="#444">10.8</text>
<line x1="409.6" y1="183" x2="409.6" y2="188" stroke="#666"/>
<text x="409.6" y="205" text-anchor="middle" font-size="11" fill="#444">20.6</text>
<line x1="568.4" y1="183" x2="568.4" y2="188" stroke="#666"/>
<text x="568.4" y="205" text-anchor="middle" font-size="11" fill="#444">30.4</text>
<line x1="727.2" y1="183" x2="727.2" y2="188" stroke="#666"/>
<text x="727.2" y="205" text-anchor="middle" font-size="11" fill="#444">40.2</text>
<line x1="886.0" y1="183" x2="886.0" y2="188" stroke="#666"/>
<text x="886.0" y="205" text-anchor="middle" font-size="11" fill="#444">50</text>
<line x1="87" y1="183.0" x2="92" y2="183.0" stroke="#666"/>
<text x="83" y="187.0" text-anchor="end" font-size="11" fill="#444">0.08</text>
<line x1="87" y1="149.8" x2="92" y2="149.8" stroke="#666"/>
<text x="83" y="153.8" text-anchor="end" font-size="11" fill="#444">0.303</text>
<line x1="87" y1="116.5" x2="92" y2="116.5" stroke="#666"/>
<text x="83" y="120.5" text-anchor="end" font-size="11" fill="#444">0.525</text>
<line x1="87" y1="83.2" x2="92" y2="83.2" stroke="#666"/>
<text x="83" y="87.2" text-anchor="end" font-size="11" fill="#444">0.748</text>
<line x1="87" y1="50.0" x2="92" y2="50.0" stroke="#666"/>
<text x="83" y="54.0" text-anchor="end" font-size="11" fill="#444">0.97</text>
<text x="489.0" y="227" text-anchor="middle" font-size="12" fill="#333">x-axis: training step</text>
<text x="18" y="116.5" text-anchor="middle" font-size="12" fill="#333" transform="rotate(-90 18 116.5)">y-axis: reward score</text>
<polyline points="92.0,145.6 108.2,88.5 124.4,127.7 140.6,50.0 156.8,50.0 173.0,127.7 189.2,120.2 205.4,127.7 221.6,127.7 237.8,127.7 254.0,127.7 270.2,50.0 286.4,183.0 302.7,145.6 318.9,127.7 335.1,145.6 351.3,145.6 367.5,127.7 383.7,127.7 399.9,127.7 416.1,127.7 432.3,127.7 448.5,127.7 464.7,145.6 480.9,127.7 497.1,127.7 513.3,127.7 529.5,127.7 545.7,50.0 561.9,127.7 578.1,145.6 594.3,145.6 610.5,101.6 626.7,50.0 642.9,50.0 659.1,50.0 675.3,127.7 691.6,127.7 707.8,101.6 724.0,127.7 740.2,50.0 756.4,127.7 772.6,50.0 788.8,127.7 805.0,127.7 821.2,127.7 837.4,127.7 853.6,127.7 869.8,145.6 886.0,127.7" fill="none" stroke="#2563eb" stroke-width="2.2"/>
<circle cx="92.0" cy="145.6" r="2.5" fill="#1d4ed8"/>
<circle cx="237.8" cy="127.7" r="2.5" fill="#1d4ed8"/>
<circle cx="399.9" cy="127.7" r="2.5" fill="#1d4ed8"/>
<circle cx="561.9" cy="127.7" r="2.5" fill="#1d4ed8"/>
<circle cx="724.0" cy="127.7" r="2.5" fill="#1d4ed8"/>
<circle cx="886.0" cy="127.7" r="2.5" fill="#1d4ed8"/>
</g>
<g transform="translate(0,735)">
<text x="92" y="26" font-size="15" font-weight="700">Actor Grad Norm</text>
<text x="886" y="26" text-anchor="end" font-size="12" fill="#555">actor/grad_norm; last=3.12</text>
<rect x="92" y="50" width="794" height="133" fill="#fbfbfb" stroke="#ddd"/>
<line x1="92" y1="183" x2="886" y2="183" stroke="#666"/>
<line x1="92" y1="50" x2="92" y2="183" stroke="#666"/>
<line x1="92.0" y1="183" x2="92.0" y2="188" stroke="#666"/>
<text x="92.0" y="205" text-anchor="middle" font-size="11" fill="#444">1</text>
<line x1="250.8" y1="183" x2="250.8" y2="188" stroke="#666"/>
<text x="250.8" y="205" text-anchor="middle" font-size="11" fill="#444">10.8</text>
<line x1="409.6" y1="183" x2="409.6" y2="188" stroke="#666"/>
<text x="409.6" y="205" text-anchor="middle" font-size="11" fill="#444">20.6</text>
<line x1="568.4" y1="183" x2="568.4" y2="188" stroke="#666"/>
<text x="568.4" y="205" text-anchor="middle" font-size="11" fill="#444">30.4</text>
<line x1="727.2" y1="183" x2="727.2" y2="188" stroke="#666"/>
<text x="727.2" y="205" text-anchor="middle" font-size="11" fill="#444">40.2</text>
<line x1="886.0" y1="183" x2="886.0" y2="188" stroke="#666"/>
<text x="886.0" y="205" text-anchor="middle" font-size="11" fill="#444">50</text>
<line x1="87" y1="183.0" x2="92" y2="183.0" stroke="#666"/>
<text x="83" y="187.0" text-anchor="end" font-size="11" fill="#444">0</text>
<line x1="87" y1="149.8" x2="92" y2="149.8" stroke="#666"/>
<text x="83" y="153.8" text-anchor="end" font-size="11" fill="#444">1.83</text>
<line x1="87" y1="116.5" x2="92" y2="116.5" stroke="#666"/>
<text x="83" y="120.5" text-anchor="end" font-size="11" fill="#444">3.66</text>
<line x1="87" y1="83.2" x2="92" y2="83.2" stroke="#666"/>
<text x="83" y="87.2" text-anchor="end" font-size="11" fill="#444">5.5</text>
<line x1="87" y1="50.0" x2="92" y2="50.0" stroke="#666"/>
<text x="83" y="54.0" text-anchor="end" font-size="11" fill="#444">7.33</text>
<text x="489.0" y="227" text-anchor="middle" font-size="12" fill="#333">x-axis: training step</text>
<text x="18" y="116.5" text-anchor="middle" font-size="12" fill="#333" transform="rotate(-90 18 116.5)">y-axis: gradient norm</text>
<polyline points="92.0,150.2 108.2,183.0 124.4,183.0 140.6,183.0 156.8,183.0 173.0,159.0 189.2,82.6 205.4,183.0 221.6,152.1 237.8,183.0 254.0,82.1 270.2,183.0 286.4,162.1 302.7,183.0 318.9,183.0 335.1,183.0 351.3,183.0 367.5,183.0 383.7,183.0 399.9,63.1 416.1,183.0 432.3,183.0 448.5,183.0 464.7,183.0 480.9,183.0 497.1,183.0 513.3,152.9 529.5,183.0 545.7,183.0 561.9,161.5 578.1,173.0 594.3,129.9 610.5,126.6 626.7,183.0 642.9,183.0 659.1,183.0 675.3,183.0 691.6,110.5 707.8,152.7 724.0,183.0 740.2,183.0 756.4,183.0 772.6,183.0 788.8,183.0 805.0,183.0 821.2,145.5 837.4,50.0 853.6,183.0 869.8,183.0 886.0,126.3" fill="none" stroke="#2563eb" stroke-width="2.2"/>
<circle cx="92.0" cy="150.2" r="2.5" fill="#1d4ed8"/>
<circle cx="237.8" cy="183.0" r="2.5" fill="#1d4ed8"/>
<circle cx="399.9" cy="63.1" r="2.5" fill="#1d4ed8"/>
<circle cx="561.9" cy="161.5" r="2.5" fill="#1d4ed8"/>
<circle cx="724.0" cy="183.0" r="2.5" fill="#1d4ed8"/>
<circle cx="886.0" cy="126.3" r="2.5" fill="#1d4ed8"/>
</g>
<g transform="translate(0,980)">
<text x="92" y="26" font-size="15" font-weight="700">Actor Loss</text>
<text x="886" y="26" text-anchor="end" font-size="12" fill="#555">actor/loss; last=-0.012</text>
<rect x="92" y="50" width="794" height="133" fill="#fbfbfb" stroke="#ddd"/>
<line x1="92" y1="183" x2="886" y2="183" stroke="#666"/>
<line x1="92" y1="50" x2="92" y2="183" stroke="#666"/>
<line x1="92.0" y1="183" x2="92.0" y2="188" stroke="#666"/>
<text x="92.0" y="205" text-anchor="middle" font-size="11" fill="#444">1</text>
<line x1="250.8" y1="183" x2="250.8" y2="188" stroke="#666"/>
<text x="250.8" y="205" text-anchor="middle" font-size="11" fill="#444">10.8</text>
<line x1="409.6" y1="183" x2="409.6" y2="188" stroke="#666"/>
<text x="409.6" y="205" text-anchor="middle" font-size="11" fill="#444">20.6</text>
<line x1="568.4" y1="183" x2="568.4" y2="188" stroke="#666"/>
<text x="568.4" y="205" text-anchor="middle" font-size="11" fill="#444">30.4</text>
<line x1="727.2" y1="183" x2="727.2" y2="188" stroke="#666"/>
<text x="727.2" y="205" text-anchor="middle" font-size="11" fill="#444">40.2</text>
<line x1="886.0" y1="183" x2="886.0" y2="188" stroke="#666"/>
<text x="886.0" y="205" text-anchor="middle" font-size="11" fill="#444">50</text>
<line x1="87" y1="183.0" x2="92" y2="183.0" stroke="#666"/>
<text x="83" y="187.0" text-anchor="end" font-size="11" fill="#444">-0.094</text>
<line x1="87" y1="149.8" x2="92" y2="149.8" stroke="#666"/>
<text x="83" y="153.8" text-anchor="end" font-size="11" fill="#444">-0.022</text>
<line x1="87" y1="116.5" x2="92" y2="116.5" stroke="#666"/>
<text x="83" y="120.5" text-anchor="end" font-size="11" fill="#444">0.05</text>
<line x1="87" y1="83.2" x2="92" y2="83.2" stroke="#666"/>
<text x="83" y="87.2" text-anchor="end" font-size="11" fill="#444">0.122</text>
<line x1="87" y1="50.0" x2="92" y2="50.0" stroke="#666"/>
<text x="83" y="54.0" text-anchor="end" font-size="11" fill="#444">0.193</text>
<text x="489.0" y="227" text-anchor="middle" font-size="12" fill="#333">x-axis: training step</text>
<text x="18" y="116.5" text-anchor="middle" font-size="12" fill="#333" transform="rotate(-90 18 116.5)">y-axis: loss</text>
<polyline points="92.0,140.6 108.2,139.6 124.4,139.6 140.6,139.6 156.8,139.6 173.0,141.6 189.2,183.0 205.4,139.6 221.6,139.9 237.8,139.6 254.0,142.6 270.2,139.6 286.4,50.0 302.7,139.6 318.9,139.6 335.1,139.6 351.3,139.6 367.5,139.6 383.7,139.6 399.9,139.0 416.1,139.6 432.3,139.6 448.5,139.6 464.7,139.6 480.9,139.6 497.1,139.6 513.3,120.8 529.5,139.6 545.7,139.6 561.9,124.3 578.1,139.9 594.3,164.0 610.5,119.8 626.7,139.6 642.9,139.6 659.1,139.6 675.3,139.6 691.6,167.4 707.8,138.2 724.0,139.6 740.2,139.6 756.4,139.6 772.6,139.6 788.8,139.6 805.0,139.6 821.2,138.1 837.4,122.5 853.6,139.6 869.8,139.6 886.0,145.4" fill="none" stroke="#2563eb" stroke-width="2.2"/>
<circle cx="92.0" cy="140.6" r="2.5" fill="#1d4ed8"/>
<circle cx="237.8" cy="139.6" r="2.5" fill="#1d4ed8"/>
<circle cx="399.9" cy="139.0" r="2.5" fill="#1d4ed8"/>
<circle cx="561.9" cy="124.3" r="2.5" fill="#1d4ed8"/>
<circle cx="724.0" cy="139.6" r="2.5" fill="#1d4ed8"/>
<circle cx="886.0" cy="145.4" r="2.5" fill="#1d4ed8"/>
</g>
<g transform="translate(0,1225)">
<text x="92" y="26" font-size="15" font-weight="700">Advantage Max</text>
<text x="886" y="26" text-anchor="end" font-size="12" fill="#555">critic/advantages/max; last=0.5</text>
<rect x="92" y="50" width="794" height="133" fill="#fbfbfb" stroke="#ddd"/>
<line x1="92" y1="183" x2="886" y2="183" stroke="#666"/>
<line x1="92" y1="50" x2="92" y2="183" stroke="#666"/>
<line x1="92.0" y1="183" x2="92.0" y2="188" stroke="#666"/>
<text x="92.0" y="205" text-anchor="middle" font-size="11" fill="#444">1</text>
<line x1="250.8" y1="183" x2="250.8" y2="188" stroke="#666"/>
<text x="250.8" y="205" text-anchor="middle" font-size="11" fill="#444">10.8</text>
<line x1="409.6" y1="183" x2="409.6" y2="188" stroke="#666"/>
<text x="409.6" y="205" text-anchor="middle" font-size="11" fill="#444">20.6</text>
<line x1="568.4" y1="183" x2="568.4" y2="188" stroke="#666"/>
<text x="568.4" y="205" text-anchor="middle" font-size="11" fill="#444">30.4</text>
<line x1="727.2" y1="183" x2="727.2" y2="188" stroke="#666"/>
<text x="727.2" y="205" text-anchor="middle" font-size="11" fill="#444">40.2</text>
<line x1="886.0" y1="183" x2="886.0" y2="188" stroke="#666"/>
<text x="886.0" y="205" text-anchor="middle" font-size="11" fill="#444">50</text>
<line x1="87" y1="183.0" x2="92" y2="183.0" stroke="#666"/>
<text x="83" y="187.0" text-anchor="end" font-size="11" fill="#444">0</text>
<line x1="87" y1="149.8" x2="92" y2="149.8" stroke="#666"/>
<text x="83" y="153.8" text-anchor="end" font-size="11" fill="#444">0.375</text>
<line x1="87" y1="116.5" x2="92" y2="116.5" stroke="#666"/>
<text x="83" y="120.5" text-anchor="end" font-size="11" fill="#444">0.75</text>
<line x1="87" y1="83.2" x2="92" y2="83.2" stroke="#666"/>
<text x="83" y="87.2" text-anchor="end" font-size="11" fill="#444">1.12</text>
<line x1="87" y1="50.0" x2="92" y2="50.0" stroke="#666"/>
<text x="83" y="54.0" text-anchor="end" font-size="11" fill="#444">1.5</text>
<text x="489.0" y="227" text-anchor="middle" font-size="12" fill="#333">x-axis: training step</text>
<text x="18" y="116.5" text-anchor="middle" font-size="12" fill="#333" transform="rotate(-90 18 116.5)">y-axis: advantage</text>
<polyline points="92.0,106.2 108.2,183.0 124.4,183.0 140.6,183.0 156.8,183.0 173.0,106.2 189.2,50.0 205.4,183.0 221.6,50.0 237.8,183.0 254.0,50.0 270.2,183.0 286.4,106.2 302.7,183.0 318.9,183.0 335.1,183.0 351.3,183.0 367.5,183.0 383.7,183.0 399.9,138.7 416.1,183.0 432.3,183.0 448.5,183.0 464.7,183.0 480.9,183.0 497.1,183.0 513.3,50.0 529.5,183.0 545.7,183.0 561.9,106.2 578.1,138.7 594.3,138.7 610.5,106.2 626.7,183.0 642.9,183.0 659.1,183.0 675.3,183.0 691.6,50.0 707.8,138.7 724.0,183.0 740.2,183.0 756.4,183.0 772.6,183.0 788.8,183.0 805.0,183.0 821.2,138.7 837.4,50.0 853.6,183.0 869.8,183.0 886.0,138.7" fill="none" stroke="#2563eb" stroke-width="2.2"/>
<circle cx="92.0" cy="106.2" r="2.5" fill="#1d4ed8"/>
<circle cx="237.8" cy="183.0" r="2.5" fill="#1d4ed8"/>
<circle cx="399.9" cy="138.7" r="2.5" fill="#1d4ed8"/>
<circle cx="561.9" cy="106.2" r="2.5" fill="#1d4ed8"/>
<circle cx="724.0" cy="183.0" r="2.5" fill="#1d4ed8"/>
<circle cx="886.0" cy="138.7" r="2.5" fill="#1d4ed8"/>
</g>
<g transform="translate(0,1470)">
<text x="92" y="26" font-size="15" font-weight="700">Advantage Min</text>
<text x="886" y="26" text-anchor="end" font-size="12" fill="#555">critic/advantages/min; last=-1.5</text>
<rect x="92" y="50" width="794" height="133" fill="#fbfbfb" stroke="#ddd"/>
<line x1="92" y1="183" x2="886" y2="183" stroke="#666"/>
<line x1="92" y1="50" x2="92" y2="183" stroke="#666"/>
<line x1="92.0" y1="183" x2="92.0" y2="188" stroke="#666"/>
<text x="92.0" y="205" text-anchor="middle" font-size="11" fill="#444">1</text>
<line x1="250.8" y1="183" x2="250.8" y2="188" stroke="#666"/>
<text x="250.8" y="205" text-anchor="middle" font-size="11" fill="#444">10.8</text>
<line x1="409.6" y1="183" x2="409.6" y2="188" stroke="#666"/>
<text x="409.6" y="205" text-anchor="middle" font-size="11" fill="#444">20.6</text>
<line x1="568.4" y1="183" x2="568.4" y2="188" stroke="#666"/>
<text x="568.4" y="205" text-anchor="middle" font-size="11" fill="#444">30.4</text>
<line x1="727.2" y1="183" x2="727.2" y2="188" stroke="#666"/>
<text x="727.2" y="205" text-anchor="middle" font-size="11" fill="#444">40.2</text>
<line x1="886.0" y1="183" x2="886.0" y2="188" stroke="#666"/>
<text x="886.0" y="205" text-anchor="middle" font-size="11" fill="#444">50</text>
<line x1="87" y1="183.0" x2="92" y2="183.0" stroke="#666"/>
<text x="83" y="187.0" text-anchor="end" font-size="11" fill="#444">-1.5</text>
<line x1="87" y1="149.8" x2="92" y2="149.8" stroke="#666"/>
<text x="83" y="153.8" text-anchor="end" font-size="11" fill="#444">-1.12</text>
<line x1="87" y1="116.5" x2="92" y2="116.5" stroke="#666"/>
<text x="83" y="120.5" text-anchor="end" font-size="11" fill="#444">-0.75</text>
<line x1="87" y1="83.2" x2="92" y2="83.2" stroke="#666"/>
<text x="83" y="87.2" text-anchor="end" font-size="11" fill="#444">-0.375</text>
<line x1="87" y1="50.0" x2="92" y2="50.0" stroke="#666"/>
<text x="83" y="54.0" text-anchor="end" font-size="11" fill="#444">0</text>
<text x="489.0" y="227" text-anchor="middle" font-size="12" fill="#333">x-axis: training step</text>
<text x="18" y="116.5" text-anchor="middle" font-size="12" fill="#333" transform="rotate(-90 18 116.5)">y-axis: advantage</text>
<polyline points="92.0,126.8 108.2,50.0 124.4,50.0 140.6,50.0 156.8,50.0 173.0,126.8 189.2,94.3 205.4,50.0 221.6,94.3 237.8,50.0 254.0,94.3 270.2,50.0 286.4,126.8 302.7,50.0 318.9,50.0 335.1,50.0 351.3,50.0 367.5,50.0 383.7,50.0 399.9,183.0 416.1,50.0 432.3,50.0 448.5,50.0 464.7,50.0 480.9,50.0 497.1,50.0 513.3,94.3 529.5,50.0 545.7,50.0 561.9,126.8 578.1,183.0 594.3,183.0 610.5,126.8 626.7,50.0 642.9,50.0 659.1,50.0 675.3,50.0 691.6,94.3 707.8,183.0 724.0,50.0 740.2,50.0 756.4,50.0 772.6,50.0 788.8,50.0 805.0,50.0 821.2,183.0 837.4,126.8 853.6,50.0 869.8,50.0 886.0,183.0" fill="none" stroke="#2563eb" stroke-width="2.2"/>
<circle cx="92.0" cy="126.8" r="2.5" fill="#1d4ed8"/>
<circle cx="237.8" cy="50.0" r="2.5" fill="#1d4ed8"/>
<circle cx="399.9" cy="183.0" r="2.5" fill="#1d4ed8"/>
<circle cx="561.9" cy="126.8" r="2.5" fill="#1d4ed8"/>
<circle cx="724.0" cy="50.0" r="2.5" fill="#1d4ed8"/>
<circle cx="886.0" cy="183.0" r="2.5" fill="#1d4ed8"/>
</g>
<g transform="translate(0,1715)">
<text x="92" y="26" font-size="15" font-weight="700">Response Length Mean</text>
<text x="886" y="26" text-anchor="end" font-size="12" fill="#555">response_length/mean; last=127.9</text>
<rect x="92" y="50" width="794" height="133" fill="#fbfbfb" stroke="#ddd"/>
<line x1="92" y1="183" x2="886" y2="183" stroke="#666"/>
<line x1="92" y1="50" x2="92" y2="183" stroke="#666"/>
<line x1="92.0" y1="183" x2="92.0" y2="188" stroke="#666"/>
<text x="92.0" y="205" text-anchor="middle" font-size="11" fill="#444">1</text>
<line x1="250.8" y1="183" x2="250.8" y2="188" stroke="#666"/>
<text x="250.8" y="205" text-anchor="middle" font-size="11" fill="#444">10.8</text>
<line x1="409.6" y1="183" x2="409.6" y2="188" stroke="#666"/>
<text x="409.6" y="205" text-anchor="middle" font-size="11" fill="#444">20.6</text>
<line x1="568.4" y1="183" x2="568.4" y2="188" stroke="#666"/>
<text x="568.4" y="205" text-anchor="middle" font-size="11" fill="#444">30.4</text>
<line x1="727.2" y1="183" x2="727.2" y2="188" stroke="#666"/>
<text x="727.2" y="205" text-anchor="middle" font-size="11" fill="#444">40.2</text>
<line x1="886.0" y1="183" x2="886.0" y2="188" stroke="#666"/>
<text x="886.0" y="205" text-anchor="middle" font-size="11" fill="#444">50</text>
<line x1="87" y1="183.0" x2="92" y2="183.0" stroke="#666"/>
<text x="83" y="187.0" text-anchor="end" font-size="11" fill="#444">81.6</text>
<line x1="87" y1="149.8" x2="92" y2="149.8" stroke="#666"/>
<text x="83" y="153.8" text-anchor="end" font-size="11" fill="#444">163.7</text>
<line x1="87" y1="116.5" x2="92" y2="116.5" stroke="#666"/>
<text x="83" y="120.5" text-anchor="end" font-size="11" fill="#444">245.8</text>
<line x1="87" y1="83.2" x2="92" y2="83.2" stroke="#666"/>
<text x="83" y="87.2" text-anchor="end" font-size="11" fill="#444">327.8</text>
<line x1="87" y1="50.0" x2="92" y2="50.0" stroke="#666"/>
<text x="83" y="54.0" text-anchor="end" font-size="11" fill="#444">409.9</text>
<text x="489.0" y="227" text-anchor="middle" font-size="12" fill="#333">x-axis: training step</text>
<text x="18" y="116.5" text-anchor="middle" font-size="12" fill="#333" transform="rotate(-90 18 116.5)">y-axis: tokens</text>
<polyline points="92.0,154.0 108.2,169.9 124.4,183.0 140.6,169.5 156.8,151.4 173.0,132.5 189.2,156.8 205.4,150.8 221.6,153.8 237.8,137.9 254.0,172.9 270.2,147.7 286.4,50.0 302.7,151.7 318.9,133.1 335.1,149.9 351.3,134.9 367.5,164.6 383.7,162.3 399.9,157.7 416.1,142.0 432.3,153.8 448.5,90.0 464.7,182.3 480.9,165.4 497.1,153.7 513.3,134.2 529.5,138.1 545.7,140.1 561.9,147.3 578.1,142.0 594.3,149.2 610.5,158.7 626.7,146.2 642.9,159.6 659.1,144.9 675.3,165.1 691.6,173.1 707.8,145.0 724.0,164.1 740.2,156.9 756.4,161.0 772.6,163.1 788.8,144.8 805.0,143.6 821.2,161.6 837.4,158.3 853.6,161.1 869.8,163.7 886.0,164.2" fill="none" stroke="#2563eb" stroke-width="2.2"/>
<circle cx="92.0" cy="154.0" r="2.5" fill="#1d4ed8"/>
<circle cx="237.8" cy="137.9" r="2.5" fill="#1d4ed8"/>
<circle cx="399.9" cy="157.7" r="2.5" fill="#1d4ed8"/>
<circle cx="561.9" cy="147.3" r="2.5" fill="#1d4ed8"/>
<circle cx="724.0" cy="164.1" r="2.5" fill="#1d4ed8"/>
<circle cx="886.0" cy="164.2" r="2.5" fill="#1d4ed8"/>
</g>
<g transform="translate(0,1960)">
<text x="92" y="26" font-size="15" font-weight="700">Response Clip Ratio</text>
<text x="886" y="26" text-anchor="end" font-size="12" fill="#555">response_length/clip_ratio; last=0</text>
<rect x="92" y="50" width="794" height="133" fill="#fbfbfb" stroke="#ddd"/>
<line x1="92" y1="183" x2="886" y2="183" stroke="#666"/>
<line x1="92" y1="50" x2="92" y2="183" stroke="#666"/>
<line x1="92.0" y1="183" x2="92.0" y2="188" stroke="#666"/>
<text x="92.0" y="205" text-anchor="middle" font-size="11" fill="#444">1</text>
<line x1="250.8" y1="183" x2="250.8" y2="188" stroke="#666"/>
<text x="250.8" y="205" text-anchor="middle" font-size="11" fill="#444">10.8</text>
<line x1="409.6" y1="183" x2="409.6" y2="188" stroke="#666"/>
<text x="409.6" y="205" text-anchor="middle" font-size="11" fill="#444">20.6</text>
<line x1="568.4" y1="183" x2="568.4" y2="188" stroke="#666"/>
<text x="568.4" y="205" text-anchor="middle" font-size="11" fill="#444">30.4</text>
<line x1="727.2" y1="183" x2="727.2" y2="188" stroke="#666"/>
<text x="727.2" y="205" text-anchor="middle" font-size="11" fill="#444">40.2</text>
<line x1="886.0" y1="183" x2="886.0" y2="188" stroke="#666"/>
<text x="886.0" y="205" text-anchor="middle" font-size="11" fill="#444">50</text>
<line x1="87" y1="183.0" x2="92" y2="183.0" stroke="#666"/>
<text x="83" y="187.0" text-anchor="end" font-size="11" fill="#444">0</text>
<line x1="87" y1="149.8" x2="92" y2="149.8" stroke="#666"/>
<text x="83" y="153.8" text-anchor="end" font-size="11" fill="#444">0.031</text>
<line x1="87" y1="116.5" x2="92" y2="116.5" stroke="#666"/>
<text x="83" y="120.5" text-anchor="end" font-size="11" fill="#444">0.062</text>
<line x1="87" y1="83.2" x2="92" y2="83.2" stroke="#666"/>
<text x="83" y="87.2" text-anchor="end" font-size="11" fill="#444">0.094</text>
<line x1="87" y1="50.0" x2="92" y2="50.0" stroke="#666"/>
<text x="83" y="54.0" text-anchor="end" font-size="11" fill="#444">0.125</text>
<text x="489.0" y="227" text-anchor="middle" font-size="12" fill="#333">x-axis: training step</text>
<text x="18" y="116.5" text-anchor="middle" font-size="12" fill="#333" transform="rotate(-90 18 116.5)">y-axis: ratio</text>
<polyline points="92.0,183.0 108.2,183.0 124.4,183.0 140.6,183.0 156.8,183.0 173.0,183.0 189.2,183.0 205.4,183.0 221.6,183.0 237.8,183.0 254.0,183.0 270.2,183.0 286.4,50.0 302.7,183.0 318.9,183.0 335.1,183.0 351.3,183.0 367.5,183.0 383.7,183.0 399.9,183.0 416.1,183.0 432.3,183.0 448.5,183.0 464.7,183.0 480.9,183.0 497.1,183.0 513.3,183.0 529.5,183.0 545.7,183.0 561.9,183.0 578.1,183.0 594.3,183.0 610.5,183.0 626.7,183.0 642.9,183.0 659.1,183.0 675.3,183.0 691.6,183.0 707.8,183.0 724.0,183.0 740.2,183.0 756.4,183.0 772.6,183.0 788.8,183.0 805.0,183.0 821.2,183.0 837.4,183.0 853.6,183.0 869.8,183.0 886.0,183.0" fill="none" stroke="#2563eb" stroke-width="2.2"/>
<circle cx="92.0" cy="183.0" r="2.5" fill="#1d4ed8"/>
<circle cx="237.8" cy="183.0" r="2.5" fill="#1d4ed8"/>
<circle cx="399.9" cy="183.0" r="2.5" fill="#1d4ed8"/>
<circle cx="561.9" cy="183.0" r="2.5" fill="#1d4ed8"/>
<circle cx="724.0" cy="183.0" r="2.5" fill="#1d4ed8"/>
<circle cx="886.0" cy="183.0" r="2.5" fill="#1d4ed8"/>
</g>
<g transform="translate(0,2205)">
<text x="92" y="26" font-size="15" font-weight="700">Actor Entropy</text>
<text x="886" y="26" text-anchor="end" font-size="12" fill="#555">actor/entropy; last=0.008</text>
<rect x="92" y="50" width="794" height="133" fill="#fbfbfb" stroke="#ddd"/>
<line x1="92" y1="183" x2="886" y2="183" stroke="#666"/>
<line x1="92" y1="50" x2="92" y2="183" stroke="#666"/>
<line x1="92.0" y1="183" x2="92.0" y2="188" stroke="#666"/>
<text x="92.0" y="205" text-anchor="middle" font-size="11" fill="#444">1</text>
<line x1="250.8" y1="183" x2="250.8" y2="188" stroke="#666"/>
<text x="250.8" y="205" text-anchor="middle" font-size="11" fill="#444">10.8</text>
<line x1="409.6" y1="183" x2="409.6" y2="188" stroke="#666"/>
<text x="409.6" y="205" text-anchor="middle" font-size="11" fill="#444">20.6</text>
<line x1="568.4" y1="183" x2="568.4" y2="188" stroke="#666"/>
<text x="568.4" y="205" text-anchor="middle" font-size="11" fill="#444">30.4</text>
<line x1="727.2" y1="183" x2="727.2" y2="188" stroke="#666"/>
<text x="727.2" y="205" text-anchor="middle" font-size="11" fill="#444">40.2</text>
<line x1="886.0" y1="183" x2="886.0" y2="188" stroke="#666"/>
<text x="886.0" y="205" text-anchor="middle" font-size="11" fill="#444">50</text>
<line x1="87" y1="183.0" x2="92" y2="183.0" stroke="#666"/>
<text x="83" y="187.0" text-anchor="end" font-size="11" fill="#444">0.002</text>
<line x1="87" y1="149.8" x2="92" y2="149.8" stroke="#666"/>
<text x="83" y="153.8" text-anchor="end" font-size="11" fill="#444">0.01</text>
<line x1="87" y1="116.5" x2="92" y2="116.5" stroke="#666"/>
<text x="83" y="120.5" text-anchor="end" font-size="11" fill="#444">0.018</text>
<line x1="87" y1="83.2" x2="92" y2="83.2" stroke="#666"/>
<text x="83" y="87.2" text-anchor="end" font-size="11" fill="#444">0.026</text>
<line x1="87" y1="50.0" x2="92" y2="50.0" stroke="#666"/>
<text x="83" y="54.0" text-anchor="end" font-size="11" fill="#444">0.034</text>
<text x="489.0" y="227" text-anchor="middle" font-size="12" fill="#333">x-axis: training step</text>
<text x="18" y="116.5" text-anchor="middle" font-size="12" fill="#333" transform="rotate(-90 18 116.5)">y-axis: entropy</text>
<polyline points="92.0,99.4 108.2,178.6 124.4,147.7 140.6,130.0 156.8,95.6 173.0,146.8 189.2,61.2 205.4,105.5 221.6,140.9 237.8,109.4 254.0,164.9 270.2,139.1 286.4,114.6 302.7,104.5 318.9,106.7 335.1,103.3 351.3,63.8 367.5,121.7 383.7,138.0 399.9,150.0 416.1,91.2 432.3,119.8 448.5,89.5 464.7,183.0 480.9,131.7 497.1,117.3 513.3,50.0 529.5,94.6 545.7,115.6 561.9,94.3 578.1,120.7 594.3,96.2 610.5,130.8 626.7,108.4 642.9,174.8 659.1,115.6 675.3,104.6 691.6,148.5 707.8,97.7 724.0,117.8 740.2,145.1 756.4,130.8 772.6,165.7 788.8,69.5 805.0,58.8 821.2,141.7 837.4,145.5 853.6,146.8 869.8,147.3 886.0,158.5" fill="none" stroke="#2563eb" stroke-width="2.2"/>
<circle cx="92.0" cy="99.4" r="2.5" fill="#1d4ed8"/>
<circle cx="237.8" cy="109.4" r="2.5" fill="#1d4ed8"/>
<circle cx="399.9" cy="150.0" r="2.5" fill="#1d4ed8"/>
<circle cx="561.9" cy="94.3" r="2.5" fill="#1d4ed8"/>
<circle cx="724.0" cy="117.8" r="2.5" fill="#1d4ed8"/>
<circle cx="886.0" cy="158.5" r="2.5" fill="#1d4ed8"/>
</g>
<g transform="translate(0,2450)">
<text x="92" y="26" font-size="15" font-weight="700">Throughput</text>
<text x="886" y="26" text-anchor="end" font-size="12" fill="#555">perf/throughput; last=3.21</text>
<rect x="92" y="50" width="794" height="133" fill="#fbfbfb" stroke="#ddd"/>
<line x1="92" y1="183" x2="886" y2="183" stroke="#666"/>
<line x1="92" y1="50" x2="92" y2="183" stroke="#666"/>
<line x1="92.0" y1="183" x2="92.0" y2="188" stroke="#666"/>
<text x="92.0" y="205" text-anchor="middle" font-size="11" fill="#444">1</text>
<line x1="250.8" y1="183" x2="250.8" y2="188" stroke="#666"/>
<text x="250.8" y="205" text-anchor="middle" font-size="11" fill="#444">10.8</text>
<line x1="409.6" y1="183" x2="409.6" y2="188" stroke="#666"/>
<text x="409.6" y="205" text-anchor="middle" font-size="11" fill="#444">20.6</text>
<line x1="568.4" y1="183" x2="568.4" y2="188" stroke="#666"/>
<text x="568.4" y="205" text-anchor="middle" font-size="11" fill="#444">30.4</text>
<line x1="727.2" y1="183" x2="727.2" y2="188" stroke="#666"/>
<text x="727.2" y="205" text-anchor="middle" font-size="11" fill="#444">40.2</text>
<line x1="886.0" y1="183" x2="886.0" y2="188" stroke="#666"/>
<text x="886.0" y="205" text-anchor="middle" font-size="11" fill="#444">50</text>
<line x1="87" y1="183.0" x2="92" y2="183.0" stroke="#666"/>
<text x="83" y="187.0" text-anchor="end" font-size="11" fill="#444">3.21</text>
<line x1="87" y1="149.8" x2="92" y2="149.8" stroke="#666"/>
<text x="83" y="153.8" text-anchor="end" font-size="11" fill="#444">4.88</text>
<line x1="87" y1="116.5" x2="92" y2="116.5" stroke="#666"/>
<text x="83" y="120.5" text-anchor="end" font-size="11" fill="#444">6.54</text>
<line x1="87" y1="83.3" x2="92" y2="83.3" stroke="#666"/>
<text x="83" y="87.3" text-anchor="end" font-size="11" fill="#444">8.21</text>
<line x1="87" y1="50.0" x2="92" y2="50.0" stroke="#666"/>
<text x="83" y="54.0" text-anchor="end" font-size="11" fill="#444">9.87</text>
<text x="489.0" y="227" text-anchor="middle" font-size="12" fill="#333">x-axis: training step</text>
<text x="18" y="116.5" text-anchor="middle" font-size="12" fill="#333" transform="rotate(-90 18 116.5)">y-axis: tokens/sec</text>
<polyline points="92.0,112.2 108.2,82.1 124.4,105.8 140.6,79.2 156.8,76.2 173.0,101.7 189.2,70.1 205.4,81.3 221.6,117.1 237.8,87.2 254.0,90.7 270.2,50.0 286.4,55.9 302.7,94.0 318.9,68.9 335.1,77.1 351.3,86.5 367.5,90.9 383.7,75.7 399.9,67.3 416.1,78.8 432.3,114.2 448.5,74.8 464.7,97.0 480.9,86.8 497.1,81.5 513.3,77.4 529.5,97.2 545.7,61.5 561.9,69.1 578.1,91.8 594.3,65.7 610.5,72.7 626.7,54.8 642.9,67.9 659.1,61.7 675.3,87.1 691.6,88.0 707.8,55.8 724.0,91.6 740.2,82.0 756.4,70.9 772.6,76.5 788.8,89.8 805.0,69.9 821.2,74.8 837.4,75.8 853.6,60.7 869.8,78.5 886.0,183.0" fill="none" stroke="#2563eb" stroke-width="2.2"/>
<circle cx="92.0" cy="112.2" r="2.5" fill="#1d4ed8"/>
<circle cx="237.8" cy="87.2" r="2.5" fill="#1d4ed8"/>
<circle cx="399.9" cy="67.3" r="2.5" fill="#1d4ed8"/>
<circle cx="561.9" cy="69.1" r="2.5" fill="#1d4ed8"/>
<circle cx="724.0" cy="91.6" r="2.5" fill="#1d4ed8"/>
<circle cx="886.0" cy="183.0" r="2.5" fill="#1d4ed8"/>
</g>
</svg>