<svg xmlns="http://www.w3.org/2000/svg" width="860" height="3910" font-family="Arial, sans-serif">
<rect width="100%" height="100%" fill="white"/>
<g transform="translate(0,0)">
<text x="82" y="24" font-size="14" font-weight="700">actor/entropy</text>
<rect x="82" y="46" width="748" height="130" fill="#fafafa" stroke="#ddd"/>
<text x="830" y="24" text-anchor="end" font-size="12" fill="#555">min=0.007924 max=0.06033 last=0.02287</text>
<line x1="830" y1="176" x2="82" y2="176" stroke="#777"/>
<line x1="82" y1="176" x2="82" y2="46" stroke="#777"/>
<line x1="82.0" y1="176" x2="82.0" y2="181" stroke="#777"/>
<text x="82.0" y="196" text-anchor="middle" font-size="11" fill="#555">1</text>
<line x1="269.0" y1="176" x2="269.0" y2="181" stroke="#777"/>
<text x="269.0" y="196" text-anchor="middle" font-size="11" fill="#555">10.8</text>
<line x1="456.0" y1="176" x2="456.0" y2="181" stroke="#777"/>
<text x="456.0" y="196" text-anchor="middle" font-size="11" fill="#555">20.5</text>
<line x1="643.0" y1="176" x2="643.0" y2="181" stroke="#777"/>
<text x="643.0" y="196" text-anchor="middle" font-size="11" fill="#555">30.2</text>
<line x1="830.0" y1="176" x2="830.0" y2="181" stroke="#777"/>
<text x="830.0" y="196" text-anchor="middle" font-size="11" fill="#555">40</text>
<line x1="77" y1="176.0" x2="82" y2="176.0" stroke="#777"/>
<text x="73" y="180.0" text-anchor="end" font-size="11" fill="#555">0.00792</text>
<line x1="77" y1="132.7" x2="82" y2="132.7" stroke="#777"/>
<text x="73" y="136.7" text-anchor="end" font-size="11" fill="#555">0.0254</text>
<line x1="77" y1="89.3" x2="82" y2="89.3" stroke="#777"/>
<text x="73" y="93.3" text-anchor="end" font-size="11" fill="#555">0.0429</text>
<line x1="77" y1="46.0" x2="82" y2="46.0" stroke="#777"/>
<text x="73" y="50.0" text-anchor="end" font-size="11" fill="#555">0.0603</text>
<text x="456.0" y="218" text-anchor="middle" font-size="12" fill="#444">training step</text>
<text x="16" y="111.0" text-anchor="middle" font-size="12" fill="#444" transform="rotate(-90 16 111.0)">metric value</text>
<polyline points="82.0,141.4 101.2,162.0 120.4,129.1 139.5,155.8 158.7,157.0 177.9,147.7 197.1,176.0 216.3,142.5 235.4,158.7 254.6,136.7 273.8,151.7 293.0,152.5 312.2,95.3 331.3,140.6 350.5,153.5 369.7,156.2 388.9,153.4 408.1,153.9 427.2,156.7 446.4,152.6 465.6,134.6 484.8,155.0 503.9,143.2 523.1,153.2 542.3,156.5 561.5,144.8 580.7,171.3 599.8,129.1 619.0,127.5 638.2,149.9 657.4,157.7 676.6,136.4 695.7,46.0 714.9,166.0 734.1,126.9 753.3,67.4 772.5,143.2 791.6,152.1 810.8,166.4 830.0,138.9" fill="none" stroke="#2563eb" stroke-width="2"/>
</g>
<g transform="translate(0,230)">
<text x="82" y="24" font-size="14" font-weight="700">actor/grad_norm</text>
<rect x="82" y="46" width="748" height="130" fill="#fafafa" stroke="#ddd"/>
<text x="830" y="24" text-anchor="end" font-size="12" fill="#555">min=0 max=7.46 last=2.599</text>
<line x1="830" y1="176" x2="82" y2="176" stroke="#777"/>
<line x1="82" y1="176" x2="82" y2="46" stroke="#777"/>
<line x1="82.0" y1="176" x2="82.0" y2="181" stroke="#777"/>
<text x="82.0" y="196" text-anchor="middle" font-size="11" fill="#555">1</text>
<line x1="269.0" y1="176" x2="269.0" y2="181" stroke="#777"/>
<text x="269.0" y="196" text-anchor="middle" font-size="11" fill="#555">10.8</text>
<line x1="456.0" y1="176" x2="456.0" y2="181" stroke="#777"/>
<text x="456.0" y="196" text-anchor="middle" font-size="11" fill="#555">20.5</text>
<line x1="643.0" y1="176" x2="643.0" y2="181" stroke="#777"/>
<text x="643.0" y="196" text-anchor="middle" font-size="11" fill="#555">30.2</text>
<line x1="830.0" y1="176" x2="830.0" y2="181" stroke="#777"/>
<text x="830.0" y="196" text-anchor="middle" font-size="11" fill="#555">40</text>
<line x1="77" y1="176.0" x2="82" y2="176.0" stroke="#777"/>
<text x="73" y="180.0" text-anchor="end" font-size="11" fill="#555">0</text>
<line x1="77" y1="132.7" x2="82" y2="132.7" stroke="#777"/>
<text x="73" y="136.7" text-anchor="end" font-size="11" fill="#555">2.49</text>
<line x1="77" y1="89.3" x2="82" y2="89.3" stroke="#777"/>
<text x="73" y="93.3" text-anchor="end" font-size="11" fill="#555">4.97</text>
<line x1="77" y1="46.0" x2="82" y2="46.0" stroke="#777"/>
<text x="73" y="50.0" text-anchor="end" font-size="11" fill="#555">7.46</text>
<text x="456.0" y="218" text-anchor="middle" font-size="12" fill="#444">training step</text>
<text x="16" y="111.0" text-anchor="middle" font-size="12" fill="#444" transform="rotate(-90 16 111.0)">metric value</text>
<polyline points="82.0,151.8 101.2,111.7 120.4,136.1 139.5,135.8 158.7,147.4 177.9,114.2 197.1,176.0 216.3,133.3 235.4,146.8 254.6,81.3 273.8,123.3 293.0,46.0 312.2,156.3 331.3,134.4 350.5,117.1 369.7,136.3 388.9,149.3 408.1,176.0 427.2,63.4 446.4,102.3 465.6,176.0 484.8,130.3 503.9,129.9 523.1,176.0 542.3,137.8 561.5,176.0 580.7,136.5 599.8,76.0 619.0,122.3 638.2,139.4 657.4,176.0 676.6,143.3 695.7,176.0 714.9,113.5 734.1,144.4 753.3,143.3 772.5,140.4 791.6,132.3 810.8,119.8 830.0,130.7" fill="none" stroke="#2563eb" stroke-width="2"/>
</g>
<g transform="translate(0,460)">
<text x="82" y="24" font-size="14" font-weight="700">actor/loss</text>
<rect x="82" y="46" width="748" height="130" fill="#fafafa" stroke="#ddd"/>
<text x="830" y="24" text-anchor="end" font-size="12" fill="#555">min=-0.07354 max=0.6415 last=-0.006142</text>
<line x1="830" y1="176" x2="82" y2="176" stroke="#777"/>
<line x1="82" y1="176" x2="82" y2="46" stroke="#777"/>
<line x1="82.0" y1="176" x2="82.0" y2="181" stroke="#777"/>
<text x="82.0" y="196" text-anchor="middle" font-size="11" fill="#555">1</text>
<line x1="269.0" y1="176" x2="269.0" y2="181" stroke="#777"/>
<text x="269.0" y="196" text-anchor="middle" font-size="11" fill="#555">10.8</text>
<line x1="456.0" y1="176" x2="456.0" y2="181" stroke="#777"/>
<text x="456.0" y="196" text-anchor="middle" font-size="11" fill="#555">20.5</text>
<line x1="643.0" y1="176" x2="643.0" y2="181" stroke="#777"/>
<text x="643.0" y="196" text-anchor="middle" font-size="11" fill="#555">30.2</text>
<line x1="830.0" y1="176" x2="830.0" y2="181" stroke="#777"/>
<text x="830.0" y="196" text-anchor="middle" font-size="11" fill="#555">40</text>
<line x1="77" y1="176.0" x2="82" y2="176.0" stroke="#777"/>
<text x="73" y="180.0" text-anchor="end" font-size="11" fill="#555">-0.0735</text>
<line x1="77" y1="132.7" x2="82" y2="132.7" stroke="#777"/>
<text x="73" y="136.7" text-anchor="end" font-size="11" fill="#555">0.165</text>
<line x1="77" y1="89.3" x2="82" y2="89.3" stroke="#777"/>
<text x="73" y="93.3" text-anchor="end" font-size="11" fill="#555">0.403</text>
<line x1="77" y1="46.0" x2="82" y2="46.0" stroke="#777"/>
<text x="73" y="50.0" text-anchor="end" font-size="11" fill="#555">0.642</text>
<text x="456.0" y="218" text-anchor="middle" font-size="12" fill="#444">training step</text>
<text x="16" y="111.0" text-anchor="middle" font-size="12" fill="#444" transform="rotate(-90 16 111.0)">metric value</text>
<polyline points="82.0,100.9 101.2,173.3 120.4,162.2 139.5,46.0 158.7,72.6 177.9,176.0 197.1,162.6 216.3,171.8 235.4,160.1 254.6,160.8 273.8,167.4 293.0,154.4 312.2,118.1 331.3,163.0 350.5,159.8 369.7,158.3 388.9,163.8 408.1,162.6 427.2,63.5 446.4,159.3 465.6,162.6 484.8,160.9 503.9,162.2 523.1,162.6 542.3,169.2 561.5,162.6 580.7,155.6 599.8,156.5 619.0,138.5 638.2,162.6 657.4,162.6 676.6,165.2 695.7,162.6 714.9,170.2 734.1,100.4 753.3,113.6 772.5,167.6 791.6,159.4 810.8,161.3 830.0,163.7" fill="none" stroke="#2563eb" stroke-width="2"/>
</g>
<g transform="translate(0,690)">
<text x="82" y="24" font-size="14" font-weight="700">actor/pg_clipfrac</text>
<rect x="82" y="46" width="748" height="130" fill="#fafafa" stroke="#ddd"/>
<text x="830" y="24" text-anchor="end" font-size="12" fill="#555">min=-0.5 max=0.5 last=0</text>
<line x1="830" y1="176" x2="82" y2="176" stroke="#777"/>
<line x1="82" y1="176" x2="82" y2="46" stroke="#777"/>
<line x1="82.0" y1="176" x2="82.0" y2="181" stroke="#777"/>
<text x="82.0" y="196" text-anchor="middle" font-size="11" fill="#555">1</text>
<line x1="269.0" y1="176" x2="269.0" y2="181" stroke="#777"/>
<text x="269.0" y="196" text-anchor="middle" font-size="11" fill="#555">10.8</text>
<line x1="456.0" y1="176" x2="456.0" y2="181" stroke="#777"/>
<text x="456.0" y="196" text-anchor="middle" font-size="11" fill="#555">20.5</text>
<line x1="643.0" y1="176" x2="643.0" y2="181" stroke="#777"/>
<text x="643.0" y="196" text-anchor="middle" font-size="11" fill="#555">30.2</text>
<line x1="830.0" y1="176" x2="830.0" y2="181" stroke="#777"/>
<text x="830.0" y="196" text-anchor="middle" font-size="11" fill="#555">40</text>
<line x1="77" y1="176.0" x2="82" y2="176.0" stroke="#777"/>
<text x="73" y="180.0" text-anchor="end" font-size="11" fill="#555">-0.5</text>
<line x1="77" y1="132.7" x2="82" y2="132.7" stroke="#777"/>
<text x="73" y="136.7" text-anchor="end" font-size="11" fill="#555">-0.167</text>
<line x1="77" y1="89.3" x2="82" y2="89.3" stroke="#777"/>
<text x="73" y="93.3" text-anchor="end" font-size="11" fill="#555">0.167</text>
<line x1="77" y1="46.0" x2="82" y2="46.0" stroke="#777"/>
<text x="73" y="50.0" text-anchor="end" font-size="11" fill="#555">0.5</text>
<text x="456.0" y="218" text-anchor="middle" font-size="12" fill="#444">training step</text>
<text x="16" y="111.0" text-anchor="middle" font-size="12" fill="#444" transform="rotate(-90 16 111.0)">metric value</text>
<polyline points="82.0,111.0 101.2,111.0 120.4,111.0 139.5,111.0 158.7,111.0 177.9,111.0 197.1,111.0 216.3,111.0 235.4,111.0 254.6,111.0 273.8,111.0 293.0,111.0 312.2,111.0 331.3,111.0 350.5,111.0 369.7,111.0 388.9,111.0 408.1,111.0 427.2,111.0 446.4,111.0 465.6,111.0 484.8,111.0 503.9,111.0 523.1,111.0 542.3,111.0 561.5,111.0 580.7,111.0 599.8,111.0 619.0,111.0 638.2,111.0 657.4,111.0 676.6,111.0 695.7,111.0 714.9,111.0 734.1,111.0 753.3,111.0 772.5,111.0 791.6,111.0 810.8,111.0 830.0,111.0" fill="none" stroke="#2563eb" stroke-width="2"/>
</g>
<g transform="translate(0,920)">
<text x="82" y="24" font-size="14" font-weight="700">actor/pg_clipfrac_lower</text>
<rect x="82" y="46" width="748" height="130" fill="#fafafa" stroke="#ddd"/>
<text x="830" y="24" text-anchor="end" font-size="12" fill="#555">min=-0.5 max=0.5 last=0</text>
<line x1="830" y1="176" x2="82" y2="176" stroke="#777"/>
<line x1="82" y1="176" x2="82" y2="46" stroke="#777"/>
<line x1="82.0" y1="176" x2="82.0" y2="181" stroke="#777"/>
<text x="82.0" y="196" text-anchor="middle" font-size="11" fill="#555">1</text>
<line x1="269.0" y1="176" x2="269.0" y2="181" stroke="#777"/>
<text x="269.0" y="196" text-anchor="middle" font-size="11" fill="#555">10.8</text>
<line x1="456.0" y1="176" x2="456.0" y2="181" stroke="#777"/>
<text x="456.0" y="196" text-anchor="middle" font-size="11" fill="#555">20.5</text>
<line x1="643.0" y1="176" x2="643.0" y2="181" stroke="#777"/>
<text x="643.0" y="196" text-anchor="middle" font-size="11" fill="#555">30.2</text>
<line x1="830.0" y1="176" x2="830.0" y2="181" stroke="#777"/>
<text x="830.0" y="196" text-anchor="middle" font-size="11" fill="#555">40</text>
<line x1="77" y1="176.0" x2="82" y2="176.0" stroke="#777"/>
<text x="73" y="180.0" text-anchor="end" font-size="11" fill="#555">-0.5</text>
<line x1="77" y1="132.7" x2="82" y2="132.7" stroke="#777"/>
<text x="73" y="136.7" text-anchor="end" font-size="11" fill="#555">-0.167</text>
<line x1="77" y1="89.3" x2="82" y2="89.3" stroke="#777"/>
<text x="73" y="93.3" text-anchor="end" font-size="11" fill="#555">0.167</text>
<line x1="77" y1="46.0" x2="82" y2="46.0" stroke="#777"/>
<text x="73" y="50.0" text-anchor="end" font-size="11" fill="#555">0.5</text>
<text x="456.0" y="218" text-anchor="middle" font-size="12" fill="#444">training step</text>
<text x="16" y="111.0" text-anchor="middle" font-size="12" fill="#444" transform="rotate(-90 16 111.0)">metric value</text>
<polyline points="82.0,111.0 101.2,111.0 120.4,111.0 139.5,111.0 158.7,111.0 177.9,111.0 197.1,111.0 216.3,111.0 235.4,111.0 254.6,111.0 273.8,111.0 293.0,111.0 312.2,111.0 331.3,111.0 350.5,111.0 369.7,111.0 388.9,111.0 408.1,111.0 427.2,111.0 446.4,111.0 465.6,111.0 484.8,111.0 503.9,111.0 523.1,111.0 542.3,111.0 561.5,111.0 580.7,111.0 599.8,111.0 619.0,111.0 638.2,111.0 657.4,111.0 676.6,111.0 695.7,111.0 714.9,111.0 734.1,111.0 753.3,111.0 772.5,111.0 791.6,111.0 810.8,111.0 830.0,111.0" fill="none" stroke="#2563eb" stroke-width="2"/>
</g>
<g transform="translate(0,1150)">
<text x="82" y="24" font-size="14" font-weight="700">critic/advantages/max</text>
<rect x="82" y="46" width="748" height="130" fill="#fafafa" stroke="#ddd"/>
<text x="830" y="24" text-anchor="end" font-size="12" fill="#555">min=0 max=1.5 last=1.011</text>
<line x1="830" y1="176" x2="82" y2="176" stroke="#777"/>
<line x1="82" y1="176" x2="82" y2="46" stroke="#777"/>
<line x1="82.0" y1="176" x2="82.0" y2="181" stroke="#777"/>
<text x="82.0" y="196" text-anchor="middle" font-size="11" fill="#555">1</text>
<line x1="269.0" y1="176" x2="269.0" y2="181" stroke="#777"/>
<text x="269.0" y="196" text-anchor="middle" font-size="11" fill="#555">10.8</text>
<line x1="456.0" y1="176" x2="456.0" y2="181" stroke="#777"/>
<text x="456.0" y="196" text-anchor="middle" font-size="11" fill="#555">20.5</text>
<line x1="643.0" y1="176" x2="643.0" y2="181" stroke="#777"/>
<text x="643.0" y="196" text-anchor="middle" font-size="11" fill="#555">30.2</text>
<line x1="830.0" y1="176" x2="830.0" y2="181" stroke="#777"/>
<text x="830.0" y="196" text-anchor="middle" font-size="11" fill="#555">40</text>
<line x1="77" y1="176.0" x2="82" y2="176.0" stroke="#777"/>
<text x="73" y="180.0" text-anchor="end" font-size="11" fill="#555">0</text>
<line x1="77" y1="132.7" x2="82" y2="132.7" stroke="#777"/>
<text x="73" y="136.7" text-anchor="end" font-size="11" fill="#555">0.5</text>
<line x1="77" y1="89.3" x2="82" y2="89.3" stroke="#777"/>
<text x="73" y="93.3" text-anchor="end" font-size="11" fill="#555">1</text>
<line x1="77" y1="46.0" x2="82" y2="46.0" stroke="#777"/>
<text x="73" y="50.0" text-anchor="end" font-size="11" fill="#555">1.5</text>
<text x="456.0" y="218" text-anchor="middle" font-size="12" fill="#444">training step</text>
<text x="16" y="111.0" text-anchor="middle" font-size="12" fill="#444" transform="rotate(-90 16 111.0)">metric value</text>
<polyline points="82.0,100.9 101.2,100.9 120.4,62.6 139.5,99.2 158.7,46.0 177.9,46.0 197.1,176.0 216.3,46.0 235.4,131.5 254.6,132.7 273.8,53.0 293.0,46.2 312.2,46.0 331.3,100.9 350.5,121.1 369.7,123.9 388.9,46.1 408.1,176.0 427.2,100.9 446.4,48.1 465.6,176.0 484.8,46.0 503.9,46.0 523.1,176.0 542.3,46.0 561.5,176.0 580.7,47.9 599.8,131.3 619.0,98.6 638.2,46.0 657.4,176.0 676.6,127.2 695.7,176.0 714.9,46.0 734.1,60.5 753.3,132.7 772.5,46.2 791.6,46.0 810.8,100.9 830.0,88.4" fill="none" stroke="#2563eb" stroke-width="2"/>
</g>
<g transform="translate(0,1380)">
<text x="82" y="24" font-size="14" font-weight="700">critic/advantages/mean</text>
<rect x="82" y="46" width="748" height="130" fill="#fafafa" stroke="#ddd"/>
<text x="830" y="24" text-anchor="end" font-size="12" fill="#555">min=-0.6415 max=0.07354 last=0.006142</text>
<line x1="830" y1="176" x2="82" y2="176" stroke="#777"/>
<line x1="82" y1="176" x2="82" y2="46" stroke="#777"/>
<line x1="82.0" y1="176" x2="82.0" y2="181" stroke="#777"/>
<text x="82.0" y="196" text-anchor="middle" font-size="11" fill="#555">1</text>
<line x1="269.0" y1="176" x2="269.0" y2="181" stroke="#777"/>
<text x="269.0" y="196" text-anchor="middle" font-size="11" fill="#555">10.8</text>
<line x1="456.0" y1="176" x2="456.0" y2="181" stroke="#777"/>
<text x="456.0" y="196" text-anchor="middle" font-size="11" fill="#555">20.5</text>
<line x1="643.0" y1="176" x2="643.0" y2="181" stroke="#777"/>
<text x="643.0" y="196" text-anchor="middle" font-size="11" fill="#555">30.2</text>
<line x1="830.0" y1="176" x2="830.0" y2="181" stroke="#777"/>
<text x="830.0" y="196" text-anchor="middle" font-size="11" fill="#555">40</text>
<line x1="77" y1="176.0" x2="82" y2="176.0" stroke="#777"/>
<text x="73" y="180.0" text-anchor="end" font-size="11" fill="#555">-0.642</text>
<line x1="77" y1="132.7" x2="82" y2="132.7" stroke="#777"/>
<text x="73" y="136.7" text-anchor="end" font-size="11" fill="#555">-0.403</text>
<line x1="77" y1="89.3" x2="82" y2="89.3" stroke="#777"/>
<text x="73" y="93.3" text-anchor="end" font-size="11" fill="#555">-0.165</text>
<line x1="77" y1="46.0" x2="82" y2="46.0" stroke="#777"/>
<text x="73" y="50.0" text-anchor="end" font-size="11" fill="#555">0.0735</text>
<text x="456.0" y="218" text-anchor="middle" font-size="12" fill="#444">training step</text>
<text x="16" y="111.0" text-anchor="middle" font-size="12" fill="#444" transform="rotate(-90 16 111.0)">metric value</text>
<polyline points="82.0,121.1 101.2,48.7 120.4,59.8 139.5,176.0 158.7,149.4 177.9,46.0 197.1,59.4 216.3,50.2 235.4,61.9 254.6,61.2 273.8,54.6 293.0,67.6 312.2,103.9 331.3,59.0 350.5,62.2 369.7,63.7 388.9,58.2 408.1,59.4 427.2,158.5 446.4,62.7 465.6,59.4 484.8,61.1 503.9,59.8 523.1,59.4 542.3,52.8 561.5,59.4 580.7,66.4 599.8,65.5 619.0,83.5 638.2,59.4 657.4,59.4 676.6,56.8 695.7,59.4 714.9,51.8 734.1,121.6 753.3,108.4 772.5,54.4 791.6,62.6 810.8,60.7 830.0,58.3" fill="none" stroke="#2563eb" stroke-width="2"/>
</g>
<g transform="translate(0,1610)">
<text x="82" y="24" font-size="14" font-weight="700">critic/advantages/min</text>
<rect x="82" y="46" width="748" height="130" fill="#fafafa" stroke="#ddd"/>
<text x="830" y="24" text-anchor="end" font-size="12" fill="#555">min=-1.5 max=0 last=-1.5</text>
<line x1="830" y1="176" x2="82" y2="176" stroke="#777"/>
<line x1="82" y1="176" x2="82" y2="46" stroke="#777"/>
<line x1="82.0" y1="176" x2="82.0" y2="181" stroke="#777"/>
<text x="82.0" y="196" text-anchor="middle" font-size="11" fill="#555">1</text>
<line x1="269.0" y1="176" x2="269.0" y2="181" stroke="#777"/>
<text x="269.0" y="196" text-anchor="middle" font-size="11" fill="#555">10.8</text>
<line x1="456.0" y1="176" x2="456.0" y2="181" stroke="#777"/>
<text x="456.0" y="196" text-anchor="middle" font-size="11" fill="#555">20.5</text>
<line x1="643.0" y1="176" x2="643.0" y2="181" stroke="#777"/>
<text x="643.0" y="196" text-anchor="middle" font-size="11" fill="#555">30.2</text>
<line x1="830.0" y1="176" x2="830.0" y2="181" stroke="#777"/>
<text x="830.0" y="196" text-anchor="middle" font-size="11" fill="#555">40</text>
<line x1="77" y1="176.0" x2="82" y2="176.0" stroke="#777"/>
<text x="73" y="180.0" text-anchor="end" font-size="11" fill="#555">-1.5</text>
<line x1="77" y1="132.7" x2="82" y2="132.7" stroke="#777"/>
<text x="73" y="136.7" text-anchor="end" font-size="11" fill="#555">-1</text>
<line x1="77" y1="89.3" x2="82" y2="89.3" stroke="#777"/>
<text x="73" y="93.3" text-anchor="end" font-size="11" fill="#555">-0.5</text>
<line x1="77" y1="46.0" x2="82" y2="46.0" stroke="#777"/>
<text x="73" y="50.0" text-anchor="end" font-size="11" fill="#555">0</text>
<text x="456.0" y="218" text-anchor="middle" font-size="12" fill="#444">training step</text>
<text x="16" y="111.0" text-anchor="middle" font-size="12" fill="#444" transform="rotate(-90 16 111.0)">metric value</text>
<polyline points="82.0,135.5 101.2,121.1 120.4,176.0 139.5,176.0 158.7,176.0 177.9,121.0 197.1,46.0 216.3,176.0 235.4,176.0 254.6,176.0 273.8,106.8 293.0,176.0 312.2,89.3 331.3,175.9 350.5,175.4 369.7,174.5 388.9,89.3 408.1,46.0 427.2,156.9 446.4,169.4 465.6,46.0 484.8,175.8 503.9,176.0 523.1,46.0 542.3,89.3 561.5,46.0 580.7,121.1 599.8,176.0 619.0,121.0 638.2,89.3 657.4,46.0 676.6,175.9 695.7,46.0 714.9,171.0 734.1,113.9 753.3,176.0 772.5,94.0 791.6,89.3 810.8,121.1 830.0,176.0" fill="none" stroke="#2563eb" stroke-width="2"/>
</g>
<g transform="translate(0,1840)">
<text x="82" y="24" font-size="14" font-weight="700">critic/score/max</text>
<rect x="82" y="46" width="748" height="130" fill="#fafafa" stroke="#ddd"/>
<text x="830" y="24" text-anchor="end" font-size="12" fill="#555">min=0.9389 max=0.97 last=0.97</text>
<line x1="830" y1="176" x2="82" y2="176" stroke="#777"/>
<line x1="82" y1="176" x2="82" y2="46" stroke="#777"/>
<line x1="82.0" y1="176" x2="82.0" y2="181" stroke="#777"/>
<text x="82.0" y="196" text-anchor="middle" font-size="11" fill="#555">1</text>
<line x1="269.0" y1="176" x2="269.0" y2="181" stroke="#777"/>
<text x="269.0" y="196" text-anchor="middle" font-size="11" fill="#555">10.8</text>
<line x1="456.0" y1="176" x2="456.0" y2="181" stroke="#777"/>
<text x="456.0" y="196" text-anchor="middle" font-size="11" fill="#555">20.5</text>
<line x1="643.0" y1="176" x2="643.0" y2="181" stroke="#777"/>
<text x="643.0" y="196" text-anchor="middle" font-size="11" fill="#555">30.2</text>
<line x1="830.0" y1="176" x2="830.0" y2="181" stroke="#777"/>
<text x="830.0" y="196" text-anchor="middle" font-size="11" fill="#555">40</text>
<line x1="77" y1="176.0" x2="82" y2="176.0" stroke="#777"/>
<text x="73" y="180.0" text-anchor="end" font-size="11" fill="#555">0.939</text>
<line x1="77" y1="132.7" x2="82" y2="132.7" stroke="#777"/>
<text x="73" y="136.7" text-anchor="end" font-size="11" fill="#555">0.949</text>
<line x1="77" y1="89.3" x2="82" y2="89.3" stroke="#777"/>
<text x="73" y="93.3" text-anchor="end" font-size="11" fill="#555">0.96</text>
<line x1="77" y1="46.0" x2="82" y2="46.0" stroke="#777"/>
<text x="73" y="50.0" text-anchor="end" font-size="11" fill="#555">0.97</text>
<text x="456.0" y="218" text-anchor="middle" font-size="12" fill="#444">training step</text>
<text x="16" y="111.0" text-anchor="middle" font-size="12" fill="#444" transform="rotate(-90 16 111.0)">metric value</text>
<polyline points="82.0,46.0 101.2,176.0 120.4,46.0 139.5,46.0 158.7,46.0 177.9,135.3 197.1,46.0 216.3,46.0 235.4,46.0 254.6,46.0 273.8,46.0 293.0,46.0 312.2,46.0 331.3,46.0 350.5,46.0 369.7,46.0 388.9,46.0 408.1,46.0 427.2,46.0 446.4,46.0 465.6,46.0 484.8,46.0 503.9,46.0 523.1,46.0 542.3,46.0 561.5,46.0 580.7,46.0 599.8,46.0 619.0,46.0 638.2,46.0 657.4,46.0 676.6,46.0 695.7,46.0 714.9,46.0 734.1,46.0 753.3,46.0 772.5,46.0 791.6,46.0 810.8,46.0 830.0,46.0" fill="none" stroke="#2563eb" stroke-width="2"/>
</g>
<g transform="translate(0,2070)">
<text x="82" y="24" font-size="14" font-weight="700">critic/score/mean</text>
<rect x="82" y="46" width="748" height="130" fill="#fafafa" stroke="#ddd"/>
<text x="830" y="24" text-anchor="end" font-size="12" fill="#555">min=0.438 max=0.97 last=0.8926</text>
<line x1="830" y1="176" x2="82" y2="176" stroke="#777"/>
<line x1="82" y1="176" x2="82" y2="46" stroke="#777"/>
<line x1="82.0" y1="176" x2="82.0" y2="181" stroke="#777"/>
<text x="82.0" y="196" text-anchor="middle" font-size="11" fill="#555">1</text>
<line x1="269.0" y1="176" x2="269.0" y2="181" stroke="#777"/>
<text x="269.0" y="196" text-anchor="middle" font-size="11" fill="#555">10.8</text>
<line x1="456.0" y1="176" x2="456.0" y2="181" stroke="#777"/>
<text x="456.0" y="196" text-anchor="middle" font-size="11" fill="#555">20.5</text>
<line x1="643.0" y1="176" x2="643.0" y2="181" stroke="#777"/>
<text x="643.0" y="196" text-anchor="middle" font-size="11" fill="#555">30.2</text>
<line x1="830.0" y1="176" x2="830.0" y2="181" stroke="#777"/>
<text x="830.0" y="196" text-anchor="middle" font-size="11" fill="#555">40</text>
<line x1="77" y1="176.0" x2="82" y2="176.0" stroke="#777"/>
<text x="73" y="180.0" text-anchor="end" font-size="11" fill="#555">0.438</text>
<line x1="77" y1="132.7" x2="82" y2="132.7" stroke="#777"/>
<text x="73" y="136.7" text-anchor="end" font-size="11" fill="#555">0.615</text>
<line x1="77" y1="89.3" x2="82" y2="89.3" stroke="#777"/>
<text x="73" y="93.3" text-anchor="end" font-size="11" fill="#555">0.793</text>
<line x1="77" y1="46.0" x2="82" y2="46.0" stroke="#777"/>
<text x="73" y="50.0" text-anchor="end" font-size="11" fill="#555">0.97</text>
<text x="456.0" y="218" text-anchor="middle" font-size="12" fill="#444">training step</text>
<text x="16" y="111.0" text-anchor="middle" font-size="12" fill="#444" transform="rotate(-90 16 111.0)">metric value</text>
<polyline points="82.0,122.5 101.2,116.0 120.4,176.0 139.5,105.3 158.7,103.2 177.9,156.6 197.1,46.0 216.3,131.0 235.4,110.9 254.6,46.8 273.8,48.2 293.0,97.2 312.2,159.2 331.3,89.8 350.5,49.3 369.7,55.2 388.9,78.5 408.1,46.0 427.2,115.5 446.4,64.4 465.6,77.8 484.8,111.9 503.9,50.1 523.1,46.0 542.3,48.0 561.5,96.1 580.7,110.4 599.8,129.6 619.0,96.1 638.2,61.8 657.4,46.0 676.6,49.9 695.7,101.0 714.9,51.0 734.1,133.6 753.3,102.1 772.5,47.8 791.6,65.7 810.8,61.9 830.0,64.9" fill="none" stroke="#2563eb" stroke-width="2"/>
</g>
<g transform="translate(0,2300)">
<text x="82" y="24" font-size="14" font-weight="700">critic/score/min</text>
<rect x="82" y="46" width="748" height="130" fill="#fafafa" stroke="#ddd"/>
<text x="830" y="24" text-anchor="end" font-size="12" fill="#555">min=0 max=0.97 last=0.45</text>
<line x1="830" y1="176" x2="82" y2="176" stroke="#777"/>
<line x1="82" y1="176" x2="82" y2="46" stroke="#777"/>
<line x1="82.0" y1="176" x2="82.0" y2="181" stroke="#777"/>
<text x="82.0" y="196" text-anchor="middle" font-size="11" fill="#555">1</text>
<line x1="269.0" y1="176" x2="269.0" y2="181" stroke="#777"/>
<text x="269.0" y="196" text-anchor="middle" font-size="11" fill="#555">10.8</text>
<line x1="456.0" y1="176" x2="456.0" y2="181" stroke="#777"/>
<text x="456.0" y="196" text-anchor="middle" font-size="11" fill="#555">20.5</text>
<line x1="643.0" y1="176" x2="643.0" y2="181" stroke="#777"/>
<text x="643.0" y="196" text-anchor="middle" font-size="11" fill="#555">30.2</text>
<line x1="830.0" y1="176" x2="830.0" y2="181" stroke="#777"/>
<text x="830.0" y="196" text-anchor="middle" font-size="11" fill="#555">40</text>
<line x1="77" y1="176.0" x2="82" y2="176.0" stroke="#777"/>
<text x="73" y="180.0" text-anchor="end" font-size="11" fill="#555">0</text>
<line x1="77" y1="132.7" x2="82" y2="132.7" stroke="#777"/>
<text x="73" y="136.7" text-anchor="end" font-size="11" fill="#555">0.323</text>
<line x1="77" y1="89.3" x2="82" y2="89.3" stroke="#777"/>
<text x="73" y="93.3" text-anchor="end" font-size="11" fill="#555">0.647</text>
<line x1="77" y1="46.0" x2="82" y2="46.0" stroke="#777"/>
<text x="73" y="50.0" text-anchor="end" font-size="11" fill="#555">0.97</text>
<text x="456.0" y="218" text-anchor="middle" font-size="12" fill="#444">training step</text>
<text x="16" y="111.0" text-anchor="middle" font-size="12" fill="#444" transform="rotate(-90 16 111.0)">metric value</text>
<polyline points="82.0,176.0 101.2,166.6 120.4,166.6 139.5,176.0 158.7,176.0 177.9,149.2 197.1,46.0 216.3,169.3 235.4,166.6 254.6,49.9 273.8,51.1 293.0,120.6 312.2,176.0 331.3,118.4 350.5,56.7 369.7,115.7 388.9,111.4 408.1,46.0 427.2,176.0 446.4,84.4 465.6,115.7 484.8,166.6 503.9,50.9 523.1,46.0 542.3,50.6 561.5,155.9 580.7,146.5 599.8,166.6 619.0,166.6 638.2,92.2 657.4,46.0 676.6,55.4 695.7,166.6 714.9,50.6 734.1,176.0 753.3,176.0 772.5,48.3 791.6,92.2 810.8,115.7 830.0,115.7" fill="none" stroke="#2563eb" stroke-width="2"/>
</g>
<g transform="translate(0,2530)">
<text x="82" y="24" font-size="14" font-weight="700">perf/throughput</text>
<rect x="82" y="46" width="748" height="130" fill="#fafafa" stroke="#ddd"/>
<text x="830" y="24" text-anchor="end" font-size="12" fill="#555">min=3.688 max=10.03 last=3.688</text>
<line x1="830" y1="176" x2="82" y2="176" stroke="#777"/>
<line x1="82" y1="176" x2="82" y2="46" stroke="#777"/>
<line x1="82.0" y1="176" x2="82.0" y2="181" stroke="#777"/>
<text x="82.0" y="196" text-anchor="middle" font-size="11" fill="#555">1</text>
<line x1="269.0" y1="176" x2="269.0" y2="181" stroke="#777"/>
<text x="269.0" y="196" text-anchor="middle" font-size="11" fill="#555">10.8</text>
<line x1="456.0" y1="176" x2="456.0" y2="181" stroke="#777"/>
<text x="456.0" y="196" text-anchor="middle" font-size="11" fill="#555">20.5</text>
<line x1="643.0" y1="176" x2="643.0" y2="181" stroke="#777"/>
<text x="643.0" y="196" text-anchor="middle" font-size="11" fill="#555">30.2</text>
<line x1="830.0" y1="176" x2="830.0" y2="181" stroke="#777"/>
<text x="830.0" y="196" text-anchor="middle" font-size="11" fill="#555">40</text>
<line x1="77" y1="176.0" x2="82" y2="176.0" stroke="#777"/>
<text x="73" y="180.0" text-anchor="end" font-size="11" fill="#555">3.69</text>
<line x1="77" y1="132.7" x2="82" y2="132.7" stroke="#777"/>
<text x="73" y="136.7" text-anchor="end" font-size="11" fill="#555">5.8</text>
<line x1="77" y1="89.3" x2="82" y2="89.3" stroke="#777"/>
<text x="73" y="93.3" text-anchor="end" font-size="11" fill="#555">7.91</text>
<line x1="77" y1="46.0" x2="82" y2="46.0" stroke="#777"/>
<text x="73" y="50.0" text-anchor="end" font-size="11" fill="#555">10.0</text>
<text x="456.0" y="218" text-anchor="middle" font-size="12" fill="#444">training step</text>
<text x="16" y="111.0" text-anchor="middle" font-size="12" fill="#444" transform="rotate(-90 16 111.0)">metric value</text>
<polyline points="82.0,103.6 101.2,58.7 120.4,83.2 139.5,104.2 158.7,93.0 177.9,55.0 197.1,88.4 216.3,60.7 235.4,66.7 254.6,68.3 273.8,85.8 293.0,50.6 312.2,53.8 331.3,51.7 350.5,79.0 369.7,78.4 388.9,61.1 408.1,69.3 427.2,96.3 446.4,64.6 465.6,77.1 484.8,46.0 503.9,51.1 523.1,66.7 542.3,81.3 561.5,57.4 580.7,60.5 599.8,77.0 619.0,84.9 638.2,68.7 657.4,69.0 676.6,67.0 695.7,60.0 714.9,48.3 734.1,96.9 753.3,80.8 772.5,65.7 791.6,68.4 810.8,72.6 830.0,176.0" fill="none" stroke="#2563eb" stroke-width="2"/>
</g>
<g transform="translate(0,2760)">
<text x="82" y="24" font-size="14" font-weight="700">response_length/clip_ratio</text>
<rect x="82" y="46" width="748" height="130" fill="#fafafa" stroke="#ddd"/>
<text x="830" y="24" text-anchor="end" font-size="12" fill="#555">min=0 max=0.0625 last=0</text>
<line x1="830" y1="176" x2="82" y2="176" stroke="#777"/>
<line x1="82" y1="176" x2="82" y2="46" stroke="#777"/>
<line x1="82.0" y1="176" x2="82.0" y2="181" stroke="#777"/>
<text x="82.0" y="196" text-anchor="middle" font-size="11" fill="#555">1</text>
<line x1="269.0" y1="176" x2="269.0" y2="181" stroke="#777"/>
<text x="269.0" y="196" text-anchor="middle" font-size="11" fill="#555">10.8</text>
<line x1="456.0" y1="176" x2="456.0" y2="181" stroke="#777"/>
<text x="456.0" y="196" text-anchor="middle" font-size="11" fill="#555">20.5</text>
<line x1="643.0" y1="176" x2="643.0" y2="181" stroke="#777"/>
<text x="643.0" y="196" text-anchor="middle" font-size="11" fill="#555">30.2</text>
<line x1="830.0" y1="176" x2="830.0" y2="181" stroke="#777"/>
<text x="830.0" y="196" text-anchor="middle" font-size="11" fill="#555">40</text>
<line x1="77" y1="176.0" x2="82" y2="176.0" stroke="#777"/>
<text x="73" y="180.0" text-anchor="end" font-size="11" fill="#555">0</text>
<line x1="77" y1="132.7" x2="82" y2="132.7" stroke="#777"/>
<text x="73" y="136.7" text-anchor="end" font-size="11" fill="#555">0.0208</text>
<line x1="77" y1="89.3" x2="82" y2="89.3" stroke="#777"/>
<text x="73" y="93.3" text-anchor="end" font-size="11" fill="#555">0.0417</text>
<line x1="77" y1="46.0" x2="82" y2="46.0" stroke="#777"/>
<text x="73" y="50.0" text-anchor="end" font-size="11" fill="#555">0.0625</text>
<text x="456.0" y="218" text-anchor="middle" font-size="12" fill="#444">training step</text>
<text x="16" y="111.0" text-anchor="middle" font-size="12" fill="#444" transform="rotate(-90 16 111.0)">metric value</text>
<polyline points="82.0,46.0 101.2,176.0 120.4,176.0 139.5,46.0 158.7,46.0 177.9,176.0 197.1,176.0 216.3,176.0 235.4,176.0 254.6,176.0 273.8,176.0 293.0,176.0 312.2,176.0 331.3,176.0 350.5,176.0 369.7,176.0 388.9,176.0 408.1,176.0 427.2,176.0 446.4,176.0 465.6,176.0 484.8,176.0 503.9,176.0 523.1,176.0 542.3,176.0 561.5,176.0 580.7,176.0 599.8,176.0 619.0,176.0 638.2,176.0 657.4,176.0 676.6,176.0 695.7,176.0 714.9,176.0 734.1,176.0 753.3,176.0 772.5,176.0 791.6,176.0 810.8,176.0 830.0,176.0" fill="none" stroke="#2563eb" stroke-width="2"/>
</g>
<g transform="translate(0,2990)">
<text x="82" y="24" font-size="14" font-weight="700">response_length/max</text>
<rect x="82" y="46" width="748" height="130" fill="#fafafa" stroke="#ddd"/>
<text x="830" y="24" text-anchor="end" font-size="12" fill="#555">min=137 max=2048 last=245</text>
<line x1="830" y1="176" x2="82" y2="176" stroke="#777"/>
<line x1="82" y1="176" x2="82" y2="46" stroke="#777"/>
<line x1="82.0" y1="176" x2="82.0" y2="181" stroke="#777"/>
<text x="82.0" y="196" text-anchor="middle" font-size="11" fill="#555">1</text>
<line x1="269.0" y1="176" x2="269.0" y2="181" stroke="#777"/>
<text x="269.0" y="196" text-anchor="middle" font-size="11" fill="#555">10.8</text>
<line x1="456.0" y1="176" x2="456.0" y2="181" stroke="#777"/>
<text x="456.0" y="196" text-anchor="middle" font-size="11" fill="#555">20.5</text>
<line x1="643.0" y1="176" x2="643.0" y2="181" stroke="#777"/>
<text x="643.0" y="196" text-anchor="middle" font-size="11" fill="#555">30.2</text>
<line x1="830.0" y1="176" x2="830.0" y2="181" stroke="#777"/>
<text x="830.0" y="196" text-anchor="middle" font-size="11" fill="#555">40</text>
<line x1="77" y1="176.0" x2="82" y2="176.0" stroke="#777"/>
<text x="73" y="180.0" text-anchor="end" font-size="11" fill="#555">137</text>
<line x1="77" y1="132.7" x2="82" y2="132.7" stroke="#777"/>
<text x="73" y="136.7" text-anchor="end" font-size="11" fill="#555">774</text>
<line x1="77" y1="89.3" x2="82" y2="89.3" stroke="#777"/>
<text x="73" y="93.3" text-anchor="end" font-size="11" fill="#555">1411</text>
<line x1="77" y1="46.0" x2="82" y2="46.0" stroke="#777"/>
<text x="73" y="50.0" text-anchor="end" font-size="11" fill="#555">2048</text>
<text x="456.0" y="218" text-anchor="middle" font-size="12" fill="#444">training step</text>
<text x="16" y="111.0" text-anchor="middle" font-size="12" fill="#444" transform="rotate(-90 16 111.0)">metric value</text>
<polyline points="82.0,46.0 101.2,171.0 120.4,143.0 139.5,46.0 158.7,46.0 177.9,171.4 197.1,176.0 216.3,141.7 235.4,175.5 254.6,174.7 273.8,176.0 293.0,172.8 312.2,129.4 331.3,172.6 350.5,172.7 369.7,175.9 388.9,171.1 408.1,175.7 427.2,84.1 446.4,172.9 465.6,175.3 484.8,173.5 503.9,172.1 523.1,174.0 542.3,175.6 561.5,172.5 580.7,174.2 599.8,173.5 619.0,166.5 638.2,174.5 657.4,175.7 676.6,170.2 695.7,142.7 714.9,173.8 734.1,102.7 753.3,117.0 772.5,168.9 791.6,173.3 810.8,175.3 830.0,168.7" fill="none" stroke="#2563eb" stroke-width="2"/>
</g>
<g transform="translate(0,3220)">
<text x="82" y="24" font-size="14" font-weight="700">response_length/mean</text>
<rect x="82" y="46" width="748" height="130" fill="#fafafa" stroke="#ddd"/>
<text x="830" y="24" text-anchor="end" font-size="12" fill="#555">min=87.25 max=328.1 last=160.3</text>
<line x1="830" y1="176" x2="82" y2="176" stroke="#777"/>
<line x1="82" y1="176" x2="82" y2="46" stroke="#777"/>
<line x1="82.0" y1="176" x2="82.0" y2="181" stroke="#777"/>
<text x="82.0" y="196" text-anchor="middle" font-size="11" fill="#555">1</text>
<line x1="269.0" y1="176" x2="269.0" y2="181" stroke="#777"/>
<text x="269.0" y="196" text-anchor="middle" font-size="11" fill="#555">10.8</text>
<line x1="456.0" y1="176" x2="456.0" y2="181" stroke="#777"/>
<text x="456.0" y="196" text-anchor="middle" font-size="11" fill="#555">20.5</text>
<line x1="643.0" y1="176" x2="643.0" y2="181" stroke="#777"/>
<text x="643.0" y="196" text-anchor="middle" font-size="11" fill="#555">30.2</text>
<line x1="830.0" y1="176" x2="830.0" y2="181" stroke="#777"/>
<text x="830.0" y="196" text-anchor="middle" font-size="11" fill="#555">40</text>
<line x1="77" y1="176.0" x2="82" y2="176.0" stroke="#777"/>
<text x="73" y="180.0" text-anchor="end" font-size="11" fill="#555">87.2</text>
<line x1="77" y1="132.7" x2="82" y2="132.7" stroke="#777"/>
<text x="73" y="136.7" text-anchor="end" font-size="11" fill="#555">168</text>
<line x1="77" y1="89.3" x2="82" y2="89.3" stroke="#777"/>
<text x="73" y="93.3" text-anchor="end" font-size="11" fill="#555">248</text>
<line x1="77" y1="46.0" x2="82" y2="46.0" stroke="#777"/>
<text x="73" y="50.0" text-anchor="end" font-size="11" fill="#555">328</text>
<text x="456.0" y="218" text-anchor="middle" font-size="12" fill="#444">training step</text>
<text x="16" y="111.0" text-anchor="middle" font-size="12" fill="#444" transform="rotate(-90 16 111.0)">metric value</text>
<polyline points="82.0,46.0 101.2,156.6 120.4,139.3 139.5,82.4 158.7,58.8 177.9,150.2 197.1,176.0 216.3,113.7 235.4,160.0 254.6,156.1 273.8,168.7 293.0,147.3 312.2,89.2 331.3,141.6 350.5,162.0 369.7,167.0 388.9,151.6 408.1,159.5 427.2,115.4 446.4,152.9 465.6,161.9 484.8,145.0 503.9,137.2 523.1,154.9 542.3,171.3 561.5,145.7 580.7,162.3 599.8,159.9 619.0,158.1 638.2,158.5 657.4,158.8 676.6,151.5 695.7,110.6 714.9,152.7 734.1,118.4 753.3,104.8 772.5,145.5 791.6,156.8 810.8,161.3 830.0,136.6" fill="none" stroke="#2563eb" stroke-width="2"/>
</g>
<g transform="translate(0,3450)">
<text x="82" y="24" font-size="14" font-weight="700">rollout_corr/kl</text>
<rect x="82" y="46" width="748" height="130" fill="#fafafa" stroke="#ddd"/>
<text x="830" y="24" text-anchor="end" font-size="12" fill="#555">min=-0.0009327 max=0.001522 last=-0.0005322</text>
<line x1="830" y1="176" x2="82" y2="176" stroke="#777"/>
<line x1="82" y1="176" x2="82" y2="46" stroke="#777"/>
<line x1="82.0" y1="176" x2="82.0" y2="181" stroke="#777"/>
<text x="82.0" y="196" text-anchor="middle" font-size="11" fill="#555">1</text>
<line x1="269.0" y1="176" x2="269.0" y2="181" stroke="#777"/>
<text x="269.0" y="196" text-anchor="middle" font-size="11" fill="#555">10.8</text>
<line x1="456.0" y1="176" x2="456.0" y2="181" stroke="#777"/>
<text x="456.0" y="196" text-anchor="middle" font-size="11" fill="#555">20.5</text>
<line x1="643.0" y1="176" x2="643.0" y2="181" stroke="#777"/>
<text x="643.0" y="196" text-anchor="middle" font-size="11" fill="#555">30.2</text>
<line x1="830.0" y1="176" x2="830.0" y2="181" stroke="#777"/>
<text x="830.0" y="196" text-anchor="middle" font-size="11" fill="#555">40</text>
<line x1="77" y1="176.0" x2="82" y2="176.0" stroke="#777"/>
<text x="73" y="180.0" text-anchor="end" font-size="11" fill="#555">-0.000933</text>
<line x1="77" y1="132.7" x2="82" y2="132.7" stroke="#777"/>
<text x="73" y="136.7" text-anchor="end" font-size="11" fill="#555">-0.000114</text>
<line x1="77" y1="89.3" x2="82" y2="89.3" stroke="#777"/>
<text x="73" y="93.3" text-anchor="end" font-size="11" fill="#555">0.000704</text>
<line x1="77" y1="46.0" x2="82" y2="46.0" stroke="#777"/>
<text x="73" y="50.0" text-anchor="end" font-size="11" fill="#555">0.00152</text>
<text x="456.0" y="218" text-anchor="middle" font-size="12" fill="#444">training step</text>
<text x="16" y="111.0" text-anchor="middle" font-size="12" fill="#444" transform="rotate(-90 16 111.0)">metric value</text>
<polyline points="82.0,76.0 101.2,62.9 120.4,117.1 139.5,78.4 158.7,115.6 177.9,83.9 197.1,111.5 216.3,95.4 235.4,77.7 254.6,133.9 273.8,105.9 293.0,142.7 312.2,100.1 331.3,98.8 350.5,72.8 369.7,176.0 388.9,133.5 408.1,106.9 427.2,106.3 446.4,64.2 465.6,164.1 484.8,123.0 503.9,120.9 523.1,142.6 542.3,85.3 561.5,113.2 580.7,142.4 599.8,131.0 619.0,121.1 638.2,121.9 657.4,46.0 676.6,128.1 695.7,48.0 714.9,121.2 734.1,146.9 753.3,66.8 772.5,95.5 791.6,58.5 810.8,112.7 830.0,154.8" fill="none" stroke="#2563eb" stroke-width="2"/>
</g>
<g transform="translate(0,3680)">
<text x="82" y="24" font-size="14" font-weight="700">timing_s/step</text>
<rect x="82" y="46" width="748" height="130" fill="#fafafa" stroke="#ddd"/>
<text x="830" y="24" text-anchor="end" font-size="12" fill="#555">min=96.89 max=271.9 last=271.9</text>
<line x1="830" y1="176" x2="82" y2="176" stroke="#777"/>
<line x1="82" y1="176" x2="82" y2="46" stroke="#777"/>
<line x1="82.0" y1="176" x2="82.0" y2="181" stroke="#777"/>
<text x="82.0" y="196" text-anchor="middle" font-size="11" fill="#555">1</text>
<line x1="269.0" y1="176" x2="269.0" y2="181" stroke="#777"/>
<text x="269.0" y="196" text-anchor="middle" font-size="11" fill="#555">10.8</text>
<line x1="456.0" y1="176" x2="456.0" y2="181" stroke="#777"/>
<text x="456.0" y="196" text-anchor="middle" font-size="11" fill="#555">20.5</text>
<line x1="643.0" y1="176" x2="643.0" y2="181" stroke="#777"/>
<text x="643.0" y="196" text-anchor="middle" font-size="11" fill="#555">30.2</text>
<line x1="830.0" y1="176" x2="830.0" y2="181" stroke="#777"/>
<text x="830.0" y="196" text-anchor="middle" font-size="11" fill="#555">40</text>
<line x1="77" y1="176.0" x2="82" y2="176.0" stroke="#777"/>
<text x="73" y="180.0" text-anchor="end" font-size="11" fill="#555">96.9</text>
<line x1="77" y1="132.7" x2="82" y2="132.7" stroke="#777"/>
<text x="73" y="136.7" text-anchor="end" font-size="11" fill="#555">155</text>
<line x1="77" y1="89.3" x2="82" y2="89.3" stroke="#777"/>
<text x="73" y="93.3" text-anchor="end" font-size="11" fill="#555">214</text>
<line x1="77" y1="46.0" x2="82" y2="46.0" stroke="#777"/>
<text x="73" y="50.0" text-anchor="end" font-size="11" fill="#555">272</text>
<text x="456.0" y="218" text-anchor="middle" font-size="12" fill="#444">training step</text>
<text x="16" y="111.0" text-anchor="middle" font-size="12" fill="#444" transform="rotate(-90 16 111.0)">metric value</text>
<polyline points="82.0,120.0 101.2,174.1 120.4,164.6 139.5,130.7 158.7,131.3 177.9,174.2 197.1,176.0 216.3,164.3 235.4,175.8 254.6,175.5 273.8,176.0 293.0,174.8 312.2,160.1 331.3,174.8 350.5,175.1 369.7,175.9 388.9,174.3 408.1,175.9 427.2,145.1 446.4,175.0 465.6,175.7 484.8,174.9 503.9,174.6 523.1,175.2 542.3,175.9 561.5,174.8 580.7,175.2 599.8,175.2 619.0,172.5 638.2,175.3 657.4,175.8 676.6,173.8 695.7,164.7 714.9,175.1 734.1,150.5 753.3,155.7 772.5,173.4 791.6,175.1 810.8,175.8 830.0,46.0" fill="none" stroke="#2563eb" stroke-width="2"/>
</g>
</svg>