<svg xmlns="http://www.w3.org/2000/svg" width="1180" height="1310" font-family="Inter,Arial,sans-serif">
<rect width="100%" height="100%" fill="#f8fafc"/>
<text x="78" y="30" font-size="24" font-weight="800" fill="#0f172a">V19 RL Training Dashboard</text>
<text x="78" y="52" font-size="13" fill="#475569">GRPO 训练最该盯的曲线：效果、组内信号、更新强度、输出长度、系统速度。KL/entropy 未保存在 V19 key metrics。</text>
<g transform="translate(0,70)">
<text x="78" y="24" font-size="17" font-weight="700" fill="#0f172a">1. Local reward / verifier score</text>
<text x="78" y="42" font-size="12" fill="#64748b">看 reward 是否上升；min-max 阴影看同批好坏差距。</text>
<rect x="78" y="48" width="952" height="113" fill="#ffffff" stroke="#d9e2ec"/>
<line x1="78" y1="161.0" x2="1030" y2="161.0" stroke="#eef2f7"/>
<text x="68" y="165.0" text-anchor="end" font-size="11" fill="#64748b">0</text>
<line x1="78" y1="123.3" x2="1030" y2="123.3" stroke="#eef2f7"/>
<text x="68" y="127.3" text-anchor="end" font-size="11" fill="#64748b">0.34</text>
<line x1="78" y1="85.7" x2="1030" y2="85.7" stroke="#eef2f7"/>
<text x="68" y="89.7" text-anchor="end" font-size="11" fill="#64748b">0.68</text>
<line x1="78" y1="48.0" x2="1030" y2="48.0" stroke="#eef2f7"/>
<text x="68" y="52.0" text-anchor="end" font-size="11" fill="#64748b">1.02</text>
<line x1="78.0" y1="161" x2="78.0" y2="166" stroke="#94a3b8"/>
<text x="78.0" y="181" text-anchor="middle" font-size="11" fill="#64748b">1</text>
<line x1="268.4" y1="161" x2="268.4" y2="166" stroke="#94a3b8"/>
<text x="268.4" y="181" text-anchor="middle" font-size="11" fill="#64748b">12.6</text>
<line x1="458.8" y1="161" x2="458.8" y2="166" stroke="#94a3b8"/>
<text x="458.8" y="181" text-anchor="middle" font-size="11" fill="#64748b">24.2</text>
<line x1="649.2" y1="161" x2="649.2" y2="166" stroke="#94a3b8"/>
<text x="649.2" y="181" text-anchor="middle" font-size="11" fill="#64748b">35.8</text>
<line x1="839.6" y1="161" x2="839.6" y2="166" stroke="#94a3b8"/>
<text x="839.6" y="181" text-anchor="middle" font-size="11" fill="#64748b">47.4</text>
<line x1="1030.0" y1="161" x2="1030.0" y2="166" stroke="#94a3b8"/>
<text x="1030.0" y="181" text-anchor="middle" font-size="11" fill="#64748b">59</text>
<line x1="78" y1="161" x2="1030" y2="161" stroke="#94a3b8"/>
<line x1="78" y1="48" x2="78" y2="161" stroke="#94a3b8"/>
<polygon points="78.0,50.2 94.4,50.2 110.8,50.2 127.2,50.2 143.7,50.2 160.1,50.2 176.5,50.2 192.9,50.2 209.3,50.2 225.7,51.5 242.1,50.2 258.6,50.2 275.0,50.2 291.4,50.2 307.8,50.2 324.2,50.2 340.6,50.2 357.0,50.2 373.4,50.2 389.9,50.2 406.3,50.2 422.7,50.2 439.1,50.2 455.5,50.2 471.9,50.2 488.3,50.2 504.8,50.2 521.2,50.2 537.6,50.2 554.0,50.2 570.4,50.2 586.8,50.2 603.2,50.2 619.7,50.2 636.1,50.2 652.5,50.2 668.9,50.2 685.3,50.2 701.7,50.2 718.1,50.2 734.6,50.2 751.0,50.2 767.4,103.4 783.8,103.4 800.2,50.2 816.6,50.2 833.0,50.2 849.4,50.2 865.9,50.2 882.3,50.2 898.7,50.2 915.1,50.2 931.5,50.2 947.9,50.2 964.3,103.4 980.8,50.2 997.2,50.2 1013.6,103.4 1030.0,50.2 1030.0,112.3 1013.6,112.3 997.2,51.6 980.8,103.4 964.3,118.9 947.9,98.5 931.5,103.4 915.1,103.4 898.7,50.2 882.3,112.3 865.9,103.4 849.4,103.4 833.0,103.4 816.6,50.2 800.2,106.7 783.8,105.1 767.4,103.4 751.0,50.2 734.6,103.4 718.1,106.7 701.7,51.6 685.3,51.0 668.9,106.7 652.5,112.3 636.1,50.2 619.7,50.2 603.2,50.2 586.8,50.8 570.4,50.2 554.0,103.4 537.6,51.6 521.2,96.7 504.8,103.4 488.3,103.4 471.9,103.4 455.5,103.4 439.1,112.3 422.7,50.2 406.3,50.2 389.9,50.2 373.4,50.2 357.0,50.2 340.6,103.4 324.2,103.4 307.8,112.3 291.4,50.2 275.0,103.4 258.6,50.2 242.1,103.4 225.7,112.3 209.3,103.4 192.9,50.2 176.5,103.4 160.1,106.7 143.7,103.4 127.2,50.2 110.8,103.4 94.4,50.2 78.0,51.1" fill="#2563eb" opacity="0.13"/>
<polyline points="78.0,50.4 94.4,50.2 110.8,100.1 127.2,50.2 143.7,76.8 160.1,77.2 176.5,53.6 192.9,50.2 209.3,53.5 225.7,84.2 242.1,76.8 258.6,50.2 275.0,76.8 291.4,50.2 307.8,81.9 324.2,76.8 340.6,53.5 357.0,50.2 373.4,50.2 389.9,50.2 406.3,50.2 422.7,50.2 439.1,80.7 455.5,76.8 471.9,76.8 488.3,76.8 504.8,76.8 521.2,53.1 537.6,50.9 554.0,76.8 570.4,50.2 586.8,50.3 603.2,50.2 619.7,50.2 636.1,50.2 652.5,80.7 668.9,100.3 685.3,50.5 701.7,50.9 718.1,77.0 734.6,76.8 751.0,50.2 767.4,103.4 783.8,103.5 800.2,53.7 816.6,50.2 833.0,76.8 849.4,83.5 865.9,76.8 882.3,54.1 898.7,50.2 915.1,76.8 931.5,76.8 947.9,68.3 964.3,106.0 980.8,56.9 997.2,50.9 1013.6,106.0 1030.0,77.4" fill="none" stroke="#2563eb" stroke-width="2.8" opacity="1"/>
<polyline points="78.0,50.4 94.4,50.3 110.8,66.9 127.2,62.7 143.7,65.5 160.1,70.9 176.5,71.6 192.9,61.6 209.3,62.3 225.7,63.7 242.1,63.7 258.6,63.0 275.0,68.3 291.4,67.6 307.8,67.2 324.2,67.2 340.6,67.8 357.0,62.5 373.4,62.5 389.9,56.2 406.3,50.9 422.7,50.2 439.1,56.3 455.5,61.6 471.9,66.9 488.3,72.3 504.8,77.6 521.2,72.1 537.6,66.9 554.0,66.9 570.4,61.6 586.8,56.3 603.2,55.7 619.7,55.5 636.1,50.2 652.5,56.3 668.9,66.3 685.3,66.4 701.7,66.5 718.1,71.9 734.6,71.1 751.0,61.1 767.4,71.7 783.8,82.2 800.2,77.5 816.6,72.2 833.0,77.5 849.4,73.5 865.9,68.2 882.3,68.3 898.7,68.3 915.1,68.3 931.5,66.9 947.9,65.3 964.3,75.6 980.8,77.0 997.2,71.8 1013.6,77.6 1030.0,79.4" fill="none" stroke="#16a34a" stroke-width="2.4" opacity="1" stroke-dasharray="5 4"/>
<line x1="1048" y1="56" x2="1070" y2="56" stroke="#2563eb" stroke-width="3"/>
<text x="1078" y="60" font-size="12" fill="#334155">score mean</text>
<line x1="1048" y1="74" x2="1070" y2="74" stroke="#16a34a" stroke-width="3"/>
<text x="1078" y="78" font-size="12" fill="#334155">5-step mean</text>
<line x1="1048" y1="92" x2="1070" y2="92" stroke="#64748b" stroke-width="3"/>
<text x="1078" y="96" font-size="12" fill="#334155">min-max band</text>
</g>
<g transform="translate(0,275)">
<text x="78" y="24" font-size="17" font-weight="700" fill="#0f172a">2. Rollout accuracy + reward spread</text>
<text x="78" y="42" font-size="12" fill="#64748b">acc 看本地正确率；spread=max-min，看同题采样有没有可学习差异。</text>
<rect x="78" y="48" width="952" height="113" fill="#ffffff" stroke="#d9e2ec"/>
<line x1="78" y1="161.0" x2="1030" y2="161.0" stroke="#eef2f7"/>
<text x="68" y="165.0" text-anchor="end" font-size="11" fill="#64748b">0</text>
<line x1="78" y1="123.3" x2="1030" y2="123.3" stroke="#eef2f7"/>
<text x="68" y="127.3" text-anchor="end" font-size="11" fill="#64748b">0.34</text>
<line x1="78" y1="85.7" x2="1030" y2="85.7" stroke="#eef2f7"/>
<text x="68" y="89.7" text-anchor="end" font-size="11" fill="#64748b">0.68</text>
<line x1="78" y1="48.0" x2="1030" y2="48.0" stroke="#eef2f7"/>
<text x="68" y="52.0" text-anchor="end" font-size="11" fill="#64748b">1.02</text>
<line x1="78.0" y1="161" x2="78.0" y2="166" stroke="#94a3b8"/>
<text x="78.0" y="181" text-anchor="middle" font-size="11" fill="#64748b">1</text>
<line x1="268.4" y1="161" x2="268.4" y2="166" stroke="#94a3b8"/>
<text x="268.4" y="181" text-anchor="middle" font-size="11" fill="#64748b">12.6</text>
<line x1="458.8" y1="161" x2="458.8" y2="166" stroke="#94a3b8"/>
<text x="458.8" y="181" text-anchor="middle" font-size="11" fill="#64748b">24.2</text>
<line x1="649.2" y1="161" x2="649.2" y2="166" stroke="#94a3b8"/>
<text x="649.2" y="181" text-anchor="middle" font-size="11" fill="#64748b">35.8</text>
<line x1="839.6" y1="161" x2="839.6" y2="166" stroke="#94a3b8"/>
<text x="839.6" y="181" text-anchor="middle" font-size="11" fill="#64748b">47.4</text>
<line x1="1030.0" y1="161" x2="1030.0" y2="166" stroke="#94a3b8"/>
<text x="1030.0" y="181" text-anchor="middle" font-size="11" fill="#64748b">59</text>
<line x1="78" y1="161" x2="1030" y2="161" stroke="#94a3b8"/>
<line x1="78" y1="48" x2="78" y2="161" stroke="#94a3b8"/>
<polyline points="78.0,50.2 94.4,50.2 110.8,154.1 127.2,50.2 143.7,105.6 160.1,105.6 176.5,57.1 192.9,50.2 209.3,57.1 225.7,119.5 242.1,105.6 258.6,50.2 275.0,105.6 291.4,50.2 307.8,112.5 324.2,105.6 340.6,57.1 357.0,50.2 373.4,50.2 389.9,50.2 406.3,50.2 422.7,50.2 439.1,112.5 455.5,105.6 471.9,105.6 488.3,105.6 504.8,105.6 521.2,57.1 537.6,50.2 554.0,105.6 570.4,50.2 586.8,50.2 603.2,50.2 619.7,50.2 636.1,50.2 652.5,112.5 668.9,154.1 685.3,50.2 701.7,50.2 718.1,105.6 734.6,105.6 751.0,50.2 767.4,161.0 783.8,161.0 800.2,57.1 816.6,50.2 833.0,105.6 849.4,119.5 865.9,105.6 882.3,57.1 898.7,50.2 915.1,105.6 931.5,105.6 947.9,91.8 964.3,161.0 980.8,64.1 997.2,50.2 1013.6,161.0 1030.0,105.6" fill="none" stroke="#16a34a" stroke-width="2.8" opacity="1"/>
<polyline points="78.0,160.1 94.4,161.0 110.8,107.8 127.2,161.0 143.7,107.8 160.1,104.5 176.5,107.8 192.9,161.0 209.3,107.8 225.7,100.2 242.1,107.8 258.6,161.0 275.0,107.8 291.4,161.0 307.8,99.0 324.2,107.8 340.6,107.8 357.0,161.0 373.4,161.0 389.9,161.0 406.3,161.0 422.7,161.0 439.1,99.0 455.5,107.8 471.9,107.8 488.3,107.8 504.8,107.8 521.2,114.5 537.6,159.6 554.0,107.8 570.4,161.0 586.8,160.5 603.2,161.0 619.7,161.0 636.1,161.0 652.5,99.0 668.9,104.5 685.3,160.2 701.7,159.6 718.1,104.5 734.6,107.8 751.0,161.0 767.4,161.0 783.8,159.3 800.2,104.5 816.6,161.0 833.0,107.8 849.4,107.8 865.9,107.8 882.3,99.0 898.7,161.0 915.1,107.8 931.5,107.8 947.9,112.7 964.3,145.5 980.8,107.8 997.2,159.6 1013.6,152.1 1030.0,99.0" fill="none" stroke="#d97706" stroke-width="2.2" opacity="1" stroke-dasharray="6 4"/>
<line x1="1048" y1="56" x2="1070" y2="56" stroke="#16a34a" stroke-width="3"/>
<text x="1078" y="60" font-size="12" fill="#334155">acc mean</text>
<line x1="1048" y1="74" x2="1070" y2="74" stroke="#d97706" stroke-width="3"/>
<text x="1078" y="78" font-size="12" fill="#334155">score spread</text>
</g>
<g transform="translate(0,480)">
<text x="78" y="24" font-size="17" font-weight="700" fill="#0f172a">3. GRPO group signal</text>
<text x="78" y="42" font-size="12" fill="#64748b">useful group 才真有组内偏好；all-correct/all-wrong 太多都会让学习变弱。</text>
<rect x="78" y="48" width="952" height="113" fill="#ffffff" stroke="#d9e2ec"/>
<line x1="78" y1="161.0" x2="1030" y2="161.0" stroke="#eef2f7"/>
<text x="68" y="165.0" text-anchor="end" font-size="11" fill="#64748b">0</text>
<line x1="78" y1="123.3" x2="1030" y2="123.3" stroke="#eef2f7"/>
<text x="68" y="127.3" text-anchor="end" font-size="11" fill="#64748b">0.34</text>
<line x1="78" y1="85.7" x2="1030" y2="85.7" stroke="#eef2f7"/>
<text x="68" y="89.7" text-anchor="end" font-size="11" fill="#64748b">0.68</text>
<line x1="78" y1="48.0" x2="1030" y2="48.0" stroke="#eef2f7"/>
<text x="68" y="52.0" text-anchor="end" font-size="11" fill="#64748b">1.02</text>
<line x1="78.0" y1="161" x2="78.0" y2="166" stroke="#94a3b8"/>
<text x="78.0" y="181" text-anchor="middle" font-size="11" fill="#64748b">1</text>
<line x1="268.4" y1="161" x2="268.4" y2="166" stroke="#94a3b8"/>
<text x="268.4" y="181" text-anchor="middle" font-size="11" fill="#64748b">9</text>
<line x1="458.8" y1="161" x2="458.8" y2="166" stroke="#94a3b8"/>
<text x="458.8" y="181" text-anchor="middle" font-size="11" fill="#64748b">17</text>
<line x1="649.2" y1="161" x2="649.2" y2="166" stroke="#94a3b8"/>
<text x="649.2" y="181" text-anchor="middle" font-size="11" fill="#64748b">25</text>
<line x1="839.6" y1="161" x2="839.6" y2="166" stroke="#94a3b8"/>
<text x="839.6" y="181" text-anchor="middle" font-size="11" fill="#64748b">33</text>
<line x1="1030.0" y1="161" x2="1030.0" y2="166" stroke="#94a3b8"/>
<text x="1030.0" y="181" text-anchor="middle" font-size="11" fill="#64748b">41</text>
<line x1="78" y1="161" x2="1030" y2="161" stroke="#94a3b8"/>
<line x1="78" y1="48" x2="78" y2="161" stroke="#94a3b8"/>
<polyline points="78.0,105.6 101.8,161.0 125.6,105.6 149.4,161.0 173.2,161.0 197.0,105.6 220.8,105.6 244.6,161.0 268.4,105.6 292.2,105.6 316.0,161.0 339.8,161.0 363.6,161.0 387.4,161.0 411.2,50.2 435.0,161.0 458.8,105.6 482.6,161.0 506.4,161.0 530.2,161.0 554.0,161.0 577.8,161.0 601.6,105.6 625.4,161.0 649.2,161.0 673.0,105.6 696.8,161.0 720.6,105.6 744.4,105.6 768.2,161.0 792.0,161.0 815.8,105.6 839.6,161.0 863.4,161.0 887.2,161.0 911.0,105.6 934.8,50.2 958.6,50.2 982.4,105.6 1006.2,105.6 1030.0,161.0" fill="none" stroke="#7c3aed" stroke-width="2.8" opacity="1"/>
<polyline points="78.0,50.2 101.8,50.2 125.6,161.0 149.4,50.2 173.2,105.6 197.0,105.6 220.8,105.6 244.6,50.2 268.4,105.6 292.2,161.0 316.0,105.6 339.8,50.2 363.6,105.6 387.4,50.2 411.2,161.0 435.0,105.6 458.8,105.6 482.6,50.2 506.4,50.2 530.2,50.2 554.0,50.2 577.8,50.2 601.6,161.0 625.4,105.6 649.2,105.6 673.0,105.6 696.8,105.6 720.6,105.6 744.4,50.2 768.2,105.6 792.0,50.2 815.8,50.2 839.6,50.2 863.4,50.2 887.2,50.2 911.0,161.0 934.8,161.0 958.6,50.2 982.4,50.2 1006.2,105.6 1030.0,105.6" fill="none" stroke="#16a34a" stroke-width="2.1" opacity="1" stroke-dasharray="4 4"/>
<polyline points="78.0,161.0 101.8,161.0 125.6,105.6 149.4,161.0 173.2,105.6 197.0,105.6 220.8,161.0 244.6,161.0 268.4,161.0 292.2,105.6 316.0,105.6 339.8,161.0 363.6,105.6 387.4,161.0 411.2,105.6 435.0,105.6 458.8,161.0 482.6,161.0 506.4,161.0 530.2,161.0 554.0,161.0 577.8,161.0 601.6,105.6 625.4,105.6 649.2,105.6 673.0,105.6 696.8,105.6 720.6,161.0 744.4,161.0 768.2,105.6 792.0,161.0 815.8,161.0 839.6,161.0 863.4,161.0 887.2,161.0 911.0,105.6 934.8,105.6 958.6,161.0 982.4,161.0 1006.2,105.6 1030.0,105.6" fill="none" stroke="#dc2626" stroke-width="2.1" opacity="1" stroke-dasharray="4 4"/>
<line x1="1048" y1="56" x2="1070" y2="56" stroke="#7c3aed" stroke-width="3"/>
<text x="1078" y="60" font-size="12" fill="#334155">useful group rate</text>
<line x1="1048" y1="74" x2="1070" y2="74" stroke="#16a34a" stroke-width="3"/>
<text x="1078" y="78" font-size="12" fill="#334155">all-correct rate</text>
<line x1="1048" y1="92" x2="1070" y2="92" stroke="#dc2626" stroke-width="3"/>
<text x="1078" y="96" font-size="12" fill="#334155">all-wrong rate</text>
</g>
<g transform="translate(0,685)">
<text x="78" y="24" font-size="17" font-weight="700" fill="#0f172a">4. Policy update strength</text>
<text x="78" y="42" font-size="12" fill="#64748b">grad_norm 看 actor 有没有真的被更新；V19 pg_clipfrac 全为 0，说明没有被 clipping 卡死。</text>
<rect x="78" y="48" width="952" height="113" fill="#ffffff" stroke="#d9e2ec"/>
<line x1="78" y1="161.0" x2="1030" y2="161.0" stroke="#eef2f7"/>
<text x="68" y="165.0" text-anchor="end" font-size="11" fill="#64748b">0</text>
<line x1="78" y1="123.3" x2="1030" y2="123.3" stroke="#eef2f7"/>
<text x="68" y="127.3" text-anchor="end" font-size="11" fill="#64748b">5.73</text>
<line x1="78" y1="85.7" x2="1030" y2="85.7" stroke="#eef2f7"/>
<text x="68" y="89.7" text-anchor="end" font-size="11" fill="#64748b">11.5</text>
<line x1="78" y1="48.0" x2="1030" y2="48.0" stroke="#eef2f7"/>
<text x="68" y="52.0" text-anchor="end" font-size="11" fill="#64748b">17.2</text>
<line x1="78.0" y1="161" x2="78.0" y2="166" stroke="#94a3b8"/>
<text x="78.0" y="181" text-anchor="middle" font-size="11" fill="#64748b">1</text>
<line x1="268.4" y1="161" x2="268.4" y2="166" stroke="#94a3b8"/>
<text x="268.4" y="181" text-anchor="middle" font-size="11" fill="#64748b">12.6</text>
<line x1="458.8" y1="161" x2="458.8" y2="166" stroke="#94a3b8"/>
<text x="458.8" y="181" text-anchor="middle" font-size="11" fill="#64748b">24.2</text>
<line x1="649.2" y1="161" x2="649.2" y2="166" stroke="#94a3b8"/>
<text x="649.2" y="181" text-anchor="middle" font-size="11" fill="#64748b">35.8</text>
<line x1="839.6" y1="161" x2="839.6" y2="166" stroke="#94a3b8"/>
<text x="839.6" y="181" text-anchor="middle" font-size="11" fill="#64748b">47.4</text>
<line x1="1030.0" y1="161" x2="1030.0" y2="166" stroke="#94a3b8"/>
<text x="1030.0" y="181" text-anchor="middle" font-size="11" fill="#64748b">59</text>
<line x1="78" y1="161" x2="1030" y2="161" stroke="#94a3b8"/>
<line x1="78" y1="48" x2="78" y2="161" stroke="#94a3b8"/>
<polyline points="78.0,135.4 94.4,161.0 110.8,134.2 127.2,161.0 143.7,161.0 160.1,143.9 176.5,121.5 192.9,161.0 209.3,146.2 225.7,139.7 242.1,161.0 258.6,161.0 275.0,161.0 291.4,161.0 307.8,130.9 324.2,161.0 340.6,124.0 357.0,161.0 373.4,161.0 389.9,161.0 406.3,161.0 422.7,161.0 439.1,154.6 455.5,161.0 471.9,161.0 488.3,150.7 504.8,161.0 521.2,137.2 537.6,56.4 554.0,161.0 570.4,161.0 586.8,147.0 603.2,161.0 619.7,161.0 636.1,161.0 652.5,161.0 668.9,127.2 685.3,107.0 701.7,137.4 718.1,143.2 734.6,161.0 751.0,161.0 767.4,161.0 783.8,148.1 800.2,135.9 816.6,161.0 833.0,161.0 849.4,139.2 865.9,161.0 882.3,161.0 898.7,161.0 915.1,161.0 931.5,161.0 947.9,105.6 964.3,135.9 980.8,115.9 997.2,132.1 1013.6,145.4 1030.0,142.3" fill="none" stroke="#db2777" stroke-width="2.6" opacity="1"/>
<circle cx="94.4" cy="161.0" r="2.3" fill="#334155" opacity="0.75"/>
<circle cx="127.2" cy="161.0" r="2.3" fill="#334155" opacity="0.75"/>
<circle cx="143.7" cy="161.0" r="2.3" fill="#334155" opacity="0.75"/>
<circle cx="192.9" cy="161.0" r="2.3" fill="#334155" opacity="0.75"/>
<circle cx="242.1" cy="161.0" r="2.3" fill="#334155" opacity="0.75"/>
<circle cx="258.6" cy="161.0" r="2.3" fill="#334155" opacity="0.75"/>
<circle cx="275.0" cy="161.0" r="2.3" fill="#334155" opacity="0.75"/>
<circle cx="291.4" cy="161.0" r="2.3" fill="#334155" opacity="0.75"/>
<circle cx="324.2" cy="161.0" r="2.3" fill="#334155" opacity="0.75"/>
<circle cx="357.0" cy="161.0" r="2.3" fill="#334155" opacity="0.75"/>
<circle cx="373.4" cy="161.0" r="2.3" fill="#334155" opacity="0.75"/>
<circle cx="389.9" cy="161.0" r="2.3" fill="#334155" opacity="0.75"/>
<circle cx="406.3" cy="161.0" r="2.3" fill="#334155" opacity="0.75"/>
<circle cx="422.7" cy="161.0" r="2.3" fill="#334155" opacity="0.75"/>
<circle cx="455.5" cy="161.0" r="2.3" fill="#334155" opacity="0.75"/>
<circle cx="471.9" cy="161.0" r="2.3" fill="#334155" opacity="0.75"/>
<circle cx="504.8" cy="161.0" r="2.3" fill="#334155" opacity="0.75"/>
<circle cx="554.0" cy="161.0" r="2.3" fill="#334155" opacity="0.75"/>
<circle cx="570.4" cy="161.0" r="2.3" fill="#334155" opacity="0.75"/>
<circle cx="603.2" cy="161.0" r="2.3" fill="#334155" opacity="0.75"/>
<circle cx="619.7" cy="161.0" r="2.3" fill="#334155" opacity="0.75"/>
<circle cx="636.1" cy="161.0" r="2.3" fill="#334155" opacity="0.75"/>
<circle cx="734.6" cy="161.0" r="2.3" fill="#334155" opacity="0.75"/>
<circle cx="751.0" cy="161.0" r="2.3" fill="#334155" opacity="0.75"/>
<circle cx="767.4" cy="161.0" r="2.3" fill="#334155" opacity="0.75"/>
<circle cx="816.6" cy="161.0" r="2.3" fill="#334155" opacity="0.75"/>
<circle cx="833.0" cy="161.0" r="2.3" fill="#334155" opacity="0.75"/>
<circle cx="865.9" cy="161.0" r="2.3" fill="#334155" opacity="0.75"/>
<circle cx="898.7" cy="161.0" r="2.3" fill="#334155" opacity="0.75"/>
<circle cx="915.1" cy="161.0" r="2.3" fill="#334155" opacity="0.75"/>
<circle cx="931.5" cy="161.0" r="2.3" fill="#334155" opacity="0.75"/>
<line x1="1048" y1="56" x2="1070" y2="56" stroke="#db2777" stroke-width="3"/>
<text x="1078" y="60" font-size="12" fill="#334155">grad norm</text>
<line x1="1048" y1="74" x2="1070" y2="74" stroke="#334155" stroke-width="3"/>
<text x="1078" y="78" font-size="12" fill="#334155">zero-grad step</text>
<line x1="1048" y1="92" x2="1070" y2="92" stroke="#64748b" stroke-width="3"/>
<text x="1078" y="96" font-size="12" fill="#334155">pg_clipfrac=0 all steps</text>
</g>
<g transform="translate(0,890)">
<text x="78" y="24" font-size="17" font-weight="700" fill="#0f172a">5. Response length / truncation</text>
<text x="78" y="42" font-size="12" fill="#64748b">看输出有没有越训越长、有没有撞 max_response_length；V19 clip_ratio 全为 0。</text>
<rect x="78" y="48" width="952" height="113" fill="#ffffff" stroke="#d9e2ec"/>
<line x1="78" y1="161.0" x2="1030" y2="161.0" stroke="#eef2f7"/>
<text x="68" y="165.0" text-anchor="end" font-size="11" fill="#64748b">0</text>
<line x1="78" y1="123.3" x2="1030" y2="123.3" stroke="#eef2f7"/>
<text x="68" y="127.3" text-anchor="end" font-size="11" fill="#64748b">110</text>
<line x1="78" y1="85.7" x2="1030" y2="85.7" stroke="#eef2f7"/>
<text x="68" y="89.7" text-anchor="end" font-size="11" fill="#64748b">220</text>
<line x1="78" y1="48.0" x2="1030" y2="48.0" stroke="#eef2f7"/>
<text x="68" y="52.0" text-anchor="end" font-size="11" fill="#64748b">330</text>
<line x1="78.0" y1="161" x2="78.0" y2="166" stroke="#94a3b8"/>
<text x="78.0" y="181" text-anchor="middle" font-size="11" fill="#64748b">1</text>
<line x1="268.4" y1="161" x2="268.4" y2="166" stroke="#94a3b8"/>
<text x="268.4" y="181" text-anchor="middle" font-size="11" fill="#64748b">12.6</text>
<line x1="458.8" y1="161" x2="458.8" y2="166" stroke="#94a3b8"/>
<text x="458.8" y="181" text-anchor="middle" font-size="11" fill="#64748b">24.2</text>
<line x1="649.2" y1="161" x2="649.2" y2="166" stroke="#94a3b8"/>
<text x="649.2" y="181" text-anchor="middle" font-size="11" fill="#64748b">35.8</text>
<line x1="839.6" y1="161" x2="839.6" y2="166" stroke="#94a3b8"/>
<text x="839.6" y="181" text-anchor="middle" font-size="11" fill="#64748b">47.4</text>
<line x1="1030.0" y1="161" x2="1030.0" y2="166" stroke="#94a3b8"/>
<text x="1030.0" y="181" text-anchor="middle" font-size="11" fill="#64748b">59</text>
<line x1="78" y1="161" x2="1030" y2="161" stroke="#94a3b8"/>
<line x1="78" y1="48" x2="78" y2="161" stroke="#94a3b8"/>
<polyline points="78.0,137.4 94.4,136.4 110.8,115.6 127.2,108.2 143.7,114.6 160.1,86.8 176.5,127.4 192.9,131.4 209.3,112.0 225.7,110.2 242.1,113.2 258.6,132.7 275.0,91.0 291.4,108.6 307.8,114.4 324.2,112.7 340.6,130.7 357.0,107.6 373.4,138.0 389.9,132.8 406.3,130.4 422.7,134.5 439.1,106.7 455.5,89.5 471.9,113.9 488.3,108.5 504.8,111.8 521.2,133.0 537.6,132.7 554.0,118.5 570.4,133.3 586.8,101.3 603.2,140.6 619.7,131.3 636.1,127.8 652.5,113.9 668.9,108.8 685.3,134.7 701.7,126.4 718.1,117.7 734.6,116.2 751.0,131.8 767.4,94.8 783.8,96.2 800.2,129.1 816.6,132.1 833.0,118.3 849.4,111.3 865.9,115.4 882.3,134.3 898.7,133.8 915.1,118.7 931.5,113.9 947.9,143.0 964.3,109.2 980.8,135.4 997.2,137.5 1013.6,119.0 1030.0,118.5" fill="none" stroke="#0f766e" stroke-width="2.6" opacity="1"/>
<polyline points="78.0,133.0 94.4,135.4 110.8,85.1 127.2,88.9 143.7,89.5 160.1,72.8 176.5,116.2 192.9,125.1 209.3,85.4 225.7,94.7 242.1,89.5 258.6,130.2 275.0,86.8 291.4,84.4 307.8,87.1 324.2,91.2 340.6,123.7 357.0,83.7 373.4,137.1 389.9,131.6 406.3,126.5 422.7,131.9 439.1,68.3 455.5,80.3 471.9,94.7 488.3,85.8 504.8,87.5 521.2,131.3 537.6,129.9 554.0,84.4 570.4,131.6 586.8,82.0 603.2,137.1 619.7,130.6 636.1,121.0 652.5,81.0 668.9,73.5 685.3,132.6 701.7,120.3 718.1,91.2 734.6,95.4 751.0,128.5 767.4,87.5 783.8,92.6 800.2,123.7 816.6,129.9 833.0,91.9 849.4,96.4 865.9,96.0 882.3,131.3 898.7,130.9 915.1,96.4 931.5,96.4 947.9,135.4 964.3,56.4 980.8,130.9 997.2,130.9 1013.6,96.4 1030.0,94.0" fill="none" stroke="#d97706" stroke-width="2.1" opacity="1" stroke-dasharray="6 4"/>
<line x1="1048" y1="56" x2="1070" y2="56" stroke="#0f766e" stroke-width="3"/>
<text x="1078" y="60" font-size="12" fill="#334155">response length mean</text>
<line x1="1048" y1="74" x2="1070" y2="74" stroke="#d97706" stroke-width="3"/>
<text x="1078" y="78" font-size="12" fill="#334155">response length max</text>
<line x1="1048" y1="92" x2="1070" y2="92" stroke="#64748b" stroke-width="3"/>
<text x="1078" y="96" font-size="12" fill="#334155">clip_ratio=0 all steps</text>
</g>
<g transform="translate(0,1095)">
<text x="78" y="24" font-size="17" font-weight="700" fill="#0f172a">6. Throughput / step time</text>
<text x="78" y="42" font-size="12" fill="#64748b">归一化画在一起：吞吐稳、step time 稳，说明不是系统抖动导致曲线异常。</text>
<rect x="78" y="48" width="952" height="113" fill="#ffffff" stroke="#d9e2ec"/>
<line x1="78" y1="161.0" x2="1030" y2="161.0" stroke="#eef2f7"/>
<text x="68" y="165.0" text-anchor="end" font-size="11" fill="#64748b">0</text>
<line x1="78" y1="123.3" x2="1030" y2="123.3" stroke="#eef2f7"/>
<text x="68" y="127.3" text-anchor="end" font-size="11" fill="#64748b">0.33</text>
<line x1="78" y1="85.7" x2="1030" y2="85.7" stroke="#eef2f7"/>
<text x="68" y="89.7" text-anchor="end" font-size="11" fill="#64748b">0.67</text>
<line x1="78" y1="48.0" x2="1030" y2="48.0" stroke="#eef2f7"/>
<text x="68" y="52.0" text-anchor="end" font-size="11" fill="#64748b">1</text>
<line x1="78.0" y1="161" x2="78.0" y2="166" stroke="#94a3b8"/>
<text x="78.0" y="181" text-anchor="middle" font-size="11" fill="#64748b">1</text>
<line x1="268.4" y1="161" x2="268.4" y2="166" stroke="#94a3b8"/>
<text x="268.4" y="181" text-anchor="middle" font-size="11" fill="#64748b">12.6</text>
<line x1="458.8" y1="161" x2="458.8" y2="166" stroke="#94a3b8"/>
<text x="458.8" y="181" text-anchor="middle" font-size="11" fill="#64748b">24.2</text>
<line x1="649.2" y1="161" x2="649.2" y2="166" stroke="#94a3b8"/>
<text x="649.2" y="181" text-anchor="middle" font-size="11" fill="#64748b">35.8</text>
<line x1="839.6" y1="161" x2="839.6" y2="166" stroke="#94a3b8"/>
<text x="839.6" y="181" text-anchor="middle" font-size="11" fill="#64748b">47.4</text>
<line x1="1030.0" y1="161" x2="1030.0" y2="166" stroke="#94a3b8"/>
<text x="1030.0" y="181" text-anchor="middle" font-size="11" fill="#64748b">59</text>
<line x1="78" y1="161" x2="1030" y2="161" stroke="#94a3b8"/>
<line x1="78" y1="48" x2="78" y2="161" stroke="#94a3b8"/>
<polyline points="78.0,161.0 94.4,81.2 110.8,109.8 127.2,55.4 143.7,90.3 160.1,56.1 176.5,93.6 192.9,82.5 209.3,66.6 225.7,69.4 242.1,85.0 258.6,75.1 275.0,48.0 291.4,66.1 307.8,74.1 324.2,58.1 340.6,108.9 357.0,142.1 373.4,109.9 389.9,94.8 406.3,85.0 422.7,108.1 439.1,70.5 455.5,51.4 471.9,76.0 488.3,85.8 504.8,87.3 521.2,76.7 537.6,63.3 554.0,98.9 570.4,97.9 586.8,76.1 603.2,109.1 619.7,56.4 636.1,82.9 652.5,90.1 668.9,89.7 685.3,54.5 701.7,71.4 718.1,102.0 734.6,77.1 751.0,95.0 767.4,54.1 783.8,48.8 800.2,81.2 816.6,88.7 833.0,64.0 849.4,93.9 865.9,96.4 882.3,74.3 898.7,81.7 915.1,85.8 931.5,76.0 947.9,71.0 964.3,84.7 980.8,108.9 997.2,62.1 1013.6,71.1 1030.0,83.4" fill="none" stroke="#2563eb" stroke-width="2.6" opacity="1"/>
<polyline points="78.0,63.2 94.4,159.4 110.8,145.0 127.2,144.9 143.7,146.2 160.1,140.7 176.5,154.7 192.9,156.7 209.3,144.1 225.7,146.3 242.1,145.7 258.6,156.2 275.0,144.0 291.4,143.5 307.8,144.5 324.2,145.7 340.6,156.9 357.0,48.0 373.4,161.0 389.9,158.8 406.3,156.9 422.7,157.7 439.1,137.9 455.5,142.1 471.9,146.7 488.3,143.0 504.8,145.4 521.2,158.2 537.6,157.6 554.0,144.3 570.4,158.5 586.8,142.3 603.2,160.4 619.7,158.1 636.1,155.4 652.5,143.3 668.9,140.6 685.3,158.9 701.7,155.7 718.1,145.7 734.6,148.1 751.0,157.9 767.4,144.9 783.8,146.5 800.2,156.9 816.6,158.9 833.0,146.5 849.4,146.9 865.9,147.5 882.3,158.2 898.7,158.3 915.1,147.7 931.5,146.1 947.9,158.6 964.3,136.4 980.8,158.7 997.2,158.1 1013.6,147.5 1030.0,147.7" fill="none" stroke="#dc2626" stroke-width="2.4" opacity="1" stroke-dasharray="6 4"/>
<line x1="1048" y1="56" x2="1070" y2="56" stroke="#2563eb" stroke-width="3"/>
<text x="1078" y="60" font-size="12" fill="#334155">throughput normalized</text>
<line x1="1048" y1="74" x2="1070" y2="74" stroke="#dc2626" stroke-width="3"/>
<text x="1078" y="78" font-size="12" fill="#334155">step seconds normalized</text>
<text x="1048" y="116" font-size="11" fill="#64748b">throughput 12.0-18.8</text>
<text x="1048" y="132" font-size="11" fill="#64748b">seconds 95.3-129.9</text>
</g>
</svg>