<svg xmlns="http://www.w3.org/2000/svg" width="860" height="2530" font-family="Arial, sans-serif">
<rect width="100%" height="100%" fill="white"/>
<g transform="translate(0,0)">
<text x="82" y="24" font-size="14" font-weight="700">actor/grad_norm</text>
<rect x="82" y="46" width="748" height="130" fill="#fafafa" stroke="#ddd"/>
<text x="830" y="24" text-anchor="end" font-size="12" fill="#555">min=0 max=15.91 last=2.848</text>
<line x1="830" y1="176" x2="82" y2="176" stroke="#777"/>
<line x1="82" y1="176" x2="82" y2="46" stroke="#777"/>
<line x1="82.0" y1="176" x2="82.0" y2="181" stroke="#777"/>
<text x="82.0" y="196" text-anchor="middle" font-size="11" fill="#555">1</text>
<line x1="269.0" y1="176" x2="269.0" y2="181" stroke="#777"/>
<text x="269.0" y="196" text-anchor="middle" font-size="11" fill="#555">15.5</text>
<line x1="456.0" y1="176" x2="456.0" y2="181" stroke="#777"/>
<text x="456.0" y="196" text-anchor="middle" font-size="11" fill="#555">30</text>
<line x1="643.0" y1="176" x2="643.0" y2="181" stroke="#777"/>
<text x="643.0" y="196" text-anchor="middle" font-size="11" fill="#555">44.5</text>
<line x1="830.0" y1="176" x2="830.0" y2="181" stroke="#777"/>
<text x="830.0" y="196" text-anchor="middle" font-size="11" fill="#555">59</text>
<line x1="77" y1="176.0" x2="82" y2="176.0" stroke="#777"/>
<text x="73" y="180.0" text-anchor="end" font-size="11" fill="#555">0</text>
<line x1="77" y1="132.7" x2="82" y2="132.7" stroke="#777"/>
<text x="73" y="136.7" text-anchor="end" font-size="11" fill="#555">5.3</text>
<line x1="77" y1="89.3" x2="82" y2="89.3" stroke="#777"/>
<text x="73" y="93.3" text-anchor="end" font-size="11" fill="#555">10.6</text>
<line x1="77" y1="46.0" x2="82" y2="46.0" stroke="#777"/>
<text x="73" y="50.0" text-anchor="end" font-size="11" fill="#555">15.9</text>
<text x="456.0" y="218" text-anchor="middle" font-size="12" fill="#444">training step</text>
<text x="16" y="111.0" text-anchor="middle" font-size="12" fill="#444" transform="rotate(-90 16 111.0)">metric value</text>
<polyline points="82.0,144.2 94.9,176.0 107.8,142.7 120.7,176.0 133.6,176.0 146.5,154.8 159.4,126.9 172.3,176.0 185.2,157.7 198.1,149.5 211.0,176.0 223.9,176.0 236.8,176.0 249.7,176.0 262.6,138.6 275.4,176.0 288.3,130.0 301.2,176.0 314.1,176.0 327.0,176.0 339.9,176.0 352.8,176.0 365.7,168.1 378.6,176.0 391.5,176.0 404.4,163.2 417.3,176.0 430.2,146.4 443.1,46.0 456.0,176.0 468.9,176.0 481.8,158.6 494.7,176.0 507.6,176.0 520.5,176.0 533.4,176.0 546.3,134.0 559.2,108.9 572.1,146.6 585.0,153.9 597.9,176.0 610.8,176.0 623.7,176.0 636.6,159.9 649.4,144.8 662.3,176.0 675.2,176.0 688.1,148.9 701.0,176.0 713.9,176.0 726.8,176.0 739.7,176.0 752.6,176.0 765.5,107.1 778.4,144.8 791.3,119.9 804.2,140.1 817.1,156.6 830.0,152.7" fill="none" stroke="#2563eb" stroke-width="2"/>
</g>
<g transform="translate(0,230)">
<text x="82" y="24" font-size="14" font-weight="700">actor/pg_clipfrac</text>
<rect x="82" y="46" width="748" height="130" fill="#fafafa" stroke="#ddd"/>
<text x="830" y="24" text-anchor="end" font-size="12" fill="#555">min=-0.5 max=0.5 last=0</text>
<line x1="830" y1="176" x2="82" y2="176" stroke="#777"/>
<line x1="82" y1="176" x2="82" y2="46" stroke="#777"/>
<line x1="82.0" y1="176" x2="82.0" y2="181" stroke="#777"/>
<text x="82.0" y="196" text-anchor="middle" font-size="11" fill="#555">1</text>
<line x1="269.0" y1="176" x2="269.0" y2="181" stroke="#777"/>
<text x="269.0" y="196" text-anchor="middle" font-size="11" fill="#555">15.5</text>
<line x1="456.0" y1="176" x2="456.0" y2="181" stroke="#777"/>
<text x="456.0" y="196" text-anchor="middle" font-size="11" fill="#555">30</text>
<line x1="643.0" y1="176" x2="643.0" y2="181" stroke="#777"/>
<text x="643.0" y="196" text-anchor="middle" font-size="11" fill="#555">44.5</text>
<line x1="830.0" y1="176" x2="830.0" y2="181" stroke="#777"/>
<text x="830.0" y="196" text-anchor="middle" font-size="11" fill="#555">59</text>
<line x1="77" y1="176.0" x2="82" y2="176.0" stroke="#777"/>
<text x="73" y="180.0" text-anchor="end" font-size="11" fill="#555">-0.5</text>
<line x1="77" y1="132.7" x2="82" y2="132.7" stroke="#777"/>
<text x="73" y="136.7" text-anchor="end" font-size="11" fill="#555">-0.167</text>
<line x1="77" y1="89.3" x2="82" y2="89.3" stroke="#777"/>
<text x="73" y="93.3" text-anchor="end" font-size="11" fill="#555">0.167</text>
<line x1="77" y1="46.0" x2="82" y2="46.0" stroke="#777"/>
<text x="73" y="50.0" text-anchor="end" font-size="11" fill="#555">0.5</text>
<text x="456.0" y="218" text-anchor="middle" font-size="12" fill="#444">training step</text>
<text x="16" y="111.0" text-anchor="middle" font-size="12" fill="#444" transform="rotate(-90 16 111.0)">metric value</text>
<polyline points="82.0,111.0 94.9,111.0 107.8,111.0 120.7,111.0 133.6,111.0 146.5,111.0 159.4,111.0 172.3,111.0 185.2,111.0 198.1,111.0 211.0,111.0 223.9,111.0 236.8,111.0 249.7,111.0 262.6,111.0 275.4,111.0 288.3,111.0 301.2,111.0 314.1,111.0 327.0,111.0 339.9,111.0 352.8,111.0 365.7,111.0 378.6,111.0 391.5,111.0 404.4,111.0 417.3,111.0 430.2,111.0 443.1,111.0 456.0,111.0 468.9,111.0 481.8,111.0 494.7,111.0 507.6,111.0 520.5,111.0 533.4,111.0 546.3,111.0 559.2,111.0 572.1,111.0 585.0,111.0 597.9,111.0 610.8,111.0 623.7,111.0 636.6,111.0 649.4,111.0 662.3,111.0 675.2,111.0 688.1,111.0 701.0,111.0 713.9,111.0 726.8,111.0 739.7,111.0 752.6,111.0 765.5,111.0 778.4,111.0 791.3,111.0 804.2,111.0 817.1,111.0 830.0,111.0" fill="none" stroke="#2563eb" stroke-width="2"/>
</g>
<g transform="translate(0,460)">
<text x="82" y="24" font-size="14" font-weight="700">actor/pg_clipfrac_lower</text>
<rect x="82" y="46" width="748" height="130" fill="#fafafa" stroke="#ddd"/>
<text x="830" y="24" text-anchor="end" font-size="12" fill="#555">min=-0.5 max=0.5 last=0</text>
<line x1="830" y1="176" x2="82" y2="176" stroke="#777"/>
<line x1="82" y1="176" x2="82" y2="46" stroke="#777"/>
<line x1="82.0" y1="176" x2="82.0" y2="181" stroke="#777"/>
<text x="82.0" y="196" text-anchor="middle" font-size="11" fill="#555">1</text>
<line x1="269.0" y1="176" x2="269.0" y2="181" stroke="#777"/>
<text x="269.0" y="196" text-anchor="middle" font-size="11" fill="#555">15.5</text>
<line x1="456.0" y1="176" x2="456.0" y2="181" stroke="#777"/>
<text x="456.0" y="196" text-anchor="middle" font-size="11" fill="#555">30</text>
<line x1="643.0" y1="176" x2="643.0" y2="181" stroke="#777"/>
<text x="643.0" y="196" text-anchor="middle" font-size="11" fill="#555">44.5</text>
<line x1="830.0" y1="176" x2="830.0" y2="181" stroke="#777"/>
<text x="830.0" y="196" text-anchor="middle" font-size="11" fill="#555">59</text>
<line x1="77" y1="176.0" x2="82" y2="176.0" stroke="#777"/>
<text x="73" y="180.0" text-anchor="end" font-size="11" fill="#555">-0.5</text>
<line x1="77" y1="132.7" x2="82" y2="132.7" stroke="#777"/>
<text x="73" y="136.7" text-anchor="end" font-size="11" fill="#555">-0.167</text>
<line x1="77" y1="89.3" x2="82" y2="89.3" stroke="#777"/>
<text x="73" y="93.3" text-anchor="end" font-size="11" fill="#555">0.167</text>
<line x1="77" y1="46.0" x2="82" y2="46.0" stroke="#777"/>
<text x="73" y="50.0" text-anchor="end" font-size="11" fill="#555">0.5</text>
<text x="456.0" y="218" text-anchor="middle" font-size="12" fill="#444">training step</text>
<text x="16" y="111.0" text-anchor="middle" font-size="12" fill="#444" transform="rotate(-90 16 111.0)">metric value</text>
<polyline points="82.0,111.0 94.9,111.0 107.8,111.0 120.7,111.0 133.6,111.0 146.5,111.0 159.4,111.0 172.3,111.0 185.2,111.0 198.1,111.0 211.0,111.0 223.9,111.0 236.8,111.0 249.7,111.0 262.6,111.0 275.4,111.0 288.3,111.0 301.2,111.0 314.1,111.0 327.0,111.0 339.9,111.0 352.8,111.0 365.7,111.0 378.6,111.0 391.5,111.0 404.4,111.0 417.3,111.0 430.2,111.0 443.1,111.0 456.0,111.0 468.9,111.0 481.8,111.0 494.7,111.0 507.6,111.0 520.5,111.0 533.4,111.0 546.3,111.0 559.2,111.0 572.1,111.0 585.0,111.0 597.9,111.0 610.8,111.0 623.7,111.0 636.6,111.0 649.4,111.0 662.3,111.0 675.2,111.0 688.1,111.0 701.0,111.0 713.9,111.0 726.8,111.0 739.7,111.0 752.6,111.0 765.5,111.0 778.4,111.0 791.3,111.0 804.2,111.0 817.1,111.0 830.0,111.0" fill="none" stroke="#2563eb" stroke-width="2"/>
</g>
<g transform="translate(0,690)">
<text x="82" y="24" font-size="14" font-weight="700">critic/score/max</text>
<rect x="82" y="46" width="748" height="130" fill="#fafafa" stroke="#ddd"/>
<text x="830" y="24" text-anchor="end" font-size="12" fill="#555">min=0.52 max=1 last=1</text>
<line x1="830" y1="176" x2="82" y2="176" stroke="#777"/>
<line x1="82" y1="176" x2="82" y2="46" stroke="#777"/>
<line x1="82.0" y1="176" x2="82.0" y2="181" stroke="#777"/>
<text x="82.0" y="196" text-anchor="middle" font-size="11" fill="#555">1</text>
<line x1="269.0" y1="176" x2="269.0" y2="181" stroke="#777"/>
<text x="269.0" y="196" text-anchor="middle" font-size="11" fill="#555">15.5</text>
<line x1="456.0" y1="176" x2="456.0" y2="181" stroke="#777"/>
<text x="456.0" y="196" text-anchor="middle" font-size="11" fill="#555">30</text>
<line x1="643.0" y1="176" x2="643.0" y2="181" stroke="#777"/>
<text x="643.0" y="196" text-anchor="middle" font-size="11" fill="#555">44.5</text>
<line x1="830.0" y1="176" x2="830.0" y2="181" stroke="#777"/>
<text x="830.0" y="196" text-anchor="middle" font-size="11" fill="#555">59</text>
<line x1="77" y1="176.0" x2="82" y2="176.0" stroke="#777"/>
<text x="73" y="180.0" text-anchor="end" font-size="11" fill="#555">0.52</text>
<line x1="77" y1="132.7" x2="82" y2="132.7" stroke="#777"/>
<text x="73" y="136.7" text-anchor="end" font-size="11" fill="#555">0.68</text>
<line x1="77" y1="89.3" x2="82" y2="89.3" stroke="#777"/>
<text x="73" y="93.3" text-anchor="end" font-size="11" fill="#555">0.84</text>
<line x1="77" y1="46.0" x2="82" y2="46.0" stroke="#777"/>
<text x="73" y="50.0" text-anchor="end" font-size="11" fill="#555">1</text>
<text x="456.0" y="218" text-anchor="middle" font-size="12" fill="#444">training step</text>
<text x="16" y="111.0" text-anchor="middle" font-size="12" fill="#444" transform="rotate(-90 16 111.0)">metric value</text>
<polyline points="82.0,46.0 94.9,46.0 107.8,46.0 120.7,46.0 133.6,46.0 146.5,46.0 159.4,46.0 172.3,46.0 185.2,46.0 198.1,49.1 211.0,46.0 223.9,46.0 236.8,46.0 249.7,46.0 262.6,46.0 275.4,46.0 288.3,46.0 301.2,46.0 314.1,46.0 327.0,46.0 339.9,46.0 352.8,46.0 365.7,46.0 378.6,46.0 391.5,46.0 404.4,46.0 417.3,46.0 430.2,46.0 443.1,46.0 456.0,46.0 468.9,46.0 481.8,46.0 494.7,46.0 507.6,46.0 520.5,46.0 533.4,46.0 546.3,46.0 559.2,46.0 572.1,46.0 585.0,46.0 597.9,46.0 610.8,46.0 623.7,176.0 636.6,176.0 649.4,46.0 662.3,46.0 675.2,46.0 688.1,46.0 701.0,46.0 713.9,46.0 726.8,46.0 739.7,46.0 752.6,46.0 765.5,46.0 778.4,176.0 791.3,46.0 804.2,46.0 817.1,176.0 830.0,46.0" fill="none" stroke="#2563eb" stroke-width="2"/>
</g>
<g transform="translate(0,920)">
<text x="82" y="24" font-size="14" font-weight="700">critic/score/mean</text>
<rect x="82" y="46" width="748" height="130" fill="#fafafa" stroke="#ddd"/>
<text x="830" y="24" text-anchor="end" font-size="12" fill="#555">min=0.4964 max=1 last=0.755</text>
<line x1="830" y1="176" x2="82" y2="176" stroke="#777"/>
<line x1="82" y1="176" x2="82" y2="46" stroke="#777"/>
<line x1="82.0" y1="176" x2="82.0" y2="181" stroke="#777"/>
<text x="82.0" y="196" text-anchor="middle" font-size="11" fill="#555">1</text>
<line x1="269.0" y1="176" x2="269.0" y2="181" stroke="#777"/>
<text x="269.0" y="196" text-anchor="middle" font-size="11" fill="#555">15.5</text>
<line x1="456.0" y1="176" x2="456.0" y2="181" stroke="#777"/>
<text x="456.0" y="196" text-anchor="middle" font-size="11" fill="#555">30</text>
<line x1="643.0" y1="176" x2="643.0" y2="181" stroke="#777"/>
<text x="643.0" y="196" text-anchor="middle" font-size="11" fill="#555">44.5</text>
<line x1="830.0" y1="176" x2="830.0" y2="181" stroke="#777"/>
<text x="830.0" y="196" text-anchor="middle" font-size="11" fill="#555">59</text>
<line x1="77" y1="176.0" x2="82" y2="176.0" stroke="#777"/>
<text x="73" y="180.0" text-anchor="end" font-size="11" fill="#555">0.496</text>
<line x1="77" y1="132.7" x2="82" y2="132.7" stroke="#777"/>
<text x="73" y="136.7" text-anchor="end" font-size="11" fill="#555">0.664</text>
<line x1="77" y1="89.3" x2="82" y2="89.3" stroke="#777"/>
<text x="73" y="93.3" text-anchor="end" font-size="11" fill="#555">0.832</text>
<line x1="77" y1="46.0" x2="82" y2="46.0" stroke="#777"/>
<text x="73" y="50.0" text-anchor="end" font-size="11" fill="#555">1</text>
<text x="456.0" y="218" text-anchor="middle" font-size="12" fill="#444">training step</text>
<text x="16" y="111.0" text-anchor="middle" font-size="12" fill="#444" transform="rotate(-90 16 111.0)">metric value</text>
<polyline points="82.0,46.4 94.9,46.0 107.8,162.2 120.7,46.0 133.6,107.9 146.5,108.8 159.4,53.8 172.3,46.0 185.2,53.7 198.1,125.2 211.0,107.9 223.9,46.0 236.8,107.9 249.7,46.0 262.6,119.7 275.4,107.9 288.3,53.7 301.2,46.0 314.1,46.0 327.0,46.0 339.9,46.0 352.8,46.0 365.7,117.0 378.6,107.9 391.5,107.9 404.4,108.0 417.3,107.9 430.2,52.8 443.1,47.6 456.0,107.9 468.9,46.0 481.8,46.2 494.7,46.0 507.6,46.0 520.5,46.0 533.4,117.0 546.3,162.6 559.2,46.6 572.1,47.6 585.0,108.4 597.9,107.9 610.8,46.0 623.7,169.9 636.6,170.1 649.4,54.2 662.3,46.0 675.2,107.9 688.1,123.4 701.0,107.9 713.9,55.0 726.8,46.0 739.7,107.9 752.6,107.9 765.5,88.2 778.4,176.0 791.3,61.5 804.2,47.5 817.1,176.0 830.0,109.2" fill="none" stroke="#2563eb" stroke-width="2"/>
</g>
<g transform="translate(0,1150)">
<text x="82" y="24" font-size="14" font-weight="700">critic/score/min</text>
<rect x="82" y="46" width="748" height="130" fill="#fafafa" stroke="#ddd"/>
<text x="830" y="24" text-anchor="end" font-size="12" fill="#555">min=0.38 max=1 last=0.44</text>
<line x1="830" y1="176" x2="82" y2="176" stroke="#777"/>
<line x1="82" y1="176" x2="82" y2="46" stroke="#777"/>
<line x1="82.0" y1="176" x2="82.0" y2="181" stroke="#777"/>
<text x="82.0" y="196" text-anchor="middle" font-size="11" fill="#555">1</text>
<line x1="269.0" y1="176" x2="269.0" y2="181" stroke="#777"/>
<text x="269.0" y="196" text-anchor="middle" font-size="11" fill="#555">15.5</text>
<line x1="456.0" y1="176" x2="456.0" y2="181" stroke="#777"/>
<text x="456.0" y="196" text-anchor="middle" font-size="11" fill="#555">30</text>
<line x1="643.0" y1="176" x2="643.0" y2="181" stroke="#777"/>
<text x="643.0" y="196" text-anchor="middle" font-size="11" fill="#555">44.5</text>
<line x1="830.0" y1="176" x2="830.0" y2="181" stroke="#777"/>
<text x="830.0" y="196" text-anchor="middle" font-size="11" fill="#555">59</text>
<line x1="77" y1="176.0" x2="82" y2="176.0" stroke="#777"/>
<text x="73" y="180.0" text-anchor="end" font-size="11" fill="#555">0.38</text>
<line x1="77" y1="132.7" x2="82" y2="132.7" stroke="#777"/>
<text x="73" y="136.7" text-anchor="end" font-size="11" fill="#555">0.587</text>
<line x1="77" y1="89.3" x2="82" y2="89.3" stroke="#777"/>
<text x="73" y="93.3" text-anchor="end" font-size="11" fill="#555">0.793</text>
<line x1="77" y1="46.0" x2="82" y2="46.0" stroke="#777"/>
<text x="73" y="50.0" text-anchor="end" font-size="11" fill="#555">1</text>
<text x="456.0" y="218" text-anchor="middle" font-size="12" fill="#444">training step</text>
<text x="16" y="111.0" text-anchor="middle" font-size="12" fill="#444" transform="rotate(-90 16 111.0)">metric value</text>
<polyline points="82.0,47.7 94.9,46.0 107.8,146.6 120.7,46.0 133.6,146.6 146.5,152.9 159.4,146.6 172.3,46.0 185.2,146.6 198.1,163.4 211.0,146.6 223.9,46.0 236.8,146.6 249.7,46.0 262.6,163.4 275.4,146.6 288.3,146.6 301.2,46.0 314.1,46.0 327.0,46.0 339.9,46.0 352.8,46.0 365.7,163.4 378.6,146.6 391.5,146.6 404.4,146.6 417.3,146.6 430.2,134.1 443.1,48.6 456.0,146.6 468.9,46.0 481.8,47.0 494.7,46.0 507.6,46.0 520.5,46.0 533.4,163.4 546.3,152.9 559.2,47.5 572.1,48.6 585.0,152.9 597.9,146.6 610.8,46.0 623.7,146.6 636.6,149.9 649.4,152.9 662.3,46.0 675.2,146.6 688.1,146.6 701.0,146.6 713.9,163.4 726.8,46.0 739.7,146.6 752.6,146.6 765.5,137.5 778.4,176.0 791.3,146.6 804.2,48.6 817.1,163.4 830.0,163.4" fill="none" stroke="#2563eb" stroke-width="2"/>
</g>
<g transform="translate(0,1380)">
<text x="82" y="24" font-size="14" font-weight="700">perf/throughput</text>
<rect x="82" y="46" width="748" height="130" fill="#fafafa" stroke="#ddd"/>
<text x="830" y="24" text-anchor="end" font-size="12" fill="#555">min=12.01 max=18.84 last=16.7</text>
<line x1="830" y1="176" x2="82" y2="176" stroke="#777"/>
<line x1="82" y1="176" x2="82" y2="46" stroke="#777"/>
<line x1="82.0" y1="176" x2="82.0" y2="181" stroke="#777"/>
<text x="82.0" y="196" text-anchor="middle" font-size="11" fill="#555">1</text>
<line x1="269.0" y1="176" x2="269.0" y2="181" stroke="#777"/>
<text x="269.0" y="196" text-anchor="middle" font-size="11" fill="#555">15.5</text>
<line x1="456.0" y1="176" x2="456.0" y2="181" stroke="#777"/>
<text x="456.0" y="196" text-anchor="middle" font-size="11" fill="#555">30</text>
<line x1="643.0" y1="176" x2="643.0" y2="181" stroke="#777"/>
<text x="643.0" y="196" text-anchor="middle" font-size="11" fill="#555">44.5</text>
<line x1="830.0" y1="176" x2="830.0" y2="181" stroke="#777"/>
<text x="830.0" y="196" text-anchor="middle" font-size="11" fill="#555">59</text>
<line x1="77" y1="176.0" x2="82" y2="176.0" stroke="#777"/>
<text x="73" y="180.0" text-anchor="end" font-size="11" fill="#555">12.0</text>
<line x1="77" y1="132.7" x2="82" y2="132.7" stroke="#777"/>
<text x="73" y="136.7" text-anchor="end" font-size="11" fill="#555">14.3</text>
<line x1="77" y1="89.3" x2="82" y2="89.3" stroke="#777"/>
<text x="73" y="93.3" text-anchor="end" font-size="11" fill="#555">16.6</text>
<line x1="77" y1="46.0" x2="82" y2="46.0" stroke="#777"/>
<text x="73" y="50.0" text-anchor="end" font-size="11" fill="#555">18.8</text>
<text x="456.0" y="218" text-anchor="middle" font-size="12" fill="#444">training step</text>
<text x="16" y="111.0" text-anchor="middle" font-size="12" fill="#444" transform="rotate(-90 16 111.0)">metric value</text>
<polyline points="82.0,176.0 94.9,84.2 107.8,117.1 120.7,54.5 133.6,94.7 146.5,55.3 159.4,98.4 172.3,85.7 185.2,67.4 198.1,70.6 211.0,88.5 223.9,77.2 236.8,46.0 249.7,66.8 262.6,76.0 275.4,57.6 288.3,116.0 301.2,154.2 314.1,117.2 327.0,99.8 339.9,88.6 352.8,115.1 365.7,71.9 378.6,50.0 391.5,78.2 404.4,89.5 417.3,91.3 430.2,79.0 443.1,63.6 456.0,104.6 468.9,103.5 481.8,78.3 494.7,116.3 507.6,55.7 520.5,86.2 533.4,94.4 546.3,94.0 559.2,53.5 572.1,72.9 585.0,108.1 597.9,79.4 610.8,100.1 623.7,53.0 636.6,47.0 649.4,84.2 662.3,92.8 675.2,64.4 688.1,98.8 701.0,101.7 713.9,76.2 726.8,84.8 739.7,89.5 752.6,78.2 765.5,72.4 778.4,88.2 791.3,116.0 804.2,62.2 817.1,72.5 830.0,86.8" fill="none" stroke="#2563eb" stroke-width="2"/>
</g>
<g transform="translate(0,1610)">
<text x="82" y="24" font-size="14" font-weight="700">response_length/clip_ratio</text>
<rect x="82" y="46" width="748" height="130" fill="#fafafa" stroke="#ddd"/>
<text x="830" y="24" text-anchor="end" font-size="12" fill="#555">min=-0.5 max=0.5 last=0</text>
<line x1="830" y1="176" x2="82" y2="176" stroke="#777"/>
<line x1="82" y1="176" x2="82" y2="46" stroke="#777"/>
<line x1="82.0" y1="176" x2="82.0" y2="181" stroke="#777"/>
<text x="82.0" y="196" text-anchor="middle" font-size="11" fill="#555">1</text>
<line x1="269.0" y1="176" x2="269.0" y2="181" stroke="#777"/>
<text x="269.0" y="196" text-anchor="middle" font-size="11" fill="#555">15.5</text>
<line x1="456.0" y1="176" x2="456.0" y2="181" stroke="#777"/>
<text x="456.0" y="196" text-anchor="middle" font-size="11" fill="#555">30</text>
<line x1="643.0" y1="176" x2="643.0" y2="181" stroke="#777"/>
<text x="643.0" y="196" text-anchor="middle" font-size="11" fill="#555">44.5</text>
<line x1="830.0" y1="176" x2="830.0" y2="181" stroke="#777"/>
<text x="830.0" y="196" text-anchor="middle" font-size="11" fill="#555">59</text>
<line x1="77" y1="176.0" x2="82" y2="176.0" stroke="#777"/>
<text x="73" y="180.0" text-anchor="end" font-size="11" fill="#555">-0.5</text>
<line x1="77" y1="132.7" x2="82" y2="132.7" stroke="#777"/>
<text x="73" y="136.7" text-anchor="end" font-size="11" fill="#555">-0.167</text>
<line x1="77" y1="89.3" x2="82" y2="89.3" stroke="#777"/>
<text x="73" y="93.3" text-anchor="end" font-size="11" fill="#555">0.167</text>
<line x1="77" y1="46.0" x2="82" y2="46.0" stroke="#777"/>
<text x="73" y="50.0" text-anchor="end" font-size="11" fill="#555">0.5</text>
<text x="456.0" y="218" text-anchor="middle" font-size="12" fill="#444">training step</text>
<text x="16" y="111.0" text-anchor="middle" font-size="12" fill="#444" transform="rotate(-90 16 111.0)">metric value</text>
<polyline points="82.0,111.0 94.9,111.0 107.8,111.0 120.7,111.0 133.6,111.0 146.5,111.0 159.4,111.0 172.3,111.0 185.2,111.0 198.1,111.0 211.0,111.0 223.9,111.0 236.8,111.0 249.7,111.0 262.6,111.0 275.4,111.0 288.3,111.0 301.2,111.0 314.1,111.0 327.0,111.0 339.9,111.0 352.8,111.0 365.7,111.0 378.6,111.0 391.5,111.0 404.4,111.0 417.3,111.0 430.2,111.0 443.1,111.0 456.0,111.0 468.9,111.0 481.8,111.0 494.7,111.0 507.6,111.0 520.5,111.0 533.4,111.0 546.3,111.0 559.2,111.0 572.1,111.0 585.0,111.0 597.9,111.0 610.8,111.0 623.7,111.0 636.6,111.0 649.4,111.0 662.3,111.0 675.2,111.0 688.1,111.0 701.0,111.0 713.9,111.0 726.8,111.0 739.7,111.0 752.6,111.0 765.5,111.0 778.4,111.0 791.3,111.0 804.2,111.0 817.1,111.0 830.0,111.0" fill="none" stroke="#2563eb" stroke-width="2"/>
</g>
<g transform="translate(0,1840)">
<text x="82" y="24" font-size="14" font-weight="700">response_length/max</text>
<rect x="82" y="46" width="748" height="130" fill="#fafafa" stroke="#ddd"/>
<text x="830" y="24" text-anchor="end" font-size="12" fill="#555">min=70 max=306 last=196</text>
<line x1="830" y1="176" x2="82" y2="176" stroke="#777"/>
<line x1="82" y1="176" x2="82" y2="46" stroke="#777"/>
<line x1="82.0" y1="176" x2="82.0" y2="181" stroke="#777"/>
<text x="82.0" y="196" text-anchor="middle" font-size="11" fill="#555">1</text>
<line x1="269.0" y1="176" x2="269.0" y2="181" stroke="#777"/>
<text x="269.0" y="196" text-anchor="middle" font-size="11" fill="#555">15.5</text>
<line x1="456.0" y1="176" x2="456.0" y2="181" stroke="#777"/>
<text x="456.0" y="196" text-anchor="middle" font-size="11" fill="#555">30</text>
<line x1="643.0" y1="176" x2="643.0" y2="181" stroke="#777"/>
<text x="643.0" y="196" text-anchor="middle" font-size="11" fill="#555">44.5</text>
<line x1="830.0" y1="176" x2="830.0" y2="181" stroke="#777"/>
<text x="830.0" y="196" text-anchor="middle" font-size="11" fill="#555">59</text>
<line x1="77" y1="176.0" x2="82" y2="176.0" stroke="#777"/>
<text x="73" y="180.0" text-anchor="end" font-size="11" fill="#555">70</text>
<line x1="77" y1="132.7" x2="82" y2="132.7" stroke="#777"/>
<text x="73" y="136.7" text-anchor="end" font-size="11" fill="#555">149</text>
<line x1="77" y1="89.3" x2="82" y2="89.3" stroke="#777"/>
<text x="73" y="93.3" text-anchor="end" font-size="11" fill="#555">227</text>
<line x1="77" y1="46.0" x2="82" y2="46.0" stroke="#777"/>
<text x="73" y="50.0" text-anchor="end" font-size="11" fill="#555">306</text>
<text x="456.0" y="218" text-anchor="middle" font-size="12" fill="#444">training step</text>
<text x="16" y="111.0" text-anchor="middle" font-size="12" fill="#444" transform="rotate(-90 16 111.0)">metric value</text>
<polyline points="82.0,169.4 94.9,173.2 107.8,92.3 120.7,98.3 133.6,99.4 146.5,72.4 159.4,142.4 172.3,156.7 185.2,92.8 198.1,107.7 211.0,99.4 223.9,165.0 236.8,95.0 249.7,91.2 262.6,95.6 275.4,102.2 288.3,154.5 301.2,90.1 314.1,176.0 327.0,167.2 339.9,158.9 352.8,167.7 365.7,65.3 378.6,84.6 391.5,107.7 404.4,93.4 417.3,96.1 430.2,166.6 443.1,164.4 456.0,91.2 468.9,167.2 481.8,87.3 494.7,176.0 507.6,165.5 520.5,150.1 533.4,85.7 546.3,73.5 559.2,168.8 572.1,149.0 585.0,102.2 597.9,108.8 610.8,162.2 623.7,96.1 636.6,104.4 649.4,154.5 662.3,164.4 675.2,103.3 688.1,110.4 701.0,109.9 713.9,166.6 726.8,166.1 739.7,110.4 752.6,110.4 765.5,173.2 778.4,46.0 791.3,166.1 804.2,166.1 817.1,110.4 830.0,106.6" fill="none" stroke="#2563eb" stroke-width="2"/>
</g>
<g transform="translate(0,2070)">
<text x="82" y="24" font-size="14" font-weight="700">response_length/mean</text>
<rect x="82" y="46" width="748" height="130" fill="#fafafa" stroke="#ddd"/>
<text x="830" y="24" text-anchor="end" font-size="12" fill="#555">min=52.5 max=216.9 last=124.3</text>
<line x1="830" y1="176" x2="82" y2="176" stroke="#777"/>
<line x1="82" y1="176" x2="82" y2="46" stroke="#777"/>
<line x1="82.0" y1="176" x2="82.0" y2="181" stroke="#777"/>
<text x="82.0" y="196" text-anchor="middle" font-size="11" fill="#555">1</text>
<line x1="269.0" y1="176" x2="269.0" y2="181" stroke="#777"/>
<text x="269.0" y="196" text-anchor="middle" font-size="11" fill="#555">15.5</text>
<line x1="456.0" y1="176" x2="456.0" y2="181" stroke="#777"/>
<text x="456.0" y="196" text-anchor="middle" font-size="11" fill="#555">30</text>
<line x1="643.0" y1="176" x2="643.0" y2="181" stroke="#777"/>
<text x="643.0" y="196" text-anchor="middle" font-size="11" fill="#555">44.5</text>
<line x1="830.0" y1="176" x2="830.0" y2="181" stroke="#777"/>
<text x="830.0" y="196" text-anchor="middle" font-size="11" fill="#555">59</text>
<line x1="77" y1="176.0" x2="82" y2="176.0" stroke="#777"/>
<text x="73" y="180.0" text-anchor="end" font-size="11" fill="#555">52.5</text>
<line x1="77" y1="132.7" x2="82" y2="132.7" stroke="#777"/>
<text x="73" y="136.7" text-anchor="end" font-size="11" fill="#555">107</text>
<line x1="77" y1="89.3" x2="82" y2="89.3" stroke="#777"/>
<text x="73" y="93.3" text-anchor="end" font-size="11" fill="#555">162</text>
<line x1="77" y1="46.0" x2="82" y2="46.0" stroke="#777"/>
<text x="73" y="50.0" text-anchor="end" font-size="11" fill="#555">217</text>
<text x="456.0" y="218" text-anchor="middle" font-size="12" fill="#444">training step</text>
<text x="16" y="111.0" text-anchor="middle" font-size="12" fill="#444" transform="rotate(-90 16 111.0)">metric value</text>
<polyline points="82.0,163.0 94.9,160.7 107.8,112.5 120.7,95.5 133.6,110.2 146.5,46.0 159.4,139.9 172.3,149.2 185.2,104.1 198.1,100.1 211.0,107.0 223.9,152.0 236.8,55.6 249.7,96.3 262.6,109.8 275.4,105.8 288.3,147.5 301.2,93.9 314.1,164.4 327.0,152.3 339.9,146.6 352.8,156.2 365.7,92.0 378.6,52.1 391.5,108.6 404.4,96.1 417.3,103.8 430.2,152.7 443.1,152.1 456.0,119.2 468.9,153.5 481.8,79.5 494.7,170.3 507.6,148.8 520.5,140.8 533.4,108.5 546.3,96.8 559.2,156.7 572.1,137.4 585.0,117.4 597.9,114.0 610.8,149.9 623.7,64.4 636.6,67.6 649.4,143.8 662.3,150.7 675.2,118.8 688.1,102.6 701.0,112.0 713.9,155.7 726.8,154.6 739.7,119.7 752.6,108.5 765.5,176.0 778.4,97.6 791.3,158.3 804.2,163.1 817.1,120.3 830.0,119.2" fill="none" stroke="#2563eb" stroke-width="2"/>
</g>
<g transform="translate(0,2300)">
<text x="82" y="24" font-size="14" font-weight="700">timing_s/step</text>
<rect x="82" y="46" width="748" height="130" fill="#fafafa" stroke="#ddd"/>
<text x="830" y="24" text-anchor="end" font-size="12" fill="#555">min=95.32 max=129.9 last=99.4</text>
<line x1="830" y1="176" x2="82" y2="176" stroke="#777"/>
<line x1="82" y1="176" x2="82" y2="46" stroke="#777"/>
<line x1="82.0" y1="176" x2="82.0" y2="181" stroke="#777"/>
<text x="82.0" y="196" text-anchor="middle" font-size="11" fill="#555">1</text>
<line x1="269.0" y1="176" x2="269.0" y2="181" stroke="#777"/>
<text x="269.0" y="196" text-anchor="middle" font-size="11" fill="#555">15.5</text>
<line x1="456.0" y1="176" x2="456.0" y2="181" stroke="#777"/>
<text x="456.0" y="196" text-anchor="middle" font-size="11" fill="#555">30</text>
<line x1="643.0" y1="176" x2="643.0" y2="181" stroke="#777"/>
<text x="643.0" y="196" text-anchor="middle" font-size="11" fill="#555">44.5</text>
<line x1="830.0" y1="176" x2="830.0" y2="181" stroke="#777"/>
<text x="830.0" y="196" text-anchor="middle" font-size="11" fill="#555">59</text>
<line x1="77" y1="176.0" x2="82" y2="176.0" stroke="#777"/>
<text x="73" y="180.0" text-anchor="end" font-size="11" fill="#555">95.3</text>
<line x1="77" y1="132.7" x2="82" y2="132.7" stroke="#777"/>
<text x="73" y="136.7" text-anchor="end" font-size="11" fill="#555">107</text>
<line x1="77" y1="89.3" x2="82" y2="89.3" stroke="#777"/>
<text x="73" y="93.3" text-anchor="end" font-size="11" fill="#555">118</text>
<line x1="77" y1="46.0" x2="82" y2="46.0" stroke="#777"/>
<text x="73" y="50.0" text-anchor="end" font-size="11" fill="#555">130</text>
<text x="456.0" y="218" text-anchor="middle" font-size="12" fill="#444">training step</text>
<text x="16" y="111.0" text-anchor="middle" font-size="12" fill="#444" transform="rotate(-90 16 111.0)">metric value</text>
<polyline points="82.0,63.5 94.9,174.1 107.8,157.6 120.7,157.5 133.6,159.0 146.5,152.7 159.4,168.7 172.3,171.0 185.2,156.6 198.1,159.1 211.0,158.4 223.9,170.5 236.8,156.5 249.7,155.9 262.6,157.0 275.4,158.4 288.3,171.3 301.2,46.0 314.1,176.0 327.0,173.5 339.9,171.3 352.8,172.2 365.7,149.4 378.6,154.3 391.5,159.6 404.4,155.3 417.3,158.1 430.2,172.8 443.1,172.1 456.0,156.8 468.9,173.2 481.8,154.5 494.7,175.3 507.6,172.6 520.5,169.6 533.4,155.6 546.3,152.6 559.2,173.6 572.1,169.9 585.0,158.4 597.9,161.1 610.8,172.4 623.7,157.5 636.6,159.3 649.4,171.2 662.3,173.6 675.2,159.3 688.1,159.8 701.0,160.4 713.9,172.8 726.8,172.9 739.7,160.6 752.6,158.8 765.5,173.3 778.4,147.7 791.3,173.3 804.2,172.7 817.1,160.5 830.0,160.7" fill="none" stroke="#2563eb" stroke-width="2"/>
</g>
</svg>