<svg xmlns="http://www.w3.org/2000/svg" width="860" height="2990" font-family="Arial, sans-serif">
<rect width="100%" height="100%" fill="white"/>
<g transform="translate(0,0)">
<text x="82" y="24" font-size="14" font-weight="700">actor/grad_norm</text>
<rect x="82" y="46" width="748" height="130" fill="#fafafa" stroke="#ddd"/>
<text x="830" y="24" text-anchor="end" font-size="12" fill="#555">min=0 max=4.277 last=4.277</text>
<line x1="830" y1="176" x2="82" y2="176" stroke="#777"/>
<line x1="82" y1="176" x2="82" y2="46" stroke="#777"/>
<line x1="82.0" y1="176" x2="82.0" y2="181" stroke="#777"/>
<text x="82.0" y="196" text-anchor="middle" font-size="11" fill="#555">1</text>
<line x1="269.0" y1="176" x2="269.0" y2="181" stroke="#777"/>
<text x="269.0" y="196" text-anchor="middle" font-size="11" fill="#555">3.25</text>
<line x1="456.0" y1="176" x2="456.0" y2="181" stroke="#777"/>
<text x="456.0" y="196" text-anchor="middle" font-size="11" fill="#555">5.5</text>
<line x1="643.0" y1="176" x2="643.0" y2="181" stroke="#777"/>
<text x="643.0" y="196" text-anchor="middle" font-size="11" fill="#555">7.75</text>
<line x1="830.0" y1="176" x2="830.0" y2="181" stroke="#777"/>
<text x="830.0" y="196" text-anchor="middle" font-size="11" fill="#555">10</text>
<line x1="77" y1="176.0" x2="82" y2="176.0" stroke="#777"/>
<text x="73" y="180.0" text-anchor="end" font-size="11" fill="#555">0</text>
<line x1="77" y1="132.7" x2="82" y2="132.7" stroke="#777"/>
<text x="73" y="136.7" text-anchor="end" font-size="11" fill="#555">1.43</text>
<line x1="77" y1="89.3" x2="82" y2="89.3" stroke="#777"/>
<text x="73" y="93.3" text-anchor="end" font-size="11" fill="#555">2.85</text>
<line x1="77" y1="46.0" x2="82" y2="46.0" stroke="#777"/>
<text x="73" y="50.0" text-anchor="end" font-size="11" fill="#555">4.28</text>
<text x="456.0" y="218" text-anchor="middle" font-size="12" fill="#444">training step</text>
<text x="16" y="111.0" text-anchor="middle" font-size="12" fill="#444" transform="rotate(-90 16 111.0)">metric value</text>
<polyline points="82.0,94.5 165.1,103.3 248.2,99.8 331.3,176.0 414.4,86.7 497.6,73.3 580.7,49.4 663.8,59.6 746.9,101.8 830.0,46.0" fill="none" stroke="#2563eb" stroke-width="2"/>
</g>
<g transform="translate(0,230)">
<text x="82" y="24" font-size="14" font-weight="700">actor/pg_clipfrac</text>
<rect x="82" y="46" width="748" height="130" fill="#fafafa" stroke="#ddd"/>
<text x="830" y="24" text-anchor="end" font-size="12" fill="#555">min=-0.5 max=0.5 last=0</text>
<line x1="830" y1="176" x2="82" y2="176" stroke="#777"/>
<line x1="82" y1="176" x2="82" y2="46" stroke="#777"/>
<line x1="82.0" y1="176" x2="82.0" y2="181" stroke="#777"/>
<text x="82.0" y="196" text-anchor="middle" font-size="11" fill="#555">1</text>
<line x1="269.0" y1="176" x2="269.0" y2="181" stroke="#777"/>
<text x="269.0" y="196" text-anchor="middle" font-size="11" fill="#555">3.25</text>
<line x1="456.0" y1="176" x2="456.0" y2="181" stroke="#777"/>
<text x="456.0" y="196" text-anchor="middle" font-size="11" fill="#555">5.5</text>
<line x1="643.0" y1="176" x2="643.0" y2="181" stroke="#777"/>
<text x="643.0" y="196" text-anchor="middle" font-size="11" fill="#555">7.75</text>
<line x1="830.0" y1="176" x2="830.0" y2="181" stroke="#777"/>
<text x="830.0" y="196" text-anchor="middle" font-size="11" fill="#555">10</text>
<line x1="77" y1="176.0" x2="82" y2="176.0" stroke="#777"/>
<text x="73" y="180.0" text-anchor="end" font-size="11" fill="#555">-0.5</text>
<line x1="77" y1="132.7" x2="82" y2="132.7" stroke="#777"/>
<text x="73" y="136.7" text-anchor="end" font-size="11" fill="#555">-0.167</text>
<line x1="77" y1="89.3" x2="82" y2="89.3" stroke="#777"/>
<text x="73" y="93.3" text-anchor="end" font-size="11" fill="#555">0.167</text>
<line x1="77" y1="46.0" x2="82" y2="46.0" stroke="#777"/>
<text x="73" y="50.0" text-anchor="end" font-size="11" fill="#555">0.5</text>
<text x="456.0" y="218" text-anchor="middle" font-size="12" fill="#444">training step</text>
<text x="16" y="111.0" text-anchor="middle" font-size="12" fill="#444" transform="rotate(-90 16 111.0)">metric value</text>
<polyline points="82.0,111.0 165.1,111.0 248.2,111.0 331.3,111.0 414.4,111.0 497.6,111.0 580.7,111.0 663.8,111.0 746.9,111.0 830.0,111.0" fill="none" stroke="#2563eb" stroke-width="2"/>
</g>
<g transform="translate(0,460)">
<text x="82" y="24" font-size="14" font-weight="700">actor/pg_clipfrac_lower</text>
<rect x="82" y="46" width="748" height="130" fill="#fafafa" stroke="#ddd"/>
<text x="830" y="24" text-anchor="end" font-size="12" fill="#555">min=-0.5 max=0.5 last=0</text>
<line x1="830" y1="176" x2="82" y2="176" stroke="#777"/>
<line x1="82" y1="176" x2="82" y2="46" stroke="#777"/>
<line x1="82.0" y1="176" x2="82.0" y2="181" stroke="#777"/>
<text x="82.0" y="196" text-anchor="middle" font-size="11" fill="#555">1</text>
<line x1="269.0" y1="176" x2="269.0" y2="181" stroke="#777"/>
<text x="269.0" y="196" text-anchor="middle" font-size="11" fill="#555">3.25</text>
<line x1="456.0" y1="176" x2="456.0" y2="181" stroke="#777"/>
<text x="456.0" y="196" text-anchor="middle" font-size="11" fill="#555">5.5</text>
<line x1="643.0" y1="176" x2="643.0" y2="181" stroke="#777"/>
<text x="643.0" y="196" text-anchor="middle" font-size="11" fill="#555">7.75</text>
<line x1="830.0" y1="176" x2="830.0" y2="181" stroke="#777"/>
<text x="830.0" y="196" text-anchor="middle" font-size="11" fill="#555">10</text>
<line x1="77" y1="176.0" x2="82" y2="176.0" stroke="#777"/>
<text x="73" y="180.0" text-anchor="end" font-size="11" fill="#555">-0.5</text>
<line x1="77" y1="132.7" x2="82" y2="132.7" stroke="#777"/>
<text x="73" y="136.7" text-anchor="end" font-size="11" fill="#555">-0.167</text>
<line x1="77" y1="89.3" x2="82" y2="89.3" stroke="#777"/>
<text x="73" y="93.3" text-anchor="end" font-size="11" fill="#555">0.167</text>
<line x1="77" y1="46.0" x2="82" y2="46.0" stroke="#777"/>
<text x="73" y="50.0" text-anchor="end" font-size="11" fill="#555">0.5</text>
<text x="456.0" y="218" text-anchor="middle" font-size="12" fill="#444">training step</text>
<text x="16" y="111.0" text-anchor="middle" font-size="12" fill="#444" transform="rotate(-90 16 111.0)">metric value</text>
<polyline points="82.0,111.0 165.1,111.0 248.2,111.0 331.3,111.0 414.4,111.0 497.6,111.0 580.7,111.0 663.8,111.0 746.9,111.0 830.0,111.0" fill="none" stroke="#2563eb" stroke-width="2"/>
</g>
<g transform="translate(0,690)">
<text x="82" y="24" font-size="14" font-weight="700">actor/ppo_kl</text>
<rect x="82" y="46" width="748" height="130" fill="#fafafa" stroke="#ddd"/>
<text x="830" y="24" text-anchor="end" font-size="12" fill="#555">min=-0.5 max=0.5 last=0</text>
<line x1="830" y1="176" x2="82" y2="176" stroke="#777"/>
<line x1="82" y1="176" x2="82" y2="46" stroke="#777"/>
<line x1="82.0" y1="176" x2="82.0" y2="181" stroke="#777"/>
<text x="82.0" y="196" text-anchor="middle" font-size="11" fill="#555">1</text>
<line x1="269.0" y1="176" x2="269.0" y2="181" stroke="#777"/>
<text x="269.0" y="196" text-anchor="middle" font-size="11" fill="#555">3.25</text>
<line x1="456.0" y1="176" x2="456.0" y2="181" stroke="#777"/>
<text x="456.0" y="196" text-anchor="middle" font-size="11" fill="#555">5.5</text>
<line x1="643.0" y1="176" x2="643.0" y2="181" stroke="#777"/>
<text x="643.0" y="196" text-anchor="middle" font-size="11" fill="#555">7.75</text>
<line x1="830.0" y1="176" x2="830.0" y2="181" stroke="#777"/>
<text x="830.0" y="196" text-anchor="middle" font-size="11" fill="#555">10</text>
<line x1="77" y1="176.0" x2="82" y2="176.0" stroke="#777"/>
<text x="73" y="180.0" text-anchor="end" font-size="11" fill="#555">-0.5</text>
<line x1="77" y1="132.7" x2="82" y2="132.7" stroke="#777"/>
<text x="73" y="136.7" text-anchor="end" font-size="11" fill="#555">-0.167</text>
<line x1="77" y1="89.3" x2="82" y2="89.3" stroke="#777"/>
<text x="73" y="93.3" text-anchor="end" font-size="11" fill="#555">0.167</text>
<line x1="77" y1="46.0" x2="82" y2="46.0" stroke="#777"/>
<text x="73" y="50.0" text-anchor="end" font-size="11" fill="#555">0.5</text>
<text x="456.0" y="218" text-anchor="middle" font-size="12" fill="#444">training step</text>
<text x="16" y="111.0" text-anchor="middle" font-size="12" fill="#444" transform="rotate(-90 16 111.0)">metric value</text>
<polyline points="82.0,111.0 165.1,111.0 248.2,111.0 331.3,111.0 414.4,111.0 497.6,111.0 580.7,111.0 663.8,111.0 746.9,111.0 830.0,111.0" fill="none" stroke="#2563eb" stroke-width="2"/>
</g>
<g transform="translate(0,920)">
<text x="82" y="24" font-size="14" font-weight="700">critic/score/max</text>
<rect x="82" y="46" width="748" height="130" fill="#fafafa" stroke="#ddd"/>
<text x="830" y="24" text-anchor="end" font-size="12" fill="#555">min=0.46 max=1 last=0.9984</text>
<line x1="830" y1="176" x2="82" y2="176" stroke="#777"/>
<line x1="82" y1="176" x2="82" y2="46" stroke="#777"/>
<line x1="82.0" y1="176" x2="82.0" y2="181" stroke="#777"/>
<text x="82.0" y="196" text-anchor="middle" font-size="11" fill="#555">1</text>
<line x1="269.0" y1="176" x2="269.0" y2="181" stroke="#777"/>
<text x="269.0" y="196" text-anchor="middle" font-size="11" fill="#555">3.25</text>
<line x1="456.0" y1="176" x2="456.0" y2="181" stroke="#777"/>
<text x="456.0" y="196" text-anchor="middle" font-size="11" fill="#555">5.5</text>
<line x1="643.0" y1="176" x2="643.0" y2="181" stroke="#777"/>
<text x="643.0" y="196" text-anchor="middle" font-size="11" fill="#555">7.75</text>
<line x1="830.0" y1="176" x2="830.0" y2="181" stroke="#777"/>
<text x="830.0" y="196" text-anchor="middle" font-size="11" fill="#555">10</text>
<line x1="77" y1="176.0" x2="82" y2="176.0" stroke="#777"/>
<text x="73" y="180.0" text-anchor="end" font-size="11" fill="#555">0.46</text>
<line x1="77" y1="132.7" x2="82" y2="132.7" stroke="#777"/>
<text x="73" y="136.7" text-anchor="end" font-size="11" fill="#555">0.64</text>
<line x1="77" y1="89.3" x2="82" y2="89.3" stroke="#777"/>
<text x="73" y="93.3" text-anchor="end" font-size="11" fill="#555">0.82</text>
<line x1="77" y1="46.0" x2="82" y2="46.0" stroke="#777"/>
<text x="73" y="50.0" text-anchor="end" font-size="11" fill="#555">1</text>
<text x="456.0" y="218" text-anchor="middle" font-size="12" fill="#444">training step</text>
<text x="16" y="111.0" text-anchor="middle" font-size="12" fill="#444" transform="rotate(-90 16 111.0)">metric value</text>
<polyline points="82.0,168.8 165.1,46.0 248.2,176.0 331.3,46.0 414.4,46.0 497.6,176.0 580.7,168.8 663.8,46.0 746.9,176.0 830.0,46.4" fill="none" stroke="#2563eb" stroke-width="2"/>
</g>
<g transform="translate(0,1150)">
<text x="82" y="24" font-size="14" font-weight="700">critic/score/mean</text>
<rect x="82" y="46" width="748" height="130" fill="#fafafa" stroke="#ddd"/>
<text x="830" y="24" text-anchor="end" font-size="12" fill="#555">min=0.2863 max=1 last=0.6836</text>
<line x1="830" y1="176" x2="82" y2="176" stroke="#777"/>
<line x1="82" y1="176" x2="82" y2="46" stroke="#777"/>
<line x1="82.0" y1="176" x2="82.0" y2="181" stroke="#777"/>
<text x="82.0" y="196" text-anchor="middle" font-size="11" fill="#555">1</text>
<line x1="269.0" y1="176" x2="269.0" y2="181" stroke="#777"/>
<text x="269.0" y="196" text-anchor="middle" font-size="11" fill="#555">3.25</text>
<line x1="456.0" y1="176" x2="456.0" y2="181" stroke="#777"/>
<text x="456.0" y="196" text-anchor="middle" font-size="11" fill="#555">5.5</text>
<line x1="643.0" y1="176" x2="643.0" y2="181" stroke="#777"/>
<text x="643.0" y="196" text-anchor="middle" font-size="11" fill="#555">7.75</text>
<line x1="830.0" y1="176" x2="830.0" y2="181" stroke="#777"/>
<text x="830.0" y="196" text-anchor="middle" font-size="11" fill="#555">10</text>
<line x1="77" y1="176.0" x2="82" y2="176.0" stroke="#777"/>
<text x="73" y="180.0" text-anchor="end" font-size="11" fill="#555">0.286</text>
<line x1="77" y1="132.7" x2="82" y2="132.7" stroke="#777"/>
<text x="73" y="136.7" text-anchor="end" font-size="11" fill="#555">0.524</text>
<line x1="77" y1="89.3" x2="82" y2="89.3" stroke="#777"/>
<text x="73" y="93.3" text-anchor="end" font-size="11" fill="#555">0.762</text>
<line x1="77" y1="46.0" x2="82" y2="46.0" stroke="#777"/>
<text x="73" y="50.0" text-anchor="end" font-size="11" fill="#555">1</text>
<text x="456.0" y="218" text-anchor="middle" font-size="12" fill="#444">training step</text>
<text x="16" y="111.0" text-anchor="middle" font-size="12" fill="#444" transform="rotate(-90 16 111.0)">metric value</text>
<polyline points="82.0,153.0 165.1,113.6 248.2,173.0 331.3,46.0 414.4,110.7 497.6,170.1 580.7,155.2 663.8,100.5 746.9,176.0 830.0,103.6" fill="none" stroke="#2563eb" stroke-width="2"/>
</g>
<g transform="translate(0,1380)">
<text x="82" y="24" font-size="14" font-weight="700">critic/score/min</text>
<rect x="82" y="46" width="748" height="130" fill="#fafafa" stroke="#ddd"/>
<text x="830" y="24" text-anchor="end" font-size="12" fill="#555">min=0.16 max=1 last=0.42</text>
<line x1="830" y1="176" x2="82" y2="176" stroke="#777"/>
<line x1="82" y1="176" x2="82" y2="46" stroke="#777"/>
<line x1="82.0" y1="176" x2="82.0" y2="181" stroke="#777"/>
<text x="82.0" y="196" text-anchor="middle" font-size="11" fill="#555">1</text>
<line x1="269.0" y1="176" x2="269.0" y2="181" stroke="#777"/>
<text x="269.0" y="196" text-anchor="middle" font-size="11" fill="#555">3.25</text>
<line x1="456.0" y1="176" x2="456.0" y2="181" stroke="#777"/>
<text x="456.0" y="196" text-anchor="middle" font-size="11" fill="#555">5.5</text>
<line x1="643.0" y1="176" x2="643.0" y2="181" stroke="#777"/>
<text x="643.0" y="196" text-anchor="middle" font-size="11" fill="#555">7.75</text>
<line x1="830.0" y1="176" x2="830.0" y2="181" stroke="#777"/>
<text x="830.0" y="196" text-anchor="middle" font-size="11" fill="#555">10</text>
<line x1="77" y1="176.0" x2="82" y2="176.0" stroke="#777"/>
<text x="73" y="180.0" text-anchor="end" font-size="11" fill="#555">0.16</text>
<line x1="77" y1="132.7" x2="82" y2="132.7" stroke="#777"/>
<text x="73" y="136.7" text-anchor="end" font-size="11" fill="#555">0.44</text>
<line x1="77" y1="89.3" x2="82" y2="89.3" stroke="#777"/>
<text x="73" y="93.3" text-anchor="end" font-size="11" fill="#555">0.72</text>
<line x1="77" y1="46.0" x2="82" y2="46.0" stroke="#777"/>
<text x="73" y="50.0" text-anchor="end" font-size="11" fill="#555">1</text>
<text x="456.0" y="218" text-anchor="middle" font-size="12" fill="#444">training step</text>
<text x="16" y="111.0" text-anchor="middle" font-size="12" fill="#444" transform="rotate(-90 16 111.0)">metric value</text>
<polyline points="82.0,176.0 165.1,176.0 248.2,176.0 331.3,46.0 414.4,176.0 497.6,176.0 580.7,176.0 663.8,176.0 746.9,176.0 830.0,135.8" fill="none" stroke="#2563eb" stroke-width="2"/>
</g>
<g transform="translate(0,1610)">
<text x="82" y="24" font-size="14" font-weight="700">perf/throughput</text>
<rect x="82" y="46" width="748" height="130" fill="#fafafa" stroke="#ddd"/>
<text x="830" y="24" text-anchor="end" font-size="12" fill="#555">min=9.489 max=12.92 last=12.92</text>
<line x1="830" y1="176" x2="82" y2="176" stroke="#777"/>
<line x1="82" y1="176" x2="82" y2="46" stroke="#777"/>
<line x1="82.0" y1="176" x2="82.0" y2="181" stroke="#777"/>
<text x="82.0" y="196" text-anchor="middle" font-size="11" fill="#555">1</text>
<line x1="269.0" y1="176" x2="269.0" y2="181" stroke="#777"/>
<text x="269.0" y="196" text-anchor="middle" font-size="11" fill="#555">3.25</text>
<line x1="456.0" y1="176" x2="456.0" y2="181" stroke="#777"/>
<text x="456.0" y="196" text-anchor="middle" font-size="11" fill="#555">5.5</text>
<line x1="643.0" y1="176" x2="643.0" y2="181" stroke="#777"/>
<text x="643.0" y="196" text-anchor="middle" font-size="11" fill="#555">7.75</text>
<line x1="830.0" y1="176" x2="830.0" y2="181" stroke="#777"/>
<text x="830.0" y="196" text-anchor="middle" font-size="11" fill="#555">10</text>
<line x1="77" y1="176.0" x2="82" y2="176.0" stroke="#777"/>
<text x="73" y="180.0" text-anchor="end" font-size="11" fill="#555">9.49</text>
<line x1="77" y1="132.7" x2="82" y2="132.7" stroke="#777"/>
<text x="73" y="136.7" text-anchor="end" font-size="11" fill="#555">10.6</text>
<line x1="77" y1="89.3" x2="82" y2="89.3" stroke="#777"/>
<text x="73" y="93.3" text-anchor="end" font-size="11" fill="#555">11.8</text>
<line x1="77" y1="46.0" x2="82" y2="46.0" stroke="#777"/>
<text x="73" y="50.0" text-anchor="end" font-size="11" fill="#555">12.9</text>
<text x="456.0" y="218" text-anchor="middle" font-size="12" fill="#444">training step</text>
<text x="16" y="111.0" text-anchor="middle" font-size="12" fill="#444" transform="rotate(-90 16 111.0)">metric value</text>
<polyline points="82.0,176.0 165.1,159.0 248.2,81.2 331.3,170.1 414.4,131.4 497.6,86.6 580.7,130.3 663.8,158.3 746.9,118.7 830.0,46.0" fill="none" stroke="#2563eb" stroke-width="2"/>
</g>
<g transform="translate(0,1840)">
<text x="82" y="24" font-size="14" font-weight="700">response_length/clip_ratio</text>
<rect x="82" y="46" width="748" height="130" fill="#fafafa" stroke="#ddd"/>
<text x="830" y="24" text-anchor="end" font-size="12" fill="#555">min=-0.5 max=0.5 last=0</text>
<line x1="830" y1="176" x2="82" y2="176" stroke="#777"/>
<line x1="82" y1="176" x2="82" y2="46" stroke="#777"/>
<line x1="82.0" y1="176" x2="82.0" y2="181" stroke="#777"/>
<text x="82.0" y="196" text-anchor="middle" font-size="11" fill="#555">1</text>
<line x1="269.0" y1="176" x2="269.0" y2="181" stroke="#777"/>
<text x="269.0" y="196" text-anchor="middle" font-size="11" fill="#555">3.25</text>
<line x1="456.0" y1="176" x2="456.0" y2="181" stroke="#777"/>
<text x="456.0" y="196" text-anchor="middle" font-size="11" fill="#555">5.5</text>
<line x1="643.0" y1="176" x2="643.0" y2="181" stroke="#777"/>
<text x="643.0" y="196" text-anchor="middle" font-size="11" fill="#555">7.75</text>
<line x1="830.0" y1="176" x2="830.0" y2="181" stroke="#777"/>
<text x="830.0" y="196" text-anchor="middle" font-size="11" fill="#555">10</text>
<line x1="77" y1="176.0" x2="82" y2="176.0" stroke="#777"/>
<text x="73" y="180.0" text-anchor="end" font-size="11" fill="#555">-0.5</text>
<line x1="77" y1="132.7" x2="82" y2="132.7" stroke="#777"/>
<text x="73" y="136.7" text-anchor="end" font-size="11" fill="#555">-0.167</text>
<line x1="77" y1="89.3" x2="82" y2="89.3" stroke="#777"/>
<text x="73" y="93.3" text-anchor="end" font-size="11" fill="#555">0.167</text>
<line x1="77" y1="46.0" x2="82" y2="46.0" stroke="#777"/>
<text x="73" y="50.0" text-anchor="end" font-size="11" fill="#555">0.5</text>
<text x="456.0" y="218" text-anchor="middle" font-size="12" fill="#444">training step</text>
<text x="16" y="111.0" text-anchor="middle" font-size="12" fill="#444" transform="rotate(-90 16 111.0)">metric value</text>
<polyline points="82.0,111.0 165.1,111.0 248.2,111.0 331.3,111.0 414.4,111.0 497.6,111.0 580.7,111.0 663.8,111.0 746.9,111.0 830.0,111.0" fill="none" stroke="#2563eb" stroke-width="2"/>
</g>
<g transform="translate(0,2070)">
<text x="82" y="24" font-size="14" font-weight="700">response_length/max</text>
<rect x="82" y="46" width="748" height="130" fill="#fafafa" stroke="#ddd"/>
<text x="830" y="24" text-anchor="end" font-size="12" fill="#555">min=106 max=1069 last=252</text>
<line x1="830" y1="176" x2="82" y2="176" stroke="#777"/>
<line x1="82" y1="176" x2="82" y2="46" stroke="#777"/>
<line x1="82.0" y1="176" x2="82.0" y2="181" stroke="#777"/>
<text x="82.0" y="196" text-anchor="middle" font-size="11" fill="#555">1</text>
<line x1="269.0" y1="176" x2="269.0" y2="181" stroke="#777"/>
<text x="269.0" y="196" text-anchor="middle" font-size="11" fill="#555">3.25</text>
<line x1="456.0" y1="176" x2="456.0" y2="181" stroke="#777"/>
<text x="456.0" y="196" text-anchor="middle" font-size="11" fill="#555">5.5</text>
<line x1="643.0" y1="176" x2="643.0" y2="181" stroke="#777"/>
<text x="643.0" y="196" text-anchor="middle" font-size="11" fill="#555">7.75</text>
<line x1="830.0" y1="176" x2="830.0" y2="181" stroke="#777"/>
<text x="830.0" y="196" text-anchor="middle" font-size="11" fill="#555">10</text>
<line x1="77" y1="176.0" x2="82" y2="176.0" stroke="#777"/>
<text x="73" y="180.0" text-anchor="end" font-size="11" fill="#555">106</text>
<line x1="77" y1="132.7" x2="82" y2="132.7" stroke="#777"/>
<text x="73" y="136.7" text-anchor="end" font-size="11" fill="#555">427</text>
<line x1="77" y1="89.3" x2="82" y2="89.3" stroke="#777"/>
<text x="73" y="93.3" text-anchor="end" font-size="11" fill="#555">748</text>
<line x1="77" y1="46.0" x2="82" y2="46.0" stroke="#777"/>
<text x="73" y="50.0" text-anchor="end" font-size="11" fill="#555">1069</text>
<text x="456.0" y="218" text-anchor="middle" font-size="12" fill="#444">training step</text>
<text x="16" y="111.0" text-anchor="middle" font-size="12" fill="#444" transform="rotate(-90 16 111.0)">metric value</text>
<polyline points="82.0,165.1 165.1,154.7 248.2,154.5 331.3,176.0 414.4,133.2 497.6,164.7 580.7,76.5 663.8,92.0 746.9,46.0 830.0,156.3" fill="none" stroke="#2563eb" stroke-width="2"/>
</g>
<g transform="translate(0,2300)">
<text x="82" y="24" font-size="14" font-weight="700">response_length/mean</text>
<rect x="82" y="46" width="748" height="130" fill="#fafafa" stroke="#ddd"/>
<text x="830" y="24" text-anchor="end" font-size="12" fill="#555">min=86.06 max=264.1 last=200.1</text>
<line x1="830" y1="176" x2="82" y2="176" stroke="#777"/>
<line x1="82" y1="176" x2="82" y2="46" stroke="#777"/>
<line x1="82.0" y1="176" x2="82.0" y2="181" stroke="#777"/>
<text x="82.0" y="196" text-anchor="middle" font-size="11" fill="#555">1</text>
<line x1="269.0" y1="176" x2="269.0" y2="181" stroke="#777"/>
<text x="269.0" y="196" text-anchor="middle" font-size="11" fill="#555">3.25</text>
<line x1="456.0" y1="176" x2="456.0" y2="181" stroke="#777"/>
<text x="456.0" y="196" text-anchor="middle" font-size="11" fill="#555">5.5</text>
<line x1="643.0" y1="176" x2="643.0" y2="181" stroke="#777"/>
<text x="643.0" y="196" text-anchor="middle" font-size="11" fill="#555">7.75</text>
<line x1="830.0" y1="176" x2="830.0" y2="181" stroke="#777"/>
<text x="830.0" y="196" text-anchor="middle" font-size="11" fill="#555">10</text>
<line x1="77" y1="176.0" x2="82" y2="176.0" stroke="#777"/>
<text x="73" y="180.0" text-anchor="end" font-size="11" fill="#555">86.1</text>
<line x1="77" y1="132.7" x2="82" y2="132.7" stroke="#777"/>
<text x="73" y="136.7" text-anchor="end" font-size="11" fill="#555">145</text>
<line x1="77" y1="89.3" x2="82" y2="89.3" stroke="#777"/>
<text x="73" y="93.3" text-anchor="end" font-size="11" fill="#555">205</text>
<line x1="77" y1="46.0" x2="82" y2="46.0" stroke="#777"/>
<text x="73" y="50.0" text-anchor="end" font-size="11" fill="#555">264</text>
<text x="456.0" y="218" text-anchor="middle" font-size="12" fill="#444">training step</text>
<text x="16" y="111.0" text-anchor="middle" font-size="12" fill="#444" transform="rotate(-90 16 111.0)">metric value</text>
<polyline points="82.0,121.9 165.1,154.9 248.2,112.8 331.3,176.0 414.4,111.8 497.6,127.6 580.7,85.4 663.8,111.2 746.9,46.0 830.0,92.8" fill="none" stroke="#2563eb" stroke-width="2"/>
</g>
<g transform="translate(0,2530)">
<text x="82" y="24" font-size="14" font-weight="700">rollout_corr/k3_kl</text>
<rect x="82" y="46" width="748" height="130" fill="#fafafa" stroke="#ddd"/>
<text x="830" y="24" text-anchor="end" font-size="12" fill="#555">min=0.002355 max=0.02758 last=0.007758</text>
<line x1="830" y1="176" x2="82" y2="176" stroke="#777"/>
<line x1="82" y1="176" x2="82" y2="46" stroke="#777"/>
<line x1="82.0" y1="176" x2="82.0" y2="181" stroke="#777"/>
<text x="82.0" y="196" text-anchor="middle" font-size="11" fill="#555">1</text>
<line x1="269.0" y1="176" x2="269.0" y2="181" stroke="#777"/>
<text x="269.0" y="196" text-anchor="middle" font-size="11" fill="#555">3.25</text>
<line x1="456.0" y1="176" x2="456.0" y2="181" stroke="#777"/>
<text x="456.0" y="196" text-anchor="middle" font-size="11" fill="#555">5.5</text>
<line x1="643.0" y1="176" x2="643.0" y2="181" stroke="#777"/>
<text x="643.0" y="196" text-anchor="middle" font-size="11" fill="#555">7.75</text>
<line x1="830.0" y1="176" x2="830.0" y2="181" stroke="#777"/>
<text x="830.0" y="196" text-anchor="middle" font-size="11" fill="#555">10</text>
<line x1="77" y1="176.0" x2="82" y2="176.0" stroke="#777"/>
<text x="73" y="180.0" text-anchor="end" font-size="11" fill="#555">0.00236</text>
<line x1="77" y1="132.7" x2="82" y2="132.7" stroke="#777"/>
<text x="73" y="136.7" text-anchor="end" font-size="11" fill="#555">0.0108</text>
<line x1="77" y1="89.3" x2="82" y2="89.3" stroke="#777"/>
<text x="73" y="93.3" text-anchor="end" font-size="11" fill="#555">0.0192</text>
<line x1="77" y1="46.0" x2="82" y2="46.0" stroke="#777"/>
<text x="73" y="50.0" text-anchor="end" font-size="11" fill="#555">0.0276</text>
<text x="456.0" y="218" text-anchor="middle" font-size="12" fill="#444">training step</text>
<text x="16" y="111.0" text-anchor="middle" font-size="12" fill="#444" transform="rotate(-90 16 111.0)">metric value</text>
<polyline points="82.0,137.1 165.1,165.4 248.2,176.0 331.3,54.5 414.4,166.6 497.6,164.3 580.7,104.2 663.8,132.0 746.9,46.0 830.0,148.2" fill="none" stroke="#2563eb" stroke-width="2"/>
</g>
<g transform="translate(0,2760)">
<text x="82" y="24" font-size="14" font-weight="700">timing_s/step</text>
<rect x="82" y="46" width="748" height="130" fill="#fafafa" stroke="#ddd"/>
<text x="830" y="24" text-anchor="end" font-size="12" fill="#555">min=96.23 max=127.5 last=101.3</text>
<line x1="830" y1="176" x2="82" y2="176" stroke="#777"/>
<line x1="82" y1="176" x2="82" y2="46" stroke="#777"/>
<line x1="82.0" y1="176" x2="82.0" y2="181" stroke="#777"/>
<text x="82.0" y="196" text-anchor="middle" font-size="11" fill="#555">1</text>
<line x1="269.0" y1="176" x2="269.0" y2="181" stroke="#777"/>
<text x="269.0" y="196" text-anchor="middle" font-size="11" fill="#555">3.25</text>
<line x1="456.0" y1="176" x2="456.0" y2="181" stroke="#777"/>
<text x="456.0" y="196" text-anchor="middle" font-size="11" fill="#555">5.5</text>
<line x1="643.0" y1="176" x2="643.0" y2="181" stroke="#777"/>
<text x="643.0" y="196" text-anchor="middle" font-size="11" fill="#555">7.75</text>
<line x1="830.0" y1="176" x2="830.0" y2="181" stroke="#777"/>
<text x="830.0" y="196" text-anchor="middle" font-size="11" fill="#555">10</text>
<line x1="77" y1="176.0" x2="82" y2="176.0" stroke="#777"/>
<text x="73" y="180.0" text-anchor="end" font-size="11" fill="#555">96.2</text>
<line x1="77" y1="132.7" x2="82" y2="132.7" stroke="#777"/>
<text x="73" y="136.7" text-anchor="end" font-size="11" fill="#555">107</text>
<line x1="77" y1="89.3" x2="82" y2="89.3" stroke="#777"/>
<text x="73" y="93.3" text-anchor="end" font-size="11" fill="#555">117</text>
<line x1="77" y1="46.0" x2="82" y2="46.0" stroke="#777"/>
<text x="73" y="50.0" text-anchor="end" font-size="11" fill="#555">127</text>
<text x="456.0" y="218" text-anchor="middle" font-size="12" fill="#444">training step</text>
<text x="16" y="111.0" text-anchor="middle" font-size="12" fill="#444" transform="rotate(-90 16 111.0)">metric value</text>
<polyline points="82.0,58.8 165.1,155.2 248.2,155.4 331.3,176.0 414.4,134.5 497.6,164.5 580.7,77.9 663.8,92.9 746.9,46.0 830.0,154.7" fill="none" stroke="#2563eb" stroke-width="2"/>
</g>
</svg>