<svg xmlns="http://www.w3.org/2000/svg" width="980" height="3478" font-family="Arial, sans-serif">
<rect width="100%" height="100%" fill="white"/>
<text x="24" y="28" font-size="18" font-weight="700">e2_curves/metrics/qwen3_8b_grpo_e2_yunwu_semantic_judge_base.metrics.jsonl</text>
<text x="24" y="48" font-size="12" fill="#64748b">rows=120 keys=18</text>
<g transform="translate(0,58)">
<text x="92" y="22" font-size="13" font-weight="700">critic/score/mean</text>
<rect x="92" y="42" width="860" height="102" fill="#fafafa" stroke="#e2e8f0"/>
<line x1="92.0" y1="42" x2="92.0" y2="144" stroke="#e5e7eb"/>
<text x="92.0" y="162" text-anchor="middle" font-size="10" fill="#64748b">1</text>
<line x1="307.0" y1="42" x2="307.0" y2="144" stroke="#e5e7eb"/>
<text x="307.0" y="162" text-anchor="middle" font-size="10" fill="#64748b">30.8</text>
<line x1="522.0" y1="42" x2="522.0" y2="144" stroke="#e5e7eb"/>
<text x="522.0" y="162" text-anchor="middle" font-size="10" fill="#64748b">60.5</text>
<line x1="737.0" y1="42" x2="737.0" y2="144" stroke="#e5e7eb"/>
<text x="737.0" y="162" text-anchor="middle" font-size="10" fill="#64748b">90.2</text>
<line x1="952.0" y1="42" x2="952.0" y2="144" stroke="#e5e7eb"/>
<text x="952.0" y="162" text-anchor="middle" font-size="10" fill="#64748b">120</text>
<line x1="92" y1="144.0" x2="952" y2="144.0" stroke="#e5e7eb"/>
<text x="84" y="148.0" text-anchor="end" font-size="10" fill="#64748b">0.0159</text>
<line x1="92" y1="110.0" x2="952" y2="110.0" stroke="#e5e7eb"/>
<text x="84" y="114.0" text-anchor="end" font-size="10" fill="#64748b">0.225</text>
<line x1="92" y1="76.0" x2="952" y2="76.0" stroke="#e5e7eb"/>
<text x="84" y="80.0" text-anchor="end" font-size="10" fill="#64748b">0.434</text>
<line x1="92" y1="42.0" x2="952" y2="42.0" stroke="#e5e7eb"/>
<text x="84" y="46.0" text-anchor="end" font-size="10" fill="#64748b">0.643</text>
<polyline points="92.0,115.1 99.2,140.2 106.5,140.9 113.7,134.5 120.9,111.4 128.1,74.5 135.4,101.6 142.6,136.2 149.8,140.9 157.0,106.2 164.3,133.8 171.5,116.1 178.7,140.0 185.9,141.5 193.2,89.0 200.4,61.8 207.6,131.4 214.9,140.4 222.1,89.6 229.3,113.1 236.5,63.2 243.8,104.9 251.0,116.4 258.2,42.0 265.4,96.6 272.7,105.3 279.9,84.0 287.1,105.5 294.4,89.1 301.6,117.5 308.8,103.9 316.0,113.2 323.3,109.5 330.5,85.1 337.7,78.6 344.9,112.2 352.2,108.2 359.4,112.6 366.6,80.9 373.8,82.0 381.1,115.2 388.3,50.8 395.5,102.9 402.8,68.7 410.0,98.1 417.2,78.6 424.4,58.6 431.7,85.4 438.9,95.2 446.1,76.8 453.3,120.9 460.6,110.0 467.8,108.0 475.0,45.0 482.3,117.0 489.5,100.5 496.7,131.0 503.9,92.2 511.2,144.0 518.4,70.2 525.6,118.1 532.8,116.6 540.1,142.3 547.3,95.4 554.5,79.6 561.7,114.1 569.0,113.1 576.2,124.0 583.4,102.3 590.7,135.4 597.9,92.9 605.1,115.1 612.3,106.7 619.6,122.1 626.8,61.2 634.0,81.5 641.2,95.1 648.5,55.9 655.7,87.3 662.9,73.7 670.2,92.6 677.4,79.8 684.6,81.7 691.8,61.1 699.1,110.6 706.3,97.1 713.5,85.8 720.7,55.8 728.0,85.5 735.2,68.5 742.4,76.7 749.6,88.2 756.9,98.3 764.1,99.1 771.3,112.6 778.6,92.8 785.8,82.6 793.0,119.2 800.2,121.0 807.5,109.8 814.7,86.9 821.9,91.3 829.1,106.9 836.4,55.4 843.6,75.4 850.8,117.3 858.1,62.5 865.3,96.1 872.5,94.2 879.7,48.9 887.0,81.5 894.2,94.3 901.4,99.2 908.6,44.6 915.9,89.0 923.1,96.8 930.3,110.9 937.5,88.2 944.8,116.3 952.0,109.3" fill="none" stroke="#2563eb" stroke-width="2"/>
<text x="952" y="22" text-anchor="end" font-size="11" fill="#64748b">min=0.01594 max=0.6425 last=0.2294</text>
</g>
<g transform="translate(0,248)">
<text x="92" y="22" font-size="13" font-weight="700">timing_s/agent_loop/compute_score/mean</text>
<rect x="92" y="42" width="860" height="102" fill="#fafafa" stroke="#e2e8f0"/>
<line x1="92.0" y1="42" x2="92.0" y2="144" stroke="#e5e7eb"/>
<text x="92.0" y="162" text-anchor="middle" font-size="10" fill="#64748b">1</text>
<line x1="307.0" y1="42" x2="307.0" y2="144" stroke="#e5e7eb"/>
<text x="307.0" y="162" text-anchor="middle" font-size="10" fill="#64748b">30.8</text>
<line x1="522.0" y1="42" x2="522.0" y2="144" stroke="#e5e7eb"/>
<text x="522.0" y="162" text-anchor="middle" font-size="10" fill="#64748b">60.5</text>
<line x1="737.0" y1="42" x2="737.0" y2="144" stroke="#e5e7eb"/>
<text x="737.0" y="162" text-anchor="middle" font-size="10" fill="#64748b">90.2</text>
<line x1="952.0" y1="42" x2="952.0" y2="144" stroke="#e5e7eb"/>
<text x="952.0" y="162" text-anchor="middle" font-size="10" fill="#64748b">120</text>
<line x1="92" y1="144.0" x2="952" y2="144.0" stroke="#e5e7eb"/>
<text x="84" y="148.0" text-anchor="end" font-size="10" fill="#64748b">9.33</text>
<line x1="92" y1="110.0" x2="952" y2="110.0" stroke="#e5e7eb"/>
<text x="84" y="114.0" text-anchor="end" font-size="10" fill="#64748b">35.6</text>
<line x1="92" y1="76.0" x2="952" y2="76.0" stroke="#e5e7eb"/>
<text x="84" y="80.0" text-anchor="end" font-size="10" fill="#64748b">61.9</text>
<line x1="92" y1="42.0" x2="952" y2="42.0" stroke="#e5e7eb"/>
<text x="84" y="46.0" text-anchor="end" font-size="10" fill="#64748b">88.2</text>
<polyline points="92.0,107.5 99.2,143.7 106.5,144.0 113.7,136.3 120.9,136.6 128.1,132.3 135.4,120.0 142.6,127.0 149.8,132.5 157.0,116.0 164.3,121.3 171.5,126.0 178.7,132.8 185.9,137.2 193.2,123.4 200.4,96.2 207.6,135.4 214.9,134.1 222.1,102.8 229.3,117.2 236.5,136.4 243.8,105.6 251.0,114.1 258.2,125.1 265.4,94.4 272.7,83.6 279.9,120.7 287.1,112.0 294.4,127.6 301.6,130.3 308.8,111.0 316.0,118.8 323.3,121.4 330.5,104.1 337.7,89.8 344.9,124.9 352.2,113.3 359.4,118.5 366.6,107.4 373.8,100.9 381.1,112.5 388.3,115.0 395.5,95.4 402.8,90.7 410.0,136.5 417.2,83.0 424.4,117.3 431.7,74.5 438.9,135.0 446.1,102.7 453.3,130.3 460.6,125.1 467.8,121.5 475.0,65.7 482.3,111.2 489.5,115.5 496.7,115.4 503.9,121.3 511.2,106.5 518.4,111.4 525.6,112.0 532.8,133.8 540.1,120.3 547.3,117.7 554.5,106.2 561.7,122.8 569.0,93.9 576.2,114.2 583.4,123.3 590.7,120.2 597.9,131.4 605.1,120.7 612.3,128.7 619.6,131.9 626.8,129.7 634.0,63.5 641.2,136.8 648.5,136.5 655.7,137.7 662.9,81.6 670.2,115.7 677.4,112.6 684.6,118.7 691.8,126.8 699.1,125.2 706.3,118.6 713.5,125.7 720.7,100.8 728.0,124.1 735.2,133.7 742.4,113.0 749.6,125.0 756.9,110.5 764.1,100.2 771.3,109.4 778.6,119.8 785.8,102.9 793.0,133.0 800.2,93.3 807.5,125.4 814.7,124.0 821.9,116.6 829.1,111.1 836.4,103.1 843.6,123.5 850.8,95.8 858.1,48.7 865.3,42.0 872.5,108.2 879.7,132.0 887.0,104.6 894.2,96.3 901.4,86.4 908.6,107.8 915.9,111.1 923.1,137.1 930.3,133.0 937.5,97.9 944.8,131.1 952.0,126.5" fill="none" stroke="#16a34a" stroke-width="2"/>
<text x="952" y="22" text-anchor="end" font-size="11" fill="#64748b">min=9.327 max=88.23 last=22.87</text>
</g>
<g transform="translate(0,438)">
<text x="92" y="22" font-size="13" font-weight="700">critic/rewards/mean</text>
<rect x="92" y="42" width="860" height="102" fill="#fafafa" stroke="#e2e8f0"/>
<line x1="92.0" y1="42" x2="92.0" y2="144" stroke="#e5e7eb"/>
<text x="92.0" y="162" text-anchor="middle" font-size="10" fill="#64748b">1</text>
<line x1="307.0" y1="42" x2="307.0" y2="144" stroke="#e5e7eb"/>
<text x="307.0" y="162" text-anchor="middle" font-size="10" fill="#64748b">30.8</text>
<line x1="522.0" y1="42" x2="522.0" y2="144" stroke="#e5e7eb"/>
<text x="522.0" y="162" text-anchor="middle" font-size="10" fill="#64748b">60.5</text>
<line x1="737.0" y1="42" x2="737.0" y2="144" stroke="#e5e7eb"/>
<text x="737.0" y="162" text-anchor="middle" font-size="10" fill="#64748b">90.2</text>
<line x1="952.0" y1="42" x2="952.0" y2="144" stroke="#e5e7eb"/>
<text x="952.0" y="162" text-anchor="middle" font-size="10" fill="#64748b">120</text>
<line x1="92" y1="144.0" x2="952" y2="144.0" stroke="#e5e7eb"/>
<text x="84" y="148.0" text-anchor="end" font-size="10" fill="#64748b">0.0159</text>
<line x1="92" y1="110.0" x2="952" y2="110.0" stroke="#e5e7eb"/>
<text x="84" y="114.0" text-anchor="end" font-size="10" fill="#64748b">0.225</text>
<line x1="92" y1="76.0" x2="952" y2="76.0" stroke="#e5e7eb"/>
<text x="84" y="80.0" text-anchor="end" font-size="10" fill="#64748b">0.434</text>
<line x1="92" y1="42.0" x2="952" y2="42.0" stroke="#e5e7eb"/>
<text x="84" y="46.0" text-anchor="end" font-size="10" fill="#64748b">0.643</text>
<polyline points="92.0,115.1 99.2,140.2 106.5,140.9 113.7,134.5 120.9,111.4 128.1,74.5 135.4,101.6 142.6,136.2 149.8,140.9 157.0,106.2 164.3,133.8 171.5,116.1 178.7,140.0 185.9,141.5 193.2,89.0 200.4,61.8 207.6,131.4 214.9,140.4 222.1,89.6 229.3,113.1 236.5,63.2 243.8,104.9 251.0,116.4 258.2,42.0 265.4,96.6 272.7,105.3 279.9,84.0 287.1,105.5 294.4,89.1 301.6,117.5 308.8,103.9 316.0,113.2 323.3,109.5 330.5,85.1 337.7,78.6 344.9,112.2 352.2,108.2 359.4,112.6 366.6,80.9 373.8,82.0 381.1,115.2 388.3,50.8 395.5,102.9 402.8,68.7 410.0,98.1 417.2,78.6 424.4,58.6 431.7,85.4 438.9,95.2 446.1,76.8 453.3,120.9 460.6,110.0 467.8,108.0 475.0,45.0 482.3,117.0 489.5,100.5 496.7,131.0 503.9,92.2 511.2,144.0 518.4,70.2 525.6,118.1 532.8,116.6 540.1,142.3 547.3,95.4 554.5,79.6 561.7,114.1 569.0,113.1 576.2,124.0 583.4,102.3 590.7,135.4 597.9,92.9 605.1,115.1 612.3,106.7 619.6,122.1 626.8,61.2 634.0,81.5 641.2,95.1 648.5,55.9 655.7,87.3 662.9,73.7 670.2,92.6 677.4,79.8 684.6,81.7 691.8,61.1 699.1,110.6 706.3,97.1 713.5,85.8 720.7,55.8 728.0,85.5 735.2,68.5 742.4,76.7 749.6,88.2 756.9,98.3 764.1,99.1 771.3,112.6 778.6,92.8 785.8,82.6 793.0,119.2 800.2,121.0 807.5,109.8 814.7,86.9 821.9,91.3 829.1,106.9 836.4,55.4 843.6,75.4 850.8,117.3 858.1,62.5 865.3,96.1 872.5,94.2 879.7,48.9 887.0,81.5 894.2,94.3 901.4,99.2 908.6,44.6 915.9,89.0 923.1,96.8 930.3,110.9 937.5,88.2 944.8,116.3 952.0,109.3" fill="none" stroke="#dc2626" stroke-width="2"/>
<text x="952" y="22" text-anchor="end" font-size="11" fill="#64748b">min=0.01594 max=0.6425 last=0.2294</text>
</g>
<g transform="translate(0,628)">
<text x="92" y="22" font-size="13" font-weight="700">critic/rewards/max</text>
<rect x="92" y="42" width="860" height="102" fill="#fafafa" stroke="#e2e8f0"/>
<line x1="92.0" y1="42" x2="92.0" y2="144" stroke="#e5e7eb"/>
<text x="92.0" y="162" text-anchor="middle" font-size="10" fill="#64748b">1</text>
<line x1="307.0" y1="42" x2="307.0" y2="144" stroke="#e5e7eb"/>
<text x="307.0" y="162" text-anchor="middle" font-size="10" fill="#64748b">30.8</text>
<line x1="522.0" y1="42" x2="522.0" y2="144" stroke="#e5e7eb"/>
<text x="522.0" y="162" text-anchor="middle" font-size="10" fill="#64748b">60.5</text>
<line x1="737.0" y1="42" x2="737.0" y2="144" stroke="#e5e7eb"/>
<text x="737.0" y="162" text-anchor="middle" font-size="10" fill="#64748b">90.2</text>
<line x1="952.0" y1="42" x2="952.0" y2="144" stroke="#e5e7eb"/>
<text x="952.0" y="162" text-anchor="middle" font-size="10" fill="#64748b">120</text>
<line x1="92" y1="144.0" x2="952" y2="144.0" stroke="#e5e7eb"/>
<text x="84" y="148.0" text-anchor="end" font-size="10" fill="#64748b">0.05</text>
<line x1="92" y1="110.0" x2="952" y2="110.0" stroke="#e5e7eb"/>
<text x="84" y="114.0" text-anchor="end" font-size="10" fill="#64748b">0.367</text>
<line x1="92" y1="76.0" x2="952" y2="76.0" stroke="#e5e7eb"/>
<text x="84" y="80.0" text-anchor="end" font-size="10" fill="#64748b">0.683</text>
<line x1="92" y1="42.0" x2="952" y2="42.0" stroke="#e5e7eb"/>
<text x="84" y="46.0" text-anchor="end" font-size="10" fill="#64748b">1</text>
<polyline points="92.0,100.0 99.2,142.9 106.5,144.0 113.7,118.2 120.9,57.0 128.1,42.0 135.4,87.6 142.6,128.2 149.8,144.0 157.0,62.9 164.3,127.6 171.5,110.7 178.7,144.0 185.9,144.0 193.2,97.8 200.4,65.1 207.6,120.4 214.9,144.0 222.1,101.9 229.3,105.9 236.5,42.0 243.8,98.9 251.0,106.4 258.2,44.1 265.4,42.0 272.7,102.1 279.9,44.1 287.1,100.0 294.4,106.4 301.6,110.7 308.8,43.1 316.0,112.5 323.3,87.1 330.5,98.9 337.7,42.0 344.9,106.4 352.2,97.8 359.4,105.9 366.6,44.1 373.8,57.0 381.1,106.5 388.3,43.1 395.5,110.7 402.8,43.1 410.0,110.7 417.2,43.1 424.4,63.5 431.7,97.8 438.9,104.8 446.1,58.1 453.3,111.8 460.6,105.9 467.8,110.7 475.0,43.1 482.3,110.7 489.5,103.7 496.7,122.5 503.9,104.8 511.2,137.6 518.4,43.1 525.6,109.1 532.8,111.8 540.1,131.7 547.3,110.7 554.5,43.1 561.7,110.7 569.0,107.0 576.2,110.7 583.4,93.0 590.7,131.1 597.9,106.4 605.1,110.7 612.3,112.2 619.6,109.4 626.8,42.0 634.0,42.0 641.2,110.7 648.5,65.1 655.7,64.0 662.9,43.1 670.2,43.1 677.4,97.8 684.6,102.9 691.8,64.0 699.1,111.8 706.3,103.7 713.5,106.4 720.7,43.1 728.0,89.8 735.2,65.6 742.4,56.0 749.6,97.8 756.9,90.9 764.1,106.4 771.3,109.6 778.6,97.8 785.8,97.8 793.0,110.7 800.2,110.3 807.5,110.7 814.7,97.8 821.9,98.9 829.1,110.0 836.4,62.9 843.6,64.0 850.8,112.9 858.1,42.0 865.3,43.1 872.5,106.4 879.7,42.0 887.0,86.6 894.2,98.9 901.4,42.0 908.6,43.1 915.9,98.9 923.1,110.7 930.3,110.7 937.5,97.8 944.8,110.7 952.0,110.7" fill="none" stroke="#9333ea" stroke-width="2"/>
<text x="952" y="22" text-anchor="end" font-size="11" fill="#64748b">min=0.05 max=1 last=0.36</text>
</g>
<g transform="translate(0,818)">
<text x="92" y="22" font-size="13" font-weight="700">critic/rewards/min</text>
<rect x="92" y="42" width="860" height="102" fill="#fafafa" stroke="#e2e8f0"/>
<line x1="92.0" y1="42" x2="92.0" y2="144" stroke="#e5e7eb"/>
<text x="92.0" y="162" text-anchor="middle" font-size="10" fill="#64748b">1</text>
<line x1="307.0" y1="42" x2="307.0" y2="144" stroke="#e5e7eb"/>
<text x="307.0" y="162" text-anchor="middle" font-size="10" fill="#64748b">30.8</text>
<line x1="522.0" y1="42" x2="522.0" y2="144" stroke="#e5e7eb"/>
<text x="522.0" y="162" text-anchor="middle" font-size="10" fill="#64748b">60.5</text>
<line x1="737.0" y1="42" x2="737.0" y2="144" stroke="#e5e7eb"/>
<text x="737.0" y="162" text-anchor="middle" font-size="10" fill="#64748b">90.2</text>
<line x1="952.0" y1="42" x2="952.0" y2="144" stroke="#e5e7eb"/>
<text x="952.0" y="162" text-anchor="middle" font-size="10" fill="#64748b">120</text>
<line x1="92" y1="144.0" x2="952" y2="144.0" stroke="#e5e7eb"/>
<text x="84" y="148.0" text-anchor="end" font-size="10" fill="#64748b">0</text>
<line x1="92" y1="110.0" x2="952" y2="110.0" stroke="#e5e7eb"/>
<text x="84" y="114.0" text-anchor="end" font-size="10" fill="#64748b">0.12</text>
<line x1="92" y1="76.0" x2="952" y2="76.0" stroke="#e5e7eb"/>
<text x="84" y="80.0" text-anchor="end" font-size="10" fill="#64748b">0.24</text>
<line x1="92" y1="42.0" x2="952" y2="42.0" stroke="#e5e7eb"/>
<text x="84" y="46.0" text-anchor="end" font-size="10" fill="#64748b">0.36</text>
<polyline points="92.0,144.0 99.2,141.2 106.5,138.3 113.7,144.0 120.9,138.3 128.1,144.0 135.4,137.8 142.6,144.0 149.8,140.0 157.0,138.3 164.3,143.2 171.5,129.8 178.7,138.3 185.9,144.0 193.2,129.8 200.4,43.4 207.6,144.0 214.9,138.3 222.1,98.7 229.3,137.8 236.5,132.7 243.8,144.0 251.0,140.6 258.2,129.8 265.4,144.0 272.7,144.0 279.9,138.3 287.1,129.8 294.4,70.9 301.6,138.3 308.8,129.8 316.0,144.0 323.3,144.0 330.5,82.8 337.7,144.0 344.9,144.0 352.2,144.0 359.4,144.0 366.6,129.8 373.8,129.8 381.1,144.0 388.3,88.8 395.5,129.8 402.8,144.0 410.0,93.0 417.2,144.0 424.4,42.0 431.7,129.8 438.9,129.8 446.1,129.8 453.3,144.0 460.6,129.8 467.8,129.8 475.0,144.0 482.3,129.8 489.5,129.8 496.7,144.0 503.9,90.7 511.2,144.0 518.4,144.0 525.6,129.8 532.8,133.2 540.1,144.0 547.3,129.8 554.5,129.8 561.7,129.8 569.0,144.0 576.2,129.8 583.4,136.1 590.7,144.0 597.9,87.3 605.1,144.0 612.3,129.8 619.6,144.0 626.8,144.0 634.0,144.0 641.2,129.8 648.5,50.5 655.7,144.0 662.9,144.0 670.2,129.8 677.4,50.5 684.6,63.5 691.8,87.3 699.1,144.0 706.3,129.8 713.5,68.1 720.7,52.2 728.0,110.0 735.2,98.7 742.4,108.3 749.6,129.8 756.9,122.5 764.1,111.1 771.3,129.8 778.6,129.8 785.8,64.7 793.0,129.8 800.2,144.0 807.5,129.8 814.7,129.8 821.9,129.8 829.1,142.3 836.4,42.0 843.6,144.0 850.8,129.8 858.1,144.0 865.3,144.0 872.5,96.1 879.7,129.8 887.0,61.8 894.2,129.8 901.4,129.8 908.6,102.1 915.9,129.8 923.1,129.8 930.3,129.8 937.5,93.6 944.8,144.0 952.0,129.8" fill="none" stroke="#ea580c" stroke-width="2"/>
<text x="952" y="22" text-anchor="end" font-size="11" fill="#64748b">min=0 max=0.36 last=0.05</text>
</g>
<g transform="translate(0,1008)">
<text x="92" y="22" font-size="13" font-weight="700">timing_s/reward</text>
<rect x="92" y="42" width="860" height="102" fill="#fafafa" stroke="#e2e8f0"/>
<line x1="92.0" y1="42" x2="92.0" y2="144" stroke="#e5e7eb"/>
<text x="92.0" y="162" text-anchor="middle" font-size="10" fill="#64748b">1</text>
<line x1="307.0" y1="42" x2="307.0" y2="144" stroke="#e5e7eb"/>
<text x="307.0" y="162" text-anchor="middle" font-size="10" fill="#64748b">30.8</text>
<line x1="522.0" y1="42" x2="522.0" y2="144" stroke="#e5e7eb"/>
<text x="522.0" y="162" text-anchor="middle" font-size="10" fill="#64748b">60.5</text>
<line x1="737.0" y1="42" x2="737.0" y2="144" stroke="#e5e7eb"/>
<text x="737.0" y="162" text-anchor="middle" font-size="10" fill="#64748b">90.2</text>
<line x1="952.0" y1="42" x2="952.0" y2="144" stroke="#e5e7eb"/>
<text x="952.0" y="162" text-anchor="middle" font-size="10" fill="#64748b">120</text>
<line x1="92" y1="144.0" x2="952" y2="144.0" stroke="#e5e7eb"/>
<text x="84" y="148.0" text-anchor="end" font-size="10" fill="#64748b">2.79e-05</text>
<line x1="92" y1="110.0" x2="952" y2="110.0" stroke="#e5e7eb"/>
<text x="84" y="114.0" text-anchor="end" font-size="10" fill="#64748b">0.000179</text>
<line x1="92" y1="76.0" x2="952" y2="76.0" stroke="#e5e7eb"/>
<text x="84" y="80.0" text-anchor="end" font-size="10" fill="#64748b">0.000329</text>
<line x1="92" y1="42.0" x2="952" y2="42.0" stroke="#e5e7eb"/>
<text x="84" y="46.0" text-anchor="end" font-size="10" fill="#64748b">0.00048</text>
<polyline points="92.0,144.0 99.2,132.0 106.5,135.5 113.7,127.4 120.9,128.8 128.1,135.4 135.4,121.9 142.6,123.5 149.8,135.5 157.0,125.1 164.3,136.6 171.5,137.6 178.7,139.6 185.9,138.3 193.2,139.0 200.4,140.6 207.6,124.2 214.9,137.9 222.1,128.5 229.3,138.9 236.5,139.6 243.8,132.2 251.0,140.0 258.2,132.5 265.4,128.0 272.7,119.0 279.9,138.7 287.1,132.7 294.4,138.1 301.6,128.5 308.8,135.4 316.0,140.5 323.3,134.0 330.5,124.5 337.7,131.1 344.9,140.5 352.2,125.5 359.4,135.4 366.6,128.3 373.8,132.0 381.1,121.6 388.3,138.8 395.5,135.6 402.8,137.8 410.0,134.2 417.2,135.9 424.4,137.4 431.7,128.4 438.9,135.5 446.1,133.4 453.3,132.7 460.6,132.1 467.8,138.0 475.0,140.3 482.3,134.2 489.5,135.0 496.7,140.3 503.9,131.7 511.2,135.9 518.4,138.9 525.6,135.7 532.8,140.0 540.1,128.2 547.3,140.8 554.5,122.7 561.7,135.6 569.0,139.5 576.2,137.9 583.4,140.4 590.7,108.2 597.9,139.1 605.1,129.7 612.3,137.4 619.6,129.5 626.8,139.7 634.0,134.9 641.2,138.7 648.5,141.0 655.7,131.6 662.9,137.6 670.2,138.8 677.4,129.3 684.6,140.7 691.8,130.1 699.1,139.9 706.3,128.1 713.5,123.0 720.7,130.3 728.0,139.1 735.2,122.2 742.4,131.9 749.6,136.7 756.9,136.9 764.1,135.1 771.3,138.6 778.6,42.0 785.8,54.9 793.0,138.3 800.2,133.6 807.5,137.5 814.7,137.1 821.9,115.6 829.1,127.7 836.4,130.7 843.6,138.1 850.8,137.9 858.1,131.2 865.3,128.3 872.5,138.5 879.7,134.5 887.0,137.8 894.2,138.6 901.4,139.1 908.6,127.6 915.9,137.7 923.1,138.5 930.3,141.2 937.5,138.3 944.8,135.0 952.0,138.6" fill="none" stroke="#0891b2" stroke-width="2"/>
<text x="952" y="22" text-anchor="end" font-size="11" fill="#64748b">min=2.794e-05 max=0.0004802 last=5.196e-05</text>
</g>
<g transform="translate(0,1198)">
<text x="92" y="22" font-size="13" font-weight="700">critic/advantages/max</text>
<rect x="92" y="42" width="860" height="102" fill="#fafafa" stroke="#e2e8f0"/>
<line x1="92.0" y1="42" x2="92.0" y2="144" stroke="#e5e7eb"/>
<text x="92.0" y="162" text-anchor="middle" font-size="10" fill="#64748b">1</text>
<line x1="307.0" y1="42" x2="307.0" y2="144" stroke="#e5e7eb"/>
<text x="307.0" y="162" text-anchor="middle" font-size="10" fill="#64748b">30.8</text>
<line x1="522.0" y1="42" x2="522.0" y2="144" stroke="#e5e7eb"/>
<text x="522.0" y="162" text-anchor="middle" font-size="10" fill="#64748b">60.5</text>
<line x1="737.0" y1="42" x2="737.0" y2="144" stroke="#e5e7eb"/>
<text x="737.0" y="162" text-anchor="middle" font-size="10" fill="#64748b">90.2</text>
<line x1="952.0" y1="42" x2="952.0" y2="144" stroke="#e5e7eb"/>
<text x="952.0" y="162" text-anchor="middle" font-size="10" fill="#64748b">120</text>
<line x1="92" y1="144.0" x2="952" y2="144.0" stroke="#e5e7eb"/>
<text x="84" y="148.0" text-anchor="end" font-size="10" fill="#64748b">0.00186</text>
<line x1="92" y1="110.0" x2="952" y2="110.0" stroke="#e5e7eb"/>
<text x="84" y="114.0" text-anchor="end" font-size="10" fill="#64748b">0.825</text>
<line x1="92" y1="76.0" x2="952" y2="76.0" stroke="#e5e7eb"/>
<text x="84" y="80.0" text-anchor="end" font-size="10" fill="#64748b">1.65</text>
<line x1="92" y1="42.0" x2="952" y2="42.0" stroke="#e5e7eb"/>
<text x="84" y="46.0" text-anchor="end" font-size="10" fill="#64748b">2.47</text>
<polyline points="92.0,86.6 99.2,92.0 106.5,144.0 113.7,74.4 120.9,42.3 128.1,96.4 135.4,42.0 142.6,82.6 149.8,59.5 157.0,82.9 164.3,96.5 171.5,82.9 178.7,66.0 185.9,91.6 193.2,102.2 200.4,99.3 207.6,100.1 214.9,95.5 222.1,89.3 229.3,82.6 236.5,75.2 243.8,102.3 251.0,62.9 258.2,107.2 265.4,52.2 272.7,44.5 279.9,56.5 287.1,86.4 294.4,105.6 301.6,83.4 308.8,79.6 316.0,58.9 323.3,91.0 330.5,88.4 337.7,50.2 344.9,54.2 352.2,85.3 359.4,91.1 366.6,68.3 373.8,84.1 381.1,74.7 388.3,78.1 395.5,96.3 402.8,50.6 410.0,109.8 417.2,84.8 424.4,79.6 431.7,115.6 438.9,103.5 446.1,84.8 453.3,97.3 460.6,92.2 467.8,88.0 475.0,98.7 482.3,45.0 489.5,82.3 496.7,62.0 503.9,61.1 511.2,60.0 518.4,95.3 525.6,91.3 532.8,42.3 540.1,50.1 547.3,118.7 554.5,65.8 561.7,49.5 569.0,73.3 576.2,77.2 583.4,46.6 590.7,78.1 597.9,64.1 605.1,73.4 612.3,93.4 619.6,100.9 626.8,51.4 634.0,88.2 641.2,122.8 648.5,98.0 655.7,52.4 662.9,74.8 670.2,48.0 677.4,75.5 684.6,62.5 691.8,106.1 699.1,94.7 706.3,44.7 713.5,111.8 720.7,88.4 728.0,97.1 735.2,102.0 742.4,48.3 749.6,75.0 756.9,78.5 764.1,81.0 771.3,95.7 778.6,100.5 785.8,106.7 793.0,80.6 800.2,43.4 807.5,69.4 814.7,82.2 821.9,91.8 829.1,59.2 836.4,111.3 843.6,58.4 850.8,81.0 858.1,72.2 865.3,71.6 872.5,86.6 879.7,119.3 887.0,63.8 894.2,95.6 901.4,49.7 908.6,103.0 915.9,89.9 923.1,115.5 930.3,70.1 937.5,65.5 944.8,60.6 952.0,63.6" fill="none" stroke="#4f46e5" stroke-width="2"/>
<text x="952" y="22" text-anchor="end" font-size="11" fill="#64748b">min=0.001859 max=2.473 last=1.951</text>
</g>
<g transform="translate(0,1388)">
<text x="92" y="22" font-size="13" font-weight="700">critic/advantages/mean</text>
<rect x="92" y="42" width="860" height="102" fill="#fafafa" stroke="#e2e8f0"/>
<line x1="92.0" y1="42" x2="92.0" y2="144" stroke="#e5e7eb"/>
<text x="92.0" y="162" text-anchor="middle" font-size="10" fill="#64748b">1</text>
<line x1="307.0" y1="42" x2="307.0" y2="144" stroke="#e5e7eb"/>
<text x="307.0" y="162" text-anchor="middle" font-size="10" fill="#64748b">30.8</text>
<line x1="522.0" y1="42" x2="522.0" y2="144" stroke="#e5e7eb"/>
<text x="522.0" y="162" text-anchor="middle" font-size="10" fill="#64748b">60.5</text>
<line x1="737.0" y1="42" x2="737.0" y2="144" stroke="#e5e7eb"/>
<text x="737.0" y="162" text-anchor="middle" font-size="10" fill="#64748b">90.2</text>
<line x1="952.0" y1="42" x2="952.0" y2="144" stroke="#e5e7eb"/>
<text x="952.0" y="162" text-anchor="middle" font-size="10" fill="#64748b">120</text>
<line x1="92" y1="144.0" x2="952" y2="144.0" stroke="#e5e7eb"/>
<text x="84" y="148.0" text-anchor="end" font-size="10" fill="#64748b">-0.798</text>
<line x1="92" y1="110.0" x2="952" y2="110.0" stroke="#e5e7eb"/>
<text x="84" y="114.0" text-anchor="end" font-size="10" fill="#64748b">-0.507</text>
<line x1="92" y1="76.0" x2="952" y2="76.0" stroke="#e5e7eb"/>
<text x="84" y="80.0" text-anchor="end" font-size="10" fill="#64748b">-0.216</text>
<line x1="92" y1="42.0" x2="952" y2="42.0" stroke="#e5e7eb"/>
<text x="84" y="46.0" text-anchor="end" font-size="10" fill="#64748b">0.0745</text>
<polyline points="92.0,144.0 99.2,50.7 106.5,50.7 113.7,53.5 120.9,61.6 128.1,51.4 135.4,51.7 142.6,50.0 149.8,50.7 157.0,117.4 164.3,53.2 171.5,50.5 178.7,50.7 185.9,50.7 193.2,50.3 200.4,50.7 207.6,50.7 214.9,50.7 222.1,50.8 229.3,115.6 236.5,53.2 243.8,59.4 251.0,52.2 258.2,51.4 265.4,50.7 272.7,101.0 279.9,61.5 287.1,52.0 294.4,50.0 301.6,118.5 308.8,50.7 316.0,54.4 323.3,64.3 330.5,53.7 337.7,51.0 344.9,54.9 352.2,47.8 359.4,57.8 366.6,79.1 373.8,50.6 381.1,85.4 388.3,50.1 395.5,50.7 402.8,50.3 410.0,50.8 417.2,50.7 424.4,50.8 431.7,50.5 438.9,50.7 446.1,50.7 453.3,57.1 460.6,49.2 467.8,52.2 475.0,50.5 482.3,49.0 489.5,50.7 496.7,42.0 503.9,50.8 511.2,49.7 518.4,140.3 525.6,52.2 532.8,50.6 540.1,71.5 547.3,50.0 554.5,54.3 561.7,52.7 569.0,55.6 576.2,50.4 583.4,46.4 590.7,46.1 597.9,42.7 605.1,52.4 612.3,48.2 619.6,143.8 626.8,82.3 634.0,51.5 641.2,50.9 648.5,50.9 655.7,86.8 662.9,51.2 670.2,53.8 677.4,50.5 684.6,53.1 691.8,51.2 699.1,118.0 706.3,50.9 713.5,50.4 720.7,50.6 728.0,49.8 735.2,50.5 742.4,54.9 749.6,52.1 756.9,47.1 764.1,49.5 771.3,59.0 778.6,54.8 785.8,51.1 793.0,50.7 800.2,68.0 807.5,47.3 814.7,50.5 821.9,52.8 829.1,56.1 836.4,50.2 843.6,65.3 850.8,50.7 858.1,63.1 865.3,49.7 872.5,50.8 879.7,50.7 887.0,50.5 894.2,50.3 901.4,51.6 908.6,52.8 915.9,50.7 923.1,50.7 930.3,50.9 937.5,52.5 944.8,57.5 952.0,50.6" fill="none" stroke="#be123c" stroke-width="2"/>
<text x="952" y="22" text-anchor="end" font-size="11" fill="#64748b">min=-0.798 max=0.07448 last=0.000551</text>
</g>
<g transform="translate(0,1578)">
<text x="92" y="22" font-size="13" font-weight="700">critic/advantages/min</text>
<rect x="92" y="42" width="860" height="102" fill="#fafafa" stroke="#e2e8f0"/>
<line x1="92.0" y1="42" x2="92.0" y2="144" stroke="#e5e7eb"/>
<text x="92.0" y="162" text-anchor="middle" font-size="10" fill="#64748b">1</text>
<line x1="307.0" y1="42" x2="307.0" y2="144" stroke="#e5e7eb"/>
<text x="307.0" y="162" text-anchor="middle" font-size="10" fill="#64748b">30.8</text>
<line x1="522.0" y1="42" x2="522.0" y2="144" stroke="#e5e7eb"/>
<text x="522.0" y="162" text-anchor="middle" font-size="10" fill="#64748b">60.5</text>
<line x1="737.0" y1="42" x2="737.0" y2="144" stroke="#e5e7eb"/>
<text x="737.0" y="162" text-anchor="middle" font-size="10" fill="#64748b">90.2</text>
<line x1="952.0" y1="42" x2="952.0" y2="144" stroke="#e5e7eb"/>
<text x="952.0" y="162" text-anchor="middle" font-size="10" fill="#64748b">120</text>
<line x1="92" y1="144.0" x2="952" y2="144.0" stroke="#e5e7eb"/>
<text x="84" y="148.0" text-anchor="end" font-size="10" fill="#64748b">-2.47</text>
<line x1="92" y1="110.0" x2="952" y2="110.0" stroke="#e5e7eb"/>
<text x="84" y="114.0" text-anchor="end" font-size="10" fill="#64748b">-1.65</text>
<line x1="92" y1="76.0" x2="952" y2="76.0" stroke="#e5e7eb"/>
<text x="84" y="80.0" text-anchor="end" font-size="10" fill="#64748b">-0.827</text>
<line x1="92" y1="42.0" x2="952" y2="42.0" stroke="#e5e7eb"/>
<text x="84" y="46.0" text-anchor="end" font-size="10" fill="#64748b">-0.00371</text>
<polyline points="92.0,102.0 99.2,108.7 106.5,42.0 113.7,108.7 120.9,95.4 128.1,99.5 135.4,85.8 142.6,99.4 149.8,126.3 157.0,90.0 164.3,93.6 171.5,109.9 178.7,88.7 185.9,129.3 193.2,138.6 200.4,132.7 207.6,132.2 214.9,107.7 222.1,139.8 229.3,105.5 236.5,123.3 243.8,126.7 251.0,143.0 258.2,125.8 265.4,134.6 272.7,117.4 279.9,119.1 287.1,140.1 294.4,106.8 301.6,98.2 308.8,101.4 316.0,98.9 323.3,95.8 330.5,125.9 337.7,87.0 344.9,143.9 352.2,120.8 359.4,138.6 366.6,131.0 373.8,96.5 381.1,111.9 388.3,99.3 395.5,142.5 402.8,109.5 410.0,114.9 417.2,124.3 424.4,107.8 431.7,143.5 438.9,143.6 446.1,102.8 453.3,123.4 460.6,108.2 467.8,141.5 475.0,128.5 482.3,133.5 489.5,137.6 496.7,86.9 503.9,107.1 511.2,76.2 518.4,118.2 525.6,82.5 532.8,106.4 540.1,75.8 547.3,143.6 554.5,85.8 561.7,93.7 569.0,102.1 576.2,78.9 583.4,138.1 590.7,99.8 597.9,98.1 605.1,114.7 612.3,119.8 619.6,100.7 626.8,143.4 634.0,110.4 641.2,143.8 648.5,135.5 655.7,137.3 662.9,105.6 670.2,86.1 677.4,101.8 684.6,127.3 691.8,141.9 699.1,121.8 706.3,108.3 713.5,144.0 720.7,104.3 728.0,133.9 735.2,135.9 742.4,107.1 749.6,143.9 756.9,97.9 764.1,122.7 771.3,113.9 778.6,113.2 785.8,143.0 793.0,83.0 800.2,97.5 807.5,142.7 814.7,131.8 821.9,132.0 829.1,110.3 836.4,132.4 843.6,111.3 850.8,124.5 858.1,144.0 865.3,144.0 872.5,123.2 879.7,144.0 887.0,109.8 894.2,128.0 901.4,87.5 908.6,144.0 915.9,142.1 923.1,143.7 930.3,143.5 937.5,102.4 944.8,100.2 952.0,141.5" fill="none" stroke="#2563eb" stroke-width="2"/>
<text x="952" y="22" text-anchor="end" font-size="11" fill="#64748b">min=-2.475 max=-0.003711 last=-2.415</text>
</g>
<g transform="translate(0,1768)">
<text x="92" y="22" font-size="13" font-weight="700">actor/grad_norm</text>
<rect x="92" y="42" width="860" height="102" fill="#fafafa" stroke="#e2e8f0"/>
<line x1="92.0" y1="42" x2="92.0" y2="144" stroke="#e5e7eb"/>
<text x="92.0" y="162" text-anchor="middle" font-size="10" fill="#64748b">1</text>
<line x1="307.0" y1="42" x2="307.0" y2="144" stroke="#e5e7eb"/>
<text x="307.0" y="162" text-anchor="middle" font-size="10" fill="#64748b">30.8</text>
<line x1="522.0" y1="42" x2="522.0" y2="144" stroke="#e5e7eb"/>
<text x="522.0" y="162" text-anchor="middle" font-size="10" fill="#64748b">60.5</text>
<line x1="737.0" y1="42" x2="737.0" y2="144" stroke="#e5e7eb"/>
<text x="737.0" y="162" text-anchor="middle" font-size="10" fill="#64748b">90.2</text>
<line x1="952.0" y1="42" x2="952.0" y2="144" stroke="#e5e7eb"/>
<text x="952.0" y="162" text-anchor="middle" font-size="10" fill="#64748b">120</text>
<line x1="92" y1="144.0" x2="952" y2="144.0" stroke="#e5e7eb"/>
<text x="84" y="148.0" text-anchor="end" font-size="10" fill="#64748b">0.00497</text>
<line x1="92" y1="110.0" x2="952" y2="110.0" stroke="#e5e7eb"/>
<text x="84" y="114.0" text-anchor="end" font-size="10" fill="#64748b">4.39</text>
<line x1="92" y1="76.0" x2="952" y2="76.0" stroke="#e5e7eb"/>
<text x="84" y="80.0" text-anchor="end" font-size="10" fill="#64748b">8.78</text>
<line x1="92" y1="42.0" x2="952" y2="42.0" stroke="#e5e7eb"/>
<text x="84" y="46.0" text-anchor="end" font-size="10" fill="#64748b">13.2</text>
<polyline points="92.0,101.3 99.2,134.0 106.5,144.0 113.7,133.6 120.9,126.2 128.1,128.7 135.4,125.0 142.6,126.8 149.8,136.0 157.0,119.7 164.3,133.2 171.5,109.2 178.7,133.2 185.9,130.4 193.2,89.1 200.4,118.7 207.6,120.3 214.9,122.3 222.1,92.0 229.3,123.3 236.5,131.1 243.8,56.1 251.0,135.8 258.2,134.5 265.4,106.0 272.7,104.3 279.9,124.2 287.1,101.6 294.4,118.8 301.6,122.4 308.8,106.5 316.0,94.1 323.3,134.8 330.5,118.1 337.7,108.0 344.9,99.4 352.2,129.9 359.4,106.4 366.6,116.2 373.8,100.5 381.1,112.1 388.3,109.4 395.5,92.1 402.8,95.5 410.0,118.2 417.2,116.6 424.4,116.8 431.7,96.6 438.9,97.3 446.1,112.9 453.3,79.5 460.6,92.5 467.8,121.7 475.0,93.9 482.3,122.9 489.5,112.3 496.7,74.3 503.9,120.5 511.2,134.9 518.4,115.3 525.6,116.7 532.8,91.2 540.1,128.9 547.3,123.4 554.5,78.3 561.7,117.2 569.0,117.5 576.2,96.5 583.4,42.0 590.7,126.6 597.9,95.9 605.1,119.4 612.3,104.8 619.6,120.9 626.8,62.8 634.0,95.7 641.2,119.5 648.5,118.4 655.7,97.7 662.9,121.1 670.2,66.7 677.4,112.1 684.6,124.6 691.8,115.8 699.1,59.7 706.3,106.1 713.5,123.9 720.7,100.7 728.0,93.8 735.2,115.6 742.4,94.0 749.6,117.1 756.9,72.1 764.1,97.8 771.3,81.4 778.6,107.3 785.8,115.4 793.0,118.9 800.2,59.5 807.5,111.7 814.7,96.3 821.9,107.6 829.1,87.1 836.4,110.9 843.6,78.6 850.8,116.0 858.1,55.9 865.3,107.5 872.5,96.0 879.7,112.7 887.0,113.9 894.2,100.4 901.4,107.2 908.6,54.4 915.9,94.5 923.1,117.1 930.3,131.5 937.5,73.2 944.8,68.1 952.0,119.3" fill="none" stroke="#16a34a" stroke-width="2"/>
<text x="952" y="22" text-anchor="end" font-size="11" fill="#64748b">min=0.00497 max=13.17 last=3.191</text>
</g>
<g transform="translate(0,1958)">
<text x="92" y="22" font-size="13" font-weight="700">actor/loss</text>
<rect x="92" y="42" width="860" height="102" fill="#fafafa" stroke="#e2e8f0"/>
<line x1="92.0" y1="42" x2="92.0" y2="144" stroke="#e5e7eb"/>
<text x="92.0" y="162" text-anchor="middle" font-size="10" fill="#64748b">1</text>
<line x1="307.0" y1="42" x2="307.0" y2="144" stroke="#e5e7eb"/>
<text x="307.0" y="162" text-anchor="middle" font-size="10" fill="#64748b">30.8</text>
<line x1="522.0" y1="42" x2="522.0" y2="144" stroke="#e5e7eb"/>
<text x="522.0" y="162" text-anchor="middle" font-size="10" fill="#64748b">60.5</text>
<line x1="737.0" y1="42" x2="737.0" y2="144" stroke="#e5e7eb"/>
<text x="737.0" y="162" text-anchor="middle" font-size="10" fill="#64748b">90.2</text>
<line x1="952.0" y1="42" x2="952.0" y2="144" stroke="#e5e7eb"/>
<text x="952.0" y="162" text-anchor="middle" font-size="10" fill="#64748b">120</text>
<line x1="92" y1="144.0" x2="952" y2="144.0" stroke="#e5e7eb"/>
<text x="84" y="148.0" text-anchor="end" font-size="10" fill="#64748b">-0.0745</text>
<line x1="92" y1="110.0" x2="952" y2="110.0" stroke="#e5e7eb"/>
<text x="84" y="114.0" text-anchor="end" font-size="10" fill="#64748b">0.216</text>
<line x1="92" y1="76.0" x2="952" y2="76.0" stroke="#e5e7eb"/>
<text x="84" y="80.0" text-anchor="end" font-size="10" fill="#64748b">0.507</text>
<line x1="92" y1="42.0" x2="952" y2="42.0" stroke="#e5e7eb"/>
<text x="84" y="46.0" text-anchor="end" font-size="10" fill="#64748b">0.798</text>
<polyline points="92.0,42.0 99.2,135.3 106.5,135.3 113.7,132.5 120.9,124.4 128.1,134.6 135.4,134.3 142.6,136.0 149.8,135.3 157.0,68.6 164.3,132.8 171.5,135.5 178.7,135.3 185.9,135.3 193.2,135.7 200.4,135.3 207.6,135.3 214.9,135.3 222.1,135.2 229.3,70.4 236.5,132.8 243.8,126.6 251.0,133.8 258.2,134.6 265.4,135.3 272.7,85.0 279.9,124.5 287.1,134.0 294.4,136.0 301.6,67.5 308.8,135.3 316.0,131.6 323.3,121.7 330.5,132.3 337.7,135.0 344.9,131.1 352.2,138.2 359.4,128.2 366.6,106.9 373.8,135.4 381.1,100.6 388.3,135.9 395.5,135.3 402.8,135.7 410.0,135.2 417.2,135.3 424.4,135.2 431.7,135.5 438.9,135.3 446.1,135.3 453.3,128.9 460.6,136.8 467.8,133.8 475.0,135.5 482.3,137.0 489.5,135.3 496.7,144.0 503.9,135.2 511.2,136.3 518.4,45.7 525.6,133.8 532.8,135.4 540.1,114.5 547.3,136.0 554.5,131.7 561.7,133.3 569.0,130.4 576.2,135.6 583.4,139.6 590.7,139.9 597.9,143.3 605.1,133.6 612.3,137.8 619.6,42.2 626.8,103.7 634.0,134.5 641.2,135.1 648.5,135.1 655.7,99.2 662.9,134.8 670.2,132.2 677.4,135.5 684.6,132.9 691.8,134.8 699.1,68.0 706.3,135.1 713.5,135.6 720.7,135.4 728.0,136.2 735.2,135.5 742.4,131.1 749.6,133.9 756.9,138.9 764.1,136.5 771.3,127.0 778.6,131.2 785.8,134.9 793.0,135.3 800.2,118.0 807.5,138.7 814.7,135.5 821.9,133.2 829.1,129.9 836.4,135.8 843.6,120.7 850.8,135.3 858.1,122.9 865.3,136.3 872.5,135.2 879.7,135.3 887.0,135.5 894.2,135.7 901.4,134.4 908.6,133.2 915.9,135.3 923.1,135.3 930.3,135.1 937.5,133.5 944.8,128.5 952.0,135.4" fill="none" stroke="#dc2626" stroke-width="2"/>
<text x="952" y="22" text-anchor="end" font-size="11" fill="#64748b">min=-0.07448 max=0.798 last=-0.000551</text>
</g>
<g transform="translate(0,2148)">
<text x="92" y="22" font-size="13" font-weight="700">actor/pg_loss</text>
<rect x="92" y="42" width="860" height="102" fill="#fafafa" stroke="#e2e8f0"/>
<line x1="92.0" y1="42" x2="92.0" y2="144" stroke="#e5e7eb"/>
<text x="92.0" y="162" text-anchor="middle" font-size="10" fill="#64748b">1</text>
<line x1="307.0" y1="42" x2="307.0" y2="144" stroke="#e5e7eb"/>
<text x="307.0" y="162" text-anchor="middle" font-size="10" fill="#64748b">30.8</text>
<line x1="522.0" y1="42" x2="522.0" y2="144" stroke="#e5e7eb"/>
<text x="522.0" y="162" text-anchor="middle" font-size="10" fill="#64748b">60.5</text>
<line x1="737.0" y1="42" x2="737.0" y2="144" stroke="#e5e7eb"/>
<text x="737.0" y="162" text-anchor="middle" font-size="10" fill="#64748b">90.2</text>
<line x1="952.0" y1="42" x2="952.0" y2="144" stroke="#e5e7eb"/>
<text x="952.0" y="162" text-anchor="middle" font-size="10" fill="#64748b">120</text>
<line x1="92" y1="144.0" x2="952" y2="144.0" stroke="#e5e7eb"/>
<text x="84" y="148.0" text-anchor="end" font-size="10" fill="#64748b">-0.0745</text>
<line x1="92" y1="110.0" x2="952" y2="110.0" stroke="#e5e7eb"/>
<text x="84" y="114.0" text-anchor="end" font-size="10" fill="#64748b">0.216</text>
<line x1="92" y1="76.0" x2="952" y2="76.0" stroke="#e5e7eb"/>
<text x="84" y="80.0" text-anchor="end" font-size="10" fill="#64748b">0.507</text>
<line x1="92" y1="42.0" x2="952" y2="42.0" stroke="#e5e7eb"/>
<text x="84" y="46.0" text-anchor="end" font-size="10" fill="#64748b">0.798</text>
<polyline points="92.0,42.0 99.2,135.3 106.5,135.3 113.7,132.5 120.9,124.4 128.1,134.6 135.4,134.3 142.6,136.0 149.8,135.3 157.0,68.6 164.3,132.8 171.5,135.5 178.7,135.3 185.9,135.3 193.2,135.7 200.4,135.3 207.6,135.3 214.9,135.3 222.1,135.2 229.3,70.4 236.5,132.8 243.8,126.6 251.0,133.8 258.2,134.6 265.4,135.3 272.7,85.0 279.9,124.5 287.1,134.0 294.4,136.0 301.6,67.5 308.8,135.3 316.0,131.6 323.3,121.7 330.5,132.3 337.7,135.0 344.9,131.1 352.2,138.2 359.4,128.2 366.6,106.9 373.8,135.4 381.1,100.6 388.3,135.9 395.5,135.3 402.8,135.7 410.0,135.2 417.2,135.3 424.4,135.2 431.7,135.5 438.9,135.3 446.1,135.3 453.3,128.9 460.6,136.8 467.8,133.8 475.0,135.5 482.3,137.0 489.5,135.3 496.7,144.0 503.9,135.2 511.2,136.3 518.4,45.7 525.6,133.8 532.8,135.4 540.1,114.5 547.3,136.0 554.5,131.7 561.7,133.3 569.0,130.4 576.2,135.6 583.4,139.6 590.7,139.9 597.9,143.3 605.1,133.6 612.3,137.8 619.6,42.2 626.8,103.7 634.0,134.5 641.2,135.1 648.5,135.1 655.7,99.2 662.9,134.8 670.2,132.2 677.4,135.5 684.6,132.9 691.8,134.8 699.1,68.0 706.3,135.1 713.5,135.6 720.7,135.4 728.0,136.2 735.2,135.5 742.4,131.1 749.6,133.9 756.9,138.9 764.1,136.5 771.3,127.0 778.6,131.2 785.8,134.9 793.0,135.3 800.2,118.0 807.5,138.7 814.7,135.5 821.9,133.2 829.1,129.9 836.4,135.8 843.6,120.7 850.8,135.3 858.1,122.9 865.3,136.3 872.5,135.2 879.7,135.3 887.0,135.5 894.2,135.7 901.4,134.4 908.6,133.2 915.9,135.3 923.1,135.3 930.3,135.1 937.5,133.5 944.8,128.5 952.0,135.4" fill="none" stroke="#9333ea" stroke-width="2"/>
<text x="952" y="22" text-anchor="end" font-size="11" fill="#64748b">min=-0.07448 max=0.798 last=-0.000551</text>
</g>
<g transform="translate(0,2338)">
<text x="92" y="22" font-size="13" font-weight="700">actor/entropy</text>
<rect x="92" y="42" width="860" height="102" fill="#fafafa" stroke="#e2e8f0"/>
<line x1="92.0" y1="42" x2="92.0" y2="144" stroke="#e5e7eb"/>
<text x="92.0" y="162" text-anchor="middle" font-size="10" fill="#64748b">1</text>
<line x1="307.0" y1="42" x2="307.0" y2="144" stroke="#e5e7eb"/>
<text x="307.0" y="162" text-anchor="middle" font-size="10" fill="#64748b">30.8</text>
<line x1="522.0" y1="42" x2="522.0" y2="144" stroke="#e5e7eb"/>
<text x="522.0" y="162" text-anchor="middle" font-size="10" fill="#64748b">60.5</text>
<line x1="737.0" y1="42" x2="737.0" y2="144" stroke="#e5e7eb"/>
<text x="737.0" y="162" text-anchor="middle" font-size="10" fill="#64748b">90.2</text>
<line x1="952.0" y1="42" x2="952.0" y2="144" stroke="#e5e7eb"/>
<text x="952.0" y="162" text-anchor="middle" font-size="10" fill="#64748b">120</text>
<line x1="92" y1="144.0" x2="952" y2="144.0" stroke="#e5e7eb"/>
<text x="84" y="148.0" text-anchor="end" font-size="10" fill="#64748b">0.0143</text>
<line x1="92" y1="110.0" x2="952" y2="110.0" stroke="#e5e7eb"/>
<text x="84" y="114.0" text-anchor="end" font-size="10" fill="#64748b">0.191</text>
<line x1="92" y1="76.0" x2="952" y2="76.0" stroke="#e5e7eb"/>
<text x="84" y="80.0" text-anchor="end" font-size="10" fill="#64748b">0.367</text>
<line x1="92" y1="42.0" x2="952" y2="42.0" stroke="#e5e7eb"/>
<text x="84" y="46.0" text-anchor="end" font-size="10" fill="#64748b">0.544</text>
<polyline points="92.0,137.3 99.2,140.4 106.5,144.0 113.7,141.3 120.9,140.0 128.1,141.9 135.4,135.9 142.6,140.7 149.8,143.4 157.0,135.0 164.3,138.7 171.5,112.0 178.7,143.9 185.9,143.8 193.2,110.1 200.4,105.0 207.6,143.5 214.9,142.4 222.1,108.1 229.3,140.0 236.5,142.0 243.8,127.8 251.0,142.8 258.2,139.3 265.4,81.7 272.7,127.0 279.9,136.5 287.1,133.0 294.4,125.6 301.6,140.4 308.8,97.8 316.0,121.8 323.3,140.7 330.5,105.3 337.7,84.9 344.9,130.9 352.2,133.7 359.4,130.4 366.6,119.9 373.8,100.7 381.1,120.9 388.3,91.9 395.5,42.6 402.8,47.7 410.0,106.4 417.2,66.7 424.4,87.1 431.7,73.0 438.9,75.0 446.1,90.7 453.3,122.5 460.6,94.8 467.8,99.9 475.0,58.7 482.3,139.2 489.5,95.3 496.7,131.5 503.9,103.6 511.2,141.0 518.4,124.3 525.6,126.8 532.8,109.9 540.1,132.7 547.3,65.3 554.5,83.6 561.7,115.7 569.0,123.9 576.2,106.3 583.4,116.5 590.7,118.0 597.9,86.5 605.1,117.5 612.3,104.4 619.6,136.9 626.8,90.5 634.0,47.0 641.2,79.9 648.5,97.3 655.7,121.6 662.9,42.0 670.2,106.5 677.4,104.0 684.6,102.6 691.8,99.5 699.1,120.0 706.3,45.0 713.5,114.6 720.7,68.8 728.0,103.8 735.2,93.4 742.4,101.3 749.6,92.9 756.9,121.1 764.1,116.3 771.3,120.0 778.6,103.0 785.8,76.7 793.0,91.0 800.2,114.2 807.5,98.4 814.7,117.2 821.9,93.3 829.1,110.3 836.4,98.8 843.6,103.9 850.8,119.8 858.1,67.8 865.3,48.8 872.5,114.7 879.7,48.5 887.0,95.1 894.2,93.5 901.4,100.3 908.6,78.8 915.9,93.7 923.1,92.9 930.3,94.0 937.5,103.9 944.8,92.4 952.0,85.9" fill="none" stroke="#ea580c" stroke-width="2"/>
<text x="952" y="22" text-anchor="end" font-size="11" fill="#64748b">min=0.01426 max=0.5437 last=0.3161</text>
</g>
<g transform="translate(0,2528)">
<text x="92" y="22" font-size="13" font-weight="700">actor/ppo_kl</text>
<rect x="92" y="42" width="860" height="102" fill="#fafafa" stroke="#e2e8f0"/>
<line x1="92.0" y1="42" x2="92.0" y2="144" stroke="#e5e7eb"/>
<text x="92.0" y="162" text-anchor="middle" font-size="10" fill="#64748b">1</text>
<line x1="307.0" y1="42" x2="307.0" y2="144" stroke="#e5e7eb"/>
<text x="307.0" y="162" text-anchor="middle" font-size="10" fill="#64748b">30.8</text>
<line x1="522.0" y1="42" x2="522.0" y2="144" stroke="#e5e7eb"/>
<text x="522.0" y="162" text-anchor="middle" font-size="10" fill="#64748b">60.5</text>
<line x1="737.0" y1="42" x2="737.0" y2="144" stroke="#e5e7eb"/>
<text x="737.0" y="162" text-anchor="middle" font-size="10" fill="#64748b">90.2</text>
<line x1="952.0" y1="42" x2="952.0" y2="144" stroke="#e5e7eb"/>
<text x="952.0" y="162" text-anchor="middle" font-size="10" fill="#64748b">120</text>
<line x1="92" y1="144.0" x2="952" y2="144.0" stroke="#e5e7eb"/>
<text x="84" y="148.0" text-anchor="end" font-size="10" fill="#64748b">-0.5</text>
<line x1="92" y1="110.0" x2="952" y2="110.0" stroke="#e5e7eb"/>
<text x="84" y="114.0" text-anchor="end" font-size="10" fill="#64748b">-0.167</text>
<line x1="92" y1="76.0" x2="952" y2="76.0" stroke="#e5e7eb"/>
<text x="84" y="80.0" text-anchor="end" font-size="10" fill="#64748b">0.167</text>
<line x1="92" y1="42.0" x2="952" y2="42.0" stroke="#e5e7eb"/>
<text x="84" y="46.0" text-anchor="end" font-size="10" fill="#64748b">0.5</text>
<polyline points="92.0,93.0 99.2,93.0 106.5,93.0 113.7,93.0 120.9,93.0 128.1,93.0 135.4,93.0 142.6,93.0 149.8,93.0 157.0,93.0 164.3,93.0 171.5,93.0 178.7,93.0 185.9,93.0 193.2,93.0 200.4,93.0 207.6,93.0 214.9,93.0 222.1,93.0 229.3,93.0 236.5,93.0 243.8,93.0 251.0,93.0 258.2,93.0 265.4,93.0 272.7,93.0 279.9,93.0 287.1,93.0 294.4,93.0 301.6,93.0 308.8,93.0 316.0,93.0 323.3,93.0 330.5,93.0 337.7,93.0 344.9,93.0 352.2,93.0 359.4,93.0 366.6,93.0 373.8,93.0 381.1,93.0 388.3,93.0 395.5,93.0 402.8,93.0 410.0,93.0 417.2,93.0 424.4,93.0 431.7,93.0 438.9,93.0 446.1,93.0 453.3,93.0 460.6,93.0 467.8,93.0 475.0,93.0 482.3,93.0 489.5,93.0 496.7,93.0 503.9,93.0 511.2,93.0 518.4,93.0 525.6,93.0 532.8,93.0 540.1,93.0 547.3,93.0 554.5,93.0 561.7,93.0 569.0,93.0 576.2,93.0 583.4,93.0 590.7,93.0 597.9,93.0 605.1,93.0 612.3,93.0 619.6,93.0 626.8,93.0 634.0,93.0 641.2,93.0 648.5,93.0 655.7,93.0 662.9,93.0 670.2,93.0 677.4,93.0 684.6,93.0 691.8,93.0 699.1,93.0 706.3,93.0 713.5,93.0 720.7,93.0 728.0,93.0 735.2,93.0 742.4,93.0 749.6,93.0 756.9,93.0 764.1,93.0 771.3,93.0 778.6,93.0 785.8,93.0 793.0,93.0 800.2,93.0 807.5,93.0 814.7,93.0 821.9,93.0 829.1,93.0 836.4,93.0 843.6,93.0 850.8,93.0 858.1,93.0 865.3,93.0 872.5,93.0 879.7,93.0 887.0,93.0 894.2,93.0 901.4,93.0 908.6,93.0 915.9,93.0 923.1,93.0 930.3,93.0 937.5,93.0 944.8,93.0 952.0,93.0" fill="none" stroke="#0891b2" stroke-width="2"/>
<text x="952" y="22" text-anchor="end" font-size="11" fill="#64748b">min=-0.5 max=0.5 last=0</text>
</g>
<g transform="translate(0,2718)">
<text x="92" y="22" font-size="13" font-weight="700">actor/pg_clipfrac</text>
<rect x="92" y="42" width="860" height="102" fill="#fafafa" stroke="#e2e8f0"/>
<line x1="92.0" y1="42" x2="92.0" y2="144" stroke="#e5e7eb"/>
<text x="92.0" y="162" text-anchor="middle" font-size="10" fill="#64748b">1</text>
<line x1="307.0" y1="42" x2="307.0" y2="144" stroke="#e5e7eb"/>
<text x="307.0" y="162" text-anchor="middle" font-size="10" fill="#64748b">30.8</text>
<line x1="522.0" y1="42" x2="522.0" y2="144" stroke="#e5e7eb"/>
<text x="522.0" y="162" text-anchor="middle" font-size="10" fill="#64748b">60.5</text>
<line x1="737.0" y1="42" x2="737.0" y2="144" stroke="#e5e7eb"/>
<text x="737.0" y="162" text-anchor="middle" font-size="10" fill="#64748b">90.2</text>
<line x1="952.0" y1="42" x2="952.0" y2="144" stroke="#e5e7eb"/>
<text x="952.0" y="162" text-anchor="middle" font-size="10" fill="#64748b">120</text>
<line x1="92" y1="144.0" x2="952" y2="144.0" stroke="#e5e7eb"/>
<text x="84" y="148.0" text-anchor="end" font-size="10" fill="#64748b">-0.5</text>
<line x1="92" y1="110.0" x2="952" y2="110.0" stroke="#e5e7eb"/>
<text x="84" y="114.0" text-anchor="end" font-size="10" fill="#64748b">-0.167</text>
<line x1="92" y1="76.0" x2="952" y2="76.0" stroke="#e5e7eb"/>
<text x="84" y="80.0" text-anchor="end" font-size="10" fill="#64748b">0.167</text>
<line x1="92" y1="42.0" x2="952" y2="42.0" stroke="#e5e7eb"/>
<text x="84" y="46.0" text-anchor="end" font-size="10" fill="#64748b">0.5</text>
<polyline points="92.0,93.0 99.2,93.0 106.5,93.0 113.7,93.0 120.9,93.0 128.1,93.0 135.4,93.0 142.6,93.0 149.8,93.0 157.0,93.0 164.3,93.0 171.5,93.0 178.7,93.0 185.9,93.0 193.2,93.0 200.4,93.0 207.6,93.0 214.9,93.0 222.1,93.0 229.3,93.0 236.5,93.0 243.8,93.0 251.0,93.0 258.2,93.0 265.4,93.0 272.7,93.0 279.9,93.0 287.1,93.0 294.4,93.0 301.6,93.0 308.8,93.0 316.0,93.0 323.3,93.0 330.5,93.0 337.7,93.0 344.9,93.0 352.2,93.0 359.4,93.0 366.6,93.0 373.8,93.0 381.1,93.0 388.3,93.0 395.5,93.0 402.8,93.0 410.0,93.0 417.2,93.0 424.4,93.0 431.7,93.0 438.9,93.0 446.1,93.0 453.3,93.0 460.6,93.0 467.8,93.0 475.0,93.0 482.3,93.0 489.5,93.0 496.7,93.0 503.9,93.0 511.2,93.0 518.4,93.0 525.6,93.0 532.8,93.0 540.1,93.0 547.3,93.0 554.5,93.0 561.7,93.0 569.0,93.0 576.2,93.0 583.4,93.0 590.7,93.0 597.9,93.0 605.1,93.0 612.3,93.0 619.6,93.0 626.8,93.0 634.0,93.0 641.2,93.0 648.5,93.0 655.7,93.0 662.9,93.0 670.2,93.0 677.4,93.0 684.6,93.0 691.8,93.0 699.1,93.0 706.3,93.0 713.5,93.0 720.7,93.0 728.0,93.0 735.2,93.0 742.4,93.0 749.6,93.0 756.9,93.0 764.1,93.0 771.3,93.0 778.6,93.0 785.8,93.0 793.0,93.0 800.2,93.0 807.5,93.0 814.7,93.0 821.9,93.0 829.1,93.0 836.4,93.0 843.6,93.0 850.8,93.0 858.1,93.0 865.3,93.0 872.5,93.0 879.7,93.0 887.0,93.0 894.2,93.0 901.4,93.0 908.6,93.0 915.9,93.0 923.1,93.0 930.3,93.0 937.5,93.0 944.8,93.0 952.0,93.0" fill="none" stroke="#4f46e5" stroke-width="2"/>
<text x="952" y="22" text-anchor="end" font-size="11" fill="#64748b">min=-0.5 max=0.5 last=0</text>
</g>
<g transform="translate(0,2908)">
<text x="92" y="22" font-size="13" font-weight="700">actor/pg_clipfrac_lower</text>
<rect x="92" y="42" width="860" height="102" fill="#fafafa" stroke="#e2e8f0"/>
<line x1="92.0" y1="42" x2="92.0" y2="144" stroke="#e5e7eb"/>
<text x="92.0" y="162" text-anchor="middle" font-size="10" fill="#64748b">1</text>
<line x1="307.0" y1="42" x2="307.0" y2="144" stroke="#e5e7eb"/>
<text x="307.0" y="162" text-anchor="middle" font-size="10" fill="#64748b">30.8</text>
<line x1="522.0" y1="42" x2="522.0" y2="144" stroke="#e5e7eb"/>
<text x="522.0" y="162" text-anchor="middle" font-size="10" fill="#64748b">60.5</text>
<line x1="737.0" y1="42" x2="737.0" y2="144" stroke="#e5e7eb"/>
<text x="737.0" y="162" text-anchor="middle" font-size="10" fill="#64748b">90.2</text>
<line x1="952.0" y1="42" x2="952.0" y2="144" stroke="#e5e7eb"/>
<text x="952.0" y="162" text-anchor="middle" font-size="10" fill="#64748b">120</text>
<line x1="92" y1="144.0" x2="952" y2="144.0" stroke="#e5e7eb"/>
<text x="84" y="148.0" text-anchor="end" font-size="10" fill="#64748b">-0.5</text>
<line x1="92" y1="110.0" x2="952" y2="110.0" stroke="#e5e7eb"/>
<text x="84" y="114.0" text-anchor="end" font-size="10" fill="#64748b">-0.167</text>
<line x1="92" y1="76.0" x2="952" y2="76.0" stroke="#e5e7eb"/>
<text x="84" y="80.0" text-anchor="end" font-size="10" fill="#64748b">0.167</text>
<line x1="92" y1="42.0" x2="952" y2="42.0" stroke="#e5e7eb"/>
<text x="84" y="46.0" text-anchor="end" font-size="10" fill="#64748b">0.5</text>
<polyline points="92.0,93.0 99.2,93.0 106.5,93.0 113.7,93.0 120.9,93.0 128.1,93.0 135.4,93.0 142.6,93.0 149.8,93.0 157.0,93.0 164.3,93.0 171.5,93.0 178.7,93.0 185.9,93.0 193.2,93.0 200.4,93.0 207.6,93.0 214.9,93.0 222.1,93.0 229.3,93.0 236.5,93.0 243.8,93.0 251.0,93.0 258.2,93.0 265.4,93.0 272.7,93.0 279.9,93.0 287.1,93.0 294.4,93.0 301.6,93.0 308.8,93.0 316.0,93.0 323.3,93.0 330.5,93.0 337.7,93.0 344.9,93.0 352.2,93.0 359.4,93.0 366.6,93.0 373.8,93.0 381.1,93.0 388.3,93.0 395.5,93.0 402.8,93.0 410.0,93.0 417.2,93.0 424.4,93.0 431.7,93.0 438.9,93.0 446.1,93.0 453.3,93.0 460.6,93.0 467.8,93.0 475.0,93.0 482.3,93.0 489.5,93.0 496.7,93.0 503.9,93.0 511.2,93.0 518.4,93.0 525.6,93.0 532.8,93.0 540.1,93.0 547.3,93.0 554.5,93.0 561.7,93.0 569.0,93.0 576.2,93.0 583.4,93.0 590.7,93.0 597.9,93.0 605.1,93.0 612.3,93.0 619.6,93.0 626.8,93.0 634.0,93.0 641.2,93.0 648.5,93.0 655.7,93.0 662.9,93.0 670.2,93.0 677.4,93.0 684.6,93.0 691.8,93.0 699.1,93.0 706.3,93.0 713.5,93.0 720.7,93.0 728.0,93.0 735.2,93.0 742.4,93.0 749.6,93.0 756.9,93.0 764.1,93.0 771.3,93.0 778.6,93.0 785.8,93.0 793.0,93.0 800.2,93.0 807.5,93.0 814.7,93.0 821.9,93.0 829.1,93.0 836.4,93.0 843.6,93.0 850.8,93.0 858.1,93.0 865.3,93.0 872.5,93.0 879.7,93.0 887.0,93.0 894.2,93.0 901.4,93.0 908.6,93.0 915.9,93.0 923.1,93.0 930.3,93.0 937.5,93.0 944.8,93.0 952.0,93.0" fill="none" stroke="#be123c" stroke-width="2"/>
<text x="952" y="22" text-anchor="end" font-size="11" fill="#64748b">min=-0.5 max=0.5 last=0</text>
</g>
<g transform="translate(0,3098)">
<text x="92" y="22" font-size="13" font-weight="700">response_length/clip_ratio</text>
<rect x="92" y="42" width="860" height="102" fill="#fafafa" stroke="#e2e8f0"/>
<line x1="92.0" y1="42" x2="92.0" y2="144" stroke="#e5e7eb"/>
<text x="92.0" y="162" text-anchor="middle" font-size="10" fill="#64748b">1</text>
<line x1="307.0" y1="42" x2="307.0" y2="144" stroke="#e5e7eb"/>
<text x="307.0" y="162" text-anchor="middle" font-size="10" fill="#64748b">30.8</text>
<line x1="522.0" y1="42" x2="522.0" y2="144" stroke="#e5e7eb"/>
<text x="522.0" y="162" text-anchor="middle" font-size="10" fill="#64748b">60.5</text>
<line x1="737.0" y1="42" x2="737.0" y2="144" stroke="#e5e7eb"/>
<text x="737.0" y="162" text-anchor="middle" font-size="10" fill="#64748b">90.2</text>
<line x1="952.0" y1="42" x2="952.0" y2="144" stroke="#e5e7eb"/>
<text x="952.0" y="162" text-anchor="middle" font-size="10" fill="#64748b">120</text>
<line x1="92" y1="144.0" x2="952" y2="144.0" stroke="#e5e7eb"/>
<text x="84" y="148.0" text-anchor="end" font-size="10" fill="#64748b">0</text>
<line x1="92" y1="110.0" x2="952" y2="110.0" stroke="#e5e7eb"/>
<text x="84" y="114.0" text-anchor="end" font-size="10" fill="#64748b">0.333</text>
<line x1="92" y1="76.0" x2="952" y2="76.0" stroke="#e5e7eb"/>
<text x="84" y="80.0" text-anchor="end" font-size="10" fill="#64748b">0.667</text>
<line x1="92" y1="42.0" x2="952" y2="42.0" stroke="#e5e7eb"/>
<text x="84" y="46.0" text-anchor="end" font-size="10" fill="#64748b">1</text>
<polyline points="92.0,105.8 99.2,42.0 106.5,93.0 113.7,93.0 120.9,86.6 128.1,105.8 135.4,99.4 142.6,93.0 149.8,42.0 157.0,112.1 164.3,144.0 171.5,144.0 178.7,93.0 185.9,42.0 193.2,144.0 200.4,144.0 207.6,93.0 214.9,42.0 222.1,144.0 229.3,112.1 236.5,93.0 243.8,144.0 251.0,93.0 258.2,144.0 265.4,144.0 272.7,137.6 279.9,137.6 287.1,144.0 294.4,144.0 301.6,112.1 308.8,144.0 316.0,144.0 323.3,131.2 330.5,144.0 337.7,144.0 344.9,144.0 352.2,144.0 359.4,144.0 366.6,144.0 373.8,144.0 381.1,137.6 388.3,144.0 395.5,144.0 402.8,144.0 410.0,144.0 417.2,144.0 424.4,144.0 431.7,144.0 438.9,144.0 446.1,144.0 453.3,144.0 460.6,144.0 467.8,144.0 475.0,144.0 482.3,144.0 489.5,144.0 496.7,144.0 503.9,144.0 511.2,105.8 518.4,131.2 525.6,144.0 532.8,144.0 540.1,137.6 547.3,144.0 554.5,144.0 561.7,144.0 569.0,144.0 576.2,144.0 583.4,144.0 590.7,144.0 597.9,144.0 605.1,144.0 612.3,144.0 619.6,131.2 626.8,144.0 634.0,144.0 641.2,144.0 648.5,144.0 655.7,137.6 662.9,144.0 670.2,144.0 677.4,144.0 684.6,144.0 691.8,144.0 699.1,144.0 706.3,144.0 713.5,144.0 720.7,144.0 728.0,144.0 735.2,144.0 742.4,144.0 749.6,144.0 756.9,144.0 764.1,144.0 771.3,144.0 778.6,144.0 785.8,144.0 793.0,144.0 800.2,144.0 807.5,144.0 814.7,144.0 821.9,144.0 829.1,144.0 836.4,144.0 843.6,144.0 850.8,144.0 858.1,144.0 865.3,144.0 872.5,144.0 879.7,144.0 887.0,144.0 894.2,144.0 901.4,144.0 908.6,144.0 915.9,144.0 923.1,144.0 930.3,144.0 937.5,144.0 944.8,144.0 952.0,144.0" fill="none" stroke="#2563eb" stroke-width="2"/>
<text x="952" y="22" text-anchor="end" font-size="11" fill="#64748b">min=0 max=1 last=0</text>
</g>
<g transform="translate(0,3288)">
<text x="92" y="22" font-size="13" font-weight="700">response_length/max</text>
<rect x="92" y="42" width="860" height="102" fill="#fafafa" stroke="#e2e8f0"/>
<line x1="92.0" y1="42" x2="92.0" y2="144" stroke="#e5e7eb"/>
<text x="92.0" y="162" text-anchor="middle" font-size="10" fill="#64748b">1</text>
<line x1="307.0" y1="42" x2="307.0" y2="144" stroke="#e5e7eb"/>
<text x="307.0" y="162" text-anchor="middle" font-size="10" fill="#64748b">30.8</text>
<line x1="522.0" y1="42" x2="522.0" y2="144" stroke="#e5e7eb"/>
<text x="522.0" y="162" text-anchor="middle" font-size="10" fill="#64748b">60.5</text>
<line x1="737.0" y1="42" x2="737.0" y2="144" stroke="#e5e7eb"/>
<text x="737.0" y="162" text-anchor="middle" font-size="10" fill="#64748b">90.2</text>
<line x1="952.0" y1="42" x2="952.0" y2="144" stroke="#e5e7eb"/>
<text x="952.0" y="162" text-anchor="middle" font-size="10" fill="#64748b">120</text>
<line x1="92" y1="144.0" x2="952" y2="144.0" stroke="#e5e7eb"/>
<text x="84" y="148.0" text-anchor="end" font-size="10" fill="#64748b">50</text>
<line x1="92" y1="110.0" x2="952" y2="110.0" stroke="#e5e7eb"/>
<text x="84" y="114.0" text-anchor="end" font-size="10" fill="#64748b">375</text>
<line x1="92" y1="76.0" x2="952" y2="76.0" stroke="#e5e7eb"/>
<text x="84" y="80.0" text-anchor="end" font-size="10" fill="#64748b">699</text>
<line x1="92" y1="42.0" x2="952" y2="42.0" stroke="#e5e7eb"/>
<text x="84" y="46.0" text-anchor="end" font-size="10" fill="#64748b">1024</text>
<polyline points="92.0,42.0 99.2,42.0 106.5,42.0 113.7,42.0 120.9,42.0 128.1,42.0 135.4,42.0 142.6,42.0 149.8,42.0 157.0,42.0 164.3,72.0 171.5,140.6 178.7,42.0 185.9,42.0 193.2,141.3 200.4,141.2 207.6,42.0 214.9,42.0 222.1,136.4 229.3,42.0 236.5,42.0 243.8,121.2 251.0,42.0 258.2,77.7 265.4,139.1 272.7,42.0 279.9,42.0 287.1,120.9 294.4,139.0 301.6,42.0 308.8,139.1 316.0,121.3 323.3,42.0 330.5,138.0 337.7,139.1 344.9,111.4 352.2,68.6 359.4,70.1 366.6,79.6 373.8,140.6 381.1,42.0 388.3,141.8 395.5,139.1 402.8,143.2 410.0,142.6 417.2,139.1 424.4,140.5 431.7,142.6 438.9,142.5 446.1,140.6 453.3,138.3 460.6,142.5 467.8,124.7 475.0,139.1 482.3,122.1 489.5,138.7 496.7,130.8 503.9,141.2 511.2,42.0 518.4,42.0 525.6,140.6 532.8,140.6 540.1,42.0 547.3,139.9 554.5,129.3 561.7,119.0 569.0,127.2 576.2,143.7 583.4,139.5 590.7,90.9 597.9,139.0 605.1,83.9 612.3,137.2 619.6,42.0 626.8,118.6 634.0,139.1 641.2,139.0 648.5,141.8 655.7,42.0 662.9,139.1 670.2,137.4 677.4,137.4 684.6,137.4 691.8,140.6 699.1,66.1 706.3,143.4 713.5,137.9 720.7,137.9 728.0,141.4 735.2,141.8 742.4,136.9 749.6,137.4 756.9,137.3 764.1,139.7 771.3,137.5 778.6,136.4 785.8,140.0 793.0,143.4 800.2,136.8 807.5,106.5 814.7,142.3 821.9,138.2 829.1,141.9 836.4,141.3 843.6,126.6 850.8,144.0 858.1,139.3 865.3,139.1 872.5,139.0 879.7,138.6 887.0,140.4 894.2,139.9 901.4,139.0 908.6,140.9 915.9,140.8 923.1,139.0 930.3,132.0 937.5,139.5 944.8,139.0 952.0,140.2" fill="none" stroke="#16a34a" stroke-width="2"/>
<text x="952" y="22" text-anchor="end" font-size="11" fill="#64748b">min=50 max=1024 last=86</text>
</g>
</svg>