<svg xmlns="http://www.w3.org/2000/svg" width="980" height="3478" font-family="Arial, sans-serif">
<rect width="100%" height="100%" fill="white"/>
<text x="24" y="28" font-size="18" font-weight="700">e2_curves/metrics/qwen3_8b_grpo_e2_yunwu_semantic_judge_from_e1.metrics.jsonl</text>
<text x="24" y="48" font-size="12" fill="#64748b">rows=101 keys=18</text>
<g transform="translate(0,58)">
<text x="92" y="22" font-size="13" font-weight="700">critic/score/mean</text>
<rect x="92" y="42" width="860" height="102" fill="#fafafa" stroke="#e2e8f0"/>
<line x1="92.0" y1="42" x2="92.0" y2="144" stroke="#e5e7eb"/>
<text x="92.0" y="162" text-anchor="middle" font-size="10" fill="#64748b">1</text>
<line x1="307.0" y1="42" x2="307.0" y2="144" stroke="#e5e7eb"/>
<text x="307.0" y="162" text-anchor="middle" font-size="10" fill="#64748b">26</text>
<line x1="522.0" y1="42" x2="522.0" y2="144" stroke="#e5e7eb"/>
<text x="522.0" y="162" text-anchor="middle" font-size="10" fill="#64748b">51</text>
<line x1="737.0" y1="42" x2="737.0" y2="144" stroke="#e5e7eb"/>
<text x="737.0" y="162" text-anchor="middle" font-size="10" fill="#64748b">76</text>
<line x1="952.0" y1="42" x2="952.0" y2="144" stroke="#e5e7eb"/>
<text x="952.0" y="162" text-anchor="middle" font-size="10" fill="#64748b">101</text>
<line x1="92" y1="144.0" x2="952" y2="144.0" stroke="#e5e7eb"/>
<text x="84" y="148.0" text-anchor="end" font-size="10" fill="#64748b">0.0312</text>
<line x1="92" y1="110.0" x2="952" y2="110.0" stroke="#e5e7eb"/>
<text x="84" y="114.0" text-anchor="end" font-size="10" fill="#64748b">0.25</text>
<line x1="92" y1="76.0" x2="952" y2="76.0" stroke="#e5e7eb"/>
<text x="84" y="80.0" text-anchor="end" font-size="10" fill="#64748b">0.469</text>
<line x1="92" y1="42.0" x2="952" y2="42.0" stroke="#e5e7eb"/>
<text x="84" y="46.0" text-anchor="end" font-size="10" fill="#64748b">0.688</text>
<polyline points="92.0,120.1 100.6,143.1 109.2,143.0 117.8,136.7 126.4,111.0 135.0,96.6 143.6,105.1 152.2,136.9 160.8,128.4 169.4,100.2 178.0,134.4 186.6,118.1 195.2,143.3 203.8,144.0 212.4,100.7 221.0,82.0 229.6,132.8 238.2,142.8 246.8,92.3 255.4,111.1 264.0,70.7 272.6,117.8 281.2,138.4 289.8,53.4 298.4,84.6 307.0,110.7 315.6,105.3 324.2,107.8 332.8,104.5 341.4,122.6 350.0,107.8 358.6,123.3 367.2,118.7 375.8,103.4 384.4,95.7 393.0,119.1 401.6,114.2 410.2,115.6 418.8,104.0 427.4,104.3 436.0,123.1 444.6,58.8 453.2,84.4 461.8,66.4 470.4,99.8 479.0,62.2 487.6,68.0 496.2,42.0 504.8,96.2 513.4,93.3 522.0,114.7 530.6,106.9 539.2,125.7 547.8,50.8 556.4,115.8 565.0,113.0 573.6,138.6 582.2,95.9 590.8,139.8 599.4,74.3 608.0,116.0 616.6,107.7 625.2,142.6 633.8,98.7 642.4,71.1 651.0,120.5 659.6,117.4 668.2,129.5 676.8,108.9 685.4,137.3 694.0,101.9 702.6,94.6 711.2,104.7 719.8,128.6 728.4,63.8 737.0,43.8 745.6,100.7 754.2,71.1 762.8,100.0 771.4,51.1 780.0,95.9 788.6,70.3 797.2,54.1 805.8,68.8 814.4,75.7 823.0,54.8 831.6,86.8 840.2,45.1 848.8,84.1 857.4,73.0 866.0,67.1 874.6,68.4 883.2,91.0 891.8,107.3 900.4,127.5 909.0,61.7 917.6,82.8 926.2,124.8 934.8,114.8 943.4,116.0 952.0,96.3" fill="none" stroke="#2563eb" stroke-width="2"/>
<text x="952" y="22" text-anchor="end" font-size="11" fill="#64748b">min=0.03125 max=0.6881 last=0.3388</text>
</g>
<g transform="translate(0,248)">
<text x="92" y="22" font-size="13" font-weight="700">timing_s/agent_loop/compute_score/mean</text>
<rect x="92" y="42" width="860" height="102" fill="#fafafa" stroke="#e2e8f0"/>
<line x1="92.0" y1="42" x2="92.0" y2="144" stroke="#e5e7eb"/>
<text x="92.0" y="162" text-anchor="middle" font-size="10" fill="#64748b">1</text>
<line x1="307.0" y1="42" x2="307.0" y2="144" stroke="#e5e7eb"/>
<text x="307.0" y="162" text-anchor="middle" font-size="10" fill="#64748b">26</text>
<line x1="522.0" y1="42" x2="522.0" y2="144" stroke="#e5e7eb"/>
<text x="522.0" y="162" text-anchor="middle" font-size="10" fill="#64748b">51</text>
<line x1="737.0" y1="42" x2="737.0" y2="144" stroke="#e5e7eb"/>
<text x="737.0" y="162" text-anchor="middle" font-size="10" fill="#64748b">76</text>
<line x1="952.0" y1="42" x2="952.0" y2="144" stroke="#e5e7eb"/>
<text x="952.0" y="162" text-anchor="middle" font-size="10" fill="#64748b">101</text>
<line x1="92" y1="144.0" x2="952" y2="144.0" stroke="#e5e7eb"/>
<text x="84" y="148.0" text-anchor="end" font-size="10" fill="#64748b">10.2</text>
<line x1="92" y1="110.0" x2="952" y2="110.0" stroke="#e5e7eb"/>
<text x="84" y="114.0" text-anchor="end" font-size="10" fill="#64748b">34.1</text>
<line x1="92" y1="76.0" x2="952" y2="76.0" stroke="#e5e7eb"/>
<text x="84" y="80.0" text-anchor="end" font-size="10" fill="#64748b">58.1</text>
<line x1="92" y1="42.0" x2="952" y2="42.0" stroke="#e5e7eb"/>
<text x="84" y="46.0" text-anchor="end" font-size="10" fill="#64748b">82.0</text>
<polyline points="92.0,105.9 100.6,128.6 109.2,131.5 117.8,90.1 126.4,93.9 135.0,113.1 143.6,96.8 152.2,55.0 160.8,138.4 169.4,122.1 178.0,106.8 186.6,114.7 195.2,117.5 203.8,126.2 212.4,98.9 221.0,115.8 229.6,123.9 238.2,120.9 246.8,103.9 255.4,72.8 264.0,115.3 272.6,98.4 281.2,120.3 289.8,90.4 298.4,135.7 307.0,80.8 315.6,91.8 324.2,106.2 332.8,76.0 341.4,139.6 350.0,104.2 358.6,103.0 367.2,104.1 375.8,80.9 384.4,113.6 393.0,104.7 401.6,88.5 410.2,117.7 418.8,46.4 427.4,88.8 436.0,81.0 444.6,89.2 453.2,103.1 461.8,80.6 470.4,105.4 479.0,110.6 487.6,119.8 496.2,90.9 504.8,113.4 513.4,42.0 522.0,127.7 530.6,100.8 539.2,106.9 547.8,98.9 556.4,117.7 565.0,96.0 573.6,121.3 582.2,128.1 590.8,125.8 599.4,122.3 608.0,110.3 616.6,128.8 625.2,130.7 633.8,118.3 642.4,130.9 651.0,125.9 659.6,113.0 668.2,130.6 676.8,128.1 685.4,121.5 694.0,131.9 702.6,131.2 711.2,138.6 719.8,132.7 728.4,131.7 737.0,133.0 745.6,139.5 754.2,138.9 762.8,134.3 771.4,122.5 780.0,126.3 788.6,117.3 797.2,130.2 805.8,124.0 814.4,131.4 823.0,144.0 831.6,127.3 840.2,127.3 848.8,131.5 857.4,126.3 866.0,119.1 874.6,127.1 883.2,114.4 891.8,124.5 900.4,127.9 909.0,133.7 917.6,114.7 926.2,139.5 934.8,132.0 943.4,117.7 952.0,131.7" fill="none" stroke="#16a34a" stroke-width="2"/>
<text x="952" y="22" text-anchor="end" font-size="11" fill="#64748b">min=10.19 max=82.04 last=18.86</text>
</g>
<g transform="translate(0,438)">
<text x="92" y="22" font-size="13" font-weight="700">critic/rewards/mean</text>
<rect x="92" y="42" width="860" height="102" fill="#fafafa" stroke="#e2e8f0"/>
<line x1="92.0" y1="42" x2="92.0" y2="144" stroke="#e5e7eb"/>
<text x="92.0" y="162" text-anchor="middle" font-size="10" fill="#64748b">1</text>
<line x1="307.0" y1="42" x2="307.0" y2="144" stroke="#e5e7eb"/>
<text x="307.0" y="162" text-anchor="middle" font-size="10" fill="#64748b">26</text>
<line x1="522.0" y1="42" x2="522.0" y2="144" stroke="#e5e7eb"/>
<text x="522.0" y="162" text-anchor="middle" font-size="10" fill="#64748b">51</text>
<line x1="737.0" y1="42" x2="737.0" y2="144" stroke="#e5e7eb"/>
<text x="737.0" y="162" text-anchor="middle" font-size="10" fill="#64748b">76</text>
<line x1="952.0" y1="42" x2="952.0" y2="144" stroke="#e5e7eb"/>
<text x="952.0" y="162" text-anchor="middle" font-size="10" fill="#64748b">101</text>
<line x1="92" y1="144.0" x2="952" y2="144.0" stroke="#e5e7eb"/>
<text x="84" y="148.0" text-anchor="end" font-size="10" fill="#64748b">0.0312</text>
<line x1="92" y1="110.0" x2="952" y2="110.0" stroke="#e5e7eb"/>
<text x="84" y="114.0" text-anchor="end" font-size="10" fill="#64748b">0.25</text>
<line x1="92" y1="76.0" x2="952" y2="76.0" stroke="#e5e7eb"/>
<text x="84" y="80.0" text-anchor="end" font-size="10" fill="#64748b">0.469</text>
<line x1="92" y1="42.0" x2="952" y2="42.0" stroke="#e5e7eb"/>
<text x="84" y="46.0" text-anchor="end" font-size="10" fill="#64748b">0.688</text>
<polyline points="92.0,120.1 100.6,143.1 109.2,143.0 117.8,136.7 126.4,111.0 135.0,96.6 143.6,105.1 152.2,136.9 160.8,128.4 169.4,100.2 178.0,134.4 186.6,118.1 195.2,143.3 203.8,144.0 212.4,100.7 221.0,82.0 229.6,132.8 238.2,142.8 246.8,92.3 255.4,111.1 264.0,70.7 272.6,117.8 281.2,138.4 289.8,53.4 298.4,84.6 307.0,110.7 315.6,105.3 324.2,107.8 332.8,104.5 341.4,122.6 350.0,107.8 358.6,123.3 367.2,118.7 375.8,103.4 384.4,95.7 393.0,119.1 401.6,114.2 410.2,115.6 418.8,104.0 427.4,104.3 436.0,123.1 444.6,58.8 453.2,84.4 461.8,66.4 470.4,99.8 479.0,62.2 487.6,68.0 496.2,42.0 504.8,96.2 513.4,93.3 522.0,114.7 530.6,106.9 539.2,125.7 547.8,50.8 556.4,115.8 565.0,113.0 573.6,138.6 582.2,95.9 590.8,139.8 599.4,74.3 608.0,116.0 616.6,107.7 625.2,142.6 633.8,98.7 642.4,71.1 651.0,120.5 659.6,117.4 668.2,129.5 676.8,108.9 685.4,137.3 694.0,101.9 702.6,94.6 711.2,104.7 719.8,128.6 728.4,63.8 737.0,43.8 745.6,100.7 754.2,71.1 762.8,100.0 771.4,51.1 780.0,95.9 788.6,70.3 797.2,54.1 805.8,68.8 814.4,75.7 823.0,54.8 831.6,86.8 840.2,45.1 848.8,84.1 857.4,73.0 866.0,67.1 874.6,68.4 883.2,91.0 891.8,107.3 900.4,127.5 909.0,61.7 917.6,82.8 926.2,124.8 934.8,114.8 943.4,116.0 952.0,96.3" fill="none" stroke="#dc2626" stroke-width="2"/>
<text x="952" y="22" text-anchor="end" font-size="11" fill="#64748b">min=0.03125 max=0.6881 last=0.3388</text>
</g>
<g transform="translate(0,628)">
<text x="92" y="22" font-size="13" font-weight="700">critic/rewards/max</text>
<rect x="92" y="42" width="860" height="102" fill="#fafafa" stroke="#e2e8f0"/>
<line x1="92.0" y1="42" x2="92.0" y2="144" stroke="#e5e7eb"/>
<text x="92.0" y="162" text-anchor="middle" font-size="10" fill="#64748b">1</text>
<line x1="307.0" y1="42" x2="307.0" y2="144" stroke="#e5e7eb"/>
<text x="307.0" y="162" text-anchor="middle" font-size="10" fill="#64748b">26</text>
<line x1="522.0" y1="42" x2="522.0" y2="144" stroke="#e5e7eb"/>
<text x="522.0" y="162" text-anchor="middle" font-size="10" fill="#64748b">51</text>
<line x1="737.0" y1="42" x2="737.0" y2="144" stroke="#e5e7eb"/>
<text x="737.0" y="162" text-anchor="middle" font-size="10" fill="#64748b">76</text>
<line x1="952.0" y1="42" x2="952.0" y2="144" stroke="#e5e7eb"/>
<text x="952.0" y="162" text-anchor="middle" font-size="10" fill="#64748b">101</text>
<line x1="92" y1="144.0" x2="952" y2="144.0" stroke="#e5e7eb"/>
<text x="84" y="148.0" text-anchor="end" font-size="10" fill="#64748b">0.05</text>
<line x1="92" y1="110.0" x2="952" y2="110.0" stroke="#e5e7eb"/>
<text x="84" y="114.0" text-anchor="end" font-size="10" fill="#64748b">0.367</text>
<line x1="92" y1="76.0" x2="952" y2="76.0" stroke="#e5e7eb"/>
<text x="84" y="80.0" text-anchor="end" font-size="10" fill="#64748b">0.683</text>
<line x1="92" y1="42.0" x2="952" y2="42.0" stroke="#e5e7eb"/>
<text x="84" y="46.0" text-anchor="end" font-size="10" fill="#64748b">1</text>
<polyline points="92.0,111.3 100.6,144.0 109.2,144.0 117.8,118.2 126.4,51.1 135.0,42.0 143.6,47.2 152.2,123.6 160.8,42.0 169.4,68.8 178.0,122.5 186.6,109.6 195.2,144.0 203.8,144.0 212.4,96.8 221.0,67.2 229.6,112.9 238.2,144.0 246.8,102.1 255.4,111.8 264.0,42.0 272.6,107.5 281.2,112.5 289.8,42.0 298.4,42.0 307.0,95.7 315.6,43.1 324.2,105.9 332.8,42.0 341.4,111.8 350.0,43.1 358.6,112.5 367.2,43.1 375.8,111.7 384.4,91.9 393.0,106.4 401.6,100.0 410.2,111.8 418.8,44.1 427.4,42.0 436.0,110.7 444.6,43.1 453.2,42.0 461.8,42.0 470.4,110.7 479.0,42.0 487.6,61.9 496.2,44.1 504.8,44.1 513.4,43.1 522.0,109.6 530.6,43.1 539.2,110.7 547.8,43.1 556.4,105.9 565.0,98.9 573.6,124.7 582.2,106.4 590.8,128.3 599.4,42.0 608.0,113.4 616.6,107.0 625.2,135.4 633.8,104.8 642.4,42.0 651.0,110.7 659.6,101.3 668.2,110.7 676.8,97.8 685.4,126.8 694.0,106.4 702.6,42.0 711.2,106.4 719.8,109.6 728.4,42.0 737.0,42.0 745.6,110.7 754.2,62.9 762.8,70.5 771.4,42.0 780.0,43.1 788.6,42.0 797.2,42.0 805.8,67.2 814.4,42.0 823.0,42.0 831.6,71.0 840.2,42.0 848.8,42.0 857.4,44.1 866.0,42.0 874.6,42.0 883.2,42.0 891.8,103.0 900.4,105.3 909.0,42.0 917.6,42.0 926.2,111.8 934.8,110.7 943.4,94.6 952.0,100.0" fill="none" stroke="#9333ea" stroke-width="2"/>
<text x="952" y="22" text-anchor="end" font-size="11" fill="#64748b">min=0.05 max=1 last=0.46</text>
</g>
<g transform="translate(0,818)">
<text x="92" y="22" font-size="13" font-weight="700">critic/rewards/min</text>
<rect x="92" y="42" width="860" height="102" fill="#fafafa" stroke="#e2e8f0"/>
<line x1="92.0" y1="42" x2="92.0" y2="144" stroke="#e5e7eb"/>
<text x="92.0" y="162" text-anchor="middle" font-size="10" fill="#64748b">1</text>
<line x1="307.0" y1="42" x2="307.0" y2="144" stroke="#e5e7eb"/>
<text x="307.0" y="162" text-anchor="middle" font-size="10" fill="#64748b">26</text>
<line x1="522.0" y1="42" x2="522.0" y2="144" stroke="#e5e7eb"/>
<text x="522.0" y="162" text-anchor="middle" font-size="10" fill="#64748b">51</text>
<line x1="737.0" y1="42" x2="737.0" y2="144" stroke="#e5e7eb"/>
<text x="737.0" y="162" text-anchor="middle" font-size="10" fill="#64748b">76</text>
<line x1="952.0" y1="42" x2="952.0" y2="144" stroke="#e5e7eb"/>
<text x="952.0" y="162" text-anchor="middle" font-size="10" fill="#64748b">101</text>
<line x1="92" y1="144.0" x2="952" y2="144.0" stroke="#e5e7eb"/>
<text x="84" y="148.0" text-anchor="end" font-size="10" fill="#64748b">0</text>
<line x1="92" y1="110.0" x2="952" y2="110.0" stroke="#e5e7eb"/>
<text x="84" y="114.0" text-anchor="end" font-size="10" fill="#64748b">0.12</text>
<line x1="92" y1="76.0" x2="952" y2="76.0" stroke="#e5e7eb"/>
<text x="84" y="80.0" text-anchor="end" font-size="10" fill="#64748b">0.24</text>
<line x1="92" y1="42.0" x2="952" y2="42.0" stroke="#e5e7eb"/>
<text x="84" y="46.0" text-anchor="end" font-size="10" fill="#64748b">0.36</text>
<polyline points="92.0,144.0 100.6,138.3 109.2,138.3 117.8,132.7 126.4,140.0 135.0,138.3 143.6,140.0 152.2,144.0 160.8,144.0 169.4,131.0 178.0,131.5 186.6,129.8 195.2,144.0 203.8,138.3 212.4,144.0 221.0,108.0 229.6,140.0 238.2,138.3 246.8,84.5 255.4,131.0 264.0,141.2 272.6,142.0 281.2,144.0 289.8,110.6 298.4,67.5 307.0,144.0 315.6,144.0 324.2,128.4 332.8,113.4 341.4,144.0 350.0,139.2 358.6,144.0 367.2,144.0 375.8,107.7 384.4,94.4 393.0,144.0 401.6,144.0 410.2,144.0 418.8,144.0 427.4,144.0 436.0,144.0 444.6,104.3 453.2,83.1 461.8,87.3 470.4,115.7 479.0,144.0 487.6,87.3 496.2,83.1 504.8,129.8 513.4,144.0 522.0,129.8 530.6,136.6 539.2,144.0 547.8,64.7 556.4,144.0 565.0,144.0 573.6,144.0 582.2,84.5 590.8,144.0 599.4,131.0 608.0,129.8 616.6,129.8 625.2,144.0 633.8,129.8 642.4,129.8 651.0,129.8 659.6,144.0 668.2,129.8 676.8,144.0 685.4,144.0 694.0,129.8 702.6,134.1 711.2,129.8 719.8,144.0 728.4,129.8 737.0,57.9 745.6,129.8 754.2,50.5 762.8,144.0 771.4,50.5 780.0,144.0 788.6,51.1 797.2,63.0 805.8,110.0 814.4,103.5 823.0,129.8 831.6,63.0 840.2,42.0 848.8,129.8 857.4,144.0 866.0,44.8 874.6,144.0 883.2,129.8 891.8,107.2 900.4,129.8 909.0,59.0 917.6,87.3 926.2,129.8 934.8,129.8 943.4,144.0 952.0,107.2" fill="none" stroke="#ea580c" stroke-width="2"/>
<text x="952" y="22" text-anchor="end" font-size="11" fill="#64748b">min=0 max=0.36 last=0.13</text>
</g>
<g transform="translate(0,1008)">
<text x="92" y="22" font-size="13" font-weight="700">timing_s/reward</text>
<rect x="92" y="42" width="860" height="102" fill="#fafafa" stroke="#e2e8f0"/>
<line x1="92.0" y1="42" x2="92.0" y2="144" stroke="#e5e7eb"/>
<text x="92.0" y="162" text-anchor="middle" font-size="10" fill="#64748b">1</text>
<line x1="307.0" y1="42" x2="307.0" y2="144" stroke="#e5e7eb"/>
<text x="307.0" y="162" text-anchor="middle" font-size="10" fill="#64748b">26</text>
<line x1="522.0" y1="42" x2="522.0" y2="144" stroke="#e5e7eb"/>
<text x="522.0" y="162" text-anchor="middle" font-size="10" fill="#64748b">51</text>
<line x1="737.0" y1="42" x2="737.0" y2="144" stroke="#e5e7eb"/>
<text x="737.0" y="162" text-anchor="middle" font-size="10" fill="#64748b">76</text>
<line x1="952.0" y1="42" x2="952.0" y2="144" stroke="#e5e7eb"/>
<text x="952.0" y="162" text-anchor="middle" font-size="10" fill="#64748b">101</text>
<line x1="92" y1="144.0" x2="952" y2="144.0" stroke="#e5e7eb"/>
<text x="84" y="148.0" text-anchor="end" font-size="10" fill="#64748b">3.74e-05</text>
<line x1="92" y1="110.0" x2="952" y2="110.0" stroke="#e5e7eb"/>
<text x="84" y="114.0" text-anchor="end" font-size="10" fill="#64748b">0.000194</text>
<line x1="92" y1="76.0" x2="952" y2="76.0" stroke="#e5e7eb"/>
<text x="84" y="80.0" text-anchor="end" font-size="10" fill="#64748b">0.00035</text>
<line x1="92" y1="42.0" x2="952" y2="42.0" stroke="#e5e7eb"/>
<text x="84" y="46.0" text-anchor="end" font-size="10" fill="#64748b">0.000506</text>
<polyline points="92.0,144.0 100.6,133.5 109.2,133.2 117.8,129.8 126.4,139.9 135.0,141.4 143.6,137.4 152.2,136.9 160.8,126.6 169.4,135.6 178.0,133.2 186.6,140.1 195.2,137.6 203.8,140.4 212.4,122.0 221.0,138.7 229.6,138.5 238.2,141.9 246.8,134.6 255.4,134.0 264.0,137.8 272.6,135.4 281.2,135.6 289.8,132.6 298.4,140.3 307.0,135.3 315.6,138.4 324.2,134.5 332.8,132.0 341.4,142.8 350.0,141.3 358.6,137.4 367.2,138.7 375.8,132.2 384.4,139.3 393.0,139.8 401.6,142.0 410.2,141.0 418.8,131.6 427.4,138.9 436.0,131.5 444.6,136.5 453.2,134.0 461.8,130.2 470.4,142.1 479.0,141.0 487.6,130.3 496.2,137.7 504.8,131.7 513.4,132.1 522.0,127.9 530.6,136.8 539.2,137.6 547.8,134.0 556.4,137.4 565.0,141.3 573.6,131.0 582.2,141.1 590.8,134.6 599.4,141.1 608.0,42.0 616.6,142.3 625.2,133.2 633.8,140.7 642.4,133.1 651.0,143.0 659.6,142.3 668.2,143.0 676.8,135.2 685.4,125.5 694.0,142.8 702.6,140.1 711.2,141.6 719.8,141.0 728.4,141.4 737.0,133.1 745.6,143.2 754.2,143.3 762.8,143.8 771.4,132.1 780.0,133.4 788.6,135.1 797.2,137.7 805.8,141.3 814.4,143.4 823.0,141.2 831.6,140.5 840.2,142.2 848.8,141.9 857.4,66.3 866.0,136.1 874.6,132.6 883.2,141.3 891.8,130.4 900.4,138.3 909.0,136.7 917.6,143.7 926.2,134.6 934.8,143.5 943.4,140.2 952.0,130.1" fill="none" stroke="#0891b2" stroke-width="2"/>
<text x="952" y="22" text-anchor="end" font-size="11" fill="#64748b">min=3.743e-05 max=0.0005062 last=0.0001011</text>
</g>
<g transform="translate(0,1198)">
<text x="92" y="22" font-size="13" font-weight="700">critic/advantages/max</text>
<rect x="92" y="42" width="860" height="102" fill="#fafafa" stroke="#e2e8f0"/>
<line x1="92.0" y1="42" x2="92.0" y2="144" stroke="#e5e7eb"/>
<text x="92.0" y="162" text-anchor="middle" font-size="10" fill="#64748b">1</text>
<line x1="307.0" y1="42" x2="307.0" y2="144" stroke="#e5e7eb"/>
<text x="307.0" y="162" text-anchor="middle" font-size="10" fill="#64748b">26</text>
<line x1="522.0" y1="42" x2="522.0" y2="144" stroke="#e5e7eb"/>
<text x="522.0" y="162" text-anchor="middle" font-size="10" fill="#64748b">51</text>
<line x1="737.0" y1="42" x2="737.0" y2="144" stroke="#e5e7eb"/>
<text x="737.0" y="162" text-anchor="middle" font-size="10" fill="#64748b">76</text>
<line x1="952.0" y1="42" x2="952.0" y2="144" stroke="#e5e7eb"/>
<text x="952.0" y="162" text-anchor="middle" font-size="10" fill="#64748b">101</text>
<line x1="92" y1="144.0" x2="952" y2="144.0" stroke="#e5e7eb"/>
<text x="84" y="148.0" text-anchor="end" font-size="10" fill="#64748b">0.54</text>
<line x1="92" y1="110.0" x2="952" y2="110.0" stroke="#e5e7eb"/>
<text x="84" y="114.0" text-anchor="end" font-size="10" fill="#64748b">1.18</text>
<line x1="92" y1="76.0" x2="952" y2="76.0" stroke="#e5e7eb"/>
<text x="84" y="80.0" text-anchor="end" font-size="10" fill="#64748b">1.83</text>
<line x1="92" y1="42.0" x2="952" y2="42.0" stroke="#e5e7eb"/>
<text x="84" y="46.0" text-anchor="end" font-size="10" fill="#64748b">2.47</text>
<polyline points="92.0,102.6 100.6,84.7 109.2,87.1 117.8,87.1 126.4,42.9 135.0,90.6 143.6,42.3 152.2,99.6 160.8,42.2 169.4,85.5 178.0,48.8 186.6,82.3 195.2,93.3 203.8,108.8 212.4,114.0 221.0,110.2 229.6,93.4 238.2,98.5 246.8,81.5 255.4,76.3 264.0,144.0 272.6,78.2 281.2,87.7 289.8,114.2 298.4,87.1 307.0,94.6 315.6,47.8 324.2,103.4 332.8,46.4 341.4,43.0 350.0,44.4 358.6,88.2 367.2,42.0 375.8,111.7 384.4,97.0 393.0,99.8 401.6,72.3 410.2,60.0 418.8,59.9 427.4,85.5 436.0,56.9 444.6,85.9 453.2,85.7 461.8,88.1 470.4,104.1 479.0,108.1 487.6,117.6 496.2,127.5 504.8,52.5 513.4,85.8 522.0,97.0 530.6,45.1 539.2,73.8 547.8,107.9 556.4,94.4 565.0,112.7 573.6,86.4 582.2,129.7 590.8,87.5 599.4,121.3 608.0,111.7 616.6,104.7 625.2,91.8 633.8,101.2 642.4,52.0 651.0,76.8 659.6,48.6 668.2,42.0 676.8,125.9 685.4,71.5 694.0,127.8 702.6,95.5 711.2,110.8 719.8,99.6 728.4,76.6 737.0,104.9 745.6,142.1 754.2,110.5 762.8,79.0 771.4,44.4 780.0,86.9 788.6,87.8 797.2,82.0 805.8,125.2 814.4,106.9 823.0,107.3 831.6,56.2 840.2,104.2 848.8,52.1 857.4,54.0 866.0,44.1 874.6,52.7 883.2,71.3 891.8,90.9 900.4,84.8 909.0,98.5 917.6,46.5 926.2,89.7 934.8,121.8 943.4,73.2 952.0,109.0" fill="none" stroke="#4f46e5" stroke-width="2"/>
<text x="952" y="22" text-anchor="end" font-size="11" fill="#64748b">min=0.54 max=2.475 last=1.205</text>
</g>
<g transform="translate(0,1388)">
<text x="92" y="22" font-size="13" font-weight="700">critic/advantages/mean</text>
<rect x="92" y="42" width="860" height="102" fill="#fafafa" stroke="#e2e8f0"/>
<line x1="92.0" y1="42" x2="92.0" y2="144" stroke="#e5e7eb"/>
<text x="92.0" y="162" text-anchor="middle" font-size="10" fill="#64748b">1</text>
<line x1="307.0" y1="42" x2="307.0" y2="144" stroke="#e5e7eb"/>
<text x="307.0" y="162" text-anchor="middle" font-size="10" fill="#64748b">26</text>
<line x1="522.0" y1="42" x2="522.0" y2="144" stroke="#e5e7eb"/>
<text x="522.0" y="162" text-anchor="middle" font-size="10" fill="#64748b">51</text>
<line x1="737.0" y1="42" x2="737.0" y2="144" stroke="#e5e7eb"/>
<text x="737.0" y="162" text-anchor="middle" font-size="10" fill="#64748b">76</text>
<line x1="952.0" y1="42" x2="952.0" y2="144" stroke="#e5e7eb"/>
<text x="952.0" y="162" text-anchor="middle" font-size="10" fill="#64748b">101</text>
<line x1="92" y1="144.0" x2="952" y2="144.0" stroke="#e5e7eb"/>
<text x="84" y="148.0" text-anchor="end" font-size="10" fill="#64748b">-1.41</text>
<line x1="92" y1="110.0" x2="952" y2="110.0" stroke="#e5e7eb"/>
<text x="84" y="114.0" text-anchor="end" font-size="10" fill="#64748b">-0.779</text>
<line x1="92" y1="76.0" x2="952" y2="76.0" stroke="#e5e7eb"/>
<text x="84" y="80.0" text-anchor="end" font-size="10" fill="#64748b">-0.149</text>
<line x1="92" y1="42.0" x2="952" y2="42.0" stroke="#e5e7eb"/>
<text x="84" y="46.0" text-anchor="end" font-size="10" fill="#64748b">0.48</text>
<polyline points="92.0,116.2 100.6,67.9 109.2,68.0 117.8,67.9 126.4,66.8 135.0,78.5 143.6,68.0 152.2,69.8 160.8,74.4 169.4,70.9 178.0,80.3 186.6,67.9 195.2,79.4 203.8,67.9 212.4,67.9 221.0,68.2 229.6,67.9 238.2,67.9 246.8,67.8 255.4,67.9 264.0,68.7 272.6,69.5 281.2,81.0 289.8,71.3 298.4,67.9 307.0,80.7 315.6,82.9 324.2,71.3 332.8,67.9 341.4,83.8 350.0,67.9 358.6,72.1 367.2,75.1 375.8,69.1 384.4,68.2 393.0,69.4 401.6,74.1 410.2,72.4 418.8,68.3 427.4,68.0 436.0,79.6 444.6,67.8 453.2,42.0 461.8,44.4 470.4,67.7 479.0,67.9 487.6,68.1 496.2,69.3 504.8,67.9 513.4,67.6 522.0,68.7 530.6,71.4 539.2,94.1 547.8,67.9 556.4,82.7 565.0,115.3 573.6,85.0 582.2,68.5 590.8,97.9 599.4,64.9 608.0,75.6 616.6,67.9 625.2,80.2 633.8,68.3 642.4,61.0 651.0,66.7 659.6,76.8 668.2,68.0 676.8,144.0 685.4,73.5 694.0,68.0 702.6,72.7 711.2,70.1 719.8,71.0 728.4,55.8 737.0,68.8 745.6,67.6 754.2,68.1 762.8,67.1 771.4,68.0 780.0,76.8 788.6,67.7 797.2,68.3 805.8,67.9 814.4,68.5 823.0,70.3 831.6,66.4 840.2,68.8 848.8,68.0 857.4,68.2 866.0,68.7 874.6,66.6 883.2,67.5 891.8,68.5 900.4,68.0 909.0,67.9 917.6,68.4 926.2,67.8 934.8,72.9 943.4,71.3 952.0,67.7" fill="none" stroke="#be123c" stroke-width="2"/>
<text x="952" y="22" text-anchor="end" font-size="11" fill="#64748b">min=-1.409 max=0.4805 last=0.004975</text>
</g>
<g transform="translate(0,1578)">
<text x="92" y="22" font-size="13" font-weight="700">critic/advantages/min</text>
<rect x="92" y="42" width="860" height="102" fill="#fafafa" stroke="#e2e8f0"/>
<line x1="92.0" y1="42" x2="92.0" y2="144" stroke="#e5e7eb"/>
<text x="92.0" y="162" text-anchor="middle" font-size="10" fill="#64748b">1</text>
<line x1="307.0" y1="42" x2="307.0" y2="144" stroke="#e5e7eb"/>
<text x="307.0" y="162" text-anchor="middle" font-size="10" fill="#64748b">26</text>
<line x1="522.0" y1="42" x2="522.0" y2="144" stroke="#e5e7eb"/>
<text x="522.0" y="162" text-anchor="middle" font-size="10" fill="#64748b">51</text>
<line x1="737.0" y1="42" x2="737.0" y2="144" stroke="#e5e7eb"/>
<text x="737.0" y="162" text-anchor="middle" font-size="10" fill="#64748b">76</text>
<line x1="952.0" y1="42" x2="952.0" y2="144" stroke="#e5e7eb"/>
<text x="952.0" y="162" text-anchor="middle" font-size="10" fill="#64748b">101</text>
<line x1="92" y1="144.0" x2="952" y2="144.0" stroke="#e5e7eb"/>
<text x="84" y="148.0" text-anchor="end" font-size="10" fill="#64748b">-2.47</text>
<line x1="92" y1="110.0" x2="952" y2="110.0" stroke="#e5e7eb"/>
<text x="84" y="114.0" text-anchor="end" font-size="10" fill="#64748b">-1.83</text>
<line x1="92" y1="76.0" x2="952" y2="76.0" stroke="#e5e7eb"/>
<text x="84" y="80.0" text-anchor="end" font-size="10" fill="#64748b">-1.18</text>
<line x1="92" y1="42.0" x2="952" y2="42.0" stroke="#e5e7eb"/>
<text x="84" y="46.0" text-anchor="end" font-size="10" fill="#64748b">-0.54</text>
<polyline points="92.0,81.1 100.6,101.6 109.2,42.0 117.8,77.2 126.4,93.9 135.0,136.8 143.6,85.1 152.2,82.7 160.8,44.2 169.4,61.6 178.0,86.5 186.6,88.2 195.2,114.5 203.8,92.8 212.4,99.4 221.0,143.7 229.6,87.8 238.2,96.5 246.8,132.5 255.4,97.4 264.0,144.0 272.6,116.2 281.2,144.0 289.8,143.9 298.4,92.7 307.0,120.2 315.6,125.3 324.2,113.5 332.8,84.8 341.4,144.0 350.0,82.4 358.6,119.4 367.2,51.1 375.8,106.2 384.4,116.8 393.0,130.4 401.6,86.9 410.2,144.0 418.8,87.2 427.4,71.2 436.0,84.3 444.6,92.6 453.2,142.6 461.8,59.9 470.4,118.0 479.0,144.0 487.6,103.4 496.2,120.3 504.8,143.4 513.4,82.5 522.0,98.6 530.6,74.6 539.2,100.0 547.8,109.2 556.4,101.8 565.0,96.4 573.6,61.3 582.2,142.7 590.8,62.8 599.4,97.1 608.0,106.2 616.6,123.6 625.2,72.4 633.8,128.0 642.4,144.0 651.0,113.7 659.6,97.2 668.2,55.8 676.8,144.0 685.4,71.5 694.0,93.1 702.6,75.9 711.2,91.3 719.8,78.2 728.4,62.8 737.0,144.0 745.6,133.8 754.2,118.0 762.8,88.6 771.4,83.3 780.0,87.6 788.6,133.9 797.2,99.3 805.8,125.9 814.4,102.0 823.0,129.8 831.6,88.3 840.2,76.7 848.8,60.8 857.4,114.6 866.0,72.8 874.6,108.7 883.2,58.2 891.8,85.4 900.4,96.1 909.0,112.2 917.6,76.1 926.2,58.6 934.8,96.0 943.4,111.2 952.0,109.7" fill="none" stroke="#2563eb" stroke-width="2"/>
<text x="952" y="22" text-anchor="end" font-size="11" fill="#64748b">min=-2.475 max=-0.54 last=-1.824</text>
</g>
<g transform="translate(0,1768)">
<text x="92" y="22" font-size="13" font-weight="700">actor/grad_norm</text>
<rect x="92" y="42" width="860" height="102" fill="#fafafa" stroke="#e2e8f0"/>
<line x1="92.0" y1="42" x2="92.0" y2="144" stroke="#e5e7eb"/>
<text x="92.0" y="162" text-anchor="middle" font-size="10" fill="#64748b">1</text>
<line x1="307.0" y1="42" x2="307.0" y2="144" stroke="#e5e7eb"/>
<text x="307.0" y="162" text-anchor="middle" font-size="10" fill="#64748b">26</text>
<line x1="522.0" y1="42" x2="522.0" y2="144" stroke="#e5e7eb"/>
<text x="522.0" y="162" text-anchor="middle" font-size="10" fill="#64748b">51</text>
<line x1="737.0" y1="42" x2="737.0" y2="144" stroke="#e5e7eb"/>
<text x="737.0" y="162" text-anchor="middle" font-size="10" fill="#64748b">76</text>
<line x1="952.0" y1="42" x2="952.0" y2="144" stroke="#e5e7eb"/>
<text x="952.0" y="162" text-anchor="middle" font-size="10" fill="#64748b">101</text>
<line x1="92" y1="144.0" x2="952" y2="144.0" stroke="#e5e7eb"/>
<text x="84" y="148.0" text-anchor="end" font-size="10" fill="#64748b">0.0498</text>
<line x1="92" y1="110.0" x2="952" y2="110.0" stroke="#e5e7eb"/>
<text x="84" y="114.0" text-anchor="end" font-size="10" fill="#64748b">10.8</text>
<line x1="92" y1="76.0" x2="952" y2="76.0" stroke="#e5e7eb"/>
<text x="84" y="80.0" text-anchor="end" font-size="10" fill="#64748b">21.6</text>
<line x1="92" y1="42.0" x2="952" y2="42.0" stroke="#e5e7eb"/>
<text x="84" y="46.0" text-anchor="end" font-size="10" fill="#64748b">32.3</text>
<polyline points="92.0,131.2 100.6,138.5 109.2,144.0 117.8,139.8 126.4,140.2 135.0,135.5 143.6,139.4 152.2,133.9 160.8,142.1 169.4,115.7 178.0,135.1 186.6,119.9 195.2,139.0 203.8,141.1 212.4,123.7 221.0,121.6 229.6,140.9 238.2,140.5 246.8,115.8 255.4,125.9 264.0,139.8 272.6,114.3 281.2,139.4 289.8,139.5 298.4,117.6 307.0,130.4 315.6,139.1 324.2,113.1 332.8,139.9 341.4,139.2 350.0,130.0 358.6,124.6 367.2,139.8 375.8,131.4 384.4,125.3 393.0,121.3 401.6,137.7 410.2,130.9 418.8,124.1 427.4,119.7 436.0,128.7 444.6,133.1 453.2,124.7 461.8,126.0 470.4,129.3 479.0,133.3 487.6,134.7 496.2,138.5 504.8,120.7 513.4,128.1 522.0,131.1 530.6,127.6 539.2,118.2 547.8,127.9 556.4,135.5 565.0,128.1 573.6,117.7 582.2,129.4 590.8,136.1 599.4,124.9 608.0,124.7 616.6,134.9 625.2,133.5 633.8,128.2 642.4,107.9 651.0,133.8 659.6,133.7 668.2,130.4 676.8,124.2 685.4,133.5 694.0,130.5 702.6,136.3 711.2,133.4 719.8,136.2 728.4,119.4 737.0,127.8 745.6,128.2 754.2,126.3 762.8,138.1 771.4,129.0 780.0,121.8 788.6,130.1 797.2,134.0 805.8,132.4 814.4,126.7 823.0,138.3 831.6,135.2 840.2,131.0 848.8,128.5 857.4,133.1 866.0,131.2 874.6,128.8 883.2,120.5 891.8,124.4 900.4,125.4 909.0,133.2 917.6,42.0 926.2,121.1 934.8,108.7 943.4,129.9 952.0,124.4" fill="none" stroke="#16a34a" stroke-width="2"/>
<text x="952" y="22" text-anchor="end" font-size="11" fill="#64748b">min=0.04976 max=32.31 last=6.249</text>
</g>
<g transform="translate(0,1958)">
<text x="92" y="22" font-size="13" font-weight="700">actor/loss</text>
<rect x="92" y="42" width="860" height="102" fill="#fafafa" stroke="#e2e8f0"/>
<line x1="92.0" y1="42" x2="92.0" y2="144" stroke="#e5e7eb"/>
<text x="92.0" y="162" text-anchor="middle" font-size="10" fill="#64748b">1</text>
<line x1="307.0" y1="42" x2="307.0" y2="144" stroke="#e5e7eb"/>
<text x="307.0" y="162" text-anchor="middle" font-size="10" fill="#64748b">26</text>
<line x1="522.0" y1="42" x2="522.0" y2="144" stroke="#e5e7eb"/>
<text x="522.0" y="162" text-anchor="middle" font-size="10" fill="#64748b">51</text>
<line x1="737.0" y1="42" x2="737.0" y2="144" stroke="#e5e7eb"/>
<text x="737.0" y="162" text-anchor="middle" font-size="10" fill="#64748b">76</text>
<line x1="952.0" y1="42" x2="952.0" y2="144" stroke="#e5e7eb"/>
<text x="952.0" y="162" text-anchor="middle" font-size="10" fill="#64748b">101</text>
<line x1="92" y1="144.0" x2="952" y2="144.0" stroke="#e5e7eb"/>
<text x="84" y="148.0" text-anchor="end" font-size="10" fill="#64748b">-0.48</text>
<line x1="92" y1="110.0" x2="952" y2="110.0" stroke="#e5e7eb"/>
<text x="84" y="114.0" text-anchor="end" font-size="10" fill="#64748b">0.149</text>
<line x1="92" y1="76.0" x2="952" y2="76.0" stroke="#e5e7eb"/>
<text x="84" y="80.0" text-anchor="end" font-size="10" fill="#64748b">0.779</text>
<line x1="92" y1="42.0" x2="952" y2="42.0" stroke="#e5e7eb"/>
<text x="84" y="46.0" text-anchor="end" font-size="10" fill="#64748b">1.41</text>
<polyline points="92.0,69.8 100.6,118.1 109.2,118.0 117.8,118.1 126.4,119.2 135.0,107.5 143.6,118.0 152.2,116.2 160.8,111.6 169.4,115.1 178.0,105.7 186.6,118.1 195.2,106.6 203.8,118.1 212.4,118.1 221.0,117.8 229.6,118.1 238.2,118.1 246.8,118.2 255.4,118.1 264.0,117.3 272.6,116.5 281.2,105.0 289.8,114.7 298.4,118.1 307.0,105.3 315.6,103.1 324.2,114.7 332.8,118.1 341.4,102.2 350.0,118.1 358.6,113.9 367.2,110.9 375.8,116.9 384.4,117.8 393.0,116.6 401.6,111.9 410.2,113.6 418.8,117.7 427.4,118.0 436.0,106.4 444.6,118.2 453.2,144.0 461.8,141.6 470.4,118.3 479.0,118.1 487.6,117.9 496.2,116.7 504.8,118.1 513.4,118.4 522.0,117.3 530.6,114.6 539.2,91.9 547.8,118.1 556.4,103.3 565.0,70.7 573.6,101.0 582.2,117.5 590.8,88.1 599.4,121.1 608.0,110.4 616.6,118.1 625.2,105.8 633.8,117.7 642.4,125.0 651.0,119.3 659.6,109.2 668.2,118.0 676.8,42.0 685.4,112.5 694.0,118.0 702.6,113.3 711.2,115.9 719.8,115.0 728.4,130.2 737.0,117.2 745.6,118.4 754.2,117.9 762.8,118.9 771.4,118.0 780.0,109.2 788.6,118.3 797.2,117.7 805.8,118.1 814.4,117.5 823.0,115.7 831.6,119.6 840.2,117.2 848.8,118.0 857.4,117.8 866.0,117.3 874.6,119.4 883.2,118.5 891.8,117.5 900.4,118.0 909.0,118.1 917.6,117.6 926.2,118.2 934.8,113.1 943.4,114.7 952.0,118.3" fill="none" stroke="#dc2626" stroke-width="2"/>
<text x="952" y="22" text-anchor="end" font-size="11" fill="#64748b">min=-0.4805 max=1.409 last=-0.004975</text>
</g>
<g transform="translate(0,2148)">
<text x="92" y="22" font-size="13" font-weight="700">actor/pg_loss</text>
<rect x="92" y="42" width="860" height="102" fill="#fafafa" stroke="#e2e8f0"/>
<line x1="92.0" y1="42" x2="92.0" y2="144" stroke="#e5e7eb"/>
<text x="92.0" y="162" text-anchor="middle" font-size="10" fill="#64748b">1</text>
<line x1="307.0" y1="42" x2="307.0" y2="144" stroke="#e5e7eb"/>
<text x="307.0" y="162" text-anchor="middle" font-size="10" fill="#64748b">26</text>
<line x1="522.0" y1="42" x2="522.0" y2="144" stroke="#e5e7eb"/>
<text x="522.0" y="162" text-anchor="middle" font-size="10" fill="#64748b">51</text>
<line x1="737.0" y1="42" x2="737.0" y2="144" stroke="#e5e7eb"/>
<text x="737.0" y="162" text-anchor="middle" font-size="10" fill="#64748b">76</text>
<line x1="952.0" y1="42" x2="952.0" y2="144" stroke="#e5e7eb"/>
<text x="952.0" y="162" text-anchor="middle" font-size="10" fill="#64748b">101</text>
<line x1="92" y1="144.0" x2="952" y2="144.0" stroke="#e5e7eb"/>
<text x="84" y="148.0" text-anchor="end" font-size="10" fill="#64748b">-0.48</text>
<line x1="92" y1="110.0" x2="952" y2="110.0" stroke="#e5e7eb"/>
<text x="84" y="114.0" text-anchor="end" font-size="10" fill="#64748b">0.149</text>
<line x1="92" y1="76.0" x2="952" y2="76.0" stroke="#e5e7eb"/>
<text x="84" y="80.0" text-anchor="end" font-size="10" fill="#64748b">0.779</text>
<line x1="92" y1="42.0" x2="952" y2="42.0" stroke="#e5e7eb"/>
<text x="84" y="46.0" text-anchor="end" font-size="10" fill="#64748b">1.41</text>
<polyline points="92.0,69.8 100.6,118.1 109.2,118.0 117.8,118.1 126.4,119.2 135.0,107.5 143.6,118.0 152.2,116.2 160.8,111.6 169.4,115.1 178.0,105.7 186.6,118.1 195.2,106.6 203.8,118.1 212.4,118.1 221.0,117.8 229.6,118.1 238.2,118.1 246.8,118.2 255.4,118.1 264.0,117.3 272.6,116.5 281.2,105.0 289.8,114.7 298.4,118.1 307.0,105.3 315.6,103.1 324.2,114.7 332.8,118.1 341.4,102.2 350.0,118.1 358.6,113.9 367.2,110.9 375.8,116.9 384.4,117.8 393.0,116.6 401.6,111.9 410.2,113.6 418.8,117.7 427.4,118.0 436.0,106.4 444.6,118.2 453.2,144.0 461.8,141.6 470.4,118.3 479.0,118.1 487.6,117.9 496.2,116.7 504.8,118.1 513.4,118.4 522.0,117.3 530.6,114.6 539.2,91.9 547.8,118.1 556.4,103.3 565.0,70.7 573.6,101.0 582.2,117.5 590.8,88.1 599.4,121.1 608.0,110.4 616.6,118.1 625.2,105.8 633.8,117.7 642.4,125.0 651.0,119.3 659.6,109.2 668.2,118.0 676.8,42.0 685.4,112.5 694.0,118.0 702.6,113.3 711.2,115.9 719.8,115.0 728.4,130.2 737.0,117.2 745.6,118.4 754.2,117.9 762.8,118.9 771.4,118.0 780.0,109.2 788.6,118.3 797.2,117.7 805.8,118.1 814.4,117.5 823.0,115.7 831.6,119.6 840.2,117.2 848.8,118.0 857.4,117.8 866.0,117.3 874.6,119.4 883.2,118.5 891.8,117.5 900.4,118.0 909.0,118.1 917.6,117.6 926.2,118.2 934.8,113.1 943.4,114.7 952.0,118.3" fill="none" stroke="#9333ea" stroke-width="2"/>
<text x="952" y="22" text-anchor="end" font-size="11" fill="#64748b">min=-0.4805 max=1.409 last=-0.004975</text>
</g>
<g transform="translate(0,2338)">
<text x="92" y="22" font-size="13" font-weight="700">actor/entropy</text>
<rect x="92" y="42" width="860" height="102" fill="#fafafa" stroke="#e2e8f0"/>
<line x1="92.0" y1="42" x2="92.0" y2="144" stroke="#e5e7eb"/>
<text x="92.0" y="162" text-anchor="middle" font-size="10" fill="#64748b">1</text>
<line x1="307.0" y1="42" x2="307.0" y2="144" stroke="#e5e7eb"/>
<text x="307.0" y="162" text-anchor="middle" font-size="10" fill="#64748b">26</text>
<line x1="522.0" y1="42" x2="522.0" y2="144" stroke="#e5e7eb"/>
<text x="522.0" y="162" text-anchor="middle" font-size="10" fill="#64748b">51</text>
<line x1="737.0" y1="42" x2="737.0" y2="144" stroke="#e5e7eb"/>
<text x="737.0" y="162" text-anchor="middle" font-size="10" fill="#64748b">76</text>
<line x1="952.0" y1="42" x2="952.0" y2="144" stroke="#e5e7eb"/>
<text x="952.0" y="162" text-anchor="middle" font-size="10" fill="#64748b">101</text>
<line x1="92" y1="144.0" x2="952" y2="144.0" stroke="#e5e7eb"/>
<text x="84" y="148.0" text-anchor="end" font-size="10" fill="#64748b">0.0151</text>
<line x1="92" y1="110.0" x2="952" y2="110.0" stroke="#e5e7eb"/>
<text x="84" y="114.0" text-anchor="end" font-size="10" fill="#64748b">0.25</text>
<line x1="92" y1="76.0" x2="952" y2="76.0" stroke="#e5e7eb"/>
<text x="84" y="80.0" text-anchor="end" font-size="10" fill="#64748b">0.486</text>
<line x1="92" y1="42.0" x2="952" y2="42.0" stroke="#e5e7eb"/>
<text x="84" y="46.0" text-anchor="end" font-size="10" fill="#64748b">0.721</text>
<polyline points="92.0,139.4 100.6,141.1 109.2,143.9 117.8,142.9 126.4,142.1 135.0,142.2 143.6,138.1 152.2,140.8 160.8,143.6 169.4,114.1 178.0,139.5 186.6,122.6 195.2,144.0 203.8,143.9 212.4,120.5 221.0,117.0 229.6,143.7 238.2,142.7 246.8,119.3 255.4,121.4 264.0,142.6 272.6,131.3 281.2,143.1 289.8,139.3 298.4,98.9 307.0,131.5 315.6,138.8 324.2,137.0 332.8,131.9 341.4,142.2 350.0,111.4 358.6,127.4 367.2,138.8 375.8,112.8 384.4,101.3 393.0,131.5 401.6,133.2 410.2,132.0 418.8,113.1 427.4,104.7 436.0,130.6 444.6,95.5 453.2,90.7 461.8,123.6 470.4,109.2 479.0,86.6 487.6,97.5 496.2,142.1 504.8,100.6 513.4,98.9 522.0,126.2 530.6,121.5 539.2,123.9 547.8,79.1 556.4,138.8 565.0,127.7 573.6,131.7 582.2,112.6 590.8,140.3 599.4,95.4 608.0,126.2 616.6,116.2 625.2,131.5 633.8,86.4 642.4,79.8 651.0,119.9 659.6,127.4 668.2,115.3 676.8,130.9 685.4,123.2 694.0,87.9 702.6,120.9 711.2,110.0 719.8,136.4 728.4,90.0 737.0,45.4 745.6,67.1 754.2,104.7 762.8,126.8 771.4,42.0 780.0,121.8 788.6,111.0 797.2,108.3 805.8,108.5 814.4,102.4 823.0,140.7 831.6,116.2 840.2,85.3 848.8,112.2 857.4,105.2 866.0,110.2 874.6,94.0 883.2,125.5 891.8,121.1 900.4,128.6 909.0,111.0 917.6,79.7 926.2,106.3 934.8,115.4 943.4,101.2 952.0,120.5" fill="none" stroke="#ea580c" stroke-width="2"/>
<text x="952" y="22" text-anchor="end" font-size="11" fill="#64748b">min=0.01508 max=0.721 last=0.1777</text>
</g>
<g transform="translate(0,2528)">
<text x="92" y="22" font-size="13" font-weight="700">actor/ppo_kl</text>
<rect x="92" y="42" width="860" height="102" fill="#fafafa" stroke="#e2e8f0"/>
<line x1="92.0" y1="42" x2="92.0" y2="144" stroke="#e5e7eb"/>
<text x="92.0" y="162" text-anchor="middle" font-size="10" fill="#64748b">1</text>
<line x1="307.0" y1="42" x2="307.0" y2="144" stroke="#e5e7eb"/>
<text x="307.0" y="162" text-anchor="middle" font-size="10" fill="#64748b">26</text>
<line x1="522.0" y1="42" x2="522.0" y2="144" stroke="#e5e7eb"/>
<text x="522.0" y="162" text-anchor="middle" font-size="10" fill="#64748b">51</text>
<line x1="737.0" y1="42" x2="737.0" y2="144" stroke="#e5e7eb"/>
<text x="737.0" y="162" text-anchor="middle" font-size="10" fill="#64748b">76</text>
<line x1="952.0" y1="42" x2="952.0" y2="144" stroke="#e5e7eb"/>
<text x="952.0" y="162" text-anchor="middle" font-size="10" fill="#64748b">101</text>
<line x1="92" y1="144.0" x2="952" y2="144.0" stroke="#e5e7eb"/>
<text x="84" y="148.0" text-anchor="end" font-size="10" fill="#64748b">-0.5</text>
<line x1="92" y1="110.0" x2="952" y2="110.0" stroke="#e5e7eb"/>
<text x="84" y="114.0" text-anchor="end" font-size="10" fill="#64748b">-0.167</text>
<line x1="92" y1="76.0" x2="952" y2="76.0" stroke="#e5e7eb"/>
<text x="84" y="80.0" text-anchor="end" font-size="10" fill="#64748b">0.167</text>
<line x1="92" y1="42.0" x2="952" y2="42.0" stroke="#e5e7eb"/>
<text x="84" y="46.0" text-anchor="end" font-size="10" fill="#64748b">0.5</text>
<polyline points="92.0,93.0 100.6,93.0 109.2,93.0 117.8,93.0 126.4,93.0 135.0,93.0 143.6,93.0 152.2,93.0 160.8,93.0 169.4,93.0 178.0,93.0 186.6,93.0 195.2,93.0 203.8,93.0 212.4,93.0 221.0,93.0 229.6,93.0 238.2,93.0 246.8,93.0 255.4,93.0 264.0,93.0 272.6,93.0 281.2,93.0 289.8,93.0 298.4,93.0 307.0,93.0 315.6,93.0 324.2,93.0 332.8,93.0 341.4,93.0 350.0,93.0 358.6,93.0 367.2,93.0 375.8,93.0 384.4,93.0 393.0,93.0 401.6,93.0 410.2,93.0 418.8,93.0 427.4,93.0 436.0,93.0 444.6,93.0 453.2,93.0 461.8,93.0 470.4,93.0 479.0,93.0 487.6,93.0 496.2,93.0 504.8,93.0 513.4,93.0 522.0,93.0 530.6,93.0 539.2,93.0 547.8,93.0 556.4,93.0 565.0,93.0 573.6,93.0 582.2,93.0 590.8,93.0 599.4,93.0 608.0,93.0 616.6,93.0 625.2,93.0 633.8,93.0 642.4,93.0 651.0,93.0 659.6,93.0 668.2,93.0 676.8,93.0 685.4,93.0 694.0,93.0 702.6,93.0 711.2,93.0 719.8,93.0 728.4,93.0 737.0,93.0 745.6,93.0 754.2,93.0 762.8,93.0 771.4,93.0 780.0,93.0 788.6,93.0 797.2,93.0 805.8,93.0 814.4,93.0 823.0,93.0 831.6,93.0 840.2,93.0 848.8,93.0 857.4,93.0 866.0,93.0 874.6,93.0 883.2,93.0 891.8,93.0 900.4,93.0 909.0,93.0 917.6,93.0 926.2,93.0 934.8,93.0 943.4,93.0 952.0,93.0" fill="none" stroke="#0891b2" stroke-width="2"/>
<text x="952" y="22" text-anchor="end" font-size="11" fill="#64748b">min=-0.5 max=0.5 last=0</text>
</g>
<g transform="translate(0,2718)">
<text x="92" y="22" font-size="13" font-weight="700">actor/pg_clipfrac</text>
<rect x="92" y="42" width="860" height="102" fill="#fafafa" stroke="#e2e8f0"/>
<line x1="92.0" y1="42" x2="92.0" y2="144" stroke="#e5e7eb"/>
<text x="92.0" y="162" text-anchor="middle" font-size="10" fill="#64748b">1</text>
<line x1="307.0" y1="42" x2="307.0" y2="144" stroke="#e5e7eb"/>
<text x="307.0" y="162" text-anchor="middle" font-size="10" fill="#64748b">26</text>
<line x1="522.0" y1="42" x2="522.0" y2="144" stroke="#e5e7eb"/>
<text x="522.0" y="162" text-anchor="middle" font-size="10" fill="#64748b">51</text>
<line x1="737.0" y1="42" x2="737.0" y2="144" stroke="#e5e7eb"/>
<text x="737.0" y="162" text-anchor="middle" font-size="10" fill="#64748b">76</text>
<line x1="952.0" y1="42" x2="952.0" y2="144" stroke="#e5e7eb"/>
<text x="952.0" y="162" text-anchor="middle" font-size="10" fill="#64748b">101</text>
<line x1="92" y1="144.0" x2="952" y2="144.0" stroke="#e5e7eb"/>
<text x="84" y="148.0" text-anchor="end" font-size="10" fill="#64748b">-0.5</text>
<line x1="92" y1="110.0" x2="952" y2="110.0" stroke="#e5e7eb"/>
<text x="84" y="114.0" text-anchor="end" font-size="10" fill="#64748b">-0.167</text>
<line x1="92" y1="76.0" x2="952" y2="76.0" stroke="#e5e7eb"/>
<text x="84" y="80.0" text-anchor="end" font-size="10" fill="#64748b">0.167</text>
<line x1="92" y1="42.0" x2="952" y2="42.0" stroke="#e5e7eb"/>
<text x="84" y="46.0" text-anchor="end" font-size="10" fill="#64748b">0.5</text>
<polyline points="92.0,93.0 100.6,93.0 109.2,93.0 117.8,93.0 126.4,93.0 135.0,93.0 143.6,93.0 152.2,93.0 160.8,93.0 169.4,93.0 178.0,93.0 186.6,93.0 195.2,93.0 203.8,93.0 212.4,93.0 221.0,93.0 229.6,93.0 238.2,93.0 246.8,93.0 255.4,93.0 264.0,93.0 272.6,93.0 281.2,93.0 289.8,93.0 298.4,93.0 307.0,93.0 315.6,93.0 324.2,93.0 332.8,93.0 341.4,93.0 350.0,93.0 358.6,93.0 367.2,93.0 375.8,93.0 384.4,93.0 393.0,93.0 401.6,93.0 410.2,93.0 418.8,93.0 427.4,93.0 436.0,93.0 444.6,93.0 453.2,93.0 461.8,93.0 470.4,93.0 479.0,93.0 487.6,93.0 496.2,93.0 504.8,93.0 513.4,93.0 522.0,93.0 530.6,93.0 539.2,93.0 547.8,93.0 556.4,93.0 565.0,93.0 573.6,93.0 582.2,93.0 590.8,93.0 599.4,93.0 608.0,93.0 616.6,93.0 625.2,93.0 633.8,93.0 642.4,93.0 651.0,93.0 659.6,93.0 668.2,93.0 676.8,93.0 685.4,93.0 694.0,93.0 702.6,93.0 711.2,93.0 719.8,93.0 728.4,93.0 737.0,93.0 745.6,93.0 754.2,93.0 762.8,93.0 771.4,93.0 780.0,93.0 788.6,93.0 797.2,93.0 805.8,93.0 814.4,93.0 823.0,93.0 831.6,93.0 840.2,93.0 848.8,93.0 857.4,93.0 866.0,93.0 874.6,93.0 883.2,93.0 891.8,93.0 900.4,93.0 909.0,93.0 917.6,93.0 926.2,93.0 934.8,93.0 943.4,93.0 952.0,93.0" fill="none" stroke="#4f46e5" stroke-width="2"/>
<text x="952" y="22" text-anchor="end" font-size="11" fill="#64748b">min=-0.5 max=0.5 last=0</text>
</g>
<g transform="translate(0,2908)">
<text x="92" y="22" font-size="13" font-weight="700">actor/pg_clipfrac_lower</text>
<rect x="92" y="42" width="860" height="102" fill="#fafafa" stroke="#e2e8f0"/>
<line x1="92.0" y1="42" x2="92.0" y2="144" stroke="#e5e7eb"/>
<text x="92.0" y="162" text-anchor="middle" font-size="10" fill="#64748b">1</text>
<line x1="307.0" y1="42" x2="307.0" y2="144" stroke="#e5e7eb"/>
<text x="307.0" y="162" text-anchor="middle" font-size="10" fill="#64748b">26</text>
<line x1="522.0" y1="42" x2="522.0" y2="144" stroke="#e5e7eb"/>
<text x="522.0" y="162" text-anchor="middle" font-size="10" fill="#64748b">51</text>
<line x1="737.0" y1="42" x2="737.0" y2="144" stroke="#e5e7eb"/>
<text x="737.0" y="162" text-anchor="middle" font-size="10" fill="#64748b">76</text>
<line x1="952.0" y1="42" x2="952.0" y2="144" stroke="#e5e7eb"/>
<text x="952.0" y="162" text-anchor="middle" font-size="10" fill="#64748b">101</text>
<line x1="92" y1="144.0" x2="952" y2="144.0" stroke="#e5e7eb"/>
<text x="84" y="148.0" text-anchor="end" font-size="10" fill="#64748b">-0.5</text>
<line x1="92" y1="110.0" x2="952" y2="110.0" stroke="#e5e7eb"/>
<text x="84" y="114.0" text-anchor="end" font-size="10" fill="#64748b">-0.167</text>
<line x1="92" y1="76.0" x2="952" y2="76.0" stroke="#e5e7eb"/>
<text x="84" y="80.0" text-anchor="end" font-size="10" fill="#64748b">0.167</text>
<line x1="92" y1="42.0" x2="952" y2="42.0" stroke="#e5e7eb"/>
<text x="84" y="46.0" text-anchor="end" font-size="10" fill="#64748b">0.5</text>
<polyline points="92.0,93.0 100.6,93.0 109.2,93.0 117.8,93.0 126.4,93.0 135.0,93.0 143.6,93.0 152.2,93.0 160.8,93.0 169.4,93.0 178.0,93.0 186.6,93.0 195.2,93.0 203.8,93.0 212.4,93.0 221.0,93.0 229.6,93.0 238.2,93.0 246.8,93.0 255.4,93.0 264.0,93.0 272.6,93.0 281.2,93.0 289.8,93.0 298.4,93.0 307.0,93.0 315.6,93.0 324.2,93.0 332.8,93.0 341.4,93.0 350.0,93.0 358.6,93.0 367.2,93.0 375.8,93.0 384.4,93.0 393.0,93.0 401.6,93.0 410.2,93.0 418.8,93.0 427.4,93.0 436.0,93.0 444.6,93.0 453.2,93.0 461.8,93.0 470.4,93.0 479.0,93.0 487.6,93.0 496.2,93.0 504.8,93.0 513.4,93.0 522.0,93.0 530.6,93.0 539.2,93.0 547.8,93.0 556.4,93.0 565.0,93.0 573.6,93.0 582.2,93.0 590.8,93.0 599.4,93.0 608.0,93.0 616.6,93.0 625.2,93.0 633.8,93.0 642.4,93.0 651.0,93.0 659.6,93.0 668.2,93.0 676.8,93.0 685.4,93.0 694.0,93.0 702.6,93.0 711.2,93.0 719.8,93.0 728.4,93.0 737.0,93.0 745.6,93.0 754.2,93.0 762.8,93.0 771.4,93.0 780.0,93.0 788.6,93.0 797.2,93.0 805.8,93.0 814.4,93.0 823.0,93.0 831.6,93.0 840.2,93.0 848.8,93.0 857.4,93.0 866.0,93.0 874.6,93.0 883.2,93.0 891.8,93.0 900.4,93.0 909.0,93.0 917.6,93.0 926.2,93.0 934.8,93.0 943.4,93.0 952.0,93.0" fill="none" stroke="#be123c" stroke-width="2"/>
<text x="952" y="22" text-anchor="end" font-size="11" fill="#64748b">min=-0.5 max=0.5 last=0</text>
</g>
<g transform="translate(0,3098)">
<text x="92" y="22" font-size="13" font-weight="700">response_length/clip_ratio</text>
<rect x="92" y="42" width="860" height="102" fill="#fafafa" stroke="#e2e8f0"/>
<line x1="92.0" y1="42" x2="92.0" y2="144" stroke="#e5e7eb"/>
<text x="92.0" y="162" text-anchor="middle" font-size="10" fill="#64748b">1</text>
<line x1="307.0" y1="42" x2="307.0" y2="144" stroke="#e5e7eb"/>
<text x="307.0" y="162" text-anchor="middle" font-size="10" fill="#64748b">26</text>
<line x1="522.0" y1="42" x2="522.0" y2="144" stroke="#e5e7eb"/>
<text x="522.0" y="162" text-anchor="middle" font-size="10" fill="#64748b">51</text>
<line x1="737.0" y1="42" x2="737.0" y2="144" stroke="#e5e7eb"/>
<text x="737.0" y="162" text-anchor="middle" font-size="10" fill="#64748b">76</text>
<line x1="952.0" y1="42" x2="952.0" y2="144" stroke="#e5e7eb"/>
<text x="952.0" y="162" text-anchor="middle" font-size="10" fill="#64748b">101</text>
<line x1="92" y1="144.0" x2="952" y2="144.0" stroke="#e5e7eb"/>
<text x="84" y="148.0" text-anchor="end" font-size="10" fill="#64748b">0</text>
<line x1="92" y1="110.0" x2="952" y2="110.0" stroke="#e5e7eb"/>
<text x="84" y="114.0" text-anchor="end" font-size="10" fill="#64748b">0.333</text>
<line x1="92" y1="76.0" x2="952" y2="76.0" stroke="#e5e7eb"/>
<text x="84" y="80.0" text-anchor="end" font-size="10" fill="#64748b">0.667</text>
<line x1="92" y1="42.0" x2="952" y2="42.0" stroke="#e5e7eb"/>
<text x="84" y="46.0" text-anchor="end" font-size="10" fill="#64748b">1</text>
<polyline points="92.0,105.8 100.6,42.0 109.2,93.0 117.8,93.0 126.4,86.6 135.0,105.8 143.6,99.4 152.2,93.0 160.8,61.1 169.4,144.0 178.0,144.0 186.6,144.0 195.2,86.6 203.8,42.0 212.4,144.0 221.0,144.0 229.6,93.0 238.2,42.0 246.8,144.0 255.4,144.0 264.0,93.0 272.6,144.0 281.2,67.5 289.8,144.0 298.4,144.0 307.0,144.0 315.6,144.0 324.2,144.0 332.8,144.0 341.4,99.4 350.0,144.0 358.6,144.0 367.2,124.9 375.8,144.0 384.4,144.0 393.0,144.0 401.6,144.0 410.2,144.0 418.8,144.0 427.4,144.0 436.0,131.2 444.6,144.0 453.2,144.0 461.8,144.0 470.4,144.0 479.0,144.0 487.6,144.0 496.2,144.0 504.8,144.0 513.4,144.0 522.0,144.0 530.6,144.0 539.2,137.6 547.8,144.0 556.4,137.6 565.0,131.2 573.6,144.0 582.2,144.0 590.8,118.5 599.4,144.0 608.0,144.0 616.6,144.0 625.2,137.6 633.8,144.0 642.4,144.0 651.0,144.0 659.6,137.6 668.2,144.0 676.8,137.6 685.4,144.0 694.0,144.0 702.6,144.0 711.2,144.0 719.8,144.0 728.4,144.0 737.0,144.0 745.6,144.0 754.2,144.0 762.8,144.0 771.4,144.0 780.0,144.0 788.6,144.0 797.2,144.0 805.8,144.0 814.4,144.0 823.0,144.0 831.6,144.0 840.2,144.0 848.8,144.0 857.4,144.0 866.0,144.0 874.6,144.0 883.2,144.0 891.8,144.0 900.4,144.0 909.0,144.0 917.6,144.0 926.2,144.0 934.8,144.0 943.4,144.0 952.0,144.0" fill="none" stroke="#2563eb" stroke-width="2"/>
<text x="952" y="22" text-anchor="end" font-size="11" fill="#64748b">min=0 max=1 last=0</text>
</g>
<g transform="translate(0,3288)">
<text x="92" y="22" font-size="13" font-weight="700">response_length/max</text>
<rect x="92" y="42" width="860" height="102" fill="#fafafa" stroke="#e2e8f0"/>
<line x1="92.0" y1="42" x2="92.0" y2="144" stroke="#e5e7eb"/>
<text x="92.0" y="162" text-anchor="middle" font-size="10" fill="#64748b">1</text>
<line x1="307.0" y1="42" x2="307.0" y2="144" stroke="#e5e7eb"/>
<text x="307.0" y="162" text-anchor="middle" font-size="10" fill="#64748b">26</text>
<line x1="522.0" y1="42" x2="522.0" y2="144" stroke="#e5e7eb"/>
<text x="522.0" y="162" text-anchor="middle" font-size="10" fill="#64748b">51</text>
<line x1="737.0" y1="42" x2="737.0" y2="144" stroke="#e5e7eb"/>
<text x="737.0" y="162" text-anchor="middle" font-size="10" fill="#64748b">76</text>
<line x1="952.0" y1="42" x2="952.0" y2="144" stroke="#e5e7eb"/>
<text x="952.0" y="162" text-anchor="middle" font-size="10" fill="#64748b">101</text>
<line x1="92" y1="144.0" x2="952" y2="144.0" stroke="#e5e7eb"/>
<text x="84" y="148.0" text-anchor="end" font-size="10" fill="#64748b">53</text>
<line x1="92" y1="110.0" x2="952" y2="110.0" stroke="#e5e7eb"/>
<text x="84" y="114.0" text-anchor="end" font-size="10" fill="#64748b">377</text>
<line x1="92" y1="76.0" x2="952" y2="76.0" stroke="#e5e7eb"/>
<text x="84" y="80.0" text-anchor="end" font-size="10" fill="#64748b">700</text>
<line x1="92" y1="42.0" x2="952" y2="42.0" stroke="#e5e7eb"/>
<text x="84" y="46.0" text-anchor="end" font-size="10" fill="#64748b">1024</text>
<polyline points="92.0,42.0 100.6,42.0 109.2,42.0 117.8,42.0 126.4,42.0 135.0,42.0 143.6,42.0 152.2,42.0 160.8,42.0 169.4,130.4 178.0,77.5 186.6,141.0 195.2,42.0 203.8,42.0 212.4,141.1 221.0,141.5 229.6,42.0 238.2,42.0 246.8,136.6 255.4,141.1 264.0,42.0 272.6,127.5 281.2,42.0 289.8,66.9 298.4,139.4 307.0,53.5 315.6,80.9 324.2,121.1 332.8,139.3 341.4,42.0 350.0,139.4 358.6,118.8 367.2,42.0 375.8,139.2 384.4,139.4 393.0,112.7 401.6,53.5 410.2,90.7 418.8,142.0 427.4,141.0 436.0,42.0 444.6,141.9 453.2,91.9 461.8,45.8 470.4,142.9 479.0,139.4 487.6,141.4 496.2,72.8 504.8,142.7 513.4,141.0 522.0,141.3 530.6,127.7 539.2,42.0 547.8,139.4 556.4,42.0 565.0,42.0 573.6,101.9 582.2,141.5 590.8,42.0 599.4,134.0 608.0,131.4 616.6,141.0 625.2,42.0 633.8,140.2 642.4,142.9 651.0,116.8 659.6,42.0 668.2,144.0 676.8,42.0 685.4,91.6 694.0,140.8 702.6,91.3 711.2,138.3 719.8,92.3 728.4,131.0 737.0,140.0 745.6,139.3 754.2,142.1 762.8,123.9 771.4,140.2 780.0,116.5 788.6,138.7 797.2,137.7 805.8,141.0 814.4,138.6 823.0,87.1 831.6,140.1 840.2,137.7 848.8,141.6 857.4,142.1 866.0,137.7 874.6,138.2 883.2,141.7 891.8,136.4 900.4,141.0 909.0,137.2 917.6,140.8 926.2,143.6 934.8,138.4 943.4,111.0 952.0,142.7" fill="none" stroke="#16a34a" stroke-width="2"/>
<text x="952" y="22" text-anchor="end" font-size="11" fill="#64748b">min=53 max=1024 last=65</text>
</g>
</svg>