<svg xmlns="http://www.w3.org/2000/svg" width="980" height="3478" font-family="Arial, sans-serif">
<rect width="100%" height="100%" fill="white"/>
<text x="24" y="28" font-size="18" font-weight="700">e3_final_answer_judge/qwen3_8b_grpo_e3_yunwu_final_answer_judge_from_e2_base.metrics.jsonl</text>
<text x="24" y="48" font-size="12" fill="#64748b">rows=120 keys=18</text>
<g transform="translate(0,58)">
<text x="92" y="22" font-size="13" font-weight="700">critic/score/mean</text>
<rect x="92" y="42" width="860" height="102" fill="#fafafa" stroke="#e2e8f0"/>
<line x1="92.0" y1="42" x2="92.0" y2="144" stroke="#e5e7eb"/>
<text x="92.0" y="162" text-anchor="middle" font-size="10" fill="#64748b">1</text>
<line x1="307.0" y1="42" x2="307.0" y2="144" stroke="#e5e7eb"/>
<text x="307.0" y="162" text-anchor="middle" font-size="10" fill="#64748b">30.8</text>
<line x1="522.0" y1="42" x2="522.0" y2="144" stroke="#e5e7eb"/>
<text x="522.0" y="162" text-anchor="middle" font-size="10" fill="#64748b">60.5</text>
<line x1="737.0" y1="42" x2="737.0" y2="144" stroke="#e5e7eb"/>
<text x="737.0" y="162" text-anchor="middle" font-size="10" fill="#64748b">90.2</text>
<line x1="952.0" y1="42" x2="952.0" y2="144" stroke="#e5e7eb"/>
<text x="952.0" y="162" text-anchor="middle" font-size="10" fill="#64748b">120</text>
<line x1="92" y1="144.0" x2="952" y2="144.0" stroke="#e5e7eb"/>
<text x="84" y="148.0" text-anchor="end" font-size="10" fill="#64748b">0.03</text>
<line x1="92" y1="110.0" x2="952" y2="110.0" stroke="#e5e7eb"/>
<text x="84" y="114.0" text-anchor="end" font-size="10" fill="#64748b">0.0774</text>
<line x1="92" y1="76.0" x2="952" y2="76.0" stroke="#e5e7eb"/>
<text x="84" y="80.0" text-anchor="end" font-size="10" fill="#64748b">0.125</text>
<line x1="92" y1="42.0" x2="952" y2="42.0" stroke="#e5e7eb"/>
<text x="84" y="46.0" text-anchor="end" font-size="10" fill="#64748b">0.172</text>
<polyline points="92.0,95.8 99.2,90.0 106.5,98.7 113.7,87.5 120.9,69.1 128.1,85.7 135.4,81.0 142.6,128.5 149.8,90.6 157.0,100.7 164.3,124.0 171.5,101.0 178.7,133.2 185.9,92.9 193.2,88.4 200.4,71.8 207.6,107.7 214.9,127.9 222.1,84.8 229.3,95.6 236.5,123.8 243.8,96.9 251.0,75.4 258.2,92.0 265.4,106.3 272.7,98.5 279.9,92.7 287.1,105.4 294.4,42.0 301.6,88.9 308.8,101.2 316.0,112.4 323.3,66.2 330.5,88.0 337.7,93.6 344.9,81.7 352.2,87.3 359.4,100.5 366.6,86.4 373.8,90.6 381.1,106.8 388.3,111.7 395.5,116.2 402.8,85.5 410.0,138.6 417.2,111.7 424.4,84.8 431.7,101.0 438.9,144.0 446.1,95.6 453.3,122.5 460.6,144.0 467.8,138.6 475.0,101.0 482.3,122.5 489.5,86.6 496.7,101.9 503.9,101.0 511.2,101.0 518.4,106.3 525.6,138.6 532.8,122.5 540.1,144.0 547.3,117.1 554.5,106.3 561.7,138.6 569.0,111.7 576.2,117.1 583.4,91.1 590.7,133.2 597.9,68.7 605.1,144.0 612.3,133.2 619.6,106.3 626.8,111.7 634.0,111.7 641.2,133.2 648.5,90.2 655.7,117.1 662.9,95.6 670.2,65.8 677.4,57.9 684.6,57.9 691.8,95.6 699.1,98.7 706.3,144.0 713.5,57.9 720.7,63.3 728.0,74.1 735.2,117.1 742.4,50.7 749.6,101.0 756.9,69.6 764.1,72.7 771.3,111.7 778.6,91.1 785.8,111.7 793.0,144.0 800.2,98.7 807.5,134.1 814.7,91.5 821.9,94.2 829.1,93.8 836.4,99.4 843.6,83.7 850.8,117.1 858.1,106.8 865.3,91.8 872.5,63.5 879.7,94.9 887.0,49.2 894.2,89.5 901.4,101.2 908.6,73.4 915.9,90.4 923.1,107.7 930.3,127.6 937.5,74.5 944.8,120.2 952.0,97.8" fill="none" stroke="#2563eb" stroke-width="2"/>
<text x="952" y="22" text-anchor="end" font-size="11" fill="#64748b">min=0.03 max=0.1722 last=0.09437</text>
</g>
<g transform="translate(0,248)">
<text x="92" y="22" font-size="13" font-weight="700">timing_s/agent_loop/compute_score/mean</text>
<rect x="92" y="42" width="860" height="102" fill="#fafafa" stroke="#e2e8f0"/>
<line x1="92.0" y1="42" x2="92.0" y2="144" stroke="#e5e7eb"/>
<text x="92.0" y="162" text-anchor="middle" font-size="10" fill="#64748b">1</text>
<line x1="307.0" y1="42" x2="307.0" y2="144" stroke="#e5e7eb"/>
<text x="307.0" y="162" text-anchor="middle" font-size="10" fill="#64748b">30.8</text>
<line x1="522.0" y1="42" x2="522.0" y2="144" stroke="#e5e7eb"/>
<text x="522.0" y="162" text-anchor="middle" font-size="10" fill="#64748b">60.5</text>
<line x1="737.0" y1="42" x2="737.0" y2="144" stroke="#e5e7eb"/>
<text x="737.0" y="162" text-anchor="middle" font-size="10" fill="#64748b">90.2</text>
<line x1="952.0" y1="42" x2="952.0" y2="144" stroke="#e5e7eb"/>
<text x="952.0" y="162" text-anchor="middle" font-size="10" fill="#64748b">120</text>
<line x1="92" y1="144.0" x2="952" y2="144.0" stroke="#e5e7eb"/>
<text x="84" y="148.0" text-anchor="end" font-size="10" fill="#64748b">5.45</text>
<line x1="92" y1="110.0" x2="952" y2="110.0" stroke="#e5e7eb"/>
<text x="84" y="114.0" text-anchor="end" font-size="10" fill="#64748b">17.3</text>
<line x1="92" y1="76.0" x2="952" y2="76.0" stroke="#e5e7eb"/>
<text x="84" y="80.0" text-anchor="end" font-size="10" fill="#64748b">29.1</text>
<line x1="92" y1="42.0" x2="952" y2="42.0" stroke="#e5e7eb"/>
<text x="84" y="46.0" text-anchor="end" font-size="10" fill="#64748b">41.0</text>
<polyline points="92.0,115.8 99.2,142.7 106.5,141.8 113.7,139.9 120.9,143.9 128.1,142.5 135.4,143.5 142.6,142.8 149.8,141.2 157.0,141.6 164.3,141.6 171.5,109.2 178.7,105.0 185.9,65.2 193.2,138.1 200.4,141.3 207.6,50.0 214.9,102.8 222.1,107.4 229.3,121.3 236.5,57.8 243.8,45.1 251.0,140.7 258.2,142.5 265.4,139.7 272.7,144.0 279.9,137.5 287.1,142.1 294.4,140.5 301.6,141.6 308.8,139.0 316.0,134.9 323.3,139.6 330.5,137.3 337.7,140.5 344.9,143.1 352.2,138.3 359.4,126.6 366.6,136.2 373.8,129.5 381.1,111.4 388.3,105.2 395.5,127.8 402.8,139.7 410.0,130.9 417.2,130.0 424.4,131.2 431.7,130.9 438.9,115.2 446.1,122.3 453.3,109.9 460.6,123.8 467.8,66.1 475.0,135.2 482.3,131.0 489.5,120.8 496.7,130.2 503.9,132.6 511.2,130.5 518.4,124.4 525.6,131.2 532.8,125.8 540.1,133.7 547.3,134.7 554.5,127.5 561.7,130.6 569.0,133.4 576.2,134.3 583.4,134.1 590.7,134.7 597.9,134.5 605.1,135.3 612.3,112.8 619.6,131.8 626.8,130.8 634.0,127.6 641.2,131.7 648.5,129.5 655.7,117.1 662.9,135.9 670.2,121.7 677.4,118.4 684.6,89.0 691.8,130.6 699.1,100.8 706.3,133.0 713.5,115.3 720.7,133.3 728.0,115.8 735.2,130.9 742.4,133.8 749.6,134.6 756.9,130.2 764.1,118.1 771.3,129.9 778.6,130.5 785.8,114.7 793.0,135.3 800.2,128.9 807.5,97.0 814.7,138.6 821.9,141.2 829.1,140.2 836.4,120.0 843.6,137.1 850.8,141.0 858.1,136.9 865.3,77.2 872.5,133.3 879.7,140.0 887.0,49.6 894.2,123.9 901.4,140.0 908.6,94.6 915.9,103.8 923.1,62.3 930.3,59.1 937.5,53.2 944.8,44.7 952.0,42.0" fill="none" stroke="#16a34a" stroke-width="2"/>
<text x="952" y="22" text-anchor="end" font-size="11" fill="#64748b">min=5.453 max=40.98 last=40.98</text>
</g>
<g transform="translate(0,438)">
<text x="92" y="22" font-size="13" font-weight="700">critic/rewards/mean</text>
<rect x="92" y="42" width="860" height="102" fill="#fafafa" stroke="#e2e8f0"/>
<line x1="92.0" y1="42" x2="92.0" y2="144" stroke="#e5e7eb"/>
<text x="92.0" y="162" text-anchor="middle" font-size="10" fill="#64748b">1</text>
<line x1="307.0" y1="42" x2="307.0" y2="144" stroke="#e5e7eb"/>
<text x="307.0" y="162" text-anchor="middle" font-size="10" fill="#64748b">30.8</text>
<line x1="522.0" y1="42" x2="522.0" y2="144" stroke="#e5e7eb"/>
<text x="522.0" y="162" text-anchor="middle" font-size="10" fill="#64748b">60.5</text>
<line x1="737.0" y1="42" x2="737.0" y2="144" stroke="#e5e7eb"/>
<text x="737.0" y="162" text-anchor="middle" font-size="10" fill="#64748b">90.2</text>
<line x1="952.0" y1="42" x2="952.0" y2="144" stroke="#e5e7eb"/>
<text x="952.0" y="162" text-anchor="middle" font-size="10" fill="#64748b">120</text>
<line x1="92" y1="144.0" x2="952" y2="144.0" stroke="#e5e7eb"/>
<text x="84" y="148.0" text-anchor="end" font-size="10" fill="#64748b">0.03</text>
<line x1="92" y1="110.0" x2="952" y2="110.0" stroke="#e5e7eb"/>
<text x="84" y="114.0" text-anchor="end" font-size="10" fill="#64748b">0.0774</text>
<line x1="92" y1="76.0" x2="952" y2="76.0" stroke="#e5e7eb"/>
<text x="84" y="80.0" text-anchor="end" font-size="10" fill="#64748b">0.125</text>
<line x1="92" y1="42.0" x2="952" y2="42.0" stroke="#e5e7eb"/>
<text x="84" y="46.0" text-anchor="end" font-size="10" fill="#64748b">0.172</text>
<polyline points="92.0,95.8 99.2,90.0 106.5,98.7 113.7,87.5 120.9,69.1 128.1,85.7 135.4,81.0 142.6,128.5 149.8,90.6 157.0,100.7 164.3,124.0 171.5,101.0 178.7,133.2 185.9,92.9 193.2,88.4 200.4,71.8 207.6,107.7 214.9,127.9 222.1,84.8 229.3,95.6 236.5,123.8 243.8,96.9 251.0,75.4 258.2,92.0 265.4,106.3 272.7,98.5 279.9,92.7 287.1,105.4 294.4,42.0 301.6,88.9 308.8,101.2 316.0,112.4 323.3,66.2 330.5,88.0 337.7,93.6 344.9,81.7 352.2,87.3 359.4,100.5 366.6,86.4 373.8,90.6 381.1,106.8 388.3,111.7 395.5,116.2 402.8,85.5 410.0,138.6 417.2,111.7 424.4,84.8 431.7,101.0 438.9,144.0 446.1,95.6 453.3,122.5 460.6,144.0 467.8,138.6 475.0,101.0 482.3,122.5 489.5,86.6 496.7,101.9 503.9,101.0 511.2,101.0 518.4,106.3 525.6,138.6 532.8,122.5 540.1,144.0 547.3,117.1 554.5,106.3 561.7,138.6 569.0,111.7 576.2,117.1 583.4,91.1 590.7,133.2 597.9,68.7 605.1,144.0 612.3,133.2 619.6,106.3 626.8,111.7 634.0,111.7 641.2,133.2 648.5,90.2 655.7,117.1 662.9,95.6 670.2,65.8 677.4,57.9 684.6,57.9 691.8,95.6 699.1,98.7 706.3,144.0 713.5,57.9 720.7,63.3 728.0,74.1 735.2,117.1 742.4,50.7 749.6,101.0 756.9,69.6 764.1,72.7 771.3,111.7 778.6,91.1 785.8,111.7 793.0,144.0 800.2,98.7 807.5,134.1 814.7,91.5 821.9,94.2 829.1,93.8 836.4,99.4 843.6,83.7 850.8,117.1 858.1,106.8 865.3,91.8 872.5,63.5 879.7,94.9 887.0,49.2 894.2,89.5 901.4,101.2 908.6,73.4 915.9,90.4 923.1,107.7 930.3,127.6 937.5,74.5 944.8,120.2 952.0,97.8" fill="none" stroke="#dc2626" stroke-width="2"/>
<text x="952" y="22" text-anchor="end" font-size="11" fill="#64748b">min=0.03 max=0.1722 last=0.09437</text>
</g>
<g transform="translate(0,628)">
<text x="92" y="22" font-size="13" font-weight="700">critic/rewards/max</text>
<rect x="92" y="42" width="860" height="102" fill="#fafafa" stroke="#e2e8f0"/>
<line x1="92.0" y1="42" x2="92.0" y2="144" stroke="#e5e7eb"/>
<text x="92.0" y="162" text-anchor="middle" font-size="10" fill="#64748b">1</text>
<line x1="307.0" y1="42" x2="307.0" y2="144" stroke="#e5e7eb"/>
<text x="307.0" y="162" text-anchor="middle" font-size="10" fill="#64748b">30.8</text>
<line x1="522.0" y1="42" x2="522.0" y2="144" stroke="#e5e7eb"/>
<text x="522.0" y="162" text-anchor="middle" font-size="10" fill="#64748b">60.5</text>
<line x1="737.0" y1="42" x2="737.0" y2="144" stroke="#e5e7eb"/>
<text x="737.0" y="162" text-anchor="middle" font-size="10" fill="#64748b">90.2</text>
<line x1="952.0" y1="42" x2="952.0" y2="144" stroke="#e5e7eb"/>
<text x="952.0" y="162" text-anchor="middle" font-size="10" fill="#64748b">120</text>
<line x1="92" y1="144.0" x2="952" y2="144.0" stroke="#e5e7eb"/>
<text x="84" y="148.0" text-anchor="end" font-size="10" fill="#64748b">0.03</text>
<line x1="92" y1="110.0" x2="952" y2="110.0" stroke="#e5e7eb"/>
<text x="84" y="114.0" text-anchor="end" font-size="10" fill="#64748b">0.137</text>
<line x1="92" y1="76.0" x2="952" y2="76.0" stroke="#e5e7eb"/>
<text x="84" y="80.0" text-anchor="end" font-size="10" fill="#64748b">0.243</text>
<line x1="92" y1="42.0" x2="952" y2="42.0" stroke="#e5e7eb"/>
<text x="84" y="46.0" text-anchor="end" font-size="10" fill="#64748b">0.35</text>
<polyline points="92.0,93.0 99.2,105.7 106.5,105.7 113.7,91.4 120.9,89.8 128.1,89.8 135.4,105.7 142.6,105.7 149.8,105.7 157.0,93.0 164.3,105.7 171.5,105.7 178.7,105.7 185.9,48.4 193.2,89.8 200.4,89.8 207.6,105.7 214.9,105.7 222.1,105.7 229.3,105.7 236.5,105.7 243.8,89.8 251.0,89.8 258.2,105.7 265.4,105.7 272.7,105.7 279.9,104.2 287.1,89.8 294.4,89.8 301.6,93.0 308.8,105.7 316.0,93.0 323.3,89.8 330.5,105.7 337.7,89.8 344.9,89.8 352.2,89.8 359.4,101.0 366.6,93.0 373.8,96.2 381.1,105.7 388.3,105.7 395.5,105.7 402.8,105.7 410.0,105.7 417.2,105.7 424.4,105.7 431.7,105.7 438.9,144.0 446.1,105.7 453.3,105.7 460.6,144.0 467.8,105.7 475.0,105.7 482.3,105.7 489.5,42.0 496.7,89.8 503.9,105.7 511.2,105.7 518.4,105.7 525.6,105.7 532.8,105.7 540.1,144.0 547.3,105.7 554.5,105.7 561.7,105.7 569.0,105.7 576.2,105.7 583.4,73.9 590.7,105.7 597.9,105.7 605.1,144.0 612.3,105.7 619.6,105.7 626.8,105.7 634.0,105.7 641.2,105.7 648.5,105.7 655.7,105.7 662.9,105.7 670.2,46.8 677.4,105.7 684.6,105.7 691.8,105.7 699.1,89.8 706.3,144.0 713.5,105.7 720.7,105.7 728.0,42.0 735.2,105.7 742.4,42.0 749.6,105.7 756.9,89.8 764.1,73.9 771.3,105.7 778.6,105.7 785.8,105.7 793.0,144.0 800.2,89.8 807.5,105.7 814.7,89.8 821.9,105.7 829.1,96.2 836.4,89.8 843.6,105.7 850.8,105.7 858.1,91.4 865.3,105.7 872.5,89.8 879.7,105.7 887.0,42.0 894.2,89.8 901.4,105.7 908.6,89.8 915.9,105.7 923.1,105.7 930.3,116.9 937.5,89.8 944.8,89.8 952.0,105.7" fill="none" stroke="#9333ea" stroke-width="2"/>
<text x="952" y="22" text-anchor="end" font-size="11" fill="#64748b">min=0.03 max=0.35 last=0.15</text>
</g>
<g transform="translate(0,818)">
<text x="92" y="22" font-size="13" font-weight="700">critic/rewards/min</text>
<rect x="92" y="42" width="860" height="102" fill="#fafafa" stroke="#e2e8f0"/>
<line x1="92.0" y1="42" x2="92.0" y2="144" stroke="#e5e7eb"/>
<text x="92.0" y="162" text-anchor="middle" font-size="10" fill="#64748b">1</text>
<line x1="307.0" y1="42" x2="307.0" y2="144" stroke="#e5e7eb"/>
<text x="307.0" y="162" text-anchor="middle" font-size="10" fill="#64748b">30.8</text>
<line x1="522.0" y1="42" x2="522.0" y2="144" stroke="#e5e7eb"/>
<text x="522.0" y="162" text-anchor="middle" font-size="10" fill="#64748b">60.5</text>
<line x1="737.0" y1="42" x2="737.0" y2="144" stroke="#e5e7eb"/>
<text x="737.0" y="162" text-anchor="middle" font-size="10" fill="#64748b">90.2</text>
<line x1="952.0" y1="42" x2="952.0" y2="144" stroke="#e5e7eb"/>
<text x="952.0" y="162" text-anchor="middle" font-size="10" fill="#64748b">120</text>
<line x1="92" y1="144.0" x2="952" y2="144.0" stroke="#e5e7eb"/>
<text x="84" y="148.0" text-anchor="end" font-size="10" fill="#64748b">0</text>
<line x1="92" y1="110.0" x2="952" y2="110.0" stroke="#e5e7eb"/>
<text x="84" y="114.0" text-anchor="end" font-size="10" fill="#64748b">0.05</text>
<line x1="92" y1="76.0" x2="952" y2="76.0" stroke="#e5e7eb"/>
<text x="84" y="80.0" text-anchor="end" font-size="10" fill="#64748b">0.1</text>
<line x1="92" y1="42.0" x2="952" y2="42.0" stroke="#e5e7eb"/>
<text x="84" y="46.0" text-anchor="end" font-size="10" fill="#64748b">0.15</text>
<polyline points="92.0,123.6 99.2,123.6 106.5,123.6 113.7,123.6 120.9,127.0 128.1,123.6 135.4,123.6 142.6,123.6 149.8,123.6 157.0,123.6 164.3,123.6 171.5,123.6 178.7,123.6 185.9,123.6 193.2,123.6 200.4,123.6 207.6,144.0 214.9,123.6 222.1,123.6 229.3,123.6 236.5,144.0 243.8,130.4 251.0,123.6 258.2,123.6 265.4,123.6 272.7,123.6 279.9,123.6 287.1,123.6 294.4,123.6 301.6,123.6 308.8,123.6 316.0,123.6 323.3,123.6 330.5,123.6 337.7,130.4 344.9,123.6 352.2,123.6 359.4,127.0 366.6,123.6 373.8,123.6 381.1,123.6 388.3,123.6 395.5,123.6 402.8,89.6 410.0,123.6 417.2,123.6 424.4,123.6 431.7,123.6 438.9,123.6 446.1,123.6 453.3,123.6 460.6,123.6 467.8,123.6 475.0,123.6 482.3,123.6 489.5,123.6 496.7,123.6 503.9,123.6 511.2,123.6 518.4,123.6 525.6,123.6 532.8,123.6 540.1,123.6 547.3,123.6 554.5,123.6 561.7,123.6 569.0,123.6 576.2,123.6 583.4,123.6 590.7,123.6 597.9,123.6 605.1,123.6 612.3,123.6 619.6,123.6 626.8,123.6 634.0,123.6 641.2,123.6 648.5,123.6 655.7,123.6 662.9,123.6 670.2,123.6 677.4,42.0 684.6,42.0 691.8,123.6 699.1,123.6 706.3,123.6 713.5,42.0 720.7,123.6 728.0,123.6 735.2,123.6 742.4,123.6 749.6,123.6 756.9,123.6 764.1,123.6 771.3,123.6 778.6,123.6 785.8,123.6 793.0,123.6 800.2,123.6 807.5,123.6 814.7,123.6 821.9,123.6 829.1,123.6 836.4,123.6 843.6,123.6 850.8,130.4 858.1,130.4 865.3,144.0 872.5,123.6 879.7,123.6 887.0,123.6 894.2,123.6 901.4,123.6 908.6,144.0 915.9,123.6 923.1,123.6 930.3,130.4 937.5,144.0 944.8,144.0 952.0,123.6" fill="none" stroke="#ea580c" stroke-width="2"/>
<text x="952" y="22" text-anchor="end" font-size="11" fill="#64748b">min=0 max=0.15 last=0.03</text>
</g>
<g transform="translate(0,1008)">
<text x="92" y="22" font-size="13" font-weight="700">timing_s/reward</text>
<rect x="92" y="42" width="860" height="102" fill="#fafafa" stroke="#e2e8f0"/>
<line x1="92.0" y1="42" x2="92.0" y2="144" stroke="#e5e7eb"/>
<text x="92.0" y="162" text-anchor="middle" font-size="10" fill="#64748b">1</text>
<line x1="307.0" y1="42" x2="307.0" y2="144" stroke="#e5e7eb"/>
<text x="307.0" y="162" text-anchor="middle" font-size="10" fill="#64748b">30.8</text>
<line x1="522.0" y1="42" x2="522.0" y2="144" stroke="#e5e7eb"/>
<text x="522.0" y="162" text-anchor="middle" font-size="10" fill="#64748b">60.5</text>
<line x1="737.0" y1="42" x2="737.0" y2="144" stroke="#e5e7eb"/>
<text x="737.0" y="162" text-anchor="middle" font-size="10" fill="#64748b">90.2</text>
<line x1="952.0" y1="42" x2="952.0" y2="144" stroke="#e5e7eb"/>
<text x="952.0" y="162" text-anchor="middle" font-size="10" fill="#64748b">120</text>
<line x1="92" y1="144.0" x2="952" y2="144.0" stroke="#e5e7eb"/>
<text x="84" y="148.0" text-anchor="end" font-size="10" fill="#64748b">3.69e-05</text>
<line x1="92" y1="110.0" x2="952" y2="110.0" stroke="#e5e7eb"/>
<text x="84" y="114.0" text-anchor="end" font-size="10" fill="#64748b">0.000198</text>
<line x1="92" y1="76.0" x2="952" y2="76.0" stroke="#e5e7eb"/>
<text x="84" y="80.0" text-anchor="end" font-size="10" fill="#64748b">0.000359</text>
<line x1="92" y1="42.0" x2="952" y2="42.0" stroke="#e5e7eb"/>
<text x="84" y="46.0" text-anchor="end" font-size="10" fill="#64748b">0.00052</text>
<polyline points="92.0,144.0 99.2,138.5 106.5,141.5 113.7,140.9 120.9,140.3 128.1,138.5 135.4,140.7 142.6,139.6 149.8,135.3 157.0,140.2 164.3,141.5 171.5,135.0 178.7,137.6 185.9,124.9 193.2,124.7 200.4,139.5 207.6,117.5 214.9,136.3 222.1,138.2 229.3,139.7 236.5,137.9 243.8,103.9 251.0,122.4 258.2,140.7 265.4,130.6 272.7,134.8 279.9,139.9 287.1,132.2 294.4,131.2 301.6,139.4 308.8,137.5 316.0,138.5 323.3,141.5 330.5,139.0 337.7,135.2 344.9,141.5 352.2,140.5 359.4,139.7 366.6,133.7 373.8,142.0 381.1,114.3 388.3,139.6 395.5,137.5 402.8,130.9 410.0,139.5 417.2,142.6 424.4,142.5 431.7,138.9 438.9,142.0 446.1,136.0 453.3,140.5 460.6,141.1 467.8,140.1 475.0,141.6 482.3,140.9 489.5,140.7 496.7,140.9 503.9,136.3 511.2,63.9 518.4,142.6 525.6,141.3 532.8,142.6 540.1,142.7 547.3,135.3 554.5,137.3 561.7,143.1 569.0,139.8 576.2,138.0 583.4,136.5 590.7,142.1 597.9,141.9 605.1,130.2 612.3,141.4 619.6,132.5 626.8,143.4 634.0,142.4 641.2,140.4 648.5,143.0 655.7,123.7 662.9,141.3 670.2,138.9 677.4,143.2 684.6,140.1 691.8,130.1 699.1,140.2 706.3,142.9 713.5,141.0 720.7,135.8 728.0,140.8 735.2,142.8 742.4,142.2 749.6,142.3 756.9,140.4 764.1,141.9 771.3,140.2 778.6,139.7 785.8,142.9 793.0,142.5 800.2,133.9 807.5,138.4 814.7,140.4 821.9,141.5 829.1,142.3 836.4,135.0 843.6,139.9 850.8,131.3 858.1,140.2 865.3,129.2 872.5,141.5 879.7,139.2 887.0,140.5 894.2,141.0 901.4,138.8 908.6,140.6 915.9,139.1 923.1,141.0 930.3,139.3 937.5,42.0 944.8,140.1 952.0,141.6" fill="none" stroke="#0891b2" stroke-width="2"/>
<text x="952" y="22" text-anchor="end" font-size="11" fill="#64748b">min=3.688e-05 max=0.0005205 last=4.805e-05</text>
</g>
<g transform="translate(0,1198)">
<text x="92" y="22" font-size="13" font-weight="700">critic/advantages/max</text>
<rect x="92" y="42" width="860" height="102" fill="#fafafa" stroke="#e2e8f0"/>
<line x1="92.0" y1="42" x2="92.0" y2="144" stroke="#e5e7eb"/>
<text x="92.0" y="162" text-anchor="middle" font-size="10" fill="#64748b">1</text>
<line x1="307.0" y1="42" x2="307.0" y2="144" stroke="#e5e7eb"/>
<text x="307.0" y="162" text-anchor="middle" font-size="10" fill="#64748b">30.8</text>
<line x1="522.0" y1="42" x2="522.0" y2="144" stroke="#e5e7eb"/>
<text x="522.0" y="162" text-anchor="middle" font-size="10" fill="#64748b">60.5</text>
<line x1="737.0" y1="42" x2="737.0" y2="144" stroke="#e5e7eb"/>
<text x="737.0" y="162" text-anchor="middle" font-size="10" fill="#64748b">90.2</text>
<line x1="952.0" y1="42" x2="952.0" y2="144" stroke="#e5e7eb"/>
<text x="952.0" y="162" text-anchor="middle" font-size="10" fill="#64748b">120</text>
<line x1="92" y1="144.0" x2="952" y2="144.0" stroke="#e5e7eb"/>
<text x="84" y="148.0" text-anchor="end" font-size="10" fill="#64748b">0</text>
<line x1="92" y1="110.0" x2="952" y2="110.0" stroke="#e5e7eb"/>
<text x="84" y="114.0" text-anchor="end" font-size="10" fill="#64748b">0.825</text>
<line x1="92" y1="76.0" x2="952" y2="76.0" stroke="#e5e7eb"/>
<text x="84" y="80.0" text-anchor="end" font-size="10" fill="#64748b">1.65</text>
<line x1="92" y1="42.0" x2="952" y2="42.0" stroke="#e5e7eb"/>
<text x="84" y="46.0" text-anchor="end" font-size="10" fill="#64748b">2.47</text>
<polyline points="92.0,88.7 99.2,75.0 106.5,98.7 113.7,93.5 120.9,102.4 128.1,67.8 135.4,109.2 142.6,42.0 149.8,88.4 157.0,97.4 164.3,91.9 171.5,143.4 178.7,77.2 185.9,42.0 193.2,67.0 200.4,95.8 207.6,129.4 214.9,42.0 222.1,94.2 229.3,42.0 236.5,105.8 243.8,42.3 251.0,95.0 258.2,77.5 265.4,81.9 272.7,70.0 279.9,86.1 287.1,77.2 294.4,110.1 301.6,73.9 308.8,66.5 316.0,61.4 323.3,71.3 330.5,99.1 337.7,85.1 344.9,78.6 352.2,83.8 359.4,90.5 366.6,77.3 373.8,95.8 381.1,65.6 388.3,77.2 395.5,66.8 402.8,74.3 410.0,42.0 417.2,121.7 424.4,105.4 431.7,143.4 438.9,144.0 446.1,105.4 453.3,42.0 460.6,144.0 467.8,42.0 475.0,143.4 482.3,42.0 489.5,42.0 496.7,102.8 503.9,143.4 511.2,143.4 518.4,129.4 525.6,42.0 532.8,105.4 540.1,144.0 547.3,114.1 554.5,42.0 561.7,42.0 569.0,121.7 576.2,42.0 583.4,42.0 590.7,77.2 597.9,121.7 605.1,144.0 612.3,77.2 619.6,129.4 626.8,121.7 634.0,42.0 641.2,77.2 648.5,77.2 655.7,42.0 662.9,42.0 670.2,42.0 677.4,143.4 684.6,143.4 691.8,42.0 699.1,42.0 706.3,144.0 713.5,143.4 720.7,129.4 728.0,94.2 735.2,114.1 742.4,77.2 749.6,143.4 756.9,98.9 764.1,54.0 771.3,77.2 778.6,69.5 785.8,121.7 793.0,144.0 800.2,42.0 807.5,42.0 814.7,78.4 821.9,65.1 829.1,85.2 836.4,44.1 843.6,97.2 850.8,64.0 858.1,57.6 865.3,103.3 872.5,101.4 879.7,87.2 887.0,84.1 894.2,80.8 901.4,59.0 908.6,105.3 915.9,80.3 923.1,71.8 930.3,42.7 937.5,114.1 944.8,58.1 952.0,79.3" fill="none" stroke="#4f46e5" stroke-width="2"/>
<text x="952" y="22" text-anchor="end" font-size="11" fill="#64748b">min=0 max=2.475 last=1.569</text>
</g>
<g transform="translate(0,1388)">
<text x="92" y="22" font-size="13" font-weight="700">critic/advantages/mean</text>
<rect x="92" y="42" width="860" height="102" fill="#fafafa" stroke="#e2e8f0"/>
<line x1="92.0" y1="42" x2="92.0" y2="144" stroke="#e5e7eb"/>
<text x="92.0" y="162" text-anchor="middle" font-size="10" fill="#64748b">1</text>
<line x1="307.0" y1="42" x2="307.0" y2="144" stroke="#e5e7eb"/>
<text x="307.0" y="162" text-anchor="middle" font-size="10" fill="#64748b">30.8</text>
<line x1="522.0" y1="42" x2="522.0" y2="144" stroke="#e5e7eb"/>
<text x="522.0" y="162" text-anchor="middle" font-size="10" fill="#64748b">60.5</text>
<line x1="737.0" y1="42" x2="737.0" y2="144" stroke="#e5e7eb"/>
<text x="737.0" y="162" text-anchor="middle" font-size="10" fill="#64748b">90.2</text>
<line x1="952.0" y1="42" x2="952.0" y2="144" stroke="#e5e7eb"/>
<text x="952.0" y="162" text-anchor="middle" font-size="10" fill="#64748b">120</text>
<line x1="92" y1="144.0" x2="952" y2="144.0" stroke="#e5e7eb"/>
<text x="84" y="148.0" text-anchor="end" font-size="10" fill="#64748b">-0.0867</text>
<line x1="92" y1="110.0" x2="952" y2="110.0" stroke="#e5e7eb"/>
<text x="84" y="114.0" text-anchor="end" font-size="10" fill="#64748b">0.0509</text>
<line x1="92" y1="76.0" x2="952" y2="76.0" stroke="#e5e7eb"/>
<text x="84" y="80.0" text-anchor="end" font-size="10" fill="#64748b">0.189</text>
<line x1="92" y1="42.0" x2="952" y2="42.0" stroke="#e5e7eb"/>
<text x="84" y="46.0" text-anchor="end" font-size="10" fill="#64748b">0.326</text>
<polyline points="92.0,122.6 99.2,121.1 106.5,112.9 113.7,132.3 120.9,122.2 128.1,114.1 135.4,122.7 142.6,122.6 149.8,122.6 157.0,121.4 164.3,122.6 171.5,120.4 178.7,122.7 185.9,123.0 193.2,122.8 200.4,124.2 207.6,122.5 214.9,122.3 222.1,120.5 229.3,120.5 236.5,122.6 243.8,123.0 251.0,125.2 258.2,124.0 265.4,122.6 272.7,96.3 279.9,122.6 287.1,123.8 294.4,119.2 301.6,121.7 308.8,122.6 316.0,114.8 323.3,144.0 330.5,121.4 337.7,121.8 344.9,122.7 352.2,122.5 359.4,42.0 366.6,122.2 373.8,122.6 381.1,126.1 388.3,122.8 395.5,122.6 402.8,122.3 410.0,123.3 417.2,122.6 424.4,122.4 431.7,120.6 438.9,122.6 446.1,122.2 453.3,125.2 460.6,122.6 467.8,122.6 475.0,121.0 482.3,126.4 489.5,122.6 496.7,113.0 503.9,120.6 511.2,120.7 518.4,122.6 525.6,122.6 532.8,122.6 540.1,122.6 547.3,122.6 554.5,124.8 561.7,122.5 569.0,123.1 576.2,112.7 583.4,122.9 590.7,125.1 597.9,120.6 605.1,122.6 612.3,123.5 619.6,122.6 626.8,122.6 634.0,122.7 641.2,123.0 648.5,120.7 655.7,121.6 662.9,120.9 670.2,124.6 677.4,119.0 684.6,119.0 691.8,120.6 699.1,123.6 706.3,122.6 713.5,119.0 720.7,120.4 728.0,121.1 735.2,123.2 742.4,124.0 749.6,120.4 756.9,116.7 764.1,107.9 771.3,131.1 778.6,120.4 785.8,124.3 793.0,122.6 800.2,118.4 807.5,132.4 814.7,122.6 821.9,122.6 829.1,123.0 836.4,123.0 843.6,136.6 850.8,122.4 858.1,126.4 865.3,120.9 872.5,128.1 879.7,122.4 887.0,122.6 894.2,122.4 901.4,137.2 908.6,122.6 915.9,122.6 923.1,122.5 930.3,127.2 937.5,104.6 944.8,126.9 952.0,123.2" fill="none" stroke="#be123c" stroke-width="2"/>
<text x="952" y="22" text-anchor="end" font-size="11" fill="#64748b">min=-0.08668 max=0.3261 last=-0.002477</text>
</g>
<g transform="translate(0,1578)">
<text x="92" y="22" font-size="13" font-weight="700">critic/advantages/min</text>
<rect x="92" y="42" width="860" height="102" fill="#fafafa" stroke="#e2e8f0"/>
<line x1="92.0" y1="42" x2="92.0" y2="144" stroke="#e5e7eb"/>
<text x="92.0" y="162" text-anchor="middle" font-size="10" fill="#64748b">1</text>
<line x1="307.0" y1="42" x2="307.0" y2="144" stroke="#e5e7eb"/>
<text x="307.0" y="162" text-anchor="middle" font-size="10" fill="#64748b">30.8</text>
<line x1="522.0" y1="42" x2="522.0" y2="144" stroke="#e5e7eb"/>
<text x="522.0" y="162" text-anchor="middle" font-size="10" fill="#64748b">60.5</text>
<line x1="737.0" y1="42" x2="737.0" y2="144" stroke="#e5e7eb"/>
<text x="737.0" y="162" text-anchor="middle" font-size="10" fill="#64748b">90.2</text>
<line x1="952.0" y1="42" x2="952.0" y2="144" stroke="#e5e7eb"/>
<text x="952.0" y="162" text-anchor="middle" font-size="10" fill="#64748b">120</text>
<line x1="92" y1="144.0" x2="952" y2="144.0" stroke="#e5e7eb"/>
<text x="84" y="148.0" text-anchor="end" font-size="10" fill="#64748b">-2.47</text>
<line x1="92" y1="110.0" x2="952" y2="110.0" stroke="#e5e7eb"/>
<text x="84" y="114.0" text-anchor="end" font-size="10" fill="#64748b">-1.64</text>
<line x1="92" y1="76.0" x2="952" y2="76.0" stroke="#e5e7eb"/>
<text x="84" y="80.0" text-anchor="end" font-size="10" fill="#64748b">-0.815</text>
<line x1="92" y1="42.0" x2="952" y2="42.0" stroke="#e5e7eb"/>
<text x="84" y="46.0" text-anchor="end" font-size="10" fill="#64748b">0.0147</text>
<polyline points="92.0,97.6 99.2,129.6 106.5,123.3 113.7,105.5 120.9,134.2 128.1,106.1 135.4,107.4 142.6,76.3 149.8,97.8 157.0,91.2 164.3,87.3 171.5,42.6 178.7,64.7 185.9,57.1 193.2,113.5 200.4,112.2 207.6,144.0 214.9,64.7 222.1,72.3 229.3,57.1 236.5,93.9 243.8,134.2 251.0,126.5 258.2,126.5 265.4,117.8 272.7,109.0 279.9,116.1 287.1,114.8 294.4,138.7 301.6,123.6 308.8,80.6 316.0,86.5 323.3,106.2 330.5,98.3 337.7,106.1 344.9,91.7 352.2,99.9 359.4,107.5 366.6,98.0 373.8,118.2 381.1,110.3 388.3,80.9 395.5,85.9 402.8,109.3 410.0,57.1 417.2,109.0 424.4,144.0 431.7,42.6 438.9,42.6 446.1,92.1 453.3,72.3 460.6,42.6 467.8,57.1 475.0,42.6 482.3,72.3 489.5,57.1 496.7,134.2 503.9,42.6 511.2,42.6 518.4,144.0 525.6,57.1 532.8,80.9 540.1,42.6 547.3,92.1 554.5,109.0 561.7,57.1 569.0,109.0 576.2,80.9 583.4,57.1 590.7,64.7 597.9,109.0 605.1,42.6 612.3,64.7 619.6,144.0 626.8,109.0 634.0,92.1 641.2,64.7 648.5,64.7 655.7,80.9 662.9,57.1 670.2,92.1 677.4,42.0 684.6,42.0 691.8,57.1 699.1,57.1 706.3,42.6 713.5,42.0 720.7,144.0 728.0,72.3 735.2,92.1 742.4,109.0 749.6,42.6 756.9,90.2 764.1,80.9 771.3,80.9 778.6,64.6 785.8,109.0 793.0,42.6 800.2,137.1 807.5,64.7 814.7,111.8 821.9,129.2 829.1,119.0 836.4,77.3 843.6,127.5 850.8,122.9 858.1,93.2 865.3,121.7 872.5,125.3 879.7,120.4 887.0,137.0 894.2,82.0 901.4,140.8 908.6,134.3 915.9,127.4 923.1,86.1 930.3,90.3 937.5,118.5 944.8,81.8 952.0,86.7" fill="none" stroke="#2563eb" stroke-width="2"/>
<text x="952" y="22" text-anchor="end" font-size="11" fill="#64748b">min=-2.475 max=0.01467 last=-1.077</text>
</g>
<g transform="translate(0,1768)">
<text x="92" y="22" font-size="13" font-weight="700">actor/grad_norm</text>
<rect x="92" y="42" width="860" height="102" fill="#fafafa" stroke="#e2e8f0"/>
<line x1="92.0" y1="42" x2="92.0" y2="144" stroke="#e5e7eb"/>
<text x="92.0" y="162" text-anchor="middle" font-size="10" fill="#64748b">1</text>
<line x1="307.0" y1="42" x2="307.0" y2="144" stroke="#e5e7eb"/>
<text x="307.0" y="162" text-anchor="middle" font-size="10" fill="#64748b">30.8</text>
<line x1="522.0" y1="42" x2="522.0" y2="144" stroke="#e5e7eb"/>
<text x="522.0" y="162" text-anchor="middle" font-size="10" fill="#64748b">60.5</text>
<line x1="737.0" y1="42" x2="737.0" y2="144" stroke="#e5e7eb"/>
<text x="737.0" y="162" text-anchor="middle" font-size="10" fill="#64748b">90.2</text>
<line x1="952.0" y1="42" x2="952.0" y2="144" stroke="#e5e7eb"/>
<text x="952.0" y="162" text-anchor="middle" font-size="10" fill="#64748b">120</text>
<line x1="92" y1="144.0" x2="952" y2="144.0" stroke="#e5e7eb"/>
<text x="84" y="148.0" text-anchor="end" font-size="10" fill="#64748b">0</text>
<line x1="92" y1="110.0" x2="952" y2="110.0" stroke="#e5e7eb"/>
<text x="84" y="114.0" text-anchor="end" font-size="10" fill="#64748b">5</text>
<line x1="92" y1="76.0" x2="952" y2="76.0" stroke="#e5e7eb"/>
<text x="84" y="80.0" text-anchor="end" font-size="10" fill="#64748b">10.0</text>
<line x1="92" y1="42.0" x2="952" y2="42.0" stroke="#e5e7eb"/>
<text x="84" y="46.0" text-anchor="end" font-size="10" fill="#64748b">15.0</text>
<polyline points="92.0,111.0 99.2,103.5 106.5,113.6 113.7,92.4 120.9,118.5 128.1,84.5 135.4,113.3 142.6,124.5 149.8,117.7 157.0,125.8 164.3,123.9 171.5,143.7 178.7,127.8 185.9,99.0 193.2,51.8 200.4,112.8 207.6,122.5 214.9,119.6 222.1,128.7 229.3,133.4 236.5,114.9 243.8,114.8 251.0,80.4 258.2,118.3 265.4,120.3 272.7,66.6 279.9,115.5 287.1,65.1 294.4,111.7 301.6,117.7 308.8,110.4 316.0,103.7 323.3,73.6 330.5,120.5 337.7,113.7 344.9,113.2 352.2,96.8 359.4,115.4 366.6,98.5 373.8,106.6 381.1,88.5 388.3,114.1 395.5,120.9 402.8,120.9 410.0,118.7 417.2,112.5 424.4,119.4 431.7,143.7 438.9,144.0 446.1,112.0 453.3,95.1 460.6,144.0 467.8,120.1 475.0,143.9 482.3,91.4 489.5,120.6 496.7,69.7 503.9,143.2 511.2,143.0 518.4,128.6 525.6,101.1 532.8,94.8 540.1,144.0 547.3,114.8 554.5,90.1 561.7,121.4 569.0,119.5 576.2,42.0 583.4,80.8 590.7,120.9 597.9,123.7 605.1,144.0 612.3,128.4 619.6,95.3 626.8,112.0 634.0,111.9 641.2,123.6 648.5,121.0 655.7,96.6 662.9,132.0 670.2,94.5 677.4,143.1 684.6,143.5 691.8,125.1 699.1,125.7 706.3,144.0 713.5,143.2 720.7,120.6 728.0,96.7 735.2,122.6 742.4,110.5 749.6,143.7 756.9,116.3 764.1,121.3 771.3,81.7 778.6,133.5 785.8,124.7 793.0,144.0 800.2,91.0 807.5,98.7 814.7,103.9 821.9,130.1 829.1,104.0 836.4,109.6 843.6,116.1 850.8,113.1 858.1,88.9 865.3,114.9 872.5,122.1 879.7,126.4 887.0,110.7 894.2,115.3 901.4,107.8 908.6,121.9 915.9,107.0 923.1,127.2 930.3,108.2 937.5,79.2 944.8,106.7 952.0,115.0" fill="none" stroke="#16a34a" stroke-width="2"/>
<text x="952" y="22" text-anchor="end" font-size="11" fill="#64748b">min=0 max=15 last=4.269</text>
</g>
<g transform="translate(0,1958)">
<text x="92" y="22" font-size="13" font-weight="700">actor/loss</text>
<rect x="92" y="42" width="860" height="102" fill="#fafafa" stroke="#e2e8f0"/>
<line x1="92.0" y1="42" x2="92.0" y2="144" stroke="#e5e7eb"/>
<text x="92.0" y="162" text-anchor="middle" font-size="10" fill="#64748b">1</text>
<line x1="307.0" y1="42" x2="307.0" y2="144" stroke="#e5e7eb"/>
<text x="307.0" y="162" text-anchor="middle" font-size="10" fill="#64748b">30.8</text>
<line x1="522.0" y1="42" x2="522.0" y2="144" stroke="#e5e7eb"/>
<text x="522.0" y="162" text-anchor="middle" font-size="10" fill="#64748b">60.5</text>
<line x1="737.0" y1="42" x2="737.0" y2="144" stroke="#e5e7eb"/>
<text x="737.0" y="162" text-anchor="middle" font-size="10" fill="#64748b">90.2</text>
<line x1="952.0" y1="42" x2="952.0" y2="144" stroke="#e5e7eb"/>
<text x="952.0" y="162" text-anchor="middle" font-size="10" fill="#64748b">120</text>
<line x1="92" y1="144.0" x2="952" y2="144.0" stroke="#e5e7eb"/>
<text x="84" y="148.0" text-anchor="end" font-size="10" fill="#64748b">-0.326</text>
<line x1="92" y1="110.0" x2="952" y2="110.0" stroke="#e5e7eb"/>
<text x="84" y="114.0" text-anchor="end" font-size="10" fill="#64748b">-0.189</text>
<line x1="92" y1="76.0" x2="952" y2="76.0" stroke="#e5e7eb"/>
<text x="84" y="80.0" text-anchor="end" font-size="10" fill="#64748b">-0.0509</text>
<line x1="92" y1="42.0" x2="952" y2="42.0" stroke="#e5e7eb"/>
<text x="84" y="46.0" text-anchor="end" font-size="10" fill="#64748b">0.0867</text>
<polyline points="92.0,63.4 99.2,64.9 106.5,73.1 113.7,53.7 120.9,63.8 128.1,71.9 135.4,63.3 142.6,63.4 149.8,63.4 157.0,64.6 164.3,63.4 171.5,65.6 178.7,63.3 185.9,63.0 193.2,63.2 200.4,61.8 207.6,63.5 214.9,63.7 222.1,65.5 229.3,65.5 236.5,63.4 243.8,63.0 251.0,60.8 258.2,62.0 265.4,63.4 272.7,89.7 279.9,63.4 287.1,62.2 294.4,66.8 301.6,64.3 308.8,63.4 316.0,71.2 323.3,42.0 330.5,64.6 337.7,64.2 344.9,63.3 352.2,63.5 359.4,144.0 366.6,63.8 373.8,63.4 381.1,59.9 388.3,63.2 395.5,63.4 402.8,63.7 410.0,62.7 417.2,63.4 424.4,63.6 431.7,65.4 438.9,63.4 446.1,63.8 453.3,60.8 460.6,63.4 467.8,63.4 475.0,65.0 482.3,59.6 489.5,63.4 496.7,73.0 503.9,65.4 511.2,65.3 518.4,63.4 525.6,63.4 532.8,63.4 540.1,63.4 547.3,63.4 554.5,61.2 561.7,63.5 569.0,62.9 576.2,73.3 583.4,63.1 590.7,60.9 597.9,65.4 605.1,63.4 612.3,62.5 619.6,63.4 626.8,63.4 634.0,63.3 641.2,63.0 648.5,65.3 655.7,64.4 662.9,65.1 670.2,61.4 677.4,67.0 684.6,67.0 691.8,65.4 699.1,62.4 706.3,63.4 713.5,67.0 720.7,65.6 728.0,64.9 735.2,62.8 742.4,62.0 749.6,65.6 756.9,69.3 764.1,78.1 771.3,54.9 778.6,65.6 785.8,61.7 793.0,63.4 800.2,67.6 807.5,53.6 814.7,63.4 821.9,63.4 829.1,63.0 836.4,63.0 843.6,49.4 850.8,63.6 858.1,59.6 865.3,65.1 872.5,57.9 879.7,63.6 887.0,63.4 894.2,63.6 901.4,48.8 908.6,63.4 915.9,63.4 923.1,63.5 930.3,58.8 937.5,81.4 944.8,59.1 952.0,62.8" fill="none" stroke="#dc2626" stroke-width="2"/>
<text x="952" y="22" text-anchor="end" font-size="11" fill="#64748b">min=-0.3261 max=0.08668 last=0.002477</text>
</g>
<g transform="translate(0,2148)">
<text x="92" y="22" font-size="13" font-weight="700">actor/pg_loss</text>
<rect x="92" y="42" width="860" height="102" fill="#fafafa" stroke="#e2e8f0"/>
<line x1="92.0" y1="42" x2="92.0" y2="144" stroke="#e5e7eb"/>
<text x="92.0" y="162" text-anchor="middle" font-size="10" fill="#64748b">1</text>
<line x1="307.0" y1="42" x2="307.0" y2="144" stroke="#e5e7eb"/>
<text x="307.0" y="162" text-anchor="middle" font-size="10" fill="#64748b">30.8</text>
<line x1="522.0" y1="42" x2="522.0" y2="144" stroke="#e5e7eb"/>
<text x="522.0" y="162" text-anchor="middle" font-size="10" fill="#64748b">60.5</text>
<line x1="737.0" y1="42" x2="737.0" y2="144" stroke="#e5e7eb"/>
<text x="737.0" y="162" text-anchor="middle" font-size="10" fill="#64748b">90.2</text>
<line x1="952.0" y1="42" x2="952.0" y2="144" stroke="#e5e7eb"/>
<text x="952.0" y="162" text-anchor="middle" font-size="10" fill="#64748b">120</text>
<line x1="92" y1="144.0" x2="952" y2="144.0" stroke="#e5e7eb"/>
<text x="84" y="148.0" text-anchor="end" font-size="10" fill="#64748b">-0.326</text>
<line x1="92" y1="110.0" x2="952" y2="110.0" stroke="#e5e7eb"/>
<text x="84" y="114.0" text-anchor="end" font-size="10" fill="#64748b">-0.189</text>
<line x1="92" y1="76.0" x2="952" y2="76.0" stroke="#e5e7eb"/>
<text x="84" y="80.0" text-anchor="end" font-size="10" fill="#64748b">-0.0509</text>
<line x1="92" y1="42.0" x2="952" y2="42.0" stroke="#e5e7eb"/>
<text x="84" y="46.0" text-anchor="end" font-size="10" fill="#64748b">0.0867</text>
<polyline points="92.0,63.4 99.2,64.9 106.5,73.1 113.7,53.7 120.9,63.8 128.1,71.9 135.4,63.3 142.6,63.4 149.8,63.4 157.0,64.6 164.3,63.4 171.5,65.6 178.7,63.3 185.9,63.0 193.2,63.2 200.4,61.8 207.6,63.5 214.9,63.7 222.1,65.5 229.3,65.5 236.5,63.4 243.8,63.0 251.0,60.8 258.2,62.0 265.4,63.4 272.7,89.7 279.9,63.4 287.1,62.2 294.4,66.8 301.6,64.3 308.8,63.4 316.0,71.2 323.3,42.0 330.5,64.6 337.7,64.2 344.9,63.3 352.2,63.5 359.4,144.0 366.6,63.8 373.8,63.4 381.1,59.9 388.3,63.2 395.5,63.4 402.8,63.7 410.0,62.7 417.2,63.4 424.4,63.6 431.7,65.4 438.9,63.4 446.1,63.8 453.3,60.8 460.6,63.4 467.8,63.4 475.0,65.0 482.3,59.6 489.5,63.4 496.7,73.0 503.9,65.4 511.2,65.3 518.4,63.4 525.6,63.4 532.8,63.4 540.1,63.4 547.3,63.4 554.5,61.2 561.7,63.5 569.0,62.9 576.2,73.3 583.4,63.1 590.7,60.9 597.9,65.4 605.1,63.4 612.3,62.5 619.6,63.4 626.8,63.4 634.0,63.3 641.2,63.0 648.5,65.3 655.7,64.4 662.9,65.1 670.2,61.4 677.4,67.0 684.6,67.0 691.8,65.4 699.1,62.4 706.3,63.4 713.5,67.0 720.7,65.6 728.0,64.9 735.2,62.8 742.4,62.0 749.6,65.6 756.9,69.3 764.1,78.1 771.3,54.9 778.6,65.6 785.8,61.7 793.0,63.4 800.2,67.6 807.5,53.6 814.7,63.4 821.9,63.4 829.1,63.0 836.4,63.0 843.6,49.4 850.8,63.6 858.1,59.6 865.3,65.1 872.5,57.9 879.7,63.6 887.0,63.4 894.2,63.6 901.4,48.8 908.6,63.4 915.9,63.4 923.1,63.5 930.3,58.8 937.5,81.4 944.8,59.1 952.0,62.8" fill="none" stroke="#9333ea" stroke-width="2"/>
<text x="952" y="22" text-anchor="end" font-size="11" fill="#64748b">min=-0.3261 max=0.08668 last=0.002477</text>
</g>
<g transform="translate(0,2338)">
<text x="92" y="22" font-size="13" font-weight="700">actor/entropy</text>
<rect x="92" y="42" width="860" height="102" fill="#fafafa" stroke="#e2e8f0"/>
<line x1="92.0" y1="42" x2="92.0" y2="144" stroke="#e5e7eb"/>
<text x="92.0" y="162" text-anchor="middle" font-size="10" fill="#64748b">1</text>
<line x1="307.0" y1="42" x2="307.0" y2="144" stroke="#e5e7eb"/>
<text x="307.0" y="162" text-anchor="middle" font-size="10" fill="#64748b">30.8</text>
<line x1="522.0" y1="42" x2="522.0" y2="144" stroke="#e5e7eb"/>
<text x="522.0" y="162" text-anchor="middle" font-size="10" fill="#64748b">60.5</text>
<line x1="737.0" y1="42" x2="737.0" y2="144" stroke="#e5e7eb"/>
<text x="737.0" y="162" text-anchor="middle" font-size="10" fill="#64748b">90.2</text>
<line x1="952.0" y1="42" x2="952.0" y2="144" stroke="#e5e7eb"/>
<text x="952.0" y="162" text-anchor="middle" font-size="10" fill="#64748b">120</text>
<line x1="92" y1="144.0" x2="952" y2="144.0" stroke="#e5e7eb"/>
<text x="84" y="148.0" text-anchor="end" font-size="10" fill="#64748b">0.0539</text>
<line x1="92" y1="110.0" x2="952" y2="110.0" stroke="#e5e7eb"/>
<text x="84" y="114.0" text-anchor="end" font-size="10" fill="#64748b">0.275</text>
<line x1="92" y1="76.0" x2="952" y2="76.0" stroke="#e5e7eb"/>
<text x="84" y="80.0" text-anchor="end" font-size="10" fill="#64748b">0.496</text>
<line x1="92" y1="42.0" x2="952" y2="42.0" stroke="#e5e7eb"/>
<text x="84" y="46.0" text-anchor="end" font-size="10" fill="#64748b">0.717</text>
<polyline points="92.0,128.7 99.2,98.8 106.5,68.3 113.7,130.4 120.9,95.8 128.1,110.5 135.4,110.4 142.6,123.4 149.8,68.7 157.0,113.2 164.3,87.7 171.5,121.6 178.7,97.7 185.9,117.0 193.2,125.9 200.4,110.4 207.6,119.7 214.9,98.0 222.1,115.8 229.3,121.7 236.5,79.3 243.8,136.2 251.0,121.5 258.2,85.1 265.4,70.7 272.7,123.7 279.9,94.0 287.1,132.9 294.4,133.0 301.6,107.0 308.8,81.2 316.0,129.0 323.3,91.6 330.5,110.2 337.7,90.8 344.9,129.7 352.2,125.9 359.4,124.7 366.6,102.8 373.8,95.8 381.1,123.1 388.3,75.1 395.5,42.0 402.8,42.9 410.0,116.7 417.2,84.1 424.4,102.8 431.7,85.1 438.9,97.5 446.1,96.2 453.3,133.5 460.6,109.5 467.8,104.9 475.0,91.6 482.3,135.9 489.5,109.8 496.7,144.0 503.9,118.6 511.2,135.5 518.4,95.8 525.6,136.5 532.8,123.5 540.1,129.6 547.3,87.6 554.5,83.2 561.7,100.8 569.0,121.0 576.2,115.2 583.4,133.9 590.7,127.4 597.9,113.2 605.1,111.6 612.3,116.8 619.6,137.3 626.8,88.9 634.0,71.6 641.2,100.4 648.5,110.3 655.7,108.4 662.9,73.7 670.2,114.3 677.4,116.0 684.6,117.0 691.8,114.6 699.1,107.3 706.3,73.3 713.5,125.5 720.7,84.3 728.0,121.9 735.2,111.6 742.4,119.6 749.6,108.0 756.9,140.5 764.1,125.9 771.3,135.4 778.6,117.5 785.8,97.3 793.0,109.8 800.2,127.0 807.5,111.8 814.7,130.2 821.9,105.0 829.1,120.4 836.4,113.8 843.6,116.7 850.8,130.3 858.1,78.6 865.3,75.1 872.5,124.5 879.7,68.6 887.0,111.6 894.2,108.4 901.4,119.3 908.6,92.8 915.9,111.6 923.1,110.1 930.3,108.0 937.5,117.0 944.8,109.2 952.0,105.2" fill="none" stroke="#ea580c" stroke-width="2"/>
<text x="952" y="22" text-anchor="end" font-size="11" fill="#64748b">min=0.05393 max=0.7166 last=0.3057</text>
</g>
<g transform="translate(0,2528)">
<text x="92" y="22" font-size="13" font-weight="700">actor/ppo_kl</text>
<rect x="92" y="42" width="860" height="102" fill="#fafafa" stroke="#e2e8f0"/>
<line x1="92.0" y1="42" x2="92.0" y2="144" stroke="#e5e7eb"/>
<text x="92.0" y="162" text-anchor="middle" font-size="10" fill="#64748b">1</text>
<line x1="307.0" y1="42" x2="307.0" y2="144" stroke="#e5e7eb"/>
<text x="307.0" y="162" text-anchor="middle" font-size="10" fill="#64748b">30.8</text>
<line x1="522.0" y1="42" x2="522.0" y2="144" stroke="#e5e7eb"/>
<text x="522.0" y="162" text-anchor="middle" font-size="10" fill="#64748b">60.5</text>
<line x1="737.0" y1="42" x2="737.0" y2="144" stroke="#e5e7eb"/>
<text x="737.0" y="162" text-anchor="middle" font-size="10" fill="#64748b">90.2</text>
<line x1="952.0" y1="42" x2="952.0" y2="144" stroke="#e5e7eb"/>
<text x="952.0" y="162" text-anchor="middle" font-size="10" fill="#64748b">120</text>
<line x1="92" y1="144.0" x2="952" y2="144.0" stroke="#e5e7eb"/>
<text x="84" y="148.0" text-anchor="end" font-size="10" fill="#64748b">-0.5</text>
<line x1="92" y1="110.0" x2="952" y2="110.0" stroke="#e5e7eb"/>
<text x="84" y="114.0" text-anchor="end" font-size="10" fill="#64748b">-0.167</text>
<line x1="92" y1="76.0" x2="952" y2="76.0" stroke="#e5e7eb"/>
<text x="84" y="80.0" text-anchor="end" font-size="10" fill="#64748b">0.167</text>
<line x1="92" y1="42.0" x2="952" y2="42.0" stroke="#e5e7eb"/>
<text x="84" y="46.0" text-anchor="end" font-size="10" fill="#64748b">0.5</text>
<polyline points="92.0,93.0 99.2,93.0 106.5,93.0 113.7,93.0 120.9,93.0 128.1,93.0 135.4,93.0 142.6,93.0 149.8,93.0 157.0,93.0 164.3,93.0 171.5,93.0 178.7,93.0 185.9,93.0 193.2,93.0 200.4,93.0 207.6,93.0 214.9,93.0 222.1,93.0 229.3,93.0 236.5,93.0 243.8,93.0 251.0,93.0 258.2,93.0 265.4,93.0 272.7,93.0 279.9,93.0 287.1,93.0 294.4,93.0 301.6,93.0 308.8,93.0 316.0,93.0 323.3,93.0 330.5,93.0 337.7,93.0 344.9,93.0 352.2,93.0 359.4,93.0 366.6,93.0 373.8,93.0 381.1,93.0 388.3,93.0 395.5,93.0 402.8,93.0 410.0,93.0 417.2,93.0 424.4,93.0 431.7,93.0 438.9,93.0 446.1,93.0 453.3,93.0 460.6,93.0 467.8,93.0 475.0,93.0 482.3,93.0 489.5,93.0 496.7,93.0 503.9,93.0 511.2,93.0 518.4,93.0 525.6,93.0 532.8,93.0 540.1,93.0 547.3,93.0 554.5,93.0 561.7,93.0 569.0,93.0 576.2,93.0 583.4,93.0 590.7,93.0 597.9,93.0 605.1,93.0 612.3,93.0 619.6,93.0 626.8,93.0 634.0,93.0 641.2,93.0 648.5,93.0 655.7,93.0 662.9,93.0 670.2,93.0 677.4,93.0 684.6,93.0 691.8,93.0 699.1,93.0 706.3,93.0 713.5,93.0 720.7,93.0 728.0,93.0 735.2,93.0 742.4,93.0 749.6,93.0 756.9,93.0 764.1,93.0 771.3,93.0 778.6,93.0 785.8,93.0 793.0,93.0 800.2,93.0 807.5,93.0 814.7,93.0 821.9,93.0 829.1,93.0 836.4,93.0 843.6,93.0 850.8,93.0 858.1,93.0 865.3,93.0 872.5,93.0 879.7,93.0 887.0,93.0 894.2,93.0 901.4,93.0 908.6,93.0 915.9,93.0 923.1,93.0 930.3,93.0 937.5,93.0 944.8,93.0 952.0,93.0" fill="none" stroke="#0891b2" stroke-width="2"/>
<text x="952" y="22" text-anchor="end" font-size="11" fill="#64748b">min=-0.5 max=0.5 last=0</text>
</g>
<g transform="translate(0,2718)">
<text x="92" y="22" font-size="13" font-weight="700">actor/pg_clipfrac</text>
<rect x="92" y="42" width="860" height="102" fill="#fafafa" stroke="#e2e8f0"/>
<line x1="92.0" y1="42" x2="92.0" y2="144" stroke="#e5e7eb"/>
<text x="92.0" y="162" text-anchor="middle" font-size="10" fill="#64748b">1</text>
<line x1="307.0" y1="42" x2="307.0" y2="144" stroke="#e5e7eb"/>
<text x="307.0" y="162" text-anchor="middle" font-size="10" fill="#64748b">30.8</text>
<line x1="522.0" y1="42" x2="522.0" y2="144" stroke="#e5e7eb"/>
<text x="522.0" y="162" text-anchor="middle" font-size="10" fill="#64748b">60.5</text>
<line x1="737.0" y1="42" x2="737.0" y2="144" stroke="#e5e7eb"/>
<text x="737.0" y="162" text-anchor="middle" font-size="10" fill="#64748b">90.2</text>
<line x1="952.0" y1="42" x2="952.0" y2="144" stroke="#e5e7eb"/>
<text x="952.0" y="162" text-anchor="middle" font-size="10" fill="#64748b">120</text>
<line x1="92" y1="144.0" x2="952" y2="144.0" stroke="#e5e7eb"/>
<text x="84" y="148.0" text-anchor="end" font-size="10" fill="#64748b">-0.5</text>
<line x1="92" y1="110.0" x2="952" y2="110.0" stroke="#e5e7eb"/>
<text x="84" y="114.0" text-anchor="end" font-size="10" fill="#64748b">-0.167</text>
<line x1="92" y1="76.0" x2="952" y2="76.0" stroke="#e5e7eb"/>
<text x="84" y="80.0" text-anchor="end" font-size="10" fill="#64748b">0.167</text>
<line x1="92" y1="42.0" x2="952" y2="42.0" stroke="#e5e7eb"/>
<text x="84" y="46.0" text-anchor="end" font-size="10" fill="#64748b">0.5</text>
<polyline points="92.0,93.0 99.2,93.0 106.5,93.0 113.7,93.0 120.9,93.0 128.1,93.0 135.4,93.0 142.6,93.0 149.8,93.0 157.0,93.0 164.3,93.0 171.5,93.0 178.7,93.0 185.9,93.0 193.2,93.0 200.4,93.0 207.6,93.0 214.9,93.0 222.1,93.0 229.3,93.0 236.5,93.0 243.8,93.0 251.0,93.0 258.2,93.0 265.4,93.0 272.7,93.0 279.9,93.0 287.1,93.0 294.4,93.0 301.6,93.0 308.8,93.0 316.0,93.0 323.3,93.0 330.5,93.0 337.7,93.0 344.9,93.0 352.2,93.0 359.4,93.0 366.6,93.0 373.8,93.0 381.1,93.0 388.3,93.0 395.5,93.0 402.8,93.0 410.0,93.0 417.2,93.0 424.4,93.0 431.7,93.0 438.9,93.0 446.1,93.0 453.3,93.0 460.6,93.0 467.8,93.0 475.0,93.0 482.3,93.0 489.5,93.0 496.7,93.0 503.9,93.0 511.2,93.0 518.4,93.0 525.6,93.0 532.8,93.0 540.1,93.0 547.3,93.0 554.5,93.0 561.7,93.0 569.0,93.0 576.2,93.0 583.4,93.0 590.7,93.0 597.9,93.0 605.1,93.0 612.3,93.0 619.6,93.0 626.8,93.0 634.0,93.0 641.2,93.0 648.5,93.0 655.7,93.0 662.9,93.0 670.2,93.0 677.4,93.0 684.6,93.0 691.8,93.0 699.1,93.0 706.3,93.0 713.5,93.0 720.7,93.0 728.0,93.0 735.2,93.0 742.4,93.0 749.6,93.0 756.9,93.0 764.1,93.0 771.3,93.0 778.6,93.0 785.8,93.0 793.0,93.0 800.2,93.0 807.5,93.0 814.7,93.0 821.9,93.0 829.1,93.0 836.4,93.0 843.6,93.0 850.8,93.0 858.1,93.0 865.3,93.0 872.5,93.0 879.7,93.0 887.0,93.0 894.2,93.0 901.4,93.0 908.6,93.0 915.9,93.0 923.1,93.0 930.3,93.0 937.5,93.0 944.8,93.0 952.0,93.0" fill="none" stroke="#4f46e5" stroke-width="2"/>
<text x="952" y="22" text-anchor="end" font-size="11" fill="#64748b">min=-0.5 max=0.5 last=0</text>
</g>
<g transform="translate(0,2908)">
<text x="92" y="22" font-size="13" font-weight="700">actor/pg_clipfrac_lower</text>
<rect x="92" y="42" width="860" height="102" fill="#fafafa" stroke="#e2e8f0"/>
<line x1="92.0" y1="42" x2="92.0" y2="144" stroke="#e5e7eb"/>
<text x="92.0" y="162" text-anchor="middle" font-size="10" fill="#64748b">1</text>
<line x1="307.0" y1="42" x2="307.0" y2="144" stroke="#e5e7eb"/>
<text x="307.0" y="162" text-anchor="middle" font-size="10" fill="#64748b">30.8</text>
<line x1="522.0" y1="42" x2="522.0" y2="144" stroke="#e5e7eb"/>
<text x="522.0" y="162" text-anchor="middle" font-size="10" fill="#64748b">60.5</text>
<line x1="737.0" y1="42" x2="737.0" y2="144" stroke="#e5e7eb"/>
<text x="737.0" y="162" text-anchor="middle" font-size="10" fill="#64748b">90.2</text>
<line x1="952.0" y1="42" x2="952.0" y2="144" stroke="#e5e7eb"/>
<text x="952.0" y="162" text-anchor="middle" font-size="10" fill="#64748b">120</text>
<line x1="92" y1="144.0" x2="952" y2="144.0" stroke="#e5e7eb"/>
<text x="84" y="148.0" text-anchor="end" font-size="10" fill="#64748b">-0.5</text>
<line x1="92" y1="110.0" x2="952" y2="110.0" stroke="#e5e7eb"/>
<text x="84" y="114.0" text-anchor="end" font-size="10" fill="#64748b">-0.167</text>
<line x1="92" y1="76.0" x2="952" y2="76.0" stroke="#e5e7eb"/>
<text x="84" y="80.0" text-anchor="end" font-size="10" fill="#64748b">0.167</text>
<line x1="92" y1="42.0" x2="952" y2="42.0" stroke="#e5e7eb"/>
<text x="84" y="46.0" text-anchor="end" font-size="10" fill="#64748b">0.5</text>
<polyline points="92.0,93.0 99.2,93.0 106.5,93.0 113.7,93.0 120.9,93.0 128.1,93.0 135.4,93.0 142.6,93.0 149.8,93.0 157.0,93.0 164.3,93.0 171.5,93.0 178.7,93.0 185.9,93.0 193.2,93.0 200.4,93.0 207.6,93.0 214.9,93.0 222.1,93.0 229.3,93.0 236.5,93.0 243.8,93.0 251.0,93.0 258.2,93.0 265.4,93.0 272.7,93.0 279.9,93.0 287.1,93.0 294.4,93.0 301.6,93.0 308.8,93.0 316.0,93.0 323.3,93.0 330.5,93.0 337.7,93.0 344.9,93.0 352.2,93.0 359.4,93.0 366.6,93.0 373.8,93.0 381.1,93.0 388.3,93.0 395.5,93.0 402.8,93.0 410.0,93.0 417.2,93.0 424.4,93.0 431.7,93.0 438.9,93.0 446.1,93.0 453.3,93.0 460.6,93.0 467.8,93.0 475.0,93.0 482.3,93.0 489.5,93.0 496.7,93.0 503.9,93.0 511.2,93.0 518.4,93.0 525.6,93.0 532.8,93.0 540.1,93.0 547.3,93.0 554.5,93.0 561.7,93.0 569.0,93.0 576.2,93.0 583.4,93.0 590.7,93.0 597.9,93.0 605.1,93.0 612.3,93.0 619.6,93.0 626.8,93.0 634.0,93.0 641.2,93.0 648.5,93.0 655.7,93.0 662.9,93.0 670.2,93.0 677.4,93.0 684.6,93.0 691.8,93.0 699.1,93.0 706.3,93.0 713.5,93.0 720.7,93.0 728.0,93.0 735.2,93.0 742.4,93.0 749.6,93.0 756.9,93.0 764.1,93.0 771.3,93.0 778.6,93.0 785.8,93.0 793.0,93.0 800.2,93.0 807.5,93.0 814.7,93.0 821.9,93.0 829.1,93.0 836.4,93.0 843.6,93.0 850.8,93.0 858.1,93.0 865.3,93.0 872.5,93.0 879.7,93.0 887.0,93.0 894.2,93.0 901.4,93.0 908.6,93.0 915.9,93.0 923.1,93.0 930.3,93.0 937.5,93.0 944.8,93.0 952.0,93.0" fill="none" stroke="#be123c" stroke-width="2"/>
<text x="952" y="22" text-anchor="end" font-size="11" fill="#64748b">min=-0.5 max=0.5 last=0</text>
</g>
<g transform="translate(0,3098)">
<text x="92" y="22" font-size="13" font-weight="700">response_length/clip_ratio</text>
<rect x="92" y="42" width="860" height="102" fill="#fafafa" stroke="#e2e8f0"/>
<line x1="92.0" y1="42" x2="92.0" y2="144" stroke="#e5e7eb"/>
<text x="92.0" y="162" text-anchor="middle" font-size="10" fill="#64748b">1</text>
<line x1="307.0" y1="42" x2="307.0" y2="144" stroke="#e5e7eb"/>
<text x="307.0" y="162" text-anchor="middle" font-size="10" fill="#64748b">30.8</text>
<line x1="522.0" y1="42" x2="522.0" y2="144" stroke="#e5e7eb"/>
<text x="522.0" y="162" text-anchor="middle" font-size="10" fill="#64748b">60.5</text>
<line x1="737.0" y1="42" x2="737.0" y2="144" stroke="#e5e7eb"/>
<text x="737.0" y="162" text-anchor="middle" font-size="10" fill="#64748b">90.2</text>
<line x1="952.0" y1="42" x2="952.0" y2="144" stroke="#e5e7eb"/>
<text x="952.0" y="162" text-anchor="middle" font-size="10" fill="#64748b">120</text>
<line x1="92" y1="144.0" x2="952" y2="144.0" stroke="#e5e7eb"/>
<text x="84" y="148.0" text-anchor="end" font-size="10" fill="#64748b">-0.5</text>
<line x1="92" y1="110.0" x2="952" y2="110.0" stroke="#e5e7eb"/>
<text x="84" y="114.0" text-anchor="end" font-size="10" fill="#64748b">-0.167</text>
<line x1="92" y1="76.0" x2="952" y2="76.0" stroke="#e5e7eb"/>
<text x="84" y="80.0" text-anchor="end" font-size="10" fill="#64748b">0.167</text>
<line x1="92" y1="42.0" x2="952" y2="42.0" stroke="#e5e7eb"/>
<text x="84" y="46.0" text-anchor="end" font-size="10" fill="#64748b">0.5</text>
<polyline points="92.0,93.0 99.2,93.0 106.5,93.0 113.7,93.0 120.9,93.0 128.1,93.0 135.4,93.0 142.6,93.0 149.8,93.0 157.0,93.0 164.3,93.0 171.5,93.0 178.7,93.0 185.9,93.0 193.2,93.0 200.4,93.0 207.6,93.0 214.9,93.0 222.1,93.0 229.3,93.0 236.5,93.0 243.8,93.0 251.0,93.0 258.2,93.0 265.4,93.0 272.7,93.0 279.9,93.0 287.1,93.0 294.4,93.0 301.6,93.0 308.8,93.0 316.0,93.0 323.3,93.0 330.5,93.0 337.7,93.0 344.9,93.0 352.2,93.0 359.4,93.0 366.6,93.0 373.8,93.0 381.1,93.0 388.3,93.0 395.5,93.0 402.8,93.0 410.0,93.0 417.2,93.0 424.4,93.0 431.7,93.0 438.9,93.0 446.1,93.0 453.3,93.0 460.6,93.0 467.8,93.0 475.0,93.0 482.3,93.0 489.5,93.0 496.7,93.0 503.9,93.0 511.2,93.0 518.4,93.0 525.6,93.0 532.8,93.0 540.1,93.0 547.3,93.0 554.5,93.0 561.7,93.0 569.0,93.0 576.2,93.0 583.4,93.0 590.7,93.0 597.9,93.0 605.1,93.0 612.3,93.0 619.6,93.0 626.8,93.0 634.0,93.0 641.2,93.0 648.5,93.0 655.7,93.0 662.9,93.0 670.2,93.0 677.4,93.0 684.6,93.0 691.8,93.0 699.1,93.0 706.3,93.0 713.5,93.0 720.7,93.0 728.0,93.0 735.2,93.0 742.4,93.0 749.6,93.0 756.9,93.0 764.1,93.0 771.3,93.0 778.6,93.0 785.8,93.0 793.0,93.0 800.2,93.0 807.5,93.0 814.7,93.0 821.9,93.0 829.1,93.0 836.4,93.0 843.6,93.0 850.8,93.0 858.1,93.0 865.3,93.0 872.5,93.0 879.7,93.0 887.0,93.0 894.2,93.0 901.4,93.0 908.6,93.0 915.9,93.0 923.1,93.0 930.3,93.0 937.5,93.0 944.8,93.0 952.0,93.0" fill="none" stroke="#2563eb" stroke-width="2"/>
<text x="952" y="22" text-anchor="end" font-size="11" fill="#64748b">min=-0.5 max=0.5 last=0</text>
</g>
<g transform="translate(0,3288)">
<text x="92" y="22" font-size="13" font-weight="700">response_length/max</text>
<rect x="92" y="42" width="860" height="102" fill="#fafafa" stroke="#e2e8f0"/>
<line x1="92.0" y1="42" x2="92.0" y2="144" stroke="#e5e7eb"/>
<text x="92.0" y="162" text-anchor="middle" font-size="10" fill="#64748b">1</text>
<line x1="307.0" y1="42" x2="307.0" y2="144" stroke="#e5e7eb"/>
<text x="307.0" y="162" text-anchor="middle" font-size="10" fill="#64748b">30.8</text>
<line x1="522.0" y1="42" x2="522.0" y2="144" stroke="#e5e7eb"/>
<text x="522.0" y="162" text-anchor="middle" font-size="10" fill="#64748b">60.5</text>
<line x1="737.0" y1="42" x2="737.0" y2="144" stroke="#e5e7eb"/>
<text x="737.0" y="162" text-anchor="middle" font-size="10" fill="#64748b">90.2</text>
<line x1="952.0" y1="42" x2="952.0" y2="144" stroke="#e5e7eb"/>
<text x="952.0" y="162" text-anchor="middle" font-size="10" fill="#64748b">120</text>
<line x1="92" y1="144.0" x2="952" y2="144.0" stroke="#e5e7eb"/>
<text x="84" y="148.0" text-anchor="end" font-size="10" fill="#64748b">41</text>
<line x1="92" y1="110.0" x2="952" y2="110.0" stroke="#e5e7eb"/>
<text x="84" y="114.0" text-anchor="end" font-size="10" fill="#64748b">210</text>
<line x1="92" y1="76.0" x2="952" y2="76.0" stroke="#e5e7eb"/>
<text x="84" y="80.0" text-anchor="end" font-size="10" fill="#64748b">378</text>
<line x1="92" y1="42.0" x2="952" y2="42.0" stroke="#e5e7eb"/>
<text x="84" y="46.0" text-anchor="end" font-size="10" fill="#64748b">547</text>
<polyline points="92.0,135.7 99.2,132.9 106.5,132.7 113.7,129.1 120.9,138.2 128.1,135.3 135.4,135.3 142.6,140.4 149.8,139.4 157.0,135.7 164.3,132.7 171.5,135.7 178.7,131.7 185.9,138.4 193.2,136.5 200.4,136.7 207.6,140.6 214.9,132.7 222.1,132.5 229.3,135.7 236.5,136.5 243.8,138.6 251.0,133.9 258.2,132.5 265.4,132.7 272.7,118.6 279.9,140.2 287.1,138.8 294.4,132.5 301.6,136.1 308.8,132.7 316.0,137.1 323.3,137.3 330.5,134.5 337.7,132.7 344.9,137.1 352.2,131.3 359.4,42.0 366.6,137.3 373.8,135.7 381.1,134.1 388.3,138.0 395.5,132.7 402.8,140.6 410.0,139.2 417.2,132.7 424.4,136.5 431.7,140.0 438.9,139.4 446.1,135.7 453.3,139.6 460.6,139.4 467.8,132.1 475.0,132.7 482.3,136.5 489.5,131.9 496.7,144.0 503.9,136.7 511.2,138.4 518.4,138.4 525.6,135.7 532.8,135.7 540.1,129.7 547.3,135.3 554.5,140.8 561.7,131.7 569.0,132.5 576.2,141.6 583.4,136.9 590.7,122.0 597.9,132.7 605.1,120.4 612.3,132.3 619.6,135.7 626.8,140.8 634.0,132.7 641.2,132.7 648.5,138.0 655.7,138.0 662.9,132.7 670.2,135.5 677.4,133.5 684.6,133.5 691.8,135.7 699.1,138.4 706.3,141.0 713.5,134.1 720.7,133.5 728.0,136.5 735.2,138.0 742.4,133.5 749.6,132.5 756.9,136.5 764.1,135.5 771.3,135.7 778.6,131.5 785.8,135.5 793.0,140.8 800.2,140.4 807.5,125.1 814.7,139.4 821.9,135.1 829.1,138.2 836.4,136.9 843.6,125.3 850.8,142.2 858.1,140.8 865.3,132.7 872.5,135.3 879.7,131.5 887.0,135.3 894.2,135.3 901.4,129.7 908.6,138.4 915.9,135.9 923.1,132.5 930.3,136.5 937.5,133.5 944.8,132.7 952.0,134.9" fill="none" stroke="#16a34a" stroke-width="2"/>
<text x="952" y="22" text-anchor="end" font-size="11" fill="#64748b">min=41 max=547 last=86</text>
</g>
</svg>