<svg xmlns="http://www.w3.org/2000/svg" width="980" height="2148" font-family="Arial, sans-serif">
<rect width="100%" height="100%" fill="white"/>
<text x="24" y="28" font-size="18" font-weight="700">experiments/qwen3_8b_grpo_v18_official_long_from_v17_gs60_n8/v18_metrics_key.csv</text>
<text x="24" y="48" font-size="12" fill="#64748b">rows=80 keys=11</text>
<g transform="translate(0,58)">
<text x="92" y="22" font-size="13" font-weight="700">critic/score/mean</text>
<rect x="92" y="42" width="860" height="102" fill="#fafafa" stroke="#e2e8f0"/>
<line x1="92.0" y1="42" x2="92.0" y2="144" stroke="#e5e7eb"/>
<text x="92.0" y="162" text-anchor="middle" font-size="10" fill="#64748b">1</text>
<line x1="307.0" y1="42" x2="307.0" y2="144" stroke="#e5e7eb"/>
<text x="307.0" y="162" text-anchor="middle" font-size="10" fill="#64748b">20.8</text>
<line x1="522.0" y1="42" x2="522.0" y2="144" stroke="#e5e7eb"/>
<text x="522.0" y="162" text-anchor="middle" font-size="10" fill="#64748b">40.5</text>
<line x1="737.0" y1="42" x2="737.0" y2="144" stroke="#e5e7eb"/>
<text x="737.0" y="162" text-anchor="middle" font-size="10" fill="#64748b">60.2</text>
<line x1="952.0" y1="42" x2="952.0" y2="144" stroke="#e5e7eb"/>
<text x="952.0" y="162" text-anchor="middle" font-size="10" fill="#64748b">80</text>
<line x1="92" y1="144.0" x2="952" y2="144.0" stroke="#e5e7eb"/>
<text x="84" y="148.0" text-anchor="end" font-size="10" fill="#64748b">0.445</text>
<line x1="92" y1="110.0" x2="952" y2="110.0" stroke="#e5e7eb"/>
<text x="84" y="114.0" text-anchor="end" font-size="10" fill="#64748b">0.614</text>
<line x1="92" y1="76.0" x2="952" y2="76.0" stroke="#e5e7eb"/>
<text x="84" y="80.0" text-anchor="end" font-size="10" fill="#64748b">0.782</text>
<line x1="92" y1="42.0" x2="952" y2="42.0" stroke="#e5e7eb"/>
<text x="84" y="46.0" text-anchor="end" font-size="10" fill="#64748b">0.95</text>
<polyline points="92.0,42.1 102.9,42.0 113.8,46.8 124.7,144.0 135.5,48.3 146.4,42.7 157.3,42.0 168.2,42.0 179.1,106.2 190.0,95.4 200.9,143.0 211.7,42.0 222.6,42.0 233.5,42.0 244.4,42.0 255.3,42.0 266.2,42.0 277.1,42.0 287.9,100.7 298.8,61.4 309.7,93.2 320.6,42.0 331.5,92.5 342.4,92.7 353.3,115.3 364.2,42.0 375.0,92.5 385.9,42.0 396.8,42.0 407.7,92.5 418.6,50.7 429.5,92.5 440.4,92.5 451.2,92.5 462.1,54.7 473.0,92.7 483.9,92.5 494.8,92.5 505.7,84.0 516.6,92.5 527.4,99.4 538.3,42.0 549.2,92.5 560.1,42.0 571.0,49.6 581.9,98.9 592.8,56.0 603.6,42.0 614.5,48.5 625.4,92.5 636.3,48.9 647.2,108.9 658.1,54.6 669.0,92.5 679.8,96.9 690.7,92.5 701.6,42.0 712.5,42.0 723.4,42.0 734.3,92.5 745.2,42.0 756.1,42.0 766.9,42.0 777.8,48.4 788.7,42.0 799.6,92.5 810.5,92.6 821.4,95.1 832.3,49.6 843.1,42.0 854.0,92.5 864.9,136.7 875.8,92.5 886.7,42.0 897.6,48.3 908.5,42.0 919.3,95.3 930.2,143.0 941.1,42.0 952.0,92.5" fill="none" stroke="#2563eb" stroke-width="2"/>
<text x="952" y="22" text-anchor="end" font-size="11" fill="#64748b">min=0.4453 max=0.95 last=0.7</text>
</g>
<g transform="translate(0,248)">
<text x="92" y="22" font-size="13" font-weight="700">actor/grad_norm</text>
<rect x="92" y="42" width="860" height="102" fill="#fafafa" stroke="#e2e8f0"/>
<line x1="92.0" y1="42" x2="92.0" y2="144" stroke="#e5e7eb"/>
<text x="92.0" y="162" text-anchor="middle" font-size="10" fill="#64748b">1</text>
<line x1="307.0" y1="42" x2="307.0" y2="144" stroke="#e5e7eb"/>
<text x="307.0" y="162" text-anchor="middle" font-size="10" fill="#64748b">20.8</text>
<line x1="522.0" y1="42" x2="522.0" y2="144" stroke="#e5e7eb"/>
<text x="522.0" y="162" text-anchor="middle" font-size="10" fill="#64748b">40.5</text>
<line x1="737.0" y1="42" x2="737.0" y2="144" stroke="#e5e7eb"/>
<text x="737.0" y="162" text-anchor="middle" font-size="10" fill="#64748b">60.2</text>
<line x1="952.0" y1="42" x2="952.0" y2="144" stroke="#e5e7eb"/>
<text x="952.0" y="162" text-anchor="middle" font-size="10" fill="#64748b">80</text>
<line x1="92" y1="144.0" x2="952" y2="144.0" stroke="#e5e7eb"/>
<text x="84" y="148.0" text-anchor="end" font-size="10" fill="#64748b">0.0303</text>
<line x1="92" y1="110.0" x2="952" y2="110.0" stroke="#e5e7eb"/>
<text x="84" y="114.0" text-anchor="end" font-size="10" fill="#64748b">3.34</text>
<line x1="92" y1="76.0" x2="952" y2="76.0" stroke="#e5e7eb"/>
<text x="84" y="80.0" text-anchor="end" font-size="10" fill="#64748b">6.65</text>
<line x1="92" y1="42.0" x2="952" y2="42.0" stroke="#e5e7eb"/>
<text x="84" y="46.0" text-anchor="end" font-size="10" fill="#64748b">9.96</text>
<polyline points="92.0,119.7 102.9,142.8 113.8,82.2 124.7,114.7 135.5,92.9 146.4,119.2 157.3,143.2 168.2,142.8 179.1,118.9 190.0,107.3 200.9,143.5 211.7,109.8 222.6,142.8 233.5,114.9 244.4,142.7 255.3,142.3 266.2,143.0 277.1,142.4 287.9,108.0 298.8,121.3 309.7,108.1 320.6,142.8 331.5,143.1 342.4,118.2 353.3,107.5 364.2,142.9 375.0,143.5 385.9,142.8 396.8,143.2 407.7,143.7 418.6,133.1 429.5,143.4 440.4,143.6 451.2,143.2 462.1,111.4 473.0,121.5 483.9,143.7 494.8,143.6 505.7,101.5 516.6,125.8 527.4,91.4 538.3,143.5 549.2,143.9 560.1,143.5 571.0,143.6 581.9,104.4 592.8,106.7 603.6,141.8 614.5,77.9 625.4,142.7 636.3,109.6 647.2,100.0 658.1,42.0 669.0,143.6 679.8,104.7 690.7,143.5 701.6,142.4 712.5,112.6 723.4,141.7 734.3,143.7 745.2,140.5 756.1,144.0 766.9,143.0 777.8,107.0 788.7,143.1 799.6,143.7 810.5,125.2 821.4,98.3 832.3,143.6 843.1,143.5 854.0,143.9 864.9,53.4 875.8,143.4 886.7,143.8 897.6,88.4 908.5,143.4 919.3,78.4 930.2,143.8 941.1,142.9 952.0,143.4" fill="none" stroke="#16a34a" stroke-width="2"/>
<text x="952" y="22" text-anchor="end" font-size="11" fill="#64748b">min=0.03034 max=9.961 last=0.08934</text>
</g>
<g transform="translate(0,438)">
<text x="92" y="22" font-size="13" font-weight="700">actor/pg_clipfrac</text>
<rect x="92" y="42" width="860" height="102" fill="#fafafa" stroke="#e2e8f0"/>
<line x1="92.0" y1="42" x2="92.0" y2="144" stroke="#e5e7eb"/>
<text x="92.0" y="162" text-anchor="middle" font-size="10" fill="#64748b">1</text>
<line x1="307.0" y1="42" x2="307.0" y2="144" stroke="#e5e7eb"/>
<text x="307.0" y="162" text-anchor="middle" font-size="10" fill="#64748b">20.8</text>
<line x1="522.0" y1="42" x2="522.0" y2="144" stroke="#e5e7eb"/>
<text x="522.0" y="162" text-anchor="middle" font-size="10" fill="#64748b">40.5</text>
<line x1="737.0" y1="42" x2="737.0" y2="144" stroke="#e5e7eb"/>
<text x="737.0" y="162" text-anchor="middle" font-size="10" fill="#64748b">60.2</text>
<line x1="952.0" y1="42" x2="952.0" y2="144" stroke="#e5e7eb"/>
<text x="952.0" y="162" text-anchor="middle" font-size="10" fill="#64748b">80</text>
<line x1="92" y1="144.0" x2="952" y2="144.0" stroke="#e5e7eb"/>
<text x="84" y="148.0" text-anchor="end" font-size="10" fill="#64748b">-0.5</text>
<line x1="92" y1="110.0" x2="952" y2="110.0" stroke="#e5e7eb"/>
<text x="84" y="114.0" text-anchor="end" font-size="10" fill="#64748b">-0.167</text>
<line x1="92" y1="76.0" x2="952" y2="76.0" stroke="#e5e7eb"/>
<text x="84" y="80.0" text-anchor="end" font-size="10" fill="#64748b">0.167</text>
<line x1="92" y1="42.0" x2="952" y2="42.0" stroke="#e5e7eb"/>
<text x="84" y="46.0" text-anchor="end" font-size="10" fill="#64748b">0.5</text>
<polyline points="92.0,93.0 102.9,93.0 113.8,93.0 124.7,93.0 135.5,93.0 146.4,93.0 157.3,93.0 168.2,93.0 179.1,93.0 190.0,93.0 200.9,93.0 211.7,93.0 222.6,93.0 233.5,93.0 244.4,93.0 255.3,93.0 266.2,93.0 277.1,93.0 287.9,93.0 298.8,93.0 309.7,93.0 320.6,93.0 331.5,93.0 342.4,93.0 353.3,93.0 364.2,93.0 375.0,93.0 385.9,93.0 396.8,93.0 407.7,93.0 418.6,93.0 429.5,93.0 440.4,93.0 451.2,93.0 462.1,93.0 473.0,93.0 483.9,93.0 494.8,93.0 505.7,93.0 516.6,93.0 527.4,93.0 538.3,93.0 549.2,93.0 560.1,93.0 571.0,93.0 581.9,93.0 592.8,93.0 603.6,93.0 614.5,93.0 625.4,93.0 636.3,93.0 647.2,93.0 658.1,93.0 669.0,93.0 679.8,93.0 690.7,93.0 701.6,93.0 712.5,93.0 723.4,93.0 734.3,93.0 745.2,93.0 756.1,93.0 766.9,93.0 777.8,93.0 788.7,93.0 799.6,93.0 810.5,93.0 821.4,93.0 832.3,93.0 843.1,93.0 854.0,93.0 864.9,93.0 875.8,93.0 886.7,93.0 897.6,93.0 908.5,93.0 919.3,93.0 930.2,93.0 941.1,93.0 952.0,93.0" fill="none" stroke="#dc2626" stroke-width="2"/>
<text x="952" y="22" text-anchor="end" font-size="11" fill="#64748b">min=-0.5 max=0.5 last=0</text>
</g>
<g transform="translate(0,628)">
<text x="92" y="22" font-size="13" font-weight="700">actor/pg_clipfrac_lower</text>
<rect x="92" y="42" width="860" height="102" fill="#fafafa" stroke="#e2e8f0"/>
<line x1="92.0" y1="42" x2="92.0" y2="144" stroke="#e5e7eb"/>
<text x="92.0" y="162" text-anchor="middle" font-size="10" fill="#64748b">1</text>
<line x1="307.0" y1="42" x2="307.0" y2="144" stroke="#e5e7eb"/>
<text x="307.0" y="162" text-anchor="middle" font-size="10" fill="#64748b">20.8</text>
<line x1="522.0" y1="42" x2="522.0" y2="144" stroke="#e5e7eb"/>
<text x="522.0" y="162" text-anchor="middle" font-size="10" fill="#64748b">40.5</text>
<line x1="737.0" y1="42" x2="737.0" y2="144" stroke="#e5e7eb"/>
<text x="737.0" y="162" text-anchor="middle" font-size="10" fill="#64748b">60.2</text>
<line x1="952.0" y1="42" x2="952.0" y2="144" stroke="#e5e7eb"/>
<text x="952.0" y="162" text-anchor="middle" font-size="10" fill="#64748b">80</text>
<line x1="92" y1="144.0" x2="952" y2="144.0" stroke="#e5e7eb"/>
<text x="84" y="148.0" text-anchor="end" font-size="10" fill="#64748b">-0.5</text>
<line x1="92" y1="110.0" x2="952" y2="110.0" stroke="#e5e7eb"/>
<text x="84" y="114.0" text-anchor="end" font-size="10" fill="#64748b">-0.167</text>
<line x1="92" y1="76.0" x2="952" y2="76.0" stroke="#e5e7eb"/>
<text x="84" y="80.0" text-anchor="end" font-size="10" fill="#64748b">0.167</text>
<line x1="92" y1="42.0" x2="952" y2="42.0" stroke="#e5e7eb"/>
<text x="84" y="46.0" text-anchor="end" font-size="10" fill="#64748b">0.5</text>
<polyline points="92.0,93.0 102.9,93.0 113.8,93.0 124.7,93.0 135.5,93.0 146.4,93.0 157.3,93.0 168.2,93.0 179.1,93.0 190.0,93.0 200.9,93.0 211.7,93.0 222.6,93.0 233.5,93.0 244.4,93.0 255.3,93.0 266.2,93.0 277.1,93.0 287.9,93.0 298.8,93.0 309.7,93.0 320.6,93.0 331.5,93.0 342.4,93.0 353.3,93.0 364.2,93.0 375.0,93.0 385.9,93.0 396.8,93.0 407.7,93.0 418.6,93.0 429.5,93.0 440.4,93.0 451.2,93.0 462.1,93.0 473.0,93.0 483.9,93.0 494.8,93.0 505.7,93.0 516.6,93.0 527.4,93.0 538.3,93.0 549.2,93.0 560.1,93.0 571.0,93.0 581.9,93.0 592.8,93.0 603.6,93.0 614.5,93.0 625.4,93.0 636.3,93.0 647.2,93.0 658.1,93.0 669.0,93.0 679.8,93.0 690.7,93.0 701.6,93.0 712.5,93.0 723.4,93.0 734.3,93.0 745.2,93.0 756.1,93.0 766.9,93.0 777.8,93.0 788.7,93.0 799.6,93.0 810.5,93.0 821.4,93.0 832.3,93.0 843.1,93.0 854.0,93.0 864.9,93.0 875.8,93.0 886.7,93.0 897.6,93.0 908.5,93.0 919.3,93.0 930.2,93.0 941.1,93.0 952.0,93.0" fill="none" stroke="#9333ea" stroke-width="2"/>
<text x="952" y="22" text-anchor="end" font-size="11" fill="#64748b">min=-0.5 max=0.5 last=0</text>
</g>
<g transform="translate(0,818)">
<text x="92" y="22" font-size="13" font-weight="700">response_length/clip_ratio</text>
<rect x="92" y="42" width="860" height="102" fill="#fafafa" stroke="#e2e8f0"/>
<line x1="92.0" y1="42" x2="92.0" y2="144" stroke="#e5e7eb"/>
<text x="92.0" y="162" text-anchor="middle" font-size="10" fill="#64748b">1</text>
<line x1="307.0" y1="42" x2="307.0" y2="144" stroke="#e5e7eb"/>
<text x="307.0" y="162" text-anchor="middle" font-size="10" fill="#64748b">20.8</text>
<line x1="522.0" y1="42" x2="522.0" y2="144" stroke="#e5e7eb"/>
<text x="522.0" y="162" text-anchor="middle" font-size="10" fill="#64748b">40.5</text>
<line x1="737.0" y1="42" x2="737.0" y2="144" stroke="#e5e7eb"/>
<text x="737.0" y="162" text-anchor="middle" font-size="10" fill="#64748b">60.2</text>
<line x1="952.0" y1="42" x2="952.0" y2="144" stroke="#e5e7eb"/>
<text x="952.0" y="162" text-anchor="middle" font-size="10" fill="#64748b">80</text>
<line x1="92" y1="144.0" x2="952" y2="144.0" stroke="#e5e7eb"/>
<text x="84" y="148.0" text-anchor="end" font-size="10" fill="#64748b">-0.5</text>
<line x1="92" y1="110.0" x2="952" y2="110.0" stroke="#e5e7eb"/>
<text x="84" y="114.0" text-anchor="end" font-size="10" fill="#64748b">-0.167</text>
<line x1="92" y1="76.0" x2="952" y2="76.0" stroke="#e5e7eb"/>
<text x="84" y="80.0" text-anchor="end" font-size="10" fill="#64748b">0.167</text>
<line x1="92" y1="42.0" x2="952" y2="42.0" stroke="#e5e7eb"/>
<text x="84" y="46.0" text-anchor="end" font-size="10" fill="#64748b">0.5</text>
<polyline points="92.0,93.0 102.9,93.0 113.8,93.0 124.7,93.0 135.5,93.0 146.4,93.0 157.3,93.0 168.2,93.0 179.1,93.0 190.0,93.0 200.9,93.0 211.7,93.0 222.6,93.0 233.5,93.0 244.4,93.0 255.3,93.0 266.2,93.0 277.1,93.0 287.9,93.0 298.8,93.0 309.7,93.0 320.6,93.0 331.5,93.0 342.4,93.0 353.3,93.0 364.2,93.0 375.0,93.0 385.9,93.0 396.8,93.0 407.7,93.0 418.6,93.0 429.5,93.0 440.4,93.0 451.2,93.0 462.1,93.0 473.0,93.0 483.9,93.0 494.8,93.0 505.7,93.0 516.6,93.0 527.4,93.0 538.3,93.0 549.2,93.0 560.1,93.0 571.0,93.0 581.9,93.0 592.8,93.0 603.6,93.0 614.5,93.0 625.4,93.0 636.3,93.0 647.2,93.0 658.1,93.0 669.0,93.0 679.8,93.0 690.7,93.0 701.6,93.0 712.5,93.0 723.4,93.0 734.3,93.0 745.2,93.0 756.1,93.0 766.9,93.0 777.8,93.0 788.7,93.0 799.6,93.0 810.5,93.0 821.4,93.0 832.3,93.0 843.1,93.0 854.0,93.0 864.9,93.0 875.8,93.0 886.7,93.0 897.6,93.0 908.5,93.0 919.3,93.0 930.2,93.0 941.1,93.0 952.0,93.0" fill="none" stroke="#ea580c" stroke-width="2"/>
<text x="952" y="22" text-anchor="end" font-size="11" fill="#64748b">min=-0.5 max=0.5 last=0</text>
</g>
<g transform="translate(0,1008)">
<text x="92" y="22" font-size="13" font-weight="700">response_length/max</text>
<rect x="92" y="42" width="860" height="102" fill="#fafafa" stroke="#e2e8f0"/>
<line x1="92.0" y1="42" x2="92.0" y2="144" stroke="#e5e7eb"/>
<text x="92.0" y="162" text-anchor="middle" font-size="10" fill="#64748b">1</text>
<line x1="307.0" y1="42" x2="307.0" y2="144" stroke="#e5e7eb"/>
<text x="307.0" y="162" text-anchor="middle" font-size="10" fill="#64748b">20.8</text>
<line x1="522.0" y1="42" x2="522.0" y2="144" stroke="#e5e7eb"/>
<text x="522.0" y="162" text-anchor="middle" font-size="10" fill="#64748b">40.5</text>
<line x1="737.0" y1="42" x2="737.0" y2="144" stroke="#e5e7eb"/>
<text x="737.0" y="162" text-anchor="middle" font-size="10" fill="#64748b">60.2</text>
<line x1="952.0" y1="42" x2="952.0" y2="144" stroke="#e5e7eb"/>
<text x="952.0" y="162" text-anchor="middle" font-size="10" fill="#64748b">80</text>
<line x1="92" y1="144.0" x2="952" y2="144.0" stroke="#e5e7eb"/>
<text x="84" y="148.0" text-anchor="end" font-size="10" fill="#64748b">72</text>
<line x1="92" y1="110.0" x2="952" y2="110.0" stroke="#e5e7eb"/>
<text x="84" y="114.0" text-anchor="end" font-size="10" fill="#64748b">249</text>
<line x1="92" y1="76.0" x2="952" y2="76.0" stroke="#e5e7eb"/>
<text x="84" y="80.0" text-anchor="end" font-size="10" fill="#64748b">426</text>
<line x1="92" y1="42.0" x2="952" y2="42.0" stroke="#e5e7eb"/>
<text x="84" y="46.0" text-anchor="end" font-size="10" fill="#64748b">603</text>
<polyline points="92.0,105.8 102.9,139.8 113.8,136.1 124.7,108.8 135.5,123.8 146.4,120.9 157.3,111.3 168.2,140.4 179.1,42.0 190.0,100.8 200.9,99.2 211.7,131.3 222.6,141.9 233.5,130.9 244.4,140.4 255.3,117.5 266.2,140.5 277.1,140.4 287.9,85.8 298.8,110.8 309.7,119.8 320.6,143.6 331.5,119.8 342.4,116.9 353.3,119.2 364.2,116.0 375.0,120.4 385.9,141.1 396.8,113.8 407.7,116.0 418.6,140.4 429.5,119.8 440.4,119.0 451.2,120.8 462.1,134.6 473.0,120.9 483.9,119.6 494.8,117.9 505.7,136.5 516.6,120.8 527.4,118.5 538.3,140.4 549.2,115.2 560.1,140.5 571.0,141.1 581.9,118.6 592.8,132.7 603.6,136.3 614.5,140.2 625.4,119.8 636.3,116.5 647.2,90.6 658.1,144.0 669.0,111.0 679.8,102.7 690.7,116.9 701.6,140.4 712.5,132.3 723.4,133.1 734.3,113.8 745.2,142.3 756.1,112.1 766.9,141.3 777.8,131.9 788.7,113.8 799.6,119.2 810.5,119.8 821.4,112.7 832.3,140.5 843.1,140.4 854.0,119.2 864.9,119.2 875.8,112.3 886.7,140.4 897.6,140.4 908.5,112.1 919.3,119.0 930.2,119.8 941.1,117.3 952.0,106.0" fill="none" stroke="#0891b2" stroke-width="2"/>
<text x="952" y="22" text-anchor="end" font-size="11" fill="#64748b">min=72 max=603 last=270</text>
</g>
<g transform="translate(0,1198)">
<text x="92" y="22" font-size="13" font-weight="700">response_length/mean</text>
<rect x="92" y="42" width="860" height="102" fill="#fafafa" stroke="#e2e8f0"/>
<line x1="92.0" y1="42" x2="92.0" y2="144" stroke="#e5e7eb"/>
<text x="92.0" y="162" text-anchor="middle" font-size="10" fill="#64748b">1</text>
<line x1="307.0" y1="42" x2="307.0" y2="144" stroke="#e5e7eb"/>
<text x="307.0" y="162" text-anchor="middle" font-size="10" fill="#64748b">20.8</text>
<line x1="522.0" y1="42" x2="522.0" y2="144" stroke="#e5e7eb"/>
<text x="522.0" y="162" text-anchor="middle" font-size="10" fill="#64748b">40.5</text>
<line x1="737.0" y1="42" x2="737.0" y2="144" stroke="#e5e7eb"/>
<text x="737.0" y="162" text-anchor="middle" font-size="10" fill="#64748b">60.2</text>
<line x1="952.0" y1="42" x2="952.0" y2="144" stroke="#e5e7eb"/>
<text x="952.0" y="162" text-anchor="middle" font-size="10" fill="#64748b">80</text>
<line x1="92" y1="144.0" x2="952" y2="144.0" stroke="#e5e7eb"/>
<text x="84" y="148.0" text-anchor="end" font-size="10" fill="#64748b">51.3</text>
<line x1="92" y1="110.0" x2="952" y2="110.0" stroke="#e5e7eb"/>
<text x="84" y="114.0" text-anchor="end" font-size="10" fill="#64748b">128</text>
<line x1="92" y1="76.0" x2="952" y2="76.0" stroke="#e5e7eb"/>
<text x="84" y="80.0" text-anchor="end" font-size="10" fill="#64748b">204</text>
<line x1="92" y1="42.0" x2="952" y2="42.0" stroke="#e5e7eb"/>
<text x="84" y="46.0" text-anchor="end" font-size="10" fill="#64748b">280</text>
<polyline points="92.0,93.2 102.9,127.0 113.8,129.2 124.7,72.8 135.5,129.7 146.4,108.2 157.3,105.4 168.2,129.1 179.1,42.0 190.0,101.6 200.9,62.6 211.7,120.9 222.6,133.0 233.5,121.7 244.4,127.5 255.3,105.0 266.2,128.0 277.1,128.0 287.9,87.0 298.8,92.9 309.7,102.1 320.6,134.8 331.5,104.2 342.4,105.9 353.3,101.1 364.2,98.9 375.0,105.2 385.9,132.8 396.8,93.6 407.7,77.8 418.6,129.1 429.5,104.8 440.4,105.2 451.2,108.7 462.1,125.9 473.0,99.0 483.9,103.2 494.8,109.6 505.7,124.3 516.6,98.9 527.4,105.3 538.3,126.3 549.2,103.9 560.1,127.7 571.0,129.6 581.9,94.5 592.8,119.6 603.6,127.1 614.5,131.1 625.4,105.6 636.3,101.8 647.2,92.0 658.1,144.0 669.0,106.8 679.8,105.9 690.7,76.8 701.6,127.0 712.5,121.4 723.4,122.5 734.3,72.8 745.2,131.4 756.1,97.6 766.9,132.7 777.8,123.7 788.7,96.4 799.6,107.0 810.5,98.5 821.4,108.4 832.3,128.3 843.1,129.6 854.0,109.1 864.9,108.3 875.8,102.2 886.7,128.1 897.6,131.5 908.5,98.8 919.3,97.6 930.2,80.9 941.1,104.7 952.0,102.9" fill="none" stroke="#4f46e5" stroke-width="2"/>
<text x="952" y="22" text-anchor="end" font-size="11" fill="#64748b">min=51.31 max=280.5 last=143.8</text>
</g>
<g transform="translate(0,1388)">
<text x="92" y="22" font-size="13" font-weight="700">perf/throughput</text>
<rect x="92" y="42" width="860" height="102" fill="#fafafa" stroke="#e2e8f0"/>
<line x1="92.0" y1="42" x2="92.0" y2="144" stroke="#e5e7eb"/>
<text x="92.0" y="162" text-anchor="middle" font-size="10" fill="#64748b">1</text>
<line x1="307.0" y1="42" x2="307.0" y2="144" stroke="#e5e7eb"/>
<text x="307.0" y="162" text-anchor="middle" font-size="10" fill="#64748b">20.8</text>
<line x1="522.0" y1="42" x2="522.0" y2="144" stroke="#e5e7eb"/>
<text x="522.0" y="162" text-anchor="middle" font-size="10" fill="#64748b">40.5</text>
<line x1="737.0" y1="42" x2="737.0" y2="144" stroke="#e5e7eb"/>
<text x="737.0" y="162" text-anchor="middle" font-size="10" fill="#64748b">60.2</text>
<line x1="952.0" y1="42" x2="952.0" y2="144" stroke="#e5e7eb"/>
<text x="952.0" y="162" text-anchor="middle" font-size="10" fill="#64748b">80</text>
<line x1="92" y1="144.0" x2="952" y2="144.0" stroke="#e5e7eb"/>
<text x="84" y="148.0" text-anchor="end" font-size="10" fill="#64748b">6.55</text>
<line x1="92" y1="110.0" x2="952" y2="110.0" stroke="#e5e7eb"/>
<text x="84" y="114.0" text-anchor="end" font-size="10" fill="#64748b">10.7</text>
<line x1="92" y1="76.0" x2="952" y2="76.0" stroke="#e5e7eb"/>
<text x="84" y="80.0" text-anchor="end" font-size="10" fill="#64748b">14.8</text>
<line x1="92" y1="42.0" x2="952" y2="42.0" stroke="#e5e7eb"/>
<text x="84" y="46.0" text-anchor="end" font-size="10" fill="#64748b">19.0</text>
<polyline points="92.0,88.5 102.9,71.9 113.8,69.1 124.7,50.5 135.5,73.1 146.4,56.7 157.3,58.4 168.2,52.4 179.1,55.0 190.0,58.4 200.9,47.9 211.7,55.3 222.6,77.6 233.5,58.6 244.4,55.5 255.3,64.8 266.2,59.3 277.1,62.8 287.9,61.2 298.8,47.8 309.7,45.7 320.6,69.8 331.5,57.3 342.4,57.5 353.3,53.4 364.2,62.2 375.0,62.1 385.9,68.0 396.8,52.2 407.7,46.1 418.6,49.6 429.5,61.0 440.4,60.4 451.2,61.1 462.1,70.2 473.0,65.8 483.9,42.0 494.8,68.9 505.7,59.7 516.6,54.7 527.4,56.8 538.3,63.2 549.2,61.7 560.1,63.0 571.0,68.6 581.9,57.4 592.8,58.5 603.6,62.6 614.5,59.7 625.4,52.5 636.3,46.5 647.2,58.8 658.1,75.6 669.0,69.1 679.8,64.6 690.7,43.8 701.6,51.5 712.5,57.5 723.4,56.4 734.3,44.3 745.2,66.9 756.1,58.1 766.9,73.8 777.8,72.3 788.7,60.0 799.6,60.9 810.5,61.1 821.4,63.2 832.3,61.9 843.1,64.6 854.0,59.2 864.9,57.4 875.8,58.4 886.7,60.0 897.6,74.4 908.5,62.2 919.3,50.6 930.2,53.7 941.1,54.6 952.0,144.0" fill="none" stroke="#be123c" stroke-width="2"/>
<text x="952" y="22" text-anchor="end" font-size="11" fill="#64748b">min=6.547 max=18.98 last=6.547</text>
</g>
<g transform="translate(0,1578)">
<text x="92" y="22" font-size="13" font-weight="700">critic/score/max</text>
<rect x="92" y="42" width="860" height="102" fill="#fafafa" stroke="#e2e8f0"/>
<line x1="92.0" y1="42" x2="92.0" y2="144" stroke="#e5e7eb"/>
<text x="92.0" y="162" text-anchor="middle" font-size="10" fill="#64748b">1</text>
<line x1="307.0" y1="42" x2="307.0" y2="144" stroke="#e5e7eb"/>
<text x="307.0" y="162" text-anchor="middle" font-size="10" fill="#64748b">20.8</text>
<line x1="522.0" y1="42" x2="522.0" y2="144" stroke="#e5e7eb"/>
<text x="522.0" y="162" text-anchor="middle" font-size="10" fill="#64748b">40.5</text>
<line x1="737.0" y1="42" x2="737.0" y2="144" stroke="#e5e7eb"/>
<text x="737.0" y="162" text-anchor="middle" font-size="10" fill="#64748b">60.2</text>
<line x1="952.0" y1="42" x2="952.0" y2="144" stroke="#e5e7eb"/>
<text x="952.0" y="162" text-anchor="middle" font-size="10" fill="#64748b">80</text>
<line x1="92" y1="144.0" x2="952" y2="144.0" stroke="#e5e7eb"/>
<text x="84" y="148.0" text-anchor="end" font-size="10" fill="#64748b">0.45</text>
<line x1="92" y1="110.0" x2="952" y2="110.0" stroke="#e5e7eb"/>
<text x="84" y="114.0" text-anchor="end" font-size="10" fill="#64748b">0.617</text>
<line x1="92" y1="76.0" x2="952" y2="76.0" stroke="#e5e7eb"/>
<text x="84" y="80.0" text-anchor="end" font-size="10" fill="#64748b">0.783</text>
<line x1="92" y1="42.0" x2="952" y2="42.0" stroke="#e5e7eb"/>
<text x="84" y="46.0" text-anchor="end" font-size="10" fill="#64748b">0.95</text>
<polyline points="92.0,42.0 102.9,42.0 113.8,42.0 124.7,144.0 135.5,42.0 146.4,42.0 157.3,42.0 168.2,42.0 179.1,42.0 190.0,42.0 200.9,144.0 211.7,42.0 222.6,42.0 233.5,42.0 244.4,42.0 255.3,42.0 266.2,42.0 277.1,42.0 287.9,42.0 298.8,42.0 309.7,42.0 320.6,42.0 331.5,42.0 342.4,42.0 353.3,42.0 364.2,42.0 375.0,42.0 385.9,42.0 396.8,42.0 407.7,42.0 418.6,42.0 429.5,42.0 440.4,42.0 451.2,42.0 462.1,42.0 473.0,42.0 483.9,42.0 494.8,42.0 505.7,42.0 516.6,42.0 527.4,43.3 538.3,42.0 549.2,42.0 560.1,42.0 571.0,42.0 581.9,42.0 592.8,42.0 603.6,42.0 614.5,42.0 625.4,42.0 636.3,42.0 647.2,47.6 658.1,42.0 669.0,42.0 679.8,42.0 690.7,42.0 701.6,42.0 712.5,42.0 723.4,42.0 734.3,42.0 745.2,42.0 756.1,42.0 766.9,42.0 777.8,42.0 788.7,42.0 799.6,42.0 810.5,42.0 821.4,42.0 832.3,42.0 843.1,42.0 854.0,42.0 864.9,42.0 875.8,42.0 886.7,42.0 897.6,42.0 908.5,42.0 919.3,47.3 930.2,144.0 941.1,42.0 952.0,42.0" fill="none" stroke="#2563eb" stroke-width="2"/>
<text x="952" y="22" text-anchor="end" font-size="11" fill="#64748b">min=0.45 max=0.95 last=0.95</text>
</g>
<g transform="translate(0,1768)">
<text x="92" y="22" font-size="13" font-weight="700">critic/score/min</text>
<rect x="92" y="42" width="860" height="102" fill="#fafafa" stroke="#e2e8f0"/>
<line x1="92.0" y1="42" x2="92.0" y2="144" stroke="#e5e7eb"/>
<text x="92.0" y="162" text-anchor="middle" font-size="10" fill="#64748b">1</text>
<line x1="307.0" y1="42" x2="307.0" y2="144" stroke="#e5e7eb"/>
<text x="307.0" y="162" text-anchor="middle" font-size="10" fill="#64748b">20.8</text>
<line x1="522.0" y1="42" x2="522.0" y2="144" stroke="#e5e7eb"/>
<text x="522.0" y="162" text-anchor="middle" font-size="10" fill="#64748b">40.5</text>
<line x1="737.0" y1="42" x2="737.0" y2="144" stroke="#e5e7eb"/>
<text x="737.0" y="162" text-anchor="middle" font-size="10" fill="#64748b">60.2</text>
<line x1="952.0" y1="42" x2="952.0" y2="144" stroke="#e5e7eb"/>
<text x="952.0" y="162" text-anchor="middle" font-size="10" fill="#64748b">80</text>
<line x1="92" y1="144.0" x2="952" y2="144.0" stroke="#e5e7eb"/>
<text x="84" y="148.0" text-anchor="end" font-size="10" fill="#64748b">0.12</text>
<line x1="92" y1="110.0" x2="952" y2="110.0" stroke="#e5e7eb"/>
<text x="84" y="114.0" text-anchor="end" font-size="10" fill="#64748b">0.397</text>
<line x1="92" y1="76.0" x2="952" y2="76.0" stroke="#e5e7eb"/>
<text x="84" y="80.0" text-anchor="end" font-size="10" fill="#64748b">0.673</text>
<line x1="92" y1="42.0" x2="952" y2="42.0" stroke="#e5e7eb"/>
<text x="84" y="46.0" text-anchor="end" font-size="10" fill="#64748b">0.95</text>
<polyline points="92.0,42.8 102.9,42.0 113.8,89.1 124.7,107.1 135.5,103.4 146.4,43.1 157.3,42.0 168.2,42.0 179.1,144.0 190.0,112.0 200.9,103.4 211.7,42.2 222.6,42.0 233.5,42.2 244.4,42.0 255.3,42.0 266.2,42.0 277.1,42.0 287.9,120.7 298.8,115.7 309.7,103.4 320.6,42.0 331.5,103.4 342.4,105.3 353.3,115.7 364.2,42.0 375.0,103.4 385.9,42.0 396.8,42.0 407.7,103.4 418.6,126.8 429.5,103.4 440.4,103.4 451.2,103.4 462.1,103.4 473.0,103.4 483.9,103.4 494.8,103.4 505.7,126.8 516.6,103.4 527.4,103.4 538.3,42.0 549.2,103.4 560.1,42.0 571.0,115.7 581.9,103.4 592.8,115.7 603.6,42.0 614.5,103.4 625.4,103.4 636.3,108.1 647.2,120.7 658.1,103.4 669.0,103.4 679.8,117.0 690.7,103.4 701.6,42.0 712.5,42.3 723.4,42.0 734.3,103.4 745.2,42.0 756.1,42.0 766.9,42.0 777.8,103.4 788.7,42.0 799.6,103.4 810.5,103.4 821.4,115.7 832.3,115.7 843.1,42.0 854.0,103.4 864.9,103.4 875.8,103.4 886.7,42.0 897.6,103.4 908.5,42.0 919.3,103.4 930.2,103.4 941.1,42.0 952.0,103.4" fill="none" stroke="#16a34a" stroke-width="2"/>
<text x="952" y="22" text-anchor="end" font-size="11" fill="#64748b">min=0.12 max=0.95 last=0.45</text>
</g>
<g transform="translate(0,1958)">
<text x="92" y="22" font-size="13" font-weight="700">timing_s/step</text>
<rect x="92" y="42" width="860" height="102" fill="#fafafa" stroke="#e2e8f0"/>
<line x1="92.0" y1="42" x2="92.0" y2="144" stroke="#e5e7eb"/>
<text x="92.0" y="162" text-anchor="middle" font-size="10" fill="#64748b">1</text>
<line x1="307.0" y1="42" x2="307.0" y2="144" stroke="#e5e7eb"/>
<text x="307.0" y="162" text-anchor="middle" font-size="10" fill="#64748b">20.8</text>
<line x1="522.0" y1="42" x2="522.0" y2="144" stroke="#e5e7eb"/>
<text x="522.0" y="162" text-anchor="middle" font-size="10" fill="#64748b">40.5</text>
<line x1="737.0" y1="42" x2="737.0" y2="144" stroke="#e5e7eb"/>
<text x="737.0" y="162" text-anchor="middle" font-size="10" fill="#64748b">60.2</text>
<line x1="952.0" y1="42" x2="952.0" y2="144" stroke="#e5e7eb"/>
<text x="952.0" y="162" text-anchor="middle" font-size="10" fill="#64748b">80</text>
<line x1="92" y1="144.0" x2="952" y2="144.0" stroke="#e5e7eb"/>
<text x="84" y="148.0" text-anchor="end" font-size="10" fill="#64748b">95.4</text>
<line x1="92" y1="110.0" x2="952" y2="110.0" stroke="#e5e7eb"/>
<text x="84" y="114.0" text-anchor="end" font-size="10" fill="#64748b">152</text>
<line x1="92" y1="76.0" x2="952" y2="76.0" stroke="#e5e7eb"/>
<text x="84" y="80.0" text-anchor="end" font-size="10" fill="#64748b">208</text>
<line x1="92" y1="42.0" x2="952" y2="42.0" stroke="#e5e7eb"/>
<text x="84" y="46.0" text-anchor="end" font-size="10" fill="#64748b">264</text>
<polyline points="92.0,124.4 102.9,142.2 113.8,143.2 124.7,140.3 135.5,142.0 146.4,141.4 157.3,140.5 168.2,143.4 179.1,133.9 190.0,139.5 200.9,139.3 211.7,142.3 222.6,143.8 233.5,142.7 244.4,143.5 255.3,141.2 266.2,143.6 277.1,143.6 287.9,138.2 298.8,140.5 309.7,141.4 320.6,143.9 331.5,141.4 342.4,141.2 353.3,141.3 364.2,140.9 375.0,141.4 385.9,143.6 396.8,140.7 407.7,140.9 418.6,143.5 429.5,141.4 440.4,141.5 451.2,141.6 462.1,143.1 473.0,141.6 483.9,141.2 494.8,141.4 505.7,143.2 516.6,141.4 527.4,141.3 538.3,143.6 549.2,140.9 560.1,143.5 571.0,143.8 581.9,141.4 592.8,142.9 603.6,143.1 614.5,143.4 625.4,141.3 636.3,141.1 647.2,138.6 658.1,144.0 669.0,140.7 679.8,139.8 690.7,141.1 701.6,143.6 712.5,142.9 723.4,142.9 734.3,140.8 745.2,143.8 756.1,140.7 766.9,144.0 777.8,142.7 788.7,140.7 799.6,141.4 810.5,141.5 821.4,140.7 832.3,143.6 843.1,143.5 854.0,141.4 864.9,141.2 875.8,140.8 886.7,143.6 897.6,143.6 908.5,140.7 919.3,141.2 930.2,141.3 941.1,141.2 952.0,42.0" fill="none" stroke="#dc2626" stroke-width="2"/>
<text x="952" y="22" text-anchor="end" font-size="11" fill="#64748b">min=95.41 max=263.9 last=263.9</text>
</g>
</svg>