<svg xmlns="http://www.w3.org/2000/svg" width="980" height="3478" font-family="Arial, sans-serif">
<rect width="100%" height="100%" fill="white"/>
<text x="24" y="28" font-size="18" font-weight="700">experiments/qwen3_8b_grpo_auditcot_finalverifier_v5_continue_b8_obs10/metrics.jsonl</text>
<text x="24" y="48" font-size="12" fill="#64748b">rows=10 keys=18</text>
<g transform="translate(0,58)">
<text x="92" y="22" font-size="13" font-weight="700">critic/score/mean</text>
<rect x="92" y="42" width="860" height="102" fill="#fafafa" stroke="#e2e8f0"/>
<line x1="92.0" y1="42" x2="92.0" y2="144" stroke="#e5e7eb"/>
<text x="92.0" y="162" text-anchor="middle" font-size="10" fill="#64748b">1</text>
<line x1="307.0" y1="42" x2="307.0" y2="144" stroke="#e5e7eb"/>
<text x="307.0" y="162" text-anchor="middle" font-size="10" fill="#64748b">3.25</text>
<line x1="522.0" y1="42" x2="522.0" y2="144" stroke="#e5e7eb"/>
<text x="522.0" y="162" text-anchor="middle" font-size="10" fill="#64748b">5.5</text>
<line x1="737.0" y1="42" x2="737.0" y2="144" stroke="#e5e7eb"/>
<text x="737.0" y="162" text-anchor="middle" font-size="10" fill="#64748b">7.75</text>
<line x1="952.0" y1="42" x2="952.0" y2="144" stroke="#e5e7eb"/>
<text x="952.0" y="162" text-anchor="middle" font-size="10" fill="#64748b">10</text>
<line x1="92" y1="144.0" x2="952" y2="144.0" stroke="#e5e7eb"/>
<text x="84" y="148.0" text-anchor="end" font-size="10" fill="#64748b">0.395</text>
<line x1="92" y1="110.0" x2="952" y2="110.0" stroke="#e5e7eb"/>
<text x="84" y="114.0" text-anchor="end" font-size="10" fill="#64748b">0.597</text>
<line x1="92" y1="76.0" x2="952" y2="76.0" stroke="#e5e7eb"/>
<text x="84" y="80.0" text-anchor="end" font-size="10" fill="#64748b">0.798</text>
<line x1="92" y1="42.0" x2="952" y2="42.0" stroke="#e5e7eb"/>
<text x="84" y="46.0" text-anchor="end" font-size="10" fill="#64748b">1</text>
<polyline points="92.0,103.1 187.6,95.1 283.1,144.0 378.7,79.1 474.2,106.9 569.8,95.1 665.3,124.2 760.9,42.0 856.4,88.4 952.0,97.6" fill="none" stroke="#2563eb" stroke-width="2"/>
<text x="952" y="22" text-anchor="end" font-size="11" fill="#64748b">min=0.395 max=1 last=0.67</text>
</g>
<g transform="translate(0,248)">
<text x="92" y="22" font-size="13" font-weight="700">timing_s/agent_loop/compute_score/mean</text>
<rect x="92" y="42" width="860" height="102" fill="#fafafa" stroke="#e2e8f0"/>
<line x1="92.0" y1="42" x2="92.0" y2="144" stroke="#e5e7eb"/>
<text x="92.0" y="162" text-anchor="middle" font-size="10" fill="#64748b">1</text>
<line x1="307.0" y1="42" x2="307.0" y2="144" stroke="#e5e7eb"/>
<text x="307.0" y="162" text-anchor="middle" font-size="10" fill="#64748b">3.25</text>
<line x1="522.0" y1="42" x2="522.0" y2="144" stroke="#e5e7eb"/>
<text x="522.0" y="162" text-anchor="middle" font-size="10" fill="#64748b">5.5</text>
<line x1="737.0" y1="42" x2="737.0" y2="144" stroke="#e5e7eb"/>
<text x="737.0" y="162" text-anchor="middle" font-size="10" fill="#64748b">7.75</text>
<line x1="952.0" y1="42" x2="952.0" y2="144" stroke="#e5e7eb"/>
<text x="952.0" y="162" text-anchor="middle" font-size="10" fill="#64748b">10</text>
<line x1="92" y1="144.0" x2="952" y2="144.0" stroke="#e5e7eb"/>
<text x="84" y="148.0" text-anchor="end" font-size="10" fill="#64748b">0.00684</text>
<line x1="92" y1="110.0" x2="952" y2="110.0" stroke="#e5e7eb"/>
<text x="84" y="114.0" text-anchor="end" font-size="10" fill="#64748b">0.454</text>
<line x1="92" y1="76.0" x2="952" y2="76.0" stroke="#e5e7eb"/>
<text x="84" y="80.0" text-anchor="end" font-size="10" fill="#64748b">0.9</text>
<line x1="92" y1="42.0" x2="952" y2="42.0" stroke="#e5e7eb"/>
<text x="84" y="46.0" text-anchor="end" font-size="10" fill="#64748b">1.35</text>
<polyline points="92.0,42.0 187.6,113.8 283.1,143.9 378.7,143.6 474.2,143.9 569.8,143.9 665.3,141.3 760.9,144.0 856.4,143.9 952.0,143.9" fill="none" stroke="#16a34a" stroke-width="2"/>
<text x="952" y="22" text-anchor="end" font-size="11" fill="#64748b">min=0.006839 max=1.347 last=0.00822</text>
</g>
<g transform="translate(0,438)">
<text x="92" y="22" font-size="13" font-weight="700">critic/rewards/mean</text>
<rect x="92" y="42" width="860" height="102" fill="#fafafa" stroke="#e2e8f0"/>
<line x1="92.0" y1="42" x2="92.0" y2="144" stroke="#e5e7eb"/>
<text x="92.0" y="162" text-anchor="middle" font-size="10" fill="#64748b">1</text>
<line x1="307.0" y1="42" x2="307.0" y2="144" stroke="#e5e7eb"/>
<text x="307.0" y="162" text-anchor="middle" font-size="10" fill="#64748b">3.25</text>
<line x1="522.0" y1="42" x2="522.0" y2="144" stroke="#e5e7eb"/>
<text x="522.0" y="162" text-anchor="middle" font-size="10" fill="#64748b">5.5</text>
<line x1="737.0" y1="42" x2="737.0" y2="144" stroke="#e5e7eb"/>
<text x="737.0" y="162" text-anchor="middle" font-size="10" fill="#64748b">7.75</text>
<line x1="952.0" y1="42" x2="952.0" y2="144" stroke="#e5e7eb"/>
<text x="952.0" y="162" text-anchor="middle" font-size="10" fill="#64748b">10</text>
<line x1="92" y1="144.0" x2="952" y2="144.0" stroke="#e5e7eb"/>
<text x="84" y="148.0" text-anchor="end" font-size="10" fill="#64748b">0.395</text>
<line x1="92" y1="110.0" x2="952" y2="110.0" stroke="#e5e7eb"/>
<text x="84" y="114.0" text-anchor="end" font-size="10" fill="#64748b">0.597</text>
<line x1="92" y1="76.0" x2="952" y2="76.0" stroke="#e5e7eb"/>
<text x="84" y="80.0" text-anchor="end" font-size="10" fill="#64748b">0.798</text>
<line x1="92" y1="42.0" x2="952" y2="42.0" stroke="#e5e7eb"/>
<text x="84" y="46.0" text-anchor="end" font-size="10" fill="#64748b">1</text>
<polyline points="92.0,103.1 187.6,95.1 283.1,144.0 378.7,79.1 474.2,106.9 569.8,95.1 665.3,124.2 760.9,42.0 856.4,88.4 952.0,97.6" fill="none" stroke="#dc2626" stroke-width="2"/>
<text x="952" y="22" text-anchor="end" font-size="11" fill="#64748b">min=0.395 max=1 last=0.67</text>
</g>
<g transform="translate(0,628)">
<text x="92" y="22" font-size="13" font-weight="700">critic/rewards/max</text>
<rect x="92" y="42" width="860" height="102" fill="#fafafa" stroke="#e2e8f0"/>
<line x1="92.0" y1="42" x2="92.0" y2="144" stroke="#e5e7eb"/>
<text x="92.0" y="162" text-anchor="middle" font-size="10" fill="#64748b">1</text>
<line x1="307.0" y1="42" x2="307.0" y2="144" stroke="#e5e7eb"/>
<text x="307.0" y="162" text-anchor="middle" font-size="10" fill="#64748b">3.25</text>
<line x1="522.0" y1="42" x2="522.0" y2="144" stroke="#e5e7eb"/>
<text x="522.0" y="162" text-anchor="middle" font-size="10" fill="#64748b">5.5</text>
<line x1="737.0" y1="42" x2="737.0" y2="144" stroke="#e5e7eb"/>
<text x="737.0" y="162" text-anchor="middle" font-size="10" fill="#64748b">7.75</text>
<line x1="952.0" y1="42" x2="952.0" y2="144" stroke="#e5e7eb"/>
<text x="952.0" y="162" text-anchor="middle" font-size="10" fill="#64748b">10</text>
<line x1="92" y1="144.0" x2="952" y2="144.0" stroke="#e5e7eb"/>
<text x="84" y="148.0" text-anchor="end" font-size="10" fill="#64748b">0.5</text>
<line x1="92" y1="110.0" x2="952" y2="110.0" stroke="#e5e7eb"/>
<text x="84" y="114.0" text-anchor="end" font-size="10" fill="#64748b">0.833</text>
<line x1="92" y1="76.0" x2="952" y2="76.0" stroke="#e5e7eb"/>
<text x="84" y="80.0" text-anchor="end" font-size="10" fill="#64748b">1.17</text>
<line x1="92" y1="42.0" x2="952" y2="42.0" stroke="#e5e7eb"/>
<text x="84" y="46.0" text-anchor="end" font-size="10" fill="#64748b">1.5</text>
<polyline points="92.0,93.0 187.6,93.0 283.1,93.0 378.7,93.0 474.2,93.0 569.8,93.0 665.3,93.0 760.9,93.0 856.4,93.0 952.0,93.0" fill="none" stroke="#9333ea" stroke-width="2"/>
<text x="952" y="22" text-anchor="end" font-size="11" fill="#64748b">min=0.5 max=1.5 last=1</text>
</g>
<g transform="translate(0,818)">
<text x="92" y="22" font-size="13" font-weight="700">critic/rewards/min</text>
<rect x="92" y="42" width="860" height="102" fill="#fafafa" stroke="#e2e8f0"/>
<line x1="92.0" y1="42" x2="92.0" y2="144" stroke="#e5e7eb"/>
<text x="92.0" y="162" text-anchor="middle" font-size="10" fill="#64748b">1</text>
<line x1="307.0" y1="42" x2="307.0" y2="144" stroke="#e5e7eb"/>
<text x="307.0" y="162" text-anchor="middle" font-size="10" fill="#64748b">3.25</text>
<line x1="522.0" y1="42" x2="522.0" y2="144" stroke="#e5e7eb"/>
<text x="522.0" y="162" text-anchor="middle" font-size="10" fill="#64748b">5.5</text>
<line x1="737.0" y1="42" x2="737.0" y2="144" stroke="#e5e7eb"/>
<text x="737.0" y="162" text-anchor="middle" font-size="10" fill="#64748b">7.75</text>
<line x1="952.0" y1="42" x2="952.0" y2="144" stroke="#e5e7eb"/>
<text x="952.0" y="162" text-anchor="middle" font-size="10" fill="#64748b">10</text>
<line x1="92" y1="144.0" x2="952" y2="144.0" stroke="#e5e7eb"/>
<text x="84" y="148.0" text-anchor="end" font-size="10" fill="#64748b">0.12</text>
<line x1="92" y1="110.0" x2="952" y2="110.0" stroke="#e5e7eb"/>
<text x="84" y="114.0" text-anchor="end" font-size="10" fill="#64748b">0.413</text>
<line x1="92" y1="76.0" x2="952" y2="76.0" stroke="#e5e7eb"/>
<text x="84" y="80.0" text-anchor="end" font-size="10" fill="#64748b">0.707</text>
<line x1="92" y1="42.0" x2="952" y2="42.0" stroke="#e5e7eb"/>
<text x="84" y="46.0" text-anchor="end" font-size="10" fill="#64748b">1</text>
<polyline points="92.0,144.0 187.6,144.0 283.1,144.0 378.7,144.0 474.2,144.0 569.8,144.0 665.3,144.0 760.9,42.0 856.4,144.0 952.0,144.0" fill="none" stroke="#ea580c" stroke-width="2"/>
<text x="952" y="22" text-anchor="end" font-size="11" fill="#64748b">min=0.12 max=1 last=0.12</text>
</g>
<g transform="translate(0,1008)">
<text x="92" y="22" font-size="13" font-weight="700">timing_s/reward</text>
<rect x="92" y="42" width="860" height="102" fill="#fafafa" stroke="#e2e8f0"/>
<line x1="92.0" y1="42" x2="92.0" y2="144" stroke="#e5e7eb"/>
<text x="92.0" y="162" text-anchor="middle" font-size="10" fill="#64748b">1</text>
<line x1="307.0" y1="42" x2="307.0" y2="144" stroke="#e5e7eb"/>
<text x="307.0" y="162" text-anchor="middle" font-size="10" fill="#64748b">3.25</text>
<line x1="522.0" y1="42" x2="522.0" y2="144" stroke="#e5e7eb"/>
<text x="522.0" y="162" text-anchor="middle" font-size="10" fill="#64748b">5.5</text>
<line x1="737.0" y1="42" x2="737.0" y2="144" stroke="#e5e7eb"/>
<text x="737.0" y="162" text-anchor="middle" font-size="10" fill="#64748b">7.75</text>
<line x1="952.0" y1="42" x2="952.0" y2="144" stroke="#e5e7eb"/>
<text x="952.0" y="162" text-anchor="middle" font-size="10" fill="#64748b">10</text>
<line x1="92" y1="144.0" x2="952" y2="144.0" stroke="#e5e7eb"/>
<text x="84" y="148.0" text-anchor="end" font-size="10" fill="#64748b">1.22e-05</text>
<line x1="92" y1="110.0" x2="952" y2="110.0" stroke="#e5e7eb"/>
<text x="84" y="114.0" text-anchor="end" font-size="10" fill="#64748b">4.84e-05</text>
<line x1="92" y1="76.0" x2="952" y2="76.0" stroke="#e5e7eb"/>
<text x="84" y="80.0" text-anchor="end" font-size="10" fill="#64748b">8.46e-05</text>
<line x1="92" y1="42.0" x2="952" y2="42.0" stroke="#e5e7eb"/>
<text x="84" y="46.0" text-anchor="end" font-size="10" fill="#64748b">0.000121</text>
<polyline points="92.0,144.0 187.6,42.0 283.1,134.5 378.7,135.8 474.2,135.4 569.8,134.5 665.3,105.9 760.9,138.2 856.4,138.9 952.0,139.8" fill="none" stroke="#0891b2" stroke-width="2"/>
<text x="952" y="22" text-anchor="end" font-size="11" fill="#64748b">min=1.223e-05 max=0.0001208 last=1.665e-05</text>
</g>
<g transform="translate(0,1198)">
<text x="92" y="22" font-size="13" font-weight="700">critic/advantages/max</text>
<rect x="92" y="42" width="860" height="102" fill="#fafafa" stroke="#e2e8f0"/>
<line x1="92.0" y1="42" x2="92.0" y2="144" stroke="#e5e7eb"/>
<text x="92.0" y="162" text-anchor="middle" font-size="10" fill="#64748b">1</text>
<line x1="307.0" y1="42" x2="307.0" y2="144" stroke="#e5e7eb"/>
<text x="307.0" y="162" text-anchor="middle" font-size="10" fill="#64748b">3.25</text>
<line x1="522.0" y1="42" x2="522.0" y2="144" stroke="#e5e7eb"/>
<text x="522.0" y="162" text-anchor="middle" font-size="10" fill="#64748b">5.5</text>
<line x1="737.0" y1="42" x2="737.0" y2="144" stroke="#e5e7eb"/>
<text x="737.0" y="162" text-anchor="middle" font-size="10" fill="#64748b">7.75</text>
<line x1="952.0" y1="42" x2="952.0" y2="144" stroke="#e5e7eb"/>
<text x="952.0" y="162" text-anchor="middle" font-size="10" fill="#64748b">10</text>
<line x1="92" y1="144.0" x2="952" y2="144.0" stroke="#e5e7eb"/>
<text x="84" y="148.0" text-anchor="end" font-size="10" fill="#64748b">0</text>
<line x1="92" y1="110.0" x2="952" y2="110.0" stroke="#e5e7eb"/>
<text x="84" y="114.0" text-anchor="end" font-size="10" fill="#64748b">0.236</text>
<line x1="92" y1="76.0" x2="952" y2="76.0" stroke="#e5e7eb"/>
<text x="84" y="80.0" text-anchor="end" font-size="10" fill="#64748b">0.471</text>
<line x1="92" y1="42.0" x2="952" y2="42.0" stroke="#e5e7eb"/>
<text x="84" y="46.0" text-anchor="end" font-size="10" fill="#64748b">0.707</text>
<polyline points="92.0,42.0 187.6,42.0 283.1,42.0 378.7,42.0 474.2,42.0 569.8,42.0 665.3,42.0 760.9,144.0 856.4,42.0 952.0,144.0" fill="none" stroke="#4f46e5" stroke-width="2"/>
<text x="952" y="22" text-anchor="end" font-size="11" fill="#64748b">min=0 max=0.7071 last=0</text>
</g>
<g transform="translate(0,1388)">
<text x="92" y="22" font-size="13" font-weight="700">critic/advantages/mean</text>
<rect x="92" y="42" width="860" height="102" fill="#fafafa" stroke="#e2e8f0"/>
<line x1="92.0" y1="42" x2="92.0" y2="144" stroke="#e5e7eb"/>
<text x="92.0" y="162" text-anchor="middle" font-size="10" fill="#64748b">1</text>
<line x1="307.0" y1="42" x2="307.0" y2="144" stroke="#e5e7eb"/>
<text x="307.0" y="162" text-anchor="middle" font-size="10" fill="#64748b">3.25</text>
<line x1="522.0" y1="42" x2="522.0" y2="144" stroke="#e5e7eb"/>
<text x="522.0" y="162" text-anchor="middle" font-size="10" fill="#64748b">5.5</text>
<line x1="737.0" y1="42" x2="737.0" y2="144" stroke="#e5e7eb"/>
<text x="737.0" y="162" text-anchor="middle" font-size="10" fill="#64748b">7.75</text>
<line x1="952.0" y1="42" x2="952.0" y2="144" stroke="#e5e7eb"/>
<text x="952.0" y="162" text-anchor="middle" font-size="10" fill="#64748b">10</text>
<line x1="92" y1="144.0" x2="952" y2="144.0" stroke="#e5e7eb"/>
<text x="84" y="148.0" text-anchor="end" font-size="10" fill="#64748b">-0.0449</text>
<line x1="92" y1="110.0" x2="952" y2="110.0" stroke="#e5e7eb"/>
<text x="84" y="114.0" text-anchor="end" font-size="10" fill="#64748b">-0.0299</text>
<line x1="92" y1="76.0" x2="952" y2="76.0" stroke="#e5e7eb"/>
<text x="84" y="80.0" text-anchor="end" font-size="10" fill="#64748b">-0.015</text>
<line x1="92" y1="42.0" x2="952" y2="42.0" stroke="#e5e7eb"/>
<text x="84" y="46.0" text-anchor="end" font-size="10" fill="#64748b">0</text>
<polyline points="92.0,141.7 187.6,115.8 283.1,56.1 378.7,72.5 474.2,47.8 569.8,144.0 665.3,48.2 760.9,42.0 856.4,45.4 952.0,42.0" fill="none" stroke="#be123c" stroke-width="2"/>
<text x="952" y="22" text-anchor="end" font-size="11" fill="#64748b">min=-0.04486 max=0 last=0</text>
</g>
<g transform="translate(0,1578)">
<text x="92" y="22" font-size="13" font-weight="700">critic/advantages/min</text>
<rect x="92" y="42" width="860" height="102" fill="#fafafa" stroke="#e2e8f0"/>
<line x1="92.0" y1="42" x2="92.0" y2="144" stroke="#e5e7eb"/>
<text x="92.0" y="162" text-anchor="middle" font-size="10" fill="#64748b">1</text>
<line x1="307.0" y1="42" x2="307.0" y2="144" stroke="#e5e7eb"/>
<text x="307.0" y="162" text-anchor="middle" font-size="10" fill="#64748b">3.25</text>
<line x1="522.0" y1="42" x2="522.0" y2="144" stroke="#e5e7eb"/>
<text x="522.0" y="162" text-anchor="middle" font-size="10" fill="#64748b">5.5</text>
<line x1="737.0" y1="42" x2="737.0" y2="144" stroke="#e5e7eb"/>
<text x="737.0" y="162" text-anchor="middle" font-size="10" fill="#64748b">7.75</text>
<line x1="952.0" y1="42" x2="952.0" y2="144" stroke="#e5e7eb"/>
<text x="952.0" y="162" text-anchor="middle" font-size="10" fill="#64748b">10</text>
<line x1="92" y1="144.0" x2="952" y2="144.0" stroke="#e5e7eb"/>
<text x="84" y="148.0" text-anchor="end" font-size="10" fill="#64748b">-0.707</text>
<line x1="92" y1="110.0" x2="952" y2="110.0" stroke="#e5e7eb"/>
<text x="84" y="114.0" text-anchor="end" font-size="10" fill="#64748b">-0.471</text>
<line x1="92" y1="76.0" x2="952" y2="76.0" stroke="#e5e7eb"/>
<text x="84" y="80.0" text-anchor="end" font-size="10" fill="#64748b">-0.236</text>
<line x1="92" y1="42.0" x2="952" y2="42.0" stroke="#e5e7eb"/>
<text x="84" y="46.0" text-anchor="end" font-size="10" fill="#64748b">0</text>
<polyline points="92.0,144.0 187.6,144.0 283.1,144.0 378.7,144.0 474.2,144.0 569.8,144.0 665.3,144.0 760.9,42.0 856.4,144.0 952.0,42.0" fill="none" stroke="#2563eb" stroke-width="2"/>
<text x="952" y="22" text-anchor="end" font-size="11" fill="#64748b">min=-0.7071 max=0 last=0</text>
</g>
<g transform="translate(0,1768)">
<text x="92" y="22" font-size="13" font-weight="700">actor/grad_norm</text>
<rect x="92" y="42" width="860" height="102" fill="#fafafa" stroke="#e2e8f0"/>
<line x1="92.0" y1="42" x2="92.0" y2="144" stroke="#e5e7eb"/>
<text x="92.0" y="162" text-anchor="middle" font-size="10" fill="#64748b">1</text>
<line x1="307.0" y1="42" x2="307.0" y2="144" stroke="#e5e7eb"/>
<text x="307.0" y="162" text-anchor="middle" font-size="10" fill="#64748b">3.25</text>
<line x1="522.0" y1="42" x2="522.0" y2="144" stroke="#e5e7eb"/>
<text x="522.0" y="162" text-anchor="middle" font-size="10" fill="#64748b">5.5</text>
<line x1="737.0" y1="42" x2="737.0" y2="144" stroke="#e5e7eb"/>
<text x="737.0" y="162" text-anchor="middle" font-size="10" fill="#64748b">7.75</text>
<line x1="952.0" y1="42" x2="952.0" y2="144" stroke="#e5e7eb"/>
<text x="952.0" y="162" text-anchor="middle" font-size="10" fill="#64748b">10</text>
<line x1="92" y1="144.0" x2="952" y2="144.0" stroke="#e5e7eb"/>
<text x="84" y="148.0" text-anchor="end" font-size="10" fill="#64748b">0</text>
<line x1="92" y1="110.0" x2="952" y2="110.0" stroke="#e5e7eb"/>
<text x="84" y="114.0" text-anchor="end" font-size="10" fill="#64748b">0.219</text>
<line x1="92" y1="76.0" x2="952" y2="76.0" stroke="#e5e7eb"/>
<text x="84" y="80.0" text-anchor="end" font-size="10" fill="#64748b">0.438</text>
<line x1="92" y1="42.0" x2="952" y2="42.0" stroke="#e5e7eb"/>
<text x="84" y="46.0" text-anchor="end" font-size="10" fill="#64748b">0.657</text>
<polyline points="92.0,51.0 187.6,60.3 283.1,104.4 378.7,77.7 474.2,106.1 569.8,42.0 665.3,78.9 760.9,144.0 856.4,91.4 952.0,144.0" fill="none" stroke="#16a34a" stroke-width="2"/>
<text x="952" y="22" text-anchor="end" font-size="11" fill="#64748b">min=0 max=0.6566 last=0</text>
</g>
<g transform="translate(0,1958)">
<text x="92" y="22" font-size="13" font-weight="700">actor/loss</text>
<rect x="92" y="42" width="860" height="102" fill="#fafafa" stroke="#e2e8f0"/>
<line x1="92.0" y1="42" x2="92.0" y2="144" stroke="#e5e7eb"/>
<text x="92.0" y="162" text-anchor="middle" font-size="10" fill="#64748b">1</text>
<line x1="307.0" y1="42" x2="307.0" y2="144" stroke="#e5e7eb"/>
<text x="307.0" y="162" text-anchor="middle" font-size="10" fill="#64748b">3.25</text>
<line x1="522.0" y1="42" x2="522.0" y2="144" stroke="#e5e7eb"/>
<text x="522.0" y="162" text-anchor="middle" font-size="10" fill="#64748b">5.5</text>
<line x1="737.0" y1="42" x2="737.0" y2="144" stroke="#e5e7eb"/>
<text x="737.0" y="162" text-anchor="middle" font-size="10" fill="#64748b">7.75</text>
<line x1="952.0" y1="42" x2="952.0" y2="144" stroke="#e5e7eb"/>
<text x="952.0" y="162" text-anchor="middle" font-size="10" fill="#64748b">10</text>
<line x1="92" y1="144.0" x2="952" y2="144.0" stroke="#e5e7eb"/>
<text x="84" y="148.0" text-anchor="end" font-size="10" fill="#64748b">0</text>
<line x1="92" y1="110.0" x2="952" y2="110.0" stroke="#e5e7eb"/>
<text x="84" y="114.0" text-anchor="end" font-size="10" fill="#64748b">0.015</text>
<line x1="92" y1="76.0" x2="952" y2="76.0" stroke="#e5e7eb"/>
<text x="84" y="80.0" text-anchor="end" font-size="10" fill="#64748b">0.0299</text>
<line x1="92" y1="42.0" x2="952" y2="42.0" stroke="#e5e7eb"/>
<text x="84" y="46.0" text-anchor="end" font-size="10" fill="#64748b">0.0449</text>
<polyline points="92.0,44.3 187.6,70.2 283.1,129.9 378.7,113.5 474.2,138.2 569.8,42.0 665.3,137.8 760.9,144.0 856.4,140.6 952.0,144.0" fill="none" stroke="#dc2626" stroke-width="2"/>
<text x="952" y="22" text-anchor="end" font-size="11" fill="#64748b">min=0 max=0.04486 last=0</text>
</g>
<g transform="translate(0,2148)">
<text x="92" y="22" font-size="13" font-weight="700">actor/pg_loss</text>
<rect x="92" y="42" width="860" height="102" fill="#fafafa" stroke="#e2e8f0"/>
<line x1="92.0" y1="42" x2="92.0" y2="144" stroke="#e5e7eb"/>
<text x="92.0" y="162" text-anchor="middle" font-size="10" fill="#64748b">1</text>
<line x1="307.0" y1="42" x2="307.0" y2="144" stroke="#e5e7eb"/>
<text x="307.0" y="162" text-anchor="middle" font-size="10" fill="#64748b">3.25</text>
<line x1="522.0" y1="42" x2="522.0" y2="144" stroke="#e5e7eb"/>
<text x="522.0" y="162" text-anchor="middle" font-size="10" fill="#64748b">5.5</text>
<line x1="737.0" y1="42" x2="737.0" y2="144" stroke="#e5e7eb"/>
<text x="737.0" y="162" text-anchor="middle" font-size="10" fill="#64748b">7.75</text>
<line x1="952.0" y1="42" x2="952.0" y2="144" stroke="#e5e7eb"/>
<text x="952.0" y="162" text-anchor="middle" font-size="10" fill="#64748b">10</text>
<line x1="92" y1="144.0" x2="952" y2="144.0" stroke="#e5e7eb"/>
<text x="84" y="148.0" text-anchor="end" font-size="10" fill="#64748b">0</text>
<line x1="92" y1="110.0" x2="952" y2="110.0" stroke="#e5e7eb"/>
<text x="84" y="114.0" text-anchor="end" font-size="10" fill="#64748b">0.015</text>
<line x1="92" y1="76.0" x2="952" y2="76.0" stroke="#e5e7eb"/>
<text x="84" y="80.0" text-anchor="end" font-size="10" fill="#64748b">0.0299</text>
<line x1="92" y1="42.0" x2="952" y2="42.0" stroke="#e5e7eb"/>
<text x="84" y="46.0" text-anchor="end" font-size="10" fill="#64748b">0.0449</text>
<polyline points="92.0,44.3 187.6,70.2 283.1,129.9 378.7,113.5 474.2,138.2 569.8,42.0 665.3,137.8 760.9,144.0 856.4,140.6 952.0,144.0" fill="none" stroke="#9333ea" stroke-width="2"/>
<text x="952" y="22" text-anchor="end" font-size="11" fill="#64748b">min=0 max=0.04486 last=0</text>
</g>
<g transform="translate(0,2338)">
<text x="92" y="22" font-size="13" font-weight="700">actor/entropy</text>
<rect x="92" y="42" width="860" height="102" fill="#fafafa" stroke="#e2e8f0"/>
<line x1="92.0" y1="42" x2="92.0" y2="144" stroke="#e5e7eb"/>
<text x="92.0" y="162" text-anchor="middle" font-size="10" fill="#64748b">1</text>
<line x1="307.0" y1="42" x2="307.0" y2="144" stroke="#e5e7eb"/>
<text x="307.0" y="162" text-anchor="middle" font-size="10" fill="#64748b">3.25</text>
<line x1="522.0" y1="42" x2="522.0" y2="144" stroke="#e5e7eb"/>
<text x="522.0" y="162" text-anchor="middle" font-size="10" fill="#64748b">5.5</text>
<line x1="737.0" y1="42" x2="737.0" y2="144" stroke="#e5e7eb"/>
<text x="737.0" y="162" text-anchor="middle" font-size="10" fill="#64748b">7.75</text>
<line x1="952.0" y1="42" x2="952.0" y2="144" stroke="#e5e7eb"/>
<text x="952.0" y="162" text-anchor="middle" font-size="10" fill="#64748b">10</text>
<line x1="92" y1="144.0" x2="952" y2="144.0" stroke="#e5e7eb"/>
<text x="84" y="148.0" text-anchor="end" font-size="10" fill="#64748b">0.218</text>
<line x1="92" y1="110.0" x2="952" y2="110.0" stroke="#e5e7eb"/>
<text x="84" y="114.0" text-anchor="end" font-size="10" fill="#64748b">0.255</text>
<line x1="92" y1="76.0" x2="952" y2="76.0" stroke="#e5e7eb"/>
<text x="84" y="80.0" text-anchor="end" font-size="10" fill="#64748b">0.291</text>
<line x1="92" y1="42.0" x2="952" y2="42.0" stroke="#e5e7eb"/>
<text x="84" y="46.0" text-anchor="end" font-size="10" fill="#64748b">0.328</text>
<polyline points="92.0,91.9 187.6,104.5 283.1,136.5 378.7,138.9 474.2,136.1 569.8,42.0 665.3,92.7 760.9,136.6 856.4,110.2 952.0,144.0" fill="none" stroke="#ea580c" stroke-width="2"/>
<text x="952" y="22" text-anchor="end" font-size="11" fill="#64748b">min=0.2181 max=0.3277 last=0.2181</text>
</g>
<g transform="translate(0,2528)">
<text x="92" y="22" font-size="13" font-weight="700">actor/ppo_kl</text>
<rect x="92" y="42" width="860" height="102" fill="#fafafa" stroke="#e2e8f0"/>
<line x1="92.0" y1="42" x2="92.0" y2="144" stroke="#e5e7eb"/>
<text x="92.0" y="162" text-anchor="middle" font-size="10" fill="#64748b">1</text>
<line x1="307.0" y1="42" x2="307.0" y2="144" stroke="#e5e7eb"/>
<text x="307.0" y="162" text-anchor="middle" font-size="10" fill="#64748b">3.25</text>
<line x1="522.0" y1="42" x2="522.0" y2="144" stroke="#e5e7eb"/>
<text x="522.0" y="162" text-anchor="middle" font-size="10" fill="#64748b">5.5</text>
<line x1="737.0" y1="42" x2="737.0" y2="144" stroke="#e5e7eb"/>
<text x="737.0" y="162" text-anchor="middle" font-size="10" fill="#64748b">7.75</text>
<line x1="952.0" y1="42" x2="952.0" y2="144" stroke="#e5e7eb"/>
<text x="952.0" y="162" text-anchor="middle" font-size="10" fill="#64748b">10</text>
<line x1="92" y1="144.0" x2="952" y2="144.0" stroke="#e5e7eb"/>
<text x="84" y="148.0" text-anchor="end" font-size="10" fill="#64748b">-0.5</text>
<line x1="92" y1="110.0" x2="952" y2="110.0" stroke="#e5e7eb"/>
<text x="84" y="114.0" text-anchor="end" font-size="10" fill="#64748b">-0.167</text>
<line x1="92" y1="76.0" x2="952" y2="76.0" stroke="#e5e7eb"/>
<text x="84" y="80.0" text-anchor="end" font-size="10" fill="#64748b">0.167</text>
<line x1="92" y1="42.0" x2="952" y2="42.0" stroke="#e5e7eb"/>
<text x="84" y="46.0" text-anchor="end" font-size="10" fill="#64748b">0.5</text>
<polyline points="92.0,93.0 187.6,93.0 283.1,93.0 378.7,93.0 474.2,93.0 569.8,93.0 665.3,93.0 760.9,93.0 856.4,93.0 952.0,93.0" fill="none" stroke="#0891b2" stroke-width="2"/>
<text x="952" y="22" text-anchor="end" font-size="11" fill="#64748b">min=-0.5 max=0.5 last=0</text>
</g>
<g transform="translate(0,2718)">
<text x="92" y="22" font-size="13" font-weight="700">actor/pg_clipfrac</text>
<rect x="92" y="42" width="860" height="102" fill="#fafafa" stroke="#e2e8f0"/>
<line x1="92.0" y1="42" x2="92.0" y2="144" stroke="#e5e7eb"/>
<text x="92.0" y="162" text-anchor="middle" font-size="10" fill="#64748b">1</text>
<line x1="307.0" y1="42" x2="307.0" y2="144" stroke="#e5e7eb"/>
<text x="307.0" y="162" text-anchor="middle" font-size="10" fill="#64748b">3.25</text>
<line x1="522.0" y1="42" x2="522.0" y2="144" stroke="#e5e7eb"/>
<text x="522.0" y="162" text-anchor="middle" font-size="10" fill="#64748b">5.5</text>
<line x1="737.0" y1="42" x2="737.0" y2="144" stroke="#e5e7eb"/>
<text x="737.0" y="162" text-anchor="middle" font-size="10" fill="#64748b">7.75</text>
<line x1="952.0" y1="42" x2="952.0" y2="144" stroke="#e5e7eb"/>
<text x="952.0" y="162" text-anchor="middle" font-size="10" fill="#64748b">10</text>
<line x1="92" y1="144.0" x2="952" y2="144.0" stroke="#e5e7eb"/>
<text x="84" y="148.0" text-anchor="end" font-size="10" fill="#64748b">-0.5</text>
<line x1="92" y1="110.0" x2="952" y2="110.0" stroke="#e5e7eb"/>
<text x="84" y="114.0" text-anchor="end" font-size="10" fill="#64748b">-0.167</text>
<line x1="92" y1="76.0" x2="952" y2="76.0" stroke="#e5e7eb"/>
<text x="84" y="80.0" text-anchor="end" font-size="10" fill="#64748b">0.167</text>
<line x1="92" y1="42.0" x2="952" y2="42.0" stroke="#e5e7eb"/>
<text x="84" y="46.0" text-anchor="end" font-size="10" fill="#64748b">0.5</text>
<polyline points="92.0,93.0 187.6,93.0 283.1,93.0 378.7,93.0 474.2,93.0 569.8,93.0 665.3,93.0 760.9,93.0 856.4,93.0 952.0,93.0" fill="none" stroke="#4f46e5" stroke-width="2"/>
<text x="952" y="22" text-anchor="end" font-size="11" fill="#64748b">min=-0.5 max=0.5 last=0</text>
</g>
<g transform="translate(0,2908)">
<text x="92" y="22" font-size="13" font-weight="700">actor/pg_clipfrac_lower</text>
<rect x="92" y="42" width="860" height="102" fill="#fafafa" stroke="#e2e8f0"/>
<line x1="92.0" y1="42" x2="92.0" y2="144" stroke="#e5e7eb"/>
<text x="92.0" y="162" text-anchor="middle" font-size="10" fill="#64748b">1</text>
<line x1="307.0" y1="42" x2="307.0" y2="144" stroke="#e5e7eb"/>
<text x="307.0" y="162" text-anchor="middle" font-size="10" fill="#64748b">3.25</text>
<line x1="522.0" y1="42" x2="522.0" y2="144" stroke="#e5e7eb"/>
<text x="522.0" y="162" text-anchor="middle" font-size="10" fill="#64748b">5.5</text>
<line x1="737.0" y1="42" x2="737.0" y2="144" stroke="#e5e7eb"/>
<text x="737.0" y="162" text-anchor="middle" font-size="10" fill="#64748b">7.75</text>
<line x1="952.0" y1="42" x2="952.0" y2="144" stroke="#e5e7eb"/>
<text x="952.0" y="162" text-anchor="middle" font-size="10" fill="#64748b">10</text>
<line x1="92" y1="144.0" x2="952" y2="144.0" stroke="#e5e7eb"/>
<text x="84" y="148.0" text-anchor="end" font-size="10" fill="#64748b">-0.5</text>
<line x1="92" y1="110.0" x2="952" y2="110.0" stroke="#e5e7eb"/>
<text x="84" y="114.0" text-anchor="end" font-size="10" fill="#64748b">-0.167</text>
<line x1="92" y1="76.0" x2="952" y2="76.0" stroke="#e5e7eb"/>
<text x="84" y="80.0" text-anchor="end" font-size="10" fill="#64748b">0.167</text>
<line x1="92" y1="42.0" x2="952" y2="42.0" stroke="#e5e7eb"/>
<text x="84" y="46.0" text-anchor="end" font-size="10" fill="#64748b">0.5</text>
<polyline points="92.0,93.0 187.6,93.0 283.1,93.0 378.7,93.0 474.2,93.0 569.8,93.0 665.3,93.0 760.9,93.0 856.4,93.0 952.0,93.0" fill="none" stroke="#be123c" stroke-width="2"/>
<text x="952" y="22" text-anchor="end" font-size="11" fill="#64748b">min=-0.5 max=0.5 last=0</text>
</g>
<g transform="translate(0,3098)">
<text x="92" y="22" font-size="13" font-weight="700">response_length/clip_ratio</text>
<rect x="92" y="42" width="860" height="102" fill="#fafafa" stroke="#e2e8f0"/>
<line x1="92.0" y1="42" x2="92.0" y2="144" stroke="#e5e7eb"/>
<text x="92.0" y="162" text-anchor="middle" font-size="10" fill="#64748b">1</text>
<line x1="307.0" y1="42" x2="307.0" y2="144" stroke="#e5e7eb"/>
<text x="307.0" y="162" text-anchor="middle" font-size="10" fill="#64748b">3.25</text>
<line x1="522.0" y1="42" x2="522.0" y2="144" stroke="#e5e7eb"/>
<text x="522.0" y="162" text-anchor="middle" font-size="10" fill="#64748b">5.5</text>
<line x1="737.0" y1="42" x2="737.0" y2="144" stroke="#e5e7eb"/>
<text x="737.0" y="162" text-anchor="middle" font-size="10" fill="#64748b">7.75</text>
<line x1="952.0" y1="42" x2="952.0" y2="144" stroke="#e5e7eb"/>
<text x="952.0" y="162" text-anchor="middle" font-size="10" fill="#64748b">10</text>
<line x1="92" y1="144.0" x2="952" y2="144.0" stroke="#e5e7eb"/>
<text x="84" y="148.0" text-anchor="end" font-size="10" fill="#64748b">0</text>
<line x1="92" y1="110.0" x2="952" y2="110.0" stroke="#e5e7eb"/>
<text x="84" y="114.0" text-anchor="end" font-size="10" fill="#64748b">0.229</text>
<line x1="92" y1="76.0" x2="952" y2="76.0" stroke="#e5e7eb"/>
<text x="84" y="80.0" text-anchor="end" font-size="10" fill="#64748b">0.458</text>
<line x1="92" y1="42.0" x2="952" y2="42.0" stroke="#e5e7eb"/>
<text x="84" y="46.0" text-anchor="end" font-size="10" fill="#64748b">0.688</text>
<polyline points="92.0,97.6 187.6,106.9 283.1,42.0 378.7,106.9 474.2,79.1 569.8,97.6 665.3,60.5 760.9,144.0 856.4,97.6 952.0,88.4" fill="none" stroke="#2563eb" stroke-width="2"/>
<text x="952" y="22" text-anchor="end" font-size="11" fill="#64748b">min=0 max=0.6875 last=0.375</text>
</g>
<g transform="translate(0,3288)">
<text x="92" y="22" font-size="13" font-weight="700">response_length/max</text>
<rect x="92" y="42" width="860" height="102" fill="#fafafa" stroke="#e2e8f0"/>
<line x1="92.0" y1="42" x2="92.0" y2="144" stroke="#e5e7eb"/>
<text x="92.0" y="162" text-anchor="middle" font-size="10" fill="#64748b">1</text>
<line x1="307.0" y1="42" x2="307.0" y2="144" stroke="#e5e7eb"/>
<text x="307.0" y="162" text-anchor="middle" font-size="10" fill="#64748b">3.25</text>
<line x1="522.0" y1="42" x2="522.0" y2="144" stroke="#e5e7eb"/>
<text x="522.0" y="162" text-anchor="middle" font-size="10" fill="#64748b">5.5</text>
<line x1="737.0" y1="42" x2="737.0" y2="144" stroke="#e5e7eb"/>
<text x="737.0" y="162" text-anchor="middle" font-size="10" fill="#64748b">7.75</text>
<line x1="952.0" y1="42" x2="952.0" y2="144" stroke="#e5e7eb"/>
<text x="952.0" y="162" text-anchor="middle" font-size="10" fill="#64748b">10</text>
<line x1="92" y1="144.0" x2="952" y2="144.0" stroke="#e5e7eb"/>
<text x="84" y="148.0" text-anchor="end" font-size="10" fill="#64748b">981</text>
<line x1="92" y1="110.0" x2="952" y2="110.0" stroke="#e5e7eb"/>
<text x="84" y="114.0" text-anchor="end" font-size="10" fill="#64748b">1337</text>
<line x1="92" y1="76.0" x2="952" y2="76.0" stroke="#e5e7eb"/>
<text x="84" y="80.0" text-anchor="end" font-size="10" fill="#64748b">1692</text>
<line x1="92" y1="42.0" x2="952" y2="42.0" stroke="#e5e7eb"/>
<text x="84" y="46.0" text-anchor="end" font-size="10" fill="#64748b">2048</text>
<polyline points="92.0,42.0 187.6,42.0 283.1,42.0 378.7,42.0 474.2,42.0 569.8,42.0 665.3,42.0 760.9,144.0 856.4,42.0 952.0,42.0" fill="none" stroke="#16a34a" stroke-width="2"/>
<text x="952" y="22" text-anchor="end" font-size="11" fill="#64748b">min=981 max=2048 last=2048</text>
</g>
</svg>