<svg xmlns="http://www.w3.org/2000/svg" width="980" height="3478" font-family="Arial, sans-serif">
<rect width="100%" height="100%" fill="white"/>
<text x="24" y="28" font-size="18" font-weight="700">experiments/qwen3_8b_grpo_model_judge_obs10/metrics.csv</text>
<text x="24" y="48" font-size="12" fill="#64748b">rows=10 keys=18</text>
<g transform="translate(0,58)">
<text x="92" y="22" font-size="13" font-weight="700">critic/score/mean</text>
<rect x="92" y="42" width="860" height="102" fill="#fafafa" stroke="#e2e8f0"/>
<line x1="92.0" y1="42" x2="92.0" y2="144" stroke="#e5e7eb"/>
<text x="92.0" y="162" text-anchor="middle" font-size="10" fill="#64748b">1</text>
<line x1="307.0" y1="42" x2="307.0" y2="144" stroke="#e5e7eb"/>
<text x="307.0" y="162" text-anchor="middle" font-size="10" fill="#64748b">3.25</text>
<line x1="522.0" y1="42" x2="522.0" y2="144" stroke="#e5e7eb"/>
<text x="522.0" y="162" text-anchor="middle" font-size="10" fill="#64748b">5.5</text>
<line x1="737.0" y1="42" x2="737.0" y2="144" stroke="#e5e7eb"/>
<text x="737.0" y="162" text-anchor="middle" font-size="10" fill="#64748b">7.75</text>
<line x1="952.0" y1="42" x2="952.0" y2="144" stroke="#e5e7eb"/>
<text x="952.0" y="162" text-anchor="middle" font-size="10" fill="#64748b">10</text>
<line x1="92" y1="144.0" x2="952" y2="144.0" stroke="#e5e7eb"/>
<text x="84" y="148.0" text-anchor="end" font-size="10" fill="#64748b">0.393</text>
<line x1="92" y1="110.0" x2="952" y2="110.0" stroke="#e5e7eb"/>
<text x="84" y="114.0" text-anchor="end" font-size="10" fill="#64748b">0.492</text>
<line x1="92" y1="76.0" x2="952" y2="76.0" stroke="#e5e7eb"/>
<text x="84" y="80.0" text-anchor="end" font-size="10" fill="#64748b">0.591</text>
<line x1="92" y1="42.0" x2="952" y2="42.0" stroke="#e5e7eb"/>
<text x="84" y="46.0" text-anchor="end" font-size="10" fill="#64748b">0.69</text>
<polyline points="92.0,144.0 187.6,83.8 283.1,101.1 378.7,71.9 474.2,42.0 569.8,117.2 665.3,80.7 760.9,62.8 856.4,68.8 952.0,124.4" fill="none" stroke="#2563eb" stroke-width="2"/>
<text x="952" y="22" text-anchor="end" font-size="11" fill="#64748b">min=0.3931 max=0.6903 last=0.4503</text>
</g>
<g transform="translate(0,248)">
<text x="92" y="22" font-size="13" font-weight="700">critic/rewards/mean</text>
<rect x="92" y="42" width="860" height="102" fill="#fafafa" stroke="#e2e8f0"/>
<line x1="92.0" y1="42" x2="92.0" y2="144" stroke="#e5e7eb"/>
<text x="92.0" y="162" text-anchor="middle" font-size="10" fill="#64748b">1</text>
<line x1="307.0" y1="42" x2="307.0" y2="144" stroke="#e5e7eb"/>
<text x="307.0" y="162" text-anchor="middle" font-size="10" fill="#64748b">3.25</text>
<line x1="522.0" y1="42" x2="522.0" y2="144" stroke="#e5e7eb"/>
<text x="522.0" y="162" text-anchor="middle" font-size="10" fill="#64748b">5.5</text>
<line x1="737.0" y1="42" x2="737.0" y2="144" stroke="#e5e7eb"/>
<text x="737.0" y="162" text-anchor="middle" font-size="10" fill="#64748b">7.75</text>
<line x1="952.0" y1="42" x2="952.0" y2="144" stroke="#e5e7eb"/>
<text x="952.0" y="162" text-anchor="middle" font-size="10" fill="#64748b">10</text>
<line x1="92" y1="144.0" x2="952" y2="144.0" stroke="#e5e7eb"/>
<text x="84" y="148.0" text-anchor="end" font-size="10" fill="#64748b">0.393</text>
<line x1="92" y1="110.0" x2="952" y2="110.0" stroke="#e5e7eb"/>
<text x="84" y="114.0" text-anchor="end" font-size="10" fill="#64748b">0.492</text>
<line x1="92" y1="76.0" x2="952" y2="76.0" stroke="#e5e7eb"/>
<text x="84" y="80.0" text-anchor="end" font-size="10" fill="#64748b">0.591</text>
<line x1="92" y1="42.0" x2="952" y2="42.0" stroke="#e5e7eb"/>
<text x="84" y="46.0" text-anchor="end" font-size="10" fill="#64748b">0.69</text>
<polyline points="92.0,144.0 187.6,83.8 283.1,101.1 378.7,71.9 474.2,42.0 569.8,117.2 665.3,80.7 760.9,62.8 856.4,68.8 952.0,124.4" fill="none" stroke="#16a34a" stroke-width="2"/>
<text x="952" y="22" text-anchor="end" font-size="11" fill="#64748b">min=0.3931 max=0.6903 last=0.4503</text>
</g>
<g transform="translate(0,438)">
<text x="92" y="22" font-size="13" font-weight="700">critic/rewards/max</text>
<rect x="92" y="42" width="860" height="102" fill="#fafafa" stroke="#e2e8f0"/>
<line x1="92.0" y1="42" x2="92.0" y2="144" stroke="#e5e7eb"/>
<text x="92.0" y="162" text-anchor="middle" font-size="10" fill="#64748b">1</text>
<line x1="307.0" y1="42" x2="307.0" y2="144" stroke="#e5e7eb"/>
<text x="307.0" y="162" text-anchor="middle" font-size="10" fill="#64748b">3.25</text>
<line x1="522.0" y1="42" x2="522.0" y2="144" stroke="#e5e7eb"/>
<text x="522.0" y="162" text-anchor="middle" font-size="10" fill="#64748b">5.5</text>
<line x1="737.0" y1="42" x2="737.0" y2="144" stroke="#e5e7eb"/>
<text x="737.0" y="162" text-anchor="middle" font-size="10" fill="#64748b">7.75</text>
<line x1="952.0" y1="42" x2="952.0" y2="144" stroke="#e5e7eb"/>
<text x="952.0" y="162" text-anchor="middle" font-size="10" fill="#64748b">10</text>
<line x1="92" y1="144.0" x2="952" y2="144.0" stroke="#e5e7eb"/>
<text x="84" y="148.0" text-anchor="end" font-size="10" fill="#64748b">0.95</text>
<line x1="92" y1="110.0" x2="952" y2="110.0" stroke="#e5e7eb"/>
<text x="84" y="114.0" text-anchor="end" font-size="10" fill="#64748b">0.967</text>
<line x1="92" y1="76.0" x2="952" y2="76.0" stroke="#e5e7eb"/>
<text x="84" y="80.0" text-anchor="end" font-size="10" fill="#64748b">0.983</text>
<line x1="92" y1="42.0" x2="952" y2="42.0" stroke="#e5e7eb"/>
<text x="84" y="46.0" text-anchor="end" font-size="10" fill="#64748b">1</text>
<polyline points="92.0,42.0 187.6,82.8 283.1,42.0 378.7,82.8 474.2,144.0 569.8,144.0 665.3,144.0 760.9,144.0 856.4,144.0 952.0,42.0" fill="none" stroke="#dc2626" stroke-width="2"/>
<text x="952" y="22" text-anchor="end" font-size="11" fill="#64748b">min=0.95 max=1 last=1</text>
</g>
<g transform="translate(0,628)">
<text x="92" y="22" font-size="13" font-weight="700">critic/rewards/min</text>
<rect x="92" y="42" width="860" height="102" fill="#fafafa" stroke="#e2e8f0"/>
<line x1="92.0" y1="42" x2="92.0" y2="144" stroke="#e5e7eb"/>
<text x="92.0" y="162" text-anchor="middle" font-size="10" fill="#64748b">1</text>
<line x1="307.0" y1="42" x2="307.0" y2="144" stroke="#e5e7eb"/>
<text x="307.0" y="162" text-anchor="middle" font-size="10" fill="#64748b">3.25</text>
<line x1="522.0" y1="42" x2="522.0" y2="144" stroke="#e5e7eb"/>
<text x="522.0" y="162" text-anchor="middle" font-size="10" fill="#64748b">5.5</text>
<line x1="737.0" y1="42" x2="737.0" y2="144" stroke="#e5e7eb"/>
<text x="737.0" y="162" text-anchor="middle" font-size="10" fill="#64748b">7.75</text>
<line x1="952.0" y1="42" x2="952.0" y2="144" stroke="#e5e7eb"/>
<text x="952.0" y="162" text-anchor="middle" font-size="10" fill="#64748b">10</text>
<line x1="92" y1="144.0" x2="952" y2="144.0" stroke="#e5e7eb"/>
<text x="84" y="148.0" text-anchor="end" font-size="10" fill="#64748b">0</text>
<line x1="92" y1="110.0" x2="952" y2="110.0" stroke="#e5e7eb"/>
<text x="84" y="114.0" text-anchor="end" font-size="10" fill="#64748b">0.0167</text>
<line x1="92" y1="76.0" x2="952" y2="76.0" stroke="#e5e7eb"/>
<text x="84" y="80.0" text-anchor="end" font-size="10" fill="#64748b">0.0333</text>
<line x1="92" y1="42.0" x2="952" y2="42.0" stroke="#e5e7eb"/>
<text x="84" y="46.0" text-anchor="end" font-size="10" fill="#64748b">0.05</text>
<polyline points="92.0,42.0 187.6,42.0 283.1,42.0 378.7,103.2 474.2,42.0 569.8,144.0 665.3,42.0 760.9,42.0 856.4,42.0 952.0,42.0" fill="none" stroke="#9333ea" stroke-width="2"/>
<text x="952" y="22" text-anchor="end" font-size="11" fill="#64748b">min=0 max=0.05 last=0.05</text>
</g>
<g transform="translate(0,818)">
<text x="92" y="22" font-size="13" font-weight="700">critic/advantages/max</text>
<rect x="92" y="42" width="860" height="102" fill="#fafafa" stroke="#e2e8f0"/>
<line x1="92.0" y1="42" x2="92.0" y2="144" stroke="#e5e7eb"/>
<text x="92.0" y="162" text-anchor="middle" font-size="10" fill="#64748b">1</text>
<line x1="307.0" y1="42" x2="307.0" y2="144" stroke="#e5e7eb"/>
<text x="307.0" y="162" text-anchor="middle" font-size="10" fill="#64748b">3.25</text>
<line x1="522.0" y1="42" x2="522.0" y2="144" stroke="#e5e7eb"/>
<text x="522.0" y="162" text-anchor="middle" font-size="10" fill="#64748b">5.5</text>
<line x1="737.0" y1="42" x2="737.0" y2="144" stroke="#e5e7eb"/>
<text x="737.0" y="162" text-anchor="middle" font-size="10" fill="#64748b">7.75</text>
<line x1="952.0" y1="42" x2="952.0" y2="144" stroke="#e5e7eb"/>
<text x="952.0" y="162" text-anchor="middle" font-size="10" fill="#64748b">10</text>
<line x1="92" y1="144.0" x2="952" y2="144.0" stroke="#e5e7eb"/>
<text x="84" y="148.0" text-anchor="end" font-size="10" fill="#64748b">0.707</text>
<line x1="92" y1="110.0" x2="952" y2="110.0" stroke="#e5e7eb"/>
<text x="84" y="114.0" text-anchor="end" font-size="10" fill="#64748b">0.707</text>
<line x1="92" y1="76.0" x2="952" y2="76.0" stroke="#e5e7eb"/>
<text x="84" y="80.0" text-anchor="end" font-size="10" fill="#64748b">0.707</text>
<line x1="92" y1="42.0" x2="952" y2="42.0" stroke="#e5e7eb"/>
<text x="84" y="46.0" text-anchor="end" font-size="10" fill="#64748b">0.707</text>
<polyline points="92.0,61.7 187.6,58.1 283.1,58.1 378.7,144.0 474.2,58.1 569.8,43.8 665.3,42.0 760.9,83.2 856.4,108.2 952.0,56.3" fill="none" stroke="#ea580c" stroke-width="2"/>
<text x="952" y="22" text-anchor="end" font-size="11" fill="#64748b">min=0.7071 max=0.7071 last=0.7071</text>
</g>
<g transform="translate(0,1008)">
<text x="92" y="22" font-size="13" font-weight="700">critic/advantages/mean</text>
<rect x="92" y="42" width="860" height="102" fill="#fafafa" stroke="#e2e8f0"/>
<line x1="92.0" y1="42" x2="92.0" y2="144" stroke="#e5e7eb"/>
<text x="92.0" y="162" text-anchor="middle" font-size="10" fill="#64748b">1</text>
<line x1="307.0" y1="42" x2="307.0" y2="144" stroke="#e5e7eb"/>
<text x="307.0" y="162" text-anchor="middle" font-size="10" fill="#64748b">3.25</text>
<line x1="522.0" y1="42" x2="522.0" y2="144" stroke="#e5e7eb"/>
<text x="522.0" y="162" text-anchor="middle" font-size="10" fill="#64748b">5.5</text>
<line x1="737.0" y1="42" x2="737.0" y2="144" stroke="#e5e7eb"/>
<text x="737.0" y="162" text-anchor="middle" font-size="10" fill="#64748b">7.75</text>
<line x1="952.0" y1="42" x2="952.0" y2="144" stroke="#e5e7eb"/>
<text x="952.0" y="162" text-anchor="middle" font-size="10" fill="#64748b">10</text>
<line x1="92" y1="144.0" x2="952" y2="144.0" stroke="#e5e7eb"/>
<text x="84" y="148.0" text-anchor="end" font-size="10" fill="#64748b">-0.00338</text>
<line x1="92" y1="110.0" x2="952" y2="110.0" stroke="#e5e7eb"/>
<text x="84" y="114.0" text-anchor="end" font-size="10" fill="#64748b">-0.00225</text>
<line x1="92" y1="76.0" x2="952" y2="76.0" stroke="#e5e7eb"/>
<text x="84" y="80.0" text-anchor="end" font-size="10" fill="#64748b">-0.00113</text>
<line x1="92" y1="42.0" x2="952" y2="42.0" stroke="#e5e7eb"/>
<text x="84" y="46.0" text-anchor="end" font-size="10" fill="#64748b">2.26e-07</text>
<polyline points="92.0,73.3 187.6,42.0 283.1,118.6 378.7,42.0 474.2,42.0 569.8,42.0 665.3,42.0 760.9,42.0 856.4,42.0 952.0,144.0" fill="none" stroke="#0891b2" stroke-width="2"/>
<text x="952" y="22" text-anchor="end" font-size="11" fill="#64748b">min=-0.003382 max=2.26e-07 last=-0.003382</text>
</g>
<g transform="translate(0,1198)">
<text x="92" y="22" font-size="13" font-weight="700">critic/advantages/min</text>
<rect x="92" y="42" width="860" height="102" fill="#fafafa" stroke="#e2e8f0"/>
<line x1="92.0" y1="42" x2="92.0" y2="144" stroke="#e5e7eb"/>
<text x="92.0" y="162" text-anchor="middle" font-size="10" fill="#64748b">1</text>
<line x1="307.0" y1="42" x2="307.0" y2="144" stroke="#e5e7eb"/>
<text x="307.0" y="162" text-anchor="middle" font-size="10" fill="#64748b">3.25</text>
<line x1="522.0" y1="42" x2="522.0" y2="144" stroke="#e5e7eb"/>
<text x="522.0" y="162" text-anchor="middle" font-size="10" fill="#64748b">5.5</text>
<line x1="737.0" y1="42" x2="737.0" y2="144" stroke="#e5e7eb"/>
<text x="737.0" y="162" text-anchor="middle" font-size="10" fill="#64748b">7.75</text>
<line x1="952.0" y1="42" x2="952.0" y2="144" stroke="#e5e7eb"/>
<text x="952.0" y="162" text-anchor="middle" font-size="10" fill="#64748b">10</text>
<line x1="92" y1="144.0" x2="952" y2="144.0" stroke="#e5e7eb"/>
<text x="84" y="148.0" text-anchor="end" font-size="10" fill="#64748b">-0.707</text>
<line x1="92" y1="110.0" x2="952" y2="110.0" stroke="#e5e7eb"/>
<text x="84" y="114.0" text-anchor="end" font-size="10" fill="#64748b">-0.707</text>
<line x1="92" y1="76.0" x2="952" y2="76.0" stroke="#e5e7eb"/>
<text x="84" y="80.0" text-anchor="end" font-size="10" fill="#64748b">-0.707</text>
<line x1="92" y1="42.0" x2="952" y2="42.0" stroke="#e5e7eb"/>
<text x="84" y="46.0" text-anchor="end" font-size="10" fill="#64748b">-0.707</text>
<polyline points="92.0,122.0 187.6,126.0 283.1,126.0 378.7,42.0 474.2,124.0 569.8,142.0 665.3,144.0 760.9,98.0 856.4,72.0 952.0,132.0" fill="none" stroke="#4f46e5" stroke-width="2"/>
<text x="952" y="22" text-anchor="end" font-size="11" fill="#64748b">min=-0.7071 max=-0.7071 last=-0.7071</text>
</g>
<g transform="translate(0,1388)">
<text x="92" y="22" font-size="13" font-weight="700">actor/grad_norm</text>
<rect x="92" y="42" width="860" height="102" fill="#fafafa" stroke="#e2e8f0"/>
<line x1="92.0" y1="42" x2="92.0" y2="144" stroke="#e5e7eb"/>
<text x="92.0" y="162" text-anchor="middle" font-size="10" fill="#64748b">1</text>
<line x1="307.0" y1="42" x2="307.0" y2="144" stroke="#e5e7eb"/>
<text x="307.0" y="162" text-anchor="middle" font-size="10" fill="#64748b">3.25</text>
<line x1="522.0" y1="42" x2="522.0" y2="144" stroke="#e5e7eb"/>
<text x="522.0" y="162" text-anchor="middle" font-size="10" fill="#64748b">5.5</text>
<line x1="737.0" y1="42" x2="737.0" y2="144" stroke="#e5e7eb"/>
<text x="737.0" y="162" text-anchor="middle" font-size="10" fill="#64748b">7.75</text>
<line x1="952.0" y1="42" x2="952.0" y2="144" stroke="#e5e7eb"/>
<text x="952.0" y="162" text-anchor="middle" font-size="10" fill="#64748b">10</text>
<line x1="92" y1="144.0" x2="952" y2="144.0" stroke="#e5e7eb"/>
<text x="84" y="148.0" text-anchor="end" font-size="10" fill="#64748b">1.08</text>
<line x1="92" y1="110.0" x2="952" y2="110.0" stroke="#e5e7eb"/>
<text x="84" y="114.0" text-anchor="end" font-size="10" fill="#64748b">1.14</text>
<line x1="92" y1="76.0" x2="952" y2="76.0" stroke="#e5e7eb"/>
<text x="84" y="80.0" text-anchor="end" font-size="10" fill="#64748b">1.21</text>
<line x1="92" y1="42.0" x2="952" y2="42.0" stroke="#e5e7eb"/>
<text x="84" y="46.0" text-anchor="end" font-size="10" fill="#64748b">1.28</text>
<polyline points="92.0,72.0 187.6,127.0 283.1,42.0 378.7,141.0 474.2,122.7 569.8,144.0 665.3,101.1 760.9,67.7 856.4,141.9 952.0,68.6" fill="none" stroke="#be123c" stroke-width="2"/>
<text x="952" y="22" text-anchor="end" font-size="11" fill="#64748b">min=1.076 max=1.275 last=1.223</text>
</g>
<g transform="translate(0,1578)">
<text x="92" y="22" font-size="13" font-weight="700">actor/loss</text>
<rect x="92" y="42" width="860" height="102" fill="#fafafa" stroke="#e2e8f0"/>
<line x1="92.0" y1="42" x2="92.0" y2="144" stroke="#e5e7eb"/>
<text x="92.0" y="162" text-anchor="middle" font-size="10" fill="#64748b">1</text>
<line x1="307.0" y1="42" x2="307.0" y2="144" stroke="#e5e7eb"/>
<text x="307.0" y="162" text-anchor="middle" font-size="10" fill="#64748b">3.25</text>
<line x1="522.0" y1="42" x2="522.0" y2="144" stroke="#e5e7eb"/>
<text x="522.0" y="162" text-anchor="middle" font-size="10" fill="#64748b">5.5</text>
<line x1="737.0" y1="42" x2="737.0" y2="144" stroke="#e5e7eb"/>
<text x="737.0" y="162" text-anchor="middle" font-size="10" fill="#64748b">7.75</text>
<line x1="952.0" y1="42" x2="952.0" y2="144" stroke="#e5e7eb"/>
<text x="952.0" y="162" text-anchor="middle" font-size="10" fill="#64748b">10</text>
<line x1="92" y1="144.0" x2="952" y2="144.0" stroke="#e5e7eb"/>
<text x="84" y="148.0" text-anchor="end" font-size="10" fill="#64748b">2.77e-05</text>
<line x1="92" y1="110.0" x2="952" y2="110.0" stroke="#e5e7eb"/>
<text x="84" y="114.0" text-anchor="end" font-size="10" fill="#64748b">0.00127</text>
<line x1="92" y1="76.0" x2="952" y2="76.0" stroke="#e5e7eb"/>
<text x="84" y="80.0" text-anchor="end" font-size="10" fill="#64748b">0.00251</text>
<line x1="92" y1="42.0" x2="952" y2="42.0" stroke="#e5e7eb"/>
<text x="84" y="46.0" text-anchor="end" font-size="10" fill="#64748b">0.00375</text>
<polyline points="92.0,116.1 187.6,143.2 283.1,70.5 378.7,141.7 474.2,140.5 569.8,140.8 665.3,142.2 760.9,141.9 856.4,144.0 952.0,42.0" fill="none" stroke="#2563eb" stroke-width="2"/>
<text x="952" y="22" text-anchor="end" font-size="11" fill="#64748b">min=2.775e-05 max=0.003746 last=0.003746</text>
</g>
<g transform="translate(0,1768)">
<text x="92" y="22" font-size="13" font-weight="700">actor/pg_loss</text>
<rect x="92" y="42" width="860" height="102" fill="#fafafa" stroke="#e2e8f0"/>
<line x1="92.0" y1="42" x2="92.0" y2="144" stroke="#e5e7eb"/>
<text x="92.0" y="162" text-anchor="middle" font-size="10" fill="#64748b">1</text>
<line x1="307.0" y1="42" x2="307.0" y2="144" stroke="#e5e7eb"/>
<text x="307.0" y="162" text-anchor="middle" font-size="10" fill="#64748b">3.25</text>
<line x1="522.0" y1="42" x2="522.0" y2="144" stroke="#e5e7eb"/>
<text x="522.0" y="162" text-anchor="middle" font-size="10" fill="#64748b">5.5</text>
<line x1="737.0" y1="42" x2="737.0" y2="144" stroke="#e5e7eb"/>
<text x="737.0" y="162" text-anchor="middle" font-size="10" fill="#64748b">7.75</text>
<line x1="952.0" y1="42" x2="952.0" y2="144" stroke="#e5e7eb"/>
<text x="952.0" y="162" text-anchor="middle" font-size="10" fill="#64748b">10</text>
<line x1="92" y1="144.0" x2="952" y2="144.0" stroke="#e5e7eb"/>
<text x="84" y="148.0" text-anchor="end" font-size="10" fill="#64748b">2.77e-05</text>
<line x1="92" y1="110.0" x2="952" y2="110.0" stroke="#e5e7eb"/>
<text x="84" y="114.0" text-anchor="end" font-size="10" fill="#64748b">0.00127</text>
<line x1="92" y1="76.0" x2="952" y2="76.0" stroke="#e5e7eb"/>
<text x="84" y="80.0" text-anchor="end" font-size="10" fill="#64748b">0.00251</text>
<line x1="92" y1="42.0" x2="952" y2="42.0" stroke="#e5e7eb"/>
<text x="84" y="46.0" text-anchor="end" font-size="10" fill="#64748b">0.00375</text>
<polyline points="92.0,116.1 187.6,143.2 283.1,70.5 378.7,141.7 474.2,140.5 569.8,140.8 665.3,142.2 760.9,141.9 856.4,144.0 952.0,42.0" fill="none" stroke="#16a34a" stroke-width="2"/>
<text x="952" y="22" text-anchor="end" font-size="11" fill="#64748b">min=2.775e-05 max=0.003746 last=0.003746</text>
</g>
<g transform="translate(0,1958)">
<text x="92" y="22" font-size="13" font-weight="700">actor/entropy</text>
<rect x="92" y="42" width="860" height="102" fill="#fafafa" stroke="#e2e8f0"/>
<line x1="92.0" y1="42" x2="92.0" y2="144" stroke="#e5e7eb"/>
<text x="92.0" y="162" text-anchor="middle" font-size="10" fill="#64748b">1</text>
<line x1="307.0" y1="42" x2="307.0" y2="144" stroke="#e5e7eb"/>
<text x="307.0" y="162" text-anchor="middle" font-size="10" fill="#64748b">3.25</text>
<line x1="522.0" y1="42" x2="522.0" y2="144" stroke="#e5e7eb"/>
<text x="522.0" y="162" text-anchor="middle" font-size="10" fill="#64748b">5.5</text>
<line x1="737.0" y1="42" x2="737.0" y2="144" stroke="#e5e7eb"/>
<text x="737.0" y="162" text-anchor="middle" font-size="10" fill="#64748b">7.75</text>
<line x1="952.0" y1="42" x2="952.0" y2="144" stroke="#e5e7eb"/>
<text x="952.0" y="162" text-anchor="middle" font-size="10" fill="#64748b">10</text>
<line x1="92" y1="144.0" x2="952" y2="144.0" stroke="#e5e7eb"/>
<text x="84" y="148.0" text-anchor="end" font-size="10" fill="#64748b">0.267</text>
<line x1="92" y1="110.0" x2="952" y2="110.0" stroke="#e5e7eb"/>
<text x="84" y="114.0" text-anchor="end" font-size="10" fill="#64748b">0.292</text>
<line x1="92" y1="76.0" x2="952" y2="76.0" stroke="#e5e7eb"/>
<text x="84" y="80.0" text-anchor="end" font-size="10" fill="#64748b">0.317</text>
<line x1="92" y1="42.0" x2="952" y2="42.0" stroke="#e5e7eb"/>
<text x="84" y="46.0" text-anchor="end" font-size="10" fill="#64748b">0.342</text>
<polyline points="92.0,42.0 187.6,98.9 283.1,111.5 378.7,126.8 474.2,138.6 569.8,118.4 665.3,144.0 760.9,105.1 856.4,109.0 952.0,140.8" fill="none" stroke="#dc2626" stroke-width="2"/>
<text x="952" y="22" text-anchor="end" font-size="11" fill="#64748b">min=0.2671 max=0.3417 last=0.2694</text>
</g>
<g transform="translate(0,2148)">
<text x="92" y="22" font-size="13" font-weight="700">actor/ppo_kl</text>
<rect x="92" y="42" width="860" height="102" fill="#fafafa" stroke="#e2e8f0"/>
<line x1="92.0" y1="42" x2="92.0" y2="144" stroke="#e5e7eb"/>
<text x="92.0" y="162" text-anchor="middle" font-size="10" fill="#64748b">1</text>
<line x1="307.0" y1="42" x2="307.0" y2="144" stroke="#e5e7eb"/>
<text x="307.0" y="162" text-anchor="middle" font-size="10" fill="#64748b">3.25</text>
<line x1="522.0" y1="42" x2="522.0" y2="144" stroke="#e5e7eb"/>
<text x="522.0" y="162" text-anchor="middle" font-size="10" fill="#64748b">5.5</text>
<line x1="737.0" y1="42" x2="737.0" y2="144" stroke="#e5e7eb"/>
<text x="737.0" y="162" text-anchor="middle" font-size="10" fill="#64748b">7.75</text>
<line x1="952.0" y1="42" x2="952.0" y2="144" stroke="#e5e7eb"/>
<text x="952.0" y="162" text-anchor="middle" font-size="10" fill="#64748b">10</text>
<line x1="92" y1="144.0" x2="952" y2="144.0" stroke="#e5e7eb"/>
<text x="84" y="148.0" text-anchor="end" font-size="10" fill="#64748b">-0.000295</text>
<line x1="92" y1="110.0" x2="952" y2="110.0" stroke="#e5e7eb"/>
<text x="84" y="114.0" text-anchor="end" font-size="10" fill="#64748b">-9.04e-05</text>
<line x1="92" y1="76.0" x2="952" y2="76.0" stroke="#e5e7eb"/>
<text x="84" y="80.0" text-anchor="end" font-size="10" fill="#64748b">0.000114</text>
<line x1="92" y1="42.0" x2="952" y2="42.0" stroke="#e5e7eb"/>
<text x="84" y="46.0" text-anchor="end" font-size="10" fill="#64748b">0.000318</text>
<polyline points="92.0,134.5 187.6,123.3 283.1,42.0 378.7,130.6 474.2,70.9 569.8,144.0 665.3,106.9 760.9,54.2 856.4,116.7 952.0,55.8" fill="none" stroke="#9333ea" stroke-width="2"/>
<text x="952" y="22" text-anchor="end" font-size="11" fill="#64748b">min=-0.0002948 max=0.0003183 last=0.0002356</text>
</g>
<g transform="translate(0,2338)">
<text x="92" y="22" font-size="13" font-weight="700">actor/pg_clipfrac</text>
<rect x="92" y="42" width="860" height="102" fill="#fafafa" stroke="#e2e8f0"/>
<line x1="92.0" y1="42" x2="92.0" y2="144" stroke="#e5e7eb"/>
<text x="92.0" y="162" text-anchor="middle" font-size="10" fill="#64748b">1</text>
<line x1="307.0" y1="42" x2="307.0" y2="144" stroke="#e5e7eb"/>
<text x="307.0" y="162" text-anchor="middle" font-size="10" fill="#64748b">3.25</text>
<line x1="522.0" y1="42" x2="522.0" y2="144" stroke="#e5e7eb"/>
<text x="522.0" y="162" text-anchor="middle" font-size="10" fill="#64748b">5.5</text>
<line x1="737.0" y1="42" x2="737.0" y2="144" stroke="#e5e7eb"/>
<text x="737.0" y="162" text-anchor="middle" font-size="10" fill="#64748b">7.75</text>
<line x1="952.0" y1="42" x2="952.0" y2="144" stroke="#e5e7eb"/>
<text x="952.0" y="162" text-anchor="middle" font-size="10" fill="#64748b">10</text>
<line x1="92" y1="144.0" x2="952" y2="144.0" stroke="#e5e7eb"/>
<text x="84" y="148.0" text-anchor="end" font-size="10" fill="#64748b">0.00159</text>
<line x1="92" y1="110.0" x2="952" y2="110.0" stroke="#e5e7eb"/>
<text x="84" y="114.0" text-anchor="end" font-size="10" fill="#64748b">0.00212</text>
<line x1="92" y1="76.0" x2="952" y2="76.0" stroke="#e5e7eb"/>
<text x="84" y="80.0" text-anchor="end" font-size="10" fill="#64748b">0.00264</text>
<line x1="92" y1="42.0" x2="952" y2="42.0" stroke="#e5e7eb"/>
<text x="84" y="46.0" text-anchor="end" font-size="10" fill="#64748b">0.00317</text>
<polyline points="92.0,42.0 187.6,144.0 283.1,60.3 378.7,110.0 474.2,102.2 569.8,83.8 665.3,44.6 760.9,62.9 856.4,78.6 952.0,73.4" fill="none" stroke="#ea580c" stroke-width="2"/>
<text x="952" y="22" text-anchor="end" font-size="11" fill="#64748b">min=0.001587 max=0.003174 last=0.002686</text>
</g>
<g transform="translate(0,2528)">
<text x="92" y="22" font-size="13" font-weight="700">actor/pg_clipfrac_lower</text>
<rect x="92" y="42" width="860" height="102" fill="#fafafa" stroke="#e2e8f0"/>
<line x1="92.0" y1="42" x2="92.0" y2="144" stroke="#e5e7eb"/>
<text x="92.0" y="162" text-anchor="middle" font-size="10" fill="#64748b">1</text>
<line x1="307.0" y1="42" x2="307.0" y2="144" stroke="#e5e7eb"/>
<text x="307.0" y="162" text-anchor="middle" font-size="10" fill="#64748b">3.25</text>
<line x1="522.0" y1="42" x2="522.0" y2="144" stroke="#e5e7eb"/>
<text x="522.0" y="162" text-anchor="middle" font-size="10" fill="#64748b">5.5</text>
<line x1="737.0" y1="42" x2="737.0" y2="144" stroke="#e5e7eb"/>
<text x="737.0" y="162" text-anchor="middle" font-size="10" fill="#64748b">7.75</text>
<line x1="952.0" y1="42" x2="952.0" y2="144" stroke="#e5e7eb"/>
<text x="952.0" y="162" text-anchor="middle" font-size="10" fill="#64748b">10</text>
<line x1="92" y1="144.0" x2="952" y2="144.0" stroke="#e5e7eb"/>
<text x="84" y="148.0" text-anchor="end" font-size="10" fill="#64748b">-0.5</text>
<line x1="92" y1="110.0" x2="952" y2="110.0" stroke="#e5e7eb"/>
<text x="84" y="114.0" text-anchor="end" font-size="10" fill="#64748b">-0.167</text>
<line x1="92" y1="76.0" x2="952" y2="76.0" stroke="#e5e7eb"/>
<text x="84" y="80.0" text-anchor="end" font-size="10" fill="#64748b">0.167</text>
<line x1="92" y1="42.0" x2="952" y2="42.0" stroke="#e5e7eb"/>
<text x="84" y="46.0" text-anchor="end" font-size="10" fill="#64748b">0.5</text>
<polyline points="92.0,93.0 187.6,93.0 283.1,93.0 378.7,93.0 474.2,93.0 569.8,93.0 665.3,93.0 760.9,93.0 856.4,93.0 952.0,93.0" fill="none" stroke="#0891b2" stroke-width="2"/>
<text x="952" y="22" text-anchor="end" font-size="11" fill="#64748b">min=-0.5 max=0.5 last=0</text>
</g>
<g transform="translate(0,2718)">
<text x="92" y="22" font-size="13" font-weight="700">response_length/clip_ratio</text>
<rect x="92" y="42" width="860" height="102" fill="#fafafa" stroke="#e2e8f0"/>
<line x1="92.0" y1="42" x2="92.0" y2="144" stroke="#e5e7eb"/>
<text x="92.0" y="162" text-anchor="middle" font-size="10" fill="#64748b">1</text>
<line x1="307.0" y1="42" x2="307.0" y2="144" stroke="#e5e7eb"/>
<text x="307.0" y="162" text-anchor="middle" font-size="10" fill="#64748b">3.25</text>
<line x1="522.0" y1="42" x2="522.0" y2="144" stroke="#e5e7eb"/>
<text x="522.0" y="162" text-anchor="middle" font-size="10" fill="#64748b">5.5</text>
<line x1="737.0" y1="42" x2="737.0" y2="144" stroke="#e5e7eb"/>
<text x="737.0" y="162" text-anchor="middle" font-size="10" fill="#64748b">7.75</text>
<line x1="952.0" y1="42" x2="952.0" y2="144" stroke="#e5e7eb"/>
<text x="952.0" y="162" text-anchor="middle" font-size="10" fill="#64748b">10</text>
<line x1="92" y1="144.0" x2="952" y2="144.0" stroke="#e5e7eb"/>
<text x="84" y="148.0" text-anchor="end" font-size="10" fill="#64748b">0.969</text>
<line x1="92" y1="110.0" x2="952" y2="110.0" stroke="#e5e7eb"/>
<text x="84" y="114.0" text-anchor="end" font-size="10" fill="#64748b">0.979</text>
<line x1="92" y1="76.0" x2="952" y2="76.0" stroke="#e5e7eb"/>
<text x="84" y="80.0" text-anchor="end" font-size="10" fill="#64748b">0.99</text>
<line x1="92" y1="42.0" x2="952" y2="42.0" stroke="#e5e7eb"/>
<text x="84" y="46.0" text-anchor="end" font-size="10" fill="#64748b">1</text>
<polyline points="92.0,144.0 187.6,42.0 283.1,144.0 378.7,42.0 474.2,42.0 569.8,42.0 665.3,42.0 760.9,42.0 856.4,42.0 952.0,144.0" fill="none" stroke="#4f46e5" stroke-width="2"/>
<text x="952" y="22" text-anchor="end" font-size="11" fill="#64748b">min=0.9688 max=1 last=0.9688</text>
</g>
<g transform="translate(0,2908)">
<text x="92" y="22" font-size="13" font-weight="700">response_length/max</text>
<rect x="92" y="42" width="860" height="102" fill="#fafafa" stroke="#e2e8f0"/>
<line x1="92.0" y1="42" x2="92.0" y2="144" stroke="#e5e7eb"/>
<text x="92.0" y="162" text-anchor="middle" font-size="10" fill="#64748b">1</text>
<line x1="307.0" y1="42" x2="307.0" y2="144" stroke="#e5e7eb"/>
<text x="307.0" y="162" text-anchor="middle" font-size="10" fill="#64748b">3.25</text>
<line x1="522.0" y1="42" x2="522.0" y2="144" stroke="#e5e7eb"/>
<text x="522.0" y="162" text-anchor="middle" font-size="10" fill="#64748b">5.5</text>
<line x1="737.0" y1="42" x2="737.0" y2="144" stroke="#e5e7eb"/>
<text x="737.0" y="162" text-anchor="middle" font-size="10" fill="#64748b">7.75</text>
<line x1="952.0" y1="42" x2="952.0" y2="144" stroke="#e5e7eb"/>
<text x="952.0" y="162" text-anchor="middle" font-size="10" fill="#64748b">10</text>
<line x1="92" y1="144.0" x2="952" y2="144.0" stroke="#e5e7eb"/>
<text x="84" y="148.0" text-anchor="end" font-size="10" fill="#64748b">768</text>
<line x1="92" y1="110.0" x2="952" y2="110.0" stroke="#e5e7eb"/>
<text x="84" y="114.0" text-anchor="end" font-size="10" fill="#64748b">768</text>
<line x1="92" y1="76.0" x2="952" y2="76.0" stroke="#e5e7eb"/>
<text x="84" y="80.0" text-anchor="end" font-size="10" fill="#64748b">768</text>
<line x1="92" y1="42.0" x2="952" y2="42.0" stroke="#e5e7eb"/>
<text x="84" y="46.0" text-anchor="end" font-size="10" fill="#64748b">768</text>
<polyline points="92.0,93.0 187.6,93.0 283.1,93.0 378.7,93.0 474.2,93.0 569.8,93.0 665.3,93.0 760.9,93.0 856.4,93.0 952.0,93.0" fill="none" stroke="#be123c" stroke-width="2"/>
<text x="952" y="22" text-anchor="end" font-size="11" fill="#64748b">min=767.5 max=768.5 last=768</text>
</g>
<g transform="translate(0,3098)">
<text x="92" y="22" font-size="13" font-weight="700">response_length/mean</text>
<rect x="92" y="42" width="860" height="102" fill="#fafafa" stroke="#e2e8f0"/>
<line x1="92.0" y1="42" x2="92.0" y2="144" stroke="#e5e7eb"/>
<text x="92.0" y="162" text-anchor="middle" font-size="10" fill="#64748b">1</text>
<line x1="307.0" y1="42" x2="307.0" y2="144" stroke="#e5e7eb"/>
<text x="307.0" y="162" text-anchor="middle" font-size="10" fill="#64748b">3.25</text>
<line x1="522.0" y1="42" x2="522.0" y2="144" stroke="#e5e7eb"/>
<text x="522.0" y="162" text-anchor="middle" font-size="10" fill="#64748b">5.5</text>
<line x1="737.0" y1="42" x2="737.0" y2="144" stroke="#e5e7eb"/>
<text x="737.0" y="162" text-anchor="middle" font-size="10" fill="#64748b">7.75</text>
<line x1="952.0" y1="42" x2="952.0" y2="144" stroke="#e5e7eb"/>
<text x="952.0" y="162" text-anchor="middle" font-size="10" fill="#64748b">10</text>
<line x1="92" y1="144.0" x2="952" y2="144.0" stroke="#e5e7eb"/>
<text x="84" y="148.0" text-anchor="end" font-size="10" fill="#64748b">764</text>
<line x1="92" y1="110.0" x2="952" y2="110.0" stroke="#e5e7eb"/>
<text x="84" y="114.0" text-anchor="end" font-size="10" fill="#64748b">766</text>
<line x1="92" y1="76.0" x2="952" y2="76.0" stroke="#e5e7eb"/>
<text x="84" y="80.0" text-anchor="end" font-size="10" fill="#64748b">767</text>
<line x1="92" y1="42.0" x2="952" y2="42.0" stroke="#e5e7eb"/>
<text x="84" y="46.0" text-anchor="end" font-size="10" fill="#64748b">768</text>
<polyline points="92.0,73.4 187.6,42.0 283.1,118.7 378.7,42.0 474.2,42.0 569.8,42.0 665.3,42.0 760.9,42.0 856.4,42.0 952.0,144.0" fill="none" stroke="#2563eb" stroke-width="2"/>
<text x="952" y="22" text-anchor="end" font-size="11" fill="#64748b">min=764.3 max=768 last=764.3</text>
</g>
<g transform="translate(0,3288)">
<text x="92" y="22" font-size="13" font-weight="700">response_length/min</text>
<rect x="92" y="42" width="860" height="102" fill="#fafafa" stroke="#e2e8f0"/>
<line x1="92.0" y1="42" x2="92.0" y2="144" stroke="#e5e7eb"/>
<text x="92.0" y="162" text-anchor="middle" font-size="10" fill="#64748b">1</text>
<line x1="307.0" y1="42" x2="307.0" y2="144" stroke="#e5e7eb"/>
<text x="307.0" y="162" text-anchor="middle" font-size="10" fill="#64748b">3.25</text>
<line x1="522.0" y1="42" x2="522.0" y2="144" stroke="#e5e7eb"/>
<text x="522.0" y="162" text-anchor="middle" font-size="10" fill="#64748b">5.5</text>
<line x1="737.0" y1="42" x2="737.0" y2="144" stroke="#e5e7eb"/>
<text x="737.0" y="162" text-anchor="middle" font-size="10" fill="#64748b">7.75</text>
<line x1="952.0" y1="42" x2="952.0" y2="144" stroke="#e5e7eb"/>
<text x="952.0" y="162" text-anchor="middle" font-size="10" fill="#64748b">10</text>
<line x1="92" y1="144.0" x2="952" y2="144.0" stroke="#e5e7eb"/>
<text x="84" y="148.0" text-anchor="end" font-size="10" fill="#64748b">651</text>
<line x1="92" y1="110.0" x2="952" y2="110.0" stroke="#e5e7eb"/>
<text x="84" y="114.0" text-anchor="end" font-size="10" fill="#64748b">690</text>
<line x1="92" y1="76.0" x2="952" y2="76.0" stroke="#e5e7eb"/>
<text x="84" y="80.0" text-anchor="end" font-size="10" fill="#64748b">729</text>
<line x1="92" y1="42.0" x2="952" y2="42.0" stroke="#e5e7eb"/>
<text x="84" y="46.0" text-anchor="end" font-size="10" fill="#64748b">768</text>
<polyline points="92.0,73.4 187.6,42.0 283.1,118.7 378.7,42.0 474.2,42.0 569.8,42.0 665.3,42.0 760.9,42.0 856.4,42.0 952.0,144.0" fill="none" stroke="#16a34a" stroke-width="2"/>
<text x="952" y="22" text-anchor="end" font-size="11" fill="#64748b">min=651 max=768 last=651</text>
</g>
</svg>