<svg xmlns="http://www.w3.org/2000/svg" width="980" height="2148" font-family="Arial, sans-serif">
<rect width="100%" height="100%" fill="white"/>
<text x="24" y="28" font-size="18" font-weight="700">experiments/qwen3_8b_grpo_v13_official_code_format_signal_n4/metrics_key.csv</text>
<text x="24" y="48" font-size="12" fill="#64748b">rows=50 keys=11</text>
<g transform="translate(0,58)">
<text x="92" y="22" font-size="13" font-weight="700">critic/score/mean</text>
<rect x="92" y="42" width="860" height="102" fill="#fafafa" stroke="#e2e8f0"/>
<line x1="92.0" y1="42" x2="92.0" y2="144" stroke="#e5e7eb"/>
<text x="92.0" y="162" text-anchor="middle" font-size="10" fill="#64748b">1</text>
<line x1="307.0" y1="42" x2="307.0" y2="144" stroke="#e5e7eb"/>
<text x="307.0" y="162" text-anchor="middle" font-size="10" fill="#64748b">13.2</text>
<line x1="522.0" y1="42" x2="522.0" y2="144" stroke="#e5e7eb"/>
<text x="522.0" y="162" text-anchor="middle" font-size="10" fill="#64748b">25.5</text>
<line x1="737.0" y1="42" x2="737.0" y2="144" stroke="#e5e7eb"/>
<text x="737.0" y="162" text-anchor="middle" font-size="10" fill="#64748b">37.8</text>
<line x1="952.0" y1="42" x2="952.0" y2="144" stroke="#e5e7eb"/>
<text x="952.0" y="162" text-anchor="middle" font-size="10" fill="#64748b">50</text>
<line x1="92" y1="144.0" x2="952" y2="144.0" stroke="#e5e7eb"/>
<text x="84" y="148.0" text-anchor="end" font-size="10" fill="#64748b">0.39</text>
<line x1="92" y1="110.0" x2="952" y2="110.0" stroke="#e5e7eb"/>
<text x="84" y="114.0" text-anchor="end" font-size="10" fill="#64748b">0.583</text>
<line x1="92" y1="76.0" x2="952" y2="76.0" stroke="#e5e7eb"/>
<text x="84" y="80.0" text-anchor="end" font-size="10" fill="#64748b">0.777</text>
<line x1="92" y1="42.0" x2="952" y2="42.0" stroke="#e5e7eb"/>
<text x="84" y="46.0" text-anchor="end" font-size="10" fill="#64748b">0.97</text>
<polyline points="92.0,56.1 109.6,64.6 127.1,80.0 144.7,42.0 162.2,42.0 179.8,78.1 197.3,73.0 214.9,87.7 232.4,82.0 250.0,64.9 267.5,59.1 285.1,42.0 302.6,95.6 320.2,93.0 337.7,87.7 355.3,115.9 372.8,144.0 390.4,64.9 407.9,64.9 425.5,78.1 443.0,87.7 460.6,64.9 478.1,99.0 495.7,98.3 513.2,64.9 530.8,64.9 548.3,82.0 565.9,64.9 583.4,42.0 601.0,53.4 618.5,94.8 636.1,58.5 653.6,49.6 671.2,42.0 688.7,42.0 706.3,42.0 723.8,64.9 741.4,96.2 758.9,45.8 776.5,64.9 794.0,42.0 811.6,64.9 829.1,42.0 846.7,87.7 864.2,64.9 881.8,91.5 899.3,61.9 916.9,64.9 934.4,70.1 952.0,68.7" fill="none" stroke="#2563eb" stroke-width="2"/>
<text x="952" y="22" text-anchor="end" font-size="11" fill="#64748b">min=0.39 max=0.97 last=0.8184</text>
</g>
<g transform="translate(0,248)">
<text x="92" y="22" font-size="13" font-weight="700">critic/advantages/max</text>
<rect x="92" y="42" width="860" height="102" fill="#fafafa" stroke="#e2e8f0"/>
<line x1="92.0" y1="42" x2="92.0" y2="144" stroke="#e5e7eb"/>
<text x="92.0" y="162" text-anchor="middle" font-size="10" fill="#64748b">1</text>
<line x1="307.0" y1="42" x2="307.0" y2="144" stroke="#e5e7eb"/>
<text x="307.0" y="162" text-anchor="middle" font-size="10" fill="#64748b">13.2</text>
<line x1="522.0" y1="42" x2="522.0" y2="144" stroke="#e5e7eb"/>
<text x="522.0" y="162" text-anchor="middle" font-size="10" fill="#64748b">25.5</text>
<line x1="737.0" y1="42" x2="737.0" y2="144" stroke="#e5e7eb"/>
<text x="737.0" y="162" text-anchor="middle" font-size="10" fill="#64748b">37.8</text>
<line x1="952.0" y1="42" x2="952.0" y2="144" stroke="#e5e7eb"/>
<text x="952.0" y="162" text-anchor="middle" font-size="10" fill="#64748b">50</text>
<line x1="92" y1="144.0" x2="952" y2="144.0" stroke="#e5e7eb"/>
<text x="84" y="148.0" text-anchor="end" font-size="10" fill="#64748b">0</text>
<line x1="92" y1="110.0" x2="952" y2="110.0" stroke="#e5e7eb"/>
<text x="84" y="114.0" text-anchor="end" font-size="10" fill="#64748b">0.5</text>
<line x1="92" y1="76.0" x2="952" y2="76.0" stroke="#e5e7eb"/>
<text x="84" y="80.0" text-anchor="end" font-size="10" fill="#64748b">1</text>
<line x1="92" y1="42.0" x2="952" y2="42.0" stroke="#e5e7eb"/>
<text x="84" y="46.0" text-anchor="end" font-size="10" fill="#64748b">1.5</text>
<polyline points="92.0,85.1 109.6,144.0 127.1,144.0 144.7,144.0 162.2,144.0 179.8,85.1 197.3,42.0 214.9,144.0 232.4,42.0 250.0,144.0 267.5,42.0 285.1,144.0 302.6,85.1 320.2,144.0 337.7,144.0 355.3,144.0 372.8,144.0 390.4,144.0 407.9,144.0 425.5,110.0 443.0,144.0 460.6,144.0 478.1,144.0 495.7,144.0 513.2,144.0 530.8,144.0 548.3,42.0 565.9,144.0 583.4,144.0 601.0,85.1 618.5,110.0 636.1,110.0 653.6,85.1 671.2,144.0 688.7,144.0 706.3,144.0 723.8,144.0 741.4,42.0 758.9,110.0 776.5,144.0 794.0,144.0 811.6,144.0 829.1,144.0 846.7,144.0 864.2,144.0 881.8,110.0 899.3,42.0 916.9,144.0 934.4,144.0 952.0,110.0" fill="none" stroke="#16a34a" stroke-width="2"/>
<text x="952" y="22" text-anchor="end" font-size="11" fill="#64748b">min=0 max=1.5 last=0.5</text>
</g>
<g transform="translate(0,438)">
<text x="92" y="22" font-size="13" font-weight="700">critic/advantages/min</text>
<rect x="92" y="42" width="860" height="102" fill="#fafafa" stroke="#e2e8f0"/>
<line x1="92.0" y1="42" x2="92.0" y2="144" stroke="#e5e7eb"/>
<text x="92.0" y="162" text-anchor="middle" font-size="10" fill="#64748b">1</text>
<line x1="307.0" y1="42" x2="307.0" y2="144" stroke="#e5e7eb"/>
<text x="307.0" y="162" text-anchor="middle" font-size="10" fill="#64748b">13.2</text>
<line x1="522.0" y1="42" x2="522.0" y2="144" stroke="#e5e7eb"/>
<text x="522.0" y="162" text-anchor="middle" font-size="10" fill="#64748b">25.5</text>
<line x1="737.0" y1="42" x2="737.0" y2="144" stroke="#e5e7eb"/>
<text x="737.0" y="162" text-anchor="middle" font-size="10" fill="#64748b">37.8</text>
<line x1="952.0" y1="42" x2="952.0" y2="144" stroke="#e5e7eb"/>
<text x="952.0" y="162" text-anchor="middle" font-size="10" fill="#64748b">50</text>
<line x1="92" y1="144.0" x2="952" y2="144.0" stroke="#e5e7eb"/>
<text x="84" y="148.0" text-anchor="end" font-size="10" fill="#64748b">-1.5</text>
<line x1="92" y1="110.0" x2="952" y2="110.0" stroke="#e5e7eb"/>
<text x="84" y="114.0" text-anchor="end" font-size="10" fill="#64748b">-1</text>
<line x1="92" y1="76.0" x2="952" y2="76.0" stroke="#e5e7eb"/>
<text x="84" y="80.0" text-anchor="end" font-size="10" fill="#64748b">-0.5</text>
<line x1="92" y1="42.0" x2="952" y2="42.0" stroke="#e5e7eb"/>
<text x="84" y="46.0" text-anchor="end" font-size="10" fill="#64748b">0</text>
<polyline points="92.0,100.9 109.6,42.0 127.1,42.0 144.7,42.0 162.2,42.0 179.8,100.9 197.3,76.0 214.9,42.0 232.4,76.0 250.0,42.0 267.5,76.0 285.1,42.0 302.6,100.9 320.2,42.0 337.7,42.0 355.3,42.0 372.8,42.0 390.4,42.0 407.9,42.0 425.5,144.0 443.0,42.0 460.6,42.0 478.1,42.0 495.7,42.0 513.2,42.0 530.8,42.0 548.3,76.0 565.9,42.0 583.4,42.0 601.0,100.9 618.5,144.0 636.1,144.0 653.6,100.9 671.2,42.0 688.7,42.0 706.3,42.0 723.8,42.0 741.4,76.0 758.9,144.0 776.5,42.0 794.0,42.0 811.6,42.0 829.1,42.0 846.7,42.0 864.2,42.0 881.8,144.0 899.3,100.9 916.9,42.0 934.4,42.0 952.0,144.0" fill="none" stroke="#dc2626" stroke-width="2"/>
<text x="952" y="22" text-anchor="end" font-size="11" fill="#64748b">min=-1.5 max=0 last=-1.5</text>
</g>
<g transform="translate(0,628)">
<text x="92" y="22" font-size="13" font-weight="700">actor/grad_norm</text>
<rect x="92" y="42" width="860" height="102" fill="#fafafa" stroke="#e2e8f0"/>
<line x1="92.0" y1="42" x2="92.0" y2="144" stroke="#e5e7eb"/>
<text x="92.0" y="162" text-anchor="middle" font-size="10" fill="#64748b">1</text>
<line x1="307.0" y1="42" x2="307.0" y2="144" stroke="#e5e7eb"/>
<text x="307.0" y="162" text-anchor="middle" font-size="10" fill="#64748b">13.2</text>
<line x1="522.0" y1="42" x2="522.0" y2="144" stroke="#e5e7eb"/>
<text x="522.0" y="162" text-anchor="middle" font-size="10" fill="#64748b">25.5</text>
<line x1="737.0" y1="42" x2="737.0" y2="144" stroke="#e5e7eb"/>
<text x="737.0" y="162" text-anchor="middle" font-size="10" fill="#64748b">37.8</text>
<line x1="952.0" y1="42" x2="952.0" y2="144" stroke="#e5e7eb"/>
<text x="952.0" y="162" text-anchor="middle" font-size="10" fill="#64748b">50</text>
<line x1="92" y1="144.0" x2="952" y2="144.0" stroke="#e5e7eb"/>
<text x="84" y="148.0" text-anchor="end" font-size="10" fill="#64748b">0</text>
<line x1="92" y1="110.0" x2="952" y2="110.0" stroke="#e5e7eb"/>
<text x="84" y="114.0" text-anchor="end" font-size="10" fill="#64748b">2.44</text>
<line x1="92" y1="76.0" x2="952" y2="76.0" stroke="#e5e7eb"/>
<text x="84" y="80.0" text-anchor="end" font-size="10" fill="#64748b">4.89</text>
<line x1="92" y1="42.0" x2="952" y2="42.0" stroke="#e5e7eb"/>
<text x="84" y="46.0" text-anchor="end" font-size="10" fill="#64748b">7.33</text>
<polyline points="92.0,118.8 109.6,144.0 127.1,144.0 144.7,144.0 162.2,144.0 179.8,125.6 197.3,67.0 214.9,144.0 232.4,120.3 250.0,144.0 267.5,66.6 285.1,144.0 302.6,128.0 320.2,144.0 337.7,144.0 355.3,144.0 372.8,144.0 390.4,144.0 407.9,144.0 425.5,52.0 443.0,144.0 460.6,144.0 478.1,144.0 495.7,144.0 513.2,144.0 530.8,144.0 548.3,120.9 565.9,144.0 583.4,144.0 601.0,127.5 618.5,136.3 636.1,103.2 653.6,100.8 671.2,144.0 688.7,144.0 706.3,144.0 723.8,144.0 741.4,88.4 758.9,120.8 776.5,144.0 794.0,144.0 811.6,144.0 829.1,144.0 846.7,144.0 864.2,144.0 881.8,115.2 899.3,42.0 916.9,144.0 934.4,144.0 952.0,100.5" fill="none" stroke="#9333ea" stroke-width="2"/>
<text x="952" y="22" text-anchor="end" font-size="11" fill="#64748b">min=0 max=7.329 last=3.123</text>
</g>
<g transform="translate(0,818)">
<text x="92" y="22" font-size="13" font-weight="700">actor/loss</text>
<rect x="92" y="42" width="860" height="102" fill="#fafafa" stroke="#e2e8f0"/>
<line x1="92.0" y1="42" x2="92.0" y2="144" stroke="#e5e7eb"/>
<text x="92.0" y="162" text-anchor="middle" font-size="10" fill="#64748b">1</text>
<line x1="307.0" y1="42" x2="307.0" y2="144" stroke="#e5e7eb"/>
<text x="307.0" y="162" text-anchor="middle" font-size="10" fill="#64748b">13.2</text>
<line x1="522.0" y1="42" x2="522.0" y2="144" stroke="#e5e7eb"/>
<text x="522.0" y="162" text-anchor="middle" font-size="10" fill="#64748b">25.5</text>
<line x1="737.0" y1="42" x2="737.0" y2="144" stroke="#e5e7eb"/>
<text x="737.0" y="162" text-anchor="middle" font-size="10" fill="#64748b">37.8</text>
<line x1="952.0" y1="42" x2="952.0" y2="144" stroke="#e5e7eb"/>
<text x="952.0" y="162" text-anchor="middle" font-size="10" fill="#64748b">50</text>
<line x1="92" y1="144.0" x2="952" y2="144.0" stroke="#e5e7eb"/>
<text x="84" y="148.0" text-anchor="end" font-size="10" fill="#64748b">-0.0935</text>
<line x1="92" y1="110.0" x2="952" y2="110.0" stroke="#e5e7eb"/>
<text x="84" y="114.0" text-anchor="end" font-size="10" fill="#64748b">0.00212</text>
<line x1="92" y1="76.0" x2="952" y2="76.0" stroke="#e5e7eb"/>
<text x="84" y="80.0" text-anchor="end" font-size="10" fill="#64748b">0.0978</text>
<line x1="92" y1="42.0" x2="952" y2="42.0" stroke="#e5e7eb"/>
<text x="84" y="46.0" text-anchor="end" font-size="10" fill="#64748b">0.193</text>
<polyline points="92.0,111.5 109.6,110.8 127.1,110.8 144.7,110.8 162.2,110.8 179.8,112.2 197.3,144.0 214.9,110.8 232.4,111.0 250.0,110.8 267.5,113.0 285.1,110.8 302.6,42.0 320.2,110.8 337.7,110.8 355.3,110.8 372.8,110.8 390.4,110.8 407.9,110.8 425.5,110.3 443.0,110.8 460.6,110.8 478.1,110.8 495.7,110.8 513.2,110.8 530.8,110.8 548.3,96.3 565.9,110.8 583.4,110.8 601.0,99.0 618.5,110.9 636.1,129.4 653.6,95.5 671.2,110.8 688.7,110.8 706.3,110.8 723.8,110.8 741.4,132.0 758.9,109.6 776.5,110.8 794.0,110.8 811.6,110.8 829.1,110.8 846.7,110.8 864.2,110.8 881.8,109.6 899.3,97.6 916.9,110.8 934.4,110.8 952.0,115.2" fill="none" stroke="#ea580c" stroke-width="2"/>
<text x="952" y="22" text-anchor="end" font-size="11" fill="#64748b">min=-0.09355 max=0.1935 last=-0.01246</text>
</g>
<g transform="translate(0,1008)">
<text x="92" y="22" font-size="13" font-weight="700">actor/entropy</text>
<rect x="92" y="42" width="860" height="102" fill="#fafafa" stroke="#e2e8f0"/>
<line x1="92.0" y1="42" x2="92.0" y2="144" stroke="#e5e7eb"/>
<text x="92.0" y="162" text-anchor="middle" font-size="10" fill="#64748b">1</text>
<line x1="307.0" y1="42" x2="307.0" y2="144" stroke="#e5e7eb"/>
<text x="307.0" y="162" text-anchor="middle" font-size="10" fill="#64748b">13.2</text>
<line x1="522.0" y1="42" x2="522.0" y2="144" stroke="#e5e7eb"/>
<text x="522.0" y="162" text-anchor="middle" font-size="10" fill="#64748b">25.5</text>
<line x1="737.0" y1="42" x2="737.0" y2="144" stroke="#e5e7eb"/>
<text x="737.0" y="162" text-anchor="middle" font-size="10" fill="#64748b">37.8</text>
<line x1="952.0" y1="42" x2="952.0" y2="144" stroke="#e5e7eb"/>
<text x="952.0" y="162" text-anchor="middle" font-size="10" fill="#64748b">50</text>
<line x1="92" y1="144.0" x2="952" y2="144.0" stroke="#e5e7eb"/>
<text x="84" y="148.0" text-anchor="end" font-size="10" fill="#64748b">0.00162</text>
<line x1="92" y1="110.0" x2="952" y2="110.0" stroke="#e5e7eb"/>
<text x="84" y="114.0" text-anchor="end" font-size="10" fill="#64748b">0.0125</text>
<line x1="92" y1="76.0" x2="952" y2="76.0" stroke="#e5e7eb"/>
<text x="84" y="80.0" text-anchor="end" font-size="10" fill="#64748b">0.0234</text>
<line x1="92" y1="42.0" x2="952" y2="42.0" stroke="#e5e7eb"/>
<text x="84" y="46.0" text-anchor="end" font-size="10" fill="#64748b">0.0343</text>
<polyline points="92.0,79.9 109.6,140.6 127.1,116.9 144.7,103.3 162.2,77.0 179.8,116.2 197.3,50.6 214.9,84.5 232.4,111.7 250.0,87.5 267.5,130.1 285.1,110.3 302.6,91.5 320.2,83.8 337.7,85.5 355.3,82.9 372.8,52.6 390.4,97.0 407.9,109.5 425.5,118.7 443.0,73.6 460.6,95.5 478.1,72.3 495.7,144.0 513.2,104.7 530.8,93.7 548.3,42.0 565.9,76.2 583.4,92.3 601.0,76.0 618.5,96.2 636.1,77.4 653.6,104.0 671.2,86.8 688.7,137.7 706.3,92.3 723.8,83.9 741.4,117.6 758.9,78.6 776.5,94.0 794.0,114.9 811.6,103.9 829.1,130.8 846.7,57.0 864.2,48.8 881.8,112.3 899.3,115.3 916.9,116.2 934.4,116.6 952.0,125.2" fill="none" stroke="#0891b2" stroke-width="2"/>
<text x="952" y="22" text-anchor="end" font-size="11" fill="#64748b">min=0.001619 max=0.03433 last=0.007648</text>
</g>
<g transform="translate(0,1198)">
<text x="92" y="22" font-size="13" font-weight="700">response_length/clip_ratio</text>
<rect x="92" y="42" width="860" height="102" fill="#fafafa" stroke="#e2e8f0"/>
<line x1="92.0" y1="42" x2="92.0" y2="144" stroke="#e5e7eb"/>
<text x="92.0" y="162" text-anchor="middle" font-size="10" fill="#64748b">1</text>
<line x1="307.0" y1="42" x2="307.0" y2="144" stroke="#e5e7eb"/>
<text x="307.0" y="162" text-anchor="middle" font-size="10" fill="#64748b">13.2</text>
<line x1="522.0" y1="42" x2="522.0" y2="144" stroke="#e5e7eb"/>
<text x="522.0" y="162" text-anchor="middle" font-size="10" fill="#64748b">25.5</text>
<line x1="737.0" y1="42" x2="737.0" y2="144" stroke="#e5e7eb"/>
<text x="737.0" y="162" text-anchor="middle" font-size="10" fill="#64748b">37.8</text>
<line x1="952.0" y1="42" x2="952.0" y2="144" stroke="#e5e7eb"/>
<text x="952.0" y="162" text-anchor="middle" font-size="10" fill="#64748b">50</text>
<line x1="92" y1="144.0" x2="952" y2="144.0" stroke="#e5e7eb"/>
<text x="84" y="148.0" text-anchor="end" font-size="10" fill="#64748b">0</text>
<line x1="92" y1="110.0" x2="952" y2="110.0" stroke="#e5e7eb"/>
<text x="84" y="114.0" text-anchor="end" font-size="10" fill="#64748b">0.0417</text>
<line x1="92" y1="76.0" x2="952" y2="76.0" stroke="#e5e7eb"/>
<text x="84" y="80.0" text-anchor="end" font-size="10" fill="#64748b">0.0833</text>
<line x1="92" y1="42.0" x2="952" y2="42.0" stroke="#e5e7eb"/>
<text x="84" y="46.0" text-anchor="end" font-size="10" fill="#64748b">0.125</text>
<polyline points="92.0,144.0 109.6,144.0 127.1,144.0 144.7,144.0 162.2,144.0 179.8,144.0 197.3,144.0 214.9,144.0 232.4,144.0 250.0,144.0 267.5,144.0 285.1,144.0 302.6,42.0 320.2,144.0 337.7,144.0 355.3,144.0 372.8,144.0 390.4,144.0 407.9,144.0 425.5,144.0 443.0,144.0 460.6,144.0 478.1,144.0 495.7,144.0 513.2,144.0 530.8,144.0 548.3,144.0 565.9,144.0 583.4,144.0 601.0,144.0 618.5,144.0 636.1,144.0 653.6,144.0 671.2,144.0 688.7,144.0 706.3,144.0 723.8,144.0 741.4,144.0 758.9,144.0 776.5,144.0 794.0,144.0 811.6,144.0 829.1,144.0 846.7,144.0 864.2,144.0 881.8,144.0 899.3,144.0 916.9,144.0 934.4,144.0 952.0,144.0" fill="none" stroke="#4f46e5" stroke-width="2"/>
<text x="952" y="22" text-anchor="end" font-size="11" fill="#64748b">min=0 max=0.125 last=0</text>
</g>
<g transform="translate(0,1388)">
<text x="92" y="22" font-size="13" font-weight="700">response_length/mean</text>
<rect x="92" y="42" width="860" height="102" fill="#fafafa" stroke="#e2e8f0"/>
<line x1="92.0" y1="42" x2="92.0" y2="144" stroke="#e5e7eb"/>
<text x="92.0" y="162" text-anchor="middle" font-size="10" fill="#64748b">1</text>
<line x1="307.0" y1="42" x2="307.0" y2="144" stroke="#e5e7eb"/>
<text x="307.0" y="162" text-anchor="middle" font-size="10" fill="#64748b">13.2</text>
<line x1="522.0" y1="42" x2="522.0" y2="144" stroke="#e5e7eb"/>
<text x="522.0" y="162" text-anchor="middle" font-size="10" fill="#64748b">25.5</text>
<line x1="737.0" y1="42" x2="737.0" y2="144" stroke="#e5e7eb"/>
<text x="737.0" y="162" text-anchor="middle" font-size="10" fill="#64748b">37.8</text>
<line x1="952.0" y1="42" x2="952.0" y2="144" stroke="#e5e7eb"/>
<text x="952.0" y="162" text-anchor="middle" font-size="10" fill="#64748b">50</text>
<line x1="92" y1="144.0" x2="952" y2="144.0" stroke="#e5e7eb"/>
<text x="84" y="148.0" text-anchor="end" font-size="10" fill="#64748b">81.6</text>
<line x1="92" y1="110.0" x2="952" y2="110.0" stroke="#e5e7eb"/>
<text x="84" y="114.0" text-anchor="end" font-size="10" fill="#64748b">191</text>
<line x1="92" y1="76.0" x2="952" y2="76.0" stroke="#e5e7eb"/>
<text x="84" y="80.0" text-anchor="end" font-size="10" fill="#64748b">300</text>
<line x1="92" y1="42.0" x2="952" y2="42.0" stroke="#e5e7eb"/>
<text x="84" y="46.0" text-anchor="end" font-size="10" fill="#64748b">410</text>
<polyline points="92.0,121.8 109.6,133.9 127.1,144.0 144.7,133.6 162.2,119.8 179.8,105.3 197.3,123.9 214.9,119.3 232.4,121.6 250.0,109.4 267.5,136.3 285.1,117.0 302.6,42.0 320.2,120.0 337.7,105.8 355.3,118.6 372.8,107.1 390.4,129.9 407.9,128.1 425.5,124.6 443.0,112.5 460.6,121.6 478.1,72.6 495.7,143.5 513.2,130.5 530.8,121.5 548.3,106.6 565.9,109.6 583.4,111.1 601.0,116.6 618.5,112.6 636.1,118.1 653.6,125.4 671.2,115.7 688.7,126.0 706.3,114.8 723.8,130.3 741.4,136.4 758.9,114.9 776.5,129.5 794.0,124.0 811.6,127.2 829.1,128.8 846.7,114.7 864.2,113.8 881.8,127.6 899.3,125.1 916.9,127.2 934.4,129.2 952.0,129.6" fill="none" stroke="#be123c" stroke-width="2"/>
<text x="952" y="22" text-anchor="end" font-size="11" fill="#64748b">min=81.62 max=409.9 last=127.9</text>
</g>
<g transform="translate(0,1578)">
<text x="92" y="22" font-size="13" font-weight="700">perf/throughput</text>
<rect x="92" y="42" width="860" height="102" fill="#fafafa" stroke="#e2e8f0"/>
<line x1="92.0" y1="42" x2="92.0" y2="144" stroke="#e5e7eb"/>
<text x="92.0" y="162" text-anchor="middle" font-size="10" fill="#64748b">1</text>
<line x1="307.0" y1="42" x2="307.0" y2="144" stroke="#e5e7eb"/>
<text x="307.0" y="162" text-anchor="middle" font-size="10" fill="#64748b">13.2</text>
<line x1="522.0" y1="42" x2="522.0" y2="144" stroke="#e5e7eb"/>
<text x="522.0" y="162" text-anchor="middle" font-size="10" fill="#64748b">25.5</text>
<line x1="737.0" y1="42" x2="737.0" y2="144" stroke="#e5e7eb"/>
<text x="737.0" y="162" text-anchor="middle" font-size="10" fill="#64748b">37.8</text>
<line x1="952.0" y1="42" x2="952.0" y2="144" stroke="#e5e7eb"/>
<text x="952.0" y="162" text-anchor="middle" font-size="10" fill="#64748b">50</text>
<line x1="92" y1="144.0" x2="952" y2="144.0" stroke="#e5e7eb"/>
<text x="84" y="148.0" text-anchor="end" font-size="10" fill="#64748b">3.21</text>
<line x1="92" y1="110.0" x2="952" y2="110.0" stroke="#e5e7eb"/>
<text x="84" y="114.0" text-anchor="end" font-size="10" fill="#64748b">5.43</text>
<line x1="92" y1="76.0" x2="952" y2="76.0" stroke="#e5e7eb"/>
<text x="84" y="80.0" text-anchor="end" font-size="10" fill="#64748b">7.65</text>
<line x1="92" y1="42.0" x2="952" y2="42.0" stroke="#e5e7eb"/>
<text x="84" y="46.0" text-anchor="end" font-size="10" fill="#64748b">9.87</text>
<polyline points="92.0,89.7 109.6,66.6 127.1,84.8 144.7,64.4 162.2,62.1 179.8,81.7 197.3,57.4 214.9,66.0 232.4,93.4 250.0,70.5 267.5,73.2 285.1,42.0 302.6,46.5 320.2,75.7 337.7,56.5 355.3,62.8 372.8,70.0 390.4,73.4 407.9,61.7 425.5,55.2 443.0,64.1 460.6,91.2 478.1,61.0 495.7,78.0 513.2,70.2 530.8,66.2 548.3,63.0 565.9,78.2 583.4,50.9 601.0,56.7 618.5,74.1 636.1,54.1 653.6,59.4 671.2,45.7 688.7,55.8 706.3,51.0 723.8,70.5 741.4,71.1 758.9,46.5 776.5,73.9 794.0,66.6 811.6,58.0 829.1,62.3 846.7,72.5 864.2,57.3 881.8,61.0 899.3,61.8 916.9,50.2 934.4,63.9 952.0,144.0" fill="none" stroke="#2563eb" stroke-width="2"/>
<text x="952" y="22" text-anchor="end" font-size="11" fill="#64748b">min=3.214 max=9.873 last=3.214</text>
</g>
<g transform="translate(0,1768)">
<text x="92" y="22" font-size="13" font-weight="700">critic/score/max</text>
<rect x="92" y="42" width="860" height="102" fill="#fafafa" stroke="#e2e8f0"/>
<line x1="92.0" y1="42" x2="92.0" y2="144" stroke="#e5e7eb"/>
<text x="92.0" y="162" text-anchor="middle" font-size="10" fill="#64748b">1</text>
<line x1="307.0" y1="42" x2="307.0" y2="144" stroke="#e5e7eb"/>
<text x="307.0" y="162" text-anchor="middle" font-size="10" fill="#64748b">13.2</text>
<line x1="522.0" y1="42" x2="522.0" y2="144" stroke="#e5e7eb"/>
<text x="522.0" y="162" text-anchor="middle" font-size="10" fill="#64748b">25.5</text>
<line x1="737.0" y1="42" x2="737.0" y2="144" stroke="#e5e7eb"/>
<text x="737.0" y="162" text-anchor="middle" font-size="10" fill="#64748b">37.8</text>
<line x1="952.0" y1="42" x2="952.0" y2="144" stroke="#e5e7eb"/>
<text x="952.0" y="162" text-anchor="middle" font-size="10" fill="#64748b">50</text>
<line x1="92" y1="144.0" x2="952" y2="144.0" stroke="#e5e7eb"/>
<text x="84" y="148.0" text-anchor="end" font-size="10" fill="#64748b">0.45</text>
<line x1="92" y1="110.0" x2="952" y2="110.0" stroke="#e5e7eb"/>
<text x="84" y="114.0" text-anchor="end" font-size="10" fill="#64748b">0.623</text>
<line x1="92" y1="76.0" x2="952" y2="76.0" stroke="#e5e7eb"/>
<text x="84" y="80.0" text-anchor="end" font-size="10" fill="#64748b">0.797</text>
<line x1="92" y1="42.0" x2="952" y2="42.0" stroke="#e5e7eb"/>
<text x="84" y="46.0" text-anchor="end" font-size="10" fill="#64748b">0.97</text>
<polyline points="92.0,42.0 109.6,42.0 127.1,42.0 144.7,42.0 162.2,42.0 179.8,42.0 197.3,42.0 214.9,42.0 232.4,42.0 250.0,42.0 267.5,42.0 285.1,42.0 302.6,42.0 320.2,42.0 337.7,42.0 355.3,42.0 372.8,144.0 390.4,42.0 407.9,42.0 425.5,42.0 443.0,42.0 460.6,42.0 478.1,42.0 495.7,42.0 513.2,42.0 530.8,42.0 548.3,42.0 565.9,42.0 583.4,42.0 601.0,42.0 618.5,42.0 636.1,42.0 653.6,42.0 671.2,42.0 688.7,42.0 706.3,42.0 723.8,42.0 741.4,42.0 758.9,42.0 776.5,42.0 794.0,42.0 811.6,42.0 829.1,42.0 846.7,42.0 864.2,42.0 881.8,42.0 899.3,42.0 916.9,42.0 934.4,42.0 952.0,42.0" fill="none" stroke="#16a34a" stroke-width="2"/>
<text x="952" y="22" text-anchor="end" font-size="11" fill="#64748b">min=0.45 max=0.97 last=0.97</text>
</g>
<g transform="translate(0,1958)">
<text x="92" y="22" font-size="13" font-weight="700">critic/score/min</text>
<rect x="92" y="42" width="860" height="102" fill="#fafafa" stroke="#e2e8f0"/>
<line x1="92.0" y1="42" x2="92.0" y2="144" stroke="#e5e7eb"/>
<text x="92.0" y="162" text-anchor="middle" font-size="10" fill="#64748b">1</text>
<line x1="307.0" y1="42" x2="307.0" y2="144" stroke="#e5e7eb"/>
<text x="307.0" y="162" text-anchor="middle" font-size="10" fill="#64748b">13.2</text>
<line x1="522.0" y1="42" x2="522.0" y2="144" stroke="#e5e7eb"/>
<text x="522.0" y="162" text-anchor="middle" font-size="10" fill="#64748b">25.5</text>
<line x1="737.0" y1="42" x2="737.0" y2="144" stroke="#e5e7eb"/>
<text x="737.0" y="162" text-anchor="middle" font-size="10" fill="#64748b">37.8</text>
<line x1="952.0" y1="42" x2="952.0" y2="144" stroke="#e5e7eb"/>
<text x="952.0" y="162" text-anchor="middle" font-size="10" fill="#64748b">50</text>
<line x1="92" y1="144.0" x2="952" y2="144.0" stroke="#e5e7eb"/>
<text x="84" y="148.0" text-anchor="end" font-size="10" fill="#64748b">0.08</text>
<line x1="92" y1="110.0" x2="952" y2="110.0" stroke="#e5e7eb"/>
<text x="84" y="114.0" text-anchor="end" font-size="10" fill="#64748b">0.377</text>
<line x1="92" y1="76.0" x2="952" y2="76.0" stroke="#e5e7eb"/>
<text x="84" y="80.0" text-anchor="end" font-size="10" fill="#64748b">0.673</text>
<line x1="92" y1="42.0" x2="952" y2="42.0" stroke="#e5e7eb"/>
<text x="84" y="46.0" text-anchor="end" font-size="10" fill="#64748b">0.97</text>
<polyline points="92.0,115.3 109.6,71.5 127.1,101.6 144.7,42.0 162.2,42.0 179.8,101.6 197.3,95.9 214.9,101.6 232.4,101.6 250.0,101.6 267.5,101.6 285.1,42.0 302.6,144.0 320.2,115.3 337.7,101.6 355.3,115.3 372.8,115.3 390.4,101.6 407.9,101.6 425.5,101.6 443.0,101.6 460.6,101.6 478.1,101.6 495.7,115.3 513.2,101.6 530.8,101.6 548.3,101.6 565.9,101.6 583.4,42.0 601.0,101.6 618.5,115.3 636.1,115.3 653.6,81.5 671.2,42.0 688.7,42.0 706.3,42.0 723.8,101.6 741.4,101.6 758.9,81.5 776.5,101.6 794.0,42.0 811.6,101.6 829.1,42.0 846.7,101.6 864.2,101.6 881.8,101.6 899.3,101.6 916.9,101.6 934.4,115.3 952.0,101.6" fill="none" stroke="#dc2626" stroke-width="2"/>
<text x="952" y="22" text-anchor="end" font-size="11" fill="#64748b">min=0.08 max=0.97 last=0.45</text>
</g>
</svg>