<svg xmlns="http://www.w3.org/2000/svg" width="980" height="3478" font-family="Arial, sans-serif">
<rect width="100%" height="100%" fill="white"/>
<text x="24" y="28" font-size="18" font-weight="700">experiments/qwen3_8b_grpo_v13_official_code_format_signal_n4/qwen3_8b_grpo_v13_official_code_format_signal_n4.metrics.jsonl</text>
<text x="24" y="48" font-size="12" fill="#64748b">rows=50 keys=18</text>
<g transform="translate(0,58)">
<text x="92" y="22" font-size="13" font-weight="700">critic/score/mean</text>
<rect x="92" y="42" width="860" height="102" fill="#fafafa" stroke="#e2e8f0"/>
<line x1="92.0" y1="42" x2="92.0" y2="144" stroke="#e5e7eb"/>
<text x="92.0" y="162" text-anchor="middle" font-size="10" fill="#64748b">1</text>
<line x1="307.0" y1="42" x2="307.0" y2="144" stroke="#e5e7eb"/>
<text x="307.0" y="162" text-anchor="middle" font-size="10" fill="#64748b">13.2</text>
<line x1="522.0" y1="42" x2="522.0" y2="144" stroke="#e5e7eb"/>
<text x="522.0" y="162" text-anchor="middle" font-size="10" fill="#64748b">25.5</text>
<line x1="737.0" y1="42" x2="737.0" y2="144" stroke="#e5e7eb"/>
<text x="737.0" y="162" text-anchor="middle" font-size="10" fill="#64748b">37.8</text>
<line x1="952.0" y1="42" x2="952.0" y2="144" stroke="#e5e7eb"/>
<text x="952.0" y="162" text-anchor="middle" font-size="10" fill="#64748b">50</text>
<line x1="92" y1="144.0" x2="952" y2="144.0" stroke="#e5e7eb"/>
<text x="84" y="148.0" text-anchor="end" font-size="10" fill="#64748b">0.39</text>
<line x1="92" y1="110.0" x2="952" y2="110.0" stroke="#e5e7eb"/>
<text x="84" y="114.0" text-anchor="end" font-size="10" fill="#64748b">0.583</text>
<line x1="92" y1="76.0" x2="952" y2="76.0" stroke="#e5e7eb"/>
<text x="84" y="80.0" text-anchor="end" font-size="10" fill="#64748b">0.777</text>
<line x1="92" y1="42.0" x2="952" y2="42.0" stroke="#e5e7eb"/>
<text x="84" y="46.0" text-anchor="end" font-size="10" fill="#64748b">0.97</text>
<polyline points="92.0,56.1 109.6,64.6 127.1,80.0 144.7,42.0 162.2,42.0 179.8,78.1 197.3,73.0 214.9,87.7 232.4,82.0 250.0,64.9 267.5,59.1 285.1,42.0 302.6,95.6 320.2,93.0 337.7,87.7 355.3,115.9 372.8,144.0 390.4,64.9 407.9,64.9 425.5,78.1 443.0,87.7 460.6,64.9 478.1,99.0 495.7,98.3 513.2,64.9 530.8,64.9 548.3,82.0 565.9,64.9 583.4,42.0 601.0,53.4 618.5,94.8 636.1,58.5 653.6,49.6 671.2,42.0 688.7,42.0 706.3,42.0 723.8,64.9 741.4,96.2 758.9,45.8 776.5,64.9 794.0,42.0 811.6,64.9 829.1,42.0 846.7,87.7 864.2,64.9 881.8,91.5 899.3,61.9 916.9,64.9 934.4,70.1 952.0,68.7" fill="none" stroke="#2563eb" stroke-width="2"/>
<text x="952" y="22" text-anchor="end" font-size="11" fill="#64748b">min=0.39 max=0.97 last=0.8184</text>
</g>
<g transform="translate(0,248)">
<text x="92" y="22" font-size="13" font-weight="700">timing_s/agent_loop/compute_score/mean</text>
<rect x="92" y="42" width="860" height="102" fill="#fafafa" stroke="#e2e8f0"/>
<line x1="92.0" y1="42" x2="92.0" y2="144" stroke="#e5e7eb"/>
<text x="92.0" y="162" text-anchor="middle" font-size="10" fill="#64748b">1</text>
<line x1="307.0" y1="42" x2="307.0" y2="144" stroke="#e5e7eb"/>
<text x="307.0" y="162" text-anchor="middle" font-size="10" fill="#64748b">13.2</text>
<line x1="522.0" y1="42" x2="522.0" y2="144" stroke="#e5e7eb"/>
<text x="522.0" y="162" text-anchor="middle" font-size="10" fill="#64748b">25.5</text>
<line x1="737.0" y1="42" x2="737.0" y2="144" stroke="#e5e7eb"/>
<text x="737.0" y="162" text-anchor="middle" font-size="10" fill="#64748b">37.8</text>
<line x1="952.0" y1="42" x2="952.0" y2="144" stroke="#e5e7eb"/>
<text x="952.0" y="162" text-anchor="middle" font-size="10" fill="#64748b">50</text>
<line x1="92" y1="144.0" x2="952" y2="144.0" stroke="#e5e7eb"/>
<text x="84" y="148.0" text-anchor="end" font-size="10" fill="#64748b">0.035</text>
<line x1="92" y1="110.0" x2="952" y2="110.0" stroke="#e5e7eb"/>
<text x="84" y="114.0" text-anchor="end" font-size="10" fill="#64748b">1.84</text>
<line x1="92" y1="76.0" x2="952" y2="76.0" stroke="#e5e7eb"/>
<text x="84" y="80.0" text-anchor="end" font-size="10" fill="#64748b">3.64</text>
<line x1="92" y1="42.0" x2="952" y2="42.0" stroke="#e5e7eb"/>
<text x="84" y="46.0" text-anchor="end" font-size="10" fill="#64748b">5.45</text>
<polyline points="92.0,42.0 109.6,138.9 127.1,141.5 144.7,143.9 162.2,143.8 179.8,143.8 197.3,144.0 214.9,141.7 232.4,141.9 250.0,143.8 267.5,141.7 285.1,144.0 302.6,144.0 320.2,143.8 337.7,144.0 355.3,143.9 372.8,143.9 390.4,141.2 407.9,143.7 425.5,143.9 443.0,143.8 460.6,143.3 478.1,143.9 495.7,143.5 513.2,141.7 530.8,143.6 548.3,143.8 565.9,143.5 583.4,143.9 601.0,143.9 618.5,143.9 636.1,143.9 653.6,143.7 671.2,143.9 688.7,144.0 706.3,143.9 723.8,143.5 741.4,141.3 758.9,143.9 776.5,143.7 794.0,143.8 811.6,143.6 829.1,143.8 846.7,141.7 864.2,143.9 881.8,141.2 899.3,142.3 916.9,143.9 934.4,143.7 952.0,143.7" fill="none" stroke="#16a34a" stroke-width="2"/>
<text x="952" y="22" text-anchor="end" font-size="11" fill="#64748b">min=0.03499 max=5.446 last=0.04916</text>
</g>
<g transform="translate(0,438)">
<text x="92" y="22" font-size="13" font-weight="700">critic/rewards/mean</text>
<rect x="92" y="42" width="860" height="102" fill="#fafafa" stroke="#e2e8f0"/>
<line x1="92.0" y1="42" x2="92.0" y2="144" stroke="#e5e7eb"/>
<text x="92.0" y="162" text-anchor="middle" font-size="10" fill="#64748b">1</text>
<line x1="307.0" y1="42" x2="307.0" y2="144" stroke="#e5e7eb"/>
<text x="307.0" y="162" text-anchor="middle" font-size="10" fill="#64748b">13.2</text>
<line x1="522.0" y1="42" x2="522.0" y2="144" stroke="#e5e7eb"/>
<text x="522.0" y="162" text-anchor="middle" font-size="10" fill="#64748b">25.5</text>
<line x1="737.0" y1="42" x2="737.0" y2="144" stroke="#e5e7eb"/>
<text x="737.0" y="162" text-anchor="middle" font-size="10" fill="#64748b">37.8</text>
<line x1="952.0" y1="42" x2="952.0" y2="144" stroke="#e5e7eb"/>
<text x="952.0" y="162" text-anchor="middle" font-size="10" fill="#64748b">50</text>
<line x1="92" y1="144.0" x2="952" y2="144.0" stroke="#e5e7eb"/>
<text x="84" y="148.0" text-anchor="end" font-size="10" fill="#64748b">0.39</text>
<line x1="92" y1="110.0" x2="952" y2="110.0" stroke="#e5e7eb"/>
<text x="84" y="114.0" text-anchor="end" font-size="10" fill="#64748b">0.583</text>
<line x1="92" y1="76.0" x2="952" y2="76.0" stroke="#e5e7eb"/>
<text x="84" y="80.0" text-anchor="end" font-size="10" fill="#64748b">0.777</text>
<line x1="92" y1="42.0" x2="952" y2="42.0" stroke="#e5e7eb"/>
<text x="84" y="46.0" text-anchor="end" font-size="10" fill="#64748b">0.97</text>
<polyline points="92.0,56.1 109.6,64.6 127.1,80.0 144.7,42.0 162.2,42.0 179.8,78.1 197.3,73.0 214.9,87.7 232.4,82.0 250.0,64.9 267.5,59.1 285.1,42.0 302.6,95.6 320.2,93.0 337.7,87.7 355.3,115.9 372.8,144.0 390.4,64.9 407.9,64.9 425.5,78.1 443.0,87.7 460.6,64.9 478.1,99.0 495.7,98.3 513.2,64.9 530.8,64.9 548.3,82.0 565.9,64.9 583.4,42.0 601.0,53.4 618.5,94.8 636.1,58.5 653.6,49.6 671.2,42.0 688.7,42.0 706.3,42.0 723.8,64.9 741.4,96.2 758.9,45.8 776.5,64.9 794.0,42.0 811.6,64.9 829.1,42.0 846.7,87.7 864.2,64.9 881.8,91.5 899.3,61.9 916.9,64.9 934.4,70.1 952.0,68.7" fill="none" stroke="#dc2626" stroke-width="2"/>
<text x="952" y="22" text-anchor="end" font-size="11" fill="#64748b">min=0.39 max=0.97 last=0.8184</text>
</g>
<g transform="translate(0,628)">
<text x="92" y="22" font-size="13" font-weight="700">critic/rewards/max</text>
<rect x="92" y="42" width="860" height="102" fill="#fafafa" stroke="#e2e8f0"/>
<line x1="92.0" y1="42" x2="92.0" y2="144" stroke="#e5e7eb"/>
<text x="92.0" y="162" text-anchor="middle" font-size="10" fill="#64748b">1</text>
<line x1="307.0" y1="42" x2="307.0" y2="144" stroke="#e5e7eb"/>
<text x="307.0" y="162" text-anchor="middle" font-size="10" fill="#64748b">13.2</text>
<line x1="522.0" y1="42" x2="522.0" y2="144" stroke="#e5e7eb"/>
<text x="522.0" y="162" text-anchor="middle" font-size="10" fill="#64748b">25.5</text>
<line x1="737.0" y1="42" x2="737.0" y2="144" stroke="#e5e7eb"/>
<text x="737.0" y="162" text-anchor="middle" font-size="10" fill="#64748b">37.8</text>
<line x1="952.0" y1="42" x2="952.0" y2="144" stroke="#e5e7eb"/>
<text x="952.0" y="162" text-anchor="middle" font-size="10" fill="#64748b">50</text>
<line x1="92" y1="144.0" x2="952" y2="144.0" stroke="#e5e7eb"/>
<text x="84" y="148.0" text-anchor="end" font-size="10" fill="#64748b">0.45</text>
<line x1="92" y1="110.0" x2="952" y2="110.0" stroke="#e5e7eb"/>
<text x="84" y="114.0" text-anchor="end" font-size="10" fill="#64748b">0.623</text>
<line x1="92" y1="76.0" x2="952" y2="76.0" stroke="#e5e7eb"/>
<text x="84" y="80.0" text-anchor="end" font-size="10" fill="#64748b">0.797</text>
<line x1="92" y1="42.0" x2="952" y2="42.0" stroke="#e5e7eb"/>
<text x="84" y="46.0" text-anchor="end" font-size="10" fill="#64748b">0.97</text>
<polyline points="92.0,42.0 109.6,42.0 127.1,42.0 144.7,42.0 162.2,42.0 179.8,42.0 197.3,42.0 214.9,42.0 232.4,42.0 250.0,42.0 267.5,42.0 285.1,42.0 302.6,42.0 320.2,42.0 337.7,42.0 355.3,42.0 372.8,144.0 390.4,42.0 407.9,42.0 425.5,42.0 443.0,42.0 460.6,42.0 478.1,42.0 495.7,42.0 513.2,42.0 530.8,42.0 548.3,42.0 565.9,42.0 583.4,42.0 601.0,42.0 618.5,42.0 636.1,42.0 653.6,42.0 671.2,42.0 688.7,42.0 706.3,42.0 723.8,42.0 741.4,42.0 758.9,42.0 776.5,42.0 794.0,42.0 811.6,42.0 829.1,42.0 846.7,42.0 864.2,42.0 881.8,42.0 899.3,42.0 916.9,42.0 934.4,42.0 952.0,42.0" fill="none" stroke="#9333ea" stroke-width="2"/>
<text x="952" y="22" text-anchor="end" font-size="11" fill="#64748b">min=0.45 max=0.97 last=0.97</text>
</g>
<g transform="translate(0,818)">
<text x="92" y="22" font-size="13" font-weight="700">critic/rewards/min</text>
<rect x="92" y="42" width="860" height="102" fill="#fafafa" stroke="#e2e8f0"/>
<line x1="92.0" y1="42" x2="92.0" y2="144" stroke="#e5e7eb"/>
<text x="92.0" y="162" text-anchor="middle" font-size="10" fill="#64748b">1</text>
<line x1="307.0" y1="42" x2="307.0" y2="144" stroke="#e5e7eb"/>
<text x="307.0" y="162" text-anchor="middle" font-size="10" fill="#64748b">13.2</text>
<line x1="522.0" y1="42" x2="522.0" y2="144" stroke="#e5e7eb"/>
<text x="522.0" y="162" text-anchor="middle" font-size="10" fill="#64748b">25.5</text>
<line x1="737.0" y1="42" x2="737.0" y2="144" stroke="#e5e7eb"/>
<text x="737.0" y="162" text-anchor="middle" font-size="10" fill="#64748b">37.8</text>
<line x1="952.0" y1="42" x2="952.0" y2="144" stroke="#e5e7eb"/>
<text x="952.0" y="162" text-anchor="middle" font-size="10" fill="#64748b">50</text>
<line x1="92" y1="144.0" x2="952" y2="144.0" stroke="#e5e7eb"/>
<text x="84" y="148.0" text-anchor="end" font-size="10" fill="#64748b">0.08</text>
<line x1="92" y1="110.0" x2="952" y2="110.0" stroke="#e5e7eb"/>
<text x="84" y="114.0" text-anchor="end" font-size="10" fill="#64748b">0.377</text>
<line x1="92" y1="76.0" x2="952" y2="76.0" stroke="#e5e7eb"/>
<text x="84" y="80.0" text-anchor="end" font-size="10" fill="#64748b">0.673</text>
<line x1="92" y1="42.0" x2="952" y2="42.0" stroke="#e5e7eb"/>
<text x="84" y="46.0" text-anchor="end" font-size="10" fill="#64748b">0.97</text>
<polyline points="92.0,115.3 109.6,71.5 127.1,101.6 144.7,42.0 162.2,42.0 179.8,101.6 197.3,95.9 214.9,101.6 232.4,101.6 250.0,101.6 267.5,101.6 285.1,42.0 302.6,144.0 320.2,115.3 337.7,101.6 355.3,115.3 372.8,115.3 390.4,101.6 407.9,101.6 425.5,101.6 443.0,101.6 460.6,101.6 478.1,101.6 495.7,115.3 513.2,101.6 530.8,101.6 548.3,101.6 565.9,101.6 583.4,42.0 601.0,101.6 618.5,115.3 636.1,115.3 653.6,81.5 671.2,42.0 688.7,42.0 706.3,42.0 723.8,101.6 741.4,101.6 758.9,81.5 776.5,101.6 794.0,42.0 811.6,101.6 829.1,42.0 846.7,101.6 864.2,101.6 881.8,101.6 899.3,101.6 916.9,101.6 934.4,115.3 952.0,101.6" fill="none" stroke="#ea580c" stroke-width="2"/>
<text x="952" y="22" text-anchor="end" font-size="11" fill="#64748b">min=0.08 max=0.97 last=0.45</text>
</g>
<g transform="translate(0,1008)">
<text x="92" y="22" font-size="13" font-weight="700">timing_s/reward</text>
<rect x="92" y="42" width="860" height="102" fill="#fafafa" stroke="#e2e8f0"/>
<line x1="92.0" y1="42" x2="92.0" y2="144" stroke="#e5e7eb"/>
<text x="92.0" y="162" text-anchor="middle" font-size="10" fill="#64748b">1</text>
<line x1="307.0" y1="42" x2="307.0" y2="144" stroke="#e5e7eb"/>
<text x="307.0" y="162" text-anchor="middle" font-size="10" fill="#64748b">13.2</text>
<line x1="522.0" y1="42" x2="522.0" y2="144" stroke="#e5e7eb"/>
<text x="522.0" y="162" text-anchor="middle" font-size="10" fill="#64748b">25.5</text>
<line x1="737.0" y1="42" x2="737.0" y2="144" stroke="#e5e7eb"/>
<text x="737.0" y="162" text-anchor="middle" font-size="10" fill="#64748b">37.8</text>
<line x1="952.0" y1="42" x2="952.0" y2="144" stroke="#e5e7eb"/>
<text x="952.0" y="162" text-anchor="middle" font-size="10" fill="#64748b">50</text>
<line x1="92" y1="144.0" x2="952" y2="144.0" stroke="#e5e7eb"/>
<text x="84" y="148.0" text-anchor="end" font-size="10" fill="#64748b">1.88e-05</text>
<line x1="92" y1="110.0" x2="952" y2="110.0" stroke="#e5e7eb"/>
<text x="84" y="114.0" text-anchor="end" font-size="10" fill="#64748b">3.31e-05</text>
<line x1="92" y1="76.0" x2="952" y2="76.0" stroke="#e5e7eb"/>
<text x="84" y="80.0" text-anchor="end" font-size="10" fill="#64748b">4.74e-05</text>
<line x1="92" y1="42.0" x2="952" y2="42.0" stroke="#e5e7eb"/>
<text x="84" y="46.0" text-anchor="end" font-size="10" fill="#64748b">6.16e-05</text>
<polyline points="92.0,144.0 109.6,143.6 127.1,123.5 144.7,131.0 162.2,138.7 179.8,139.9 197.3,136.6 214.9,43.7 232.4,141.3 250.0,114.8 267.5,127.1 285.1,121.4 302.6,139.7 320.2,84.2 337.7,134.1 355.3,138.9 372.8,92.3 390.4,137.1 407.9,137.7 425.5,121.2 443.0,115.0 460.6,116.1 478.1,129.1 495.7,131.9 513.2,134.3 530.8,143.1 548.3,140.3 565.9,141.6 583.4,122.5 601.0,137.7 618.5,70.4 636.1,130.2 653.6,122.2 671.2,136.2 688.7,131.1 706.3,125.6 723.8,134.3 741.4,81.1 758.9,138.8 776.5,138.1 794.0,93.7 811.6,133.7 829.1,134.0 846.7,91.6 864.2,42.0 881.8,109.8 899.3,139.5 916.9,138.5 934.4,137.7 952.0,75.6" fill="none" stroke="#0891b2" stroke-width="2"/>
<text x="952" y="22" text-anchor="end" font-size="11" fill="#64748b">min=1.881e-05 max=6.164e-05 last=4.752e-05</text>
</g>
<g transform="translate(0,1198)">
<text x="92" y="22" font-size="13" font-weight="700">critic/advantages/max</text>
<rect x="92" y="42" width="860" height="102" fill="#fafafa" stroke="#e2e8f0"/>
<line x1="92.0" y1="42" x2="92.0" y2="144" stroke="#e5e7eb"/>
<text x="92.0" y="162" text-anchor="middle" font-size="10" fill="#64748b">1</text>
<line x1="307.0" y1="42" x2="307.0" y2="144" stroke="#e5e7eb"/>
<text x="307.0" y="162" text-anchor="middle" font-size="10" fill="#64748b">13.2</text>
<line x1="522.0" y1="42" x2="522.0" y2="144" stroke="#e5e7eb"/>
<text x="522.0" y="162" text-anchor="middle" font-size="10" fill="#64748b">25.5</text>
<line x1="737.0" y1="42" x2="737.0" y2="144" stroke="#e5e7eb"/>
<text x="737.0" y="162" text-anchor="middle" font-size="10" fill="#64748b">37.8</text>
<line x1="952.0" y1="42" x2="952.0" y2="144" stroke="#e5e7eb"/>
<text x="952.0" y="162" text-anchor="middle" font-size="10" fill="#64748b">50</text>
<line x1="92" y1="144.0" x2="952" y2="144.0" stroke="#e5e7eb"/>
<text x="84" y="148.0" text-anchor="end" font-size="10" fill="#64748b">0</text>
<line x1="92" y1="110.0" x2="952" y2="110.0" stroke="#e5e7eb"/>
<text x="84" y="114.0" text-anchor="end" font-size="10" fill="#64748b">0.5</text>
<line x1="92" y1="76.0" x2="952" y2="76.0" stroke="#e5e7eb"/>
<text x="84" y="80.0" text-anchor="end" font-size="10" fill="#64748b">1</text>
<line x1="92" y1="42.0" x2="952" y2="42.0" stroke="#e5e7eb"/>
<text x="84" y="46.0" text-anchor="end" font-size="10" fill="#64748b">1.5</text>
<polyline points="92.0,85.1 109.6,144.0 127.1,144.0 144.7,144.0 162.2,144.0 179.8,85.1 197.3,42.0 214.9,144.0 232.4,42.0 250.0,144.0 267.5,42.0 285.1,144.0 302.6,85.1 320.2,144.0 337.7,144.0 355.3,144.0 372.8,144.0 390.4,144.0 407.9,144.0 425.5,110.0 443.0,144.0 460.6,144.0 478.1,144.0 495.7,144.0 513.2,144.0 530.8,144.0 548.3,42.0 565.9,144.0 583.4,144.0 601.0,85.1 618.5,110.0 636.1,110.0 653.6,85.1 671.2,144.0 688.7,144.0 706.3,144.0 723.8,144.0 741.4,42.0 758.9,110.0 776.5,144.0 794.0,144.0 811.6,144.0 829.1,144.0 846.7,144.0 864.2,144.0 881.8,110.0 899.3,42.0 916.9,144.0 934.4,144.0 952.0,110.0" fill="none" stroke="#4f46e5" stroke-width="2"/>
<text x="952" y="22" text-anchor="end" font-size="11" fill="#64748b">min=0 max=1.5 last=0.5</text>
</g>
<g transform="translate(0,1388)">
<text x="92" y="22" font-size="13" font-weight="700">critic/advantages/mean</text>
<rect x="92" y="42" width="860" height="102" fill="#fafafa" stroke="#e2e8f0"/>
<line x1="92.0" y1="42" x2="92.0" y2="144" stroke="#e5e7eb"/>
<text x="92.0" y="162" text-anchor="middle" font-size="10" fill="#64748b">1</text>
<line x1="307.0" y1="42" x2="307.0" y2="144" stroke="#e5e7eb"/>
<text x="307.0" y="162" text-anchor="middle" font-size="10" fill="#64748b">13.2</text>
<line x1="522.0" y1="42" x2="522.0" y2="144" stroke="#e5e7eb"/>
<text x="522.0" y="162" text-anchor="middle" font-size="10" fill="#64748b">25.5</text>
<line x1="737.0" y1="42" x2="737.0" y2="144" stroke="#e5e7eb"/>
<text x="737.0" y="162" text-anchor="middle" font-size="10" fill="#64748b">37.8</text>
<line x1="952.0" y1="42" x2="952.0" y2="144" stroke="#e5e7eb"/>
<text x="952.0" y="162" text-anchor="middle" font-size="10" fill="#64748b">50</text>
<line x1="92" y1="144.0" x2="952" y2="144.0" stroke="#e5e7eb"/>
<text x="84" y="148.0" text-anchor="end" font-size="10" fill="#64748b">-0.193</text>
<line x1="92" y1="110.0" x2="952" y2="110.0" stroke="#e5e7eb"/>
<text x="84" y="114.0" text-anchor="end" font-size="10" fill="#64748b">-0.0978</text>
<line x1="92" y1="76.0" x2="952" y2="76.0" stroke="#e5e7eb"/>
<text x="84" y="80.0" text-anchor="end" font-size="10" fill="#64748b">-0.00212</text>
<line x1="92" y1="42.0" x2="952" y2="42.0" stroke="#e5e7eb"/>
<text x="84" y="46.0" text-anchor="end" font-size="10" fill="#64748b">0.0935</text>
<polyline points="92.0,74.5 109.6,75.2 127.1,75.2 144.7,75.2 162.2,75.2 179.8,73.8 197.3,42.0 214.9,75.2 232.4,75.0 250.0,75.2 267.5,73.0 285.1,75.2 302.6,144.0 320.2,75.2 337.7,75.2 355.3,75.2 372.8,75.2 390.4,75.2 407.9,75.2 425.5,75.7 443.0,75.2 460.6,75.2 478.1,75.2 495.7,75.2 513.2,75.2 530.8,75.2 548.3,89.7 565.9,75.2 583.4,75.2 601.0,87.0 618.5,75.1 636.1,56.6 653.6,90.5 671.2,75.2 688.7,75.2 706.3,75.2 723.8,75.2 741.4,54.0 758.9,76.4 776.5,75.2 794.0,75.2 811.6,75.2 829.1,75.2 846.7,75.2 864.2,75.2 881.8,76.4 899.3,88.4 916.9,75.2 934.4,75.2 952.0,70.8" fill="none" stroke="#be123c" stroke-width="2"/>
<text x="952" y="22" text-anchor="end" font-size="11" fill="#64748b">min=-0.1935 max=0.09355 last=0.01246</text>
</g>
<g transform="translate(0,1578)">
<text x="92" y="22" font-size="13" font-weight="700">critic/advantages/min</text>
<rect x="92" y="42" width="860" height="102" fill="#fafafa" stroke="#e2e8f0"/>
<line x1="92.0" y1="42" x2="92.0" y2="144" stroke="#e5e7eb"/>
<text x="92.0" y="162" text-anchor="middle" font-size="10" fill="#64748b">1</text>
<line x1="307.0" y1="42" x2="307.0" y2="144" stroke="#e5e7eb"/>
<text x="307.0" y="162" text-anchor="middle" font-size="10" fill="#64748b">13.2</text>
<line x1="522.0" y1="42" x2="522.0" y2="144" stroke="#e5e7eb"/>
<text x="522.0" y="162" text-anchor="middle" font-size="10" fill="#64748b">25.5</text>
<line x1="737.0" y1="42" x2="737.0" y2="144" stroke="#e5e7eb"/>
<text x="737.0" y="162" text-anchor="middle" font-size="10" fill="#64748b">37.8</text>
<line x1="952.0" y1="42" x2="952.0" y2="144" stroke="#e5e7eb"/>
<text x="952.0" y="162" text-anchor="middle" font-size="10" fill="#64748b">50</text>
<line x1="92" y1="144.0" x2="952" y2="144.0" stroke="#e5e7eb"/>
<text x="84" y="148.0" text-anchor="end" font-size="10" fill="#64748b">-1.5</text>
<line x1="92" y1="110.0" x2="952" y2="110.0" stroke="#e5e7eb"/>
<text x="84" y="114.0" text-anchor="end" font-size="10" fill="#64748b">-1</text>
<line x1="92" y1="76.0" x2="952" y2="76.0" stroke="#e5e7eb"/>
<text x="84" y="80.0" text-anchor="end" font-size="10" fill="#64748b">-0.5</text>
<line x1="92" y1="42.0" x2="952" y2="42.0" stroke="#e5e7eb"/>
<text x="84" y="46.0" text-anchor="end" font-size="10" fill="#64748b">0</text>
<polyline points="92.0,100.9 109.6,42.0 127.1,42.0 144.7,42.0 162.2,42.0 179.8,100.9 197.3,76.0 214.9,42.0 232.4,76.0 250.0,42.0 267.5,76.0 285.1,42.0 302.6,100.9 320.2,42.0 337.7,42.0 355.3,42.0 372.8,42.0 390.4,42.0 407.9,42.0 425.5,144.0 443.0,42.0 460.6,42.0 478.1,42.0 495.7,42.0 513.2,42.0 530.8,42.0 548.3,76.0 565.9,42.0 583.4,42.0 601.0,100.9 618.5,144.0 636.1,144.0 653.6,100.9 671.2,42.0 688.7,42.0 706.3,42.0 723.8,42.0 741.4,76.0 758.9,144.0 776.5,42.0 794.0,42.0 811.6,42.0 829.1,42.0 846.7,42.0 864.2,42.0 881.8,144.0 899.3,100.9 916.9,42.0 934.4,42.0 952.0,144.0" fill="none" stroke="#2563eb" stroke-width="2"/>
<text x="952" y="22" text-anchor="end" font-size="11" fill="#64748b">min=-1.5 max=0 last=-1.5</text>
</g>
<g transform="translate(0,1768)">
<text x="92" y="22" font-size="13" font-weight="700">actor/grad_norm</text>
<rect x="92" y="42" width="860" height="102" fill="#fafafa" stroke="#e2e8f0"/>
<line x1="92.0" y1="42" x2="92.0" y2="144" stroke="#e5e7eb"/>
<text x="92.0" y="162" text-anchor="middle" font-size="10" fill="#64748b">1</text>
<line x1="307.0" y1="42" x2="307.0" y2="144" stroke="#e5e7eb"/>
<text x="307.0" y="162" text-anchor="middle" font-size="10" fill="#64748b">13.2</text>
<line x1="522.0" y1="42" x2="522.0" y2="144" stroke="#e5e7eb"/>
<text x="522.0" y="162" text-anchor="middle" font-size="10" fill="#64748b">25.5</text>
<line x1="737.0" y1="42" x2="737.0" y2="144" stroke="#e5e7eb"/>
<text x="737.0" y="162" text-anchor="middle" font-size="10" fill="#64748b">37.8</text>
<line x1="952.0" y1="42" x2="952.0" y2="144" stroke="#e5e7eb"/>
<text x="952.0" y="162" text-anchor="middle" font-size="10" fill="#64748b">50</text>
<line x1="92" y1="144.0" x2="952" y2="144.0" stroke="#e5e7eb"/>
<text x="84" y="148.0" text-anchor="end" font-size="10" fill="#64748b">0</text>
<line x1="92" y1="110.0" x2="952" y2="110.0" stroke="#e5e7eb"/>
<text x="84" y="114.0" text-anchor="end" font-size="10" fill="#64748b">2.44</text>
<line x1="92" y1="76.0" x2="952" y2="76.0" stroke="#e5e7eb"/>
<text x="84" y="80.0" text-anchor="end" font-size="10" fill="#64748b">4.89</text>
<line x1="92" y1="42.0" x2="952" y2="42.0" stroke="#e5e7eb"/>
<text x="84" y="46.0" text-anchor="end" font-size="10" fill="#64748b">7.33</text>
<polyline points="92.0,118.8 109.6,144.0 127.1,144.0 144.7,144.0 162.2,144.0 179.8,125.6 197.3,67.0 214.9,144.0 232.4,120.3 250.0,144.0 267.5,66.6 285.1,144.0 302.6,128.0 320.2,144.0 337.7,144.0 355.3,144.0 372.8,144.0 390.4,144.0 407.9,144.0 425.5,52.0 443.0,144.0 460.6,144.0 478.1,144.0 495.7,144.0 513.2,144.0 530.8,144.0 548.3,120.9 565.9,144.0 583.4,144.0 601.0,127.5 618.5,136.3 636.1,103.2 653.6,100.8 671.2,144.0 688.7,144.0 706.3,144.0 723.8,144.0 741.4,88.4 758.9,120.8 776.5,144.0 794.0,144.0 811.6,144.0 829.1,144.0 846.7,144.0 864.2,144.0 881.8,115.2 899.3,42.0 916.9,144.0 934.4,144.0 952.0,100.5" fill="none" stroke="#16a34a" stroke-width="2"/>
<text x="952" y="22" text-anchor="end" font-size="11" fill="#64748b">min=0 max=7.329 last=3.123</text>
</g>
<g transform="translate(0,1958)">
<text x="92" y="22" font-size="13" font-weight="700">actor/loss</text>
<rect x="92" y="42" width="860" height="102" fill="#fafafa" stroke="#e2e8f0"/>
<line x1="92.0" y1="42" x2="92.0" y2="144" stroke="#e5e7eb"/>
<text x="92.0" y="162" text-anchor="middle" font-size="10" fill="#64748b">1</text>
<line x1="307.0" y1="42" x2="307.0" y2="144" stroke="#e5e7eb"/>
<text x="307.0" y="162" text-anchor="middle" font-size="10" fill="#64748b">13.2</text>
<line x1="522.0" y1="42" x2="522.0" y2="144" stroke="#e5e7eb"/>
<text x="522.0" y="162" text-anchor="middle" font-size="10" fill="#64748b">25.5</text>
<line x1="737.0" y1="42" x2="737.0" y2="144" stroke="#e5e7eb"/>
<text x="737.0" y="162" text-anchor="middle" font-size="10" fill="#64748b">37.8</text>
<line x1="952.0" y1="42" x2="952.0" y2="144" stroke="#e5e7eb"/>
<text x="952.0" y="162" text-anchor="middle" font-size="10" fill="#64748b">50</text>
<line x1="92" y1="144.0" x2="952" y2="144.0" stroke="#e5e7eb"/>
<text x="84" y="148.0" text-anchor="end" font-size="10" fill="#64748b">-0.0935</text>
<line x1="92" y1="110.0" x2="952" y2="110.0" stroke="#e5e7eb"/>
<text x="84" y="114.0" text-anchor="end" font-size="10" fill="#64748b">0.00212</text>
<line x1="92" y1="76.0" x2="952" y2="76.0" stroke="#e5e7eb"/>
<text x="84" y="80.0" text-anchor="end" font-size="10" fill="#64748b">0.0978</text>
<line x1="92" y1="42.0" x2="952" y2="42.0" stroke="#e5e7eb"/>
<text x="84" y="46.0" text-anchor="end" font-size="10" fill="#64748b">0.193</text>
<polyline points="92.0,111.5 109.6,110.8 127.1,110.8 144.7,110.8 162.2,110.8 179.8,112.2 197.3,144.0 214.9,110.8 232.4,111.0 250.0,110.8 267.5,113.0 285.1,110.8 302.6,42.0 320.2,110.8 337.7,110.8 355.3,110.8 372.8,110.8 390.4,110.8 407.9,110.8 425.5,110.3 443.0,110.8 460.6,110.8 478.1,110.8 495.7,110.8 513.2,110.8 530.8,110.8 548.3,96.3 565.9,110.8 583.4,110.8 601.0,99.0 618.5,110.9 636.1,129.4 653.6,95.5 671.2,110.8 688.7,110.8 706.3,110.8 723.8,110.8 741.4,132.0 758.9,109.6 776.5,110.8 794.0,110.8 811.6,110.8 829.1,110.8 846.7,110.8 864.2,110.8 881.8,109.6 899.3,97.6 916.9,110.8 934.4,110.8 952.0,115.2" fill="none" stroke="#dc2626" stroke-width="2"/>
<text x="952" y="22" text-anchor="end" font-size="11" fill="#64748b">min=-0.09355 max=0.1935 last=-0.01246</text>
</g>
<g transform="translate(0,2148)">
<text x="92" y="22" font-size="13" font-weight="700">actor/pg_loss</text>
<rect x="92" y="42" width="860" height="102" fill="#fafafa" stroke="#e2e8f0"/>
<line x1="92.0" y1="42" x2="92.0" y2="144" stroke="#e5e7eb"/>
<text x="92.0" y="162" text-anchor="middle" font-size="10" fill="#64748b">1</text>
<line x1="307.0" y1="42" x2="307.0" y2="144" stroke="#e5e7eb"/>
<text x="307.0" y="162" text-anchor="middle" font-size="10" fill="#64748b">13.2</text>
<line x1="522.0" y1="42" x2="522.0" y2="144" stroke="#e5e7eb"/>
<text x="522.0" y="162" text-anchor="middle" font-size="10" fill="#64748b">25.5</text>
<line x1="737.0" y1="42" x2="737.0" y2="144" stroke="#e5e7eb"/>
<text x="737.0" y="162" text-anchor="middle" font-size="10" fill="#64748b">37.8</text>
<line x1="952.0" y1="42" x2="952.0" y2="144" stroke="#e5e7eb"/>
<text x="952.0" y="162" text-anchor="middle" font-size="10" fill="#64748b">50</text>
<line x1="92" y1="144.0" x2="952" y2="144.0" stroke="#e5e7eb"/>
<text x="84" y="148.0" text-anchor="end" font-size="10" fill="#64748b">-0.0935</text>
<line x1="92" y1="110.0" x2="952" y2="110.0" stroke="#e5e7eb"/>
<text x="84" y="114.0" text-anchor="end" font-size="10" fill="#64748b">0.00212</text>
<line x1="92" y1="76.0" x2="952" y2="76.0" stroke="#e5e7eb"/>
<text x="84" y="80.0" text-anchor="end" font-size="10" fill="#64748b">0.0978</text>
<line x1="92" y1="42.0" x2="952" y2="42.0" stroke="#e5e7eb"/>
<text x="84" y="46.0" text-anchor="end" font-size="10" fill="#64748b">0.193</text>
<polyline points="92.0,111.5 109.6,110.8 127.1,110.8 144.7,110.8 162.2,110.8 179.8,112.2 197.3,144.0 214.9,110.8 232.4,111.0 250.0,110.8 267.5,113.0 285.1,110.8 302.6,42.0 320.2,110.8 337.7,110.8 355.3,110.8 372.8,110.8 390.4,110.8 407.9,110.8 425.5,110.3 443.0,110.8 460.6,110.8 478.1,110.8 495.7,110.8 513.2,110.8 530.8,110.8 548.3,96.3 565.9,110.8 583.4,110.8 601.0,99.0 618.5,110.9 636.1,129.4 653.6,95.5 671.2,110.8 688.7,110.8 706.3,110.8 723.8,110.8 741.4,132.0 758.9,109.6 776.5,110.8 794.0,110.8 811.6,110.8 829.1,110.8 846.7,110.8 864.2,110.8 881.8,109.6 899.3,97.6 916.9,110.8 934.4,110.8 952.0,115.2" fill="none" stroke="#9333ea" stroke-width="2"/>
<text x="952" y="22" text-anchor="end" font-size="11" fill="#64748b">min=-0.09355 max=0.1935 last=-0.01246</text>
</g>
<g transform="translate(0,2338)">
<text x="92" y="22" font-size="13" font-weight="700">actor/entropy</text>
<rect x="92" y="42" width="860" height="102" fill="#fafafa" stroke="#e2e8f0"/>
<line x1="92.0" y1="42" x2="92.0" y2="144" stroke="#e5e7eb"/>
<text x="92.0" y="162" text-anchor="middle" font-size="10" fill="#64748b">1</text>
<line x1="307.0" y1="42" x2="307.0" y2="144" stroke="#e5e7eb"/>
<text x="307.0" y="162" text-anchor="middle" font-size="10" fill="#64748b">13.2</text>
<line x1="522.0" y1="42" x2="522.0" y2="144" stroke="#e5e7eb"/>
<text x="522.0" y="162" text-anchor="middle" font-size="10" fill="#64748b">25.5</text>
<line x1="737.0" y1="42" x2="737.0" y2="144" stroke="#e5e7eb"/>
<text x="737.0" y="162" text-anchor="middle" font-size="10" fill="#64748b">37.8</text>
<line x1="952.0" y1="42" x2="952.0" y2="144" stroke="#e5e7eb"/>
<text x="952.0" y="162" text-anchor="middle" font-size="10" fill="#64748b">50</text>
<line x1="92" y1="144.0" x2="952" y2="144.0" stroke="#e5e7eb"/>
<text x="84" y="148.0" text-anchor="end" font-size="10" fill="#64748b">0.00162</text>
<line x1="92" y1="110.0" x2="952" y2="110.0" stroke="#e5e7eb"/>
<text x="84" y="114.0" text-anchor="end" font-size="10" fill="#64748b">0.0125</text>
<line x1="92" y1="76.0" x2="952" y2="76.0" stroke="#e5e7eb"/>
<text x="84" y="80.0" text-anchor="end" font-size="10" fill="#64748b">0.0234</text>
<line x1="92" y1="42.0" x2="952" y2="42.0" stroke="#e5e7eb"/>
<text x="84" y="46.0" text-anchor="end" font-size="10" fill="#64748b">0.0343</text>
<polyline points="92.0,79.9 109.6,140.6 127.1,116.9 144.7,103.3 162.2,77.0 179.8,116.2 197.3,50.6 214.9,84.5 232.4,111.7 250.0,87.5 267.5,130.1 285.1,110.3 302.6,91.5 320.2,83.8 337.7,85.5 355.3,82.9 372.8,52.6 390.4,97.0 407.9,109.5 425.5,118.7 443.0,73.6 460.6,95.5 478.1,72.3 495.7,144.0 513.2,104.7 530.8,93.7 548.3,42.0 565.9,76.2 583.4,92.3 601.0,76.0 618.5,96.2 636.1,77.4 653.6,104.0 671.2,86.8 688.7,137.7 706.3,92.3 723.8,83.9 741.4,117.6 758.9,78.6 776.5,94.0 794.0,114.9 811.6,103.9 829.1,130.8 846.7,57.0 864.2,48.8 881.8,112.3 899.3,115.3 916.9,116.2 934.4,116.6 952.0,125.2" fill="none" stroke="#ea580c" stroke-width="2"/>
<text x="952" y="22" text-anchor="end" font-size="11" fill="#64748b">min=0.001619 max=0.03433 last=0.007648</text>
</g>
<g transform="translate(0,2528)">
<text x="92" y="22" font-size="13" font-weight="700">actor/ppo_kl</text>
<rect x="92" y="42" width="860" height="102" fill="#fafafa" stroke="#e2e8f0"/>
<line x1="92.0" y1="42" x2="92.0" y2="144" stroke="#e5e7eb"/>
<text x="92.0" y="162" text-anchor="middle" font-size="10" fill="#64748b">1</text>
<line x1="307.0" y1="42" x2="307.0" y2="144" stroke="#e5e7eb"/>
<text x="307.0" y="162" text-anchor="middle" font-size="10" fill="#64748b">13.2</text>
<line x1="522.0" y1="42" x2="522.0" y2="144" stroke="#e5e7eb"/>
<text x="522.0" y="162" text-anchor="middle" font-size="10" fill="#64748b">25.5</text>
<line x1="737.0" y1="42" x2="737.0" y2="144" stroke="#e5e7eb"/>
<text x="737.0" y="162" text-anchor="middle" font-size="10" fill="#64748b">37.8</text>
<line x1="952.0" y1="42" x2="952.0" y2="144" stroke="#e5e7eb"/>
<text x="952.0" y="162" text-anchor="middle" font-size="10" fill="#64748b">50</text>
<line x1="92" y1="144.0" x2="952" y2="144.0" stroke="#e5e7eb"/>
<text x="84" y="148.0" text-anchor="end" font-size="10" fill="#64748b">-0.5</text>
<line x1="92" y1="110.0" x2="952" y2="110.0" stroke="#e5e7eb"/>
<text x="84" y="114.0" text-anchor="end" font-size="10" fill="#64748b">-0.167</text>
<line x1="92" y1="76.0" x2="952" y2="76.0" stroke="#e5e7eb"/>
<text x="84" y="80.0" text-anchor="end" font-size="10" fill="#64748b">0.167</text>
<line x1="92" y1="42.0" x2="952" y2="42.0" stroke="#e5e7eb"/>
<text x="84" y="46.0" text-anchor="end" font-size="10" fill="#64748b">0.5</text>
<polyline points="92.0,93.0 109.6,93.0 127.1,93.0 144.7,93.0 162.2,93.0 179.8,93.0 197.3,93.0 214.9,93.0 232.4,93.0 250.0,93.0 267.5,93.0 285.1,93.0 302.6,93.0 320.2,93.0 337.7,93.0 355.3,93.0 372.8,93.0 390.4,93.0 407.9,93.0 425.5,93.0 443.0,93.0 460.6,93.0 478.1,93.0 495.7,93.0 513.2,93.0 530.8,93.0 548.3,93.0 565.9,93.0 583.4,93.0 601.0,93.0 618.5,93.0 636.1,93.0 653.6,93.0 671.2,93.0 688.7,93.0 706.3,93.0 723.8,93.0 741.4,93.0 758.9,93.0 776.5,93.0 794.0,93.0 811.6,93.0 829.1,93.0 846.7,93.0 864.2,93.0 881.8,93.0 899.3,93.0 916.9,93.0 934.4,93.0 952.0,93.0" fill="none" stroke="#0891b2" stroke-width="2"/>
<text x="952" y="22" text-anchor="end" font-size="11" fill="#64748b">min=-0.5 max=0.5 last=0</text>
</g>
<g transform="translate(0,2718)">
<text x="92" y="22" font-size="13" font-weight="700">actor/pg_clipfrac</text>
<rect x="92" y="42" width="860" height="102" fill="#fafafa" stroke="#e2e8f0"/>
<line x1="92.0" y1="42" x2="92.0" y2="144" stroke="#e5e7eb"/>
<text x="92.0" y="162" text-anchor="middle" font-size="10" fill="#64748b">1</text>
<line x1="307.0" y1="42" x2="307.0" y2="144" stroke="#e5e7eb"/>
<text x="307.0" y="162" text-anchor="middle" font-size="10" fill="#64748b">13.2</text>
<line x1="522.0" y1="42" x2="522.0" y2="144" stroke="#e5e7eb"/>
<text x="522.0" y="162" text-anchor="middle" font-size="10" fill="#64748b">25.5</text>
<line x1="737.0" y1="42" x2="737.0" y2="144" stroke="#e5e7eb"/>
<text x="737.0" y="162" text-anchor="middle" font-size="10" fill="#64748b">37.8</text>
<line x1="952.0" y1="42" x2="952.0" y2="144" stroke="#e5e7eb"/>
<text x="952.0" y="162" text-anchor="middle" font-size="10" fill="#64748b">50</text>
<line x1="92" y1="144.0" x2="952" y2="144.0" stroke="#e5e7eb"/>
<text x="84" y="148.0" text-anchor="end" font-size="10" fill="#64748b">-0.5</text>
<line x1="92" y1="110.0" x2="952" y2="110.0" stroke="#e5e7eb"/>
<text x="84" y="114.0" text-anchor="end" font-size="10" fill="#64748b">-0.167</text>
<line x1="92" y1="76.0" x2="952" y2="76.0" stroke="#e5e7eb"/>
<text x="84" y="80.0" text-anchor="end" font-size="10" fill="#64748b">0.167</text>
<line x1="92" y1="42.0" x2="952" y2="42.0" stroke="#e5e7eb"/>
<text x="84" y="46.0" text-anchor="end" font-size="10" fill="#64748b">0.5</text>
<polyline points="92.0,93.0 109.6,93.0 127.1,93.0 144.7,93.0 162.2,93.0 179.8,93.0 197.3,93.0 214.9,93.0 232.4,93.0 250.0,93.0 267.5,93.0 285.1,93.0 302.6,93.0 320.2,93.0 337.7,93.0 355.3,93.0 372.8,93.0 390.4,93.0 407.9,93.0 425.5,93.0 443.0,93.0 460.6,93.0 478.1,93.0 495.7,93.0 513.2,93.0 530.8,93.0 548.3,93.0 565.9,93.0 583.4,93.0 601.0,93.0 618.5,93.0 636.1,93.0 653.6,93.0 671.2,93.0 688.7,93.0 706.3,93.0 723.8,93.0 741.4,93.0 758.9,93.0 776.5,93.0 794.0,93.0 811.6,93.0 829.1,93.0 846.7,93.0 864.2,93.0 881.8,93.0 899.3,93.0 916.9,93.0 934.4,93.0 952.0,93.0" fill="none" stroke="#4f46e5" stroke-width="2"/>
<text x="952" y="22" text-anchor="end" font-size="11" fill="#64748b">min=-0.5 max=0.5 last=0</text>
</g>
<g transform="translate(0,2908)">
<text x="92" y="22" font-size="13" font-weight="700">actor/pg_clipfrac_lower</text>
<rect x="92" y="42" width="860" height="102" fill="#fafafa" stroke="#e2e8f0"/>
<line x1="92.0" y1="42" x2="92.0" y2="144" stroke="#e5e7eb"/>
<text x="92.0" y="162" text-anchor="middle" font-size="10" fill="#64748b">1</text>
<line x1="307.0" y1="42" x2="307.0" y2="144" stroke="#e5e7eb"/>
<text x="307.0" y="162" text-anchor="middle" font-size="10" fill="#64748b">13.2</text>
<line x1="522.0" y1="42" x2="522.0" y2="144" stroke="#e5e7eb"/>
<text x="522.0" y="162" text-anchor="middle" font-size="10" fill="#64748b">25.5</text>
<line x1="737.0" y1="42" x2="737.0" y2="144" stroke="#e5e7eb"/>
<text x="737.0" y="162" text-anchor="middle" font-size="10" fill="#64748b">37.8</text>
<line x1="952.0" y1="42" x2="952.0" y2="144" stroke="#e5e7eb"/>
<text x="952.0" y="162" text-anchor="middle" font-size="10" fill="#64748b">50</text>
<line x1="92" y1="144.0" x2="952" y2="144.0" stroke="#e5e7eb"/>
<text x="84" y="148.0" text-anchor="end" font-size="10" fill="#64748b">-0.5</text>
<line x1="92" y1="110.0" x2="952" y2="110.0" stroke="#e5e7eb"/>
<text x="84" y="114.0" text-anchor="end" font-size="10" fill="#64748b">-0.167</text>
<line x1="92" y1="76.0" x2="952" y2="76.0" stroke="#e5e7eb"/>
<text x="84" y="80.0" text-anchor="end" font-size="10" fill="#64748b">0.167</text>
<line x1="92" y1="42.0" x2="952" y2="42.0" stroke="#e5e7eb"/>
<text x="84" y="46.0" text-anchor="end" font-size="10" fill="#64748b">0.5</text>
<polyline points="92.0,93.0 109.6,93.0 127.1,93.0 144.7,93.0 162.2,93.0 179.8,93.0 197.3,93.0 214.9,93.0 232.4,93.0 250.0,93.0 267.5,93.0 285.1,93.0 302.6,93.0 320.2,93.0 337.7,93.0 355.3,93.0 372.8,93.0 390.4,93.0 407.9,93.0 425.5,93.0 443.0,93.0 460.6,93.0 478.1,93.0 495.7,93.0 513.2,93.0 530.8,93.0 548.3,93.0 565.9,93.0 583.4,93.0 601.0,93.0 618.5,93.0 636.1,93.0 653.6,93.0 671.2,93.0 688.7,93.0 706.3,93.0 723.8,93.0 741.4,93.0 758.9,93.0 776.5,93.0 794.0,93.0 811.6,93.0 829.1,93.0 846.7,93.0 864.2,93.0 881.8,93.0 899.3,93.0 916.9,93.0 934.4,93.0 952.0,93.0" fill="none" stroke="#be123c" stroke-width="2"/>
<text x="952" y="22" text-anchor="end" font-size="11" fill="#64748b">min=-0.5 max=0.5 last=0</text>
</g>
<g transform="translate(0,3098)">
<text x="92" y="22" font-size="13" font-weight="700">response_length/clip_ratio</text>
<rect x="92" y="42" width="860" height="102" fill="#fafafa" stroke="#e2e8f0"/>
<line x1="92.0" y1="42" x2="92.0" y2="144" stroke="#e5e7eb"/>
<text x="92.0" y="162" text-anchor="middle" font-size="10" fill="#64748b">1</text>
<line x1="307.0" y1="42" x2="307.0" y2="144" stroke="#e5e7eb"/>
<text x="307.0" y="162" text-anchor="middle" font-size="10" fill="#64748b">13.2</text>
<line x1="522.0" y1="42" x2="522.0" y2="144" stroke="#e5e7eb"/>
<text x="522.0" y="162" text-anchor="middle" font-size="10" fill="#64748b">25.5</text>
<line x1="737.0" y1="42" x2="737.0" y2="144" stroke="#e5e7eb"/>
<text x="737.0" y="162" text-anchor="middle" font-size="10" fill="#64748b">37.8</text>
<line x1="952.0" y1="42" x2="952.0" y2="144" stroke="#e5e7eb"/>
<text x="952.0" y="162" text-anchor="middle" font-size="10" fill="#64748b">50</text>
<line x1="92" y1="144.0" x2="952" y2="144.0" stroke="#e5e7eb"/>
<text x="84" y="148.0" text-anchor="end" font-size="10" fill="#64748b">0</text>
<line x1="92" y1="110.0" x2="952" y2="110.0" stroke="#e5e7eb"/>
<text x="84" y="114.0" text-anchor="end" font-size="10" fill="#64748b">0.0417</text>
<line x1="92" y1="76.0" x2="952" y2="76.0" stroke="#e5e7eb"/>
<text x="84" y="80.0" text-anchor="end" font-size="10" fill="#64748b">0.0833</text>
<line x1="92" y1="42.0" x2="952" y2="42.0" stroke="#e5e7eb"/>
<text x="84" y="46.0" text-anchor="end" font-size="10" fill="#64748b">0.125</text>
<polyline points="92.0,144.0 109.6,144.0 127.1,144.0 144.7,144.0 162.2,144.0 179.8,144.0 197.3,144.0 214.9,144.0 232.4,144.0 250.0,144.0 267.5,144.0 285.1,144.0 302.6,42.0 320.2,144.0 337.7,144.0 355.3,144.0 372.8,144.0 390.4,144.0 407.9,144.0 425.5,144.0 443.0,144.0 460.6,144.0 478.1,144.0 495.7,144.0 513.2,144.0 530.8,144.0 548.3,144.0 565.9,144.0 583.4,144.0 601.0,144.0 618.5,144.0 636.1,144.0 653.6,144.0 671.2,144.0 688.7,144.0 706.3,144.0 723.8,144.0 741.4,144.0 758.9,144.0 776.5,144.0 794.0,144.0 811.6,144.0 829.1,144.0 846.7,144.0 864.2,144.0 881.8,144.0 899.3,144.0 916.9,144.0 934.4,144.0 952.0,144.0" fill="none" stroke="#2563eb" stroke-width="2"/>
<text x="952" y="22" text-anchor="end" font-size="11" fill="#64748b">min=0 max=0.125 last=0</text>
</g>
<g transform="translate(0,3288)">
<text x="92" y="22" font-size="13" font-weight="700">response_length/max</text>
<rect x="92" y="42" width="860" height="102" fill="#fafafa" stroke="#e2e8f0"/>
<line x1="92.0" y1="42" x2="92.0" y2="144" stroke="#e5e7eb"/>
<text x="92.0" y="162" text-anchor="middle" font-size="10" fill="#64748b">1</text>
<line x1="307.0" y1="42" x2="307.0" y2="144" stroke="#e5e7eb"/>
<text x="307.0" y="162" text-anchor="middle" font-size="10" fill="#64748b">13.2</text>
<line x1="522.0" y1="42" x2="522.0" y2="144" stroke="#e5e7eb"/>
<text x="522.0" y="162" text-anchor="middle" font-size="10" fill="#64748b">25.5</text>
<line x1="737.0" y1="42" x2="737.0" y2="144" stroke="#e5e7eb"/>
<text x="737.0" y="162" text-anchor="middle" font-size="10" fill="#64748b">37.8</text>
<line x1="952.0" y1="42" x2="952.0" y2="144" stroke="#e5e7eb"/>
<text x="952.0" y="162" text-anchor="middle" font-size="10" fill="#64748b">50</text>
<line x1="92" y1="144.0" x2="952" y2="144.0" stroke="#e5e7eb"/>
<text x="84" y="148.0" text-anchor="end" font-size="10" fill="#64748b">87</text>
<line x1="92" y1="110.0" x2="952" y2="110.0" stroke="#e5e7eb"/>
<text x="84" y="114.0" text-anchor="end" font-size="10" fill="#64748b">570</text>
<line x1="92" y1="76.0" x2="952" y2="76.0" stroke="#e5e7eb"/>
<text x="84" y="80.0" text-anchor="end" font-size="10" fill="#64748b">1053</text>
<line x1="92" y1="42.0" x2="952" y2="42.0" stroke="#e5e7eb"/>
<text x="84" y="46.0" text-anchor="end" font-size="10" fill="#64748b">1536</text>
<polyline points="92.0,134.4 109.6,140.8 127.1,141.0 144.7,137.0 162.2,134.5 179.8,61.0 197.3,134.6 214.9,127.1 232.4,77.3 250.0,96.4 267.5,133.2 285.1,137.0 302.6,42.0 320.2,110.4 337.7,115.6 355.3,127.7 372.8,103.5 390.4,134.2 407.9,134.4 425.5,137.0 443.0,120.6 460.6,84.6 478.1,64.0 495.7,144.0 513.2,134.6 530.8,124.9 548.3,117.4 565.9,90.9 583.4,134.1 601.0,130.8 618.5,87.5 636.1,135.3 653.6,136.9 671.2,137.0 688.7,139.1 706.3,133.9 723.8,137.0 741.4,136.0 758.9,133.9 776.5,137.7 794.0,139.1 811.6,137.0 829.1,138.7 846.7,109.6 864.2,134.1 881.8,134.1 899.3,136.0 916.9,137.4 934.4,134.0 952.0,136.0" fill="none" stroke="#16a34a" stroke-width="2"/>
<text x="952" y="22" text-anchor="end" font-size="11" fill="#64748b">min=87 max=1536 last=200</text>
</g>
</svg>