<svg xmlns="http://www.w3.org/2000/svg" width="980" height="2148" font-family="Arial, sans-serif">
<rect width="100%" height="100%" fill="white"/>
<text x="24" y="28" font-size="18" font-weight="700">experiments/qwen3_8b_grpo_v19_failure_mined_from_v18_gs80_n8/v19_metrics_key.csv</text>
<text x="24" y="48" font-size="12" fill="#64748b">rows=59 keys=11</text>
<g transform="translate(0,58)">
<text x="92" y="22" font-size="13" font-weight="700">critic/score/mean</text>
<rect x="92" y="42" width="860" height="102" fill="#fafafa" stroke="#e2e8f0"/>
<line x1="92.0" y1="42" x2="92.0" y2="144" stroke="#e5e7eb"/>
<text x="92.0" y="162" text-anchor="middle" font-size="10" fill="#64748b">1</text>
<line x1="307.0" y1="42" x2="307.0" y2="144" stroke="#e5e7eb"/>
<text x="307.0" y="162" text-anchor="middle" font-size="10" fill="#64748b">15.5</text>
<line x1="522.0" y1="42" x2="522.0" y2="144" stroke="#e5e7eb"/>
<text x="522.0" y="162" text-anchor="middle" font-size="10" fill="#64748b">30</text>
<line x1="737.0" y1="42" x2="737.0" y2="144" stroke="#e5e7eb"/>
<text x="737.0" y="162" text-anchor="middle" font-size="10" fill="#64748b">44.5</text>
<line x1="952.0" y1="42" x2="952.0" y2="144" stroke="#e5e7eb"/>
<text x="952.0" y="162" text-anchor="middle" font-size="10" fill="#64748b">59</text>
<line x1="92" y1="144.0" x2="952" y2="144.0" stroke="#e5e7eb"/>
<text x="84" y="148.0" text-anchor="end" font-size="10" fill="#64748b">0.496</text>
<line x1="92" y1="110.0" x2="952" y2="110.0" stroke="#e5e7eb"/>
<text x="84" y="114.0" text-anchor="end" font-size="10" fill="#64748b">0.664</text>
<line x1="92" y1="76.0" x2="952" y2="76.0" stroke="#e5e7eb"/>
<text x="84" y="80.0" text-anchor="end" font-size="10" fill="#64748b">0.832</text>
<line x1="92" y1="42.0" x2="952" y2="42.0" stroke="#e5e7eb"/>
<text x="84" y="46.0" text-anchor="end" font-size="10" fill="#64748b">1</text>
<polyline points="92.0,42.3 106.8,42.0 121.7,133.1 136.5,42.0 151.3,90.6 166.1,91.3 181.0,48.1 195.8,42.0 210.6,48.1 225.4,104.1 240.3,90.6 255.1,42.0 269.9,90.6 284.8,42.0 299.6,99.8 314.4,90.6 329.2,48.1 344.1,42.0 358.9,42.0 373.7,42.0 388.6,42.0 403.4,42.0 418.2,97.7 433.0,90.6 447.9,90.6 462.7,90.6 477.5,90.6 492.3,47.3 507.2,43.2 522.0,90.6 536.8,42.0 551.7,42.1 566.5,42.0 581.3,42.0 596.1,42.0 611.0,97.7 625.8,133.5 640.6,42.4 655.4,43.3 670.3,91.0 685.1,90.6 699.9,42.0 714.8,139.2 729.6,139.4 744.4,48.5 759.2,42.0 774.1,90.6 788.9,102.8 803.7,90.6 818.6,49.1 833.4,42.0 848.2,90.6 863.0,90.6 877.9,75.1 892.7,144.0 907.5,54.2 922.3,43.2 937.2,144.0 952.0,91.6" fill="none" stroke="#2563eb" stroke-width="2"/>
<text x="952" y="22" text-anchor="end" font-size="11" fill="#64748b">min=0.4964 max=1 last=0.755</text>
</g>
<g transform="translate(0,248)">
<text x="92" y="22" font-size="13" font-weight="700">actor/grad_norm</text>
<rect x="92" y="42" width="860" height="102" fill="#fafafa" stroke="#e2e8f0"/>
<line x1="92.0" y1="42" x2="92.0" y2="144" stroke="#e5e7eb"/>
<text x="92.0" y="162" text-anchor="middle" font-size="10" fill="#64748b">1</text>
<line x1="307.0" y1="42" x2="307.0" y2="144" stroke="#e5e7eb"/>
<text x="307.0" y="162" text-anchor="middle" font-size="10" fill="#64748b">15.5</text>
<line x1="522.0" y1="42" x2="522.0" y2="144" stroke="#e5e7eb"/>
<text x="522.0" y="162" text-anchor="middle" font-size="10" fill="#64748b">30</text>
<line x1="737.0" y1="42" x2="737.0" y2="144" stroke="#e5e7eb"/>
<text x="737.0" y="162" text-anchor="middle" font-size="10" fill="#64748b">44.5</text>
<line x1="952.0" y1="42" x2="952.0" y2="144" stroke="#e5e7eb"/>
<text x="952.0" y="162" text-anchor="middle" font-size="10" fill="#64748b">59</text>
<line x1="92" y1="144.0" x2="952" y2="144.0" stroke="#e5e7eb"/>
<text x="84" y="148.0" text-anchor="end" font-size="10" fill="#64748b">0</text>
<line x1="92" y1="110.0" x2="952" y2="110.0" stroke="#e5e7eb"/>
<text x="84" y="114.0" text-anchor="end" font-size="10" fill="#64748b">5.3</text>
<line x1="92" y1="76.0" x2="952" y2="76.0" stroke="#e5e7eb"/>
<text x="84" y="80.0" text-anchor="end" font-size="10" fill="#64748b">10.6</text>
<line x1="92" y1="42.0" x2="952" y2="42.0" stroke="#e5e7eb"/>
<text x="84" y="46.0" text-anchor="end" font-size="10" fill="#64748b">15.9</text>
<polyline points="92.0,119.0 106.8,144.0 121.7,117.9 136.5,144.0 151.3,144.0 166.1,127.3 181.0,105.5 195.8,144.0 210.6,129.6 225.4,123.2 240.3,144.0 255.1,144.0 269.9,144.0 284.8,144.0 299.6,114.6 314.4,144.0 329.2,107.9 344.1,144.0 358.9,144.0 373.7,144.0 388.6,144.0 403.4,144.0 418.2,137.8 433.0,144.0 447.9,144.0 462.7,134.0 477.5,144.0 492.3,120.8 507.2,42.0 522.0,144.0 536.8,144.0 551.7,130.4 566.5,144.0 581.3,144.0 596.1,144.0 611.0,144.0 625.8,111.0 640.6,91.4 655.4,121.0 670.3,126.6 685.1,144.0 699.9,144.0 714.8,144.0 729.6,131.4 744.4,119.5 759.2,144.0 774.1,144.0 788.9,122.7 803.7,144.0 818.6,144.0 833.4,144.0 848.2,144.0 863.0,144.0 877.9,90.0 892.7,119.6 907.5,100.0 922.3,115.8 937.2,128.8 952.0,125.7" fill="none" stroke="#16a34a" stroke-width="2"/>
<text x="952" y="22" text-anchor="end" font-size="11" fill="#64748b">min=0 max=15.91 last=2.848</text>
</g>
<g transform="translate(0,438)">
<text x="92" y="22" font-size="13" font-weight="700">actor/pg_clipfrac</text>
<rect x="92" y="42" width="860" height="102" fill="#fafafa" stroke="#e2e8f0"/>
<line x1="92.0" y1="42" x2="92.0" y2="144" stroke="#e5e7eb"/>
<text x="92.0" y="162" text-anchor="middle" font-size="10" fill="#64748b">1</text>
<line x1="307.0" y1="42" x2="307.0" y2="144" stroke="#e5e7eb"/>
<text x="307.0" y="162" text-anchor="middle" font-size="10" fill="#64748b">15.5</text>
<line x1="522.0" y1="42" x2="522.0" y2="144" stroke="#e5e7eb"/>
<text x="522.0" y="162" text-anchor="middle" font-size="10" fill="#64748b">30</text>
<line x1="737.0" y1="42" x2="737.0" y2="144" stroke="#e5e7eb"/>
<text x="737.0" y="162" text-anchor="middle" font-size="10" fill="#64748b">44.5</text>
<line x1="952.0" y1="42" x2="952.0" y2="144" stroke="#e5e7eb"/>
<text x="952.0" y="162" text-anchor="middle" font-size="10" fill="#64748b">59</text>
<line x1="92" y1="144.0" x2="952" y2="144.0" stroke="#e5e7eb"/>
<text x="84" y="148.0" text-anchor="end" font-size="10" fill="#64748b">-0.5</text>
<line x1="92" y1="110.0" x2="952" y2="110.0" stroke="#e5e7eb"/>
<text x="84" y="114.0" text-anchor="end" font-size="10" fill="#64748b">-0.167</text>
<line x1="92" y1="76.0" x2="952" y2="76.0" stroke="#e5e7eb"/>
<text x="84" y="80.0" text-anchor="end" font-size="10" fill="#64748b">0.167</text>
<line x1="92" y1="42.0" x2="952" y2="42.0" stroke="#e5e7eb"/>
<text x="84" y="46.0" text-anchor="end" font-size="10" fill="#64748b">0.5</text>
<polyline points="92.0,93.0 106.8,93.0 121.7,93.0 136.5,93.0 151.3,93.0 166.1,93.0 181.0,93.0 195.8,93.0 210.6,93.0 225.4,93.0 240.3,93.0 255.1,93.0 269.9,93.0 284.8,93.0 299.6,93.0 314.4,93.0 329.2,93.0 344.1,93.0 358.9,93.0 373.7,93.0 388.6,93.0 403.4,93.0 418.2,93.0 433.0,93.0 447.9,93.0 462.7,93.0 477.5,93.0 492.3,93.0 507.2,93.0 522.0,93.0 536.8,93.0 551.7,93.0 566.5,93.0 581.3,93.0 596.1,93.0 611.0,93.0 625.8,93.0 640.6,93.0 655.4,93.0 670.3,93.0 685.1,93.0 699.9,93.0 714.8,93.0 729.6,93.0 744.4,93.0 759.2,93.0 774.1,93.0 788.9,93.0 803.7,93.0 818.6,93.0 833.4,93.0 848.2,93.0 863.0,93.0 877.9,93.0 892.7,93.0 907.5,93.0 922.3,93.0 937.2,93.0 952.0,93.0" fill="none" stroke="#dc2626" stroke-width="2"/>
<text x="952" y="22" text-anchor="end" font-size="11" fill="#64748b">min=-0.5 max=0.5 last=0</text>
</g>
<g transform="translate(0,628)">
<text x="92" y="22" font-size="13" font-weight="700">actor/pg_clipfrac_lower</text>
<rect x="92" y="42" width="860" height="102" fill="#fafafa" stroke="#e2e8f0"/>
<line x1="92.0" y1="42" x2="92.0" y2="144" stroke="#e5e7eb"/>
<text x="92.0" y="162" text-anchor="middle" font-size="10" fill="#64748b">1</text>
<line x1="307.0" y1="42" x2="307.0" y2="144" stroke="#e5e7eb"/>
<text x="307.0" y="162" text-anchor="middle" font-size="10" fill="#64748b">15.5</text>
<line x1="522.0" y1="42" x2="522.0" y2="144" stroke="#e5e7eb"/>
<text x="522.0" y="162" text-anchor="middle" font-size="10" fill="#64748b">30</text>
<line x1="737.0" y1="42" x2="737.0" y2="144" stroke="#e5e7eb"/>
<text x="737.0" y="162" text-anchor="middle" font-size="10" fill="#64748b">44.5</text>
<line x1="952.0" y1="42" x2="952.0" y2="144" stroke="#e5e7eb"/>
<text x="952.0" y="162" text-anchor="middle" font-size="10" fill="#64748b">59</text>
<line x1="92" y1="144.0" x2="952" y2="144.0" stroke="#e5e7eb"/>
<text x="84" y="148.0" text-anchor="end" font-size="10" fill="#64748b">-0.5</text>
<line x1="92" y1="110.0" x2="952" y2="110.0" stroke="#e5e7eb"/>
<text x="84" y="114.0" text-anchor="end" font-size="10" fill="#64748b">-0.167</text>
<line x1="92" y1="76.0" x2="952" y2="76.0" stroke="#e5e7eb"/>
<text x="84" y="80.0" text-anchor="end" font-size="10" fill="#64748b">0.167</text>
<line x1="92" y1="42.0" x2="952" y2="42.0" stroke="#e5e7eb"/>
<text x="84" y="46.0" text-anchor="end" font-size="10" fill="#64748b">0.5</text>
<polyline points="92.0,93.0 106.8,93.0 121.7,93.0 136.5,93.0 151.3,93.0 166.1,93.0 181.0,93.0 195.8,93.0 210.6,93.0 225.4,93.0 240.3,93.0 255.1,93.0 269.9,93.0 284.8,93.0 299.6,93.0 314.4,93.0 329.2,93.0 344.1,93.0 358.9,93.0 373.7,93.0 388.6,93.0 403.4,93.0 418.2,93.0 433.0,93.0 447.9,93.0 462.7,93.0 477.5,93.0 492.3,93.0 507.2,93.0 522.0,93.0 536.8,93.0 551.7,93.0 566.5,93.0 581.3,93.0 596.1,93.0 611.0,93.0 625.8,93.0 640.6,93.0 655.4,93.0 670.3,93.0 685.1,93.0 699.9,93.0 714.8,93.0 729.6,93.0 744.4,93.0 759.2,93.0 774.1,93.0 788.9,93.0 803.7,93.0 818.6,93.0 833.4,93.0 848.2,93.0 863.0,93.0 877.9,93.0 892.7,93.0 907.5,93.0 922.3,93.0 937.2,93.0 952.0,93.0" fill="none" stroke="#9333ea" stroke-width="2"/>
<text x="952" y="22" text-anchor="end" font-size="11" fill="#64748b">min=-0.5 max=0.5 last=0</text>
</g>
<g transform="translate(0,818)">
<text x="92" y="22" font-size="13" font-weight="700">response_length/clip_ratio</text>
<rect x="92" y="42" width="860" height="102" fill="#fafafa" stroke="#e2e8f0"/>
<line x1="92.0" y1="42" x2="92.0" y2="144" stroke="#e5e7eb"/>
<text x="92.0" y="162" text-anchor="middle" font-size="10" fill="#64748b">1</text>
<line x1="307.0" y1="42" x2="307.0" y2="144" stroke="#e5e7eb"/>
<text x="307.0" y="162" text-anchor="middle" font-size="10" fill="#64748b">15.5</text>
<line x1="522.0" y1="42" x2="522.0" y2="144" stroke="#e5e7eb"/>
<text x="522.0" y="162" text-anchor="middle" font-size="10" fill="#64748b">30</text>
<line x1="737.0" y1="42" x2="737.0" y2="144" stroke="#e5e7eb"/>
<text x="737.0" y="162" text-anchor="middle" font-size="10" fill="#64748b">44.5</text>
<line x1="952.0" y1="42" x2="952.0" y2="144" stroke="#e5e7eb"/>
<text x="952.0" y="162" text-anchor="middle" font-size="10" fill="#64748b">59</text>
<line x1="92" y1="144.0" x2="952" y2="144.0" stroke="#e5e7eb"/>
<text x="84" y="148.0" text-anchor="end" font-size="10" fill="#64748b">-0.5</text>
<line x1="92" y1="110.0" x2="952" y2="110.0" stroke="#e5e7eb"/>
<text x="84" y="114.0" text-anchor="end" font-size="10" fill="#64748b">-0.167</text>
<line x1="92" y1="76.0" x2="952" y2="76.0" stroke="#e5e7eb"/>
<text x="84" y="80.0" text-anchor="end" font-size="10" fill="#64748b">0.167</text>
<line x1="92" y1="42.0" x2="952" y2="42.0" stroke="#e5e7eb"/>
<text x="84" y="46.0" text-anchor="end" font-size="10" fill="#64748b">0.5</text>
<polyline points="92.0,93.0 106.8,93.0 121.7,93.0 136.5,93.0 151.3,93.0 166.1,93.0 181.0,93.0 195.8,93.0 210.6,93.0 225.4,93.0 240.3,93.0 255.1,93.0 269.9,93.0 284.8,93.0 299.6,93.0 314.4,93.0 329.2,93.0 344.1,93.0 358.9,93.0 373.7,93.0 388.6,93.0 403.4,93.0 418.2,93.0 433.0,93.0 447.9,93.0 462.7,93.0 477.5,93.0 492.3,93.0 507.2,93.0 522.0,93.0 536.8,93.0 551.7,93.0 566.5,93.0 581.3,93.0 596.1,93.0 611.0,93.0 625.8,93.0 640.6,93.0 655.4,93.0 670.3,93.0 685.1,93.0 699.9,93.0 714.8,93.0 729.6,93.0 744.4,93.0 759.2,93.0 774.1,93.0 788.9,93.0 803.7,93.0 818.6,93.0 833.4,93.0 848.2,93.0 863.0,93.0 877.9,93.0 892.7,93.0 907.5,93.0 922.3,93.0 937.2,93.0 952.0,93.0" fill="none" stroke="#ea580c" stroke-width="2"/>
<text x="952" y="22" text-anchor="end" font-size="11" fill="#64748b">min=-0.5 max=0.5 last=0</text>
</g>
<g transform="translate(0,1008)">
<text x="92" y="22" font-size="13" font-weight="700">response_length/max</text>
<rect x="92" y="42" width="860" height="102" fill="#fafafa" stroke="#e2e8f0"/>
<line x1="92.0" y1="42" x2="92.0" y2="144" stroke="#e5e7eb"/>
<text x="92.0" y="162" text-anchor="middle" font-size="10" fill="#64748b">1</text>
<line x1="307.0" y1="42" x2="307.0" y2="144" stroke="#e5e7eb"/>
<text x="307.0" y="162" text-anchor="middle" font-size="10" fill="#64748b">15.5</text>
<line x1="522.0" y1="42" x2="522.0" y2="144" stroke="#e5e7eb"/>
<text x="522.0" y="162" text-anchor="middle" font-size="10" fill="#64748b">30</text>
<line x1="737.0" y1="42" x2="737.0" y2="144" stroke="#e5e7eb"/>
<text x="737.0" y="162" text-anchor="middle" font-size="10" fill="#64748b">44.5</text>
<line x1="952.0" y1="42" x2="952.0" y2="144" stroke="#e5e7eb"/>
<text x="952.0" y="162" text-anchor="middle" font-size="10" fill="#64748b">59</text>
<line x1="92" y1="144.0" x2="952" y2="144.0" stroke="#e5e7eb"/>
<text x="84" y="148.0" text-anchor="end" font-size="10" fill="#64748b">70</text>
<line x1="92" y1="110.0" x2="952" y2="110.0" stroke="#e5e7eb"/>
<text x="84" y="114.0" text-anchor="end" font-size="10" fill="#64748b">149</text>
<line x1="92" y1="76.0" x2="952" y2="76.0" stroke="#e5e7eb"/>
<text x="84" y="80.0" text-anchor="end" font-size="10" fill="#64748b">227</text>
<line x1="92" y1="42.0" x2="952" y2="42.0" stroke="#e5e7eb"/>
<text x="84" y="46.0" text-anchor="end" font-size="10" fill="#64748b">306</text>
<polyline points="92.0,138.8 106.8,141.8 121.7,78.3 136.5,83.1 151.3,83.9 166.1,62.7 181.0,117.6 195.8,128.9 210.6,78.7 225.4,90.4 240.3,83.9 255.1,135.4 269.9,80.5 284.8,77.4 299.6,80.9 314.4,86.1 329.2,127.1 344.1,76.6 358.9,144.0 373.7,137.1 388.6,130.6 403.4,137.5 418.2,57.1 433.0,72.3 447.9,90.4 462.7,79.2 477.5,81.3 492.3,136.7 507.2,134.9 522.0,77.4 536.8,137.1 551.7,74.4 566.5,144.0 581.3,135.8 596.1,123.7 611.0,73.1 625.8,63.6 640.6,138.4 655.4,122.8 670.3,86.1 685.1,91.3 699.9,133.2 714.8,81.3 729.6,87.8 744.4,127.1 759.2,134.9 774.1,86.9 788.9,92.6 803.7,92.1 818.6,136.7 833.4,136.2 848.2,92.6 863.0,92.6 877.9,141.8 892.7,42.0 907.5,136.2 922.3,136.2 937.2,92.6 952.0,89.5" fill="none" stroke="#0891b2" stroke-width="2"/>
<text x="952" y="22" text-anchor="end" font-size="11" fill="#64748b">min=70 max=306 last=196</text>
</g>
<g transform="translate(0,1198)">
<text x="92" y="22" font-size="13" font-weight="700">response_length/mean</text>
<rect x="92" y="42" width="860" height="102" fill="#fafafa" stroke="#e2e8f0"/>
<line x1="92.0" y1="42" x2="92.0" y2="144" stroke="#e5e7eb"/>
<text x="92.0" y="162" text-anchor="middle" font-size="10" fill="#64748b">1</text>
<line x1="307.0" y1="42" x2="307.0" y2="144" stroke="#e5e7eb"/>
<text x="307.0" y="162" text-anchor="middle" font-size="10" fill="#64748b">15.5</text>
<line x1="522.0" y1="42" x2="522.0" y2="144" stroke="#e5e7eb"/>
<text x="522.0" y="162" text-anchor="middle" font-size="10" fill="#64748b">30</text>
<line x1="737.0" y1="42" x2="737.0" y2="144" stroke="#e5e7eb"/>
<text x="737.0" y="162" text-anchor="middle" font-size="10" fill="#64748b">44.5</text>
<line x1="952.0" y1="42" x2="952.0" y2="144" stroke="#e5e7eb"/>
<text x="952.0" y="162" text-anchor="middle" font-size="10" fill="#64748b">59</text>
<line x1="92" y1="144.0" x2="952" y2="144.0" stroke="#e5e7eb"/>
<text x="84" y="148.0" text-anchor="end" font-size="10" fill="#64748b">52.5</text>
<line x1="92" y1="110.0" x2="952" y2="110.0" stroke="#e5e7eb"/>
<text x="84" y="114.0" text-anchor="end" font-size="10" fill="#64748b">107</text>
<line x1="92" y1="76.0" x2="952" y2="76.0" stroke="#e5e7eb"/>
<text x="84" y="80.0" text-anchor="end" font-size="10" fill="#64748b">162</text>
<line x1="92" y1="42.0" x2="952" y2="42.0" stroke="#e5e7eb"/>
<text x="84" y="46.0" text-anchor="end" font-size="10" fill="#64748b">217</text>
<polyline points="92.0,133.8 106.8,132.0 121.7,94.2 136.5,80.8 151.3,92.3 166.1,42.0 181.0,115.7 195.8,122.9 210.6,87.6 225.4,84.4 240.3,89.9 255.1,125.2 269.9,49.6 284.8,81.4 299.6,92.0 314.4,88.9 329.2,121.7 344.1,79.6 358.9,134.9 373.7,125.4 388.6,121.0 403.4,128.5 418.2,78.1 433.0,46.8 447.9,91.1 462.7,81.3 477.5,87.4 492.3,125.7 507.2,125.2 522.0,99.4 536.8,126.3 551.7,68.3 566.5,139.5 581.3,122.6 596.1,116.3 611.0,91.1 625.8,81.9 640.6,128.9 655.4,113.7 670.3,98.0 685.1,95.3 699.9,123.5 714.8,56.4 729.6,58.9 744.4,118.7 759.2,124.2 774.1,99.1 788.9,86.4 803.7,93.8 818.6,128.1 833.4,127.2 848.2,99.8 863.0,91.1 877.9,144.0 892.7,82.5 907.5,130.1 922.3,133.9 937.2,100.3 952.0,99.4" fill="none" stroke="#4f46e5" stroke-width="2"/>
<text x="952" y="22" text-anchor="end" font-size="11" fill="#64748b">min=52.5 max=216.9 last=124.3</text>
</g>
<g transform="translate(0,1388)">
<text x="92" y="22" font-size="13" font-weight="700">perf/throughput</text>
<rect x="92" y="42" width="860" height="102" fill="#fafafa" stroke="#e2e8f0"/>
<line x1="92.0" y1="42" x2="92.0" y2="144" stroke="#e5e7eb"/>
<text x="92.0" y="162" text-anchor="middle" font-size="10" fill="#64748b">1</text>
<line x1="307.0" y1="42" x2="307.0" y2="144" stroke="#e5e7eb"/>
<text x="307.0" y="162" text-anchor="middle" font-size="10" fill="#64748b">15.5</text>
<line x1="522.0" y1="42" x2="522.0" y2="144" stroke="#e5e7eb"/>
<text x="522.0" y="162" text-anchor="middle" font-size="10" fill="#64748b">30</text>
<line x1="737.0" y1="42" x2="737.0" y2="144" stroke="#e5e7eb"/>
<text x="737.0" y="162" text-anchor="middle" font-size="10" fill="#64748b">44.5</text>
<line x1="952.0" y1="42" x2="952.0" y2="144" stroke="#e5e7eb"/>
<text x="952.0" y="162" text-anchor="middle" font-size="10" fill="#64748b">59</text>
<line x1="92" y1="144.0" x2="952" y2="144.0" stroke="#e5e7eb"/>
<text x="84" y="148.0" text-anchor="end" font-size="10" fill="#64748b">12.0</text>
<line x1="92" y1="110.0" x2="952" y2="110.0" stroke="#e5e7eb"/>
<text x="84" y="114.0" text-anchor="end" font-size="10" fill="#64748b">14.3</text>
<line x1="92" y1="76.0" x2="952" y2="76.0" stroke="#e5e7eb"/>
<text x="84" y="80.0" text-anchor="end" font-size="10" fill="#64748b">16.6</text>
<line x1="92" y1="42.0" x2="952" y2="42.0" stroke="#e5e7eb"/>
<text x="84" y="46.0" text-anchor="end" font-size="10" fill="#64748b">18.8</text>
<polyline points="92.0,144.0 106.8,72.0 121.7,97.8 136.5,48.7 151.3,80.2 166.1,49.3 181.0,83.1 195.8,73.2 210.6,58.8 225.4,61.3 240.3,75.4 255.1,66.5 269.9,42.0 284.8,58.3 299.6,65.5 314.4,51.1 329.2,96.9 344.1,126.9 358.9,97.9 373.7,84.2 388.6,75.4 403.4,96.2 418.2,62.3 433.0,45.1 447.9,67.3 462.7,76.2 477.5,77.5 492.3,67.9 507.2,55.8 522.0,88.0 536.8,87.1 551.7,67.4 566.5,97.2 581.3,49.6 596.1,73.5 611.0,80.0 625.8,79.6 640.6,47.9 655.4,63.1 670.3,90.8 685.1,68.2 699.9,84.5 714.8,47.5 729.6,42.8 744.4,72.0 759.2,78.7 774.1,56.5 788.9,83.4 803.7,85.7 818.6,65.7 833.4,72.5 848.2,76.1 863.0,67.3 877.9,62.7 892.7,75.1 907.5,96.9 922.3,54.7 937.2,62.8 952.0,74.0" fill="none" stroke="#be123c" stroke-width="2"/>
<text x="952" y="22" text-anchor="end" font-size="11" fill="#64748b">min=12.01 max=18.84 last=16.7</text>
</g>
<g transform="translate(0,1578)">
<text x="92" y="22" font-size="13" font-weight="700">critic/score/max</text>
<rect x="92" y="42" width="860" height="102" fill="#fafafa" stroke="#e2e8f0"/>
<line x1="92.0" y1="42" x2="92.0" y2="144" stroke="#e5e7eb"/>
<text x="92.0" y="162" text-anchor="middle" font-size="10" fill="#64748b">1</text>
<line x1="307.0" y1="42" x2="307.0" y2="144" stroke="#e5e7eb"/>
<text x="307.0" y="162" text-anchor="middle" font-size="10" fill="#64748b">15.5</text>
<line x1="522.0" y1="42" x2="522.0" y2="144" stroke="#e5e7eb"/>
<text x="522.0" y="162" text-anchor="middle" font-size="10" fill="#64748b">30</text>
<line x1="737.0" y1="42" x2="737.0" y2="144" stroke="#e5e7eb"/>
<text x="737.0" y="162" text-anchor="middle" font-size="10" fill="#64748b">44.5</text>
<line x1="952.0" y1="42" x2="952.0" y2="144" stroke="#e5e7eb"/>
<text x="952.0" y="162" text-anchor="middle" font-size="10" fill="#64748b">59</text>
<line x1="92" y1="144.0" x2="952" y2="144.0" stroke="#e5e7eb"/>
<text x="84" y="148.0" text-anchor="end" font-size="10" fill="#64748b">0.52</text>
<line x1="92" y1="110.0" x2="952" y2="110.0" stroke="#e5e7eb"/>
<text x="84" y="114.0" text-anchor="end" font-size="10" fill="#64748b">0.68</text>
<line x1="92" y1="76.0" x2="952" y2="76.0" stroke="#e5e7eb"/>
<text x="84" y="80.0" text-anchor="end" font-size="10" fill="#64748b">0.84</text>
<line x1="92" y1="42.0" x2="952" y2="42.0" stroke="#e5e7eb"/>
<text x="84" y="46.0" text-anchor="end" font-size="10" fill="#64748b">1</text>
<polyline points="92.0,42.0 106.8,42.0 121.7,42.0 136.5,42.0 151.3,42.0 166.1,42.0 181.0,42.0 195.8,42.0 210.6,42.0 225.4,44.5 240.3,42.0 255.1,42.0 269.9,42.0 284.8,42.0 299.6,42.0 314.4,42.0 329.2,42.0 344.1,42.0 358.9,42.0 373.7,42.0 388.6,42.0 403.4,42.0 418.2,42.0 433.0,42.0 447.9,42.0 462.7,42.0 477.5,42.0 492.3,42.0 507.2,42.0 522.0,42.0 536.8,42.0 551.7,42.0 566.5,42.0 581.3,42.0 596.1,42.0 611.0,42.0 625.8,42.0 640.6,42.0 655.4,42.0 670.3,42.0 685.1,42.0 699.9,42.0 714.8,144.0 729.6,144.0 744.4,42.0 759.2,42.0 774.1,42.0 788.9,42.0 803.7,42.0 818.6,42.0 833.4,42.0 848.2,42.0 863.0,42.0 877.9,42.0 892.7,144.0 907.5,42.0 922.3,42.0 937.2,144.0 952.0,42.0" fill="none" stroke="#2563eb" stroke-width="2"/>
<text x="952" y="22" text-anchor="end" font-size="11" fill="#64748b">min=0.52 max=1 last=1</text>
</g>
<g transform="translate(0,1768)">
<text x="92" y="22" font-size="13" font-weight="700">critic/score/min</text>
<rect x="92" y="42" width="860" height="102" fill="#fafafa" stroke="#e2e8f0"/>
<line x1="92.0" y1="42" x2="92.0" y2="144" stroke="#e5e7eb"/>
<text x="92.0" y="162" text-anchor="middle" font-size="10" fill="#64748b">1</text>
<line x1="307.0" y1="42" x2="307.0" y2="144" stroke="#e5e7eb"/>
<text x="307.0" y="162" text-anchor="middle" font-size="10" fill="#64748b">15.5</text>
<line x1="522.0" y1="42" x2="522.0" y2="144" stroke="#e5e7eb"/>
<text x="522.0" y="162" text-anchor="middle" font-size="10" fill="#64748b">30</text>
<line x1="737.0" y1="42" x2="737.0" y2="144" stroke="#e5e7eb"/>
<text x="737.0" y="162" text-anchor="middle" font-size="10" fill="#64748b">44.5</text>
<line x1="952.0" y1="42" x2="952.0" y2="144" stroke="#e5e7eb"/>
<text x="952.0" y="162" text-anchor="middle" font-size="10" fill="#64748b">59</text>
<line x1="92" y1="144.0" x2="952" y2="144.0" stroke="#e5e7eb"/>
<text x="84" y="148.0" text-anchor="end" font-size="10" fill="#64748b">0.38</text>
<line x1="92" y1="110.0" x2="952" y2="110.0" stroke="#e5e7eb"/>
<text x="84" y="114.0" text-anchor="end" font-size="10" fill="#64748b">0.587</text>
<line x1="92" y1="76.0" x2="952" y2="76.0" stroke="#e5e7eb"/>
<text x="84" y="80.0" text-anchor="end" font-size="10" fill="#64748b">0.793</text>
<line x1="92" y1="42.0" x2="952" y2="42.0" stroke="#e5e7eb"/>
<text x="84" y="46.0" text-anchor="end" font-size="10" fill="#64748b">1</text>
<polyline points="92.0,43.3 106.8,42.0 121.7,121.0 136.5,42.0 151.3,121.0 166.1,125.9 181.0,121.0 195.8,42.0 210.6,121.0 225.4,134.1 240.3,121.0 255.1,42.0 269.9,121.0 284.8,42.0 299.6,134.1 314.4,121.0 329.2,121.0 344.1,42.0 358.9,42.0 373.7,42.0 388.6,42.0 403.4,42.0 418.2,134.1 433.0,121.0 447.9,121.0 462.7,121.0 477.5,121.0 492.3,111.1 507.2,44.0 522.0,121.0 536.8,42.0 551.7,42.8 566.5,42.0 581.3,42.0 596.1,42.0 611.0,134.1 625.8,125.9 640.6,43.2 655.4,44.0 670.3,125.9 685.1,121.0 699.9,42.0 714.8,121.0 729.6,123.5 744.4,125.9 759.2,42.0 774.1,121.0 788.9,121.0 803.7,121.0 818.6,134.1 833.4,42.0 848.2,121.0 863.0,121.0 877.9,113.8 892.7,144.0 907.5,121.0 922.3,44.0 937.2,134.1 952.0,134.1" fill="none" stroke="#16a34a" stroke-width="2"/>
<text x="952" y="22" text-anchor="end" font-size="11" fill="#64748b">min=0.38 max=1 last=0.44</text>
</g>
<g transform="translate(0,1958)">
<text x="92" y="22" font-size="13" font-weight="700">timing_s/step</text>
<rect x="92" y="42" width="860" height="102" fill="#fafafa" stroke="#e2e8f0"/>
<line x1="92.0" y1="42" x2="92.0" y2="144" stroke="#e5e7eb"/>
<text x="92.0" y="162" text-anchor="middle" font-size="10" fill="#64748b">1</text>
<line x1="307.0" y1="42" x2="307.0" y2="144" stroke="#e5e7eb"/>
<text x="307.0" y="162" text-anchor="middle" font-size="10" fill="#64748b">15.5</text>
<line x1="522.0" y1="42" x2="522.0" y2="144" stroke="#e5e7eb"/>
<text x="522.0" y="162" text-anchor="middle" font-size="10" fill="#64748b">30</text>
<line x1="737.0" y1="42" x2="737.0" y2="144" stroke="#e5e7eb"/>
<text x="737.0" y="162" text-anchor="middle" font-size="10" fill="#64748b">44.5</text>
<line x1="952.0" y1="42" x2="952.0" y2="144" stroke="#e5e7eb"/>
<text x="952.0" y="162" text-anchor="middle" font-size="10" fill="#64748b">59</text>
<line x1="92" y1="144.0" x2="952" y2="144.0" stroke="#e5e7eb"/>
<text x="84" y="148.0" text-anchor="end" font-size="10" fill="#64748b">95.3</text>
<line x1="92" y1="110.0" x2="952" y2="110.0" stroke="#e5e7eb"/>
<text x="84" y="114.0" text-anchor="end" font-size="10" fill="#64748b">107</text>
<line x1="92" y1="76.0" x2="952" y2="76.0" stroke="#e5e7eb"/>
<text x="84" y="80.0" text-anchor="end" font-size="10" fill="#64748b">118</text>
<line x1="92" y1="42.0" x2="952" y2="42.0" stroke="#e5e7eb"/>
<text x="84" y="46.0" text-anchor="end" font-size="10" fill="#64748b">130</text>
<polyline points="92.0,55.7 106.8,142.5 121.7,129.5 136.5,129.4 151.3,130.7 166.1,125.7 181.0,138.3 195.8,140.1 210.6,128.8 225.4,130.8 240.3,130.2 255.1,139.7 269.9,128.7 284.8,128.2 299.6,129.1 314.4,130.2 329.2,140.3 344.1,42.0 358.9,144.0 373.7,142.0 388.6,140.3 403.4,141.0 418.2,123.2 433.0,127.0 447.9,131.1 462.7,127.7 477.5,129.9 492.3,141.5 507.2,140.9 522.0,129.0 536.8,141.8 551.7,127.1 566.5,143.4 581.3,141.3 596.1,139.0 611.0,128.0 625.8,125.6 640.6,142.1 655.4,139.2 670.3,130.2 685.1,132.3 699.9,141.2 714.8,129.5 729.6,130.9 744.4,140.3 759.2,142.1 774.1,130.9 788.9,131.3 803.7,131.8 818.6,141.5 833.4,141.6 848.2,132.0 863.0,130.5 877.9,141.9 892.7,121.8 907.5,141.9 922.3,141.4 937.2,131.9 952.0,132.0" fill="none" stroke="#dc2626" stroke-width="2"/>
<text x="952" y="22" text-anchor="end" font-size="11" fill="#64748b">min=95.32 max=129.9 last=99.4</text>
</g>
</svg>