<svg xmlns="http://www.w3.org/2000/svg" width="980" height="3098" font-family="Arial, sans-serif">
<rect width="100%" height="100%" fill="white"/>
<text x="24" y="28" font-size="18" font-weight="700">experiments/qwen3_8b_grpo_v14_compact_exec_n4_step80/metrics_key.csv</text>
<text x="24" y="48" font-size="12" fill="#64748b">rows=80 keys=16</text>
<g transform="translate(0,58)">
<text x="92" y="22" font-size="13" font-weight="700">critic/score/mean</text>
<rect x="92" y="42" width="860" height="102" fill="#fafafa" stroke="#e2e8f0"/>
<line x1="92.0" y1="42" x2="92.0" y2="144" stroke="#e5e7eb"/>
<text x="92.0" y="162" text-anchor="middle" font-size="10" fill="#64748b">1</text>
<line x1="307.0" y1="42" x2="307.0" y2="144" stroke="#e5e7eb"/>
<text x="307.0" y="162" text-anchor="middle" font-size="10" fill="#64748b">20.8</text>
<line x1="522.0" y1="42" x2="522.0" y2="144" stroke="#e5e7eb"/>
<text x="522.0" y="162" text-anchor="middle" font-size="10" fill="#64748b">40.5</text>
<line x1="737.0" y1="42" x2="737.0" y2="144" stroke="#e5e7eb"/>
<text x="737.0" y="162" text-anchor="middle" font-size="10" fill="#64748b">60.2</text>
<line x1="952.0" y1="42" x2="952.0" y2="144" stroke="#e5e7eb"/>
<text x="952.0" y="162" text-anchor="middle" font-size="10" fill="#64748b">80</text>
<line x1="92" y1="144.0" x2="952" y2="144.0" stroke="#e5e7eb"/>
<text x="84" y="148.0" text-anchor="end" font-size="10" fill="#64748b">0.438</text>
<line x1="92" y1="110.0" x2="952" y2="110.0" stroke="#e5e7eb"/>
<text x="84" y="114.0" text-anchor="end" font-size="10" fill="#64748b">0.615</text>
<line x1="92" y1="76.0" x2="952" y2="76.0" stroke="#e5e7eb"/>
<text x="84" y="80.0" text-anchor="end" font-size="10" fill="#64748b">0.793</text>
<line x1="92" y1="42.0" x2="952" y2="42.0" stroke="#e5e7eb"/>
<text x="84" y="46.0" text-anchor="end" font-size="10" fill="#64748b">0.97</text>
<polyline points="92.0,102.0 102.9,96.9 113.8,144.0 124.7,88.5 135.5,86.9 146.4,128.8 157.3,42.0 168.2,108.7 179.1,92.9 190.0,42.7 200.9,43.7 211.7,82.2 222.6,130.8 233.5,76.4 244.4,44.6 255.3,49.2 266.2,67.5 277.1,42.0 287.9,96.5 298.8,56.4 309.7,66.9 320.6,93.7 331.5,45.2 342.4,42.0 353.3,43.6 364.2,81.3 375.0,92.5 385.9,107.6 396.8,81.3 407.7,54.4 418.6,42.0 429.5,45.1 440.4,85.1 451.2,45.9 462.1,110.8 473.0,86.0 483.9,43.4 494.8,57.5 505.7,54.5 516.6,56.8 527.4,57.9 538.3,42.0 549.2,42.0 560.1,42.8 571.0,107.5 581.9,84.1 592.8,42.0 603.6,66.9 614.5,88.7 625.4,42.3 636.3,44.6 647.2,54.5 658.1,51.0 669.0,42.0 679.8,76.3 690.7,75.6 701.6,52.3 712.5,42.4 723.4,42.0 734.3,42.0 745.2,96.4 756.1,51.5 766.9,45.3 777.8,43.6 788.7,101.1 799.6,45.3 810.5,42.0 821.4,42.8 832.3,51.5 843.1,83.5 854.0,55.1 864.9,42.8 875.8,44.0 886.7,42.0 897.6,82.8 908.5,42.7 919.3,42.8 930.2,72.4 941.1,43.6 952.0,55.9" fill="none" stroke="#2563eb" stroke-width="2"/>
<text x="952" y="22" text-anchor="end" font-size="11" fill="#64748b">min=0.438 max=0.97 last=0.8974</text>
</g>
<g transform="translate(0,248)">
<text x="92" y="22" font-size="13" font-weight="700">critic/advantages/max</text>
<rect x="92" y="42" width="860" height="102" fill="#fafafa" stroke="#e2e8f0"/>
<line x1="92.0" y1="42" x2="92.0" y2="144" stroke="#e5e7eb"/>
<text x="92.0" y="162" text-anchor="middle" font-size="10" fill="#64748b">1</text>
<line x1="307.0" y1="42" x2="307.0" y2="144" stroke="#e5e7eb"/>
<text x="307.0" y="162" text-anchor="middle" font-size="10" fill="#64748b">20.8</text>
<line x1="522.0" y1="42" x2="522.0" y2="144" stroke="#e5e7eb"/>
<text x="522.0" y="162" text-anchor="middle" font-size="10" fill="#64748b">40.5</text>
<line x1="737.0" y1="42" x2="737.0" y2="144" stroke="#e5e7eb"/>
<text x="737.0" y="162" text-anchor="middle" font-size="10" fill="#64748b">60.2</text>
<line x1="952.0" y1="42" x2="952.0" y2="144" stroke="#e5e7eb"/>
<text x="952.0" y="162" text-anchor="middle" font-size="10" fill="#64748b">80</text>
<line x1="92" y1="144.0" x2="952" y2="144.0" stroke="#e5e7eb"/>
<text x="84" y="148.0" text-anchor="end" font-size="10" fill="#64748b">0</text>
<line x1="92" y1="110.0" x2="952" y2="110.0" stroke="#e5e7eb"/>
<text x="84" y="114.0" text-anchor="end" font-size="10" fill="#64748b">0.5</text>
<line x1="92" y1="76.0" x2="952" y2="76.0" stroke="#e5e7eb"/>
<text x="84" y="80.0" text-anchor="end" font-size="10" fill="#64748b">1</text>
<line x1="92" y1="42.0" x2="952" y2="42.0" stroke="#e5e7eb"/>
<text x="84" y="46.0" text-anchor="end" font-size="10" fill="#64748b">1.5</text>
<polyline points="92.0,85.1 102.9,85.1 113.8,55.0 124.7,83.7 135.5,42.0 146.4,42.0 157.3,144.0 168.2,42.0 179.1,109.1 190.0,110.0 200.9,47.5 211.7,42.1 222.6,42.0 233.5,85.1 244.4,100.9 255.3,103.1 266.2,42.1 277.1,144.0 287.9,85.1 298.8,43.7 309.7,144.0 320.6,42.0 331.5,42.0 342.4,144.0 353.3,42.0 364.2,144.0 375.0,43.5 385.9,108.9 396.8,83.3 407.7,42.0 418.6,144.0 429.5,105.7 440.4,144.0 451.2,42.0 462.1,53.4 473.0,110.0 483.9,42.2 494.8,42.0 505.7,85.1 516.6,75.3 527.4,42.0 538.3,144.0 549.2,144.0 560.1,42.3 571.0,42.0 581.9,85.1 592.8,144.0 603.6,144.0 614.5,42.2 625.4,110.0 636.3,61.3 647.2,110.0 658.1,110.0 669.0,144.0 679.8,62.0 690.7,67.7 701.6,42.7 712.5,85.1 723.4,144.0 734.3,144.0 745.2,76.0 756.1,42.0 766.9,110.0 777.8,44.1 788.7,42.0 799.6,110.0 810.5,144.0 821.4,144.0 832.3,42.0 843.1,81.9 854.0,85.2 864.9,144.0 875.8,43.7 886.7,144.0 897.6,75.0 908.5,43.2 919.3,144.0 930.2,69.7 941.1,110.7 952.0,144.0" fill="none" stroke="#16a34a" stroke-width="2"/>
<text x="952" y="22" text-anchor="end" font-size="11" fill="#64748b">min=0 max=1.5 last=0</text>
</g>
<g transform="translate(0,438)">
<text x="92" y="22" font-size="13" font-weight="700">critic/advantages/mean</text>
<rect x="92" y="42" width="860" height="102" fill="#fafafa" stroke="#e2e8f0"/>
<line x1="92.0" y1="42" x2="92.0" y2="144" stroke="#e5e7eb"/>
<text x="92.0" y="162" text-anchor="middle" font-size="10" fill="#64748b">1</text>
<line x1="307.0" y1="42" x2="307.0" y2="144" stroke="#e5e7eb"/>
<text x="307.0" y="162" text-anchor="middle" font-size="10" fill="#64748b">20.8</text>
<line x1="522.0" y1="42" x2="522.0" y2="144" stroke="#e5e7eb"/>
<text x="522.0" y="162" text-anchor="middle" font-size="10" fill="#64748b">40.5</text>
<line x1="737.0" y1="42" x2="737.0" y2="144" stroke="#e5e7eb"/>
<text x="737.0" y="162" text-anchor="middle" font-size="10" fill="#64748b">60.2</text>
<line x1="952.0" y1="42" x2="952.0" y2="144" stroke="#e5e7eb"/>
<text x="952.0" y="162" text-anchor="middle" font-size="10" fill="#64748b">80</text>
<line x1="92" y1="144.0" x2="952" y2="144.0" stroke="#e5e7eb"/>
<text x="84" y="148.0" text-anchor="end" font-size="10" fill="#64748b">-0.642</text>
<line x1="92" y1="110.0" x2="952" y2="110.0" stroke="#e5e7eb"/>
<text x="84" y="114.0" text-anchor="end" font-size="10" fill="#64748b">-0.394</text>
<line x1="92" y1="76.0" x2="952" y2="76.0" stroke="#e5e7eb"/>
<text x="84" y="80.0" text-anchor="end" font-size="10" fill="#64748b">-0.147</text>
<line x1="92" y1="42.0" x2="952" y2="42.0" stroke="#e5e7eb"/>
<text x="84" y="46.0" text-anchor="end" font-size="10" fill="#64748b">0.1</text>
<polyline points="92.0,102.4 102.9,47.8 113.8,56.1 124.7,144.0 135.5,123.9 146.4,45.7 157.3,55.8 168.2,48.9 179.1,57.7 190.0,57.2 200.9,52.2 211.7,62.0 222.6,89.5 233.5,55.5 244.4,58.0 255.3,59.1 266.2,54.9 277.1,55.8 287.9,130.8 298.8,58.3 309.7,55.8 320.6,57.1 331.5,56.1 342.4,55.8 353.3,50.8 364.2,55.8 375.0,61.1 385.9,60.4 396.8,74.0 407.7,55.8 418.6,55.8 429.5,53.8 440.4,55.8 451.2,50.1 462.1,102.8 473.0,92.9 483.9,52.1 494.8,58.2 505.7,56.8 516.6,54.9 527.4,55.0 538.3,55.8 549.2,55.8 560.1,52.5 571.0,54.5 581.9,77.9 592.8,55.8 603.6,55.8 614.5,42.0 625.4,58.9 636.3,58.6 647.2,51.8 658.1,56.1 669.0,55.8 679.8,63.8 690.7,62.6 701.6,53.8 712.5,60.2 723.4,55.8 734.3,55.8 745.2,57.7 756.1,53.2 766.9,58.2 777.8,55.4 788.7,65.4 799.6,60.6 810.5,55.8 821.4,55.8 832.3,50.6 843.1,62.8 854.0,59.4 864.9,55.8 875.8,51.1 886.7,55.8 897.6,63.4 908.5,55.7 919.3,55.8 930.2,62.9 941.1,55.8 952.0,55.8" fill="none" stroke="#dc2626" stroke-width="2"/>
<text x="952" y="22" text-anchor="end" font-size="11" fill="#64748b">min=-0.6415 max=0.1003 last=0</text>
</g>
<g transform="translate(0,628)">
<text x="92" y="22" font-size="13" font-weight="700">critic/advantages/min</text>
<rect x="92" y="42" width="860" height="102" fill="#fafafa" stroke="#e2e8f0"/>
<line x1="92.0" y1="42" x2="92.0" y2="144" stroke="#e5e7eb"/>
<text x="92.0" y="162" text-anchor="middle" font-size="10" fill="#64748b">1</text>
<line x1="307.0" y1="42" x2="307.0" y2="144" stroke="#e5e7eb"/>
<text x="307.0" y="162" text-anchor="middle" font-size="10" fill="#64748b">20.8</text>
<line x1="522.0" y1="42" x2="522.0" y2="144" stroke="#e5e7eb"/>
<text x="522.0" y="162" text-anchor="middle" font-size="10" fill="#64748b">40.5</text>
<line x1="737.0" y1="42" x2="737.0" y2="144" stroke="#e5e7eb"/>
<text x="737.0" y="162" text-anchor="middle" font-size="10" fill="#64748b">60.2</text>
<line x1="952.0" y1="42" x2="952.0" y2="144" stroke="#e5e7eb"/>
<text x="952.0" y="162" text-anchor="middle" font-size="10" fill="#64748b">80</text>
<line x1="92" y1="144.0" x2="952" y2="144.0" stroke="#e5e7eb"/>
<text x="84" y="148.0" text-anchor="end" font-size="10" fill="#64748b">-1.5</text>
<line x1="92" y1="110.0" x2="952" y2="110.0" stroke="#e5e7eb"/>
<text x="84" y="114.0" text-anchor="end" font-size="10" fill="#64748b">-1</text>
<line x1="92" y1="76.0" x2="952" y2="76.0" stroke="#e5e7eb"/>
<text x="84" y="80.0" text-anchor="end" font-size="10" fill="#64748b">-0.5</text>
<line x1="92" y1="42.0" x2="952" y2="42.0" stroke="#e5e7eb"/>
<text x="84" y="46.0" text-anchor="end" font-size="10" fill="#64748b">0</text>
<polyline points="92.0,112.2 102.9,100.9 113.8,144.0 124.7,144.0 135.5,144.0 146.4,100.8 157.3,42.0 168.2,144.0 179.1,144.0 190.0,144.0 200.9,89.7 211.7,144.0 222.6,76.0 233.5,144.0 244.4,143.5 255.3,142.8 266.2,76.0 277.1,42.0 287.9,129.0 298.8,138.8 309.7,42.0 320.6,143.9 331.5,144.0 342.4,42.0 353.3,76.0 364.2,42.0 375.0,100.9 385.9,144.0 396.8,100.9 407.7,76.0 418.6,42.0 429.5,143.9 440.4,42.0 451.2,140.1 462.1,95.3 473.0,144.0 483.9,79.7 494.8,76.0 505.7,100.9 516.6,144.0 527.4,76.0 538.3,42.0 549.2,42.0 560.1,82.9 571.0,76.0 581.9,142.6 592.8,42.0 603.6,42.0 614.5,100.9 625.4,144.0 636.3,123.8 647.2,144.0 658.1,144.0 669.0,42.0 679.8,142.3 690.7,125.1 701.6,144.0 712.5,100.9 723.4,42.0 734.3,42.0 745.2,123.0 756.1,76.0 766.9,144.0 777.8,137.6 788.7,87.2 799.6,144.0 810.5,42.0 821.4,42.0 832.3,76.0 843.1,124.0 854.0,105.1 864.9,42.0 875.8,143.2 886.7,42.0 897.6,106.3 908.5,75.6 919.3,42.0 930.2,141.9 941.1,141.9 952.0,42.0" fill="none" stroke="#9333ea" stroke-width="2"/>
<text x="952" y="22" text-anchor="end" font-size="11" fill="#64748b">min=-1.5 max=0 last=0</text>
</g>
<g transform="translate(0,818)">
<text x="92" y="22" font-size="13" font-weight="700">actor/grad_norm</text>
<rect x="92" y="42" width="860" height="102" fill="#fafafa" stroke="#e2e8f0"/>
<line x1="92.0" y1="42" x2="92.0" y2="144" stroke="#e5e7eb"/>
<text x="92.0" y="162" text-anchor="middle" font-size="10" fill="#64748b">1</text>
<line x1="307.0" y1="42" x2="307.0" y2="144" stroke="#e5e7eb"/>
<text x="307.0" y="162" text-anchor="middle" font-size="10" fill="#64748b">20.8</text>
<line x1="522.0" y1="42" x2="522.0" y2="144" stroke="#e5e7eb"/>
<text x="522.0" y="162" text-anchor="middle" font-size="10" fill="#64748b">40.5</text>
<line x1="737.0" y1="42" x2="737.0" y2="144" stroke="#e5e7eb"/>
<text x="737.0" y="162" text-anchor="middle" font-size="10" fill="#64748b">60.2</text>
<line x1="952.0" y1="42" x2="952.0" y2="144" stroke="#e5e7eb"/>
<text x="952.0" y="162" text-anchor="middle" font-size="10" fill="#64748b">80</text>
<line x1="92" y1="144.0" x2="952" y2="144.0" stroke="#e5e7eb"/>
<text x="84" y="148.0" text-anchor="end" font-size="10" fill="#64748b">0</text>
<line x1="92" y1="110.0" x2="952" y2="110.0" stroke="#e5e7eb"/>
<text x="84" y="114.0" text-anchor="end" font-size="10" fill="#64748b">5.62</text>
<line x1="92" y1="76.0" x2="952" y2="76.0" stroke="#e5e7eb"/>
<text x="84" y="80.0" text-anchor="end" font-size="10" fill="#64748b">11.2</text>
<line x1="92" y1="42.0" x2="952" y2="42.0" stroke="#e5e7eb"/>
<text x="84" y="46.0" text-anchor="end" font-size="10" fill="#64748b">16.9</text>
<polyline points="92.0,135.6 102.9,121.7 113.8,130.2 124.7,130.0 135.5,134.1 146.4,122.6 157.3,144.0 168.2,129.2 179.1,133.9 190.0,111.2 200.9,125.7 211.7,98.9 222.6,137.1 233.5,129.6 244.4,123.6 255.3,130.2 266.2,134.7 277.1,144.0 287.9,104.9 298.8,118.4 309.7,144.0 320.6,128.2 331.5,128.0 342.4,144.0 353.3,130.8 364.2,144.0 375.0,130.3 385.9,109.3 396.8,125.4 407.7,131.3 418.6,144.0 429.5,132.7 440.4,144.0 451.2,122.3 462.1,133.0 473.0,132.7 483.9,131.6 494.8,128.8 505.7,124.5 516.6,128.3 527.4,42.0 538.3,144.0 549.2,144.0 560.1,134.2 571.0,130.0 581.9,124.2 592.8,144.0 603.6,144.0 614.5,116.2 625.4,130.5 636.3,132.5 647.2,116.9 658.1,139.2 669.0,144.0 679.8,129.7 690.7,124.4 701.6,129.7 712.5,121.7 723.4,144.0 734.3,144.0 745.2,132.2 756.1,126.8 766.9,115.5 777.8,137.8 788.7,123.1 799.6,123.1 810.5,144.0 821.4,144.0 832.3,113.6 843.1,126.5 854.0,131.3 864.9,144.0 875.8,113.5 886.7,144.0 897.6,127.7 908.5,134.5 919.3,144.0 930.2,134.7 941.1,139.0 952.0,144.0" fill="none" stroke="#ea580c" stroke-width="2"/>
<text x="952" y="22" text-anchor="end" font-size="11" fill="#64748b">min=0 max=16.87 last=0</text>
</g>
<g transform="translate(0,1008)">
<text x="92" y="22" font-size="13" font-weight="700">actor/loss</text>
<rect x="92" y="42" width="860" height="102" fill="#fafafa" stroke="#e2e8f0"/>
<line x1="92.0" y1="42" x2="92.0" y2="144" stroke="#e5e7eb"/>
<text x="92.0" y="162" text-anchor="middle" font-size="10" fill="#64748b">1</text>
<line x1="307.0" y1="42" x2="307.0" y2="144" stroke="#e5e7eb"/>
<text x="307.0" y="162" text-anchor="middle" font-size="10" fill="#64748b">20.8</text>
<line x1="522.0" y1="42" x2="522.0" y2="144" stroke="#e5e7eb"/>
<text x="522.0" y="162" text-anchor="middle" font-size="10" fill="#64748b">40.5</text>
<line x1="737.0" y1="42" x2="737.0" y2="144" stroke="#e5e7eb"/>
<text x="737.0" y="162" text-anchor="middle" font-size="10" fill="#64748b">60.2</text>
<line x1="952.0" y1="42" x2="952.0" y2="144" stroke="#e5e7eb"/>
<text x="952.0" y="162" text-anchor="middle" font-size="10" fill="#64748b">80</text>
<line x1="92" y1="144.0" x2="952" y2="144.0" stroke="#e5e7eb"/>
<text x="84" y="148.0" text-anchor="end" font-size="10" fill="#64748b">-0.1</text>
<line x1="92" y1="110.0" x2="952" y2="110.0" stroke="#e5e7eb"/>
<text x="84" y="114.0" text-anchor="end" font-size="10" fill="#64748b">0.147</text>
<line x1="92" y1="76.0" x2="952" y2="76.0" stroke="#e5e7eb"/>
<text x="84" y="80.0" text-anchor="end" font-size="10" fill="#64748b">0.394</text>
<line x1="92" y1="42.0" x2="952" y2="42.0" stroke="#e5e7eb"/>
<text x="84" y="46.0" text-anchor="end" font-size="10" fill="#64748b">0.642</text>
<polyline points="92.0,83.6 102.9,138.2 113.8,129.9 124.7,42.0 135.5,62.1 146.4,140.3 157.3,130.2 168.2,137.1 179.1,128.3 190.0,128.8 200.9,133.8 211.7,124.0 222.6,96.5 233.5,130.5 244.4,128.0 255.3,126.9 266.2,131.1 277.1,130.2 287.9,55.2 298.8,127.7 309.7,130.2 320.6,128.9 331.5,129.9 342.4,130.2 353.3,135.2 364.2,130.2 375.0,124.9 385.9,125.6 396.8,112.0 407.7,130.2 418.6,130.2 429.5,132.2 440.4,130.2 451.2,135.9 462.1,83.2 473.0,93.1 483.9,133.9 494.8,127.8 505.7,129.2 516.6,131.1 527.4,131.0 538.3,130.2 549.2,130.2 560.1,133.5 571.0,131.5 581.9,108.1 592.8,130.2 603.6,130.2 614.5,144.0 625.4,127.1 636.3,127.4 647.2,134.2 658.1,129.9 669.0,130.2 679.8,122.2 690.7,123.4 701.6,132.2 712.5,125.8 723.4,130.2 734.3,130.2 745.2,128.3 756.1,132.8 766.9,127.8 777.8,130.6 788.7,120.6 799.6,125.4 810.5,130.2 821.4,130.2 832.3,135.4 843.1,123.2 854.0,126.6 864.9,130.2 875.8,134.9 886.7,130.2 897.6,122.6 908.5,130.3 919.3,130.2 930.2,123.1 941.1,130.2 952.0,130.2" fill="none" stroke="#0891b2" stroke-width="2"/>
<text x="952" y="22" text-anchor="end" font-size="11" fill="#64748b">min=-0.1003 max=0.6415 last=0</text>
</g>
<g transform="translate(0,1198)">
<text x="92" y="22" font-size="13" font-weight="700">actor/entropy</text>
<rect x="92" y="42" width="860" height="102" fill="#fafafa" stroke="#e2e8f0"/>
<line x1="92.0" y1="42" x2="92.0" y2="144" stroke="#e5e7eb"/>
<text x="92.0" y="162" text-anchor="middle" font-size="10" fill="#64748b">1</text>
<line x1="307.0" y1="42" x2="307.0" y2="144" stroke="#e5e7eb"/>
<text x="307.0" y="162" text-anchor="middle" font-size="10" fill="#64748b">20.8</text>
<line x1="522.0" y1="42" x2="522.0" y2="144" stroke="#e5e7eb"/>
<text x="522.0" y="162" text-anchor="middle" font-size="10" fill="#64748b">40.5</text>
<line x1="737.0" y1="42" x2="737.0" y2="144" stroke="#e5e7eb"/>
<text x="737.0" y="162" text-anchor="middle" font-size="10" fill="#64748b">60.2</text>
<line x1="952.0" y1="42" x2="952.0" y2="144" stroke="#e5e7eb"/>
<text x="952.0" y="162" text-anchor="middle" font-size="10" fill="#64748b">80</text>
<line x1="92" y1="144.0" x2="952" y2="144.0" stroke="#e5e7eb"/>
<text x="84" y="148.0" text-anchor="end" font-size="10" fill="#64748b">0.00585</text>
<line x1="92" y1="110.0" x2="952" y2="110.0" stroke="#e5e7eb"/>
<text x="84" y="114.0" text-anchor="end" font-size="10" fill="#64748b">0.0277</text>
<line x1="92" y1="76.0" x2="952" y2="76.0" stroke="#e5e7eb"/>
<text x="84" y="80.0" text-anchor="end" font-size="10" fill="#64748b">0.0495</text>
<line x1="92" y1="42.0" x2="952" y2="42.0" stroke="#e5e7eb"/>
<text x="84" y="46.0" text-anchor="end" font-size="10" fill="#64748b">0.0713</text>
<polyline points="92.0,119.0 102.9,132.0 113.8,111.3 124.7,128.1 135.5,128.8 146.4,123.0 157.3,140.8 168.2,119.7 179.1,129.9 190.0,116.1 200.9,125.5 211.7,126.0 222.6,90.1 233.5,118.5 244.4,126.6 255.3,128.3 266.2,126.6 277.1,126.8 287.9,128.6 298.8,126.0 309.7,114.7 320.6,127.6 331.5,120.2 342.4,126.4 353.3,128.5 364.2,121.2 375.0,137.8 385.9,111.3 396.8,110.3 407.7,124.4 418.6,129.2 429.5,115.9 440.4,59.0 451.2,134.5 462.1,109.9 473.0,72.5 483.9,120.1 494.8,125.7 505.7,134.7 516.6,117.5 527.4,119.9 538.3,140.2 549.2,129.5 560.1,115.9 571.0,71.9 581.9,95.2 592.8,119.9 603.6,129.3 614.5,103.7 625.4,141.8 636.3,105.3 647.2,129.2 658.1,135.8 669.0,144.0 679.8,52.8 690.7,54.6 701.6,125.7 712.5,131.4 723.4,134.7 734.3,137.4 745.2,92.0 756.1,124.6 766.9,140.9 777.8,126.8 788.7,51.1 799.6,130.6 810.5,129.5 821.4,127.9 832.3,139.8 843.1,70.5 854.0,101.4 864.9,131.7 875.8,123.8 886.7,141.8 897.6,42.0 908.5,134.5 919.3,135.2 930.2,112.2 941.1,136.0 952.0,136.8" fill="none" stroke="#4f46e5" stroke-width="2"/>
<text x="952" y="22" text-anchor="end" font-size="11" fill="#64748b">min=0.005849 max=0.07126 last=0.01044</text>
</g>
<g transform="translate(0,1388)">
<text x="92" y="22" font-size="13" font-weight="700">actor/pg_clipfrac</text>
<rect x="92" y="42" width="860" height="102" fill="#fafafa" stroke="#e2e8f0"/>
<line x1="92.0" y1="42" x2="92.0" y2="144" stroke="#e5e7eb"/>
<text x="92.0" y="162" text-anchor="middle" font-size="10" fill="#64748b">1</text>
<line x1="307.0" y1="42" x2="307.0" y2="144" stroke="#e5e7eb"/>
<text x="307.0" y="162" text-anchor="middle" font-size="10" fill="#64748b">20.8</text>
<line x1="522.0" y1="42" x2="522.0" y2="144" stroke="#e5e7eb"/>
<text x="522.0" y="162" text-anchor="middle" font-size="10" fill="#64748b">40.5</text>
<line x1="737.0" y1="42" x2="737.0" y2="144" stroke="#e5e7eb"/>
<text x="737.0" y="162" text-anchor="middle" font-size="10" fill="#64748b">60.2</text>
<line x1="952.0" y1="42" x2="952.0" y2="144" stroke="#e5e7eb"/>
<text x="952.0" y="162" text-anchor="middle" font-size="10" fill="#64748b">80</text>
<line x1="92" y1="144.0" x2="952" y2="144.0" stroke="#e5e7eb"/>
<text x="84" y="148.0" text-anchor="end" font-size="10" fill="#64748b">-0.5</text>
<line x1="92" y1="110.0" x2="952" y2="110.0" stroke="#e5e7eb"/>
<text x="84" y="114.0" text-anchor="end" font-size="10" fill="#64748b">-0.167</text>
<line x1="92" y1="76.0" x2="952" y2="76.0" stroke="#e5e7eb"/>
<text x="84" y="80.0" text-anchor="end" font-size="10" fill="#64748b">0.167</text>
<line x1="92" y1="42.0" x2="952" y2="42.0" stroke="#e5e7eb"/>
<text x="84" y="46.0" text-anchor="end" font-size="10" fill="#64748b">0.5</text>
<polyline points="92.0,93.0 102.9,93.0 113.8,93.0 124.7,93.0 135.5,93.0 146.4,93.0 157.3,93.0 168.2,93.0 179.1,93.0 190.0,93.0 200.9,93.0 211.7,93.0 222.6,93.0 233.5,93.0 244.4,93.0 255.3,93.0 266.2,93.0 277.1,93.0 287.9,93.0 298.8,93.0 309.7,93.0 320.6,93.0 331.5,93.0 342.4,93.0 353.3,93.0 364.2,93.0 375.0,93.0 385.9,93.0 396.8,93.0 407.7,93.0 418.6,93.0 429.5,93.0 440.4,93.0 451.2,93.0 462.1,93.0 473.0,93.0 483.9,93.0 494.8,93.0 505.7,93.0 516.6,93.0 527.4,93.0 538.3,93.0 549.2,93.0 560.1,93.0 571.0,93.0 581.9,93.0 592.8,93.0 603.6,93.0 614.5,93.0 625.4,93.0 636.3,93.0 647.2,93.0 658.1,93.0 669.0,93.0 679.8,93.0 690.7,93.0 701.6,93.0 712.5,93.0 723.4,93.0 734.3,93.0 745.2,93.0 756.1,93.0 766.9,93.0 777.8,93.0 788.7,93.0 799.6,93.0 810.5,93.0 821.4,93.0 832.3,93.0 843.1,93.0 854.0,93.0 864.9,93.0 875.8,93.0 886.7,93.0 897.6,93.0 908.5,93.0 919.3,93.0 930.2,93.0 941.1,93.0 952.0,93.0" fill="none" stroke="#be123c" stroke-width="2"/>
<text x="952" y="22" text-anchor="end" font-size="11" fill="#64748b">min=-0.5 max=0.5 last=0</text>
</g>
<g transform="translate(0,1578)">
<text x="92" y="22" font-size="13" font-weight="700">actor/pg_clipfrac_lower</text>
<rect x="92" y="42" width="860" height="102" fill="#fafafa" stroke="#e2e8f0"/>
<line x1="92.0" y1="42" x2="92.0" y2="144" stroke="#e5e7eb"/>
<text x="92.0" y="162" text-anchor="middle" font-size="10" fill="#64748b">1</text>
<line x1="307.0" y1="42" x2="307.0" y2="144" stroke="#e5e7eb"/>
<text x="307.0" y="162" text-anchor="middle" font-size="10" fill="#64748b">20.8</text>
<line x1="522.0" y1="42" x2="522.0" y2="144" stroke="#e5e7eb"/>
<text x="522.0" y="162" text-anchor="middle" font-size="10" fill="#64748b">40.5</text>
<line x1="737.0" y1="42" x2="737.0" y2="144" stroke="#e5e7eb"/>
<text x="737.0" y="162" text-anchor="middle" font-size="10" fill="#64748b">60.2</text>
<line x1="952.0" y1="42" x2="952.0" y2="144" stroke="#e5e7eb"/>
<text x="952.0" y="162" text-anchor="middle" font-size="10" fill="#64748b">80</text>
<line x1="92" y1="144.0" x2="952" y2="144.0" stroke="#e5e7eb"/>
<text x="84" y="148.0" text-anchor="end" font-size="10" fill="#64748b">-0.5</text>
<line x1="92" y1="110.0" x2="952" y2="110.0" stroke="#e5e7eb"/>
<text x="84" y="114.0" text-anchor="end" font-size="10" fill="#64748b">-0.167</text>
<line x1="92" y1="76.0" x2="952" y2="76.0" stroke="#e5e7eb"/>
<text x="84" y="80.0" text-anchor="end" font-size="10" fill="#64748b">0.167</text>
<line x1="92" y1="42.0" x2="952" y2="42.0" stroke="#e5e7eb"/>
<text x="84" y="46.0" text-anchor="end" font-size="10" fill="#64748b">0.5</text>
<polyline points="92.0,93.0 102.9,93.0 113.8,93.0 124.7,93.0 135.5,93.0 146.4,93.0 157.3,93.0 168.2,93.0 179.1,93.0 190.0,93.0 200.9,93.0 211.7,93.0 222.6,93.0 233.5,93.0 244.4,93.0 255.3,93.0 266.2,93.0 277.1,93.0 287.9,93.0 298.8,93.0 309.7,93.0 320.6,93.0 331.5,93.0 342.4,93.0 353.3,93.0 364.2,93.0 375.0,93.0 385.9,93.0 396.8,93.0 407.7,93.0 418.6,93.0 429.5,93.0 440.4,93.0 451.2,93.0 462.1,93.0 473.0,93.0 483.9,93.0 494.8,93.0 505.7,93.0 516.6,93.0 527.4,93.0 538.3,93.0 549.2,93.0 560.1,93.0 571.0,93.0 581.9,93.0 592.8,93.0 603.6,93.0 614.5,93.0 625.4,93.0 636.3,93.0 647.2,93.0 658.1,93.0 669.0,93.0 679.8,93.0 690.7,93.0 701.6,93.0 712.5,93.0 723.4,93.0 734.3,93.0 745.2,93.0 756.1,93.0 766.9,93.0 777.8,93.0 788.7,93.0 799.6,93.0 810.5,93.0 821.4,93.0 832.3,93.0 843.1,93.0 854.0,93.0 864.9,93.0 875.8,93.0 886.7,93.0 897.6,93.0 908.5,93.0 919.3,93.0 930.2,93.0 941.1,93.0 952.0,93.0" fill="none" stroke="#2563eb" stroke-width="2"/>
<text x="952" y="22" text-anchor="end" font-size="11" fill="#64748b">min=-0.5 max=0.5 last=0</text>
</g>
<g transform="translate(0,1768)">
<text x="92" y="22" font-size="13" font-weight="700">response_length/clip_ratio</text>
<rect x="92" y="42" width="860" height="102" fill="#fafafa" stroke="#e2e8f0"/>
<line x1="92.0" y1="42" x2="92.0" y2="144" stroke="#e5e7eb"/>
<text x="92.0" y="162" text-anchor="middle" font-size="10" fill="#64748b">1</text>
<line x1="307.0" y1="42" x2="307.0" y2="144" stroke="#e5e7eb"/>
<text x="307.0" y="162" text-anchor="middle" font-size="10" fill="#64748b">20.8</text>
<line x1="522.0" y1="42" x2="522.0" y2="144" stroke="#e5e7eb"/>
<text x="522.0" y="162" text-anchor="middle" font-size="10" fill="#64748b">40.5</text>
<line x1="737.0" y1="42" x2="737.0" y2="144" stroke="#e5e7eb"/>
<text x="737.0" y="162" text-anchor="middle" font-size="10" fill="#64748b">60.2</text>
<line x1="952.0" y1="42" x2="952.0" y2="144" stroke="#e5e7eb"/>
<text x="952.0" y="162" text-anchor="middle" font-size="10" fill="#64748b">80</text>
<line x1="92" y1="144.0" x2="952" y2="144.0" stroke="#e5e7eb"/>
<text x="84" y="148.0" text-anchor="end" font-size="10" fill="#64748b">0</text>
<line x1="92" y1="110.0" x2="952" y2="110.0" stroke="#e5e7eb"/>
<text x="84" y="114.0" text-anchor="end" font-size="10" fill="#64748b">0.0208</text>
<line x1="92" y1="76.0" x2="952" y2="76.0" stroke="#e5e7eb"/>
<text x="84" y="80.0" text-anchor="end" font-size="10" fill="#64748b">0.0417</text>
<line x1="92" y1="42.0" x2="952" y2="42.0" stroke="#e5e7eb"/>
<text x="84" y="46.0" text-anchor="end" font-size="10" fill="#64748b">0.0625</text>
<polyline points="92.0,42.0 102.9,144.0 113.8,144.0 124.7,42.0 135.5,42.0 146.4,144.0 157.3,144.0 168.2,144.0 179.1,144.0 190.0,144.0 200.9,144.0 211.7,144.0 222.6,144.0 233.5,144.0 244.4,144.0 255.3,144.0 266.2,144.0 277.1,144.0 287.9,144.0 298.8,144.0 309.7,144.0 320.6,144.0 331.5,144.0 342.4,144.0 353.3,144.0 364.2,144.0 375.0,144.0 385.9,144.0 396.8,144.0 407.7,144.0 418.6,144.0 429.5,144.0 440.4,144.0 451.2,144.0 462.1,144.0 473.0,144.0 483.9,144.0 494.8,144.0 505.7,144.0 516.6,144.0 527.4,144.0 538.3,144.0 549.2,144.0 560.1,144.0 571.0,144.0 581.9,144.0 592.8,144.0 603.6,144.0 614.5,144.0 625.4,144.0 636.3,144.0 647.2,144.0 658.1,144.0 669.0,144.0 679.8,144.0 690.7,144.0 701.6,144.0 712.5,144.0 723.4,144.0 734.3,144.0 745.2,144.0 756.1,144.0 766.9,144.0 777.8,144.0 788.7,144.0 799.6,144.0 810.5,144.0 821.4,144.0 832.3,144.0 843.1,144.0 854.0,144.0 864.9,144.0 875.8,144.0 886.7,144.0 897.6,144.0 908.5,144.0 919.3,144.0 930.2,144.0 941.1,144.0 952.0,144.0" fill="none" stroke="#16a34a" stroke-width="2"/>
<text x="952" y="22" text-anchor="end" font-size="11" fill="#64748b">min=0 max=0.0625 last=0</text>
</g>
<g transform="translate(0,1958)">
<text x="92" y="22" font-size="13" font-weight="700">response_length/max</text>
<rect x="92" y="42" width="860" height="102" fill="#fafafa" stroke="#e2e8f0"/>
<line x1="92.0" y1="42" x2="92.0" y2="144" stroke="#e5e7eb"/>
<text x="92.0" y="162" text-anchor="middle" font-size="10" fill="#64748b">1</text>
<line x1="307.0" y1="42" x2="307.0" y2="144" stroke="#e5e7eb"/>
<text x="307.0" y="162" text-anchor="middle" font-size="10" fill="#64748b">20.8</text>
<line x1="522.0" y1="42" x2="522.0" y2="144" stroke="#e5e7eb"/>
<text x="522.0" y="162" text-anchor="middle" font-size="10" fill="#64748b">40.5</text>
<line x1="737.0" y1="42" x2="737.0" y2="144" stroke="#e5e7eb"/>
<text x="737.0" y="162" text-anchor="middle" font-size="10" fill="#64748b">60.2</text>
<line x1="952.0" y1="42" x2="952.0" y2="144" stroke="#e5e7eb"/>
<text x="952.0" y="162" text-anchor="middle" font-size="10" fill="#64748b">80</text>
<line x1="92" y1="144.0" x2="952" y2="144.0" stroke="#e5e7eb"/>
<text x="84" y="148.0" text-anchor="end" font-size="10" fill="#64748b">127</text>
<line x1="92" y1="110.0" x2="952" y2="110.0" stroke="#e5e7eb"/>
<text x="84" y="114.0" text-anchor="end" font-size="10" fill="#64748b">767</text>
<line x1="92" y1="76.0" x2="952" y2="76.0" stroke="#e5e7eb"/>
<text x="84" y="80.0" text-anchor="end" font-size="10" fill="#64748b">1408</text>
<line x1="92" y1="42.0" x2="952" y2="42.0" stroke="#e5e7eb"/>
<text x="84" y="46.0" text-anchor="end" font-size="10" fill="#64748b">2048</text>
<polyline points="92.0,42.0 102.9,139.6 113.8,117.7 124.7,42.0 135.5,42.0 146.4,139.9 157.3,143.5 168.2,116.7 179.1,143.1 190.0,142.5 200.9,143.5 211.7,141.0 222.6,107.1 233.5,140.8 244.4,140.9 255.3,143.4 266.2,139.6 277.1,143.3 287.9,71.7 298.8,141.1 309.7,142.9 320.6,141.5 331.5,140.4 342.4,141.9 353.3,143.2 364.2,140.7 375.0,142.0 385.9,141.5 396.8,136.0 407.7,142.3 418.6,143.2 429.5,139.0 440.4,117.5 451.2,141.8 462.1,86.3 473.0,97.4 483.9,137.9 494.8,141.4 505.7,142.9 516.6,137.7 527.4,143.8 538.3,143.6 549.2,142.9 560.1,138.5 571.0,132.8 581.9,121.2 592.8,141.2 603.6,142.0 614.5,139.9 625.4,143.7 636.3,137.0 647.2,143.6 658.1,142.1 669.0,144.0 679.8,130.5 690.7,136.7 701.6,139.6 712.5,142.1 723.4,142.5 734.3,142.3 745.2,139.1 756.1,143.0 766.9,143.6 777.8,139.7 788.7,133.6 799.6,143.6 810.5,141.6 821.4,139.6 832.3,143.6 843.1,135.0 854.0,138.4 864.9,139.6 875.8,143.2 886.7,143.9 897.6,129.4 908.5,143.4 919.3,139.6 930.2,133.9 941.1,139.6 952.0,139.6" fill="none" stroke="#dc2626" stroke-width="2"/>
<text x="952" y="22" text-anchor="end" font-size="11" fill="#64748b">min=127 max=2048 last=209</text>
</g>
<g transform="translate(0,2148)">
<text x="92" y="22" font-size="13" font-weight="700">response_length/mean</text>
<rect x="92" y="42" width="860" height="102" fill="#fafafa" stroke="#e2e8f0"/>
<line x1="92.0" y1="42" x2="92.0" y2="144" stroke="#e5e7eb"/>
<text x="92.0" y="162" text-anchor="middle" font-size="10" fill="#64748b">1</text>
<line x1="307.0" y1="42" x2="307.0" y2="144" stroke="#e5e7eb"/>
<text x="307.0" y="162" text-anchor="middle" font-size="10" fill="#64748b">20.8</text>
<line x1="522.0" y1="42" x2="522.0" y2="144" stroke="#e5e7eb"/>
<text x="522.0" y="162" text-anchor="middle" font-size="10" fill="#64748b">40.5</text>
<line x1="737.0" y1="42" x2="737.0" y2="144" stroke="#e5e7eb"/>
<text x="737.0" y="162" text-anchor="middle" font-size="10" fill="#64748b">60.2</text>
<line x1="952.0" y1="42" x2="952.0" y2="144" stroke="#e5e7eb"/>
<text x="952.0" y="162" text-anchor="middle" font-size="10" fill="#64748b">80</text>
<line x1="92" y1="144.0" x2="952" y2="144.0" stroke="#e5e7eb"/>
<text x="84" y="148.0" text-anchor="end" font-size="10" fill="#64748b">83.5</text>
<line x1="92" y1="110.0" x2="952" y2="110.0" stroke="#e5e7eb"/>
<text x="84" y="114.0" text-anchor="end" font-size="10" fill="#64748b">165</text>
<line x1="92" y1="76.0" x2="952" y2="76.0" stroke="#e5e7eb"/>
<text x="84" y="80.0" text-anchor="end" font-size="10" fill="#64748b">247</text>
<line x1="92" y1="42.0" x2="952" y2="42.0" stroke="#e5e7eb"/>
<text x="84" y="46.0" text-anchor="end" font-size="10" fill="#64748b">328</text>
<polyline points="92.0,42.0 102.9,127.5 113.8,114.1 124.7,70.1 135.5,51.9 146.4,122.5 157.3,142.4 168.2,94.3 179.1,130.1 190.0,127.0 200.9,136.8 211.7,120.3 222.6,75.4 233.5,115.9 244.4,131.6 255.3,135.5 266.2,123.6 277.1,129.7 287.9,95.6 298.8,124.6 309.7,131.5 320.6,118.5 331.5,112.5 342.4,126.1 353.3,138.8 364.2,119.1 375.0,131.8 385.9,130.0 396.8,128.6 407.7,128.9 418.6,129.1 429.5,123.5 440.4,91.9 451.2,124.4 462.1,98.0 473.0,87.4 483.9,118.9 494.8,127.6 505.7,131.1 516.6,112.0 527.4,144.0 538.3,138.2 549.2,139.4 560.1,121.2 571.0,115.6 581.9,103.5 592.8,114.2 603.6,126.6 614.5,132.6 625.4,135.1 636.3,110.5 647.2,127.4 658.1,132.0 669.0,143.4 679.8,111.5 690.7,135.3 701.6,114.0 712.5,123.6 723.4,134.5 734.3,131.3 745.2,117.9 756.1,135.3 766.9,132.6 777.8,115.7 788.7,119.7 799.6,139.9 810.5,133.3 821.4,122.0 832.3,142.7 843.1,126.4 854.0,122.2 864.9,127.5 875.8,133.8 886.7,141.4 897.6,100.7 908.5,125.8 919.3,123.9 930.2,108.6 941.1,116.4 952.0,117.7" fill="none" stroke="#9333ea" stroke-width="2"/>
<text x="952" y="22" text-anchor="end" font-size="11" fill="#64748b">min=83.5 max=328.1 last=146.7</text>
</g>
<g transform="translate(0,2338)">
<text x="92" y="22" font-size="13" font-weight="700">perf/throughput</text>
<rect x="92" y="42" width="860" height="102" fill="#fafafa" stroke="#e2e8f0"/>
<line x1="92.0" y1="42" x2="92.0" y2="144" stroke="#e5e7eb"/>
<text x="92.0" y="162" text-anchor="middle" font-size="10" fill="#64748b">1</text>
<line x1="307.0" y1="42" x2="307.0" y2="144" stroke="#e5e7eb"/>
<text x="307.0" y="162" text-anchor="middle" font-size="10" fill="#64748b">20.8</text>
<line x1="522.0" y1="42" x2="522.0" y2="144" stroke="#e5e7eb"/>
<text x="522.0" y="162" text-anchor="middle" font-size="10" fill="#64748b">40.5</text>
<line x1="737.0" y1="42" x2="737.0" y2="144" stroke="#e5e7eb"/>
<text x="737.0" y="162" text-anchor="middle" font-size="10" fill="#64748b">60.2</text>
<line x1="952.0" y1="42" x2="952.0" y2="144" stroke="#e5e7eb"/>
<text x="952.0" y="162" text-anchor="middle" font-size="10" fill="#64748b">80</text>
<line x1="92" y1="144.0" x2="952" y2="144.0" stroke="#e5e7eb"/>
<text x="84" y="148.0" text-anchor="end" font-size="10" fill="#64748b">3.36</text>
<line x1="92" y1="110.0" x2="952" y2="110.0" stroke="#e5e7eb"/>
<text x="84" y="114.0" text-anchor="end" font-size="10" fill="#64748b">5.58</text>
<line x1="92" y1="76.0" x2="952" y2="76.0" stroke="#e5e7eb"/>
<text x="84" y="80.0" text-anchor="end" font-size="10" fill="#64748b">7.8</text>
<line x1="92" y1="42.0" x2="952" y2="42.0" stroke="#e5e7eb"/>
<text x="84" y="46.0" text-anchor="end" font-size="10" fill="#64748b">10.0</text>
<polyline points="92.0,84.9 102.9,51.5 113.8,69.8 124.7,85.4 135.5,77.1 146.4,48.7 157.3,73.7 168.2,52.9 179.1,57.5 190.0,58.7 200.9,71.7 211.7,45.4 222.6,47.8 233.5,46.2 244.4,66.6 255.3,66.1 266.2,53.2 277.1,59.3 287.9,79.5 298.8,55.9 309.7,65.2 320.6,42.0 331.5,45.8 342.4,57.4 353.3,68.3 364.2,50.5 375.0,52.8 385.9,65.2 396.8,71.0 407.7,59.0 418.6,59.1 429.5,57.6 440.4,52.4 451.2,43.7 462.1,80.0 473.0,68.0 483.9,56.7 494.8,58.7 505.7,61.8 516.6,139.0 527.4,83.1 538.3,68.6 549.2,76.6 560.1,56.0 571.0,56.5 581.9,57.6 592.8,42.7 603.6,58.1 614.5,64.6 625.4,91.9 636.3,88.0 647.2,55.2 658.1,61.0 669.0,78.9 679.8,66.8 690.7,77.0 701.6,46.2 712.5,51.4 723.4,63.6 734.3,52.6 745.2,52.6 756.1,64.5 766.9,53.8 777.8,46.4 788.7,55.5 799.6,72.1 810.5,59.4 821.4,62.6 832.3,73.1 843.1,67.1 854.0,55.9 864.9,63.9 875.8,60.8 886.7,61.1 897.6,52.6 908.5,46.3 919.3,56.2 930.2,55.4 941.1,46.3 952.0,144.0" fill="none" stroke="#ea580c" stroke-width="2"/>
<text x="952" y="22" text-anchor="end" font-size="11" fill="#64748b">min=3.359 max=10.03 last=3.359</text>
</g>
<g transform="translate(0,2528)">
<text x="92" y="22" font-size="13" font-weight="700">critic/score/max</text>
<rect x="92" y="42" width="860" height="102" fill="#fafafa" stroke="#e2e8f0"/>
<line x1="92.0" y1="42" x2="92.0" y2="144" stroke="#e5e7eb"/>
<text x="92.0" y="162" text-anchor="middle" font-size="10" fill="#64748b">1</text>
<line x1="307.0" y1="42" x2="307.0" y2="144" stroke="#e5e7eb"/>
<text x="307.0" y="162" text-anchor="middle" font-size="10" fill="#64748b">20.8</text>
<line x1="522.0" y1="42" x2="522.0" y2="144" stroke="#e5e7eb"/>
<text x="522.0" y="162" text-anchor="middle" font-size="10" fill="#64748b">40.5</text>
<line x1="737.0" y1="42" x2="737.0" y2="144" stroke="#e5e7eb"/>
<text x="737.0" y="162" text-anchor="middle" font-size="10" fill="#64748b">60.2</text>
<line x1="952.0" y1="42" x2="952.0" y2="144" stroke="#e5e7eb"/>
<text x="952.0" y="162" text-anchor="middle" font-size="10" fill="#64748b">80</text>
<line x1="92" y1="144.0" x2="952" y2="144.0" stroke="#e5e7eb"/>
<text x="84" y="148.0" text-anchor="end" font-size="10" fill="#64748b">0.939</text>
<line x1="92" y1="110.0" x2="952" y2="110.0" stroke="#e5e7eb"/>
<text x="84" y="114.0" text-anchor="end" font-size="10" fill="#64748b">0.949</text>
<line x1="92" y1="76.0" x2="952" y2="76.0" stroke="#e5e7eb"/>
<text x="84" y="80.0" text-anchor="end" font-size="10" fill="#64748b">0.96</text>
<line x1="92" y1="42.0" x2="952" y2="42.0" stroke="#e5e7eb"/>
<text x="84" y="46.0" text-anchor="end" font-size="10" fill="#64748b">0.97</text>
<polyline points="92.0,42.0 102.9,144.0 113.8,42.0 124.7,42.0 135.5,42.0 146.4,112.1 157.3,42.0 168.2,42.0 179.1,42.0 190.0,42.0 200.9,42.0 211.7,42.0 222.6,42.0 233.5,42.0 244.4,42.0 255.3,42.0 266.2,42.0 277.1,42.0 287.9,42.0 298.8,42.0 309.7,42.0 320.6,42.0 331.5,42.0 342.4,42.0 353.3,42.0 364.2,42.0 375.0,42.0 385.9,42.0 396.8,42.0 407.7,42.0 418.6,42.0 429.5,42.0 440.4,42.0 451.2,42.0 462.1,42.0 473.0,42.0 483.9,42.0 494.8,42.0 505.7,42.0 516.6,42.0 527.4,42.0 538.3,42.0 549.2,42.0 560.1,42.0 571.0,42.0 581.9,42.0 592.8,42.0 603.6,42.0 614.5,42.0 625.4,42.0 636.3,42.0 647.2,42.0 658.1,42.0 669.0,42.0 679.8,42.0 690.7,42.0 701.6,42.0 712.5,42.0 723.4,42.0 734.3,42.0 745.2,42.0 756.1,42.0 766.9,42.0 777.8,42.0 788.7,42.0 799.6,42.0 810.5,42.0 821.4,42.0 832.3,42.0 843.1,42.0 854.0,42.0 864.9,42.0 875.8,42.0 886.7,42.0 897.6,42.0 908.5,42.0 919.3,42.0 930.2,42.0 941.1,42.0 952.0,42.0" fill="none" stroke="#0891b2" stroke-width="2"/>
<text x="952" y="22" text-anchor="end" font-size="11" fill="#64748b">min=0.9389 max=0.97 last=0.97</text>
</g>
<g transform="translate(0,2718)">
<text x="92" y="22" font-size="13" font-weight="700">critic/score/min</text>
<rect x="92" y="42" width="860" height="102" fill="#fafafa" stroke="#e2e8f0"/>
<line x1="92.0" y1="42" x2="92.0" y2="144" stroke="#e5e7eb"/>
<text x="92.0" y="162" text-anchor="middle" font-size="10" fill="#64748b">1</text>
<line x1="307.0" y1="42" x2="307.0" y2="144" stroke="#e5e7eb"/>
<text x="307.0" y="162" text-anchor="middle" font-size="10" fill="#64748b">20.8</text>
<line x1="522.0" y1="42" x2="522.0" y2="144" stroke="#e5e7eb"/>
<text x="522.0" y="162" text-anchor="middle" font-size="10" fill="#64748b">40.5</text>
<line x1="737.0" y1="42" x2="737.0" y2="144" stroke="#e5e7eb"/>
<text x="737.0" y="162" text-anchor="middle" font-size="10" fill="#64748b">60.2</text>
<line x1="952.0" y1="42" x2="952.0" y2="144" stroke="#e5e7eb"/>
<text x="952.0" y="162" text-anchor="middle" font-size="10" fill="#64748b">80</text>
<line x1="92" y1="144.0" x2="952" y2="144.0" stroke="#e5e7eb"/>
<text x="84" y="148.0" text-anchor="end" font-size="10" fill="#64748b">0</text>
<line x1="92" y1="110.0" x2="952" y2="110.0" stroke="#e5e7eb"/>
<text x="84" y="114.0" text-anchor="end" font-size="10" fill="#64748b">0.323</text>
<line x1="92" y1="76.0" x2="952" y2="76.0" stroke="#e5e7eb"/>
<text x="84" y="80.0" text-anchor="end" font-size="10" fill="#64748b">0.647</text>
<line x1="92" y1="42.0" x2="952" y2="42.0" stroke="#e5e7eb"/>
<text x="84" y="46.0" text-anchor="end" font-size="10" fill="#64748b">0.97</text>
<polyline points="92.0,144.0 102.9,136.6 113.8,136.6 124.7,144.0 135.5,144.0 146.4,123.0 157.3,42.0 168.2,138.7 179.1,136.6 190.0,45.1 200.9,46.0 211.7,100.6 222.6,144.0 233.5,98.8 244.4,50.4 255.3,96.7 266.2,93.3 277.1,42.0 287.9,144.0 298.8,72.1 309.7,96.7 320.6,136.6 331.5,45.8 342.4,42.0 353.3,45.6 364.2,128.2 375.0,120.9 385.9,136.6 396.8,136.6 407.7,78.3 418.6,42.0 429.5,49.4 440.4,136.6 451.2,45.6 462.1,144.0 473.0,144.0 483.9,43.8 494.8,78.3 505.7,96.7 516.6,96.7 527.4,88.5 538.3,42.0 549.2,42.0 560.1,43.8 571.0,136.6 581.9,136.6 592.8,42.0 603.6,96.7 614.5,120.5 625.4,44.9 636.3,47.9 647.2,96.7 658.1,120.9 669.0,42.0 679.8,136.6 690.7,136.6 701.6,120.9 712.5,43.8 723.4,42.0 734.3,42.0 745.2,110.5 756.1,69.1 766.9,71.2 777.8,43.8 788.7,135.6 799.6,71.0 810.5,42.0 821.4,43.7 832.3,69.1 843.1,115.3 854.0,101.6 864.9,43.7 875.8,46.0 886.7,42.0 897.6,106.5 908.5,43.6 919.3,43.7 930.2,111.9 941.1,43.7 952.0,69.1" fill="none" stroke="#4f46e5" stroke-width="2"/>
<text x="952" y="22" text-anchor="end" font-size="11" fill="#64748b">min=0 max=0.97 last=0.7125</text>
</g>
<g transform="translate(0,2908)">
<text x="92" y="22" font-size="13" font-weight="700">timing_s/step</text>
<rect x="92" y="42" width="860" height="102" fill="#fafafa" stroke="#e2e8f0"/>
<line x1="92.0" y1="42" x2="92.0" y2="144" stroke="#e5e7eb"/>
<text x="92.0" y="162" text-anchor="middle" font-size="10" fill="#64748b">1</text>
<line x1="307.0" y1="42" x2="307.0" y2="144" stroke="#e5e7eb"/>
<text x="307.0" y="162" text-anchor="middle" font-size="10" fill="#64748b">20.8</text>
<line x1="522.0" y1="42" x2="522.0" y2="144" stroke="#e5e7eb"/>
<text x="522.0" y="162" text-anchor="middle" font-size="10" fill="#64748b">40.5</text>
<line x1="737.0" y1="42" x2="737.0" y2="144" stroke="#e5e7eb"/>
<text x="737.0" y="162" text-anchor="middle" font-size="10" fill="#64748b">60.2</text>
<line x1="952.0" y1="42" x2="952.0" y2="144" stroke="#e5e7eb"/>
<text x="952.0" y="162" text-anchor="middle" font-size="10" fill="#64748b">80</text>
<line x1="92" y1="144.0" x2="952" y2="144.0" stroke="#e5e7eb"/>
<text x="84" y="148.0" text-anchor="end" font-size="10" fill="#64748b">96.5</text>
<line x1="92" y1="110.0" x2="952" y2="110.0" stroke="#e5e7eb"/>
<text x="84" y="114.0" text-anchor="end" font-size="10" fill="#64748b">156</text>
<line x1="92" y1="76.0" x2="952" y2="76.0" stroke="#e5e7eb"/>
<text x="84" y="80.0" text-anchor="end" font-size="10" fill="#64748b">216</text>
<line x1="92" y1="42.0" x2="952" y2="42.0" stroke="#e5e7eb"/>
<text x="84" y="46.0" text-anchor="end" font-size="10" fill="#64748b">275</text>
<polyline points="92.0,100.8 102.9,142.3 113.8,135.0 124.7,109.0 135.5,109.4 146.4,142.4 157.3,143.7 168.2,134.8 179.1,143.6 190.0,143.4 200.9,143.8 211.7,142.8 222.6,131.5 233.5,142.8 244.4,143.0 255.3,143.7 266.2,142.4 277.1,143.7 287.9,120.1 298.8,143.0 309.7,143.5 320.6,142.9 331.5,142.7 342.4,143.2 353.3,143.7 364.2,142.8 375.0,143.2 385.9,143.1 396.8,141.1 407.7,143.2 418.6,143.6 429.5,142.0 440.4,135.1 451.2,143.1 462.1,124.2 473.0,128.2 483.9,141.8 494.8,143.1 505.7,143.6 516.6,44.0 527.4,143.6 538.3,143.7 549.2,143.4 560.1,141.9 571.0,139.6 581.9,136.1 592.8,143.0 603.6,143.2 614.5,142.5 625.4,127.2 636.3,121.7 647.2,143.8 658.1,143.3 669.0,144.0 679.8,139.3 690.7,141.5 701.6,142.2 712.5,143.2 723.4,143.4 734.3,143.3 745.2,142.2 756.1,143.7 766.9,143.7 777.8,142.3 788.7,140.3 799.6,143.8 810.5,143.0 821.4,142.5 832.3,143.8 843.1,140.9 854.0,142.1 864.9,142.3 875.8,143.7 886.7,143.9 897.6,138.8 908.5,143.7 919.3,142.5 930.2,140.6 941.1,142.6 952.0,42.0" fill="none" stroke="#be123c" stroke-width="2"/>
<text x="952" y="22" text-anchor="end" font-size="11" fill="#64748b">min=96.48 max=275.3 last=275.3</text>
</g>
</svg>